<svg xmlns="http://www.w3.org/2000/svg" xmlns:xlink="http://www.w3.org/1999/xlink" viewBox="0 0 258 258" version="1.1">
  <title>
    Group Copy
  </title>
  <desc>
    Created with Sketch.
  </desc>
  <defs>
    <circle id="path-1" cx="124.584718" cy="124.584718" r="124.584718"/>
    <linearGradient x1="37.5846028%" y1="-6.25328482%" x2="37.5846028%" y2="118.850673%" id="linearGradient-3">
      <stop stop-color="#09DFF3" offset="0%"/>
      <stop stop-color="#44BEFF" offset="100%"/>
    </linearGradient>
  </defs>
  <g id="Work" stroke="none" stroke-width="1" fill="none" fill-rule="evenodd">
    <g id="Group-Copy" transform="translate(4.491358, 4.000000)">
      <g id="Rectangle-124-Copy-15" transform="translate(0.285778, 0.528239)">
        <mask id="mask-2" fill="white">
          <use xlink:href="#path-1"/>
        </mask>
        <use id="Mask" stroke="#FFFFFF" stroke-width="4" fill="#EBF5FA" xlink:href="#path-1"/>
        <rect id="Rectangle-124" fill="#555555" mask="url(#mask-2)" x="-0.415282392" y="215.798529" width="249.169435" height="33.3709065"/>
      </g>
      <rect id="Rectangle-7-Copy-47" fill="#DDDDDD" x="91.5086417" y="75" width="8" height="135"/>
      <path d="M108.508642 208L108.508642 217 83.5086417 217 83.5086417 208 108.508642 208 108.508642 208Z" id="Rectangle-7-Copy-48" fill="#555555"/>
      <path d="M108.508642 208L108.508642 217 95.5086417 217 95.5086417 208 108.508642 208 108.508642 208Z" id="Rectangle-7-Copy-49" fill-opacity="0.05" fill="#000000"/>
      <path d="M152.508642 204L152.508642 217 127.508642 217 127.508642 204 152.508642 204 152.508642 204Z" id="Rectangle-7-Copy-50" fill="#555555"/>
      <path d="M152.508642 204L152.508642 217 139.508642 217 139.508642 204 152.508642 204 152.508642 204Z" id="Rectangle-7-Copy-55" fill-opacity="0.05" fill="#000000"/>
      <g id="Group-Copy-8" transform="translate(113.000000, 42.000000)">
        <circle id="Oval-94-Copy-16" opacity="0.9" fill="#FFFFFF" cx="20.5" cy="16.5" r="3.5"/>
        <circle id="Oval-95-Copy-16" opacity="0.9" fill="#FFFFFF" cx="34" cy="21" r="2"/>
        <circle id="Oval-96-Copy-29" opacity="0.9" fill="#FFFFFF" cx="27" cy="29" r="2"/>
        <circle id="Oval-96-Copy-30" opacity="0.9" fill="#FFFFFF" cx="30" cy="5" r="5"/>
        <g id="Group-Copy-20" transform="translate(0.000000, 35.544850)">
          <rect id="Rectangle-11-Copy-10" fill="#FFFFFF" x="17.5086417" y="3.4551495" width="20" height="41"/>
          <rect id="Rectangle-11-Copy-12" fill-opacity="0.05" fill="#000000" x="17.5086417" y="3.4551495" width="20" height="1"/>
          <rect id="Rectangle-11-Copy-11" fill-opacity="0.05" fill="#000000" x="27.5086417" y="3.4551495" width="10" height="41"/>
          <rect id="Rectangle-12-Copy-6" fill="#FFFFFF" x="13.5086417" y="0.455149502" width="28" height="3" rx="40"/>
          <rect id="Rectangle-12-Copy-7" fill-opacity="0.05" fill="#000000" x="25.5086417" y="0.455149502" width="16" height="3" rx="40"/>
          <path d="M17.5086417 44.4551495L37.5086417 44.4551495C37.5086417 44.4551495 55.5086439 68.4551495 55.5086412 75.4551495 55.5086386 82.4551495 0.508641239 84.4551495 0.508641233 75.4551495 0.508641227 66.4551495 17.5086417 44.4551495 17.5086417 44.4551495Z" id="Rectangle-13-Copy-9" fill="#FFFFFF"/>
          <path d="M3.9309117 65.2720044C5.81331002 61.605334 6.91459793 59.8312348 8.50864123 60.4551496 10.1026845 61.0790644 8.40068772 62.4551495 10.5086412 62.4551495 12.6165947 62.4551495 14.3815944 57.9869113 16.5086412 57.4551496 18.6356881 56.9233879 18.3400902 62.4057147 21.5086412 61.4551494 24.6771923 60.504584 24.4137091 55.8601391 26.5086412 55.4551495 28.4588951 55.078129 29.0086412 59.5219624 31.5086412 59.5219624 34.0086412 59.5219624 34.2302144 55.8832478 36.5086412 55.4551495 38.787068 55.0270512 39.5086412 59.4551495 42.5086412 59.4551495 45.5086412 59.4551495 44.5139509 53.7955606 49.7841008 62.5219623 52.9617892 67.7836316 55.5086422 72.8220713 55.5086412 75.4551495 55.5086386 82.4551495 0.508641239 84.4551495 0.508641233 75.4551495 0.508641231 72.8612936 1.92070924 69.187621 3.9309117 65.2720044Z" id="Rectangle-13-Copy-17" fill="url(#linearGradient-3)"/>
          <path d="M27.5086412 44.4551495L37.5086417 44.4551495C37.5086417 44.4551495 55.5086439 68.4551495 55.5086412 75.4551495 53.5086412 81.4551495 27.5086412 81.4551495 27.5086412 81.4551495L27.5086412 44.4551495Z" id="Rectangle-13-Copy-18" fill-opacity="0.05" fill="#000000"/>
        </g>
      </g>
      <path d="M150.508642 92L150.508642 102 128.508642 102 128.508642 92 150.508642 92 150.508642 92Z" id="Rectangle-7-Copy-52" fill="#B6B6B6"/>
      <path d="M150.508642 102L138.508642 102 138.508642 92 150.508642 92 150.508642 102Z" id="Rectangle-7-Copy-53" fill="#A4A4A4"/>
      <path d="M128.508642 93L128.508642 101 103.508642 101 103.508642 93 128.508642 93 128.508642 93Z" id="Rectangle-7-Copy-54" fill="#DDDDDD"/>
      <circle id="Oval-10-Copy-11" fill="#FAB23C" cx="95.5086417" cy="97" r="10"/>
      <circle id="Oval-10-Copy-12" fill="#FA9B00" cx="95.5086417" cy="97" r="4"/>
      <path d="M140.508642 197C144.92692 197 148.508642 194.880801 148.508642 188 148.508642 180.431491 139.508642 170 139.508642 170 139.508642 170 140.508642 171 138.508642 175 136.508642 179 132.508642 183.579639 132.508642 188 132.508642 194.880801 136.090364 197 140.508642 197Z" id="Oval-11-Copy-14" fill="#FA9B00"/>
      <path d="M140.508642 196C141.941638 196 143.508642 194.990679 143.508642 192 143.508642 188.10884 140.508642 183 140.508642 183 140.508642 183 140.677453 184.713285 139.508642 186 138.927783 187.88162 136.508642 189.852917 136.508642 192 136.508642 194.990679 138.075645 196 140.508642 196Z" id="Oval-11-Copy-15" fill="#FAB23C"/>
      <rect id="Rectangle-16-Copy-11" fill="#DCDCDC" x="130.508642" y="197" width="18" height="7"/>
      <rect id="Rectangle-16-Copy-12" fill-opacity="0.05" fill="#000000" x="139.508642" y="197" width="9" height="7"/>
    </g>
  </g>
</svg>
