<svg xmlns="http://www.w3.org/2000/svg" xmlns:xlink="http://www.w3.org/1999/xlink" width="258px" height="258px" viewBox="0 0 258 258" version="1.1">
  <title>
    Rectangle 124 Copy + Group Copy 23 + Group Copy 22 Mask Copy Copy Copy Copy Copy Copy Copy Copy + Group Copy 7
  </title>
  <desc>
    Created with Sketch.
  </desc>
  <defs>
    <ellipse id="path-1" cx="124.792359" cy="124.585847" rx="124.584718" ry="124.584718"/>
    <linearGradient x1="37.5846028%" y1="-6.25328482%" x2="37.5846028%" y2="118.850673%" id="linearGradient-3">
      <stop stop-color="#09DFF3" offset="0%"/>
      <stop stop-color="#44BEFF" offset="100%"/>
    </linearGradient>
  </defs>
  <g id="Work" stroke="none" stroke-width="1" fill="none" fill-rule="evenodd">
    <g id="Rectangle-124-Copy-+-Group-Copy-23-+-Group-Copy-22-Mask-Copy-Copy-Copy-Copy-Copy-Copy-Copy-Copy-+-Group-Copy-7" transform="translate(4.000000, 4.000000)">
      <g id="Rectangle-124-Copy-+-Group-Copy-23-+-Group-Copy-22-Mask-Copy-Copy-Copy-Copy-Copy-Copy-Copy-Copy">
        <mask id="mask-2" fill="white">
          <use xlink:href="#path-1"/>
        </mask>
        <use id="Mask" stroke="#FFFFFF" stroke-width="4" fill="#EBF5FA" xlink:href="#path-1"/>
        <g id="Group-Copy-28" mask="url(#mask-2)">
          <g transform="translate(37.375415, -30.997864)">
            <path d="M66.5538977 258.688593L65.5491864 172.209529 109.224034 57.7389576 110.610722 44.0457703 126.636606 54.7889758 168.681384 81.3725355 171.109605 170.121612 164.786636 258.68859 66.5538977 258.688593Z" id="Path-392" stroke="none" fill="#EDEEEE" fill-rule="evenodd"/>
            <polygon id="Polygon-96-Copy" stroke="#FFFFFF" stroke-width="1" fill="none" points="132.890365 118.770764 143.679718 125 143.679718 137.458472 132.890365 143.687708 122.101012 137.458472 122.101012 125 "/>
            <g id="Polygon-182-Copy-11-+-Polygon-185-Copy-11-Copy-Copy-Copy-Copy-Copy-Copy-Copy-Copy-Copy-Copy-Copy-Copy" stroke="none" stroke-width="1" fill="none" fill-rule="evenodd" transform="translate(127.076412, 122.923588)">
              <path d="M0.155343659 6.35425118L0.11546935 6.3776806 0.11546935 3.12099263 5.61812395 0.0224531373 5.61812395 0 5.63806106 0.0112265686 5.63806106 0.0112265686 5.65799817 0 5.65799817 0.022453137 11.1606527 3.12099263 11.1606527 6.3776806 5.63806097 3.13270731 3.67483786 4.28626111 3.98327723 4.10297452 0.155343743 3.14632243 0.155343659 6.35425118ZM11.1192866 13.3279788L5.69787248 16.4737964 5.69787248 16.5060398 5.6696917 16.4901485 5.65799817 16.4969338 5.65799817 16.4835545 0.155343658 13.380591 0.155343658 10.1192532 5.65799817 13.3571281 5.65799817 13.3353486 7.43808707 12.3024382 11.1192866 13.3279788 11.1192866 13.3279788ZM11.2005269 11.7213048L11.200527 10.1192532 8.00399927 11.9740632 11.200527 10.1617711 11.2005269 11.7213048 11.2005269 11.7213048Z" id="Polygon-182-Copy-11" fill="#40C8F9"/>
              <path d="M11.0850576 13.2740879L0 6.37540977 0 3.11652499 11.0850576 10.0152032 11.0850576 13.2740879 11.0850576 13.2740879Z" id="Polygon-185-Copy-11" fill="#40C8F9"/>
            </g>
            <path d="M89.996457 98.2180187L65.3679407 46.4353909 64.9914996 16.8215558C64.9914996 16.8215558 80.932388 0.770741743 89.0439866 0.832062377 96.8049703 0.890732494 112.609246 17.181528 112.609246 17.181528L110.737076 44.2142121 89.996457 98.2180187 89.996457 98.2180187Z" id="Path-183-Copy-2" stroke="none" fill="#CDCDCD" fill-rule="evenodd"/>
            <path d="M70.0640994 258.951587L65.6133996 172.353093 78.8444751 144.443796 51.46391 53.2703979 10.5579706 80.8764813 3.79334722 172.353093 11.4163564 258.951587 70.0640994 258.951587Z" id="Path-399" stroke="none" fill="#F2F2F2" fill-rule="evenodd"/>
            <path d="M65.1756465 114.35547L65.9223691 60.6289756C65.9223691 60.6289756 74.8745159 60.1393597 78.021007 57.8031277 82.3006548 54.6255402 88.2007856 44.6693975 88.2007856 44.6693975L86.6726414 60.6289752 65.1756465 114.35547Z" id="Path-401-Copy" stroke="none" fill="#FAB23C" fill-rule="evenodd" transform="translate(76.688216, 79.512434) scale(-1, 1) translate(-76.688216, -79.512434) "/>
            <path d="M168.518026 80.9093881L157.738066 86.9210864 149.298622 125.514312 152.604259 169.463989 149.74918 227.909125 147.256633 258.527381 173.640543 258.527383 178.9457 181.311388 173.640544 98.5313054 168.518026 80.9093881Z" id="Path-393" stroke="none" fill="#E5E5E5" fill-rule="evenodd"/>
            <path d="M21.508059 80.9093881L9.08333736 89.1933184 2.2886556 125.514312 4.76372736 169.463989 2.73921363 227.909125 0.246666391 258.527381 26.6305765 258.527383 31.9357337 181.311388 26.6305769 98.5313054 21.508059 80.9093881Z" id="Path-393-Copy" stroke="none" fill="#E5E5E5" fill-rule="evenodd" transform="translate(16.091200, 169.718386) scale(-1, 1) translate(-16.091200, -169.718386) "/>
            <path d="M65.4024837 172.509792L125.679934 112.817496 115.728115 96.0263067 133.288352 86.3101639 126.357577 54.6617547 110.703807 44.1089573 106.681788 58.6549855 65.4024837 172.509792Z" id="Path-394" stroke="none" fill="#E1E1E1" fill-rule="evenodd"/>
            <path d="M75.2346669 146.671073L87.4227894 112.156446 68.5886754 60.2776445 65.0243477 44.8178186 48.1125298 55.5250576 37.9756696 85.9057837 56.8633306 97.9580511 48.1125294 115.08702 75.2346669 146.671073Z" id="Path-398" stroke="none" fill="#EBEBEB" fill-rule="evenodd"/>
            <path d="M87.4708838 112.029315L87.4708838 60.4161941C87.4708838 60.4161941 98.1189379 59.8652347 102.34257 56.7432656 105.820698 54.1723485 110.576163 44.1294614 110.576163 44.1294614L106.642172 59.4746312 87.4708838 112.029315Z" id="Path-401" stroke="none" fill="#FAB23C" fill-rule="evenodd"/>
            <ellipse id="Oval-329" stroke="none" opacity="0.5" fill="#FFFFFF" fill-rule="evenodd" cx="87.2093023" cy="73.089701" rx="1.66112957" ry="1.66112957"/>
            <ellipse id="Oval-329-Copy" stroke="none" opacity="0.5" fill="#FFFFFF" fill-rule="evenodd" cx="87.2093023" cy="84.717608" rx="1.66112957" ry="1.66112957"/>
            <ellipse id="Oval-329-Copy-2" stroke="none" opacity="0.5" fill="#FFFFFF" fill-rule="evenodd" cx="87.2093023" cy="96.345515" rx="1.66112957" ry="1.66112957"/>
            <path d="M102.342536 52.6152173L87.4261812 60.5280535 96.600536 72.7328558 106.118744 60.8262471 106.692647 59.3294663 110.834082 44.0193531 102.342536 52.6152173Z" id="Path-402" stroke="none" fill="#D8A046" fill-rule="evenodd"/>
            <path d="M79.9716211 52.6152173L65.0552661 60.5280535 74.2296209 72.7328558 83.7478292 60.8262471 84.3217321 59.3294663 87.5782685 44.8467794 79.9716211 52.6152173Z" id="Path-402-Copy-2" stroke="none" fill="#D8A046" fill-rule="evenodd" transform="translate(76.316767, 58.789818) scale(-1, 1) translate(-76.316767, -58.789818) "/>
            <path id="Path-405" stroke="#979797" stroke-width="1" fill="none" d=""/>
          </g>
        </g>
        <rect id="Rectangle-124-Copy" fill="#555555" mask="url(#mask-2)" x="0.207641196" y="215.798529" width="249.169435" height="33.2225914"/>
      </g>
      <g id="Group-Copy-7" transform="translate(91.362126, 102.990033)">
        <ellipse id="Oval-94-Copy-16" opacity="0.9" fill="#FFFFFF" cx="23.255814" cy="16.6112957" rx="3.32225914" ry="3.32225914"/>
        <ellipse id="Oval-95-Copy-16" opacity="0.9" fill="#FFFFFF" cx="36.9601329" cy="21.179402" rx="2.07641196" ry="2.07641196"/>
        <ellipse id="Oval-96-Copy-29" opacity="0.9" fill="#FFFFFF" cx="30.3156146" cy="29.4850498" rx="2.07641196" ry="2.07641196"/>
        <circle id="Oval-96-Copy-30" opacity="0.9" fill="#FFFFFF" cx="33.2225914" cy="4.9833887" r="4.9833887"/>
        <g id="Group-Copy-20" transform="translate(0.000000, 36.544850)">
          <rect id="Rectangle-11-Copy-10" fill="#FFFFFF" x="19.9335548" y="2.49169435" width="19.10299" height="40.6976744"/>
          <rect id="Rectangle-11-Copy-12" fill-opacity="0.05" fill="#000000" x="19.9335548" y="2.49169435" width="19.10299" height="0.830564784"/>
          <rect id="Rectangle-11-Copy-11" fill-opacity="0.05" fill="#000000" x="29.0697674" y="2.49169435" width="9.96677741" height="40.6976744"/>
          <rect id="Rectangle-12-Copy-6" fill="#FFFFFF" x="17.4418605" y="0" width="24.0863787" height="2.49169435" rx="40"/>
          <rect id="Rectangle-12-Copy-7" fill-opacity="0.05" fill="#000000" x="29.0697674" y="0" width="12.4584718" height="2.49169435" rx="40"/>
          <path d="M19.9335548 43.1893688L39.0365449 43.1893688 55.8678935 63.5910035C61.709569 70.6718223 59.0018856 76.4119601 49.8330051 76.4119601L9.13709456 76.4119601C-0.0375577991 76.4119601-2.74777105 70.681885 3.10220618 63.5910035L19.9335548 43.1893688Z" id="Rectangle-13-Copy-9" fill="#FFFFFF"/>
          <path d="M56.3834836 63.9534884C62.6491119 70.7801913 59.7903703 76.4119601 50.4034172 76.4119601L9.39724727 76.4119601C0.00932993126 76.4119601-2.84852293 69.950705 3.41718083 63.1229236L8.56668249 56.4784053C8.56668249 56.4784053 13.2972593 59.4795013 15.3773137 59.8006645 17.1906575 59.4795013 19.5175612 56.3119659 22.2116754 56.4784053 24.2892034 56.0294176 26.7067725 59.0319047 29.046037 58.9700997 30.9713372 58.9710067 32.8154525 55.7959462 35.0261035 55.6478405 36.7584522 55.4848647 38.8334226 58.5285736 41.0061699 58.9700997 42.9863858 58.6211309 44.9908963 56.7330667 46.9862364 56.4784053 48.8924709 55.6701228 50.4034172 56.4784053 50.4034172 56.4784053L56.3834836 63.9534884Z" id="Rectangle-13-Copy-10" fill="url(#linearGradient-3)"/>
          <path d="M29.0697674 43.1893688L39.0365449 43.1893688 56.9358928 64.8855481C62.1877286 71.2514097 59.7524252 76.4119601 51.4854151 76.4119601L29.0697674 76.4119601 29.0697674 43.1893688Z" id="Rectangle-13-Copy-14" fill-opacity="0.05" fill="#000000"/>
        </g>
      </g>
    </g>
  </g>
</svg>
