<svg xmlns="http://www.w3.org/2000/svg" width="258" height="258" viewBox="0 0 258 258" xmlns:xlink="http://www.w3.org/1999/xlink">
  <defs>
    <circle id="path-1" cx="124.6" cy="124.4" r="124.2"/>
    <circle id="path-3" cx="125" cy="124.8" r="124.6"/>
    <linearGradient id="linearGradient-5" x1="0%" x2="46.1%" y1="88.4%" y2="38.3%">
      <stop stop-color="#09DFF3" offset="0%"/>
      <stop stop-color="#44BEFF" offset="100%"/>
    </linearGradient>
    <linearGradient id="linearGradient-6" x1="0%" x2="81.2%" y1="9.2%" y2="100%">
      <stop stop-color="#09DFF3" offset="0%"/>
      <stop stop-color="#44BEFF" offset="100%"/>
    </linearGradient>
    <linearGradient id="linearGradient-7" x1="50%" x2="50%" y1="0%" y2="91.6%">
      <stop stop-color="#FFCD59" offset="0%"/>
      <stop stop-color="#F9BA37" offset="100%"/>
    </linearGradient>
  </defs>
  <g fill="none" fill-rule="evenodd" transform="translate(4 3.469)">
    <g transform="translate(.414 .458)">
      <mask id="mask-2" fill="#fff">
        <use xlink:href="#path-1"/>
      </mask>
      <use fill="#E9F0F4" xlink:href="#path-1"/>
      <mask id="mask-4" fill="#fff">
        <use xlink:href="#path-3"/>
      </mask>
      <use fill="#EBF5FA" stroke="#FFF" stroke-width="4" xlink:href="#path-3"/>
      <path fill="#555" d="M1.2 215.5H249.5V248.6H1.2z" mask="url(#mask-4)"/>
    </g>
    <ellipse cx="74.9" cy="127.1" fill="#FFF" opacity=".7" rx="3.3" ry="3.3"/>
    <ellipse cx="84.4" cy="132.5" fill="#FFF" opacity=".7" rx="2.1" ry="2.1"/>
    <ellipse cx="76.2" cy="139.1" fill="#FFF" opacity=".7" rx="2.1" ry="2.1"/>
    <path fill="url(#linearGradient-5)" d="M138.296778,65.8548565 L140.315611,118.799602 C140.315611,118.799602 140.533702,121.283046 138.296778,121.283046 C136.059854,121.283046 136.176538,118.799602 136.176538,118.799602 L138.296778,65.8548565 Z"/>
    <path fill="#FFF" d="M0 0H23.1V4H0zM3.2 4H19.9V62.8H3.2z" transform="rotate(-120 162.666 40.193) translate(151.076 8.736)"/>
    <path fill="url(#linearGradient-6)" d="M4.77046184,3.97538487 L16.8785391,55.2566531 C17.6562838,58.5506306 15.535252,61.220927 12.1613681,61.220927 L10.8958641,61.220927 C7.51289786,61.220927 4.77046184,58.4791413 4.77046184,55.0946512 L4.77046184,3.97538487 Z" transform="rotate(-120 162.666 40.193) translate(151.076 8.736)"/>
    <path fill="#FFF" d="M72.4 148.6H84.7V161.9H72.4z"/>
    <path fill="url(#linearGradient-7)" d="M84.299117,173.189678 L84.299117,161.881347 L72.1578366,161.881347 L72.1578366,173.189678 C65.084373,175.724375 60.0165563,182.563631 60.0165563,190.602913 C60.0165563,200.800224 68.1703108,209.066777 78.2284768,209.066777 C88.2866428,209.066777 96.4403974,200.800224 96.4403974,190.602913 C96.4403974,182.563631 91.3725806,175.724375 84.299117,173.189678 L84.299117,173.189678 Z"/>
    <path fill="#000" fill-opacity=".1" d="M84.299117,161.881347 L78.2284771,161.881347 C78.2284771,161.881347 78.2284769,209.066776 78.2284768,209.066777 C88.2866428,209.066777 96.4403974,200.800224 96.4403974,190.602913 C96.4403974,182.563631 91.3725806,175.724375 84.299117,173.189678 L84.299117,161.881347 Z"/>
    <path fill="#E6E6E6" d="M78.2 149.5H84.3V162.3H78.2z"/>
    <rect width="37.3" height="2.5" x="59.2" y="200" fill="#454545" rx="4"/>
    <path fill="#454545" d="M61.8791391,201.616446 L64.9834437,201.616446 L59.8096026,215.689294 L56.705298,215.689294 L61.8791391,201.616446 Z"/>
    <path fill="#454545" d="M95.8195364,201.616446 L98.9238411,201.616446 L93.75,215.689294 L90.6456954,215.689294 L95.8195364,201.616446 Z" transform="matrix(-1 0 0 1 189.57 0)"/>
    <path fill="#454545" d="M76.5728477 210.119383L76.5728477 201.616446 79.884106 201.616446 79.884106 215.689294 76.5728477 215.689294 76.5728477 210.119383zM106 190.5H172V216.5H106z"/>
    <path fill="#555" d="M106 190.5H139V216.5H106z"/>
    <rect width="15.4" height="2" x="70.8" y="147" fill="#FFF" rx="40"/>
    <rect width="7.7" height="2" x="78.2" y="147" fill="#E6E6E6" rx="40"/>
    <path fill="#DCDCDC" d="M112.456088,166.336209 L111.293594,164.054686 L108.209436,165.626143 C107.560966,165.263975 106.749376,165.220544 106.038142,165.582936 L98.7357833,169.303673 C98.021133,169.667806 97.5794208,170.349244 97.4925663,171.086661 L85.0265395,178.297775 L86.1890334,180.579297 L98.6569777,173.367207 C99.3054477,173.729375 100.117038,173.772806 100.828272,173.410414 L108.130631,169.689677 C108.845281,169.325544 109.286993,168.644106 109.373848,167.906689 L112.456088,166.336209 L112.456088,166.336209 Z"/>
    <path fill="#FFF" d="M110,127.530667 L166,127.530667 L166,189.530667 L110,189.530667 L110,127.530667 Z M108,126.030667 C108,125.20224 108.664269,124.530667 109.507874,124.530667 L167.492126,124.530667 C168.324902,124.530667 169,125.196464 169,126.030667 C169,126.859094 168.335731,127.530667 167.492126,127.530667 L109.507874,127.530667 C108.675098,127.530667 108,126.864869 108,126.030667 Z"/>
    <path fill="#000" d="M138,127.530667 L166,127.530667 L166,189.530667 L138,189.530667 L138,127.530667 Z M138,124.530667 L167.504806,124.530667 C168.330579,124.530667 169,125.196464 169,126.030667 C169,126.859094 168.323691,127.530667 167.504806,127.530667 L138,127.530667 L138,124.530667 Z" opacity=".1"/>
    <path fill="url(#linearGradient-7)" d="M110 162.5H166V190.5H110z"/>
    <path fill="#000" fill-opacity=".1" d="M138 162.5H166V190.5H138zM110.5 143.7H125.4V144.5H110.5zM110.5 147.8H125.4V148.60000000000002H110.5zM110.5 151.9H125.4V152.70000000000002H110.5zM110.5 156.1H125.4V156.9H110.5z"/>
  </g>
</svg>
