<svg xmlns="http://www.w3.org/2000/svg" width="524" height="600" viewBox="0 0 524 600">
  <defs>
    <linearGradient id="a" x1="67.3%" x2="93%" y1="3.2%" y2="51.4%">
      <stop stop-color="#038AA6" offset="0%"/>
      <stop stop-color="#43A3C6" offset="100%"/>
    </linearGradient>
    <linearGradient id="b" x1="67.3%" x2="93%" y1="3.2%" y2="51.4%">
      <stop stop-color="#006D84" offset="0%"/>
      <stop stop-color="#3080AF" offset="100%"/>
    </linearGradient>
    <linearGradient id="c" x1="66.2%" x2="7.8%" y1="-4.5%" y2="89.5%">
      <stop stop-color="#58D5F7" offset="0%"/>
      <stop stop-color="#44A7E0" offset="100%"/>
    </linearGradient>
    <linearGradient id="d" x1="66.2%" x2="7.8%" y1="-4.5%" y2="89.5%">
      <stop stop-color="#3991C8" offset="0%"/>
      <stop stop-color="#43ABDB" offset="100%"/>
    </linearGradient>
    <linearGradient id="e" x1="66.2%" x2="7.8%" y1="-4.5%" y2="89.5%">
      <stop stop-color="#3CD5FF" offset="0%"/>
      <stop stop-color="#20A3EE" offset="100%"/>
    </linearGradient>
    <linearGradient id="f" x1="66.2%" x2="7.8%" y1="-4.5%" y2="89.5%">
      <stop stop-color="#39A9C8" offset="0%"/>
      <stop stop-color="#47C5ED" offset="100%"/>
    </linearGradient>
    <linearGradient id="g" x1="66.2%" x2="7.8%" y1="-4.5%" y2="89.5%">
      <stop stop-color="#37C4EB" offset="0%"/>
      <stop stop-color="#2392D2" offset="100%"/>
    </linearGradient>
    <linearGradient id="h" x1="66.2%" x2="7.8%" y1="-4.5%" y2="89.5%">
      <stop stop-color="#30AED1" offset="0%"/>
      <stop stop-color="#1F8BCA" offset="100%"/>
    </linearGradient>
    <linearGradient id="i" x1="29.1%" x2="29.1%" y1="16.9%" y2="84.6%">
      <stop stop-color="#30AED1" offset="0%"/>
      <stop stop-color="#1F8BCA" offset="100%"/>
    </linearGradient>
    <linearGradient id="j" x1="57.2%" x2="91.3%" y1="34.8%" y2="64.3%">
      <stop stop-color="#1087CA" offset="0%"/>
      <stop stop-color="#33A5E8" offset="100%"/>
    </linearGradient>
    <filter id="k" width="200%" height="200%" x="-50%" y="-50%" filterUnits="objectBoundingBox">
      <feGaussianBlur stdDeviation="10" in="SourceGraphic" result="blur"/>
    </filter>
  </defs>
  <g fill="none" fill-rule="evenodd">
    <path fill="url(#a)" d="M316.2 192.5L488.4 385l-430-1.8 257.8-190.7z"/>
    <path fill="url(#b)" d="M309.5 488.7l-162-200.4L500 269.5 309.5 488.7z"/>
    <path fill="url(#c)" d="M255.7 501l-178-207 424-26.3-246 233.3z"/>
    <path fill="url(#d)" d="M342.8 418.4l-165.8-10-10.5-12 176.3 22z"/>
    <path fill="url(#e)" d="M132.2 284l184.2-91.7 92.6 234-356.5-43.5 79.7-98.7z"/>
    <path fill="url(#f)" d="M350.5 276.3l37.5 100 12-12-49.5-88z"/>
    <path fill="url(#g)" d="M277 102L125.6.3 33.5 12.6l175 173.8L277 102z"/>
    <path fill="url(#e)" d="M123.6.2l-92 12.2-31 101L123.5.3z"/>
    <path fill="url(#h)" d="M121.3 1.6l-37.6 60-13.2-13.2 50.8-46.8z"/>
    <path fill="url(#i)" d="M193 45.3l-70.5 53 17 17.8L193 45.4z"/>
    <path fill="url(#e)" d="M277.7 101.8l-86-57.4L27.7 247l25.6 137.5 224.4-282.7z"/>
    <path fill="url(#j)" d="M129.8 289.3L95 386.6 53.5 384l76.3-94.7z"/>
    <ellipse cx="265" cy="561.3" fill="#E0E0E0" filter="url(#k)" rx="237.5" ry="10"/>
  </g>
</svg>
