<svg xmlns="http://www.w3.org/2000/svg" xmlns:xlink="http://www.w3.org/1999/xlink" width="258" height="258" viewBox="0 0 258 258">
  <defs>
    <circle id="path-1" cx="124.6" cy="124.6" r="124.6"/>
    <linearGradient id="linearGradient-3" x1="37.6" x2="37.6" y1="21.9" y2="100">
      <stop stop-color="#09DFF3" offset="0"/>
      <stop stop-color="#44BEFF" offset="100"/>
    </linearGradient>
  </defs>
  <g fill="none" fill-rule="evenodd" transform="translate(3.991 3.9)">
    <g transform="translate(.286 .528)">
      <mask id="mask-2" fill="#fff">
        <use xlink:href="#path-1"/>
      </mask>
      <use fill="#EBF5FA" stroke="#FFF" stroke-width="4" xlink:href="#path-1"/>
      <path fill="#555" d="M-0.4 215.8H248.8V249.2H-0.4z" mask="url(#mask-2)"/>
    </g>
    <g transform="translate(109.09 75.279)">
      <path fill="#FFF" d="M20.8 3.3H40.7V46.5H20.8z"/>
      <path fill="#E6E6E6" d="M30.7 3.3H40.7V46.5H30.7z"/>
      <rect width="24.9" height="3.3" x="18.3" fill="#FFF" rx="40"/>
      <rect width="12.5" height="3.3" x="30.7" fill="#E6E6E6" rx="40"/>
      <path fill="#FFF" d="M20.7 45.7L40.7 45.7 57.9 67C64 74.5 61.1 80.6 51.5 80.6L10 80.6C0.4 80.6-2.5 74.5 3.5 67L20.7 45.7Z"/>
      <path fill="#E6E6E6" d="M30.7 45.7L40.7 45.7 57.9 67C64 74.5 61.1 80.6 51.5 80.6L30.7 80.6 30.7 45.7 30.7 45.7Z"/>
      <path fill="url(#linearGradient-3)" d="M57.9 67C64 74.5 61.1 80.6 51.5 80.6L10 80.6C0.4 80.6-2.5 74.5 3.5 67L10 59C10 59 13.9 62.3 15.8 62.3 17.8 62.3 20.2 58.9 22.7 58.7 25 58.6 27.5 61.8 29.9 61.8 31.8 61.7 33.7 58.3 35.5 58.2 37.7 58 39.8 61.3 41.7 61.3 44 61.4 46.1 59.3 47.7 58.9 50 58.2 51.5 59 51.5 59L57.9 67Z"/>
      <path fill="#0F0F0F" d="M30.7 81.4L51.5 81.4C61.1 81.4 64 75.3 57.9 67.8L51.5 59.8C51.5 59.8 50 59 47.7 59.7 46.1 60.2 44 62.2 41.7 62.1 39.8 62.1 37.7 58.8 35.5 59 33.9 59.1 32.3 61.7 30.7 62.4L30.7 81.4 30.7 81.4Z" opacity="0.1"/>
    </g>
    <path fill="#DDD" d="M91.6 75.3H99.9V209.9H91.6z"/>
    <path fill="#555" d="M108.3 208.2L108.3 217.3 83.3 217.3 83.3 208.2 108.3 208.2 108.3 208.2Z"/>
    <path fill="#454545" d="M108.3 208.2L108.3 217.3 95.8 217.3 95.8 208.2 108.3 208.2 108.3 208.2Z"/>
    <path fill="#555" d="M152.3 202.4L152.3 217.3 127.4 217.3 127.4 202.4 152.3 202.4 152.3 202.4Z"/>
    <path fill="#444" d="M152.3 202.4L152.3 217.3 139.8 217.3 139.8 202.4 152.3 202.4 152.3 202.4Z"/>
    <path fill="#B6B6B6" d="M151.4 91.9L151.4 101.9 128.2 101.9 128.2 91.9 151.4 91.9 151.4 91.9Z"/>
    <path fill="#A4A4A4" d="M151.4 91.9L151.4 101.9 139.8 101.9 139.8 91.9 151.4 91.9 151.4 91.9Z"/>
    <path fill="#DDD" d="M128.2 92.7L128.2 101 103.3 101 103.3 92.7 128.2 92.7 128.2 92.7Z"/>
    <circle cx="95.8" cy="96.9" r="10" fill="#FAB23C"/>
    <ellipse cx="95.8" cy="96.9" fill="#FA9B00" rx="4.2" ry="4.2"/>
    <path fill="#FA9B00" d="M140.1 197.6C144.4 197.6 147.9 195.5 147.9 188.3 147.9 181.1 139.3 170.8 139.3 170.8 139.3 170.8 140.3 173.4 138.6 176.1 136.5 179.5 132.3 184.3 132.3 188.3 132.3 195.5 135.8 197.6 140.1 197.6Z"/>
    <path fill="#FAB23C" d="M140.2 196.1C142.3 196.1 143.9 195.1 143.9 191.7 143.9 188.3 140.5 183.3 140.5 183.3 140.5 183.3 140.9 185 140 186.5 139.1 188.1 136.5 190 136.5 191.7 136.5 195.1 138.2 196.1 140.2 196.1Z"/>
    <path fill="#DCDCDC" d="M130.7 195.7H149V202.3H130.7z"/>
    <path fill="#C9C9C9" d="M139.8 195.7H148.9V202.3H139.8z"/>
    <ellipse cx="131.5" cy="53.7" fill="#40C8FA" rx="3.3" ry="3.3"/>
    <ellipse cx="145.2" cy="58.3" fill="#40C8FA" rx="2.1" ry="2.1"/>
    <ellipse cx="138.6" cy="66.6" fill="#00E2F8" rx="2.1" ry="2.1"/>
    <ellipse cx="141.5" cy="42.1" fill="#00E2F8" rx="5" ry="5"/>
  </g>
</svg>
