<svg xmlns="http://www.w3.org/2000/svg" width="259" height="259" viewBox="0 0 259 259" xmlns:xlink="http://www.w3.org/1999/xlink">
  <defs>
    <ellipse id="path-1" cx="125" cy="125" rx="125" ry="125"/>
    <linearGradient id="linearGradient-3" x1="37.6%" x2="37.6%" y1="21.9%" y2="100%">
      <stop stop-color="#09DFF3" offset="0%"/>
      <stop stop-color="#44BEFF" offset="100%"/>
    </linearGradient>
    <linearGradient id="linearGradient-4" x1="37.6%" x2="37.6%" y1="21.9%" y2="64%">
      <stop stop-color="#0BC8DB" offset="0%"/>
      <stop stop-color="#3EAAE5" offset="100%"/>
    </linearGradient>
  </defs>
  <g fill="none" fill-rule="evenodd" transform="translate(4.734 3.636)">
    <g transform="translate(0 .788)">
      <mask id="mask-2" fill="#fff">
        <use xlink:href="#path-1"/>
      </mask>
      <use fill="#EBF5FA" stroke="#FFF" stroke-width="4" xlink:href="#path-1"/>
      <g mask="url(#mask-2)">
        <g transform="translate(0 6.517)">
          <path fill="#FFF" d="M9.26895003,39.4257099 L0.979953015,139.036412 L6.91790374,226.295915 L107.572932,226.295918 L95.2763067,70.6519396 L66.2322698,16.651155 L9.26895003,39.4257099 Z" transform="matrix(-1 0 0 1 108.552 0)"/>
          <path fill="#FFF" d="M9.62218668,16.7029543 L0.262509264,61.2786493 L16.2624984,68.4881306 L4.94234797,83.9174077 L42.4998274,136.011077 L42.3964823,226.348623 L51.7288388,226.348623 L51.7288376,1.53601482 L19.732074,9.77951283 L9.62218668,16.7029543 Z" transform="matrix(-1 0 0 1 51.992 0)"/>
          <path fill="#DCDCDC" d="M70.7569378,81.9276657 L66.507544,140.07941 L72.8708495,226.204532 L74.7051804,226.191261 L67.6642822,139.704479 L70.7569378,81.9276657 Z" transform="matrix(-1 0 0 1 141.212 0)"/>
          <path fill="#DCDCDC" d="M10.5732095,16.6115124 L9.69615656,17.0508872 L0.205155588,61.2038942 L16.2681771,68.7827567 L5.30683764,83.9147992 C5.30683764,83.9147992 42.6284611,130.62554 52.6167595,158.008416 C52.6167595,156.921533 52.6167595,164.141432 52.6167595,156.921533 C40.9584502,124.890296 6.16329667,83.914801 6.16329667,83.914801 L17.2871348,68.5046658 L1.22611651,61.0320371 L10.5732095,16.6115124 Z" transform="matrix(-1 0 0 1 52.822 0)"/>
          <path fill="#B7B7B7" d="M1.65877187,9.87820789 C1.24196295,14.495114 -1.98725756,41.7745419 4.27687616,61.1955383 C13.291186,89.1430386 33.4796791,101.881816 33.4796791,101.881816 L33.4796787,1.64988239 C33.4796787,1.64988239 16.8579115,-3.54815811 1.65877187,9.87820789 Z" transform="matrix(-1 0 0 1 33.938 0)"/>
          <circle cx="37.1" cy="86.1" r="2.1" fill="#DCDBDC" transform="matrix(-1 0 0 1 74.166 0)"/>
          <ellipse cx="36.3" cy="86.1" fill="#FFF" transform="matrix(-1 0 0 1 72.5 0)" rx=".4" ry=".4"/>
          <ellipse cx="37.9" cy="86.1" fill="#FFF" transform="matrix(-1 0 0 1 75.834 0)" rx=".4" ry=".4"/>
          <g fill="#DCDBDC">
            <path d="M1.17901087,0.0560920896 L0.00447695224,21.367651 L19.6323896,21.3676521 L18.5029655,0.0560920896 L18.5029655,20.432003 L1.17901087,20.432003 L1.17901087,0.0560920896 Z" transform="translate(39.167 121.493)"/>
            <path d="M1.2 7.7H18.4V8.3H1.2z" transform="translate(39.167 121.493)"/>
          </g>
        </g>
        <path fill="#FFF" d="M9.0493979,39.4257099 L0.760400887,139.036412 L6.69835161,226.295915 L107.35338,226.295918 L95.0567545,70.6519396 L66.0127177,16.651155 L9.0493979,39.4257099 Z" transform="translate(141.667 6.517)"/>
        <path fill="#FFF" d="M65.9641719,16.7029543 L56.6044945,61.2786493 L72.6044836,68.4881306 L61.2843332,83.9174077 L98.8418127,136.011077 L98.7384675,226.348623 L108.070824,226.348623 L108.070823,1.53601482 L76.0740593,9.77951283 L65.9641719,16.7029543 Z" transform="translate(141.667 6.517)"/>
        <path fill="#DCDCDC" d="M37.8775468 81.9276657L33.6281529 140.07941 39.9914584 226.204532 41.8257893 226.191261 34.7848911 139.704479 37.8775468 81.9276657zM66.0846277 16.6115124L65.2075748 17.0508872 55.7165738 61.2038942 71.7795953 68.7827567 60.8182559 83.9147992C60.8182559 83.9147992 98.1398793 130.62554 108.128178 158.008416 108.128178 156.921533 108.128178 164.141432 108.128178 156.921533 96.4698684 124.890296 61.6747149 83.914801 61.6747149 83.914801L72.798553 68.5046658 56.7375347 61.0320371 66.0846277 16.6115124z" transform="translate(141.667 6.517)"/>
        <path fill="#B7B7B7" d="M76.0550576,9.87820789 C75.6382487,14.495114 72.4090281,41.7745419 78.6731619,61.1955383 C87.6874717,89.1430386 107.875965,101.881816 107.875965,101.881816 L107.875964,1.64988239 C107.875964,1.64988239 91.2541972,-3.54815811 76.0550576,9.87820789 Z" transform="translate(141.667 6.517)"/>
        <path fill="#DCDBDC" d="M66.220806,84.5374471 C66.220806,84.5374471 67.7773166,83.7919476 69.2805951,83.7391856 C70.7838737,83.6864236 72.5,84.3170603 72.5,84.3170603 C72.5,84.3170603 70.8659907,85.4938564 69.3847481,85.545845 C67.9035054,85.5978336 66.220806,84.5374471 66.220806,84.5374471 Z" transform="translate(141.667 6.517)"/>
      </g>
      <path fill="#555" d="M0 216.5H250V249.8H0z" mask="url(#mask-2)"/>
    </g>
    <ellipse cx="133.3" cy="109.1" fill="#40C8FA" rx="3.3" ry="3.3"/>
    <circle cx="115.4" cy="115.4" r="2.1" fill="#40C8FA"/>
    <circle cx="125.4" cy="122.9" r="2.1" fill="#00E2F8"/>
    <ellipse cx="120.8" cy="98.3" fill="#00E2F8" rx="5" ry="5"/>
    <g transform="translate(94.167 135.788)">
      <path fill="#FFF" d="M20.8 3.3H40.8V46.599999999999994H20.8z"/>
      <path fill="#E6E6E6" d="M30.8 3.3H40.8V46.599999999999994H30.8z"/>
      <rect width="25" height="3.3" x="18.3" fill="#FFF" rx="40"/>
      <rect width="12.5" height="3.3" x="30.8" fill="#E6E6E6" rx="40"/>
      <path fill="#FFF" d="M20.7975646,46.6666667 L40.8673169,46.6666667 L58.1293703,68.0470671 C64.2023805,75.5689642 61.2893782,81.6666667 51.6271259,81.6666667 L10.0377556,81.6666667 C0.37365498,81.6666667 -2.53844178,75.5701319 3.53551121,68.0470671 L20.7975646,46.6666667 Z"/>
      <path fill="#E6E6E6" d="M30.8333333,46.6666667 L40.8673169,46.6666667 L58.1293703,68.0470671 C64.2023805,75.5689642 61.2893782,81.6666667 51.6271259,81.6666667 L30.8333333,81.6666667 L30.8333333,46.6666667 L30.8333333,46.6666667 Z"/>
      <path fill="url(#linearGradient-3)" d="M58.1293703,68.0470671 C64.2023805,75.5689642 61.2893782,81.6666667 51.6271259,81.6666667 L10.0377556,81.6666667 C0.37365498,81.6666667 -2.53844178,75.5701319 3.53551121,68.0470671 L10.0325318,60 L51.6323497,60 L58.1293703,68.0470671 Z"/>
      <path fill="url(#linearGradient-4)" d="M30.8333333,81.6666667 L51.6271259,81.6666667 C61.2893782,81.6666667 64.2023805,75.5689642 58.1293703,68.0470671 L51.6323497,60 L30.8333333,60 L30.8333333,81.6666667 L30.8333333,81.6666667 Z"/>
    </g>
    <g fill="#0DC0F2">
      <path d="M0.593298659,6.63733133 L0.551647961,6.66180451 L0.551647961,3.260032 L6.29944431,0.0234534184 L6.29944431,0 L6.32026961,0.0117267091 L6.32026961,0.0117267091 L6.34109492,0 L6.34109492,0.0234534181 L12.0888912,3.260032 L12.0888912,6.66180451 L6.32026952,3.27226856 L4.26958536,4.47721287 L4.59176562,4.2857609 L0.593298747,3.28649023 L0.593298659,6.63733133 Z M12.0456823,13.9217365 L6.38274561,17.2076995 L6.38274561,17.2413793 L6.35330939,17.2247801 L6.34109492,17.2318677 L6.34109492,17.2178924 L0.593298659,13.9766927 L0.593298659,10.5700632 L6.34109492,13.9521845 L6.34109492,13.9294347 L8.20048629,12.8505084 L12.0456823,13.9217365 L12.0456823,13.9217365 Z M12.1305418,12.2434857 L12.1305419,10.5700632 L8.79160972,12.5075044 L12.1305419,10.6144752 L12.1305418,12.2434857 L12.1305418,12.2434857 Z" transform="translate(43.333 106.622)"/>
      <path d="M12.0099284,13.8654449 L0.431034483,6.65943252 L0.431034483,3.25536532 L12.0099284,10.4613777 L12.0099284,13.8654449 L12.0099284,13.8654449 Z" transform="translate(43.333 106.622)"/>
    </g>
  </g>
</svg>
