<svg viewBox="0 0 150 150" xmlns="http://www.w3.org/2000/svg"><defs><linearGradient x1="100%" y1="39.152%" x2="20.005%" y2="39.152%" id="linearGradient-map-1"><stop stop-opacity=".2" offset="0%"/><stop stop-opacity=".05" offset="100%"/></linearGradient><linearGradient x1="37.585%" y1="63.959%" x2="50%" y2="37.696%" id="linearGradient-map-2"><stop stop-color="#09DFF3" offset="0%"/><stop stop-color="#44BEFF" offset="100%"/></linearGradient></defs><g fill="none" fill-rule="evenodd"><circle fill="#FFF" cx="75" cy="75" r="75"/><g transform="translate(47.166 35)"><path d="M27.897 79.86l.065.038v-.076l27.516-16.23V48.815L27.834 65.12v.052L.318 48.687v15.287l27.516 15.85v.074l.063-.038zM27.77.062l-.063-.037v.073L.19 15.948v15.287l27.58-16.522 27.58 16.522V15.948L27.834.098V.025l-.063.037z" fill="#5889A2"/><polygon fill="url(#linearGradient-map-1)" points="37.4313314 59.417561 55.5648637 48.8147192 55.5648633 63.7191778"/><path d="M18.113 20.57L.318 31.234v-15.16l17.795 4.494z" fill="url(#linearGradient-map-1)"/><path d="M55.605 63.72L.065 31.234V15.948l55.54 32.485V63.72z" fill="url(#linearGradient-map-2)"/></g></g></svg>
