<svg width="307" height="308" viewBox="0 0 307 308" xmlns="http://www.w3.org/2000/svg"><defs><linearGradient x1="50%" y1="0%" x2="50%" y2="100%" id="linearGradient-team-1"><stop stop-color="#09DFF3" offset="0%"/><stop stop-color="#44BEFF" offset="100%"/></linearGradient><linearGradient x1="50%" y1="0%" x2="50%" y2="100%" id="linearGradient-team-2"><stop stop-color="#00E9FF" offset="0%"/><stop stop-color="#00D1FF" offset="100%"/></linearGradient><filter x="-50%" y="-50%" width="200%" height="200%" filterUnits="objectBoundingBox" id="filter-3"><feGaussianBlur stdDeviation="15" in="SourceGraphic" result="blur"/></filter><linearGradient x1="50%" y1="0%" x2="50%" y2="100%" id="linearGradient-team-4"><stop stop-color="#84DBFC" offset="0%"/><stop stop-color="#42C3F3" offset="100%"/></linearGradient><linearGradient x1="50%" y1="0%" x2="50%" y2="100%" id="linearGradient-team-5"><stop stop-color="#70FDE6" offset="0%"/><stop stop-color="#42F3D6" offset="100%"/></linearGradient><linearGradient x1="50%" y1="0%" x2="50%" y2="100%" id="linearGradient-team-6"><stop stop-color="#FDE870" offset="0%"/><stop stop-color="#F3CB42" offset="100%"/></linearGradient></defs><g transform="translate(4 4.629)" fill="none" fill-rule="evenodd"><circle stroke="#FFF" stroke-width="4" fill="#EBF5FA" cx="149.8523" cy="149.427" r="149.1477"/><g transform="translate(54.705 55.427)"><ellipse stroke="#FFF" stroke-width="2" cx="95.5" cy="94.5" rx="26.5" ry="94.5"/><ellipse stroke="#FFF" stroke-width="2" transform="rotate(-60 95.5 94.5)" cx="95.5" cy="94.5" rx="26.5" ry="94.5"/><ellipse stroke="#FFF" stroke-width="2" transform="matrix(-.5 -.866 -.866 .5 225.087 129.953)" cx="95.5" cy="94.5" rx="26.5" ry="94.5"/><ellipse fill="url(#linearGradient-team-1)" cx="95.5" cy="94.5" rx="10.5" ry="10.5"/><ellipse fill="url(#linearGradient-team-2)" filter="url(#filter-3)" cx="95.5" cy="94.5" rx="10.5" ry="10.5"/><ellipse stroke-opacity=".25" stroke="#75D5F9" stroke-width="4" fill="url(#linearGradient-team-4)" cx="33" cy="108" rx="5" ry="5"/><ellipse stroke-opacity=".25" stroke="#69FBE4" stroke-width="4" fill="url(#linearGradient-team-5)" cx="142.5" cy="143.5" rx="7.5" ry="7.5"/><ellipse stroke-opacity=".2518" stroke="#FBE267" stroke-width="4" fill="url(#linearGradient-team-6)" cx="116" cy="36" rx="6" ry="6"/></g></g></svg>