<svg width="308" height="309" viewBox="0 0 308 309" xmlns="http://www.w3.org/2000/svg" xmlns:xlink="http://www.w3.org/1999/xlink">
  <defs>
    <circle id="a" cx="150" cy="150" r="150"/>
    <linearGradient x1="50%" y1="0%" x2="50%" y2="62.304%" id="c">
      <stop stop-color="#09DFF3" offset="0%"/>
      <stop stop-color="#44BEFF" offset="100%"/>
    </linearGradient>
  </defs>
  <g transform="translate(4 3.629)" fill="none" fill-rule="evenodd">
    <circle stroke="#FFF" stroke-width="4" fill="#EBF5FA" cx="150" cy="150.651" r="150"/>
    <g transform="translate(0 .651)">
      <mask id="b" fill="#fff">
        <use xlink:href="#a"/>
      </mask>
      <use xlink:href="#a"/>
      <g mask="url(#b)" stroke="#FFF" stroke-linecap="square">
        <path d="M239.062 2.678L-14.733 144.643"/>
        <path d="M251.116 34.152L-2.678 176.116"/>
        <path d="M52.232 32.813l262.5 148.66"/>
        <path d="M77.01 8.036l227.678 128.57"/>
        <path d="M306.027 124.553L52.232 266.518"/>
        <path d="M318.08 156.027L64.286 297.99"/>
        <path d="M-10.045 156.696l227.68 128.572"/>
        <path d="M0 123.214l261.83 149.33"/>
        <path d="M82.554 302.68V-3.858"/>
        <path d="M222.268 302.68V-3.858"/>
        <path d="M151.982 302.68V-3.858"/>
        <path d="M2.68 81.027l290.624 168.08"/>
        <path d="M23.437 53.57l285.268 166.742"/>
        <path d="M314.063 89.41H-12.724"/>
        <path d="M314.063 127.982H-12.724"/>
        <path d="M314.063 169.982H-12.724"/>
        <path d="M314.063 209.41H-12.724"/>
      </g>
    </g>
    <path d="M84 127.51l68.666-38.997V50.366L84 89.36v38.15zm138.18 0l-69.514-38.997V50.366L222.18 89.36v38.15z" stroke="url(#c)" stroke-width="2"/>
    <path d="M152.656 249.223l68.93-39.05V172.08l-68.928 39.047-.002 38.096zm-.265-.318l-69.247-38.73V172.08l69.246 38.73v38.095z" stroke="url(#c)" stroke-width="2"/>
    <path d="M222.857 209.794L83.143 127.51V88.936l139.714 82.286v38.57z" stroke="url(#c)" stroke-width="2"/>
  </g>
</svg>
