<svg width="156" height="156" viewBox="0 0 156 156" xmlns="http://www.w3.org/2000/svg"><defs><linearGradient x1="50%" y1="100%" x2="50%" y2="0%" id="a"><stop stop-color="#FBD161" offset="0%"/><stop stop-color="#FBF27D" offset="100%"/></linearGradient></defs><g transform="translate(-20 -23)" fill="none" fill-rule="evenodd"><ellipse cx="100" cy="100.6" rx="100" ry="100"/><circle opacity=".147" fill="#FBF077" cx="98" cy="101" r="78"/><circle opacity=".05" fill="#FBF077" cx="98" cy="101" r="78"/><circle opacity=".15" fill="#FBE977" cx="98" cy="101" r="67"/><circle opacity=".2" fill="#FBE977" cx="99" cy="102" r="50"/><circle opacity=".25" fill="#FBE977" cx="97.5" cy="100.5" r="34.5"/><path d="M106.5 120.828c5.83-5.05 11-14.187 11-21.228 0-11.27-8.73-20-19-20-11.27 0-20 8.73-20 20 0 7.13 5.785 16.412 12 21.42v12.58h16v-12.772z" fill="url(#a)"/><rect fill="#999" x="90.5" y="134.6" width="16" height="4" rx="40"/><rect fill="#999" x="92.5" y="139.6" width="12" height="3" rx="40"/><path d="M95.253 144.244c-.416-.356-.3-.644.244-.644h6.006c.55 0 .673.295.23.655 0 0-1.233 1.345-3.233 1.345s-3.247-1.356-3.247-1.356z" fill="#999"/><path d="M95.91 133.528V99.22c0-9.162-6.108 0-5.344 4.583.764 4.58 15.272 3.054 16.8 0 1.526-3.055-5.346-14.508-5.346-4.582v34.38" stroke="#FFF" opacity=".6"/></g></svg>