<svg width="200" height="200" viewBox="0 0 200 200" xmlns="http://www.w3.org/2000/svg" xmlns:xlink="http://www.w3.org/1999/xlink"><defs><ellipse id="a" cx="100" cy="100" rx="100" ry="100"/><linearGradient x1="50%" y1="100%" x2="50%" y2="17.529%" id="c"><stop stop-color="#ABABAB" offset="0%"/><stop stop-color="#B2B2B2" offset="75.079%"/><stop stop-color="#5D5D5D" offset="100%"/></linearGradient><linearGradient x1="50%" y1="0%" x2="50%" y2="100%" id="d"><stop stop-color="#50EDC2" offset="0%"/><stop stop-color="#11CCDB" offset="100%"/></linearGradient><linearGradient x1="50%" y1="0%" x2="50%" y2="100%" id="e"><stop stop-color="#FB6161" offset="0%"/><stop stop-color="#CC4B44" offset="100%"/></linearGradient><linearGradient x1="50%" y1="0%" x2="50%" y2="100%" id="f"><stop stop-color="#FBD161" offset="0%"/><stop stop-color="#F99337" offset="100%"/></linearGradient><filter x="-50%" y="-50%" width="200%" height="200%" filterUnits="objectBoundingBox" id="g"><feGaussianBlur stdDeviation="6.37343894 -5.71577704" in="SourceGraphic" result="blur"/></filter></defs><g fill="none" fill-rule="evenodd"><ellipse fill="#EBF4F8" cx="100" cy="100" rx="100" ry="100"/><mask id="b" fill="#fff"><use xlink:href="#a"/></mask><use xlink:href="#a"/><g transform="translate(-84)" mask="url(#b)"><path d="M173.9 184.2h-11.2l-16-38.4h11.2l16 38.4z" fill="url(#c)"/><path d="M173.694 183.4H162.4l.706 1.6H174.4l-.706-1.6z" fill="#878787"/><path d="M.234 145.6L44.472.376h123.856L212.566 145.6H.234z" fill="url(#d)"/><path d="M.234 145.6v7.2h212.332v-7.2H.234z" fill="#FFF"/><path d="M1.404 144.8L45.154 1.176h122.49L211.397 144.8H1.404zM102.942 144.8V1.176 144.8z" stroke="#FFF"/><g transform="rotate(30 -74.574 452.727)"><path d="M16 45.6h6.4L24 64.8h-9.6L16 45.6z" id="Rectangle-355" fill="#C0A882"/><ellipse id="Oval-172" fill="#DD5C5C" cx="19.2" cy="23.2" rx="19.2" ry="23.2"/></g><g transform="rotate(30 -73.588 450.062)"><path d="M16 45.6h6.4L24 64.8h-9.6L16 45.6z" fill="#C0A882"/><ellipse fill="url(#e)" cx="19.2" cy="23.2" rx="19.2" ry="23.2"/></g><ellipse fill="url(#f)" cx="188.4" cy="102.35" rx="4.8" ry="4.8"/><ellipse fill="url(#f)" filter="url(#g)" cx="184.4" cy="98.35" rx="4.8" ry="4.8"/><path stroke="#EDEDED" d="M104-40.8h4v156h-4z"/><path stroke="#EDEDED" d="M104-34.4h4v156h-4z"/><path stroke="#EDEDED" d="M104-28h4v156h-4zM84 32.8h4v22.4h-4zM90.4 32.8h4v22.4h-4zM96.8 32.8h4v22.4h-4z"/><path stroke="#EDEDED" d="M103.2 32.8h4v22.4h-4zM109.6 32.8h4v22.4h-4zM116 32.8h4v22.4h-4zM122.4 32.8h4v22.4h-4z"/><path stroke="#EDEDED" d="M125.6 32.8h4v22.4h-4zM132 32.8h4v22.4h-4zM138.4 32.8h4v22.4h-4zM144.8 32.8h4v22.4h-4zM151.2 32.8h4v22.4h-4zM157.6 32.8h4v22.4h-4zM164 32.8h4v22.4h-4z"/><path d="M103.6 144.4V1.856" stroke="#FFF" stroke-linecap="square"/><path stroke="#EDEDED" d="M170.4 32.8h4v22.4h-4z"/><path stroke="#EDEDED" d="M173.6 32.8h4v22.4h-4zM180 32.8h4v22.4h-4z"/><path stroke="#FFF" stroke-width="4" d="M26.4 32.8h160v24h-160z"/></g></g></svg>