<svg width="126" height="28" viewBox="0 0 126 28" fill="none" xmlns="http://www.w3.org/2000/svg">
<path d="M46.6075 25.0814C45.8188 25.949 44.846 26.6589 43.6892 27.211C42.5325 27.7367 41.2706 27.9997 39.9034 27.9997C37.7738 27.9997 36.1175 27.3949 34.9344 26.1856C33.7777 24.9499 33.1992 23.2804 33.1992 21.1772V7.88721H37.6949V20.3096C37.6949 21.5189 38.0104 22.4523 38.6414 23.1096C39.2987 23.7406 40.2189 24.0561 41.4019 24.0561C42.4273 24.0561 43.3868 23.7537 44.2808 23.1491C45.1747 22.5442 45.9502 21.7424 46.6075 20.7434V7.88721H51.1033V27.6053H46.6075V25.0814Z" fill="#002FA7"/>
<path d="M60.3824 10.3326C62.0388 8.43963 63.9317 7.49316 66.0613 7.49316C66.7711 7.49316 67.3363 7.59833 67.757 7.80865L67.1655 11.4368L67.0077 11.5551C66.6922 11.4762 66.2584 11.4368 65.7063 11.4368C64.6021 11.4368 63.5899 11.7523 62.6697 12.3833C61.7496 13.0142 60.9871 13.9213 60.3824 15.1044V27.6057H55.8867V7.88753H60.3824V10.3326Z" fill="#002FA7"/>
<path d="M79.0205 7.49316C81.0449 7.49316 82.8458 7.9401 84.4233 8.83399C86.0271 9.72789 87.2627 10.9504 88.1303 12.5016C89.0242 14.0527 89.4711 15.8011 89.4711 17.7466C89.4711 19.6921 89.0242 21.4403 88.1303 22.9916C87.2627 24.5427 86.0271 25.7652 84.4233 26.6592C82.8458 27.553 81.0449 28 79.0205 28C76.9962 28 75.1952 27.553 73.6178 26.6592C72.0403 25.7652 70.8047 24.5427 69.9108 22.9916C69.0432 21.4403 68.6094 19.6921 68.6094 17.7466C68.6094 15.8011 69.0432 14.0527 69.9108 12.5016C70.8047 10.9504 72.0403 9.72789 73.6178 8.83399C75.1952 7.9401 76.9962 7.49316 79.0205 7.49316ZM79.0205 11.4762C77.2853 11.4762 75.8656 12.0415 74.7614 13.172C73.6572 14.2762 73.1051 15.8011 73.1051 17.7466C73.1051 19.6921 73.6572 21.2301 74.7614 22.3606C75.8656 23.4649 77.2853 24.017 79.0205 24.017C80.7821 24.017 82.2149 23.4649 83.3191 22.3606C84.4233 21.2301 84.9754 19.6921 84.9754 17.7466C84.9754 15.7748 84.4233 14.2368 83.3191 13.1325C82.2149 12.0283 80.7821 11.4762 79.0205 11.4762Z" fill="#002FA7"/>
<path d="M97.734 10.3326C99.3903 8.43963 101.283 7.49316 103.413 7.49316C104.123 7.49316 104.688 7.59833 105.109 7.80865L104.517 11.4368L104.359 11.5551C104.044 11.4762 103.61 11.4368 103.058 11.4368C101.954 11.4368 100.942 11.7523 100.021 12.3833C99.1012 13.0142 98.3388 13.9213 97.734 15.1044V27.6057H93.2383V7.88753H97.734V10.3326Z" fill="#002FA7"/>
<path d="M112.286 28C110.498 28 109 27.4741 107.79 26.4226C106.607 25.3445 106.016 23.9117 106.016 22.124C106.016 20.31 106.634 18.877 107.869 17.8254C109.131 16.7475 110.787 16.1034 112.838 15.8931L118.556 15.3015V14.2368C118.556 13.2114 118.215 12.4358 117.531 11.91C116.874 11.3579 115.954 11.0819 114.77 11.0819C113.771 11.0819 112.943 11.3316 112.286 11.8311C111.629 12.3307 111.208 13.0668 111.024 14.0396L107.12 13.8424L106.923 13.6846C107.291 11.6865 108.211 10.1617 109.683 9.11005C111.156 8.03211 112.904 7.49316 114.928 7.49316C117.321 7.49316 119.253 8.09785 120.725 9.30723C122.198 10.4903 122.934 12.1203 122.934 14.1973V22.2818C122.934 22.9128 123.065 23.3991 123.328 23.7409C123.617 24.0826 124.012 24.2536 124.511 24.2536C124.748 24.2536 125.037 24.2141 125.379 24.1353L125.497 24.2141V27.4479C124.708 27.7107 123.88 27.8423 123.013 27.8423C122.066 27.8423 121.225 27.6187 120.489 27.1719C119.753 26.7248 119.214 25.9888 118.872 24.9634H118.714C116.847 26.9878 114.705 28 112.286 28ZM113.114 24.3325C115.007 24.3325 116.821 23.3333 118.556 21.3353V18.4565L113.43 19.048C112.431 19.1794 111.655 19.508 111.103 20.0339C110.577 20.5333 110.314 21.1512 110.314 21.8874C110.314 22.6761 110.577 23.2808 111.103 23.7015C111.629 24.122 112.299 24.3325 113.114 24.3325Z" fill="#002FA7"/>
<path fill-rule="evenodd" clip-rule="evenodd" d="M20.6131 0H15.9596L9.58493 17.2288C6.58549 15.6508 3.29102 14.8697 0 14.884V19.1862C2.74015 19.171 5.48396 19.8549 7.95477 21.2387L8.07614 21.3067L5.74562 27.6053H10.9118L12.4497 23.1663C16.2434 24.2798 20.2844 24.2663 24.0702 23.1277L25.6215 27.6053H30.8271L20.6131 0ZM22.6622 19.0575C19.7921 19.8866 16.744 19.9002 13.8668 19.097L17.7737 7.88724L18.2469 4.89009H18.3258L18.7991 7.88724L22.6622 19.0575Z" fill="#002FA7"/>
</svg>
