<svg width="102" height="28" viewBox="0 0 102 28" fill="none" xmlns="http://www.w3.org/2000/svg">
<path fill-rule="evenodd" clip-rule="evenodd" d="M43.4208 2.85254C43.4208 1.27614 44.6593 0 46.2357 0C47.8121 0 49.0509 1.27614 49.0509 2.85254C49.0509 4.42894 47.8121 5.70507 46.2357 5.70507C44.6593 5.70507 43.4208 4.42894 43.4208 2.85254ZM44.2464 8.40751H48.15V27.7748H44.2464V8.40751ZM27.1532 11.2224C28.6545 9.3084 30.869 8.18234 33.2338 8.18234C36.8745 8.18234 39.8395 11.26 39.8395 16.3647V27.7748H35.9362V16.5148C35.9362 14.0749 33.9843 12.0482 31.5447 12.0482C29.1051 12.0482 27.1532 14.0749 27.1532 16.5148V27.7748H23.2122V8.40751H27.1532V11.2224ZM53.5184 8.40751V12.0106H64.5531V15.5763H60.4246C54.907 15.5763 51.9044 18.2413 51.9044 22.1448C51.9044 25.6354 54.7569 28 58.3226 28C60.5747 28 62.9393 27.1368 64.5531 25.0348V27.7748H68.4192V8.40751H53.5184ZM59.4487 24.7345C57.4217 24.7345 55.883 23.5711 55.883 21.9194C55.883 20.2306 57.0091 18.6542 60.95 18.6542H64.5531C64.5531 22.8954 62.0384 24.7345 59.4487 24.7345ZM89.0988 21.7534C89.8496 20.4772 96.3805 9.59244 97.0184 8.57909H101.335V27.9464H97.4313V14.1341C97.4045 14.1341 93.5717 20.5093 91.0889 24.6388L91.0874 24.6415C90.1104 26.2667 89.3427 27.5436 89.0988 27.9464H85.1955V14.0964C85.1579 14.0964 77.8764 26.2197 76.8631 27.9464H72.9222V8.57909H76.8631L76.8254 20.5897L76.8631 21.7908C77.5386 20.6273 84.745 8.57909 84.7826 8.57909H89.0614C89.0988 8.57909 89.0988 21.7157 89.0988 21.7534ZM11.7104 4.66486C11.185 4.43968 10.4342 4.21447 9.49591 4.21447C8.10722 4.21447 6.86861 4.96515 6.86861 6.61658V8.41812H14.7125H18.616V27.7855H14.7125V11.8337H6.86861V27.7855H2.96514V11.8337H0V8.41812H2.96514V6.54153C2.96514 3.01341 5.40481 0.536191 8.70772 0.536191C9.94623 0.536191 11.0723 0.836454 11.7104 1.13674V4.66486Z" fill="#4900E5"/>
</svg>
