<svg width="85" height="28" viewBox="0 0 85 28" fill="none" xmlns="http://www.w3.org/2000/svg">
<path d="M13.2875 28C16.4072 28 19.6039 26.7675 22.1843 24.4952C24.7648 22.2228 26.5365 18.4099 26.5365 13.9422C26.5365 4.35213 18.6795 0 13.1719 0C10.0908 0 6.97111 1.23246 4.35213 3.50482C1.77166 5.77717 0 9.5901 0 14.0578C0 23.6479 7.89546 28 13.2875 28ZM14.674 27.4223C12.2476 27.4223 9.62861 24.5337 7.93397 19.5653C7.12517 17.0619 6.70151 14.3659 6.70151 11.5158C6.70151 8.011 7.24072 5.31499 8.2806 3.42779C9.32049 1.54058 10.5144 0.577717 11.8239 0.577717C14.2889 0.577717 16.9464 3.42779 18.6025 8.47318C19.4113 10.9766 19.8349 13.6341 19.8349 16.4842C19.8349 19.989 19.2957 22.685 18.2173 24.5722C17.1774 26.4594 15.9835 27.4223 14.674 27.4223Z" fill="#111313"/>
<path d="M45.602 11.2077C45.602 9.32049 44.5621 8.011 42.1357 8.011C40.1715 8.011 37.9761 8.74278 35.5882 10.2448V8.24209H28.0779V8.31912C29.8881 9.24347 30.1192 10.4759 30.1192 12.9409V22.8005C30.1192 25.2655 29.8881 26.4979 28.0779 27.4223V27.4993H37.2829V27.4223C35.8578 26.6135 35.5882 25.2655 35.5882 22.8005V10.784C36.5126 10.2063 37.4369 9.89821 38.3998 9.89821C39.5552 9.89821 40.1329 10.707 40.1329 12.2861V22.8005C40.1329 25.1499 39.7863 26.6135 38.3998 27.4223V27.4993H47.6433V27.4223C45.8331 26.4979 45.602 25.2655 45.602 22.8005V11.2077Z" fill="#111313"/>
<path d="M64.9218 0.539202H57.4115V0.616232C59.2217 1.54058 59.4528 2.77304 59.4528 5.23797V8.24209H58.5669C56.102 8.24209 53.7526 9.05089 51.7499 10.63C49.7471 12.1706 48.4376 15.0206 48.4376 18.4484C48.4376 24.4567 52.212 27.4993 58.0277 27.4993H66.9631V27.4223C65.1529 26.4979 64.9218 25.2655 64.9218 22.8005V0.539202ZM59.3757 26.9601C57.9122 26.9601 56.6412 25.8817 55.6013 23.6864C54.5614 21.4911 54.0607 18.795 54.0607 15.6369C54.0607 12.9023 54.4459 11.0922 55.1777 10.1678C55.9094 9.24347 56.9878 8.78129 58.3744 8.78129H59.4528V26.9601H59.3757Z" fill="#111313"/>
<path d="M82.9017 12.4787C82.9017 9.82118 81.3612 7.97249 77.8178 7.97249C76.1232 7.97249 74.0434 8.20358 71.5785 8.62724L68.3818 12.9023L68.4588 12.9794C71.7325 10.0523 74.0819 8.58872 75.4299 8.58872C76.8165 8.58872 77.6638 9.8597 77.6638 11.5543C77.6638 12.6327 77.3171 13.5186 76.6239 14.2503C75.9306 14.9436 74.5826 15.8679 72.6184 17.0619C70.7312 18.1788 69.4217 19.1032 68.6899 19.912C67.9581 20.7208 67.573 21.7607 67.573 23.1087C67.573 24.3026 67.9966 25.3425 68.8054 26.3054C69.6528 27.2297 70.8852 27.6919 72.4643 27.6919C73.8508 27.6919 75.5455 26.8446 77.5097 25.1884V27.4993H84.943V27.4223C83.1328 26.4979 82.9017 25.2655 82.9017 22.8005V12.4787ZM75.3529 25.8047C74.0819 25.8047 72.7339 24.0715 72.7339 21.8762V21.4525C72.7724 19.7194 73.1961 18.3714 73.9279 17.4085C74.3515 16.8693 75.5455 15.7909 77.5097 14.2118V23.1857C77.5097 24.7648 76.5854 25.8047 75.3529 25.8047Z" fill="#111313"/>
</svg>
