<svg width="142" height="24" viewBox="0 0 142 24" fill="none" xmlns="http://www.w3.org/2000/svg">
<ellipse cx="76.6481" cy="3.27546" rx="3.11293" ry="2.98103" fill="url(#paint0_radial)"/>
<path d="M14.3027 7.81622H14.627L14.3027 2.10811C12.5189 1.13513 9.98919 0.648648 8.01081 0.648648C3.56757 0.648648 0 2.91892 0 7.2C0 14.2703 11.1243 13.9135 11.1243 19.7838C11.1243 22.573 9.17838 23.6757 7.32973 23.6757C3.72973 23.6757 1.42703 20.5622 0.356757 16.3459H0.0324324L0.356757 22.3784C2.14054 23.3514 4.96216 24 7.2973 24C11.6432 24 15.6324 21.7946 15.6324 16.8C15.6324 9.43784 4.50811 9.53514 4.50811 3.98919C4.50811 1.84865 6.16216 0.972972 8.04324 0.972972C11.0919 0.972972 13.2324 4.31351 14.3027 7.81622Z" fill="#045CFC"/>
<path d="M28.5841 9.72973V20.2703C27.9355 20.8216 26.9949 21.5676 25.503 21.5676C24.3355 21.5676 23.7517 20.7892 23.7517 19.5243V7.13513H23.1679L16.422 7.91351V8.23784C18.1409 8.4 18.3355 8.52973 18.3355 9.72973V19.1351C18.3355 22.7027 20.3787 24 22.7787 24C25.1463 24 27.0922 22.5405 28.5841 20.5946H28.7463L28.876 24H29.2003L35.9139 23.2216V22.8973C34.1949 22.7351 34.0003 22.6054 34.0003 21.4054V7.13513H33.4166L26.022 7.91351V8.23784C28.3895 8.4 28.5841 8.52973 28.5841 9.72973Z" fill="#045CFC"/>
<path d="M43.2218 9.53514H43.0596L43.2218 0H42.8975L35.8921 0.778378V1.1027C37.611 1.26486 37.8056 1.39459 37.8056 2.59459V23.8378H38.1299L40.7569 22.0541C42.411 23.5784 44.4218 24 46.0758 24C50.6164 24 54.184 20.7892 54.184 15.5676C54.184 10.7027 51.7515 7.13513 47.665 7.13513C45.7191 7.13513 44.2596 8.07568 43.2218 9.53514ZM45.1677 9.08108C47.0164 9.08108 48.4758 11.0919 48.4758 15.827C48.4758 19.9459 47.6975 23.5459 45.6218 23.5459C44.7461 23.5459 43.2218 23.1892 43.2218 19.7189V9.85946C43.838 9.34054 44.4867 9.08108 45.1677 9.08108Z" fill="#045CFC"/>
<path d="M55.5096 9.89189L61.5096 23.8378H64.3313L69.4231 10.0865C69.9096 8.82162 70.2664 8.07568 71.8231 7.78378V7.45946H65.4664V7.78378C68.9691 7.97838 69.4231 8.91892 68.9691 10.1838L65.4664 19.6216H65.4015L61.6718 10.1838C61.2177 9.04865 61.3475 7.97838 63.2285 7.78378V7.45946H53.5961V7.78378C54.6015 7.91351 55.0556 8.82162 55.5096 9.89189Z" fill="#045CFC"/>
<path d="M79.4995 22.1189V7.13513H79.1752L72.1698 7.91351V8.23784C73.8887 8.4 74.0833 8.52973 74.0833 9.72973V22.1189C74.0833 23.0595 73.8887 23.1892 72.1698 23.3514V23.6757H81.413V23.3514C79.6941 23.1892 79.4995 23.0595 79.4995 22.1189Z" fill="#045CFC"/>
<path d="M93.467 12.3243H93.7913L93.467 8.14054C92.1697 7.52432 90.094 7.13513 88.5697 7.13513C84.2237 7.13513 82.3102 9.27567 82.3102 11.8703C82.3102 17.773 90.8399 17.5784 90.8399 21.4054C90.8399 22.8324 89.8021 23.6757 88.148 23.6757C85.6832 23.6757 83.5426 21.9892 82.4724 18.4865H82.148L82.5048 22.8649C83.8021 23.5135 86.2994 24 87.9859 24C92.1372 24 94.6994 21.9892 94.6994 18.9081C94.6994 13.3622 86.3967 13.5568 86.3967 9.43784C86.3967 8.17297 87.1426 7.45946 88.5048 7.45946C90.6129 7.45946 92.5913 10.0216 93.467 12.3243Z" fill="#045CFC"/>
<path d="M107.353 9.72973V20.2703C106.704 20.8216 105.764 21.5676 104.272 21.5676C103.104 21.5676 102.521 20.7892 102.521 19.5243V7.13513H101.937L95.191 7.91351V8.23784C96.9099 8.4 97.1045 8.52973 97.1045 9.72973V19.1351C97.1045 22.7027 99.1477 24 101.548 24C103.915 24 105.861 22.5405 107.353 20.5946H107.515L107.645 24H107.969L114.683 23.2216V22.8973C112.964 22.7351 112.769 22.6054 112.769 21.4054V7.13513H112.186L104.791 7.91351V8.23784C107.159 8.4 107.353 8.52973 107.353 9.72973Z" fill="#045CFC"/>
<path d="M129.45 21.6324V12.0973C129.515 9.34054 127.245 7.13513 123.223 7.13513C118.553 7.13513 115.926 10.6054 115.926 12.4541C115.926 13.6865 116.931 14.1405 118.002 14.1405C119.202 14.1405 120.045 13.5243 120.045 12.7784C120.045 11.8378 118.131 11.5135 118.131 10.2162C118.131 8.95135 119.493 8.17297 120.856 8.17297C123.158 8.17297 124.034 9.92432 124.034 11.7405V15.0162C116.996 15.4378 115.439 18.1622 115.439 20.173C115.439 22.3135 116.834 24 119.299 24C121.245 24 122.866 23.027 123.969 21.4054H124.034V21.7946C124.034 22.9946 124.877 24 126.726 24C128.575 24 130.229 23.1568 131.558 22.0865L131.526 21.827C131.104 22.0865 130.585 22.3784 130.196 22.3784C129.71 22.3784 129.45 22.0865 129.45 21.6324ZM124.034 15.3405V21.0811C123.612 21.3405 123.223 21.6 122.639 21.6C121.602 21.6 120.953 20.8541 120.953 18.9405C120.953 16.5081 122.056 15.6 124.034 15.3405Z" fill="#045CFC"/>
<path d="M139.265 22.1189V0H138.941L131.935 0.778378V1.1027C133.654 1.26486 133.849 1.39459 133.849 2.59459V22.1189C133.849 23.0595 133.654 23.1892 131.935 23.3514V23.6757H141.179V23.3514C139.46 23.1892 139.265 23.0595 139.265 22.1189Z" fill="#045CFC"/>
<defs>
<radialGradient id="paint0_radial" cx="0" cy="0" r="1" gradientUnits="userSpaceOnUse" gradientTransform="translate(78.725 1.21341) rotate(128.89) scale(4.94942 5.22722)">
<stop stop-color="#045CFC" stop-opacity="0.6"/>
<stop offset="1" stop-color="#045CFC"/>
</radialGradient>
</defs>
</svg>
