<svg xmlns="http://www.w3.org/2000/svg" viewBox="0 0 208 208" xmlns:xlink="http://www.w3.org/1999/xlink"><defs><ellipse id="path-1" cx="99.94" cy="100.27" rx="99.94" ry="99.6"/></defs><g id="Apprenticeship" fill="none" fill-rule="evenodd"><g id="success-page"><g id="Mask-+-Rectangle-124-+-Group-Copy-60-+-Group-Copy-62"><g id="Mask-+-Rectangle-124-+-Group-Copy-60"><g id="Mask-+-Rectangle-124" transform="translate(4 4)"><mask id="mask-2" fill="#fff"><use xlink:href="#path-1"/></mask><use id="Mask" fill="#EBF5FA" stroke="#FFF" stroke-width="4" xlink:href="#path-1"/><path id="Rectangle-124" fill="#555" d="M-.33 173h199.87v26.68H-.33z" mask="url(#mask-2)"/></g></g><g id="Group-Copy-62"><path id="Rectangle-1545-Copy-15" fill="#FFF" d="M44 118.85l60-33.45 60 33.45v58.2H44v-58.2z"/><path id="Rectangle-1545-Copy-11" fill="#000" fill-opacity=".2" d="M44 118.85l60-33.45 60 33.45v58.2H44v-58.2z"/><g id="Group-Copy-61" transform="translate(54.909 88.673)"><path id="Rectangle-1549" fill="#40C8FA" d="M0 6.82h98.18v73.64H0z"/><g id="Polygon-182-Copy-11-+-Polygon-185-Copy-11" fill="#000" fill-opacity=".1"><path id="Polygon-182-Copy-11" d="M44.7 26.26l4.34-2.55v-5.1L40 23.7l6.3 1.6-1.6.96zM40 29.02V23.7v5.32zm11.98 9.68l-2.87 1.74-9-5.3v5.3l9.04 5.1v.03l9-5.28L52 38.7zm-2.93-20.1l8.97 5.1v5.32l-8.97-5.32v-5.1z"/><path id="Polygon-185-Copy-11" d="M58.1 40.27L40 29.02V23.7l18.1 11.26v5.3z"/></g><ellipse id="Oval-752" cx="93.82" cy="10.91" fill="#F9BA37" rx="10.91" ry="10.91"/><g id="Line-+-Line-Copy-36" stroke="#FFF" stroke-width="2" stroke-linecap="round" stroke-linejoin="round"><path id="Line" d="M88.65 11.2l3.17 3.17"/><path id="Line-Copy-36" d="M98.72 7.44l-6.92 6.93"/></g></g><path id="Rectangle-1545-Copy-12" fill="#FFF" d="M44 119.22l60 26.9 60-26.9v57.82H44v-57.82z"/><path id="Rectangle-1545-Copy-13" fill="#000" fill-opacity=".1" d="M44 119.22l60 26.9 60-26.9v57.82H44v-57.82z"/><path id="Rectangle-1545-Copy-14" fill="#FFF" d="M104 135.58l60 41.46H44l60-41.46z"/></g></g></g></g></svg>