<svg xmlns="http://www.w3.org/2000/svg" viewBox="0 0 200 201"><defs><linearGradient id="linearGradient-1" x1="50%" x2="50%" y1="100%" y2="0%"><stop stop-color="#FBD161" offset="0%"/><stop stop-color="#FBF27D" offset="100%"/></linearGradient></defs><g id="Join-Subvisual" fill="none" fill-rule="evenodd"><g id="Join-Subvisual---desktop"><g id="Group"><ellipse id="Oval-171-Copy-2" cx="100" cy="100.6" fill="#FBF077" opacity=".1" rx="100" ry="100"/><circle id="Oval-41-Copy-4" cx="98" cy="101" r="78" fill="#FBF077" opacity=".15"/><circle id="Oval-41-Copy-3" cx="98" cy="101" r="78" fill="#FBF077" opacity=".05"/><circle id="Oval-41-Copy-2" cx="98" cy="101" r="67" fill="#FBE977" opacity=".15"/><circle id="Oval-41-Copy" cx="99" cy="102" r="50" fill="#FBE977" opacity=".2"/><circle id="Oval-41" cx="97.5" cy="100.5" r="34.5" fill="#FBE977" opacity=".25"/><path id="Oval-40" fill="url(#linearGradient-1)" d="M106.5 120.83c5.83-5.05 11-14.2 11-21.23 0-11.27-8.73-20-19-20-11.27 0-20 8.73-20 20 0 7.13 5.8 16.4 12 21.42v12.58h16v-12.77z"/><rect id="Rectangle-367-Copy" width="16" height="4" x="90.5" y="134.6" fill="#999" rx="40"/><rect id="Rectangle-367-Copy-2" width="12" height="3" x="92.5" y="139.6" fill="#999" rx="40"/><path id="Rectangle-367-Copy-3" fill="#999" d="M95.25 144.24c-.4-.35-.3-.64.25-.64h6c.55 0 .68.3.23.65 0 0-1.23 1.35-3.23 1.35s-3.25-1.36-3.25-1.36z"/><path id="Path-818" stroke="#FFF" d="M95.9 133.53v-34.3c0-9.17-6.1 0-5.33 4.57.76 4.58 15.27 3.06 16.8 0 1.52-3.05-5.35-14.5-5.35-4.58v34.38" opacity=".6"/></g></g></g></svg>