<svg xmlns="http://www.w3.org/2000/svg" viewBox="0 0 201 201" xmlns:xlink="http://www.w3.org/1999/xlink"><defs><ellipse id="path-1" cx="100.5" cy="100.25" rx="100" ry="100"/><linearGradient id="linearGradient-3" x1="50%" x2="50%" y1="0%" y2="100%"><stop stop-color="#FBD161" offset="0%"/><stop stop-color="#F99337" offset="100%"/></linearGradient><linearGradient id="linearGradient-4" x1="50%" x2="50%" y1="0%" y2="100%"><stop stop-color="#CCF3DA" offset="0%"/><stop stop-color="#72BD81" offset="100%"/></linearGradient><linearGradient id="linearGradient-5" x1="50%" x2="50%" y1="0%" y2="100%"><stop stop-color="#92D7AA" offset="0%"/><stop stop-color="#6CBD7C" offset="100%"/></linearGradient><linearGradient id="linearGradient-6" x1="50%" x2="50%" y1="0%" y2="100%"><stop stop-color="#66D88E" offset="0%"/><stop stop-color="#37B450" offset="100%"/></linearGradient><linearGradient id="linearGradient-7" x1="50%" x2="50%" y1="0%" y2="100%"><stop stop-color="#09DFF3" offset="0%"/><stop stop-color="#44BEFF" offset="100%"/></linearGradient></defs><g id="Join-Subvisual" fill="none" fill-rule="evenodd"><g id="Join-Subvisual---desktop"><g id="offsites"><mask id="offsite-mask-2" fill="#fff"><use xlink:href="#path-1"/></mask><use fill="#EBF4F8" xlink:href="#path-1"/><g id="Group" mask="url(#offsite-mask-2)"><g transform="translate(-91 35)"><g id="Oval-24-Copy-3-+-Oval-24-Copy-+-Oval-24-Copy-2" fill="url(#linearGradient-3)" transform="translate(166)"><ellipse id="Oval-24-Copy-4" cx="43.5" cy="44" opacity=".1" rx="62.56" ry="62.63"/><ellipse id="Oval-24-Copy-3" cx="43.5" cy="44" opacity=".1" rx="47.2" ry="47.26"/><ellipse id="Oval-24-Copy" cx="43.5" cy="44" opacity=".1" rx="32.96" ry="33"/><ellipse id="Oval-24-Copy-2" cx="43.5" cy="44" opacity=".15" rx="16.59" ry="16.61"/></g><path id="Rectangle-319" fill="url(#linearGradient-4)" d="M91.9 67.04C122.46 51.66 117.07 15 157.5 15c26.98 0 38.66 52.04 53.94 52.04 15.28 0 18.12-55.18 55.72-26.02C304.76 70.18 313 172 313 172H20S53.67 86.27 91.9 67.04z"/><path id="Rectangle-312-Copy-27" fill="#CCB288" d="M108.66 108l21-49 21 49h-42z"/><path id="Oval-34-Copy-3" fill="url(#linearGradient-5)" d="M189.56 124.94S168.88 71 148.44 71c-20.44 0-17.44 20-40 20-34.17 0-42 17.63-42 33.94 0 1.3 123.12 0 123.12 0z"/><path id="Rectangle-312-Copy-6" fill="#B18B4F" d="M61 140l40.5-96 40.5 96H61z"/><path id="Rectangle-312-Copy-21" fill="#B18B4F" d="M133 131l21-49 21 49h-42z"/><path id="Oval-34-Copy" fill="url(#linearGradient-6)" d="M181.66 166.1s-22-70.25-86-53.07c-64 17.17-95 53.07-95 53.07h181z"/><path id="Rectangle-314" fill="url(#linearGradient-7)" d="M164.7 153.68c2.8-4.8-1.9-16.87 9.36-22.27 6.76-3.2 14.63-10.7 19.94-14.4 3.55-2.4 13-4 13-4l-4 3s-8.06 12.2-7 21.2c1.06 9.1 12.1 5.5 10.86 17.4-1.22 11.9-15.24 21.5-15.24 21.5H110s45.8-7 54.7-22.3z"/><path id="Rectangle-312-Copy-12" fill="#8D7246" d="M96.23 142.92l5.66-17.4 5.6 17.4H96.2z"/><path id="Rectangle-312-Copy-23" fill="#CCB288" d="M213 121l21-49 21 49h-42z"/><path id="Rectangle-312-Copy-24" fill="#CCB288" d="M240 113l28.5-67 28.5 67h-57z"/><path id="Rectangle-312-Copy-14" fill="#8D7246" d="M104.3 131.32l5.66-17.4 5.66 17.4h-11.3z"/><circle id="Oval-24" cx="209.5" cy="43.5" r="8.5" fill="url(#linearGradient-3)"/><path id="Rectangle-312-Copy-15" fill="#8D7246" d="M115.2 137.12l5.67-17.4 5.65 17.4h-11.3z"/><path id="Rectangle-312-Copy-22" fill="#8D7246" d="M126.92 140.8l5.66-17.4 5.65 17.4h-11.3z"/><path id="Rectangle-312-Copy-16" fill="#000" d="M192.35 108.65l2.04-4.7 2 4.7h-4.1z" opacity=".05"/><path id="Rectangle-312-Copy-28" fill="#000" d="M198.63 113.14l1.5-3.34 1.5 3.34h-3z" opacity=".05"/><path id="Rectangle-312-Copy-17" fill="#000" d="M197.05 103.43l1.5-3.34 1.5 3.3h-3z" opacity=".05"/><path id="Rectangle-312-Copy-29" fill="#000" d="M201.63 107.14l1.5-3.34 1.5 3.34h-3z" opacity=".05"/><path id="Rectangle-312-Copy-18" fill="#000" d="M186.05 112.43l1.5-3.34 1.5 3.3h-3z" opacity=".05"/><path id="Rectangle-312-Copy-30" fill="#000" d="M190.63 113.14l1.5-3.34 1.5 3.34h-3z" opacity=".05"/><path id="Rectangle-312-Copy-19" fill="#000" d="M209.05 105.43l2.5-3.34 2.5 3.3h-5z" opacity=".05"/><path id="Rectangle-312-Copy-31" fill="#000" d="M214.92 101.2l2.04-4.72 2.04 4.7h-4.08z" opacity=".05"/><path id="Rectangle-312-Copy-20" fill="#000" d="M189.05 99.76l2.04-4.7 2 4.7H189z" opacity=".05"/><path id="Rectangle-312-Copy-32" fill="#000" d="M201.94 100.96l2.04-4.7 2.05 4.7h-4.1z" opacity=".05"/><path id="Oval-34-Copy-2" fill="url(#linearGradient-5)" d="M317.12 139.93S296.44 86 276 86c-20.44 0-17.44 20-40 20-34.17 0-42 17.62-42 33.93 0 1.3 123.12 0 123.12 0z"/><path id="Rectangle-312-Copy-25" fill="#B18B4F" d="M199 145.26l21-49 21 49h-42z"/><path id="Rectangle-312-Copy-26" fill="#B18B4F" d="M229.17 130.2l21-49 21 49h-42z"/><path id="Oval-34" fill="url(#linearGradient-6)" d="M397 172.08s-43.6-71-98-71-98 45.04-98 71c0 2.07 196 0 196 0z"/><path id="Rectangle-341-Copy" fill="#BEBEBE" d="M196.2 144.03l2.87-2.77 3.9-1.05-.18 6.8-2.8 1-3-1.2-.8-2.7z"/><path id="Rectangle-341-Copy-15" fill="#BEBEBE" d="M192.2 139.03l2.87-2.77 3.9-1.05-.18 6.8H196l-4 1.8.2-4.7z"/><path id="Rectangle-341-Copy-14" fill="#D8D8D8" d="M195.34 140.4l2.9-.8.78 2.9-2.9.8z"/><path id="Rectangle-341-Copy-16" fill="#BEBEBE" d="M181.45 124.2l1.78-1.72 2.44-.65-.12 4.2h-1.72l-2.5 1.14.12-2.97z"/><path id="Rectangle-341-Copy-8" fill="#BEBEBE" d="M169.44 130.73l6.83-1.3-1.7 3.84-3.84 1.3-1.3-3.84z"/><path id="Rectangle-341-Copy-9" fill="#BEBEBE" d="M152.2 160.03l6.77-1.82 1.82 6.8-6.8 1.8z"/><path id="Rectangle-341-Copy-2" fill="#D8D8D8" d="M200.2 144.03l4.77-1.82 2.25 2.3-1.43 4.5-4.8.8-.8-5.7z"/><path id="Rectangle-341-Copy-3" fill="#D8D8D8" d="M194.2 167.03l6.78-1.82 1.8 6.8-6.75 1.8z"/><path id="Rectangle-341-Copy-4" fill="#D8D8D8" d="M203.55 148.6l3.86-2.05-.9 4.86-2.8 1.1-.04-3.8z"/><path id="Rectangle-341-Copy-7" fill="#D8D8D8" d="M166.2 133.03l2.77-3.82 3.82 6.8-6.8 2.8.2-5.7z"/><path id="Rectangle-341-Copy-5" fill="#D8D8D8" d="M159.2 156.03l3.77-2.82L167 157l-3.2 2.97-4.77.82.18-4.8z"/><path id="Rectangle-341-Copy-17" fill="#D8D8D8" d="M163.66 148.63l2.62-1.96 2.8 2.64-2.23 2.1-3.32.6.13-3.3z"/><path id="Rectangle-341-Copy-18" fill="#D8D8D8" d="M192.66 133.63l2.62-1.96 2.8 2.64-2.23 2.1-3.32.6.13-3.3z"/><path id="Rectangle-341-Copy-13" fill="#D8D8D8" d="M177.44 125.73l1.83-3.3 2.3 3.84-2.84 2.3-1.3-2.84z"/><path id="Rectangle-341-Copy-11" fill="#BEBEBE" d="M132.2 165.03l6.77-1.82 1.82 6.8-6.8 1.8z"/><path id="Rectangle-341-Copy-12" fill="#BEBEBE" d="M140.55 165.6l3.86-1.05 1.1 3.86-3.8 1.1z"/><path id="Rectangle-341-Copy-10" fill="#D8D8D8" d="M144.2 161.03l6.78-1.82 1.8 6.8-6.75 1.8z"/><path id="Rectangle-341-Copy-6" fill="#D8D8D8" d="M164.55 137.6l3.86-1.05 1.1 3.86-3.8 1.1z"/><path id="Rectangle-312-Copy-33" fill="#8D7246" d="M210.24 151.78l3.83-11.78 3.83 11.78h-7.66z"/><path id="Rectangle-312-Copy-34" fill="#8D7246" d="M231.34 140.1l2.83-8.7 2.83 8.7h-5.66z"/><path id="Rectangle-312-Copy-36" fill="#8D7246" d="M264.34 110.1l2.83-8.7 2.83 8.7h-5.66z"/><path id="Rectangle-312-Copy-35" fill="#8D7246" d="M232.34 127.72l3.83-11.8 3.83 11.8h-7.66z"/></g></g></g></g></g></svg>
