<svg xmlns="http://www.w3.org/2000/svg" viewBox="0 0 200 200" xmlns:xlink="http://www.w3.org/1999/xlink"><defs><ellipse id="path-1" cx="100" cy="100" rx="100" ry="100"/><linearGradient id="linearGradient-3" x1="50%" x2="50%" y1="100%" y2="17.53%"><stop stop-color="#ABABAB" offset="0%"/><stop stop-color="#B2B2B2" offset="75.08%"/><stop stop-color="#5D5D5D" offset="100%"/></linearGradient><linearGradient id="linearGradient-4" x1="50%" x2="50%" y1="0%" y2="100%"><stop stop-color="#50EDC2" offset="0%"/><stop stop-color="#11CCDB" offset="100%"/></linearGradient><linearGradient id="linearGradient-5" x1="50%" x2="50%" y1="0%" y2="100%"><stop stop-color="#FB6161" offset="0%"/><stop stop-color="#CC4B44" offset="100%"/></linearGradient><linearGradient id="linearGradient-6" x1="50%" x2="50%" y1="0%" y2="100%"><stop stop-color="#FBD161" offset="0%"/><stop stop-color="#F99337" offset="100%"/></linearGradient><filter id="filter-7" width="200%" height="200%" x="-50%" y="-50%" filterUnits="objectBoundingBox"><feGaussianBlur stdDeviation="6.37343894 -5.71577704" in="SourceGraphic" result="blur"/></filter></defs><g id="Join-Subvisual" fill="none" fill-rule="evenodd"><g id="Join-Subvisual---desktop"><g id="Oval-171-Copy-2-+-Group-Copy-5"><ellipse id="Oval-171-Copy-2" cx="100" cy="100" fill="#EBF4F8" rx="100" ry="100"/><g id="Group-Copy-5"><mask id="mask-2" fill="#fff"><use xlink:href="#path-1"/></mask><use id="Mask" xlink:href="#path-1"/><g id="Group" mask="url(#mask-2)"><g transform="translate(-84)"><path id="Rectangle-389-Copy-4" fill="url(#linearGradient-3)" d="M173.9 184.2h-11.2l-16-38.4h11.2l16 38.4z"/><path id="Rectangle-389-Copy-5" fill="#878787" d="M173.7 183.4h-11.3l.7 1.6h11.3l-.7-1.6z"/><path id="Rectangle-389" fill="url(#linearGradient-4)" d="M.23 145.6L44.47.38h123.86l44.24 145.22H.23z"/><path id="Rectangle-389-Copy-3" fill="#FFF" d="M.23 145.6v7.2h212.34v-7.2H.23z"/><path id="Rectangle-389-Copy" stroke="#FFF" d="M1.4 144.8L45.15 1.18h122.5L211.4 144.8H1.4z"/><path id="Rectangle-389-Copy-2" stroke="#FFF" d="M102.94 144.8V1.18 144.8z"/><g id="Rectangle-355-+-Oval-172-Copy" transform="rotate(-330 216.8 135.6) translate(197.6 103.2)"><path id="Rectangle-355" fill="#C0A882" d="M16 45.6h6.4L24 64.8h-9.6L16 45.6z"/><ellipse id="Oval-172" cx="19.2" cy="23.2" fill="#DD5C5C" rx="19.2" ry="23.2"/></g><g id="Rectangle-355-+-Oval-172" transform="rotate(-330 215.6 134.75) translate(196.4 102.35)"><path id="Rectangle-355" fill="#C0A882" d="M16 45.6h6.4L24 64.8h-9.6L16 45.6z"/><ellipse id="Oval-172" cx="19.2" cy="23.2" fill="url(#linearGradient-5)" rx="19.2" ry="23.2"/></g><ellipse id="Oval-173" cx="188.4" cy="102.35" fill="url(#linearGradient-6)" rx="4.8" ry="4.8"/><ellipse id="Oval-173-Copy" cx="184.4" cy="98.35" fill="url(#linearGradient-6)" filter="url(#filter-7)" rx="4.8" ry="4.8"/><path id="Rectangle-357-Copy-26" stroke="#EDEDED" d="M104-40.8h4v156h-4z"/><path id="Rectangle-357-Copy-27" stroke="#EDEDED" d="M104-34.4h4v156h-4z"/><path id="Rectangle-357-Copy-28" stroke="#EDEDED" d="M104-28h4v156h-4z"/><path id="Rectangle-357-Copy-9" stroke="#EDEDED" d="M84 32.8h4v22.4h-4z"/><path id="Rectangle-357-Copy-10" stroke="#EDEDED" d="M90.4 32.8h4v22.4h-4z"/><path id="Rectangle-357-Copy-11" stroke="#EDEDED" d="M96.8 32.8h4v22.4h-4z"/><path id="Rectangle-357-Copy-12" stroke="#EDEDED" d="M103.2 32.8h4v22.4h-4z"/><path id="Rectangle-357-Copy-13" stroke="#EDEDED" d="M109.6 32.8h4v22.4h-4z"/><path id="Rectangle-357-Copy-14" stroke="#EDEDED" d="M116 32.8h4v22.4h-4z"/><path id="Rectangle-357-Copy-15" stroke="#EDEDED" d="M122.4 32.8h4v22.4h-4z"/><path id="Rectangle-357-Copy-32" stroke="#EDEDED" d="M125.6 32.8h4v22.4h-4z"/><path id="Rectangle-357-Copy-17" stroke="#EDEDED" d="M132 32.8h4v22.4h-4z"/><path id="Rectangle-357-Copy-18" stroke="#EDEDED" d="M138.4 32.8h4v22.4h-4z"/><path id="Rectangle-357-Copy-19" stroke="#EDEDED" d="M144.8 32.8h4v22.4h-4z"/><path id="Rectangle-357-Copy-20" stroke="#EDEDED" d="M151.2 32.8h4v22.4h-4z"/><path id="Rectangle-357-Copy-21" stroke="#EDEDED" d="M157.6 32.8h4v22.4h-4z"/><path id="Rectangle-357-Copy-22" stroke="#EDEDED" d="M164 32.8h4v22.4h-4z"/><path id="Line" stroke="#FFF" d="M103.6 144.4V1.86" stroke-linecap="square"/><path id="Rectangle-357-Copy-23" stroke="#EDEDED" d="M170.4 32.8h4v22.4h-4z"/><path id="Rectangle-357-Copy-24" stroke="#EDEDED" d="M173.6 32.8h4v22.4h-4z"/><path id="Rectangle-357-Copy-25" stroke="#EDEDED" d="M180 32.8h4v22.4h-4z"/><path id="Rectangle-357" stroke="#FFF" stroke-width="4" d="M26.4 32.8h160v24h-160z"/></g></g></g></g></g></g></svg>