<svg xmlns="http://www.w3.org/2000/svg" width="308" height="307" xmlns:xlink="http://www.w3.org/1999/xlink"><defs><ellipse id="a" cx="149.905" cy="149.404" rx="149.905" ry="149.404"/><linearGradient id="c" x1="8.899%" x2="130.391%" y1="-29.725%" y2="137.825%"><stop stop-color="#09DFF3" offset="0%"/><stop stop-color="#44BEFF" offset="100%"/></linearGradient></defs><g fill="none" fill-rule="evenodd"><g transform="translate(4 4)"><mask id="b" fill="#fff"><use xlink:href="#a"/></mask><use fill="#EBF5FA" stroke="#FFF" stroke-width="4" xlink:href="#a"/><path fill="#555" d="M0 149.404h299.81V303.3H0z" mask="url(#b)"/></g><path fill="url(#c)" d="M.943 77.538c0 17.32 43.287 14.044 48.037 20.416s22.634 17.8 47.772 16.294c25.137-1.506 40.314.445 54.05-4.907 13.735-5.35 26.336-16.14 17.943-31.8-8.393-15.66-27.23-16.45-43.203-17.95-15.973-1.5-26.84 3.6-43.29 2.3s-25.562-4.69-30.61-5.71C46.592 55.16.94 60.22.94 77.54z" transform="translate(68.8 120.7)"/><path fill="#FFF" d="M188.716 168.313l-7.623 22.14-37.194-12.808 3.87-23.428 40.94 14.096z"/><path fill="#FFF" d="M151.522 155.506c-.256-14.093-9.572-27.07-24.058-32.057-18.374-6.33-38.252 3.01-44.4 20.86-6.146 17.85 8.555 11.74 26.93 18.07 14.485 4.99 25.117 25.94 33.905 15.26l7.62-22.14z"/><path fill="#F0F0F0" d="M105.205 188.095c-18.374-6.327-28.287-25.927-22.14-43.778 28.224 9.718 35.492 12.22 64.646 22.26l-3.81 11.068c-6.32 7.687-16.07 12.303-26.44 12.432l.8-.52.41-.94.76-.157.95-1.257 1.24-.316-2.1-.11-.23-.7.19-.865-.1-.662-.09-.712-.687-.5-1.15.062.66-1.105.787-.646.53-.61 2.643-.55-2.495.19-1.58.12-.39-.37 1.174-.63-.51-.61-2.055-1.025-.08-1.255-.776-1.1.26-.96-1.606-4.082-1.433-4.3-.24 1.63 1.22 3.1-.26.873-1.055.777.144.944-.556-.194-.765 1.13-.88-1.22-1.143-.64-.444 1.34.31 1.317-.317.987-.06 1.155-.575.9-1.296.42.15 1.073-1.08 1.04-.73.79-1.49-.46-.946-.21-2.195-.763 4.76 1.93 1.5 1.15-.396 1.07 2.143 4.4c-1.06-.26-2.11-.57-3.16-.934z"/><path fill="#F0F0F0" d="M184.904 179.383l-3.81 11.07-37.765-13.004 3.81-11.07 37.76 13z"/><path fill="#FFF" d="M108.792 176.462v1.333l-.71 1.04-1.15.413.093.918-1.886 1.962 1.79 1.334-.46 1.11 2.05 4.07-.18.437-2.17-4.51.44-.99-1.48-1.14-5.05-2.04 2.61.81 2.305.6 1.735-1.77-.135-1.03 1.3-.45.57-.95v-1.16l.3-.97-.214-1.24.406-1.48 1.19.73.938 1.15.702-1.074.56.252-.174-.99 1.114-.834.13-.74-1.156-3.17.285-2.07 1.59 4.774 1.476 4.048-.25.997.736 1.085.09 1.25 2.17 1.02.444.52-1.137.78.28.29 4.733-.39-3.227.626-.74.804-.585.414-.727 1.175 1.18-.1.64.513.23 1.4-.235.8.23.666 2.34.133-1.42.415-.917 1.237-.87.155-.22.854-.85.593.52-.788.324-.96.983-.33.64-.926-.884-.255-.22-.79.213-.72-.09-1.097-.505-.508-1.81.123 1.07-1.81.59-.32.65-.674-1.34.16-.58-.785 1.164-.68-.22-.262-2.124-1.11-.144-1.28-.72-1.22.21-1s-2.24-6.62-2.474-7.3c-.134-.403-.22.67-.22.67l1.153 3.055-.28 1.24-.87.548.228 1.44-.82-.44-.87 1.2-1.17-1.332-.672-.436-.21.747.11 1.394-.37.815z"/><path fill="#000" fill-opacity=".05" d="M181.516 190.584l-1.9-.635 7.82-22.13 1.683.64-7.61 22.12z"/><path fill="#FFF" d="M190.497 166.812c.738.25 1.126 1.05.88 1.752l-8.284 23.633c-.252.72-1.05 1.1-1.79.85-.74-.25-1.127-1.05-.88-1.753l8.283-23.633c.252-.71 1.05-1.1 1.79-.84z"/><path fill="#000" fill-opacity=".05" d="M187.235 180.38l-4.14 11.812c-.253.72-1.05 1.105-1.793.854-.738-.25-1.126-1.05-.878-1.757l4.14-11.82 2.67.9z"/></g></svg>