<svg xmlns="http://www.w3.org/2000/svg" viewBox="0 0 309 307" xmlns:xlink="http://www.w3.org/1999/xlink"><defs><ellipse id="a" cx="149.91" cy="149.41" rx="149.91" ry="149.4"/><linearGradient id="c" x1="37.58%" x2="37.58%" y1="-6.25%" y2="118.85%"><stop stop-color="#09DFF3" offset="0%"/><stop stop-color="#44BEFF" offset="100%"/></linearGradient><linearGradient id="d" x1="20%" y1="39.15%" y2="39.15%"><stop stop-color="#517F96" offset="0%"/><stop stop-color="#466D81" offset="100%"/></linearGradient><linearGradient id="e" x1="62.42%" x2="50%" y1="36.04%" y2="62.3%"><stop stop-color="#09DFF3" offset="0%"/><stop stop-color="#44BEFF" offset="100%"/></linearGradient></defs><g fill="none" fill-rule="evenodd"><g transform="translate(4.41 4)"><mask id="b" fill="#fff"><use xlink:href="#a"/></mask><use fill="#EBF5FA" stroke="#FFF" stroke-width="4" xlink:href="#a"/><g mask="url(#b)"><g transform="translate(49.174 65.026)"><ellipse cx="100.02" cy="33.34" fill="#D8D8D8" stroke="#979797" rx="1.41" ry="1.41"/><path fill="#EBEBEB" d="M75.25 243.37l-1.13-97.8 49.38-129.4 1.57-15.5L143.2 12.8l47.53 30.07 2.75 100.35-7.15 100.15H75.25z"/><path stroke="#FFF" d="M152.92 79.46l9.47 5.47v10.92l-9.5 5.47-9.5-5.47V84.93z"/><path fill="#F5F5F5" d="M79.22 243.66l-5.03-97.9 14.9-31.56L58.2 11.1 11.93 42.3 4.3 145.76l8.6 97.9h66.32z"/><path fill="#E1E1E1" d="M190.55 42.35l-12.2 6.8-9.54 43.63 3.8 49.7-3.2 66.08-2.8 34.62h29.9l6-87.3-6-93.6-5.8-19.93z"/><path fill="#EBEBEB" d="M12.07 42.35l14.05 9.37 7.68 41.06-2.8 49.7 2.3 66.08 2.8 34.62H6.3l-6-87.3 6-93.6 5.8-19.93z"/><g fill="#40C8F9"><path d="M99.73 80.17l-.85-60.75s-10.12-.56-13.68-3.2c-4.83-3.6-11.5-14.85-11.5-14.85l1.72 18.05 24.3 60.75z"/><path d="M98.9 77.54V19.18s12.04-.63 16.82-4.16c3.93-2.9 9.3-14.26 9.3-14.26L120.6 18.1 98.9 77.55z"/></g><path fill="#E1E1E1" d="M73.95 145.92l68.16-67.5-11.2-18.98 19.9-10.98-7.8-35.8L125.2.76l-4.54 16.44-46.68 128.7z"/><path fill="#EBEBEB" d="M85.07 116.7l13.78-39-21.3-58.66-4.03-17.48-19.12 12.1L42.94 48 64.3 61.63 54.4 81l30.67 35.7z"/><path fill="#3CB8E5" d="M115.72 10.36L98.85 19.3l10.38 13.8L120 19.64l.64-1.7 4.68-17.3-9.6 9.72zm-33.56 0l16.87 8.94-10.38 13.8L77.9 19.64l-.66-1.7-3.68-16.37 8.6 8.8z"/><ellipse cx="99.08" cy="29.58" fill="#80DEFF" rx="1.41" ry="1.41"/><ellipse cx="99.08" cy="38.97" fill="#80DEFF" rx="1.41" ry="1.41"/><ellipse cx="99.08" cy="48.37" fill="#80DEFF" rx="1.41" ry="1.41"/><ellipse cx="99.08" cy="57.76" fill="#80DEFF" rx="1.41" ry="1.41"/></g><g transform="translate(96.376 -14.8)"><path fill="#F9BA37" d="M6.26 74.47C3.48 76.6 5.2 85.1 10.22 93.83c5.03 8.7 11.54 14.44 14.8 13.1v.02l20.6-11.88-18.78-32.5-20.6 11.88.02.02z"/><path fill="#5A89A1" d="M11.68 71.34C8.9 73.48 10.6 81.98 15.64 90.7c5.03 8.72 11.54 14.44 14.8 13.1v.02l15.17-8.75-18.7-32.5-15.1 8.75v.02z"/><path fill="#F9BA37" d="M102.3 74.47c2.8 2.14 1.1 10.64-3.95 19.36-5.03 8.7-11.54 14.44-14.8 13.1v.02L62.97 95.07l18.76-32.5 20.6 11.88-.02.02z"/><path fill="#5A89A1" d="M96.9 71.34c2.77 2.14 1.07 10.64-3.96 19.36-5.04 8.72-11.55 14.44-14.8 13.1v.02l-15.17-8.75 18.76-32.5L96.9 71.3v.02z"/><ellipse cx="53.35" cy="93.52" fill="#5A89A1" rx="16.58" ry="6.88"/><path fill="#F9BA37" d="M53.35 100.4c9.15 0 16.58-3.08 16.58-6.88s-7.43-6.88-16.58-6.88c-9.16 0-16.58 3.08-16.58 6.88s7.42 6.88 16.58 6.88zm0 4.22c-11.27 0-20.8-3.95-20.8-11.1 0-7.15 9.53-11.1 20.8-11.1 11.27 0 20.8 3.95 20.8 11.1 0 7.15-9.53 11.1-20.8 11.1z"/><path fill="#FFF" d="M39.13 3.33L54.06 1.6l11.87 1.73 13.5 4.32L90.8 22.57l3.3 15.8-2 13.5H15.24l-2.73-13.5 2.8-15.8L25.6 7.65l13.6-4.32z"/><ellipse cx="53.35" cy="23.46" fill="#5A89A1" rx="27.21" ry="13.76"/><path fill="#5A89A1" d="M47.1.3h12.5v13.15H47.1z"/><path fill="#F9BA37" d="M18.63 43.95v13.27c0 15.55 12.6 28.17 28.17 28.17h13.1c15.55 0 28.17-12.7 28.17-28.2V43.9c0-11.66-9.46-21.12-21.13-21.12H39.76c-11.67 0-21.13 9.47-21.13 21.13zm-4.22 0c0-14 11.4-25.34 25.4-25.34H67C81 18.6 92.35 30 92.35 44v13.27c0 17.9-14.5 32.4-32.4 32.4H46.8c-17.9 0-32.4-14.5-32.4-32.4v-13.3z"/><path fill="#DDEFF4" d="M18.63 42.84c0-11.05 8.95-20 20-20h29.45c11.04 0 20 8.95 20 20v14.54c0 15.47-12.55 28-28 28H46.6c-15.46 0-28-12.54-28-28V42.84z"/><path fill="#FFF" d="M57.2 24.76s15.27-1.9 22.93 5.08c7.66 6.97 5.96 24.5 5.96 24.5s.7-11.78-9.3-20.82c-10.1-9.05-19.6-8.76-19.6-8.76z"/></g><g fill="#395766" transform="translate(142.148 76.296)"><ellipse cx=".94" cy="3.29" rx=".94" ry=".47"/><ellipse cx="1.88" cy="5.17" rx=".94" ry=".47"/><ellipse cx="2.82" cy="1.41" rx=".94" ry=".47"/><ellipse cx="5.63" cy="6.1" rx=".94" ry=".47"/><ellipse cx="4.7" cy="4.23" rx=".94" ry=".47"/><ellipse cx="9.39" cy="1.41" rx=".94" ry=".47"/><ellipse cx="8.45" cy="3.29" rx=".94" ry=".47"/><ellipse cx="11.27" cy="3.29" rx=".94" ry=".47"/><ellipse cx="13.15" cy="2.35" rx=".94" ry=".47"/><ellipse cx="12.21" cy=".47" rx=".94" ry=".47"/><ellipse cx="12.21" cy="5.17" rx=".94" ry=".47"/><ellipse cx="9.39" cy="7.04" rx=".94" ry=".47"/><ellipse cx="15.03" cy="4.23" rx=".94" ry=".47"/><ellipse cx="15.97" cy="2.35" rx=".94" ry=".47"/><ellipse cx="8.45" cy="5.17" rx=".94" ry=".47"/><ellipse cx="6.57" cy=".47" rx=".94" ry=".47"/><ellipse cx="5.63" cy="2.35" rx=".94" ry=".47"/></g></g><path fill="#555" d="M-.5 258.8h299.8v40H-.5z" mask="url(#b)"/></g><path fill="#FFF" d="M107.86 180.8h16.6v27.88h-16.6zm0 27.88c-9.38 3.43-15.93 12.67-15.93 23.53 0 13.8 10.85 25 24.23 25 13.4 0 24.24-11.1 24.24-24.9 0-10.8-6.74-20.1-15.94-23.5h-16.6z"/><path fill="url(#c)" d="M7.38 55.45c1 12.82 11.44 22.9 24.16 22.9S54.7 68.28 55.7 55.45H7.38z" transform="translate(84.623 178.8)"/><path fill="#000" fill-opacity=".06" d="M116.16 208.68v48.48c13.4 0 24.24-11.17 24.24-24.95 0-10.8-6.74-20.1-15.94-23.5h-8.3z"/><path fill="#454545" d="M91.27 239.56h49.8c.9 0 1.66.74 1.66 1.66 0 .92-.76 1.66-1.67 1.66h-49.8c-.9 0-1.66-.74-1.66-1.66 0-.92.75-1.66 1.67-1.66zm23.23 3.32h3.32v19.92h-3.32zm-19.92 0h3.32l-9.96 19.92h-3.32l9.96-19.92zm43.17 0h-3.32l9.96 19.92h3.3l-10-19.92z"/><path fill="#FFF" d="M109.8 180.8h15.34c.53 0 .98-.45.98-1 0-.56-.44-1-.98-1H107.2c-.54 0-1 .45-1 1s.45 1 1 1h2.6z"/><path fill="#000" fill-opacity=".05" d="M119.8 180.8h-3.64v-2h8.97c.55 0 1 .44 1 1 0 .55-.46 1-1 1h-5.33z"/><path fill="#FFF" d="M168.96 220.97h6.64v33.2c0 1.83-1.5 3.32-3.32 3.32-1.84 0-3.32-1.5-3.32-3.4v-33.2z"/><path fill="url(#c)" d="M1.66 4.32H8.3V35.2c0 1.82-1.5 3.3-3.32 3.3-1.83 0-3.32-1.48-3.32-3.3V4.3z" transform="translate(167.295 218.974)"/><path fill="#FFF" d="M167.3 219.97c0-.55.45-1 1-1h7.96c.55 0 1 .45 1 1s-.46 1-1 1h-7.97c-.6 0-1-.45-1-1zm41.66 1h6.64v33.2c0 1.83-1.5 3.32-3.32 3.32-1.84 0-3.32-1.5-3.32-3.4v-33.2z"/><path fill="url(#c)" d="M1.66 4.32H8.3V35.2c0 1.82-1.5 3.3-3.32 3.3-1.83 0-3.32-1.48-3.32-3.3V4.3z" transform="translate(207.295 218.974)"/><path fill="#FFF" d="M207.3 219.97c0-.55.45-1 1-1h7.96c.55 0 1 .45 1 1s-.46 1-1 1h-7.97c-.6 0-1-.45-1-1zm-12.64 1h6.64v33.2c0 1.83-1.5 3.32-3.32 3.32-1.83 0-3.32-1.5-3.32-3.4v-33.2z"/><path fill="url(#c)" d="M1.66 4.32H8.3V35.2c0 1.82-1.5 3.3-3.32 3.3-1.83 0-3.32-1.48-3.32-3.3V4.3z" transform="translate(193 218.974)"/><path fill="#FFF" d="M193 219.97c0-.55.45-1 1-1h7.97c.55 0 1 .45 1 1s-.46 1-1 1H194c-.56 0-1-.45-1-1zm-11.34 1h6.64v33.2c0 1.83-1.5 3.32-3.32 3.32-1.83 0-3.32-1.5-3.32-3.4v-33.2z"/><path fill="url(#c)" d="M1.66 4.32H8.3V35.2c0 1.82-1.5 3.3-3.32 3.3-1.83 0-3.32-1.48-3.32-3.3V4.3z" transform="translate(180 218.974)"/><path fill="#FFF" d="M180 219.97c0-.55.45-1 1-1h7.97c.55 0 1 .45 1 1s-.46 1-1 1H181c-.56 0-1-.45-1-1z"/><path fill="#000" fill-opacity=".06" d="M116.16 180.8h8.3v27.88h-8.3z"/><path fill="#454545" d="M159 226.6c0-.9.74-1.65 1.65-1.65h63.1c.9 0 1.65.74 1.65 1.66 0 1-.75 1.7-1.66 1.7h-63.1c-.9 0-1.65-.7-1.65-1.6z"/><path fill="#454545" d="M160.65 226.28h3.32v36.52h-3.32zm59.75 1.32h3.33v35.2h-3.32z"/><path fill="#5889A2" d="M206.5 163.57l-4.5-2.67v2.5l4.5 2.57 4.5-2.64v-2.4l-4.5 2.64zm0-10.57l-4.5 2.6v2.47l4.5-2.7 4.5 2.7v-2.48l-4.5-2.6z"/><path fill="url(#d)" d="M6.04 9.65L9 7.75v2.6" transform="translate(202 153)"/><path fill="url(#d)" d="M0 4.44l2.96-1.87.03 2.6" transform="matrix(-1 0 0 -1 204.994 160.74)"/><path fill="url(#e)" d="M0 2.6l9 5.25v2.48L0 5.06" transform="translate(202 153)"/><path fill="#000" fill-opacity=".05" d="M124.46 180.8v.72h-16.6v-.72h16.6z"/></g></svg>