<svg xmlns="http://www.w3.org/2000/svg" viewBox="0 0 308 307" xmlns:xlink="http://www.w3.org/1999/xlink"><defs><ellipse id="a" cx="149.91" cy="149.4" rx="149.91" ry="149.4"/><linearGradient id="c" x1="8.9%" x2="130.39%" y1="-29.73%" y2="137.82%"><stop stop-color="#09DFF3" offset="0%"/><stop stop-color="#44BEFF" offset="100%"/></linearGradient></defs><g fill="none" fill-rule="evenodd"><g transform="translate(4 4)"><mask id="b" fill="#fff"><use xlink:href="#a"/></mask><use fill="#EBF5FA" stroke="#FFF" stroke-width="4" xlink:href="#a"/><path fill="#555" d="M0 149.4h299.8v153.9H0z" mask="url(#b)"/></g><path fill="url(#c)" d="M.94 77.54c0 17.32 43.3 14.04 48.04 20.4s22.63 17.8 47.77 16.3c25.14-1.5 40.32.45 54.05-4.9 13.74-5.35 26.34-16.14 17.94-31.8-8.4-15.66-27.23-16.45-43.2-17.95-15.97-1.5-26.84 3.6-43.3 2.3s-25.55-4.7-30.6-5.72C46.6 55.16.94 60.22.94 77.54z" transform="translate(68.8 120.7)"/><path fill="#FFF" d="M188.72 168.3l-7.63 22.15-37.2-12.8 3.87-23.43 40.94 14.1z"/><path fill="#FFF" d="M151.52 155.5c-.25-14.1-9.57-27.06-24.06-32.05-18.37-6.33-38.25 3-44.4 20.86-6.14 17.86 8.56 11.75 26.93 18.08 14.48 5 25.1 25.94 33.9 15.26l7.62-22.14z"/><path fill="#F0F0F0" d="M105.2 188.1c-18.37-6.33-28.28-25.93-22.14-43.78l64.65 22.26-3.8 11.06c-6.32 7.7-16.07 12.3-26.44 12.44l.8-.52.4-.94.77-.16.95-1.26 1.24-.3-2.1-.12-.23-.7.18-.87-.1-.65-.1-.7-.68-.5-1.15.05.66-1.1.8-.65.53-.6 2.64-.56-2.5.18-1.57.12-.4-.37 1.18-.63-.5-.6-2.06-1.04-.08-1.25-.78-1.1.26-.95-1.6-4.08-1.44-4.3-.24 1.63 1.22 3.1-.26.87-1.05.78.14.94-.56-.2-.77 1.13-.88-1.22-1.15-.63-.45 1.34.3 1.32-.3 1-.06 1.15-.58.9-1.3.42.16 1.06-1.08 1.04-.73.8-1.48-.47-.95-.2-2.2-.77 4.77 1.93 1.5 1.14-.4 1.07 2.14 4.4c-1.06-.25-2.1-.56-3.16-.93z"/><path fill="#F0F0F0" d="M184.9 179.38l-3.8 11.07-37.77-13 3.8-11.07 37.77 13z"/><path fill="#FFF" d="M108.8 176.46v1.33l-.72 1.03-1.15.42.1.92-1.9 1.96 1.8 1.33-.46 1.1 2.05 4.08-.18.44-2.17-4.5.44-1-1.47-1.14-5.05-2.04 2.6.8 2.3.6 1.75-1.76-.14-1.03 1.3-.44.56-.95v-1.15l.3-.97-.2-1.24.4-1.48 1.2.73.92 1.14.7-1.07.57.25-.18-1 1.12-.83.12-.75-1.16-3.17.28-2.07 1.6 4.8 1.47 4.04-.24 1 .74 1.08.1 1.25 2.16 1.02.44.5-1.14.8.28.28 4.74-.4-3.23.63-.74.82-.57.4-.73 1.2 1.18-.1.64.5.23 1.4-.24.8.24.67 2.34.12-1.42.4-.9 1.25-.88.16-.22.85-.85.6.53-.8.32-.96.98-.33.64-.93-.88-.26-.23-.78.2-.72-.08-1.1-.5-.5-1.82.12 1.07-1.8.6-.33.64-.68-1.35.16-.58-.8 1.16-.67-.22-.25-2.1-1.1-.16-1.3-.72-1.2.2-1-2.46-7.3c-.13-.4-.22.66-.22.66l1.15 3.07-.3 1.24-.86.55.23 1.44-.82-.45-.87 1.2-1.17-1.33-.66-.43-.2.73.1 1.4-.37.8z"/><path fill="#000" fill-opacity=".05" d="M181.52 190.58l-1.9-.63 7.82-22.13 1.68.64-7.6 22.12z"/><path fill="#FFF" d="M190.5 166.8c.74.26 1.12 1.06.88 1.76l-8.3 23.64c-.24.72-1.04 1.1-1.78.85-.74-.25-1.12-1.05-.88-1.76l8.3-23.64c.24-.7 1.04-1.1 1.78-.84z"/><path fill="#000" fill-opacity=".05" d="M187.24 180.38l-4.14 11.8c-.26.73-1.05 1.12-1.8.87-.74-.25-1.12-1.05-.88-1.76l4.14-11.83 2.67.9z"/></g></svg>
