<svg xmlns="http://www.w3.org/2000/svg" viewBox="0 0 208 208" xmlns:xlink="http://www.w3.org/1999/xlink"><title>Email</title><defs><ellipse id="a" cx="99.9" cy="100.3" rx="99.9" ry="99.6"/></defs><g fill="none" fill-rule="evenodd"><g transform="translate(4 4)"><mask id="b" fill="#fff"><use xlink:href="#a"/></mask><use fill="#EBF5FA" stroke="#FFF" stroke-width="4" xlink:href="#a"/><path fill="#555" d="M-.3 173h200v26.7H-.4z" mask="url(#b)"/></g><path fill="#FFF" d="M44 119l60-33.6 60 33.5v58H44v-58z"/><path fill="#000" fill-opacity=".2" d="M44 119l60-33.6 60 33.5v58H44v-58z"/><g transform="translate(54.909 88.673)"><path fill="#40C8FA" d="M0 6.8h98.2v73.6H0z"/><g fill="#000" fill-opacity=".1"><path d="M44.7 26.3l4.3-2.6v-5l-9 5 6.3 1.6-1.6 1zM40 29v-5.3V29zm12 9.7l-3 1.7-9-5.3v5.4l9 5v.2l9-5.3-6-1.6zm-3-20l9 5V29l-9-5.3v-5zM58 40.3L40 29v-5.3L58 35v5.3z"/></g><ellipse cx="93.8" cy="10.9" fill="#F9BA37" rx="10.9" ry="10.9"/><g stroke="#FFF" stroke-width="2" stroke-linecap="round" stroke-linejoin="round"><path d="M88.7 11.2l3 3.2M98.7 7.4l-7 7"/></g></g><path fill="#FFF" d="M44 119.2l60 27 60-27V177H44v-57.8z"/><path fill="#000" fill-opacity=".1" d="M44 119.2l60 27 60-27V177H44v-57.8z"/><path fill="#FFF" d="M104 135.6l60 41.4H44l60-41.4z"/></g></svg>
