<svg viewBox="0 0 166 29" fill="none" xmlns="http://www.w3.org/2000/svg">
    <ellipse cx="90.403" cy="4.17" rx="3.632" ry="3.478" fill="url(#paint0_radial)"/>
    <path d="M17.67 9.468h.38l-.38-6.66c-2.08-1.135-5.032-1.703-7.34-1.703C5.147 1.105.984 3.754.984 8.75c0 8.248 12.979 7.832 12.979 14.68 0 3.255-2.27 4.541-4.427 4.541-4.2 0-6.887-3.632-8.135-8.551h-.379l.379 7.038c2.08 1.135 5.373 1.892 8.097 1.892 5.07 0 9.724-2.573 9.724-8.4 0-8.59-12.978-8.476-12.978-14.946 0-2.498 1.93-3.52 4.124-3.52 3.557 0 6.054 3.898 7.303 7.985zM34.333 11.7v12.297c-.757.643-1.855 1.514-3.595 1.514-1.362 0-2.043-.908-2.043-2.384V8.673h-.681l-7.87.908v.378c2.005.19 2.232.341 2.232 1.741v10.973c0 4.162 2.383 5.676 5.183 5.676 2.763 0 5.033-1.703 6.774-3.973h.189l.151 3.973h.378l7.833-.909v-.378c-2.005-.189-2.233-.34-2.233-1.74V8.673h-.68l-8.628.908v.378c2.762.19 2.99.341 2.99 1.741zm17.077-.227h-.19L51.41.349h-.379l-8.173.908v.378c2.006.19 2.233.34 2.233 1.74V28.16h.378l3.065-2.08c1.93 1.778 4.276 2.27 6.206 2.27 5.297 0 9.459-3.746 9.459-9.838 0-5.676-2.838-9.838-7.605-9.838-2.27 0-3.973 1.097-5.184 2.8zm2.27-.53c2.157 0 3.86 2.346 3.86 7.87 0 4.806-.909 9.006-3.33 9.006-1.022 0-2.8-.416-2.8-4.465V11.851c.719-.605 1.476-.908 2.27-.908zm12.066.947l7 16.27h3.291l5.941-16.044c.568-1.476.984-2.346 2.8-2.686v-.38h-7.416v.379c4.086.227 4.616 1.324 4.086 2.8l-4.086 11.01h-.076l-4.351-11.01c-.53-1.325-.379-2.573 1.816-2.8V9.05H63.513v.379c1.173.151 1.703 1.21 2.233 2.46zm27.988 14.264V8.673h-.379l-8.173.908v.378c2.006.19 2.233.341 2.233 1.741v14.454c0 1.097-.227 1.249-2.233 1.438v.378h10.784v-.378c-2.005-.19-2.232-.34-2.232-1.438zm16.295-11.427h.379l-.379-4.881c-1.513-.719-3.935-1.173-5.713-1.173-5.07 0-7.303 2.497-7.303 5.524 0 6.887 9.951 6.66 9.951 11.125 0 1.665-1.211 2.648-3.14 2.648-2.876 0-5.373-1.967-6.622-6.054h-.378l.416 5.108c1.514.757 4.427 1.325 6.395 1.325 4.843 0 7.832-2.346 7.832-5.94 0-6.471-9.686-6.244-9.686-11.05 0-1.475.87-2.308 2.459-2.308 2.459 0 4.768 2.99 5.789 5.676zM126.23 11.7v12.297c-.757.643-1.854 1.514-3.595 1.514-1.362 0-2.043-.908-2.043-2.384V8.673h-.681l-7.871.908v.378c2.006.19 2.233.341 2.233 1.741v10.973c0 4.162 2.384 5.676 5.184 5.676 2.762 0 5.032-1.703 6.773-3.973h.189l.151 3.973h.379l7.832-.909v-.378c-2.005-.189-2.232-.34-2.232-1.74V8.673h-.681l-8.628.908v.378c2.763.19 2.99.341 2.99 1.741zm25.78 13.887V14.462c.075-3.216-2.573-5.789-7.265-5.789-5.449 0-8.514 4.049-8.514 6.205 0 1.438 1.173 1.968 2.422 1.968 1.4 0 2.384-.719 2.384-1.59 0-1.097-2.233-1.475-2.233-2.988 0-1.476 1.589-2.384 3.179-2.384 2.686 0 3.708 2.043 3.708 4.162v3.822c-8.211.491-10.027 3.67-10.027 6.016 0 2.497 1.627 4.465 4.502 4.465 2.271 0 4.163-1.136 5.449-3.027h.076v.454c0 1.4.984 2.573 3.14 2.573 2.157 0 4.087-.984 5.638-2.233l-.038-.302c-.492.302-1.097.643-1.551.643-.568 0-.87-.34-.87-.87zm-6.319-7.341v6.697c-.492.303-.946.606-1.627.606-1.211 0-1.968-.87-1.968-3.103 0-2.838 1.287-3.897 3.595-4.2zm17.769 7.908V.349h-.378l-8.173.908v.378c2.005.19 2.232.34 2.232 1.74v22.779c0 1.097-.227 1.249-2.232 1.438v.378h10.784v-.378c-2.006-.19-2.233-.34-2.233-1.438z" fill="#045CFC"/>
    <defs>
        <radialGradient id="paint0_radial" cx="0" cy="0" r="1" gradientUnits="userSpaceOnUse" gradientTransform="rotate(128.89 45.991 23.075) scale(5.77432 6.09842)">
            <stop stop-color="#045CFC" stop-opacity=".6"/>
            <stop offset="1" stop-color="#045CFC"/>
        </radialGradient>
    </defs>
</svg>
