<svg xmlns="http://www.w3.org/2000/svg" viewBox="0 0 298 298"><g id="Page-2" fill="none" fill-rule="evenodd"><g id="CS---case-study---desktop"><g id="Rectangle-165-+-CREATORS-Copy-6-+-SCHOOL-Copy-6-+-Group-Copy-Copy-Copy"><path id="Rectangle-165" fill="#FFF" d="M149 .53L297.47 149 149 297.47.53 149z"/><g id="CREATORS-Copy-6-+-SCHOOL-Copy-6-+-Group-Copy-Copy-Copy"><g id="Group"><path id="Rectangle-119-Copy-85" fill="#F9E02D" d="M148.108 49.172l57.186 57.185H90.924l57.184-57.185z"/><path id="Rectangle-119-Copy-78" fill="#D0BB28" d="M105.586 91.694l14.663 14.663H90.92l14.663-14.663z"/><path id="Rectangle-119-Copy-79" fill="#2AA7F0" d="M48.4 148.88l57.186 57.186V91.694L48.4 148.88z"/><path id="Rectangle-119-Copy-80" fill="#258CCA" d="M90.923 191.403l14.663 14.663V176.74l-14.663 14.663z"/><path id="Rectangle-119-Copy-81" fill="#F0772A" d="M148.108 248.588l57.186-57.185H90.924l57.184 57.185z"/><path id="Rectangle-119-Copy-82" fill="#19D474" d="M204.56 105.624l43.257 43.256-57.186 57.186v-99.71l13.93-.732z"/><path id="Rectangle-119-Copy-83" fill="#D96C27" d="M190.63 191.403v14.663l-14.662-14.663h14.663z" opacity=".6"/><path id="Rectangle-119-Copy-84" fill="#16B263" d="M190.686 120.612l.023-14.372 13.77-.56-13.8 14.932z"/></g><path id="CREATORS-Copy-6" fill="#698CA0" d="M118.805 143.743c.107 0 .2.04.276.124l.77.842c-.42.53-.95.93-1.57 1.22-.62.28-1.37.42-2.24.42-.78 0-1.48-.14-2.1-.41-.62-.27-1.15-.64-1.59-1.12-.44-.48-.78-1.05-1.01-1.71-.23-.67-.35-1.39-.35-2.18 0-.8.13-1.53.4-2.19.26-.66.63-1.23 1.11-1.71.48-.48 1.04-.85 1.7-1.12.66-.27 1.39-.4 2.19-.4.78 0 1.46.12 2.05.37.59.25 1.08.58 1.5 1l-.65.91c-.04.05-.09.11-.15.15-.06.04-.14.07-.25.07-.11 0-.22-.05-.34-.14-.11-.09-.26-.19-.44-.29-.18-.11-.4-.2-.68-.29-.27-.09-.62-.13-1.04-.13-.49 0-.94.08-1.36.26-.41.17-.77.42-1.07.74-.3.32-.53.71-.69 1.17-.17.46-.25.98-.25 1.55 0 .59.08 1.12.25 1.59.17.46.39.85.68 1.17.28.32.62.56 1.01.73.39.17.8.25 1.25.25.27 0 .51-.01.72-.04.22-.03.42-.08.6-.14.19-.06.36-.15.52-.25.16-.1.33-.22.49-.37.05-.04.1-.08.15-.1.06-.03.11-.04.18-.04zm4.537-1.64v4.136h-1.953v-10.59h3.2c.71 0 1.33.07 1.84.22s.93.35 1.25.62c.32.27.56.59.72.96.15.37.22.78.22 1.23 0 .35-.05.69-.16 1.01-.11.31-.26.6-.45.86-.2.26-.44.48-.73.68-.29.19-.62.35-.99.47.25.14.46.34.64.6l2.63 3.91h-1.76c-.17 0-.32-.04-.43-.11-.12-.07-.22-.17-.31-.29l-2.21-3.39c-.08-.13-.17-.22-.27-.27-.1-.06-.25-.08-.44-.08h-.84zm0-1.412h1.22c.367 0 .688-.04.96-.13.274-.09.5-.22.676-.38.177-.16.31-.36.396-.58.087-.22.13-.47.13-.74 0-.53-.175-.94-.526-1.23-.35-.28-.887-.43-1.608-.43h-1.248v3.52zm14.11-5.03v1.57H132.8v2.94h3.665v1.52H132.8v3h4.652v1.58h-6.62v-10.59h6.62zm10.917 10.59h-1.51c-.17 0-.31-.04-.42-.13-.11-.08-.19-.19-.24-.31l-.79-2.16h-4.35l-.79 2.16c-.04.11-.12.22-.23.31-.12.1-.26.14-.42.14h-1.52l4.12-10.58h1.99l4.12 10.59zm-6.8-3.99h3.34l-1.28-3.52c-.06-.15-.13-.34-.2-.55-.07-.21-.14-.44-.21-.69-.07.25-.14.48-.2.7-.07.22-.13.41-.2.57l-1.28 3.51zm14.2-6.58v1.62h-3.16v8.97h-1.95v-8.97h-3.18v-1.61h8.28zm10.74 5.29c0 .78-.13 1.5-.39 2.16-.26.66-.62 1.23-1.08 1.72-.47.48-1.03.86-1.68 1.13-.66.27-1.38.41-2.17.41-.8 0-1.52-.13-2.18-.4-.66-.27-1.22-.65-1.69-1.13-.47-.48-.83-1.05-1.09-1.72-.26-.66-.39-1.38-.39-2.15s.13-1.49.39-2.15c.25-.66.61-1.23 1.08-1.71.47-.48 1.03-.86 1.69-1.13.66-.27 1.38-.41 2.17-.41s1.51.14 2.17.41c.65.28 1.21.65 1.67 1.13.46.49.82 1.06 1.08 1.72.25.66.38 1.38.38 2.16zm-2 0c0-.58-.08-1.1-.23-1.56-.15-.46-.37-.85-.66-1.17-.29-.32-.63-.57-1.04-.74-.41-.17-.87-.25-1.39-.25-.52 0-.98.09-1.39.26-.42.17-.76.42-1.05.74-.29.33-.51.72-.67 1.18-.16.46-.24.98-.24 1.57 0 .58.07 1.1.23 1.57.15.46.37.85.66 1.17.29.32.63.57 1.05.74.41.17.87.26 1.38.26.51 0 .97-.09 1.38-.26.41-.17.75-.41 1.04-.73.28-.32.5-.71.66-1.17.15-.46.23-.98.23-1.56zm5.56 1.16v4.14h-1.96v-10.59h3.2c.71 0 1.33.08 1.84.23.51.15.93.36 1.25.63.32.26.56.59.72.96.15.37.22.78.22 1.23 0 .36-.05.69-.16 1.01-.11.32-.26.6-.45.86-.2.26-.44.49-.73.68-.29.2-.62.35-.99.47.25.14.46.35.64.61l2.63 3.91h-1.76c-.17 0-.31-.03-.43-.1s-.22-.16-.3-.29l-2.21-3.38c-.08-.12-.17-.21-.27-.27-.1-.05-.25-.08-.44-.08h-.84zm0-1.41h1.22c.37 0 .69-.04.96-.13s.5-.22.67-.38c.17-.16.31-.36.39-.58.08-.22.13-.47.13-.74 0-.53-.18-.94-.53-1.23-.35-.29-.89-.43-1.61-.43h-1.25v3.51zm13.11-3.11c-.06.11-.12.19-.19.23-.07.05-.16.07-.25.07-.1 0-.21-.04-.33-.11-.12-.07-.27-.16-.43-.25-.17-.09-.36-.17-.58-.25-.22-.07-.48-.11-.78-.11-.27 0-.51.03-.71.1-.2.07-.37.16-.51.28-.14.12-.24.26-.31.42-.07.17-.11.35-.11.54 0 .25.07.46.2.63.14.17.32.31.55.43.23.12.48.22.77.32.29.1.58.19.89.3.3.11.6.23.89.37.29.14.55.32.77.53.22.22.41.48.55.78.13.31.2.68.2 1.12 0 .48-.08.93-.25 1.35-.17.42-.4.78-.71 1.09-.32.31-.7.56-1.15.73-.45.18-.96.27-1.55.27-.34 0-.67-.03-.99-.1-.33-.06-.64-.16-.94-.28-.3-.12-.576-.27-.83-.44-.26-.17-.49-.36-.7-.57l.56-.94c.05-.06.12-.12.19-.17.08-.04.16-.07.25-.07.12 0 .255.05.395.15.14.1.306.21.497.34.19.125.413.236.672.336.26.1.57.15.93.15.56 0 .99-.137 1.296-.4.3-.27.457-.65.457-1.15 0-.28-.07-.505-.21-.68-.14-.176-.32-.324-.55-.443-.22-.12-.48-.22-.77-.303-.29-.086-.585-.176-.885-.27-.3-.1-.59-.218-.88-.355-.29-.14-.55-.31-.77-.53-.23-.22-.41-.494-.55-.824-.14-.33-.2-.734-.2-1.22 0-.38.07-.76.23-1.124.15-.37.37-.69.66-.973.29-.285.65-.51 1.08-.68.423-.17.91-.26 1.46-.26.62 0 1.19.1 1.71.294.52.2.97.47 1.34.82l-.48.93z"/><path id="SCHOOL-Copy-6" fill="#698CA0" d="M117.205 153.687c-.05.094-.122.14-.216.14-.08 0-.17-.05-.28-.153-.12-.102-.27-.216-.46-.34-.2-.125-.44-.24-.73-.345-.29-.11-.65-.16-1.08-.16-.43 0-.8.06-1.13.18-.33.12-.6.29-.82.5-.22.21-.39.45-.5.73-.12.28-.17.57-.17.87 0 .4.08.73.25.99.17.26.39.48.67.66.27.18.59.33.94.46.35.12.71.25 1.08.37.37.12.73.25 1.08.4.35.14.66.33.94.55.27.22.5.49.67.82.17.32.25.73.25 1.21 0 .49-.09.95-.26 1.39-.17.43-.41.81-.73 1.13-.33.32-.72.57-1.18.76-.47.18-1 .28-1.6.28-.78 0-1.44-.14-2-.41-.56-.28-1.05-.65-1.47-1.13l.23-.37c.06-.09.14-.13.23-.13.05 0 .11.03.19.1.08.06.17.14.28.24.11.09.24.2.39.31.15.11.33.22.54.31.2.09.44.18.7.24.26.07.56.1.9.1.46 0 .88-.07 1.24-.21.36-.14.67-.34.92-.58.25-.25.44-.53.57-.87.136-.33.2-.69.2-1.08 0-.42-.08-.76-.25-1.03-.17-.27-.39-.49-.67-.67-.27-.18-.59-.33-.94-.46-.35-.12-.71-.24-1.08-.36-.37-.12-.73-.25-1.08-.39-.36-.15-.67-.33-.95-.56-.28-.22-.5-.5-.67-.84-.17-.33-.25-.75-.25-1.26 0-.4.07-.78.22-1.14.15-.37.37-.69.66-.97.29-.28.645-.51 1.07-.67.422-.17.905-.26 1.45-.26.61 0 1.154.1 1.64.29.483.2.925.49 1.324.89l-.2.38zm13.097 8.347c.055 0 .102.02.14.06l.334.356c-.244.26-.51.494-.798.702-.288.207-.602.384-.943.53-.34.148-.714.26-1.122.342-.407.08-.854.12-1.34.12-.815 0-1.562-.142-2.24-.428-.68-.285-1.26-.69-1.745-1.212-.485-.524-.863-1.156-1.134-1.898-.27-.742-.407-1.567-.407-2.476 0-.89.14-1.705.42-2.442.28-.736.672-1.37 1.18-1.898.506-.528 1.112-.938 1.82-1.23.705-.29 1.484-.435 2.337-.435.427 0 .817.032 1.172.096.354.07.685.16.993.28.3.12.59.27.86.45s.53.38.79.62l-.26.38c-.05.07-.12.1-.21.1-.05 0-.12-.03-.2-.08l-.3-.21c-.12-.08-.27-.18-.43-.28-.17-.1-.37-.2-.6-.28-.24-.08-.51-.16-.81-.21-.31-.06-.65-.08-1.04-.08-.72 0-1.37.13-1.97.37-.6.25-1.12.6-1.55 1.06-.44.45-.77 1.01-1.01 1.66-.24.65-.36 1.38-.36 2.19 0 .83.11 1.57.35 2.22.23.65.56 1.21.98 1.66.42.45.92.8 1.49 1.04s1.2.36 1.87.36c.42 0 .79-.02 1.12-.08.33-.05.63-.14.91-.25.27-.11.53-.24.77-.4.23-.16.47-.35.7-.56.03-.02.05-.04.08-.05.02-.01.05-.02.08-.02zm13.78 1.977h-.857v-5.63h-7.36v5.63h-.857v-11.75h.856v5.49h7.36v-5.48h.857v11.76zm15.53-5.88c0 .91-.135 1.74-.407 2.48-.27.74-.653 1.37-1.146 1.9-.5.53-1.09.93-1.77 1.22-.69.29-1.45.43-2.29.43-.83 0-1.58-.14-2.27-.42s-1.28-.69-1.77-1.21c-.5-.52-.88-1.15-1.15-1.89-.28-.74-.41-1.56-.41-2.47 0-.9.13-1.72.41-2.46.27-.74.66-1.37 1.15-1.89.49-.52 1.08-.93 1.77-1.21.68-.28 1.44-.43 2.27-.43.83 0 1.6.14 2.28.43.68.29 1.27.69 1.77 1.22.49.53.87 1.16 1.14 1.9.27.74.41 1.56.41 2.46zm-.88 0c0-.82-.114-1.55-.34-2.21-.228-.65-.548-1.2-.96-1.66-.413-.45-.91-.8-1.492-1.04-.58-.24-1.226-.36-1.935-.36-.698 0-1.337.12-1.915.36-.58.24-1.078.59-1.496 1.05-.418.46-.742 1.01-.972 1.66-.23.66-.345 1.39-.345 2.21 0 .83.115 1.57.345 2.22.23.65.554 1.21.972 1.66.418.46.917.8 1.496 1.04.578.24 1.217.36 1.915.36.71 0 1.354-.12 1.935-.36.582-.24 1.08-.58 1.492-1.04.412-.45.732-1 .96-1.65.226-.65.34-1.39.34-2.21zm15.69 0c0 .91-.136 1.74-.408 2.48-.27.74-.653 1.37-1.146 1.9-.493.53-1.083.93-1.77 1.22-.687.29-1.448.43-2.285.43-.825 0-1.58-.14-2.268-.42-.686-.28-1.276-.69-1.77-1.21-.492-.52-.876-1.15-1.15-1.89-.274-.74-.41-1.56-.41-2.47 0-.9.136-1.72.41-2.46.274-.74.658-1.37 1.15-1.89.494-.52 1.084-.93 1.77-1.21.687-.28 1.443-.43 2.268-.43.837 0 1.598.14 2.285.43s1.277.69 1.77 1.22c.493.53.875 1.16 1.146 1.9.272.74.407 1.56.407 2.46zm-.88 0c0-.82-.115-1.55-.342-2.21-.227-.65-.547-1.2-.96-1.66-.412-.45-.91-.8-1.49-1.04-.582-.24-1.228-.36-1.937-.36-.697 0-1.336.12-1.914.36-.58.24-1.08.59-1.5 1.05-.42.46-.74 1.01-.97 1.66-.23.66-.35 1.39-.35 2.21 0 .83.11 1.57.34 2.22.23.65.55 1.21.97 1.66.42.46.91.8 1.49 1.04.57.24 1.21.36 1.91.36.71 0 1.35-.12 1.93-.36.58-.24 1.07-.58 1.49-1.04.41-.45.73-1 .96-1.65.22-.65.34-1.39.34-2.21zm6.05 5.16h5.576v.72h-6.422v-11.75h.847v11.03z"/></g></g></g></g></svg>