<svg xmlns="http://www.w3.org/2000/svg" viewBox="0 0 200 196" xmlns:xlink="http://www.w3.org/1999/xlink"><defs><path id="path-1" d="M53.98 6.1h3.23l1.6 1.5 2.7.25-.9.42 1.4.66 3.1-.47 3.6.86L65 4.94l-.7.8-5.04-2.52-.6-2.9-1.16 1.36-2 1.1L54 6.1z"/><path id="path-2" d="M78.83 19.55l1.03 1.16 2.83 1.4 1.8 2.2.7-.7 1.2 2.7 1 1.1-2.2-6.3-.8.5-1.8-3-1 .3-.8-1-.2-.5-.8.5-1.3 2z"/></defs><g id="Page-2" fill="none" fill-rule="evenodd"><g id="CS---case-study---mobile"><g id="Group-Copy"><path id="Rectangle-3-Copy-8" fill="#FFF" d="M195.6 0H4.33L0 159.14l99.97 36.44 99.96-36.44L195.6 0z"/><g id="Group-+-Group"><g id="Group"><path id="Path-254-Copy-2" fill="#6587B1" d="M32.9 160l2.58-12.9 3-2.8 8.55-26.7 2.04-.23 1.8-7.32.4-6.2 1.83-1.33.9-6.98 9.64-22.23 2.85.8 12.4-26.5.3-4.7L85.8 13l.9.5 1.3-3.23 2.05-1.15 1.2-1.4.55 2.9 5.06 2.54.7-.8 3.7 4.38 3.7.48 6.64 9.8 1.3-2 .78-.6.2.56.7 1.1 1-.4 1.74 3.12.76-.5L125 47.7l-.18 2 2.92 13.03 4.3 2.6 4 12.1 3.65 11.65 4.4 5.9 2.9 6.5-.5 3.68 1.8 4.6 4.1 1 7.2 26.43 4.6 3.6-.5 17.6-27.9 12.6-36.3 7.3-45.8-9.1-21-9.3z"/><path id="Path-1859-Copy-2" fill="#000" fill-opacity=".03" d="M102.73 177.75l-.9-3.47.02-2.27-.4.5-.5-3.7-1.87-5.2.03 2.4-.6 1.7-.4 3.3-1.7 3.7-3.9 2.3 7.4 1.5 3-.6z"/><path id="Path-1896" fill="#000" fill-opacity=".05" d="M94.65 53.4l-1.03-7.47-1.64-3.23-.06-4.07-1.78-5.9-1.55-3.18 11.4-2.8-2.6 6.78-.5 2.15-1.9 2.9.8-.48-.9 2.72v3.7l.5 2.14-.9 6.75z"/><path id="Path-254-Copy-3" fill="#BECDDF" d="M125 50.2s-1.45-4.93-3.3-5.22c-1.82-.3-2.04.7-3.13.7-2.78 0 0-8.13-2.97-8.13-2.96 0-.96 1.97-3.45 1.76-2.5-.2-4.73-9.3-6.3-8.2-1.55 1.1 0 2.1-2.1 2.1-2.13 0-1.57-4.3-3.86-4.3-2.3 0-3.2 4.6-4.3 5.3-1.1.7 0 2.3-2 1.7-2-.6-2.1-4.4-3.9-4.9-1.9-.4-2.6.4-5.2-.1s-1.9-3.3-1.9-3.3l3.2-14.4.9.5 1.3-3.3 2.1-1.1 1.2-1.4.5 2.9 5 2.6.7-.8 3.6 4.4 3.7.5 6.6 9.8 1.3-2 .8-.5.1.5.7 1.1.9-.4 1.8 3 .8-.5 6.84 19.5v2.46z"/><path id="Path-1863-Copy" fill="#000" fill-opacity=".03" d="M123.6 85.4l6.26 3.96 4.7.3-.92.62 5.2 5.12 3.62 2.17 4.07 7.64.53-3.7-2.86-6.5-4.5-5.8-3.8-11.8s-6.1 0-8.1 1.7c-.3.3-.2 1-.2 1l-4.1 5.6z"/><path id="Path-256-Copy" fill="#BECDDF" d="M66.47 74.1l2.6 2.4 11.35-.97 12.06-5.88 3.74-.7 2.2-1.13 16.96.92 6.5-3.16 4.77-.38 1.08-2.47 4.3 2.55 3.93 11.9s-3.04.16-6.75 5.03c-.8 1.1 1.1 7.5-1.4 8.1-2.5.7-1.6-3.9-5-2.7-1.6.6-4.5-3.4-6.6-3.4-2 .1.5 1.3-1.1 3.4-1.6 2.1-1.5 4.9-3.9 4.9s-1-2.1-3.6-3.5-1-3.9-6-2.1S94.2 98 91.7 98c-2.56 0-2.67-5.4-6.27-4.33-3.6 1.05-2.05 2.4-3.8 4.15-1.7 1.74 0 3.15-2.26 3.96-2.3.8-1-3.46-3.45-5.83-2.43-2.35-1.6-3.93-4.4-4.14-2.8-.2-2.34 4.1-4.95 4.1-2.6 0-4.34 2.4-5.86 3.6-1.5 1.1-2.9 2.8-5.1 1.5-2.1-1.3-1.5-5.5-1.5-5.5l9.5-22 2.9.8z"/><path id="Path-257-Copy" fill="#FFF" fill-opacity=".6" d="M47.02 117.6l17.52-2.1 1.44.4 2.82 1.62 5.02.66 14.3 4.15 25.82.6 4.48.37 2.78-2.14 18.86-4.1 8.25-7.37 4.2 1 7.3 26.3s-5.5-2.3-8.2-2.8c-2.7-.5-2.5 2.5-6.6 1.9-4.1-.7-3.4-4.8-6.9-4.1-3.4.7 0 8-2.5 8.8-2.4.8-3.9 6.3-7.8 6.3-10.7 0-7.3 7.3-10 7.3-2.8 0-4.2-8.4-5-9.3-.8-1-2.6 1.1-5.7-.3-3.1-1.5-1.3-3.9-3.8-4.1-2.5-.2-4.4 5-6.4 6.3-2 1.2-1.3-1.5-4.8-.5s-1.4 5.5-7.8 2.4c-2.6-1.3-2.2-6.8-3.8-7.5-2.1-1-7.2.7-8.9 0-1.5-.7-4.6 2.9-6.1 2.4-3.1-1-.8-10-5.6-8.7-4.8 1.3-6 9.5-9.1 9.6-3.1.1-1.4-4.6-2.2-6.7-.3-1-1.7.4-2.4-1.1-.8-1.9.6-5.9 0-6.1-1.1-.4-3.4 1.3-3.4 1.3l4.6-14.8z"/><path id="Path-1856-Copy-2" fill="#000" fill-opacity=".03" d="M113.58 102.08l.4 7.84-.03 13 4.55.37 2.68-2.2-2-10.7-4-6.5-.98-5.2-.62 3.2z"/><path id="Path-1856-Copy-3" fill="#000" fill-opacity=".03" d="M127.7 62.7l-1 2.54-4.85.32 1.3-6 1.72-3.53v-6.16l2.84 12.82z"/><path id="Path-1857-Copy" fill="#000" fill-opacity=".03" d="M79.5 54.2l-.9 5.05.68-.78 2.76 9.97-1.6 7.08-11.34 1-2.6-2.43 12.46-26.5.54 6.6z"/><path id="Path-1859-Copy-3" fill="#000" fill-opacity=".03" d="M92.46 69.65l.26-4.08-.02-2.26.4.5.5-3.7 1-3.4-.02 2.4.63 1.7.5 3.4 2.8 3.9-2.2 1.2-3.7.7z"/><path id="Path-1860-Copy" fill="#000" fill-opacity=".05" d="M63.64 73.3l4.96 5.4 11.94-1.02 12.27-6 3.6-.72 2.4-1.17 16.6.9 6.6-3.4 5.2-.4 1.9-3.5-1.4-.8-1 2.5-4.7.3-6.5 3.1-16.9-.9-2.1 1.1-3.7.7-12 5.9-11.3.9-2.6-2.4L64 73z"/><path id="Path-1862-Copy" fill="#000" fill-opacity=".03" d="M50.86 110.02l.4-6.15 1.87-1.38 1.94 5 3.72 5.2 5.6 2.6-15.4 1.9 1.8-7.4z"/><path id="Path-1862-Copy-2" fill="#000" fill-opacity=".05" d="M47.06 117.66l-1.03 3 18.26-2.84 23.4 6.8 26 .74 5 .64 3.5-2.3 19.4-4.8 9.8-8.44-3.3-.75-8.4 7.4-18.8 4.1-2.8 2.3-4.5-.4-25.8-.6-14.4-4.1-5-.6-2.9-1.6-1.4-.4-17.4 2.1z"/><path id="Path-1864-Copy" fill="#000" fill-opacity=".03" d="M65.8 115.77l3.33-1.1 1.62-2.58-.3-4.5.8.4 2.14-3.5-.7 6.1.5 1 .2-.3v3.7l.4 3-5.3-.7-3-1.8z"/><path id="Path-1865-Copy" fill="#000" fill-opacity=".03" d="M46.56 165.74l2.64-6.67.28.87 2.32-9.32 3.13-4.5-1.08 4.8-.37 3.7 1.45 2.97.8 12-1.66-.5-7.5-3.4z"/><path id="Path-1866-Copy" fill="#000" fill-opacity=".05" d="M159.72 137.07l-.18 5.72-2.32 4.6-1.78 2.5-4.95 4.9-3.1 10.9 16.4-7.5.6-17.6-4.9-3.8z"/><g id="Path-1868-Copy" transform="translate(32.829 7.343)"><use fill="#FFF" fill-opacity=".4" xlink:href="#path-1"/><use xlink:href="#path-1"/></g><path id="Path-1869-Copy" fill="#000" fill-opacity=".05" d="M85.73 13.6l.77.37 3.47-.04 1.07 1.34 3.28 1.55 3.45-.48 7.67 1.37-.46-.5-3.7-.5-3.53-.8-3.1.5-1.33-.6.87-.4-2.7-.2-1.5-1.6-3.2.1-.9-.5-.2.7z"/><g id="Path-1870-Copy" transform="translate(32.829 7.343)"><use fill="#FFF" fill-opacity=".4" xlink:href="#path-2"/><use xlink:href="#path-2"/></g><path id="Path-259-Copy" stroke="#333" d="M111.7 26.88l7.1 3.3 25.7 51.5 3.37 65.57-1.47 16.6"/></g><g id="Group"><path id="Path-260-Copy-4" fill="#4E575B" d="M148.4 77.05v2.85l-1.37 4.74-1.26 2.4 2.3 1.7 3.55-.3.9-3.7.38-2.5.03-3.35-.36-2.1-1.66-.8-1.7.2-.7.7z"/><path id="Path-258-Copy-2" fill="#5B676B" d="M142.1 86.22l-.47 1.7-.68 3.03-1.24-.73-1.3-1.67.6-.13 1.2.6.4-3.6.9-.75 1.4-.48-2-.8-.6.3-.8 1.6-.7.9-.4-.1-.6-2 .1-.6.8.8.8-1.6.8-1.2h1.6l2.5.2 1-1-2-1.7-1.1-1.5.3-.8h.8l.5 1.4.67.3 1.2.2.9-1.3.3-.2-1-1 .08-.9.5-1.2 1.2-.4 1.3.5.2.6-.4.5-.4.64v.3l.2.2.46.6V79l-.7 3.5-1.6 2.9-1.5.6-2.8-.27z"/><path id="Path-262-Copy-2" fill="#9D8E84" d="M148.05 76.25l-1.6-.55-.7-.57-.3.67v.58l.66.7.9-.3 1.1-.18v-.35z"/><path id="Path-1899" fill="#000" fill-opacity=".1" d="M142.66 84.18l.5-.4.5-.98.28-.66-2.46-.3-1.52-.07-.86 1.22-.77 1.5.18 1.7.8-.9.8-1.6.7-.3 2 .7z"/><path id="Path-1900" fill="#333" d="M145.63 80.94l.2 1.08 1.67 1.93.3-.6-1.5-1.56-.1-1-.57.1z"/><path id="Path-1901" fill="#333" d="M145.38 78.94l.6-1.02 1.28-.5 1.14-.3.34.37-1.34.3-1 .4-.24.6h-.78z"/><path id="Path-1902" fill="#333" d="M137.57 83.7l-.1.44.6 2.06.46.08-.2-1.8-.76-.8z"/><path id="Path-1903" fill="#333" d="M138.9 88.43l-.52.1 1.36 1.7 1.2.7-.9-1.9-1.13-.6z"/></g></g></g></g></g></svg>