<svg xmlns="http://www.w3.org/2000/svg" viewBox="0 0 255 399"><g id="Page-2" fill="none" fill-rule="evenodd"><g id="CS---case-study---desktop"><g id="Group"><path id="Path-2413-Copy" fill="#2AA7F0" d="M72.36 242.18l-11.6 1.34-12.6-1.42-10-.2-13.5-1.12-11.23-5.53-8.5-6.26-4.5-9.7v-10.2L3 201l6.46-8.7 6.9-3.52 12.12-2.9 12.8-8.17 12.25-5.2 9.44 12.8 5.03 9 .34 6.4 9.56-2.7 4.98-6.1 11.2-4.2 22.98-3.4 10.07 3.3 8.38-2.5 14.6 1.7 24.5 7 10 6.7 4.8-12.6 2.3-6.2 19.2-5.6 14.7 10.1 4.8 1.2 11.5 4.8 7.8 5.8 3.5 8.5 1.3 9.6L252 227l-9.1 8.5-10.7 3.5-16.3 2.8-7.9-1.4-9.4 1.3-16.8.84-67-7.3-42.1 7.33z"/><path id="Path-2411-Copy" fill="#C83E2C" d="M98.73 238.72l2.57 4.16 10.23-5.6 7.95-2.65 10.8-.95 9.58.86 5.27 1.4 10.4 4.25 2.6.7v-3.2l-1.94-5.6-11.7-3.8-8.5-.5h-6.7l-8.2.3-4.7.3-8.2 1.8-9.7 5v3.3z"/><path id="Path-2398-Copy" fill="#C83E2C" d="M148.74 336.4l2.4 7.27 3.56 12.62.9 13.4-2.33 12.4L147 392l-6.8 4-7.8 2.23-10.6-2.28-6.3-5.3-5.6-8.3-2.4-12.35.34-11.14 2.7-11.87 4.2-9.7.2-2-5.24.3-9.6-1.5-10.4-3.3-13.4-5.4-14.6-11.3-2.74-11.7-2.08-12.2 2.08-12.6 4.64-10.9 3.4-16.5 6.16-11.7 54.36-6.2 54.36 7.7 9.26 14.8 3.48 17.1 5.63 11.9.62 7.5-.63 10.5-5.32 13.5-8.2 7.8-10.35 5.6-15.63 4.7-8.18 1.5-3.86.9z"/><path id="Path-2399-Copy" fill="#2AA7F0" d="M171.9 203.8l-1.74 4.58-3.48 5.52 1.92 10.23v8.25l-.53 6 4.2 13.64 1.63 7.16 5.08 10.5 3.05 5.54 8.75 6.97 6 10.1 1.48 15 3.6-9.2.28-11.9-7.28-14-1.5-12.4-4.57-10.7-5.3-7.1-3.5-6.4-1.5-10.4.5-3.9-3.8-10.4-3.5-7.5z"/><path id="Path-2400-Copy" fill="#2AA7F0" d="M60.65 309.75l-.74-6.5.9-7.55 2.7-6.7 7.5-9.43 5.6-7 4.4-9.5 2.7-8.9.3-6.03 1.7-8.74 1.7-6.23.4-7.23.2-7.2 1-7.74-3.9-4.1-2.4-5.3L77 214l-2.2 11.84-1.6 12.46-5.96 8.94-4.56 8.44-.5 12.35-5.65 12.55-1.03 10.96L59 305l1.65 4.75z"/><path id="Path-2401-Copy" fill="#2AA7F0" d="M156.68 241.5l-7.48-2.5-7.7-3.54-.45 3 6.32 13.78 6.2 9.12 7.55 4.76-3.42-12.52-1.02-12.13z"/><path id="Path-2403-Copy" fill="#000" fill-opacity=".1" d="M93.68 282l-1.2-4.1 1.3-4.48 3.05-12.37 1.73-10.84-.43-13.2 2.25-8.2 3.77-7.9 1.93-9.2 2.32-16.1v-9.8l2.83-.3-.62 10.7-.8 15.5L107 222l-4 7.9-2 8.8-.1 11.4-1.8 11.3-3.1 13-2.3 7.7z"/><path id="Path-2404-Copy" fill="#2AA7F0" d="M103.87 264.24l5.82-3.5 4.4-7.65 3.4-7.5 1.5-6.2.7-5.5-10.2 4-8.8 5.8-.4 7.9-1.5 8.9-1.8 7.8 6.5-4.4z"/><path id="Path-2406-Copy" fill="#333" d="M111.48 378.9l1.95-1.98 3.95-2.43 5.83-4.5 3.2-4.9 3.5-6.5v-2.3l-3.3-3.2-3.7-2.9-5.6-2.1-4.2 2.6-3.5 5.5-1.3 8.9.7 6.5 1.1 6.1 1.7.8z"/><path id="Path-2407-Copy" fill="#333" d="M135.42 357.6l2.46-3.35 2.7-2.8 4.52-2.53 2.2-.98 4.5 2.86 2.45 3.3 1.03 3.1.5 4.2-.15 8.5-.85 5-1.04 3.42-3.36-2.75-4.9-4.12-4.26-3.9-2.95-4.44-2.37-3.8-.48-1.6z"/><path id="Path-2408-Copy" fill="#FFF" d="M147.02 350l-3.64 1.95-3.82 3.28-2.1 2.67 3.23 5.55 4.7 4.48 4.3 3.35 3.9 1.43 1.2-5.5v-6l-1.5-4.8-2.1-4-2.2-1.5-2.1-.8z"/><path id="Path-2405-Copy" fill="#FFF" d="M111.35 372.86l-1.85-4.14-.07-6.9 1.64-5.76 2.9-3.5 3-2.4 4.93 2.13 4.36 3.1 2.26 2.9-2.78 5.4-3.52 3.2-6.72 4.3-4.15 1.5z"/><path id="Path-2414-Copy" fill="#C83E2C" d="M41.12 177.8L53 180.7l8 9.7 6.06 9.12.72 8.9 10.1-3.84 4.94-4.02 25.88-41.82 6.66.9 9.14-.9 4.55-7.6-2.43-17.75.6-20-.62-9.4-1.52-6.1-2.75-1.7-5.3.2-3.08 2.7-2.07 9.3-1.84 4.7-2.33 12.3-4 9.7-4.6 5.6-6.7 6.7-5.4 4.9-9.5 6.1-10.4 5.4-15.3 7.1-10.6 6.3z"/><path id="Path-2415-Copy" fill="#C83E2C" d="M126.75 104.64l.6-6.74 3.87-2.16 3.1-.47 4.04 2.26 5.2 12.17v5l4.25 9.13 2.9 8 6.1 8.4 4.3 6.18 12.4 10.4 11.2 5.2 15.6 6.9 10.6 7.1-7.1 4.3-9.4 10.8-5.2 11.6-1.1 7.2-13.9-6.4-7.5-8.5-20.6-31.3-8.6-4.3-6-1-3.8-5.3-.4-17.5.16-22.4-.36-8.3z"/><path id="Path-2416-Copy" fill="#000" fill-opacity=".05" d="M185.9 241.5l-2.93-.12-2.1-4.82-1.55-7.4-.07-6.7-3.23-9.07-3.7-7.8-1.63-6.5-3.5-6.6-5.6-12.1-7.5-16.5-4.6-9.5-4.1-7 .5-4.2-4.6-11.1-6.3-11 2.2.9 4.8 8.7 5.5 12.3.3 4 4.1 7.2 4.9 10.1 6.5 14.9 7 13.6 3.4 6 1.3 5.3 3.6 7.83 2.9 9.24.5 6.27 2.4 8.15.9 5.35z"/><path id="Path-2417-Copy" fill="#000" fill-opacity=".05" d="M70.6 242.43l-3.43.73 3.04-8.74 4.2-15.9 2.3-14.8L85 188.2l6-13.17L95.84 163l6.9-13.15 4.37-7.88 2.3-11.34 3.7-14.44 4.5-1.7-3.3 2.5-2.3 11.5-2 8.2-1.4 7.3-3.6 6.8-7.8 16.6-4.5 11.1-2.6 7.6-8.6 14-3.2 13.6-1.8 11.9-3.1 13-2.6 3.2z"/><path id="Path-2418-Copy" fill="#C83E2C" d="M171.8 247.65l-3.3-9.74.1-13-1.88-11 5.17-9.6-2.9-9.4-5.4-10.6-14.5-29.2-3.9-9.1.5-3.9-6.5-13.1-5.7-9.9-9.9 6.4 1.4 12.9 2.6 3.2 1.3 5.3 4 10.3 7.1 12.6 3.5 13.4 1.6 13.8 3.4 21.8 7.7 18.1v10.6l1.7 8.7 13.9-4.5-.5-3.6z"/><path id="Path-2402-Copy" fill="#000" fill-opacity=".1" d="M144.27 186.05l1 8.78 2 13.22 1.7 10.4 4.24 9.82 4.2 10.12-.6 8.7 2.9 14.6 5.4 17.5-2.3-1.9-3.2-10-2.4-9.8-1.8-9.2.4-10.1-3.8-9-3.3-7.9-3.2-13.8-1.7-12.8-1.1-9.3 2 .2z"/><path id="Path-2419-Copy" fill="#C83E2C" d="M83.77 254.1l7.9 2.15 5.57-.15L99 234.38l3.02-7.5 5.08-12.33 1.87-18.9.18-15 4.66-15.32 6.1-14 3.3-6.92 3.2-6.7.8-13.9 3.9-3.1 6.1.9 1.3-1.9-3.7-5.1-9.1-2.3-9.8 4.2-4.8 13.8-2 12.8-6.7 12.9L90 184.7l-8.65 17.1 4.5 5.75 3.94 4.63-1.7 13.8-1.6 7.76-2 12.5-.6 7.9z"/><path id="Path-2426-Copy" fill="#000" fill-opacity=".05" d="M119.18 153.13l5.13-6.22 1.4-8.4.2-11.3 1.6-5.6 6.6-2 1.2 2.2-4.2 5.2-2.1 9.2-.9 10.3-.5 7.3-3 5.1-8 .9 3-6.4z"/><path id="Path-2427-Copy" fill="#000" fill-opacity=".05" d="M124.5 115.98l-4.07 1.42-2.32 4.03-.9 5.22 4.5-6.14 4.6-4 5.6-.3-7.3-.1z"/><path id="Path-2428-Copy" fill="#000" fill-opacity=".05" d="M128.36 141.83l-.78 4.55-.27 6.92 3.9 4.8 4.9 1.07-.7-5.18-4.5-9.6-2.4-2.7z"/><path id="Path-2429-Copy" fill="#000" fill-opacity=".05" d="M134.3 95.25l-3.12 2.83-.25 5.9.37 10.23-1.6 2-.33-2.4-2.23-1.3-.38-6.6.58-7.6 3.96-2.5 3-.4z"/><path id="Path-2430-Copy" fill="#000" fill-opacity=".05" d="M117.2 96.7l3.45 1.34 1.94 3.93.4 6.8-.3 2.95 1.9-.4 2.3 1.06-.2-4.3-.3-4-1.5-6.1-2.8-1.66-5.1.38z"/><path id="Path-2431-Copy" fill="#EBEBEB" d="M125.1 115.54l-.43-3.85V102l-.88-10.62 1.3-12.62.3-12.02-1-12.7V46.3l1.3-41.9.8-4.16.9 20.54-1.3 23.54.3 6.22.2 9.14.8 10.2-.7 7.38-.5 6.77 1.3 9.86-.6 11.2.5 10.8-2.8-.4z"/><path id="Path-2432-Copy" fill="#000" fill-opacity=".05" d="M113.97 340.36l7.83-8.62 9.35-4.9 7.3 1.03 4.94 3.43 5.6 6.25-3.7-6.74-5-5.4-9.3-3.4-6.6 3.5-5.8 5.5-3 4.5-1.9 5.1z"/><path id="Path-2433-Copy" fill="#000" fill-opacity=".05" d="M99.05 262.06l9.2-6.55 10.8-1.9h7.08l3.3 2.5-1.7 3.6-9.43-.8-11.82 3.1-8.97 5.9 1.6-5.7z"/><path id="Path-2434-Copy" fill="#000" fill-opacity=".05" d="M134.2 255.88l4.24-1.5 8.06 1.14 8.7 2.18 1.7.4 1.52 5.67-6.08-2.6-8.06-.88-7.37-.6-2.7-3.9z"/><path id="Path-2434-Copy-2" stroke="#FFF" stroke-opacity=".1" stroke-width=".5" d="M114.37 390.4l3.88-7.42 8.28-16.24 4.58-9.66 3.7.36 5.6 12.83 7.6 16.25 1 3.58"/><path id="Path-2435-Copy" stroke="#FFF" stroke-opacity=".1" stroke-width=".5" d="M123.78 396.15l4.85-19.32 3.4-19.57"/><path id="Path-2436-Copy" stroke="#FFF" stroke-opacity=".1" stroke-width=".5" d="M133.2 357.27l.33 11.6v25.68l-.68 3.47"/><path id="Path-2437-Copy" stroke="#FFF" stroke-opacity=".1" stroke-width=".5" d="M134.2 357.45l1.65 8.8 1.7 12.12 1.8 9.57.34 8.14"/><path id="Path-2438-Copy" stroke="#FFF" stroke-opacity=".1" stroke-width=".5" d="M110.65 379.25l4.67 9.88 8.48 5.64 8.25 2.53 7.66-2.15 9-6.28 5.7-10.4"/><path id="Path-2439-Copy" stroke="#FFF" stroke-opacity=".1" stroke-width=".5" d="M114.96 376.37l3.43 6.56 7.6 4.97 6.8 2.15 6.5-2.26 7.6-5.1 3.3-7.7"/><path id="Path-2440-Copy" stroke="#FFF" stroke-opacity=".1" stroke-width=".5" d="M121.76 371.6l1.62 2.78 4.78 3.58 4.86 2.26 4.26-2.87 5.46-3.16 1.65-3.2"/><path id="Path-2441-Copy" stroke="#FFF" stroke-opacity=".1" stroke-width=".5" d="M127.15 352.46l.56-.65 3.6-1.7 3.1-.4 3.8 1.9 1.2 1.2"/><path id="Path-2442-Copy" stroke="#FFF" stroke-opacity=".1" stroke-width=".5" d="M120.48 349.02l3.03-3.25 5.5-3.42 6.5-.87 6 3.7 3.5 3.07"/><path id="Path-2443-Copy" stroke="#FFF" stroke-opacity=".1" stroke-width=".5" d="M111.54 351.77l1.56-5.13 6.16-6.68 8.4-6.1 9.7-.4 7.24 6.35 6.63 8.4 1.7 3.4"/><path id="Path-2444-Copy" stroke="#FFF" stroke-opacity=".1" stroke-width=".5" d="M113.2 340.44l5.48-6.2 7.94-6.47 6.3-1.85 4.76 2.12 7.38 6.1 4.5 5.68"/><path id="Path-2445-Copy" stroke="#FFF" stroke-opacity=".1" stroke-width=".5" d="M131.45 357.32l-4.07-6.13-4.2-5.5-4.1-6.3v-5.7l1.55-6.3 1.73-4.5-.54-5.3.32-12.6"/><path id="Path-2446-Copy" stroke="#FFF" stroke-opacity=".1" stroke-width=".5" d="M132.14 357.14l-.96-6.93-1.75-8-1.98-8.1-1.26-6.3 1.6-5.9.1-10.9 1.4-12.3"/><path id="Path-2447-Copy" stroke="#FFF" stroke-opacity=".1" stroke-width=".5" d="M133.3 357.32l1.77-7.82 1.38-8 1.1-8.06.4-6.6-2.7-6.03v-14.9l.53-11.2"/><path id="Path-2448-Copy" stroke="#FFF" stroke-opacity=".1" stroke-width=".5" d="M134.3 357.5l7.02-11.47 3.34-6.25.23-7.4-2.6-6.25-.4-8.67-.2-7.26.4-6.4"/><path id="Path-2449-Copy" stroke="#FFF" stroke-opacity=".1" stroke-width=".5" d="M116 334.75l-28.58-7.55-14.5-6.17-8.36-11.2-.2-11.92 6.77-11.4L80 270.8l8.1-37.2 2.56-31.95 8.77-28.13 10.1-28.67-.66-3.84"/><path id="Path-2450-Copy" stroke="#FFF" stroke-opacity=".1" stroke-width=".5" d="M85.35 204.25l4.05-15.85 6.35-17.56 9.3-20.3"/><path id="Path-2451-Copy" stroke="#FFF" stroke-opacity=".1" stroke-width=".5" d="M116.47 332.48L86 324.56l-11.78-6.25-4.75-17.8 6.57-13 9.75-16.2 6.7-33.4 2.7-9.5 4.9-42.1 6.3-19.4 5.1-13.2.9-12.6-2.4-3.6"/><path id="Path-2452-Copy" stroke="#FFF" stroke-opacity=".1" stroke-width=".5" d="M117.72 330.78l-12.44-7.26-11.8-3.18-10.87-5.15-5.5-11.3 2.9-11.5 7.9-12.8 5.1-25.1 3.2-17.5 2.8-6.2 3.4-18.3.8-19.8 9.6-32.4 4.5-15.9-2.6-7.5-2.5-7.2"/><path id="Path-2453-Copy" stroke="#FFF" stroke-opacity=".1" stroke-width=".5" d="M120.28 326.5l-9.35-8.1-9.4-2.8-14.6-6.8-3.1-7.44 4.36-15.55 6.6-23.4 2.8-23.3 4.4-11.4"/><path id="Path-2454-Copy" stroke="#FFF" stroke-opacity=".1" stroke-width=".5" d="M121.64 318.84l-10.2-6.94-8.8-3.64-8.45-4.58-5.5-7.07 2.5-6.7"/><path id="Path-2455-Copy" stroke="#FFF" stroke-opacity=".1" stroke-width=".5" d="M121.75 314.27l-4.8-8.15-7.22-5.53-8.06-2.8-7-5.8-.9-8.4"/><path id="Path-2456-Copy" stroke="#FFF" stroke-opacity=".1" stroke-width=".5" d="M122.14 305.17l-1.44-4.8-5.76-5.23-5.03-2.65-7-4.9-4.2-6-3.2-5.9"/><path id="Path-2457-Copy" stroke="#FFF" stroke-opacity=".1" stroke-width=".5" d="M123 330.66l2.27-10.14.5-15.55-2.76-9.3-5.4-6.3-8.1-9-7-8.33-4-7.4"/><path id="Path-2458-Copy" stroke="#FFF" stroke-opacity=".1" stroke-width=".5" d="M129.33 298.44l-1.3-5.66-3.7-6.62-4.63-6.27-5.2-7.8-5.5-12.3"/><path id="Path-2459-Copy" stroke="#FFF" stroke-opacity=".1" stroke-width=".5" d="M129.37 326.52l.64-5.9v-11.78l1.5-12.7-.4-8.48-1.6-3.7-5.8-14.96-2.2-7.9"/><path id="Path-2460-Copy" stroke="#FFF" stroke-opacity=".1" stroke-width=".5" d="M133.87 294.25v-9.2l-.98-17.6"/><path id="Path-2461-Copy" stroke="#FFF" stroke-opacity=".1" stroke-width=".5" d="M135.76 294.94l2.23-9.98 6.7-10.5 5.6-13.36"/><path id="Path-2462-Copy" stroke="#FFF" stroke-opacity=".1" stroke-width=".5" d="M141.13 330.57l-2.07-8.64-.5-14.3 2.06-11.2 2.58-7.66 10.13-11.3 6.06-11.2"/><path id="Path-2463-Copy" stroke="#FFF" stroke-opacity=".1" stroke-width=".5" d="M142.26 303.9l3.24-8.3 6.92-4.9 7.38-3.2 6.85-5.47"/><path id="Path-2464-Copy" stroke="#FFF" stroke-opacity=".1" stroke-width=".5" d="M144.47 308l7.3-6.4 9.05-2.96 8.65-5.97"/><path id="Path-2465-Copy" stroke="#FFF" stroke-opacity=".1" stroke-width=".5" d="M147 313.2l7-2.82 12.33-4.57 7.88-8.7"/><path id="Path-2466-Copy" stroke="#FFF" stroke-opacity=".1" stroke-width=".5" d="M146.83 322.62l6.82-4.3 12.87-4.33 6.67-4.5 4.2-6.2-.1-7.8-6.8-8.1-4.6-12-5.1-22.3-1.2-11.8-6.8-16.6-4.8-20.4-1.5-18.4-4.3-11.9"/><path id="Path-2467-Copy" stroke="#FFF" stroke-opacity=".1" stroke-width=".5" d="M147.52 328.8l6.77-4.07 10.4-.94 10.2-6.6 5.9-6.1 2.1-9.4-.8-5.3-11.1-15.1-1.8-7.9-5.1-21.4-2.2-13.5-4.3-10.9-4.2-21.2-2-16.2-4.7-15.6L140 157l-.73-11.8 1.5-7.3-1-8.4"/><path id="Path-2468-Copy" stroke="#FFF" stroke-opacity=".1" stroke-width=".5" d="M139 165.54l-2.02-10.17-.13-12.3.35-11.7-3.7-8.5"/><path id="Path-2469-Copy" stroke="#FFF" stroke-opacity=".1" stroke-width=".5" d="M148.05 332.45l9.7-1.55 15.85-5.43 11.54-5.83 5.56-8.83.2-11.7-5.9-9.5-8.67-8.9-6.15-19.7-3.53-19.6-3.9-8.8-.5-12-2.48-16.2-4.07-15.4-5.72-16.7-2.88-7.8-3.3-7.3.03-12.5.34-5.6"/><path id="Path-2470-Copy" stroke="#FFF" stroke-opacity=".1" stroke-width=".5" d="M170.96 330.6l12.46-5.73 8.58-6.95 4.04-9.42-.9-12.93-5.72-8.58-7.97-10.2-6.42-15.9-4.35-16.9-2.68-17.9-.4-12.7-1.66-10.8-5.43-15.2-6.8-17.5-7-16.1-.2-7.4"/><path id="Path-2471-Copy" stroke="#FFF" stroke-opacity=".1" stroke-width=".5" d="M132.93 325.47l-1.1-4.63-.12-11.3 1.5-8.6.7-6.74"/><path id="Path-2472-Copy" stroke="#FFF" stroke-opacity=".1" stroke-width=".5" d="M113.93 259.8l4.4-6.14 3.62-8.78 3.4-16.98"/><path id="Path-2473-Copy" stroke="#FFF" stroke-opacity=".1" stroke-width=".5" d="M127.57 229.15l-.4 8.55-.08 8.23-5.7 14.24"/><path id="Path-2474-Copy" stroke="#FFF" stroke-opacity=".1" stroke-width=".5" d="M131.62 264.23l-.4-13.93-.56-10.7v-10.3"/><path id="Path-2475-Copy" stroke="#FFF" stroke-opacity=".1" stroke-width=".5" d="M133.08 228.85l1.25 5.2.27 7.57 1.77 7.6 4.74 8.94 1.8 3.18"/><path id="Path-2476-Copy" stroke="#FFF" stroke-opacity=".1" stroke-width=".5" d="M149.56 261.25l-4.5-6.8-5.98-12.64-1.22-8.1-2-5.3"/><path id="Path-2477-Copy" stroke="#FFF" stroke-opacity=".1" stroke-width=".5" d="M138.22 227.93l2.25 4.96.8 2.5"/><path id="Path-2478-Copy" stroke="#FFF" stroke-opacity=".1" stroke-width=".5" d="M142.36 228.5l1.23 3.26 1.2 3.9"/><path id="Path-2479-Copy" stroke="#FFF" stroke-opacity=".1" stroke-width=".5" d="M146.32 229.24l1.43 2.23 1.23 5.3"/><path id="Path-2480-Copy" stroke="#FFF" stroke-opacity=".1" stroke-width=".5" d="M151.6 230.4l1.1 4.24v3.48"/><path id="Path-2481-Copy" stroke="#FFF" stroke-opacity=".1" stroke-width=".5" d="M156.26 231.96l.27 4.14v4.22"/><path id="Path-2482-Copy" stroke="#FFF" stroke-opacity=".1" stroke-width=".5" d="M123.18 228.5l-2.1 4.52"/><path id="Path-2483-Copy" stroke="#FFF" stroke-opacity=".1" stroke-width=".5" d="M119.2 228.9l-1.36 2.9-1.07 3.32"/><path id="Path-2484-Copy" stroke="#FFF" stroke-opacity=".1" stroke-width=".5" d="M114.86 230.02l-1.44 3.1-.43 3.3"/><path id="Path-2485-Copy" stroke="#FFF" stroke-opacity=".1" stroke-width=".5" d="M109.93 230.96L108.7 235l-.14 3.95"/><path id="Path-2486-Copy" stroke="#FFF" stroke-opacity=".1" stroke-width=".5" d="M105.24 232.38l-.63 4.45v4.26"/><path id="Path-2487-Copy" stroke="#FFF" stroke-opacity=".1" stroke-width=".5" d="M108.13 335.2l-1.1-6.08 1.05-7.34 6.07-9.65 5.23-11.56 6.75-8.1 7.7-7.08 2.33 1.2 3.88 4.7 4.9 9.1 3.87 11.8 4.3 12.5.6 8.9-1.8 1.9"/><path id="Path-2488-Copy" stroke="#FFF" stroke-opacity=".1" stroke-width=".5" d="M98.96 333.05l-.76-4.85 2.78-7.5 6.5-10.58 5.6-9.16 2.65-6.4 8.42-9.4 8.18-6.62 8.48 3.66 5 7 3.5 7.04 2.5 6.7 3 9.8 4.4 9.05 3.5 7.9-.9 3.8"/><path id="Path-2489-Copy" stroke="#FFF" stroke-opacity=".1" stroke-width=".5" d="M88.4 329.78l1.13-4.18 3.58-6.78 6.4-10.25 7.6-11.47 6.4-10.23 6.4-7.38 12.9-7.3 9.4 3.9 6.1 5.8 3.5 5.3 4.2 8.2 4 10.2 3.7 7.4 6.1 7.5 3 7.7"/><path id="Path-2490-Copy" stroke="#FFF" stroke-opacity=".1" stroke-width=".5" d="M183.42 325l-6.83-7.52-4.8-6.1-4.7-6.6-4.1-7.96-4.4-9.65-5.2-9.4-10-7.75-9.7-3.28-10.3 1.4-7.6 4.58-8.1 7.93-6.6 12.35-4.4 7.12-6.3 9.3-9.8 10.32-4 4.18"/><path id="Path-2945" fill="#000" fill-opacity=".03" d="M137.86 309.98l5.82 7.6 3.74 7.48 1.9 10.42 12.54-2.2 14.08-4.46 10.4-5.06 8.23-8.17-22.02 2.2-11.53-.4-9.76-2-4.42-1.2-8.98-4.4z"/><path id="Path-2945-Copy" fill="#000" fill-opacity=".03" d="M126.84 309.98l-5.82 7.6-3.75 7.48-1.88 10.42h-5.8l-9.6-1.2-10.5-3.32-13.5-5.4-11.6-8.96 21.5 1 14.3.67 11.3-1.96 6-2 9-4.3z"/><path id="Path-2491-Copy" stroke="#FFF" stroke-opacity=".1" stroke-width=".5" d="M194.7 316.93l-12.44-5.56-7.13-6.37-5.7-7.33-5.48-11.93-4.3-9.65-3.2-4.1-6.36-5.2-6.5-4.2-12.4-2.1-10.7 1.9-11.2 5.2-7.6 8.8-2.4 6.5-5.5 9.5-3.6 5.4-4.8 7.5-4.2 3.1-6.6 5.3-7.2 2.1h-2.2"/><path id="Path-2492-Copy" stroke="#FFF" stroke-opacity=".1" stroke-width=".5" d="M198.64 304l-4.47.45-8.34-2.52-11.42-5.2-4.9-4.25"/><path id="Path-2493-Copy" stroke="#FFF" stroke-opacity=".1" stroke-width=".5" d="M167.12 287.18l11.2 3.66h7.9l8.47-1.73"/><path id="Path-2494-Copy" stroke="#FFF" stroke-opacity=".1" stroke-width=".5" d="M166.9 282.28l9.33.64 5.86-1.4 4.8-2.7"/><path id="Path-2495-Copy" stroke="#FFF" stroke-opacity=".1" stroke-width=".5" d="M164.3 273.6l6.46-.18 7.72-2.66"/><path id="Path-2496-Copy" stroke="#FFF" stroke-opacity=".1" stroke-width=".5" d="M161.4 264.03l6.62-1.06 6.74-2.4"/><path id="Path-2497-Copy" stroke="#FFF" stroke-opacity=".1" stroke-width=".5" d="M158.4 251.03l8.1-1.9 5.52-2.06"/><path id="Path-2498-Copy" stroke="#FFF" stroke-opacity=".1" stroke-width=".5" d="M159.3 239.32l5.86-1.82 4.17-2.3"/><path id="Path-2499-Copy" stroke="#FFF" stroke-opacity=".1" stroke-width=".5" d="M154.88 229.75l7.84-2.15 5.6-2.27"/><path id="Path-2500-Copy" stroke="#FFF" stroke-opacity=".1" stroke-width=".5" d="M150.42 220.5l9.1-2.7 8.52-4.03 4.5-9.18"/><path id="Path-2501-Copy" stroke="#FFF" stroke-opacity=".1" stroke-width=".5" d="M147.63 207.28l6.2-1.14 11.46-4.1 4.5-4.8"/><path id="Path-2502-Copy" stroke="#FFF" stroke-opacity=".1" stroke-width=".5" d="M147.2 199.4l14.63-5.98 5.06-2.32"/><path id="Path-2503-Copy" stroke="#FFF" stroke-opacity=".1" stroke-width=".5" d="M145.78 190.85l10.2-4.37 7.17-2.45"/><path id="Path-2504-Copy" stroke="#FFF" stroke-opacity=".1" stroke-width=".5" d="M144.7 182.5l7.57-4.12s9.7-3.5 7-2.02"/><path id="Path-2505-Copy" stroke="#FFF" stroke-opacity=".1" stroke-width=".5" d="M143.18 172.38l7-2.9 5.27-1.4"/><path id="Path-2506-Copy" stroke="#FFF" stroke-opacity=".1" stroke-width=".5" d="M139.6 164.76l5.73-2.58 7.55-2.03"/><path id="Path-2507-Copy" stroke="#FFF" stroke-opacity=".1" stroke-width=".5" d="M136.82 156.83l6.12-2.53 6.63-.33"/><path id="Path-2508-Copy" stroke="#FFF" stroke-opacity=".1" stroke-width=".5" d="M134.3 147.3l6.75-1.93 4.85.76"/><path id="Path-2509-Copy" stroke="#FFF" stroke-opacity=".1" stroke-width=".5" d="M131.54 138.72l5.2-4.43 7.42 1.6"/><path id="Path-2510-Copy" stroke="#FFF" stroke-opacity=".1" stroke-width=".5" d="M61.64 303.74l6.54-.13 11.6-3.6 10.36-6.5"/><path id="Path-2511-Copy" stroke="#FFF" stroke-opacity=".1" stroke-width=".5" d="M64.94 287.68l6.33 3.08 9.48-.5 11.04-4.22 2.4-2.28"/><path id="Path-2512-Copy" stroke="#FFF" stroke-opacity=".1" stroke-width=".5" d="M71.98 278.75l7 3.08 7.92.13 6.45-2.1"/><path id="Path-2513-Copy" stroke="#FFF" stroke-opacity=".1" stroke-width=".5" d="M79.57 269.44l6.16 1.77 8.68-.1"/><path id="Path-2514-Copy" stroke="#FFF" stroke-opacity=".1" stroke-width=".5" d="M84 258.6l3.97 1.52 8 1.52"/><path id="Path-2515-Copy" stroke="#FFF" stroke-opacity=".1" stroke-width=".5" d="M86.25 245.6l6.9 2.2 5.2 1.1"/><path id="Path-2516-Copy" stroke="#FFF" stroke-opacity=".1" stroke-width=".5" d="M88.66 234.2l3.6 1.85 6.52.76"/><path id="Path-2517-Copy" stroke="#FFF" stroke-opacity=".1" stroke-width=".5" d="M89.43 222.87l5.44 2.95 7.8 1.73"/><path id="Path-2518-Copy" stroke="#FFF" stroke-opacity=".1" stroke-width=".5" d="M89.57 212.28l6.37 2.4 10.4 2.65"/><path id="Path-2519-Copy" stroke="#FFF" stroke-opacity=".1" stroke-width=".5" d="M86.12 195.54l5.78 4.76 6.07 1.4 10.63 2.18"/><path id="Path-2520-Copy" stroke="#FFF" stroke-opacity=".1" stroke-width=".5" d="M88.63 187.9l10.24 4.55 10.08 3.54"/><path id="Path-2521-Copy" stroke="#FFF" stroke-opacity=".1" stroke-width=".5" d="M92.1 181.16l7.63 2.02 9.86 4.3"/><path id="Path-2522-Copy" stroke="#FFF" stroke-opacity=".1" stroke-width=".5" d="M95.3 173.9h4.73l10.4 5.7"/><path id="Path-2523-Copy" stroke="#FFF" stroke-opacity=".1" stroke-width=".5" d="M98.22 165.9l7.6.37 7.07 3.12"/><path id="Path-2524-Copy" stroke="#FFF" stroke-opacity=".1" stroke-width=".5" d="M102.3 157.8l6.5 1 6.67 3.22"/><path id="Path-2525-Copy" stroke="#FFF" stroke-opacity=".1" stroke-width=".5" d="M104.85 150.35h6.24l7.9 3.88"/><path id="Path-2526-Copy" stroke="#FFF" stroke-opacity=".1" stroke-width=".5" d="M109 142.6h6.65l5.22 2.82"/><path id="Path-2527-Copy" stroke="#FFF" stroke-opacity=".1" stroke-width=".5" d="M111.06 133l5.8-1.14 6.13 3.3 2.7 5.47"/><path id="Path-2528-Copy" stroke="#FFF" stroke-opacity=".1" stroke-width=".5" d="M111.27 255.47l12.6-3.26 9.72.2 14.7 3.7"/><path id="Path-2529-Copy" stroke="#FFF" stroke-opacity=".1" stroke-width=".5" d="M115.4 258.44l12.97-1.2 9.42.84 6.3 1.38"/><path id="Path-2530-Copy" stroke="#FFF" stroke-opacity=".1" stroke-width=".5" d="M114 250.1l14.18-2.26 8.53.6 7.8 2.26"/><path id="Path-2531-Copy" stroke="#FFF" stroke-opacity=".1" stroke-width=".5" d="M116.1 244.6l11.17-2.36 6.92.8 7.1 1.4"/><path id="Path-2532-Copy" stroke="#FFF" stroke-opacity=".1" stroke-width=".5" d="M118 238.76l8.63-2.37 6.52-.3 5.34 1.6"/><path id="Path-2533-Copy" stroke="#FFF" stroke-opacity=".1" stroke-width=".5" d="M119.23 233.66l8.85-1.45 9.75 1"/><path id="Path-2534-Copy" stroke="#FFF" stroke-opacity=".1" stroke-width=".5" d="M133.13 96.3l9.3 25.96 5.5 9.14 12.53 19.14 15.1 14.47 18.44 9.6 13.45 5.2"/><path id="Path-2535-Copy" stroke="#FFF" stroke-opacity=".1" stroke-width=".5" d="M199.46 186.33l-22.6-11.05-9.85-8.1-10.2-12-9-16.9-7.5-11.06"/><path id="Path-2536-Copy" stroke="#FFF" stroke-opacity=".1" stroke-width=".5" d="M150.06 154.38l9.37 12.68 11.05 12.37 6.07 8.9 9.37 7.2 4.96 1.83"/><path id="Path-2537-Copy" stroke="#FFF" stroke-opacity=".1" stroke-width=".5" d="M132.14 114.66l3.33-6.87 3.07-2 3.94 2.8"/><path id="Path-2538-Copy" stroke="#FFF" stroke-opacity=".1" stroke-width=".5" d="M138.9 118.27l4.77-.9 2.2.94"/><path id="Path-2539-Copy" stroke="#FFF" stroke-opacity=".1" stroke-width=".5" d="M142.9 133.64l2.22-5 3.67-1.74"/><path id="Path-2540-Copy" stroke="#FFF" stroke-opacity=".1" stroke-width=".5" d="M147.45 145.03l4.44-7.18 4.2-1.6"/><path id="Path-2541-Copy" stroke="#FFF" stroke-opacity=".1" stroke-width=".5" d="M151.5 155.24l4.44-5.06 5.25-2.97"/><path id="Path-2542-Copy" stroke="#FFF" stroke-opacity=".1" stroke-width=".5" d="M156.1 163.72l5.15-6.5 6.88-4.22"/><path id="Path-2543-Copy" stroke="#FFF" stroke-opacity=".1" stroke-width=".5" d="M159.54 172.18l4.68-6.8 7.93-5.57 2.43-.2"/><path id="Path-2544-Copy" stroke="#FFF" stroke-opacity=".1" stroke-width=".5" d="M163.03 179.12l3.08-6.12 4.4-5.12 6.2-3.9 2.7-.6"/><path id="Path-2545-Copy" stroke="#FFF" stroke-opacity=".1" stroke-width=".5" d="M166.53 187.12l3.6-8.02 4.77-5.28 6.48-4.94 4.16-1.62"/><path id="Path-2546-Copy" stroke="#FFF" stroke-opacity=".1" stroke-width=".5" d="M170.86 195.4l3.7-9.54 6.72-7.74 7.32-6.35 2.92-1"/><path id="Path-2547-Copy" stroke="#FFF" stroke-opacity=".1" stroke-width=".5" d="M178.18 204.23l2.27-9.3 7.62-12.07 10.55-7.54 2.47-.67"/><path id="Path-2548-Copy" stroke="#FFF" stroke-opacity=".1" stroke-width=".5" d="M49.72 178.14l11.64-3.66 13.08-6.17 11.63-9 7.93-8.2 11.06-18 10.33-13.2 5.1-15.3 1.9-6"/><path id="Path-2549-Copy" stroke="#FFF" stroke-opacity=".1" stroke-width=".5" d="M107.42 124.64l4.35-8.3 2.82-17.08"/><path id="Path-2550-Copy" stroke="#FFF" stroke-opacity=".1" stroke-width=".5" d="M56.48 185.5l10.9-4.84 11.6-7.33 13.7-11.86 14.23-21.44"/><path id="Path-2551-Copy" stroke="#FFF" stroke-opacity=".1" stroke-width=".5" d="M64.8 196.56l13.05-8.35 6.04-5.4 11-14.8"/><path id="Path-2552-Copy" stroke="#FFF" stroke-opacity=".1" stroke-width=".5" d="M68.7 206.1l7.83-4.17 6.68-5.22"/><path id="Path-2553-Copy" stroke="#FFF" stroke-opacity=".1" stroke-width=".5" d="M54.53 173.83l7.86 5.14 6.7 7.67 7.5 10.8 1.4 7.2"/><path id="Path-2554-Copy" stroke="#FFF" stroke-opacity=".1" stroke-width=".5" d="M63.73 170.26l6.95 4.15 7.32 6.2 5.65 10.5"/><path id="Path-2555-Copy" stroke="#FFF" stroke-opacity=".1" stroke-width=".5" d="M69.8 165.73l10.77 7.2 6.67 8.78"/><path id="Path-2556-Copy" stroke="#FFF" stroke-opacity=".1" stroke-width=".5" d="M76.87 162.53l6.07 3.43 7.6 8.66"/><path id="Path-2557-Copy" stroke="#FFF" stroke-opacity=".1" stroke-width=".5" d="M81.53 158.34l8.65 5.34 4.85 4.5"/><path id="Path-2558-Copy" stroke="#FFF" stroke-opacity=".1" stroke-width=".5" d="M88.74 152.2l4.65 2.98 4.2 5"/><path id="Path-2559-Copy" stroke="#FFF" stroke-opacity=".1" stroke-width=".5" d="M93.4 146.6l3.85.45 4.58 3.67"/><path id="Path-2560-Copy" stroke="#FFF" stroke-opacity=".1" stroke-width=".5" d="M100.08 135.47l4.7 3.13 1.9 2.25"/><path id="Path-2561-Copy" stroke="#FFF" stroke-opacity=".1" stroke-width=".5" d="M109.94 111.15l6.18-5.46 3.63.4 3.08 1.9"/><path id="Path-2562-Copy" fill="#000" fill-opacity=".1" d="M125.08 89.1l-.54 2.67.88 6.72.18-7-.52-2.5z"/><path id="Path-2563-Copy" fill="#000" fill-opacity=".1" d="M126.48 105.36l-.53 2.28.26 7.47 1.1.1-.1-7.1-.6-2.7z"/><path id="Path-2564-Copy" fill="#000" fill-opacity=".1" d="M126.7 65.65l-.3 2.45-.24 5.76.82-.1.46-4.03-.74-4.08z"/><path id="Path-2565-Copy" fill="#000" fill-opacity=".1" d="M124.93 47.12l.07 6.33.16 4.03.54-4.53-.77-5.83z"/><path id="Path-2566-Copy" stroke="#FFF" stroke-opacity=".1" stroke-width=".5" d="M144.65 308.06l-.7 3.64.23 8.98 1.13 6.12 3.6 9.5"/><path id="Path-2567-Copy" stroke="#FFF" stroke-opacity=".1" stroke-width=".5" d="M147.14 313.06l-.5 7.3.4 5.84 1.02 7.23"/><path id="Path-2904-Copy-2" fill="#000" fill-opacity=".05" d="M67.8 208.55l-8.2 3.77-12.98 1.74-14.77-.87 6.3 6.6 9.43-2.1 11.37-2.8 8.86-6.5z"/><path id="Path-2904-Copy-3" fill="#000" fill-opacity=".05" d="M186.44 208.55l8.22 3.77 12.97 1.74 14.77-.87-6.3 6.6-9.43-2.1-11.36-2.8-8.8-6.5z"/><path id="Path-2905-Copy" fill="#000" fill-opacity=".05" d="M29 185.88l25.28-8.25 10.52-3.82 7.38-5.2 7.42-6 6.7-9.2-9.02 6.5-9.44 5.1-16.13 6.6-10.2 6.1-12.5 8.2z"/><path id="Path-2906-Copy" fill="#000" fill-opacity=".05" d="M9.7 192.24l-3.25 9.35-.42 13.4 4.1 9 9.35 11.4 5.38 5.4-11.1-5.2L4.7 229l-4.66-9.7.35-10.12L3 200.9l6.66-8.64z"/><path id="Path-2907-Copy" fill="#000" fill-opacity=".05" d="M48.87 241.84l8.5-2.4 11.47-1.05-1.58 4.2-6.4.8-12-1.7z"/><path id="Path-2908-Copy" fill="#000" fill-opacity=".05" d="M225 185.63l-23.97-8.4-11.7-6.04-8.8-7.4-9.7-9.1 13.34 6.8 15.9 7.2 10.76 6.9 14.17 9.9z"/><path id="Path-2910-Copy-2" fill="#000" fill-opacity=".05" d="M208.64 189.68l11.8 4.37 4.07 7.6 4.9 4.95 3.2 5.1-8.8-6.15-6.5-7.93-13.4-9.6 4.9 1.66z"/><path id="Path-2910-Copy-3" fill="#000" fill-opacity=".05" d="M47.5 189.68l-11.8 4.37-4.06 7.6-4.9 4.95-3.12 5.1 8.85-6.15 6.56-7.93 13.4-9.6-4.93 1.66z"/><path id="Path-2911-Copy" fill="#000" fill-opacity=".05" d="M241.4 191.5l5.15 6.9 2.2 6.53 1 10.9-2.52 8.6-4.93 10.63 9.78-8.56 2.44-10.88-1.54-9.6-3.33-8.55-8.24-5.96z"/><path id="Path-2912-Copy" fill="#000" fill-opacity=".05" d="M207.74 239.62l-8.88-2.84-12-1.13-1.9-.06.68 4.5.04 1.6 12.84-.7 9.22-1.6z"/><path id="Path-2744-Copy" fill="#000" fill-opacity=".1" d="M111.24 185.12l5.86-.84 10.07 3.28 8.38-2.62 6.7.84 1.7 13.43 1.12 8.5 3.28 14 5.94 13.8-15.4-6-16.9-.5-15.3 2.8-5.5 4.3 1.4-6.1 3.9-7.9 2.8-10.5 1.5-26.1z"/><path id="Path-2749-Copy" fill="#000" fill-opacity=".05" d="M62.35 267.9l2.17-10.64 5.8-14.67-7.54 13-.43 12.3z"/><path id="Path-2750-Copy" fill="#000" fill-opacity=".05" d="M194.86 272.3l-3.43-12.24-2.83-10.7 4.72 10.68 1.54 12.26z"/><path id="Path-2751-Copy" fill="#000" fill-opacity=".1" d="M129.16 261.54l1.2 7.1 3.8 17.98 1.07-17.6.8-7.84-6.87.36z"/><path id="Path-2420-Copy" fill="#333" d="M125.5 276.1l-3.1-1.22-1.9-2.82-1.55-3.9-1.98-4v-1.85l1.95-.9 4.86 1.9 5.82 1.8-2-1.7-5.72-2.2-4-1.7.5-3 2.24-5.4 1.3-4.5.32 1.8-.4 2.5-1.35 4-1.4 3.9.1.9 1.1.6 1.1.3 1.7-2.2 2-5.3 1.7-4.6.8-3.8.3 2.7-.5 3.4-1.5 5.5-1.7 4.8.1.6 1.9 1.2 1 .1 1.1-2.45 1.6-.45 2.9.3 2.4 2.36-.1 2.3 3-.64 1.5-1.5-2.1-2-1.6-4.44-1.3-4.4-1.5-6.7L135 249l1.4 4.14 1.4 3.86 2.7 5.1.2.9-2.1 1.5-1.45.83 4.1-2.07 2.7-1.9-1.63-3.6-2.17-4.6-2.1-5.95 3.4 5.8 2.45 3.9 1.4 4.48-2.2 1.9-4.1 2 5.1-1.62 3.57-.27.7 1.26-1.6 4.56-2.7 4.4-2.6 1.36 2.3-2.7 2.5-7.2H144l-4.8 1 1 .42-.9 2.7-2.84 3.2 1.6-3 .64-2.4-2.7 1.1-1.65-.66v1.3l-.58.2-.1-1.3h-1.2l-.4.6.5.85-.9-.5-.3-1-1.16-.5-2.5.36.8 2.2 2 3.4-2.5-2.5-1.9-3.84 3.4-.1-2.9-1-3.5-1-3.9-.78-.3.54 1 3.8 2 5 1.8 2.1 1.66 1.66z"/><path id="Path-2752-Copy" fill="#000" fill-opacity=".05" d="M110.16 113.34l1.57-2.15 1.8-1.6 4.07-1.9-4.38.5-1.42.3-1.64 4.6z"/><path id="Path-2753-Copy" fill="#000" fill-opacity=".05" d="M143.44 114.7l-2.85-3.55-2.5-1.02-1.8.63 2.7-1.88 1.3-.36 3 1.05v5.12z"/><path id="Path-2754-Copy-2" fill="#000" fill-opacity=".1" d="M164.82 282.44l3.14 10.3 11.33 8.9-9.6-10.56-3.5-8.25-1.4-.4z"/><path id="Path-2754-Copy-3" fill="#000" fill-opacity=".1" d="M93.22 284.03l-3.14 10.3-10.53 8.1 8.8-9.76 3.46-8.24 1.5-.4z"/><path id="Path-2756-Copy-2" fill="#000" fill-opacity=".05" d="M81.2 215.85l2.73-4.04.37-7.2 1.72 6.7-4.83 4.6z"/><path id="Path-2756-Copy-3" fill="#000" fill-opacity=".05" d="M174.47 215.85l-2.73-4.04-.38-7.2-1.72 6.7 4.83 4.6z"/><path id="Path-2945" fill="#000" fill-opacity=".05" d="M130.54 308.57l-2.78 2.93-1.3 5.32 2.78-4.04 1.3-4.2z"/><path id="Path-2946" fill="#000" fill-opacity=".05" d="M134.1 311.68l3.63 4.45-1.56-4.5-2.16-2.25.1 2.3z"/><path id="Path-2947" fill="#000" fill-opacity=".1" d="M169.47 302.58l.9-4.95-2.24-4.67 10.44 8.05-6.07-3.3-1.17 1.2-1.86 3.7z"/><path id="Path-2947-Copy" fill="#000" fill-opacity=".1" d="M88.78 304.17l-.9-4.95 2.24-4.66-10.44 8.04 6.07-3.34 1.17 1.2 1.86 3.7z"/><path id="Path-2949" fill="#000" fill-opacity=".04" d="M118 348.26l3.9-6 6.38-2.7h10.36l4.8 3.27 3.72 4.67 1.9 10.53-.85 8.83-2 5.9-6.9 9.02-7.2 3.86-7.2-2.6-5.3-5.63-3.5-5.7.3-5.7 1.4-7.1V351l.4-2.7z"/><path id="Path-2948" fill="#000" fill-opacity=".05" d="M133.6 302.15l4 2.53 6.38 3.1 12.86 3.84-9.9-1.82-9.94-3.43-3.06-1.9-.35-2.32z"/><path id="Path-2949" fill="#000" fill-opacity=".05" d="M129.65 303.57l-6.47 4.92-7.48 4.2-9.72 1.2 9-3.1 7.8-4.6 7-4.4-.13 1.6z"/></g></g></g></svg>