<svg xmlns="http://www.w3.org/2000/svg" viewBox="0 0 564 55"><g id="Page-2" fill="none" fill-rule="evenodd"><g id="CS---case-study---desktop"><g id="Group"><g id="Group-Copy-2"><path id="Rectangle-1207" stroke="#7DA7BD" stroke-width="3" d="M497 2.133h66.2037v50H497z"/><path id="Rectangle-1208" fill="#7DA7BD" d="M497.463 2.133h65.7407v6.0185H497.463z"/><path id="Rectangle-1209" fill="#FFF" d="M498.389 3.522h1.8518v1.8518h-1.852z"/><path id="Rectangle-1209-Copy" fill="#FFF" d="M501.6296 3.522h1.852v1.8518h-1.852z"/><path id="Rectangle-1209-Copy-2" fill="#FFF" d="M504.8704 3.522h1.852v1.8518h-1.852z"/><path id="&lt;/&gt;" fill="#7DA7BD" d="M507.05 32.9283v-2.9885l14.7392-6.209v3.946l-8.8784 3.8008 8.8784 3.6848v3.975l-14.7393-6.209zm20.107 8.7913l-3.2787-1.0735 8.9654-22.544 3.2786 1.1317-8.9654 22.486zm11.2575-2.5823v-3.975l8.8784-3.6847-8.8787-3.801v-3.946l14.7393 6.2092v2.9885l-14.7393 6.209z"/></g><g id="Path-4339-Copy-+-Path-4339-Copy-2-+-Line-Copy-Copy" stroke="#7DA7BD" stroke-width="3"><path id="Path-4339-Copy" d="M194.7094 51.823l26.78-32.3617L212.048 2.349h-20.885l-7.004 17.1123 10.5504 32.3617z"/><path id="Path-4339-Copy-2" d="M194.1504 51.823l-26.78-32.3617 9.4413-17.1122h20.885l7.004 17.1125-10.5503 32.3617z"/><path id="Line" d="M168.1574 19.2163h52.8496" stroke-linecap="square"/></g><path id="Path-4342-Copy-2" stroke="#7DA7BD" stroke-width="3" d="M358.9742 2.1496L334 12.7773v32.358l14.51 6.9977V37.3067l10.4837-4.773 10.4838 4.773V52.133l14.51-6.9976v-32.358l-24.9742-10.628V2.133l-.0196.0083-.0195-.0083v.0166z"/><path id="Shape" fill="#7DA7BD" d="M27 45.133c9.941 0 18-8.059 18-18s-8.059-18-18-18-18 8.059-18 18 8.059 18 18 18zm0 7c-13.807 0-25-11.193-25-25s11.193-25 25-25 25 11.193 25 25-11.193 25-25 25z"/><path id="Path-4344-Copy" fill="#FFF" d="M24.8354 11.582l5.507-5.507-1.4592-1.4592-5.4948 5.4948 1.447 1.4713z"/><path id="Path-4347-Copy" fill="#FFF" d="M28.8863 7.5187l1.4627-1.4465L24.8473.5706 23.377 2.0408l5.5093 5.478z"/><g id="Path-4344-Copy-+-Path-4347-Copy" fill="#FFF"><path id="Path-4344-Copy" d="M29.013 43.5582l-5.507 5.507 1.4593 1.459 5.4948-5.4947-1.447-1.4713z"/><path id="Path-4347-Copy" d="M24.9617 47.6227L23.499 49.069l5.5017 5.5018 1.4702-1.4702-5.5095-5.478z"/></g><g id="Path-4344-Copy-+-Path-4347-Copy" fill="#FFF"><path id="Path-4344-Copy" d="M43.0485 25.4776l5.507 5.507 1.459-1.4593-5.4947-5.4948-1.4713 1.447z"/><path id="Path-4347-Copy" d="M47.1136 29.528l1.4464 1.463 5.5017-5.5017-1.47-1.47-5.478 5.509z"/></g><g id="Path-4344-Copy-+-Path-4347-Copy" fill="#FFF"><path id="Path-4344-Copy" d="M11.0745 29.1548l-5.507-5.507-1.459 1.4593 5.4948 5.495 1.4712-1.447z"/><path id="Path-4347-Copy" d="M7.009 25.104l-1.4465-1.4626L.0608 29.143l1.4702 1.4702 5.478-5.5092z"/></g></g></g></g></svg>