<svg width="201" height="201" viewBox="0 0 201 201" xmlns="http://www.w3.org/2000/svg" xmlns:xlink="http://www.w3.org/1999/xlink"><defs><ellipse id="a" cx="100.5" cy="100.25" rx="100" ry="100"/><linearGradient x1="50%" y1="0%" x2="50%" y2="100%" id="c"><stop stop-color="#FBD161" offset="0%"/><stop stop-color="#F99337" offset="100%"/></linearGradient><linearGradient x1="50%" y1="0%" x2="50%" y2="100%" id="d"><stop stop-color="#CCF3DA" offset="0%"/><stop stop-color="#72BD81" offset="100%"/></linearGradient><linearGradient x1="50%" y1="0%" x2="50%" y2="100%" id="e"><stop stop-color="#92D7AA" offset="0%"/><stop stop-color="#6CBD7C" offset="100%"/></linearGradient><linearGradient x1="50%" y1="0%" x2="50%" y2="100%" id="f"><stop stop-color="#66D88E" offset="0%"/><stop stop-color="#37B450" offset="100%"/></linearGradient><linearGradient x1="50%" y1="0%" x2="50%" y2="100%" id="g"><stop stop-color="#09DFF3" offset="0%"/><stop stop-color="#44BEFF" offset="100%"/></linearGradient></defs><g fill="none" fill-rule="evenodd"><mask id="b" fill="#fff"><use xlink:href="#a"/></mask><use fill="#EBF4F8" xlink:href="#a"/><g transform="translate(-91 35)" mask="url(#b)"><g transform="translate(166)" fill="url(#c)"><ellipse opacity=".1" cx="43.5" cy="44" rx="62.559" ry="62.633"/><ellipse opacity=".1" cx="43.5" cy="44" rx="47.2" ry="47.255"/><ellipse opacity=".1" cx="43.5" cy="44" rx="32.961" ry="33"/><ellipse opacity=".15" cx="43.5" cy="44" rx="16.593" ry="16.612"/></g><path d="M91.902 67.037C122.46 51.663 117.067 15 157.512 15c26.963 0 38.648 52.037 53.927 52.037 15.27 0 18.11-55.178 55.72-26.018C304.76 70.17 313 172 313 172H20S53.667 86.274 91.902 67.037z" fill="url(#d)"/><path d="M108.663 108l21-49 21 49h-42z" fill="#CCB288"/><path d="M189.56 124.938S168.88 71.01 148.44 71.01c-20.44 0-17.44 20-40 20-34.173 0-42 17.623-42 33.928 0 1.305 123.12 0 123.12 0z" fill="url(#e)"/><path d="M61 140l40.5-96 40.5 96H61z" fill="#B18B4F"/><path d="M133 131l21-49 21 49h-42z" fill="#B18B4F"/><path d="M181.663 166.104s-22-70.25-86-53.077c-64 17.173-95 53.077-95 53.077h181z" fill="url(#f)"/><path d="M164.712 153.68c2.785-4.79-1.923-16.87 9.35-22.275 6.76-3.24 14.633-10.72 19.938-14.405 3.546-2.464 13-4 13-4l-4 3s-8.063 12.15-7.002 21.18c1.06 9.028 12.093 5.453 10.866 17.364C205.637 166.456 191.616 176 191.616 176H110s45.797-6.992 54.712-22.32z" fill="url(#g)"/><path d="M96.232 142.918l5.653-17.4 5.654 17.4H96.23z" fill="#8D7246"/><path d="M213 121l21-49 21 49h-42z" fill="#CCB288"/><path d="M240 113l28.5-67 28.5 67h-57z" fill="#CCB288"/><path d="M104.308 131.318l5.654-17.4 5.654 17.4h-11.308z" fill="#8D7246"/><circle fill="url(#c)" cx="209.5" cy="43.5" r="8.5"/><path d="M115.212 137.118l5.654-17.4 5.654 17.4h-11.308zM126.924 140.81l5.654-17.4 5.654 17.4h-11.308z" fill="#8D7246"/><path d="M192.348 108.654l2.042-4.71 2.042 4.71h-4.084zM198.63 113.138l1.5-3.34 1.5 3.34h-3zM197.05 103.43l1.5-3.34 1.5 3.34h-3zM201.63 107.138l1.5-3.34 1.5 3.34h-3zM186.05 112.43l1.5-3.34 1.5 3.34h-3zM190.63 113.138l1.5-3.34 1.5 3.34h-3zM209.05 105.43l2.5-3.34 2.5 3.34h-5zM214.916 101.193l2.042-4.71 2.042 4.71h-4.084zM189.05 99.76l2.042-4.71 2.042 4.71h-4.084zM201.942 100.963l2.042-4.71 2.042 4.71h-4.084z" opacity=".05" fill="#000"/><path d="M317.122 139.928S296.44 86 276 86s-17.44 20-40 20c-34.173 0-42 17.623-42 33.928 0 1.305 123.122 0 123.122 0z" fill="url(#e)"/><path d="M199 145.264l21-49 21 49h-42z" fill="#B18B4F"/><path d="M229.17 130.213l21-49 21 49h-42z" fill="#B18B4F"/><path d="M397 172.077s-43.6-71-98-71-98 45.043-98 71c0 2.077 196 0 196 0z" fill="url(#f)"/><path d="M196.213 144.026l2.856-2.766 3.9-1.048-.19 6.763-2.765.985-3-1.173-.81-2.76z" fill="#BEBEBE"/><path d="M192.213 139.025l2.857-2.766 3.905-1.05-.187 6.76-2.764-.02-3.998 1.827.187-4.76z" fill="#BEBEBE"/><path fill="#D8D8D8" d="M195.346 140.39l2.898-.778.777 2.898-2.89.777z"/><path d="M181.45 124.205l1.782-1.726 2.436-.66-.117 4.22-1.72-.01-2.49 1.14.12-2.97zM169.438 130.732l6.83-1.295-1.705 3.83-3.83 1.295-1.295-3.83zM152.212 160.026l6.762-1.813 1.813 6.762-6.762 1.813z" fill="#BEBEBE"/><path d="M200.213 144.025l4.762-1.813 2.245 2.298-1.432 4.465-4.762.812-.813-5.762zM194.213 167.026l6.762-1.813 1.813 6.762-6.762 1.813z" fill="#D8D8D8"/><path d="M203.55 148.586l3.864-2.036-.964 4.865-2.863 1.036-.036-3.86zM166.213 133.026l2.76-3.813 3.814 6.762-6.762 2.813.188-5.762zM159.213 156.025l3.76-2.812L167 157l-3.213 2.975-4.762.812.188-4.762zM163.662 148.627l2.623-1.96 2.806 2.638-2.24 2.075-3.31.566.13-3.32zM192.662 133.627l2.623-1.96 2.806 2.638-2.24 2.075-3.31.566.13-3.32zM177.438 125.732l1.83-3.295 2.294 3.83-2.83 2.295-1.294-2.83z" fill="#D8D8D8"/><path fill="#BEBEBE" d="M132.212 165.025l6.762-1.813 1.813 6.762-6.762 1.813zM140.55 165.586l3.864-1.036 1.036 3.864-3.864 1.036z"/><path fill="#D8D8D8" d="M144.213 161.025l6.762-1.813 1.813 6.762-6.762 1.813zM164.55 137.586l3.864-1.036 1.036 3.864-3.864 1.036z"/><path d="M210.24 151.783L214.067 140l3.83 11.783h-7.66zM231.342 140.103l2.83-8.706 2.828 8.706h-5.658zM264.342 110.103l2.83-8.706 2.828 8.706h-5.658zM232.342 127.718l3.83-11.783L240 127.718h-7.658z" fill="#8D7246"/></g></g></svg>