<?xml version="1.0" encoding="UTF-8" standalone="no"?>
<svg width="200px" height="229px" viewBox="0 0 200 229" version="1.1" xmlns="http://www.w3.org/2000/svg" xmlns:xlink="http://www.w3.org/1999/xlink" xmlns:sketch="http://www.bohemiancoding.com/sketch/ns">
    <!-- Generator: Sketch 3.3.2 (12043) - http://www.bohemiancoding.com/sketch -->
    <title>Rectangle 386 + Rectangle 387</title>
    <desc>Created with Sketch.</desc>
    <defs>
        <path id="path-1" d="M18.8040327,100.146607 C18.8040327,100.146607 9.93969812,73.1951508 18.8040327,51.3466071 C27.5871015,28.9233061 54.0000012,0.146607096 105.204033,0.146607102 C156.408064,0.146607108 188.619639,20.0689372 198.004033,69.7466071 C208.472965,119.680588 174.804033,182.546607 174.804033,182.546607 L174.804033,228.146607 L86.8040327,228.146607 L82.0040327,207.346607 C65.0878293,200.476704 40.8226525,217.078646 26.8040327,211.346607 C12.1456253,206.010685 18.0040327,182.546607 18.0040327,182.546607 C18.0040327,182.546607 13.2485868,177.233986 14.0040327,171.346607 C13.2485869,166.166025 18.0040327,150.546607 18.0040327,150.546607 C18.0040327,150.546607 4.42488726,146.243694 1.20403273,140.946607 C-3.84701064,132.409281 18.8040327,100.146607 18.8040327,100.146607 Z"></path>
        <linearGradient x1="50%" y1="0%" x2="50%" y2="100%" id="linearGradient-2">
            <stop stop-color="#09DFF3" offset="0%"></stop>
            <stop stop-color="#44BEFF" offset="100%"></stop>
        </linearGradient>
    </defs>
    <g id="Work" stroke="none" stroke-width="1" fill="none" fill-rule="evenodd" sketch:type="MSPage">
        <g id="Our-Practices" sketch:type="MSArtboardGroup" transform="translate(-267.000000, -2552.000000)">
            <g id="Rectangle-386-+-Rectangle-387" sketch:type="MSLayerGroup" transform="translate(267.000000, 2552.000000)">
                <g id="Rectangle-386">
                    <use fill="#EBF4F8" fill-rule="evenodd" sketch:type="MSShapeGroup" xlink:href="#path-1"></use>
                    <use fill="none" xlink:href="#path-1"></use>
                </g>
                <path d="M86.8856843,24.5407301 C85.7683601,24.2824997 84.6026134,24.1466071 83.4040327,24.1466071 C79.9203833,24.1466071 76.714102,25.2945761 74.1679345,27.2577067 C71.903058,25.9105281 69.2458333,25.1466071 66.4040327,25.1466071 C58.1197615,25.1466071 51.4040327,31.6384782 51.4040327,40.1466071 C51.4040327,40.491974 51.4182426,40.8351906 51.4461615,41.175724 C43.6082209,41.6539309 37.4040327,47.9689299 37.4040327,56.1466071 C37.4040327,60.0284662 39.1992179,63.638669 42.0782207,66.2204574 C39.7895381,68.8336069 38.4040327,72.2821225 38.4040327,76.1466071 C38.4040327,83.654736 45.1197615,90.1466071 53.4040327,90.1466071 C55.0040866,90.1466071 56.5456269,89.9044314 57.9915675,89.4595325 L57.9915675,89.4595325 C59.8267599,90.403076 61.84169,91.1303642 63.9886558,91.6781078 L63.9886558,91.6781078 C66.3882969,93.2263621 69.2849917,94.1466071 72.4040327,94.1466071 C74.3885735,94.1466071 76.2831008,93.7740599 78.0168547,93.1042403 C80.5539626,93.0817858 83.12967,92.9483092 85.6931333,92.742939 C88.3098889,94.8489316 91.700191,96.1466071 95.4040327,96.1466071 C100.568369,96.1466071 105.123146,93.6237633 107.821407,89.9045947 L107.821407,89.9045947 C108.131983,89.8620692 108.438389,89.8207718 108.740433,89.7808511 L108.740433,89.7808511 C111.350683,91.8644946 114.722468,93.1466071 118.404033,93.1466071 C120.540191,93.1466071 122.572056,92.7149608 124.41138,91.9455475 C125.496255,92.8250114 126.484661,93.8569671 127.448084,94.9597021 C127.418895,95.3505643 127.404033,95.7463546 127.404033,96.1466071 C127.404033,103.654736 134.119761,110.146607 142.404033,110.146607 C145.147291,110.146607 147.718552,109.434747 149.930916,108.209852 C152.372803,112.836477 157.488527,116.146607 163.404033,116.146607 C171.688304,116.146607 178.404033,109.654736 178.404033,102.146607 C178.404033,101.087334 178.299935,100.059314 178.101673,99.0711842 C183.560345,96.9252451 187.404033,91.8267492 187.404033,86.1466071 C187.404033,80.8932693 184.843704,76.4086168 180.934688,73.7462026 C182.495552,71.5321048 183.404033,68.9080938 183.404033,66.1466071 C183.404033,57.6384782 176.688304,51.1466071 168.404033,51.1466071 C168.125597,51.1466071 167.848934,51.1539406 167.574238,51.1684376 L167.574238,51.1684376 C167.478082,51.0680889 167.381917,50.9682975 167.28574,50.8690603 L167.28574,50.8690603 C167.363807,50.3026887 167.404033,49.7276915 167.404033,49.1466071 C167.404033,40.6384782 160.688304,34.1466071 152.404033,34.1466071 C152.308181,34.1466071 152.212539,34.1474762 152.117116,34.1492074 C150.752714,27.1598925 144.684019,22.1466071 137.404033,22.1466071 C133.050331,22.1466071 129.129845,23.9396003 126.389684,26.8759573 C123.737624,24.5377077 120.238885,23.1466071 116.404033,23.1466071 C115.354267,23.1466071 114.329688,23.2508499 113.340769,23.4502288 C110.73369,19.0205911 105.916062,16.1466071 100.404033,16.1466071 C94.4517511,16.1466071 89.3092262,19.4980222 86.8856843,24.5407301 Z" id="Rectangle-387" fill="url(#linearGradient-2)" sketch:type="MSShapeGroup"></path>
            </g>
        </g>
    </g>
</svg>