<?xml version="1.0" encoding="UTF-8" standalone="no"?>
<svg width="398px" height="130px" viewBox="0 0 398 130" version="1.1" xmlns="http://www.w3.org/2000/svg" xmlns:xlink="http://www.w3.org/1999/xlink" xmlns:sketch="http://www.bohemiancoding.com/sketch/ns">
    <!-- Generator: Sketch 3.3.2 (12043) - http://www.bohemiancoding.com/sketch -->
    <title>Group</title>
    <desc>Created with Sketch.</desc>
    <defs>
        <linearGradient x1="50%" y1="0%" x2="50%" y2="100%" id="linearGradient-1">
            <stop stop-color="#09DFF3" offset="0%"></stop>
            <stop stop-color="#44BEFF" offset="100%"></stop>
        </linearGradient>
    </defs>
    <g id="Work" stroke="none" stroke-width="1" fill="none" fill-rule="evenodd" sketch:type="MSPage">
        <g id="Our-Practices" sketch:type="MSArtboardGroup" transform="translate(-860.000000, -2175.000000)">
            <g id="Group" sketch:type="MSLayerGroup" transform="translate(861.000000, 2176.000000)">
                <g id="iphone-copy-36" transform="translate(352.000000, 35.000000)" sketch:type="MSShapeGroup">
                    <path d="M43.3366394,85.9945604 C43.3366394,88.9391183 40.9394565,91.3256337 37.9822309,91.3256337 L5.35474184,91.3256337 C2.39751624,91.3256337 0.000333358765,88.9391183 0.000333358765,85.9945604 L0.000333358765,5.35807542 C0.000333358765,2.41351746 2.39751624,0.0270020599 5.35474184,0.0270020599 L37.9822309,0.0270020599 C40.9394565,0.0270020599 43.3366394,2.41351746 43.3366394,5.35807542 L43.3366394,85.9945604 L43.3366394,85.9945604 Z" id="bezel" stroke="url(#linearGradient-1)" stroke-width="2"></path>
                    <rect id="screen" stroke="url(#linearGradient-1)" x="3.00022888" y="12.0009155" width="37.3128465" height="66.3663963"></rect>
                    <path d="M25.6686249,8.58265475 C25.6686249,8.79433757 25.5222804,8.96501726 25.3419333,8.96501726 L18.6407554,8.96501726 C18.460075,8.96501726 18.3140638,8.79400421 18.3140638,8.58265475 L18.3140638,7.72258914 C18.3140638,7.51090633 18.4604083,7.34022664 18.6407554,7.34022664 L25.3419333,7.34022664 C25.5222804,7.34022664 25.6686249,7.51123969 25.6686249,7.72258914 L25.6686249,8.58265475 L25.6686249,8.58265475 Z" id="speaker" stroke="#4CD7FF"></path>
                    <ellipse id="camera" stroke="#4CD7FF" cx="22.0016785" cy="4.00030518" rx="1.00007629" ry="1.00007629"></ellipse>
                    <ellipse id="lock" stroke="url(#linearGradient-1)" stroke-width="2" cx="21.6816541" cy="84.6734596" rx="3.346922" ry="3.33392101"></ellipse>
                </g>
                <path d="M322.634333,125.639 L259.004667,125.639 C256.793,125.639 255,123.846667 255,121.635667 L255,24.0033333 C255,21.7923333 256.792667,20 259.004667,20 L322.634333,20 C324.846333,20 326.639,21.7923333 326.639,24.0033333 L326.639,121.635667 C326.639,123.846667 324.846333,125.639 322.634333,125.639 L322.634333,125.639 Z" id="bezel-copy" stroke="url(#linearGradient-1)" stroke-width="2" sketch:type="MSShapeGroup"></path>
                <path d="M322.634333,125.639 L259.004667,125.639 C256.793,125.639 255,123.846667 255,121.635667 L255,24.0033333 C255,21.7923333 256.792667,20 259.004667,20 L322.634333,20 C324.846333,20 326.639,21.7923333 326.639,24.0033333 L326.639,121.635667 C326.639,123.846667 324.846333,125.639 322.634333,125.639 L322.634333,125.639 Z" id="bezel-2-copy" stroke="url(#linearGradient-1)" stroke-width="2" sketch:type="MSShapeGroup"></path>
                <rect id="screen-copy" stroke="url(#linearGradient-1)" sketch:type="MSShapeGroup" x="261" y="30" width="60.6663333" height="84.3056667"></rect>
                <ellipse id="lock-copy" stroke="url(#linearGradient-1)" sketch:type="MSShapeGroup" cx="286.673667" cy="119.673667" rx="2.67366667" ry="2.67366667"></ellipse>
                <ellipse id="camera-copy" stroke="url(#linearGradient-1)" sketch:type="MSShapeGroup" cx="326.996667" cy="24.9966667" rx="0.996666667" ry="0.996666667"></ellipse>
                <path d="M197.666667,0 L32.3333333,0 C27.8347167,0 24,3.6912728 24,8.2633709 L24,117.009332 L206,117.009328 L206,8.2633709 C205.99999,3.6909403 202.17916,0 197.666667,0 L197.666667,0 Z" id="bezel-copy-2" stroke="url(#linearGradient-1)" stroke-width="2" sketch:type="MSShapeGroup"></path>
                <ellipse id="webcam-copy" stroke="#0ADEF3" sketch:type="MSShapeGroup" cx="155.333333" cy="6.33333333" rx="1.33333333" ry="1.33333333"></ellipse>
                <path d="M213.604,127.336667 L17.096,127.336667 C6.88033333,127.336667 0,123.831333 0,122.340667 L0,117.809333 C0,117.361333 0.445,117 0.998333333,117 L229.701333,117 C230.255333,117 230.701,117.361333 230.701,117.809333 L230.701,122.519 C230.698667,123.697333 225.370667,127.336667 213.604,127.336667 L213.604,127.336667 Z" id="Shape-Copy" stroke="url(#linearGradient-1)" stroke-width="2" sketch:type="MSShapeGroup"></path>
                <path id="Line-Copy" stroke="url(#linearGradient-1)" sketch:type="MSShapeGroup" d="M40,122 L269.914225,122"></path>
                <rect id="screen-copy-2" stroke="url(#linearGradient-1)" sketch:type="MSShapeGroup" x="31" y="13" width="167.024618" height="97.3363333"></rect>
                <path d="M180,117 L180,118.029 C180,118.762667 178.555573,118.984238 177.46224,118.984238 L132.605095,118.984238 C131.454762,118.984238 130,118.763 130,118.029 L130,117" id="touchpad-copy" stroke="#3BD6F9" sketch:type="MSShapeGroup"></path>
            </g>
        </g>
    </g>
</svg>