<?xml version="1.0" encoding="UTF-8" standalone="no"?>
<svg width="292px" height="273px" viewBox="0 0 292 273" version="1.1" xmlns="http://www.w3.org/2000/svg" xmlns:xlink="http://www.w3.org/1999/xlink" xmlns:sketch="http://www.bohemiancoding.com/sketch/ns">
    <!-- Generator: Sketch 3.3.2 (12043) - http://www.bohemiancoding.com/sketch -->
    <title>Group Copy 3</title>
    <desc>Created with Sketch.</desc>
    <defs>
        <linearGradient x1="50%" y1="0%" x2="50%" y2="100%" id="linearGradient-1">
            <stop stop-color="#09DFF3" offset="0%"></stop>
            <stop stop-color="#44BEFF" offset="100%"></stop>
        </linearGradient>
        <linearGradient x1="50%" y1="0%" x2="50%" y2="85.9797297%" id="linearGradient-2">
            <stop stop-color="#09DFF3" offset="0%"></stop>
            <stop stop-color="#44BEFF" offset="100%"></stop>
        </linearGradient>
        <linearGradient x1="50%" y1="0%" x2="50%" y2="100%" id="linearGradient-3">
            <stop stop-color="#FB8961" offset="0%"></stop>
            <stop stop-color="#F94137" offset="100%"></stop>
        </linearGradient>
        <linearGradient x1="50%" y1="0%" x2="50%" y2="100%" id="linearGradient-4">
            <stop stop-color="#50EDC2" offset="0%"></stop>
            <stop stop-color="#11CCDB" offset="100%"></stop>
        </linearGradient>
    </defs>
    <g id="Work" stroke="none" stroke-width="1" fill="none" fill-rule="evenodd" sketch:type="MSPage">
        <g id="Our-Practices" sketch:type="MSArtboardGroup" transform="translate(-231.000000, -700.000000)">
            <g id="Group-Copy-3" sketch:type="MSLayerGroup" transform="translate(231.404033, 700.683857)">
                <circle id="Oval-205" stroke="url(#linearGradient-1)" stroke-width="4" sketch:type="MSShapeGroup" cx="50" cy="208" r="50"></circle>
                <path d="M28.0145127,145 C28.0145127,145 27.3418494,125.632928 35.1556067,103.813377 C42.969364,81.9938271 56.734944,72 56.734944,72 L63,77.8739385 C63,77.8739385 49.6144593,88.2240798 43.8662521,107.816588 C38.1180449,127.409096 38.7159701,144.624272 38.7159701,144.624272 L28.0145127,145 L28.0145127,145 Z M49,64.4625126 L75,59 L71.2968843,85 L49,64.4625126 L49,64.4625126 Z" id="Rectangle-335-Copy-6" fill="#EBF4F8" sketch:type="MSShapeGroup"></path>
                <path d="M76.2511282,211.799098 C75.0749479,216.000253 71.0463522,219.316143 66.5959673,219.316143 C62.413358,219.316143 58.9353186,217.243407 57.0703286,214.299187 L26.5959673,213.316143 C26.5959673,213.316143 23.5959673,213.316143 23.5959673,209.316143 C23.5959673,205.316143 26.5959673,205.316143 26.5959673,205.316143 L57.2417104,203.338998 L57.2417104,203.338998 C59.1436857,200.266926 62.5382689,198.316143 66.5959673,198.316143 C70.8476163,198.316143 74.7143057,201.342498 76.0767101,205.792408 L70.2626339,204.316143 C70.2626339,204.316143 67.5959673,204.399729 67.5959673,208.689976 C67.5959673,213.344135 70.2626339,213.189042 70.2626339,213.189042 L76.2511282,211.799098 Z" id="Rectangle-359" fill="url(#linearGradient-2)" sketch:type="MSShapeGroup"></path>
                <path d="M211.384214,59 C211.384214,59 228.170526,68.7780879 242.514614,87.1697992 C256.858702,105.56151 258,122.75044 258,122.75044 L249.678801,125 C249.678801,125 248.032738,107.947529 234.476953,92.5240642 C220.921168,77.1005995 206,68.4089676 206,68.4089676 L211.384214,59 L211.384214,59 Z M269,120 L260.050376,145 L240,127.897021 L269,120 L269,120 Z" id="Rectangle-335-Copy-7" fill="#EBF4F8" sketch:type="MSShapeGroup"></path>
                <path d="M194,251.239578 C194,251.239578 177.142964,261.232632 153.91127,264.944367 C130.679577,268.656101 115,261.387402 115,261.387402 L117.114503,253.020194 C117.114503,253.020194 132.922346,259.781337 153.155622,255.332027 C173.388898,250.882717 188.372929,242 188.372929,242 L194,251.239578 L194,251.239578 Z M112.570234,272 L95,252.335349 L120,243 L112.570234,272 L112.570234,272 Z" id="Rectangle-335-Copy-8" fill="#EBF4F8" sketch:type="MSShapeGroup"></path>
                <circle id="Oval-205-Copy" stroke="url(#linearGradient-3)" stroke-width="4" sketch:type="MSShapeGroup" cx="142" cy="50" r="50"></circle>
                <path d="M142,43.8333333 L129.666667,31.5 L123.5,37.6666667 L135.833333,50 L123.5,62.3333333 L129.666667,68.5 L142,56.1666667 L154.333333,68.5 L160.5,62.3333333 L148.166667,50 L160.5,37.6666667 L154.333333,31.5 L142,43.8333333 Z" id="Rectangle-335-Copy-2" fill="url(#linearGradient-3)" sketch:type="MSShapeGroup"></path>
                <circle id="Oval-205-Copy-2" stroke="url(#linearGradient-4)" stroke-width="4" sketch:type="MSShapeGroup" cx="241" cy="206" r="50"></circle>
                <path d="M236.079431,207.146894 L227.980738,196 L221,201.071803 L229.098693,212.218697 L229,212.290401 L234.071803,219.27114 L260.622763,199.980738 L255.55096,193 L236.079431,207.146894 Z" id="Rectangle-335-Copy-3" fill="url(#linearGradient-4)" sketch:type="MSShapeGroup"></path>
            </g>
        </g>
    </g>
</svg>