<?xml version="1.0" encoding="UTF-8" standalone="no"?>
<svg width="229px" height="260px" viewBox="0 0 229 260" version="1.1" xmlns="http://www.w3.org/2000/svg" xmlns:xlink="http://www.w3.org/1999/xlink" xmlns:sketch="http://www.bohemiancoding.com/sketch/ns">
    <!-- Generator: Sketch 3.3.2 (12043) - http://www.bohemiancoding.com/sketch -->
    <title>Group</title>
    <desc>Created with Sketch.</desc>
    <defs>
        <linearGradient x1="50%" y1="0%" x2="50%" y2="100%" id="linearGradient-1">
            <stop stop-color="#09DFF3" offset="0%"></stop>
            <stop stop-color="#44BEFF" offset="100%"></stop>
        </linearGradient>
        <linearGradient x1="50%" y1="0%" x2="50%" y2="100%" id="linearGradient-2">
            <stop stop-color="#50EDC2" offset="0%"></stop>
            <stop stop-color="#11CCDB" offset="100%"></stop>
        </linearGradient>
        <linearGradient x1="50%" y1="0%" x2="50%" y2="100%" id="linearGradient-3">
            <stop stop-color="#FBD161" offset="0%"></stop>
            <stop stop-color="#F99337" offset="100%"></stop>
        </linearGradient>
    </defs>
    <g id="Work" stroke="none" stroke-width="1" fill="none" fill-rule="evenodd" sketch:type="MSPage">
        <g id="Our-Practices" sketch:type="MSArtboardGroup" transform="translate(-259.000000, -1612.000000)">
            <g id="Group" sketch:type="MSLayerGroup" transform="translate(241.000000, 1612.000000)">
                <ellipse id="Oval-365" stroke="#EBF4F8" stroke-width="2" sketch:type="MSShapeGroup" cx="133" cy="130" rx="40" ry="130"></ellipse>
                <ellipse id="Oval-365-Copy" stroke="#EBF4F8" stroke-width="2" sketch:type="MSShapeGroup" transform="translate(132.583302, 129.641016) rotate(-60.000000) translate(-132.583302, -129.641016) " cx="132.583302" cy="129.641016" rx="40" ry="130"></ellipse>
                <ellipse id="Oval-365-Copy-2" stroke="#EBF4F8" stroke-width="2" sketch:type="MSShapeGroup" transform="translate(132.583302, 129.641016) scale(-1, 1) rotate(-60.000000) translate(-132.583302, -129.641016) " cx="132.583302" cy="129.641016" rx="40" ry="130"></ellipse>
                <g id="Group-Copy-2" transform="translate(108.000000, 101.000000)" sketch:type="MSShapeGroup">
                    <rect id="Rectangle-367-Copy-11" fill="#FAB23C" x="1" y="19" width="49" height="34" rx="13"></rect>
                    <path d="M14.7362057,10.9743999 C14.3296105,5.46569095 18.4792691,1 24.0079727,1 L24.9920273,1 C30.519278,1 34.8348703,5.47448115 34.6311877,10.9936227 L34.3688123,18.1031515 C34.1651229,23.6224769 29.7891494,29.6249055 26,31 L26,31 L25.5956028,30.8825943 C20.2960977,29.3440284 15.6697407,23.622293 15.2637943,18.1223743 L14.7362057,10.9743999 Z" id="Rectangle-367-Copy-8" fill="#F1DEB1"></path>
                    <path d="M15,13.5043855 C15,8.25525835 19.2537223,4 24.5021361,4 L25.4978639,4 C30.7457487,4 34.6308384,8.24535808 34.1778654,13.4545483 L33.8221346,17.5454517 C33.3680822,22.7670546 29.0906782,28.6754236 26,30 L26,30 L24.1588473,29.4978675 C19.1005556,28.1183334 15,22.7546419 15,17.4956145 L15,13.5043855 Z" id="Rectangle-367-Copy-9" fill="#EBD7A9"></path>
                    <path d="M15.379483,11.4870751 C15.1699003,6.24750821 19.2537223,2 24.5021361,2 L25.4978639,2 C30.7457487,2 34.6607273,6.24090922 34.2424601,11.4692487 L33.7575399,17.5307513 C33.3391622,22.760473 28.7540346,27 23.5059328,27 L25.4940672,27 C20.2506387,27 15.8303636,22.7590908 15.620517,17.5129249 L15.379483,11.4870751 Z" id="Rectangle-367-Copy-10" fill="#FAE6B8"></path>
                    <path d="M14.8846154,19 C14.8846154,19 21.5493112,29.6363636 25.4615385,30 C29.3450101,29.6363636 34.1153846,19 34.1153846,19 L37,20 C37,20 28.9354839,37 25.4615385,37 C21.6774194,37 12,20 12,20 L14.8846154,19 Z" id="Rectangle-371-Copy-2" opacity="0.1" fill="#000000"></path>
                </g>
                <circle id="Oval-368" stroke-opacity="0.4" stroke="#FFFFFF" stroke-width="2" fill="url(#linearGradient-1)" sketch:type="MSShapeGroup" cx="161.5" cy="42.5" r="12.5"></circle>
                <circle id="Oval-368-Copy-2" stroke-opacity="0.4" stroke="#FFFFFF" stroke-width="2" fill="url(#linearGradient-2)" sketch:type="MSShapeGroup" cx="53.5" cy="201.5" r="12.5"></circle>
                <circle id="Oval-368-Copy" stroke-opacity="0.4" stroke="#FFFFFF" stroke-width="2" fill="url(#linearGradient-3)" sketch:type="MSShapeGroup" cx="222.5" cy="148.5" r="7.5"></circle>
            </g>
        </g>
    </g>
</svg>