<?xml version="1.0" encoding="UTF-8" standalone="no"?>
<svg width="355px" height="150px" viewBox="0 0 355 150" version="1.1" xmlns="http://www.w3.org/2000/svg" xmlns:xlink="http://www.w3.org/1999/xlink" xmlns:sketch="http://www.bohemiancoding.com/sketch/ns">
    <!-- Generator: Sketch 3.3.2 (12043) - http://www.bohemiancoding.com/sketch -->
    <title>Group</title>
    <desc>Created with Sketch.</desc>
    <defs></defs>
    <g id="Work" stroke="none" stroke-width="1" fill="none" fill-rule="evenodd" sketch:type="MSPage">
        <g id="Our-Practices" sketch:type="MSArtboardGroup" transform="translate(-846.000000, -1225.000000)">
            <g id="Group" sketch:type="MSLayerGroup" transform="translate(846.000000, 1225.000000)">
                <g transform="translate(0.000000, 25.000000)" stroke="#FFFFFF" stroke-width="4" sketch:type="MSShapeGroup">
                    <rect id="Rectangle-361-Copy-4" x="0" y="4" width="66" height="33"></rect>
                    <rect id="Rectangle-361-Copy-5" x="275" y="4" width="80" height="33"></rect>
                    <circle id="Oval-205-Copy-18" cx="107.5" cy="20.5" r="20.5"></circle>
                    <circle id="Oval-205-Copy-19" cx="107.5" cy="81.5" r="20.5"></circle>
                    <circle id="Oval-205-Copy-20" cx="169.5" cy="81.5" r="20.5"></circle>
                    <circle id="Oval-205-Copy-21" cx="233.5" cy="20.5" r="20.5"></circle>
                    <circle id="Oval-205-Copy-22" cx="232.5" cy="81.5" r="20.5"></circle>
                    <path d="M65.4137931,18.5 L88.60098,18.5" id="Line-Copy-13" stroke-linecap="square"></path>
                    <path d="M127.413793,82.5 L150.60098,82.5" id="Line-Copy-14" stroke-linecap="square"></path>
                    <path d="M189.413793,82.5 L212.60098,82.5" id="Line-Copy-15" stroke-linecap="square"></path>
                    <path d="M107,63 L107,40" id="Line-Copy-16" stroke-linecap="square"></path>
                    <path d="M234,63 L234,40" id="Line-Copy-17" stroke-linecap="square"></path>
                    <path d="M253.413793,18.5 L276.60098,18.5" id="Line-Copy-18" stroke-linecap="square"></path>
                </g>
                <path d="M16.784,41.032 L15.692,43.16 C15.1319972,42.693331 14.5253366,42.46 13.872,42.46 C13.5826652,42.46 13.3143346,42.5393325 13.067,42.698 C12.8196654,42.8566675 12.696,43.071332 12.696,43.342 C12.696,43.5286676 12.7729992,43.6966659 12.927,43.846 C13.0810008,43.9953341 13.225666,44.0979997 13.361,44.154 C13.496334,44.2100003 13.6806655,44.275333 13.914,44.35 L14.614,44.56 C15.4353374,44.8026679 16.0746644,45.1456644 16.532,45.589 C16.9893356,46.0323355 17.218,46.6506627 17.218,47.444 C17.218,48.7226731 16.8540036,49.6699969 16.126,50.286 C15.3419961,50.94867 14.3433394,51.28 13.13,51.28 C11.80466,51.28 10.5680057,50.8786707 9.42,50.076 L10.596,47.864 C11.4266708,48.5920036 12.2386627,48.956 13.032,48.956 C13.3866684,48.956 13.6969987,48.8650009 13.963,48.683 C14.2290013,48.5009991 14.362,48.2373351 14.362,47.892 C14.362,47.4159976 13.9186711,47.0473346 13.032,46.786 C13.0039999,46.7766666 12.892001,46.7440003 12.696,46.688 C12.1919975,46.5479993 11.7953348,46.4173339 11.506,46.296 C11.2166652,46.1746661 10.9273348,46.0043344 10.638,45.785 C10.3486652,45.5656656 10.1433339,45.2880017 10.022,44.952 C9.90066606,44.6159983 9.84,44.2006691 9.84,43.706 C9.84,42.6419947 10.1806633,41.7856699 10.862,41.137 C11.5433367,40.4883301 12.4159947,40.164 13.48,40.164 C14.0120027,40.164 14.578997,40.2433325 15.181,40.402 C15.783003,40.5606675 16.317331,40.7706654 16.784,41.032 L16.784,41.032 Z M23.72,42.768 L23.72,51 L20.976,51 L20.976,42.768 L18.708,42.768 L18.708,40.444 L25.988,40.444 L25.988,42.768 L23.72,42.768 Z M33.61,49.166 L29.83,49.166 L29.102,51 L26.19,51 L30.25,40.444 L33.246,40.444 L37.222,51 L34.296,51 L33.61,49.166 Z M32.868,47.066 L31.748,43.706 L31.72,43.706 L30.586,47.066 L32.868,47.066 Z M44.536,46.674 L47.854,51 L44.438,51 L41.848,46.94 L41.82,46.94 L41.82,51 L39.076,51 L39.076,40.444 L43.178,40.444 C44.2793388,40.444 45.1659966,40.714664 45.838,41.256 C46.5100034,41.797336 46.846,42.6093279 46.846,43.692 C46.846,44.4480038 46.643002,45.1013306 46.237,45.652 C45.830998,46.2026694 45.2640036,46.5433327 44.536,46.674 L44.536,46.674 Z M41.82,42.544 L41.82,45.176 L42.086,45.176 C43.3553397,45.176 43.99,44.7373377 43.99,43.86 C43.99,42.9826623 43.3553397,42.544 42.086,42.544 L41.82,42.544 Z M53.796,42.768 L53.796,51 L51.052,51 L51.052,42.768 L48.784,42.768 L48.784,40.444 L56.064,40.444 L56.064,42.768 L53.796,42.768 Z" id="START" fill="#3BD6F9" sketch:type="MSShapeGroup"></path>
                <path d="M285.896,51 L285.896,40.444 L289.788,40.444 C291.262674,40.444 292.524995,40.9549949 293.575,41.977 C294.625005,42.9990051 295.15,44.247326 295.15,45.722 C295.15,47.196674 294.625005,48.4449949 293.575,49.467 C292.524995,50.4890051 291.262674,51 289.788,51 L285.896,51 Z M288.64,42.768 L288.64,48.676 L289.256,48.676 C290.133338,48.676 290.858997,48.4286691 291.433,47.934 C292.007003,47.4393309 292.294,46.7020049 292.294,45.722 C292.294,44.7979954 292.018669,44.0746693 291.468,43.552 C290.917331,43.0293307 290.189338,42.768 289.284,42.768 L288.64,42.768 Z M303.43,42.768 L300.168,42.768 L300.168,44.532 L303.262,44.532 L303.262,46.856 L300.168,46.856 L300.168,48.676 L303.43,48.676 L303.43,51 L297.424,51 L297.424,40.444 L303.43,40.444 L303.43,42.768 Z M306.124,51 L306.124,40.444 L310.324,40.444 C311.509339,40.444 312.444997,40.7309971 313.131,41.305 C313.817003,41.8790029 314.16,42.7493275 314.16,43.916 C314.16,46.3053453 312.914012,47.5 310.422,47.5 L308.868,47.5 L308.868,51 L306.124,51 Z M308.868,42.656 L308.868,45.288 L309.33,45.288 C309.591335,45.288 309.789666,45.2856667 309.925,45.281 C310.060334,45.2763333 310.232999,45.2506669 310.443,45.204 C310.653001,45.1573331 310.809333,45.0920004 310.912,45.008 C311.014667,44.9239996 311.105666,44.7980008 311.185,44.63 C311.264334,44.4619992 311.304,44.2520013 311.304,44 C311.304,43.7386654 311.266667,43.5216675 311.192,43.349 C311.117333,43.1763325 311.028667,43.0433338 310.926,42.95 C310.823333,42.8566662 310.671668,42.7890002 310.471,42.747 C310.270332,42.7049998 310.097667,42.6793334 309.953,42.67 C309.808333,42.6606666 309.600668,42.656 309.33,42.656 L308.868,42.656 Z M319.122,40.444 L319.122,48.676 L322.412,48.676 L322.412,51 L316.378,51 L316.378,40.444 L319.122,40.444 Z M329.614,40.094 C330.631338,40.094 331.583329,40.3203311 332.47,40.773 C333.356671,41.2256689 334.075331,41.8719958 334.626,42.712 C335.176669,43.5520042 335.452,44.4899948 335.452,45.526 C335.452,47.2340085 334.903672,48.6316612 333.807,49.719 C332.710328,50.8063388 331.312675,51.35 329.614,51.35 C327.915325,51.35 326.517672,50.8063388 325.421,49.719 C324.324328,48.6316612 323.776,47.2340085 323.776,45.526 C323.776,44.4899948 324.051331,43.5520042 324.602,42.712 C325.152669,41.8719958 325.871329,41.2256689 326.758,40.773 C327.644671,40.3203311 328.596662,40.094 329.614,40.094 L329.614,40.094 Z M329.614,42.754 C328.801996,42.754 328.102003,43.0339972 327.514,43.594 C326.925997,44.1540028 326.632,44.802663 326.632,45.54 C326.632,46.4360045 326.92133,47.184997 327.5,47.787 C328.07867,48.389003 328.783329,48.69 329.614,48.69 C330.444671,48.69 331.14933,48.389003 331.728,47.787 C332.30667,47.184997 332.596,46.4360045 332.596,45.54 C332.596,44.802663 332.302003,44.1540028 331.714,43.594 C331.125997,43.0339972 330.426004,42.754 329.614,42.754 L329.614,42.754 Z M340.456,45.932 L336.564,40.444 L339.854,40.444 L341.828,43.314 L343.802,40.444 L347.092,40.444 L343.2,45.932 L343.2,51 L340.456,51 L340.456,45.932 Z" id="DEPLOY" fill="#FAB23C" sketch:type="MSShapeGroup"></path>
                <path d="M88.266,11 L90.058,0.444 L92.76,0.444 L94.902,6.086 L97.17,0.444 L99.9,0.444 L101.496,11 L98.752,11 L97.982,4.924 L97.954,4.924 L95.42,11 L94.328,11 L91.906,4.924 L91.878,4.924 L90.996,11 L88.266,11 Z M108.964,0.094 C109.981338,0.094 110.933329,0.32033107 111.82,0.773 C112.706671,1.22566893 113.425331,1.8719958 113.976,2.712 C114.526669,3.5520042 114.802,4.48999482 114.802,5.526 C114.802,7.23400854 114.253672,8.63166123 113.157,9.719 C112.060328,10.8063388 110.662675,11.35 108.964,11.35 C107.265325,11.35 105.867672,10.8063388 104.771,9.719 C103.674328,8.63166123 103.126,7.23400854 103.126,5.526 C103.126,4.48999482 103.401331,3.5520042 103.952,2.712 C104.502669,1.8719958 105.221329,1.22566893 106.108,0.773 C106.994671,0.32033107 107.946662,0.094 108.964,0.094 L108.964,0.094 Z M108.964,2.754 C108.151996,2.754 107.452003,3.0339972 106.864,3.594 C106.275997,4.1540028 105.982,4.80266298 105.982,5.54 C105.982,6.43600448 106.27133,7.18499699 106.85,7.787 C107.42867,8.38900301 108.133329,8.69 108.964,8.69 C109.794671,8.69 110.49933,8.38900301 111.078,7.787 C111.65667,7.18499699 111.946,6.43600448 111.946,5.54 C111.946,4.80266298 111.652003,4.1540028 111.064,3.594 C110.475997,3.0339972 109.776004,2.754 108.964,2.754 L108.964,2.754 Z M117.076,11 L117.076,0.444 L119.82,0.444 L124.846,6.898 L124.874,6.898 L124.874,0.444 L127.618,0.444 L127.618,11 L124.874,11 L119.848,4.532 L119.82,4.532 L119.82,11 L117.076,11 Z" id="MON" fill="#5A89A1" sketch:type="MSShapeGroup"></path>
                <path d="M226.958,2.768 L223.64,2.768 L223.64,4.532 L226.65,4.532 L226.65,6.856 L223.64,6.856 L223.64,11 L220.896,11 L220.896,0.444 L226.958,0.444 L226.958,2.768 Z M234.944,6.674 L238.262,11 L234.846,11 L232.256,6.94 L232.228,6.94 L232.228,11 L229.484,11 L229.484,0.444 L233.586,0.444 C234.687339,0.444 235.573997,0.71466396 236.246,1.256 C236.918003,1.79733604 237.254,2.60932792 237.254,3.692 C237.254,4.44800378 237.051002,5.10133058 236.645,5.652 C236.238998,6.20266942 235.672004,6.54333268 234.944,6.674 L234.944,6.674 Z M232.228,2.544 L232.228,5.176 L232.494,5.176 C233.76334,5.176 234.398,4.73733772 234.398,3.86 C234.398,2.98266228 233.76334,2.544 232.494,2.544 L232.228,2.544 Z M242.748,0.444 L242.748,11 L240.004,11 L240.004,0.444 L242.748,0.444 Z" id="FRI" fill="#5A89A1" sketch:type="MSShapeGroup"></path>
                <path d="M97.096,140.768 L97.096,149 L94.352,149 L94.352,140.768 L92.084,140.768 L92.084,138.444 L99.364,138.444 L99.364,140.768 L97.096,140.768 Z M107.77,138.444 L110.514,138.444 L110.514,144.38 C110.514,145.238671 110.446334,145.959664 110.311,146.543 C110.175666,147.126336 109.874669,147.646664 109.408,148.104 C108.614663,148.888004 107.448008,149.28 105.908,149.28 C104.367992,149.28 103.201337,148.888004 102.408,148.104 C101.941331,147.646664 101.640334,147.126336 101.505,146.543 C101.369666,145.959664 101.302,145.238671 101.302,144.38 L101.302,138.444 L104.046,138.444 L104.046,144.002 C104.046,144.338002 104.053,144.617999 104.067,144.842 C104.081,145.066001 104.123,145.317999 104.193,145.598 C104.263,145.878001 104.360999,146.101999 104.487,146.27 C104.613001,146.438001 104.797332,146.580333 105.04,146.697 C105.282668,146.813667 105.571998,146.872 105.908,146.872 C106.244002,146.872 106.533332,146.813667 106.776,146.697 C107.018668,146.580333 107.202999,146.438001 107.329,146.27 C107.455001,146.101999 107.553,145.878001 107.623,145.598 C107.693,145.317999 107.735,145.066001 107.749,144.842 C107.763,144.617999 107.77,144.338002 107.77,144.002 L107.77,138.444 Z M119.256,140.768 L115.994,140.768 L115.994,142.532 L119.088,142.532 L119.088,144.856 L115.994,144.856 L115.994,146.676 L119.256,146.676 L119.256,149 L113.25,149 L113.25,138.444 L119.256,138.444 L119.256,140.768 Z" id="TUE" fill="#5A89A1" sketch:type="MSShapeGroup"></path>
                <path d="M154.646,138.444 L156.48,145.262 L156.508,145.262 L158.72,138.444 L160.904,138.444 L162.976,145.262 L163.004,145.262 L164.992,138.444 L167.848,138.444 L164.474,149 L161.674,149 L159.826,142.882 L159.798,142.882 L157.726,149 L154.94,149 L151.79,138.444 L154.646,138.444 Z M175.54,140.768 L172.278,140.768 L172.278,142.532 L175.372,142.532 L175.372,144.856 L172.278,144.856 L172.278,146.676 L175.54,146.676 L175.54,149 L169.534,149 L169.534,138.444 L175.54,138.444 L175.54,140.768 Z M178.234,149 L178.234,138.444 L182.126,138.444 C183.600674,138.444 184.862995,138.954995 185.913,139.977 C186.963005,140.999005 187.488,142.247326 187.488,143.722 C187.488,145.196674 186.963005,146.444995 185.913,147.467 C184.862995,148.489005 183.600674,149 182.126,149 L178.234,149 Z M180.978,140.768 L180.978,146.676 L181.594,146.676 C182.471338,146.676 183.196997,146.428669 183.771,145.934 C184.345003,145.439331 184.632,144.702005 184.632,143.722 C184.632,142.797995 184.356669,142.074669 183.806,141.552 C183.255331,141.029331 182.527338,140.768 181.622,140.768 L180.978,140.768 Z" id="WED" fill="#5A89A1" sketch:type="MSShapeGroup"></path>
                <path d="M222.096,140.768 L222.096,149 L219.352,149 L219.352,140.768 L217.084,140.768 L217.084,138.444 L224.364,138.444 L224.364,140.768 L222.096,140.768 Z M229.102,142.518 L233.064,142.518 L233.064,138.444 L235.808,138.444 L235.808,149 L233.064,149 L233.064,144.674 L229.102,144.674 L229.102,149 L226.358,149 L226.358,138.444 L229.102,138.444 L229.102,142.518 Z M245.012,138.444 L247.756,138.444 L247.756,144.38 C247.756,145.238671 247.688334,145.959664 247.553,146.543 C247.417666,147.126336 247.116669,147.646664 246.65,148.104 C245.856663,148.888004 244.690008,149.28 243.15,149.28 C241.609992,149.28 240.443337,148.888004 239.65,148.104 C239.183331,147.646664 238.882334,147.126336 238.747,146.543 C238.611666,145.959664 238.544,145.238671 238.544,144.38 L238.544,138.444 L241.288,138.444 L241.288,144.002 C241.288,144.338002 241.295,144.617999 241.309,144.842 C241.323,145.066001 241.365,145.317999 241.435,145.598 C241.505,145.878001 241.602999,146.101999 241.729,146.27 C241.855001,146.438001 242.039332,146.580333 242.282,146.697 C242.524668,146.813667 242.813998,146.872 243.15,146.872 C243.486002,146.872 243.775332,146.813667 244.018,146.697 C244.260668,146.580333 244.444999,146.438001 244.571,146.27 C244.697001,146.101999 244.795,145.878001 244.865,145.598 C244.935,145.317999 244.977,145.066001 244.991,144.842 C245.005,144.617999 245.012,144.338002 245.012,144.002 L245.012,138.444 Z" id="THU" fill="#5A89A1" sketch:type="MSShapeGroup"></path>
            </g>
        </g>
    </g>
</svg>