<svg width="42" height="41" fill="none" xmlns="http://www.w3.org/2000/svg">
    <ellipse cx="36.527" cy="5.147" rx="5.375" ry="5.147" fill="url(#paint0_radial)"/>
    <path d="M24.696 12.987h.56l-.56-9.856c-3.08-1.68-7.448-2.52-10.864-2.52C6.16.611 0 4.531 0 11.923c0 12.208 19.208 11.592 19.208 21.728 0 4.816-3.36 6.72-6.552 6.72-6.216 0-10.192-5.376-12.04-12.656h-.56l.56 10.416c3.08 1.68 7.952 2.8 11.984 2.8 7.504 0 14.392-3.808 14.392-12.432 0-12.712-19.208-12.544-19.208-22.12 0-3.696 2.856-5.208 6.104-5.208 5.264 0 8.96 5.768 10.808 11.816z" fill="#045CFC"/>
    <defs>
        <radialGradient id="paint0_radial" cx="0" cy="0" r="1" gradientUnits="userSpaceOnUse" gradientTransform="rotate(128.89 19.677 10.384) scale(8.54599 9.02566)">
            <stop stop-color="#045CFC" stop-opacity=".6"/>
            <stop offset="1" stop-color="#045CFC"/>
        </radialGradient>
    </defs>
</svg>
