<svg xmlns="http://www.w3.org/2000/svg" viewBox="0 0 200 200" xmlns:xlink="http://www.w3.org/1999/xlink"><defs><ellipse id="path-1" cx="99.94" cy="100.27" rx="99.94" ry="99.6"/><linearGradient id="linearGradient-3" x1="37.58%" x2="37.58%" y1="-6.25%" y2="118.85%"><stop stop-color="#09DFF3" offset="0%"/><stop stop-color="#44BEFF" offset="100%"/></linearGradient></defs><g id="Design-Sprint" fill="none" fill-rule="evenodd"><g id="Work---Product-Development-Copy-3"><g id="build"><g id="Rectangle-124-Copy-17" transform="translate(0 -.223)"><mask id="mask-2" fill="#fff"><use xlink:href="#path-1"/></mask><use id="Mask" fill="#EBF5FA" xlink:href="#path-1"/><path id="Rectangle-124" fill="#555" d="M-.33 173.2h199.87v26.68H-.33z" mask="url(#mask-2)"/></g><g id="Group-Copy-13" transform="translate(73.492 37.377)"><g id="Group"><path id="Rectangle-7-Copy-42" fill="#555" d="M32.44 128.76v6.9H20.9v-6.9h11.54z"/><path id="Rectangle-7-Copy-43" fill="#444" d="M32.44 128.76v6.9h-5.77v-6.9h5.77z"/><path id="Oval-11-Copy-12" fill="#E1A732" d="M26.82 126.55c2 0 3.6-.98 3.6-4.3 0-3.3-4-8.1-4-8.1s.48 1.23-.3 2.44c-1 1.55-2.9 3.8-2.9 5.64 0 3.3 1.6 4.3 3.6 4.3z"/><path id="Oval-11-Copy-13" fill="#F9BA37" d="M26.85 125.88c.95 0 1.72-.46 1.72-2.04s-1.6-3.92-1.6-3.92.2.8-.23 1.52c-.42.72-1.6 1.62-1.6 2.4 0 1.58.76 2.04 1.7 2.04z"/><path id="Rectangle-16-Copy-9" fill="#DCDCDC" d="M22.45 125.7h8.45v3.06h-8.45z"/><path id="Rectangle-16-Copy-10" fill="#C9C9C9" d="M26.67 125.7h4.23v3.06h-4.23z"/></g><path id="Rectangle-11-Copy-17" fill="#FFF" d="M18.44 36.55H34.9V64.2H18.44z"/><path id="Rectangle-11-Copy-22" fill="#FFF" d="M18.44 64.2c-9.3 3.4-15.8 12.57-15.8 23.35 0 13.66 10.76 24.74 24.03 24.74 13.28 0 24.04-11.1 24.04-24.77 0-10.78-6.66-19.94-15.8-23.34H18.47z"/><path id="Rectangle-11-Copy-18" fill="url(#linearGradient-3)" d="M21.27 56.3c.94 0 1.9-1.97 2.84-1.97 1.5 0 1.28 1.32 2.78 1.32 1.13 0 2.36-1.65 3.48-1.65.43 0 1.35 1.06 2.25 1.13 1.17.1 2.3-.8 2.3-.8v9.88H18.46v-9.85s1.88 1.98 2.83 1.98zm-2.83 7.9c-9.3 3.4-15.8 12.57-15.8 23.35 0 13.66 10.76 24.74 24.03 24.74 13.28 0 24.04-11.1 24.04-24.77 0-10.78-6.66-19.94-15.8-23.34H18.47z"/><path id="Rectangle-11-Copy-23" fill="#000" fill-opacity=".05" d="M26.67 64.2v48.1c13.28 0 24.04-11.1 24.04-24.75 0-10.78-6.66-19.94-15.8-23.34h-8.2z"/><rect id="Rectangle-32-Copy-5" width="52.69" height="3.29" x=".33" y="94.84" fill="#454545" rx="4"/><path id="Rectangle-507-Copy-3" fill="#454545" d="M1.98 98.13h3.3v37.54h-3.3z"/><path id="Rectangle-507-Copy-4" fill="#454545" d="M48.08 98.13h3.3v37.54h-3.3z"/><rect id="Rectangle-12-Copy-13" width="19.76" height="1.98" x="16.79" y="34.58" fill="#FFF" rx="40"/><rect id="Rectangle-12-Copy-16" width="9.88" height="1.98" x="26.67" y="34.58" fill="#000" fill-opacity=".05" rx="40"/><path id="Rectangle-506-Copy" fill="#000" fill-opacity=".05" d="M26.67 36.55h8.23V64.2h-8.23z"/><g id="Group" fill="#FFF" transform="translate(17.535)"><ellipse id="Oval-94-Copy-17" cx="3.17" cy="15.56" rx="3.11" ry="3.11"/><ellipse id="Oval-95-Copy-17" cx="16" cy="19.84" rx="1.94" ry="1.94"/><ellipse id="Oval-96-Copy-31" cx="9.78" cy="27.61" rx="1.94" ry="1.94"/><circle id="Oval-96-Copy-32" cx="12.5" cy="4.67" r="4.67"/></g></g><path id="Path-763-Copy-6" fill="#000" fill-opacity=".05" d="M91.9 73.9v1.06h16.5v-1.04H91.9z"/></g></g></g></svg>