<svg xmlns="http://www.w3.org/2000/svg" viewBox="0 0 200 200" xmlns:xlink="http://www.w3.org/1999/xlink"><defs><ellipse id="path-1" cx="99.94" cy="100.27" rx="99.94" ry="99.6"/><linearGradient id="linearGradient-3" x1="37.58%" x2="37.58%" y1="-6.25%" y2="118.85%"><stop stop-color="#09DFF3" offset="0%"/><stop stop-color="#44BEFF" offset="100%"/></linearGradient><linearGradient id="linearGradient-4" x1="37.58%" x2="37.58%" y1="-6.25%" y2="118.85%"><stop stop-color="#09DFF3" offset="0%"/><stop stop-color="#2FEAE9" offset="100%"/></linearGradient><linearGradient id="linearGradient-5" x1="0%" x2="46.08%" y1="88.38%" y2="38.32%"><stop stop-color="#09DFF3" offset="0%"/><stop stop-color="#44BEFF" offset="100%"/></linearGradient></defs><g id="Design-Sprint" fill="none" fill-rule="evenodd"><g id="Work---Product-Development-Copy-3"><g id="converge"><g id="Rectangle-124-Copy-17-+-Group-Copy-12-Copy"><g id="Rectangle-124-Copy-17" transform="translate(0 -.445)"><mask id="mask-2" fill="#fff"><use xlink:href="#path-1"/></mask><use id="Mask" fill="#EBF5FA" xlink:href="#path-1"/><path id="Rectangle-124" fill="#555" d="M-.33 173.2h199.87v26.68H-.33z" mask="url(#mask-2)"/></g></g><g id="Group-Copy-33" transform="translate(60.487 20.755)"><g id="Rectangle-126-Copy-12-+-Rectangle-126-Copy-11-+-Rectangle-12-Copy-21" transform="rotate(-240 19.595 24.216) translate(14.551 4.711)"><path id="Rectangle-126-Copy-12" fill="#FFF" d="M1.68 2.02H8.4v37H1.7z"/><path id="Rectangle-126-Copy-11" fill="url(#linearGradient-3)" d="M8.4 2.02V35.9C8.4 37.62 7 39 5.3 39h-.5c-1.73 0-2.87-1.35-2.56-3.05L8.4 2.02z"/><rect id="Rectangle-12-Copy-21" width="10.09" height="2.02" fill="#FFF" rx="40"/></g><g id="Rectangle-126-Copy-14-+-Rectangle-126-Copy-13-+-Rectangle-12-Copy-28" transform="matrix(.5 .866 .866 -.5 40.109 19.508)"><path id="Rectangle-126-Copy-14" fill="#FFF" d="M1.68 2.02H8.4v37H1.7z"/><path id="Rectangle-126-Copy-13" fill="url(#linearGradient-4)" d="M8.4 2.02V35.9C8.4 37.62 7 39 5.3 39h-.5c-1.73 0-2.87-1.35-2.56-3.05L8.4 2.02z"/><rect id="Rectangle-12-Copy-28" width="10.09" height="2.02" fill="#FFF" rx="40"/></g><path id="Rectangle-125-Copy-5" fill="url(#linearGradient-5)" d="M34.66 40.02l.82 21.5s.1 1-.82 1c-.9 0-.86-1-.86-1l.86-21.5z"/><path id="Rectangle-11-Copy-15" fill="#FFF" d="M31.6 68.94h16.82V97.2h-16.8z"/><path id="Rectangle-11-Copy-19" fill="#FFF" d="M31.6 97.2c-9.5 3.44-16.12 12.8-16.12 23.8 0 13.95 11 25.26 24.55 25.26 13.56 0 24.55-11.3 24.55-25.26 0-11-6.83-20.37-16.15-23.83h-16.8z"/><path id="Rectangle-11-Copy-21" fill="#000" fill-opacity=".05" d="M40.02 97.2v49.08c13.56 0 24.55-11.3 24.55-25.26 0-11-6.83-20.37-16.15-23.83h-8.4z"/><rect id="Rectangle-32-Copy-4" width="53.81" height="3.36" x="13.12" y="128.46" fill="#454545" rx="4"/><path id="Rectangle-507" fill="#454545" d="M38.34 131.82h3.36V152h-3.36z"/><path id="Rectangle-507-Copy" fill="#454545" d="M18.16 131.82h3.36L11.42 152H8.08l10.1-20.18z"/><path id="Rectangle-507-Copy-2" fill="#454545" d="M61.88 131.82H58.5L68.6 152h3.36l-10.08-20.18z"/><rect id="Rectangle-12-Copy-12" width="20.18" height="2.02" x="29.93" y="66.92" fill="#FFF" rx="40"/><rect id="Rectangle-12-Copy-15" width="10.09" height="2.02" x="40.02" y="66.92" fill="#000" fill-opacity=".05" rx="40"/><path id="Rectangle-506" fill="#000" fill-opacity=".05" d="M40.02 68.94h8.4V97.2h-8.4z"/><path id="Rectangle-125-Copy-6" fill="url(#linearGradient-4)" d="M44.75 29.93l.82 21.5s.08 1.02-.82 1.02c-.9 0-.87-1-.87-1l.87-21.52z" transform="matrix(-1 0 0 1 89.452 0)"/></g><path id="Path-763-Copy-5" fill="#000" fill-opacity=".05" d="M92.1 89.68v1.04h16.8v-1.04H92.1z"/></g></g></g></svg>