<svg xmlns="http://www.w3.org/2000/svg" viewBox="0 0 200 200" xmlns:xlink="http://www.w3.org/1999/xlink"><defs><ellipse id="explore-path-1" cx="100.17" cy="100.27" rx="99.54" ry="99.6"/><linearGradient id="explore-linearGradient-3" x1="37.58%" x2="37.58%" y1="-6.25%" y2="118.85%"><stop stop-color="#80C1E2" offset="0%"/><stop stop-color="#5A89A1" offset="100%"/></linearGradient><linearGradient id="explore-linearGradient-4" x1="37.58%" x2="37.58%" y1="118.85%" y2="-6.25%"><stop stop-color="#EDF4F8" offset="0%"/><stop stop-color="#C3CACE" offset="100%"/></linearGradient><linearGradient id="explore-linearGradient-5" x1="37.58%" x2="37.58%" y1="-6.25%" y2="118.85%"><stop stop-color="#09DFF3" offset="0%"/><stop stop-color="#44BEFF" offset="100%"/></linearGradient><linearGradient id="explore-linearGradient-6" x1="37.58%" x2="37.58%" y1="118.85%" y2="-6.25%"><stop stop-color="#F9BA37" offset="0%"/><stop stop-color="#FFDF68" offset="100%"/></linearGradient><linearGradient id="explore-linearGradient-7" x1="37.58%" x2="37.58%" y1="-6.25%" y2="118.85%"><stop stop-color="#09DFF3" offset="0%"/><stop stop-color="#2FEAE9" offset="100%"/></linearGradient></defs><g fill="none" fill-rule="evenodd"><g><g id="explore"><g transform="translate(0 -.36)"><mask id="explore-mask-2" fill="#fff"><use xlink:href="#explore-path-1"/></mask><use fill="#EBF5FA" xlink:href="#explore-path-1"/><path fill="#555" d="M.63 173.2H199.7v26.68H.64z" mask="url(#explore-mask-2)"/><g mask="url(#explore-mask-2)"><g transform="translate(23.476 84.895)"><g transform="translate(27.294)"><g transform="translate(0 28.96)"><path fill="#FFF" d="M15.13 2.43h14.53v31.6H15.13z"/><path fill="#000" fill-opacity=".05" d="M22.4 2.43h7.26v31.6H22.4z"/><rect width="18.16" height="2.43" x="13.32" fill="#FFF" rx="40"/><rect width="9.08" height="2.43" x="22.4" fill="#000" fill-opacity=".05" rx="40"/><path fill="#FFF" d="M15.1 34.04h14.6l12.5 15.58c4.42 5.5 2.28 9.95-4.77 9.95H7.35c-7.06 0-9.2-4.45-4.77-9.95L15.1 34.04z"/><path fill="#000" fill-opacity=".05" d="M22.4 34.04h7.3l12.53 15.6c4.4 5.48 2.3 9.93-4.72 9.93H22.4V34.04z"/><path fill="url(#explore-linearGradient-3)" d="M42.47 49.62c4.46 5.5 2.32 9.93-4.78 9.93H7.1c-7.1 0-9.23-4.44-4.77-9.93l5.03-5.87s2.6 2.43 4.03 2.43c1.46 0 3.2-2.5 5.1-2.62 1.7-.1 3.5 2.27 5.3 2.24 1.4-.02 2.76-2.53 4.1-2.64 1.62-.13 3.17 2.27 4.6 2.3 1.7.04 3.2-1.45 4.37-1.8 1.73-.5 2.5 0 2.5 0l5.07 5.96z"/><path fill="#000" fill-opacity=".1" d="M37.7 59.55c7.1 0 9.23-4.44 4.77-9.93l-5.06-5.95s-.75-.5-2.5 0c-1.2.34-2.7 1.83-4.4 1.8-1.4-.04-2.94-2.44-4.56-2.3-1.15.1-2.33 1.96-3.52 2.5v13.88h15.3z"/></g><ellipse cx="16.35" cy="13.16" fill="#FFF" rx="2.42" ry="2.43"/><ellipse cx="26.33" cy="16.5" fill="#FFF" rx="1.51" ry="1.52"/><ellipse cx="21.49" cy="22.58" fill="#FFF" rx="1.51" ry="1.52"/><ellipse cx="23.61" cy="4.65" fill="#FFF" rx="3.63" ry="3.65"/></g><g transform="translate(81.114 1)"><g transform="translate(0 27.96)"><path fill="#FFF" d="M15.13 2.43h14.53v31.6H15.13z"/><path fill="#000" fill-opacity=".05" d="M22.4 2.43h7.26v31.6H22.4z"/><rect width="18.16" height="2.43" x="13.32" fill="#FFF" rx="40"/><rect width="9.08" height="2.43" x="22.4" fill="#000" fill-opacity=".05" rx="40"/><path fill="#FFF" d="M15.1 34.04h14.6l12.5 15.58c4.42 5.5 2.28 9.95-4.77 9.95H7.35c-7.06 0-9.2-4.45-4.77-9.95L15.1 34.04z"/><path fill="#000" fill-opacity=".05" d="M22.4 34.04h7.3l12.53 15.6c4.4 5.48 2.3 9.93-4.72 9.93H22.4V34.04z"/><path fill="url(#explore-linearGradient-4)" d="M42.47 49.62c4.46 5.5 2.32 9.93-4.78 9.93H7.1c-7.1 0-9.23-4.44-4.77-9.93l5.03-5.87s2.6 2.43 4.03 2.43c1.46 0 3.2-2.5 5.1-2.62 1.7-.1 3.5 2.27 5.3 2.24 1.4-.02 2.76-2.53 4.1-2.64 1.62-.13 3.17 2.27 4.6 2.3 1.7.04 3.2-1.45 4.37-1.8 1.73-.5 2.5 0 2.5 0l5.07 5.96z"/><path fill="#000" fill-opacity=".1" d="M37.7 59.55c7.1 0 9.23-4.44 4.77-9.93l-5.06-5.95s-.75-.5-2.5 0c-1.2.34-2.7 1.83-4.4 1.8-1.4-.04-2.94-2.44-4.56-2.3-1.15.1-2.33 1.96-3.52 2.5v13.88h15.3z"/></g><ellipse cx="16.35" cy="12.16" fill="#FFF" rx="2.42" ry="2.43"/><ellipse cx="26.33" cy="15.5" fill="#FFF" rx="1.51" ry="1.52"/><ellipse cx="21.49" cy="21.58" fill="#FFF" rx="1.51" ry="1.52"/><ellipse cx="23.61" cy="3.65" fill="#FFF" rx="3.63" ry="3.65"/></g><g transform="translate(0 28.96)"><path fill="#FFF" d="M15.13 2.43h14.53v31.6H15.13z"/><path fill="#000" fill-opacity=".05" d="M22.4 2.43h7.26v31.6H22.4z"/><rect width="18.16" height="2.43" x="13.32" fill="#FFF" rx="40"/><rect width="9.08" height="2.43" x="22.4" fill="#000" fill-opacity=".05" rx="40"/><path fill="#FFF" d="M15.1 34.04h14.6l12.5 15.58c4.42 5.5 2.28 9.95-4.77 9.95H7.35c-7.06 0-9.2-4.45-4.77-9.95L15.1 34.04z"/><path fill="#000" fill-opacity=".05" d="M22.4 34.04h7.3l12.53 15.6c4.4 5.48 2.3 9.93-4.72 9.93H22.4V34.04z"/><path fill="url(#explore-linearGradient-5)" d="M42.47 49.62c4.46 5.5 2.32 9.93-4.78 9.93H7.1c-7.1 0-9.23-4.44-4.77-9.93l5.03-5.87s2.6 2.43 4.03 2.43c1.46 0 3.2-2.5 5.1-2.62 1.7-.1 3.5 2.27 5.3 2.24 1.4-.02 2.76-2.53 4.1-2.64 1.62-.13 3.17 2.27 4.6 2.3 1.7.04 3.2-1.45 4.37-1.8 1.73-.5 2.5 0 2.5 0l5.07 5.96z"/><path fill="#000" fill-opacity=".1" d="M37.7 59.55c7.1 0 9.23-4.44 4.77-9.93l-5.06-5.95s-.75-.5-2.5 0c-1.2.34-2.7 1.83-4.4 1.8-1.4-.04-2.94-2.44-4.56-2.3-1.15.1-2.33 1.96-3.52 2.5v13.88h15.3z"/></g><ellipse cx="16.35" cy="13.16" fill="#FFF" rx="2.42" ry="2.43"/><ellipse cx="26.33" cy="16.5" fill="#FFF" rx="1.51" ry="1.52"/><ellipse cx="21.49" cy="22.58" fill="#FFF" rx="1.51" ry="1.52"/><ellipse cx="23.61" cy="4.65" fill="#FFF" rx="3.63" ry="3.65"/><g transform="translate(54.486 28.96)"><path fill="#FFF" d="M15.13 2.43h14.53v31.6H15.13z"/><path fill="#000" fill-opacity=".05" d="M22.4 2.43h7.26v31.6H22.4z"/><rect width="18.16" height="2.43" x="13.32" fill="#FFF" rx="40"/><rect width="9.08" height="2.43" x="22.4" fill="#000" fill-opacity=".05" rx="40"/><path fill="#FFF" d="M15.1 34.04h14.6l12.5 15.58c4.42 5.5 2.28 9.95-4.77 9.95H7.35c-7.06 0-9.2-4.45-4.77-9.95L15.1 34.04z"/><path fill="#000" fill-opacity=".05" d="M22.4 34.04h7.3l12.53 15.6c4.4 5.48 2.3 9.93-4.72 9.93H22.4V34.04z"/><path fill="url(#explore-linearGradient-6)" d="M42.47 49.62c4.46 5.5 2.32 9.93-4.78 9.93H7.1c-7.1 0-9.23-4.44-4.77-9.93l5.03-5.87s2.6 2.43 4.03 2.43c1.46 0 3.2-2.5 5.1-2.62 1.7-.1 3.5 2.27 5.3 2.24 1.4-.02 2.76-2.53 4.1-2.64 1.62-.13 3.17 2.27 4.6 2.3 1.7.04 3.2-1.45 4.37-1.8 1.73-.5 2.5 0 2.5 0l5.07 5.96z"/><path fill="#000" fill-opacity=".1" d="M37.7 59.55c7.1 0 9.23-4.44 4.77-9.93l-5.06-5.95s-.75-.5-2.5 0c-1.2.34-2.7 1.83-4.4 1.8-1.4-.04-2.94-2.44-4.56-2.3-1.15.1-2.33 1.96-3.52 2.5v13.88h15.3z"/></g><ellipse cx="70.83" cy="13.16" fill="#FFF" rx="2.42" ry="2.43"/><ellipse cx="80.82" cy="16.5" fill="#FFF" rx="1.51" ry="1.52"/><ellipse cx="75.98" cy="22.58" fill="#FFF" rx="1.51" ry="1.52"/><ellipse cx="78.1" cy="4.65" fill="#FFF" rx="3.63" ry="3.65"/><g transform="translate(108.366 28.96)"><path fill="#FFF" d="M15.13 2.43h14.53v31.6H15.13z"/><path fill="#000" fill-opacity=".05" d="M22.4 2.43h7.26v31.6H22.4z"/><rect width="18.16" height="2.43" x="13.32" fill="#FFF" rx="40"/><rect width="9.08" height="2.43" x="22.4" fill="#000" fill-opacity=".05" rx="40"/><path fill="#FFF" d="M15.1 34.04h14.6l12.5 15.58c4.42 5.5 2.28 9.95-4.77 9.95H7.35c-7.06 0-9.2-4.45-4.77-9.95L15.1 34.04z"/><path fill="#000" fill-opacity=".05" d="M22.4 34.04h7.3l12.53 15.6c4.4 5.48 2.3 9.93-4.72 9.93H22.4V34.04z"/><path fill="url(#explore-linearGradient-7)" d="M42.47 49.62c4.46 5.5 2.32 9.93-4.78 9.93H7.1c-7.1 0-9.23-4.44-4.77-9.93l5.03-5.87s2.6 2.43 4.03 2.43c1.46 0 3.2-2.5 5.1-2.62 1.7-.1 3.5 2.27 5.3 2.24 1.4-.02 2.76-2.53 4.1-2.64 1.62-.13 3.17 2.27 4.6 2.3 1.7.04 3.2-1.45 4.37-1.8 1.73-.5 2.5 0 2.5 0l5.07 5.96z"/><path fill="#000" fill-opacity=".1" d="M37.7 59.55c7.1 0 9.23-4.44 4.77-9.93l-5.06-5.95s-.75-.5-2.5 0c-1.2.34-2.7 1.83-4.4 1.8-1.4-.04-2.94-2.44-4.56-2.3-1.15.1-2.33 1.96-3.52 2.5v13.88h15.3z"/></g><ellipse cx="124.71" cy="13.16" fill="#FFF" rx="2.42" ry="2.43"/><ellipse cx="134.7" cy="16.5" fill="#FFF" rx="1.51" ry="1.52"/><ellipse cx="129.86" cy="22.58" fill="#FFF" rx="1.51" ry="1.52"/><ellipse cx="131.98" cy="4.65" fill="#FFF" rx="3.63" ry="3.65"/></g></g></g><path fill="#000" fill-opacity=".05" d="M38.63 115.92v1.04H53.1v-1.04H38.63z"/><path fill="#000" fill-opacity=".05" d="M65.9 115.92v1.04h14.48v-1.04H65.9z"/><path fill="#000" fill-opacity=".05" d="M93.1 115.92v1.04h14.48v-1.04H93.1z"/><path fill="#000" fill-opacity=".05" d="M119.74 115.92v1.04h14.48v-1.04h-14.48z"/><path fill="#000" fill-opacity=".05" d="M147 115.92v1.04h14.48v-1.04H147z"/></g></g></g></svg>
