<svg xmlns="http://www.w3.org/2000/svg" viewBox="0 0 200 199" xmlns:xlink="http://www.w3.org/1999/xlink"><defs><ellipse id="learn-path-1" cx="100.54" cy="99.93" rx="99.54" ry="99.21"/></defs><g fill="none" fill-rule="evenodd"><g><g id="learn"><g transform="translate(-.728 -.497)"><mask id="learn-mask-2" fill="#fff"><use xlink:href="#learn-path-1"/></mask><use fill="#EBF5FA" xlink:href="#learn-path-1"/><g mask="url(#learn-mask-2)"><path id="Rectangle-530" fill="#FFF" stroke="#F9BA37" stroke-width="4" d="M-3.13 28.53h207.45v103.73H-3.13z"/><g><path id="H" fill="#5A89A1" d="M70 120.8h-3.4v-.38c.35-.14.72-.25 1.1-.32v-7.98c-.43-.06-.8-.17-1.1-.33v-.4H70v.4l-.5.2c-.16 0-.33.1-.5.1v3.5h4.2v-3.5l-.52-.2c-.17-.1-.32-.1-.48-.2v-.4h3.4v.4c-.15.1-.33.1-.52.2-.2 0-.4.1-.58.1v8l.6.1c.18 0 .35.1.5.2v.4h-3.4v-.4c.33-.2.66-.3 1-.4v-3.8H69v3.8l.5.1c.18 0 .34.1.5.2v.4z"/><path id="H-Copy" fill="#5A89A1" d="M94.67 120.8h-3.4v-.38c.35-.14.72-.25 1.1-.32v-7.98c-.43-.06-.8-.17-1.1-.33v-.4h3.4v.4l-.5.2c-.16 0-.33.1-.5.1v3.5h4.2v-3.5l-.52-.2c-.17-.1-.32-.1-.48-.2v-.4h3.4v.4c-.15.1-.33.1-.52.2-.2 0-.4.1-.58.1v8l.6.1c.18 0 .35.1.5.2v.4h-3.4v-.4c.33-.2.66-.3 1-.4v-3.8h-4.2v3.8l.5.1c.18 0 .34.1.5.2v.4z"/><path id="H-Copy-2" fill="#5A89A1" d="M86.82 72.04h-3.4v-.4c.35-.14.72-.25 1.1-.32v-7.98c-.43-.06-.8-.17-1.1-.33v-.3h3.4v.4l-.5.2c-.16.1-.33.1-.5.1v3.5H90v-3.5l-.52-.1c-.17 0-.32-.1-.48-.2v-.3h3.4v.4c-.15.1-.33.2-.52.2-.2.1-.4.1-.58.1v8l.6.2c.18.1.36.1.5.2v.4H89v-.4l1-.3v-3.8h-4.2v3.8l.5.2c.18.1.34.1.5.2v.4z"/><path id="O" fill="#5A89A1" d="M28.4 84.88c0-.7.1-1.35.3-1.94.2-.6.47-1.12.83-1.55.37-.5.8-.8 1.34-1.1.53-.3 1.13-.4 1.8-.4.68 0 1.28.1 1.8.3.54.2.98.6 1.35 1 .36.4.64.9.83 1.5.2.6.3 1.2.3 1.9s-.1 1.3-.3 1.9c-.2.6-.47 1.1-.83 1.5-.37.4-.8.7-1.34 1-.53.2-1.13.3-1.8.3-.68 0-1.28-.1-1.8-.4-.54-.3-.98-.6-1.35-1-.36-.5-.64-1-.83-1.6-.2-.6-.3-1.3-.3-2zm1.45 0c0 .58.06 1.12.18 1.62s.3.95.55 1.33c.24.38.54.67.9.9.38.2.8.32 1.32.32.45 0 .85-.1 1.2-.33.34-.22.62-.5.84-.9.2-.37.38-.8.5-1.32.1-.5.16-1.04.16-1.62 0-.57-.06-1.1-.17-1.62-.12-.5-.3-.95-.54-1.33-.3-.37-.6-.67-1-.9-.4-.2-.8-.32-1.3-.32s-.9.2-1.3.4-.7.5-.9.9c-.2.4-.4.8-.5 1.3-.1.5-.2 1.1-.2 1.6z"/><path id="O-Copy" fill="#5A89A1" d="M45.4 116.1c0-.7.1-1.34.3-1.94.2-.6.47-1.1.84-1.55.36-.4.8-.7 1.33-1s1.13-.3 1.8-.3c.68 0 1.28.2 1.8.4.54.3 1 .6 1.35 1 .36.5.64 1 .83 1.6.2.6.3 1.3.3 2s-.1 1.4-.3 2c-.2.6-.47 1.1-.83 1.6s-.8.8-1.34 1c-.53.3-1.13.4-1.8.4-.68 0-1.28-.1-1.8-.3-.54-.2-.98-.5-1.34-1-.37-.4-.65-.9-.84-1.5-.2-.6-.3-1.2-.3-1.9zm1.45 0c0 .58.06 1.12.18 1.63.12.5.3.95.55 1.32.24.38.55.68.9.9.38.22.82.33 1.32.33.46 0 .86-.1 1.2-.33.34-.22.62-.52.84-.9.22-.37.38-.82.5-1.32.1-.5.16-1.05.16-1.62 0-.5-.06-1.1-.17-1.6-.12-.5-.3-.9-.54-1.3-.3-.4-.6-.7-1-.9-.4-.2-.8-.3-1.3-.3s-.9.1-1.3.4c-.4.2-.6.5-.9.9-.2.4-.4.8-.5 1.3-.1.5-.2 1.1-.2 1.7z"/><path stroke="#5A89A1" d="M48.45 104.8v4.47" stroke-linecap="square"/><path id="N" fill="#5A89A1" d="M51.36 93.4h2.9v.4c-.37.25-.74.42-1.1.53V103h-.76l-4.9-7.43-.5-1.05h-.05l.12 1.05v6.4c.36.1.7.25 1.03.46v.4h-2.9v-.4c.16-.1.33-.18.5-.26.2-.08.4-.14.6-.2v-7.72l-.53-.23-.5-.24v-.38h2.28l4.24 6.4.6 1.15-.1-1.15v-5.47l-.6-.25-.5-.3v-.38z"/><path stroke="#5A89A1" d="M38.36 89.1l4.48 2.8" stroke-linecap="square"/><path stroke="#5A89A1" d="M72.56 89.1l4.5 2.8" stroke-linecap="square"/><path stroke="#5A89A1" d="M107.32 89.1l4.5 2.8" stroke-linecap="square"/><path id="O-Copy-2" fill="#5A89A1" d="M62.05 84.88c0-.7.1-1.35.3-1.94.18-.6.46-1.12.82-1.55.37-.5.8-.8 1.34-1.1.6-.3 1.2-.4 1.9-.4s1.3.1 1.8.3c.6.2 1 .6 1.4 1 .4.4.7.9.9 1.5.2.6.3 1.2.3 1.9s-.1 1.3-.3 1.9c-.2.6-.4 1.1-.8 1.5-.4.4-.8.7-1.3 1-.5.2-1.1.3-1.8.3s-1.3-.1-1.8-.4c-.5-.3-1-.6-1.3-1-.3-.5-.6-1-.8-1.6-.2-.6-.3-1.3-.3-2zm1.44 0c0 .58 0 1.12.1 1.62s.3.95.5 1.33c.2.38.5.67.9.9.4.2.8.32 1.3.32.4 0 .8-.1 1.2-.33.3-.22.6-.5.8-.9.2-.37.4-.8.5-1.32.1-.5.1-1.04.1-1.62 0-.57-.1-1.1-.2-1.62-.2-.5-.3-.95-.6-1.33-.3-.37-.6-.67-.9-.9-.4-.2-.8-.32-1.3-.32s-.9.2-1.3.4-.7.5-.9.9c-.2.4-.4.8-.5 1.3-.1.5-.2 1.1-.2 1.6z"/><path id="O-Copy-8" fill="#5A89A1" d="M140.54 67.5c0-.7.1-1.35.3-1.94.2-.6.47-1.12.83-1.55.36-.4.8-.7 1.34-1 .6-.2 1.2-.3 1.8-.3.7 0 1.3.1 1.8.4.6.3 1 .6 1.4 1 .4.5.7 1 .9 1.6.2.6.3 1.3.3 2s-.1 1.4-.3 2c-.2.6-.4 1.1-.8 1.6-.3.4-.8.8-1.3 1-.5.2-1.1.4-1.8.4-.6 0-1.2-.1-1.8-.3-.5-.2-.9-.5-1.3-1-.3-.4-.6-.9-.8-1.5-.2-.6-.3-1.2-.3-1.9zm1.44 0c0 .57.07 1.1.2 1.62.1.5.3.95.53 1.33.3.37.6.67 1 .9.4.2.8.32 1.3.32s.9-.1 1.2-.33c.4-.22.6-.52.9-.9.2-.37.4-.8.5-1.32.1-.5.2-1.05.2-1.62 0-.57 0-1.1-.2-1.62-.1-.5-.3-.95-.5-1.33-.2-.37-.5-.67-.9-.9-.4-.2-.8-.32-1.3-.32s-.9.1-1.2.33c-.3.22-.6.52-.8.9-.2.37-.3.8-.4 1.32-.1.5-.1 1.05-.1 1.62z"/><path id="O-Copy-3" fill="#5A89A1" d="M108.03 67.5c0-.7.1-1.35.28-1.94.2-.6.5-1.12.9-1.55.4-.4.8-.7 1.4-1 .6-.2 1.2-.3 1.8-.3.7 0 1.3.1 1.8.4.6.3 1 .6 1.4 1 .4.5.7 1 .9 1.6.2.6.3 1.3.3 2s-.1 1.4-.3 2c-.2.6-.4 1.1-.8 1.6-.3.4-.8.8-1.3 1s-1.1.4-1.8.4-1.3-.1-1.8-.3-1-.5-1.3-1c-.4-.4-.7-.9-.9-1.5-.2-.6-.3-1.2-.3-1.9zm1.44 0c0 .57.06 1.1.18 1.62.12.5.3.95.54 1.33.2.37.5.67.9.9.3.2.8.32 1.3.32.4 0 .8-.1 1.2-.33.3-.22.6-.52.8-.9.2-.37.4-.8.5-1.32.1-.5.1-1.05.1-1.62 0-.57-.1-1.1-.2-1.62-.1-.5-.3-.95-.6-1.33-.3-.37-.6-.67-.9-.9-.4-.2-.8-.32-1.4-.32-.5 0-.9.1-1.3.33-.4.22-.7.52-.9.9-.2.37-.4.8-.5 1.32-.1.5-.2 1.05-.2 1.62z"/><path stroke="#5A89A1" d="M60.8 89.1l-4.5 2.8" stroke-linecap="square"/><path stroke="#5A89A1" d="M139.84 89.1l4.5 2.8" stroke-linecap="square"/><path id="O-Copy-4" fill="#5A89A1" d="M129.33 84.88c0-.7.1-1.35.3-1.94.18-.6.46-1.12.82-1.55.37-.5.8-.8 1.34-1.1.5-.3 1.1-.4 1.8-.4.6 0 1.2.1 1.8.3.5.2.9.6 1.3 1 .3.4.6.9.8 1.5.2.6.3 1.2.3 1.9s-.1 1.3-.3 1.9c-.2.6-.5 1.1-.9 1.5-.4.4-.8.7-1.4 1-.6.2-1.2.3-1.8.3-.7 0-1.3-.1-1.8-.4-.6-.3-1-.6-1.4-1-.4-.5-.6-1-.8-1.6-.2-.6-.3-1.3-.3-2zm1.44 0c0 .58.06 1.12.18 1.62s.3.95.55 1.33c.24.38.54.67.9.9.38.2.82.32 1.32.32.46 0 .85-.1 1.2-.33.34-.22.62-.5.84-.9.22-.37.38-.8.5-1.32.1-.5.16-1.04.16-1.62 0-.57-.06-1.1-.17-1.62-.12-.5-.3-.95-.54-1.33-.2-.37-.5-.67-.9-.9-.3-.2-.8-.32-1.3-.32s-.9.2-1.2.4c-.3.2-.6.5-.8.9-.2.4-.3.8-.4 1.3-.1.5-.1 1.1-.1 1.6z"/><path id="O-Copy-6" fill="#5A89A1" d="M163.53 84.88c0-.7.1-1.35.3-1.94.18-.6.46-1.12.83-1.55.36-.5.8-.8 1.33-1.1.5-.3 1.1-.4 1.8-.4.6 0 1.2.1 1.8.3.5.2.9.6 1.3 1 .3.4.6.9.8 1.5.2.6.3 1.2.3 1.9s-.1 1.3-.3 1.9c-.2.6-.5 1.1-.9 1.5-.4.4-.8.7-1.4 1-.6.2-1.2.3-1.8.3-.7 0-1.3-.1-1.8-.4-.6-.3-1-.6-1.4-1-.4-.5-.7-1-.9-1.6-.2-.6-.3-1.3-.3-2zm1.44 0c0 .58.06 1.12.18 1.62s.3.95.55 1.33c.24.38.55.67.9.9.38.2.82.32 1.32.32.46 0 .86-.1 1.2-.33.34-.22.62-.5.84-.9.22-.37.38-.8.5-1.32.1-.5.16-1.04.16-1.62 0-.57-.05-1.1-.17-1.62-.12-.5-.3-.95-.54-1.33-.2-.37-.5-.67-.9-.9-.3-.2-.8-.32-1.3-.32s-.9.2-1.2.4c-.3.2-.6.5-.8.9-.2.4-.3.8-.4 1.3-.1.5-.1 1.1-.1 1.6z"/><path stroke="#5A89A1" d="M128.07 89.1l-4.5 2.8" stroke-linecap="square"/><path stroke="#5A89A1" d="M122.46 59.93l-4.5 2.8" stroke-linecap="square"/><path stroke="#5A89A1" d="M134.8 59.93l4.48 2.8" stroke-linecap="square"/><path stroke="#5A89A1" d="M94.43 89.1l-4.5 2.8" stroke-linecap="square"/><path stroke="#5A89A1" d="M78.17 103.1l-3.2 5.05" stroke-linecap="square"/><path stroke="#5A89A1" d="M107.88 73.95l-3.2 5.05" stroke-linecap="square"/><path stroke="#5A89A1" d="M87.86 103.1l3.2 5.05" stroke-linecap="square"/><path id="H-Copy-4" fill="#5A89A1" d="M106.44 120.8h-3.4v-.38c.35-.14.72-.25 1.1-.32v-7.98c-.42-.06-.8-.17-1.1-.33v-.4h3.4v.4l-.48.2c-.17 0-.35.1-.53.1v3.5h4.23v-3.5l-.54-.2c-.16-.1-.32-.1-.47-.2v-.4h3.4v.4c-.16.1-.34.1-.53.2-.2 0-.38.1-.57.1v8l.6.1c.18 0 .35.1.5.2v.4h-3.4v-.4c.32-.2.66-.3 1-.4v-3.8h-4.22v3.8l.53.1c.17 0 .33.1.48.2v.4z"/><path id="H-Copy-3" fill="#5A89A1" d="M131.1 120.8h-3.4v-.38c.36-.14.73-.25 1.1-.32v-7.98c-.4-.06-.78-.17-1.1-.33v-.4h3.4v.4l-.47.2c-.18 0-.35.1-.53.1v3.5h4.23v-3.5l-.54-.2c-.2-.1-.4-.1-.5-.2v-.4h3.4v.4l-.6.2-.6.1v8l.6.1c.1 0 .3.1.5.2v.4h-3.4v-.4c.3-.2.6-.3 1-.4v-3.8H130v3.8l.54.1c.18 0 .34.1.5.2v.4z"/><path stroke="#5A89A1" d="M114.6 103.1l-3.2 5.05" stroke-linecap="square"/><path stroke="#5A89A1" d="M124.3 103.1l3.2 5.05" stroke-linecap="square"/><path stroke="#5A89A1" d="M94.02 73.95l3.2 5.05" stroke-linecap="square"/><path stroke="#5A89A1" d="M51.25 104.8v4.5" stroke-linecap="square"/><g stroke="#5A89A1" stroke-linecap="square"><path d="M160.9 87.63l-3.17 3.17"/><path d="M162.88 89.6l-3.2 3.2"/></g><path id="O-Copy-7" fill="#5A89A1" d="M139.42 44.5c0-.7.1-1.34.3-1.93.2-.6.46-1.1.83-1.55.36-.43.8-.77 1.34-1.02.5-.24 1.1-.36 1.8-.36.6 0 1.2.12 1.8.36.5.25.9.6 1.3 1.02.3.44.6.95.8 1.55.2.6.3 1.24.3 1.94s-.1 1.4-.3 2c-.2.6-.5 1.1-.9 1.6s-.8.8-1.4 1.1-1.2.4-1.8.4c-.7 0-1.3-.1-1.8-.3-.6-.2-1-.6-1.4-1-.4-.4-.7-.9-.9-1.5-.2-.6-.3-1.2-.3-1.9zm1.44 0c0 .6.06 1.13.18 1.63.13.5.3.95.55 1.33.2.38.5.67.9.9.3.2.8.32 1.3.32.4 0 .8-.1 1.2-.33.3-.22.6-.5.8-.9.2-.37.4-.8.5-1.32.1-.5.1-1.04.1-1.62 0-.5-.1-1.1-.2-1.6s-.3-.9-.6-1.3-.6-.7-.9-.9c-.4-.2-.9-.3-1.4-.3-.5 0-.9.1-1.3.4-.4.2-.6.5-.9.9-.2.4-.4.8-.5 1.3-.1.5-.2 1.1-.2 1.6z"/><g stroke="#5A89A1" stroke-linecap="square"><path d="M136.8 47.26l-3.18 3.17"/><path d="M138.77 49.24l-3.2 3.2"/></g><path id="O-Copy-5" fill="#5A89A1" d="M147.45 116.1c0-.7.1-1.34.3-1.94.2-.6.46-1.1.83-1.55.36-.4.8-.7 1.34-1 .53-.2 1.13-.3 1.8-.3.67 0 1.27.2 1.8.4s.98.6 1.34 1c.37.5.64 1 .84 1.6.2.6.3 1.3.3 2s-.1 1.4-.3 2c-.2.6-.47 1.1-.84 1.6-.36.5-.8.8-1.34 1-.53.3-1.13.4-1.8.4-.67 0-1.27-.1-1.8-.3s-.98-.5-1.34-1c-.37-.4-.64-.9-.84-1.5-.2-.6-.3-1.2-.3-1.9zm1.44 0c0 .58 0 1.12.1 1.63.1.5.3.95.5 1.32.2.38.5.68.9.9.3.22.8.33 1.3.33.4 0 .8-.1 1.2-.33.3-.22.6-.52.8-.9.2-.37.4-.82.5-1.32.1-.5.1-1.05.1-1.62 0-.5-.1-1.1-.2-1.6s-.3-.9-.5-1.3c-.3-.4-.6-.7-.9-.9-.4-.2-.8-.3-1.3-.3s-.9.1-1.3.4c-.4.2-.6.5-.9.9-.2.4-.4.8-.5 1.3-.1.5-.2 1.1-.2 1.7z"/><path id="N-Copy" fill="#5A89A1" d="M153.4 93.4h2.9v.4c-.37.25-.74.42-1.1.53V103h-.76l-4.9-7.43-.5-1.05H149l.1 1.05v6.4c.37.1.7.25 1.04.46v.4h-2.9v-.4c.15-.1.32-.18.5-.26.2-.08.4-.14.6-.2v-7.72c-.2-.07-.36-.15-.54-.23l-.48-.24v-.38h2.27l4.2 6.4.6 1.15-.1-1.15v-5.47l-.6-.25-.5-.3v-.38z"/><path id="N-Copy-2" fill="#5A89A1" d="M130.98 54.16h2.9v.4c-.38.24-.74.42-1.1.52v8.66H132l-4.87-7.42-.53-1.05h-.04l.12 1.05v6.4c.37.1.72.25 1.04.47v.3h-2.9v-.4l.5-.3.6-.2V55c-.18-.07-.36-.14-.54-.23l-.5-.24v-.37h2.3l4.23 6.4.7 1.15h.1v-6.6l-.5-.2-.5-.3v-.4z"/><path stroke="#5A89A1" d="M151.6 104.8v4.5" stroke-linecap="square"/><path id="C" fill="#5A89A1" d="M85.25 99.25h.35l.12.95c.03.38.04.75.02 1.1-.13.12-.3.2-.48.27-.2.07-.4.13-.6.17-.2.05-.42.08-.64.1l-.63.02c-.8 0-1.5-.1-2.1-.3-.6-.18-1.1-.47-1.5-.87-.4-.4-.7-.9-1-1.6-.2-.6-.4-1.4-.4-2.2 0-.9.1-1.6.3-2.3.2-.6.5-1.1.9-1.5.4-.4.9-.7 1.4-.9.5-.2 1.1-.3 1.7-.3.6 0 1.1 0 1.5.1.4 0 .7.2 1 .3v.5l-.1.6c0 .2-.1.4-.1.6l-.1.5-.7-2c-.1-.1-.3-.1-.5-.1-.3-.1-.5-.1-.7-.1-.5 0-.9.1-1.3.2s-.8.4-1.1.7c-.3.3-.6.8-.7 1.3-.2.5-.3 1.1-.3 1.8 0 .6 0 1.2.2 1.7s.4.92.7 1.3c.3.4.7.7 1.1.9.4.2.9.3 1.5.3.3 0 .5-.1.7-.1.2-.1.3-.1.4-.2l.6-1.7z"/><path id="C-Copy" fill="#5A89A1" d="M103.2 88.04h.34l.12.95c.03.3.04.7.03 1.1-.2.1-.3.2-.5.2l-.6.1c-.2 0-.5.1-.7.1h-.7c-.8 0-1.5-.1-2-.3-.6-.2-1.1-.5-1.5-.9-.4-.4-.7-.9-1-1.5-.2-.7-.4-1.4-.4-2.2 0-.9.1-1.7.3-2.3.2-.6.5-1.1 1-1.5.4-.4.8-.7 1.4-.9.5-.2 1.1-.3 1.7-.3.6 0 1.1 0 1.5.1.4.1.7.2 1 .3v.5l-.1.6-.1.6-.1.6h-.3l-.7-2c-.1 0-.3-.1-.5-.1h-.6c-.5 0-.9.1-1.3.3s-.8.4-1.1.7c-.3.3-.5.8-.7 1.3-.2.5-.2 1.1-.2 1.8 0 .6 0 1.2.2 1.7.1.5.4.9.7 1.3.3.3.6.6 1.1.8.4.2.9.3 1.5.3.3 0 .5-.1.7-.1.2-.1.3-.1.4-.2l.6-1.7z"/><path id="C-Copy-2" fill="#5A89A1" d="M120.57 99.25h.35l.12.95c.04.38.04.75.03 1.1-.14.12-.3.2-.5.27-.18.07-.38.13-.6.17-.2.05-.4.08-.63.1l-.63.02c-.7 0-1.4-.1-2-.3-.6-.18-1.1-.47-1.5-.87-.4-.4-.7-.9-.9-1.6-.2-.6-.3-1.4-.3-2.2 0-.9.1-1.6.4-2.3.3-.6.6-1.1 1-1.5.4-.4.9-.7 1.5-.9.6-.2 1.2-.3 1.8-.3.6 0 1.1 0 1.5.1.4 0 .8.2 1.1.3V94l-.1.5h-.3l-.7-2c-.1-.05-.3-.1-.5-.1l-.7-.03c-.5 0-.9.1-1.3.25s-.8.4-1.1.76c-.3.35-.5.8-.7 1.3-.2.54-.3 1.15-.3 1.86 0 .62.1 1.2.3 1.7.2.53.4.97.7 1.33.3.4.7.7 1.1.9.4.2.9.3 1.5.3.3 0 .5-.06.7-.1.2-.05.3-.1.4-.18l.6-1.7z"/></g><g><path fill="#EBEBEB" d="M51.9 203.2v-84.8l33.6-18.1h28.15l36.26 18.1 1.6 55.43-3.9 29.37H51.9z"/><path fill="#F9E4BA" d="M98.53 102.13l-14.04-1.25s1.5-11.35 1.2-17.03c0-.2-1.6-.57-1.6-.57S94 73.26 99 73.3c4.8.04 12 10.2 12 10.2l3.48 16.88-16 1.75z"/><path fill="#E1E1E1" d="M149.8 118.12l-6.72 3.76-5.27 24.1 2.1 27.44-1.2 29.68h16.5l1.3-22.28-3.3-51.7-3.2-11z"/><path fill="#E1E1E1" d="M51.25 118.12L59 123.3l4.25 22.67-1.55 27.45 1.27 29.68H46.5l-1.76-22.28 3.3-51.7 3.2-11z"/><path fill="#E1E1E1" d="M81.2 102.66l3.55-5.77 13.55 1 15.5-2.1 1.84 5.4-16.7 3.3-17.78-2z"/><path fill="#444" d="M84.93 90.6l-4.1-6.67-1.86-16.18 5.2-12.4 5.17-3.18 7.25-2.8 9.1.74 7.1 5.8 5.2 11.6-1.2 16.5-4.1 6.8-13.5 2.1-14.4-2.2z"/></g></g></g><path id="SUBVISUAL-52-Copy-63" fill="#40C8F9" d="M83.02 116.06l-.52.3c-.1-.16-.2-.27-.28-.32-.1-.06-.2-.1-.36-.1-.17 0-.32.06-.44.16s-.18.23-.18.37c0 .2.16.37.47.5l.5.17c.4.14.6.3.8.5.2.2.3.45.3.74 0 .38-.1.7-.4.95-.2.26-.6.4-.9.4s-.7-.12-.9-.34c-.2-.3-.3-.6-.4-1l.7-.2c0 .2.1.4.2.5.2.2.4.3.6.3.2 0 .4-.1.5-.2.2-.2.2-.3.2-.5v-.2l-.1-.2-.2-.2-.2-.2-.4-.2c-.6-.3-.9-.6-.9-1.1 0-.3.1-.6.4-.8.3-.2.6-.3.9-.3.5 0 .9.2 1.2.7zm2.68-.62v2.53c0 .36.06.62.18.8.18.23.43.35.76.35.32 0 .57-.12.75-.36.1-.16.1-.43.1-.8v-2.52h.6v2.7c0 .44-.2.8-.4 1.1-.4.32-.7.48-1.2.48s-.9-.16-1.2-.48c-.3-.3-.4-.66-.4-1.1v-2.7h.6zm4.7 4.2v-4.2h.63c.28 0 .5.02.68.06.2.05.4.12.5.22.1.1.2.24.3.4.1.16.1.33.1.5 0 .3-.1.55-.3.76.3.07.4.2.6.4s.2.4.2.66c0 .32-.1.6-.3.83-.1.14-.3.24-.5.3-.2.04-.4.07-.7.07h-.9zm.63-2.4h.2c.24 0 .42-.05.53-.15.1-.2.17-.3.17-.5s-.06-.4-.18-.5c-.1-.1-.27-.2-.5-.2h-.22v1.2zm0 1.8h.4c.3 0 .5-.05.64-.17.14-.12.2-.27.2-.46 0-.1-.05-.3-.2-.4-.13-.1-.37-.2-.7-.2h-.34v1.3zm3.9-3.6l1.18 2.9 1.2-2.9h.7l-1.9 4.5-1.8-4.5h.7zm5.4 0v4.2h-.63v-4.2h.64zm4.6.62l-.52.3c-.1-.16-.2-.27-.2-.32-.1-.06-.2-.1-.3-.1-.2 0-.3.06-.4.16s-.2.23-.2.37c0 .2.2.37.5.5l.5.17c.4.14.6.3.8.5.2.2.3.45.3.74 0 .38-.1.7-.4.95-.2.26-.5.4-.9.4s-.7-.12-.9-.34c-.2-.3-.4-.6-.4-1l.7-.2c0 .2.1.4.1.5.2.2.4.3.6.3.2 0 .4-.1.5-.2.2-.2.2-.3.2-.5v-.2c0-.1 0-.2-.1-.2l-.2-.2-.3-.2-.4-.2c-.6-.3-.9-.6-.9-1.1 0-.3.1-.6.4-.8.3-.2.6-.3 1-.3.5 0 .9.2 1.2.7zm2.68-.62v2.53c0 .36.1.62.2.8.2.23.5.35.8.35.4 0 .6-.12.8-.36.2-.16.2-.43.2-.8v-2.52h.7v2.7c0 .44-.1.8-.4 1.1-.3.32-.7.48-1.1.48-.4 0-.8-.16-1.1-.48-.3-.3-.4-.66-.4-1.1v-2.7h.7zm7 3.18h-1.8l-.4 1.02h-.7l2.1-4.47 2.1 4.47h-.7l-.4-1.02zm-.2-.6l-.6-1.43-.6 1.4h1.3zm3.8-2.58v3.6h1.3v.6h-1.9v-4.2h.7z"/></g></g></g></svg>
