<svg xmlns="http://www.w3.org/2000/svg" viewBox="0 0 200 199" xmlns:xlink="http://www.w3.org/1999/xlink">
  <defs>
    <ellipse id="path-1" cx="99.54" cy="99.93" rx="99.54" ry="99.21"/>
  </defs>
  <g fill="none" fill-rule="evenodd">
    <g>
      <g>
        <g transform="translate(.272 -.497)">
          <mask id="mask-2" fill="#fff">
            <use xlink:href="#path-1"/>
          </mask>
          <use fill="#EBF5FA" xlink:href="#path-1"/>
          <g mask="url(#mask-2)">
            <g>
              <path fill="#FFF" stroke="#F9BA37" stroke-width="4" d="M-4.13 28.53h207.45v103.73H-4.13z"/>
              <g>
                <path fill="#5A89A1" d="M69 120.8h-3.4v-.38c.35-.14.72-.25 1.1-.32v-7.98c-.43-.06-.8-.17-1.1-.33v-.4H69v.4l-.5.2c-.16.04-.33.1-.5.12v3.5h4.2v-3.5c-.18-.04-.35-.1-.52-.15-.17-.05-.32-.1-.48-.18v-.4h3.4v.4c-.15.08-.33.14-.52.2-.2.04-.4.1-.58.12v7.98c.2.04.4.08.6.14.18.05.35.1.5.18v.4h-3.4v-.4c.33-.14.66-.25 1-.32v-3.77H68v3.77c.17.04.34.08.5.14.18.05.34.1.5.18v.4zM93.67 120.8h-3.4v-.38c.35-.14.72-.25 1.1-.32v-7.98c-.43-.06-.8-.17-1.1-.33v-.4h3.4v.4l-.5.2c-.16.04-.33.1-.5.12v3.5h4.2v-3.5c-.18-.04-.35-.1-.52-.15-.17-.05-.32-.1-.48-.18v-.4h3.4v.4c-.15.08-.33.14-.52.2-.2.04-.4.1-.58.12v7.98c.2.04.4.08.6.14.18.05.35.1.5.18v.4h-3.4v-.4c.33-.14.66-.25 1-.32v-3.77h-4.2v3.77c.17.04.34.08.5.14.18.05.34.1.5.18v.4zM85.82 72.04h-3.4v-.4c.35-.14.72-.25 1.1-.32v-7.98c-.43-.06-.8-.17-1.1-.33v-.38h3.4v.4l-.5.2c-.16.04-.33.1-.5.12v3.5H89v-3.5c-.18-.04-.35-.1-.52-.15-.17-.06-.32-.12-.48-.2v-.38h3.4v.4c-.15.08-.33.15-.52.2-.2.04-.4.1-.58.12v7.98c.2.04.4.08.6.14.18.05.36.1.5.18v.4h-3.4v-.4c.33-.14.66-.25 1-.32v-3.77h-4.2v3.77c.17.04.34.08.5.14.18.05.34.1.5.18v.4zM27.4 84.88c0-.7.1-1.35.3-1.94.2-.6.47-1.12.83-1.55.37-.45.8-.78 1.34-1.03.53-.24 1.13-.36 1.8-.36.68 0 1.28.13 1.8.37.54.25.98.58 1.35 1.02.36.42.64.94.83 1.54.2.6.3 1.24.3 1.94s-.1 1.35-.3 1.95c-.2.6-.47 1.1-.83 1.54-.37.44-.8.78-1.34 1.02-.53.23-1.13.35-1.8.35-.68 0-1.28-.12-1.8-.36-.54-.25-.98-.6-1.35-1.03-.36-.43-.64-.95-.83-1.54-.2-.6-.3-1.25-.3-1.95zm1.45 0c0 .58.06 1.12.18 1.62s.3.95.55 1.33c.24.38.54.67.9.9.38.2.8.32 1.32.32.45 0 .85-.1 1.2-.33.34-.22.62-.5.84-.9.2-.37.38-.8.5-1.32.1-.5.16-1.04.16-1.62 0-.57-.06-1.1-.17-1.62-.12-.5-.3-.95-.54-1.33-.25-.37-.56-.67-.93-.9-.36-.2-.8-.32-1.3-.32s-.9.12-1.26.34c-.34.22-.62.52-.83.9-.22.37-.37.8-.47 1.32-.1.5-.15 1.05-.15 1.62zM44.4 116.1c0-.7.1-1.34.3-1.94.2-.6.47-1.1.84-1.55.36-.42.8-.76 1.33-1s1.13-.37 1.8-.37c.68 0 1.28.13 1.8.37.54.24 1 .58 1.35 1 .36.45.64.96.83 1.56.2.6.3 1.25.3 1.95s-.1 1.35-.3 1.95c-.2.6-.47 1.1-.83 1.55-.36.43-.8.77-1.34 1-.53.26-1.13.38-1.8.38-.68 0-1.28-.12-1.8-.37-.54-.23-.98-.57-1.34-1-.37-.44-.65-.95-.84-1.55-.2-.6-.3-1.25-.3-1.94zm1.45 0c0 .58.06 1.12.18 1.63.12.5.3.95.55 1.32.24.38.55.68.9.9.38.22.82.33 1.32.33.46 0 .86-.1 1.2-.33.34-.22.62-.52.84-.9.22-.37.38-.82.5-1.32.1-.5.16-1.05.16-1.62 0-.57-.06-1.1-.17-1.62-.12-.5-.3-.94-.54-1.32-.25-.38-.56-.68-.93-.9-.36-.22-.8-.33-1.3-.33s-.9.1-1.26.33c-.33.22-.6.52-.83.9-.2.38-.37.82-.47 1.32-.1.5-.15 1.05-.15 1.63z"/>
                <path stroke="#5A89A1" d="M47.45 104.8v4.47" stroke-linecap="square"/>
                <path fill="#5A89A1" d="M50.36 93.4h2.9v.4c-.37.25-.74.42-1.1.53V103h-.76l-4.9-7.43-.5-1.05h-.05l.12 1.05v6.4c.36.1.7.25 1.03.46v.4h-2.9v-.4c.16-.1.33-.18.5-.26.2-.08.4-.14.6-.2v-7.72l-.53-.23-.5-.24v-.38h2.28l4.24 6.4.6 1.15h.06l-.06-1.15v-5.47l-.55-.25-.5-.3v-.38z"/>
                <path stroke="#5A89A1" d="M37.36 89.1l4.48 2.8M71.56 89.1l4.5 2.8M106.32 89.1l4.5 2.8" stroke-linecap="square"/>
                <path fill="#5A89A1" d="M61.05 84.88c0-.7.1-1.35.3-1.94.18-.6.46-1.12.82-1.55.37-.45.8-.78 1.34-1.03.54-.24 1.14-.36 1.82-.36.67 0 1.27.13 1.8.37.53.25.97.58 1.34 1.02.36.42.64.94.83 1.54.2.6.28 1.24.28 1.94s-.1 1.35-.3 1.95c-.18.6-.46 1.1-.82 1.54-.37.44-.8.78-1.34 1.02-.53.23-1.13.35-1.8.35-.68 0-1.28-.12-1.8-.36-.54-.25-.98-.6-1.35-1.03-.36-.43-.64-.95-.83-1.54-.2-.6-.3-1.25-.3-1.95zm1.44 0c0 .58.05 1.12.17 1.62.12.5.3.95.55 1.33.24.38.54.67.9.9.38.2.8.32 1.32.32.45 0 .85-.1 1.2-.33.34-.22.62-.5.84-.9.22-.37.38-.8.5-1.32.1-.5.16-1.04.16-1.62 0-.57-.06-1.1-.17-1.62-.12-.5-.3-.95-.54-1.33-.24-.37-.55-.67-.92-.9-.35-.2-.8-.32-1.3-.32s-.9.12-1.25.34c-.35.22-.63.52-.84.9-.2.37-.36.8-.46 1.32-.1.5-.15 1.05-.15 1.62zM139.54 67.5c0-.7.1-1.35.3-1.94.2-.6.47-1.12.83-1.55.36-.43.8-.77 1.34-1 .54-.25 1.14-.37 1.8-.37.68 0 1.28.12 1.8.36.54.23 1 .57 1.35 1 .37.44.64.96.84 1.56.18.6.28 1.24.28 1.94s-.1 1.35-.3 1.94c-.2.6-.46 1.12-.83 1.55-.36.43-.8.77-1.34 1-.52.25-1.12.37-1.8.37-.66 0-1.26-.12-1.8-.36-.52-.23-.97-.57-1.33-1-.36-.44-.64-.96-.84-1.56-.2-.6-.3-1.24-.3-1.94zm1.44 0c0 .57.07 1.1.2 1.62.1.5.3.95.53 1.33.25.37.56.67.93.9.36.2.8.32 1.3.32.46 0 .86-.1 1.2-.33.34-.22.62-.52.84-.9.22-.37.4-.8.5-1.32.1-.5.17-1.05.17-1.62 0-.57-.06-1.1-.18-1.62-.12-.5-.3-.95-.54-1.33-.24-.37-.54-.67-.9-.9-.38-.2-.8-.32-1.32-.32-.5 0-.9.1-1.26.33-.34.22-.62.52-.84.9-.2.37-.37.8-.47 1.32-.1.5-.15 1.05-.15 1.62zM107.03 67.5c0-.7.1-1.35.28-1.94.2-.6.5-1.12.85-1.55.36-.43.8-.77 1.34-1 .52-.25 1.12-.37 1.8-.37.66 0 1.27.12 1.8.36.52.23.97.57 1.33 1 .37.44.64.96.84 1.56.2.6.3 1.24.3 1.94s-.1 1.35-.3 1.94c-.2.6-.47 1.12-.84 1.55-.36.43-.8.77-1.34 1-.53.25-1.14.37-1.8.37-.68 0-1.28-.12-1.8-.36-.54-.23-1-.57-1.35-1-.36-.44-.64-.96-.84-1.56-.18-.6-.27-1.24-.27-1.94zm1.44 0c0 .57.06 1.1.18 1.62.12.5.3.95.54 1.33.23.37.54.67.9.9.37.2.8.32 1.3.32.47 0 .87-.1 1.2-.33.35-.22.63-.52.85-.9.22-.37.4-.8.5-1.32.1-.5.17-1.05.17-1.62 0-.57-.06-1.1-.18-1.62-.1-.5-.3-.95-.54-1.33-.24-.37-.54-.67-.9-.9-.38-.2-.8-.32-1.32-.32-.5 0-.9.1-1.25.33-.35.22-.63.52-.85.9-.2.37-.37.8-.47 1.32-.1.5-.13 1.05-.13 1.62z"/>
                <path stroke="#5A89A1" d="M59.8 89.1l-4.5 2.8M138.84 89.1l4.5 2.8" stroke-linecap="square"/>
                <path fill="#5A89A1" d="M128.33 84.88c0-.7.1-1.35.3-1.94.18-.6.46-1.12.82-1.55.37-.45.8-.78 1.34-1.03.52-.24 1.12-.36 1.8-.36.67 0 1.27.13 1.8.37.53.25.98.58 1.34 1.02.36.42.64.94.83 1.54.2.6.3 1.24.3 1.94s-.1 1.35-.3 1.95c-.2.6-.47 1.1-.83 1.54-.36.44-.8.78-1.34 1.02-.53.23-1.13.35-1.8.35-.68 0-1.28-.12-1.8-.36-.54-.25-.98-.6-1.35-1.03-.36-.43-.64-.95-.83-1.54-.2-.6-.3-1.25-.3-1.95zm1.44 0c0 .58.06 1.12.18 1.62s.3.95.55 1.33c.24.38.54.67.9.9.38.2.82.32 1.32.32.46 0 .85-.1 1.2-.33.34-.22.62-.5.84-.9.22-.37.38-.8.5-1.32.1-.5.16-1.04.16-1.62 0-.57-.06-1.1-.17-1.62-.12-.5-.3-.95-.54-1.33-.23-.37-.54-.67-.9-.9-.37-.2-.8-.32-1.3-.32s-.92.12-1.27.34c-.34.22-.62.52-.84.9-.23.37-.38.8-.48 1.32-.1.5-.15 1.05-.15 1.62zM162.53 84.88c0-.7.1-1.35.3-1.94.18-.6.46-1.12.83-1.55.36-.45.8-.78 1.33-1.03.52-.24 1.13-.36 1.8-.36.67 0 1.27.13 1.8.37.53.25.98.58 1.34 1.02.36.42.64.94.83 1.54.2.6.3 1.24.3 1.94s-.1 1.35-.3 1.95c-.2.6-.47 1.1-.83 1.54-.36.44-.8.78-1.34 1.02-.53.23-1.13.35-1.8.35-.67 0-1.28-.12-1.8-.36-.53-.25-.98-.6-1.34-1.03-.37-.43-.65-.95-.84-1.54-.2-.6-.3-1.25-.3-1.95zm1.44 0c0 .58.06 1.12.18 1.62s.3.95.55 1.33c.24.38.55.67.9.9.38.2.82.32 1.32.32.46 0 .86-.1 1.2-.33.34-.22.62-.5.84-.9.22-.37.38-.8.5-1.32.1-.5.16-1.04.16-1.62 0-.57-.05-1.1-.17-1.62-.12-.5-.3-.95-.54-1.33-.23-.37-.54-.67-.9-.9-.37-.2-.8-.32-1.3-.32s-.92.12-1.27.34c-.34.22-.62.52-.84.9-.22.37-.38.8-.48 1.32-.1.5-.15 1.05-.15 1.62z"/>
                <path stroke="#5A89A1" d="M127.07 89.1l-4.5 2.8M121.46 59.93l-4.5 2.8M133.8 59.93l4.48 2.8M93.43 89.1l-4.5 2.8M77.17 103.1l-3.2 5.05M106.88 73.95l-3.2 5.05M86.86 103.1l3.2 5.05" stroke-linecap="square"/>
                <path fill="#5A89A1" d="M105.44 120.8h-3.4v-.38c.35-.14.72-.25 1.1-.32v-7.98c-.42-.06-.8-.17-1.1-.33v-.4h3.4v.4l-.48.2c-.17.04-.35.1-.53.12v3.5h4.23v-3.5c-.2-.04-.37-.1-.54-.15-.16-.05-.32-.1-.47-.18v-.4h3.4v.4c-.16.08-.34.14-.53.2-.2.04-.38.1-.57.12v7.98c.2.04.4.08.6.14.18.05.35.1.5.18v.4h-3.4v-.4c.32-.14.66-.25 1-.32v-3.77h-4.22v3.77c.18.04.36.08.53.14.17.05.33.1.48.18v.4zM130.1 120.8h-3.4v-.38c.36-.14.73-.25 1.1-.32v-7.98c-.4-.06-.78-.17-1.1-.33v-.4h3.4v.4l-.47.2c-.18.04-.35.1-.53.12v3.5h4.23v-3.5c-.2-.04-.37-.1-.54-.15-.17-.05-.33-.1-.48-.18v-.4h3.4v.4c-.16.08-.34.14-.53.2-.2.04-.4.1-.58.12v7.98c.2.04.4.08.6.14.18.05.35.1.5.18v.4h-3.4v-.4c.32-.14.66-.25 1-.32v-3.77h-4.22v3.77c.18.04.35.08.53.14.17.05.33.1.48.18v.4z"/>
                <path stroke="#5A89A1" d="M113.6 103.1l-3.2 5.05M123.3 103.1l3.2 5.05M93.02 73.95l3.2 5.05M50.25 104.8v4.5" stroke-linecap="square"/>
                <g stroke="#5A89A1" stroke-linecap="square">
                  <path d="M159.9 87.63l-3.17 3.17M161.88 89.6l-3.2 3.2"/>
                </g>
                <path fill="#5A89A1" d="M138.42 44.5c0-.7.1-1.34.3-1.93.2-.6.46-1.1.83-1.55.36-.43.8-.77 1.34-1.02.52-.24 1.12-.36 1.8-.36.66 0 1.26.12 1.8.36.52.25.97.6 1.33 1.02.36.44.64.95.84 1.55.2.6.28 1.24.28 1.94s-.1 1.36-.28 1.96c-.2.6-.48 1.1-.84 1.54-.36.44-.8.78-1.34 1.02s-1.14.36-1.8.36c-.68 0-1.28-.12-1.8-.36-.54-.24-1-.58-1.35-1.02-.37-.43-.64-.95-.84-1.54-.18-.6-.28-1.25-.28-1.95zm1.44 0c0 .6.06 1.13.18 1.63.13.5.3.95.55 1.33.23.38.54.67.9.9.37.2.8.32 1.3.32.47 0 .87-.1 1.2-.33.35-.22.63-.5.85-.9.22-.37.38-.8.5-1.32.1-.5.16-1.04.16-1.62 0-.56-.04-1.1-.16-1.6-.12-.52-.3-.96-.54-1.33-.24-.38-.55-.68-.9-.9-.38-.22-.82-.33-1.32-.33-.5 0-.9.1-1.26.33-.34.22-.62.52-.84.9-.2.37-.37.8-.47 1.32-.1.5-.14 1.04-.14 1.6z"/>
                <g stroke="#5A89A1" stroke-linecap="square">
                  <path d="M135.8 47.26l-3.18 3.17M137.77 49.24l-3.2 3.2"/>
                </g>
                <path fill="#5A89A1" d="M146.45 116.1c0-.7.1-1.34.3-1.94.2-.6.46-1.1.83-1.55.36-.42.8-.76 1.34-1 .53-.24 1.13-.37 1.8-.37.67 0 1.27.13 1.8.37s.98.58 1.34 1c.37.45.64.96.84 1.56.2.6.3 1.25.3 1.95s-.1 1.35-.3 1.95c-.2.6-.47 1.1-.84 1.55-.36.43-.8.77-1.34 1-.53.26-1.13.38-1.8.38-.67 0-1.27-.12-1.8-.37-.53-.23-.98-.57-1.34-1-.37-.44-.64-.95-.84-1.55-.2-.6-.3-1.25-.3-1.94zm1.44 0c0 .58.05 1.12.18 1.63.12.5.3.95.54 1.32.24.38.55.68.92.9.36.22.8.33 1.3.33.46 0 .86-.1 1.2-.33.34-.22.62-.52.84-.9.22-.37.4-.82.5-1.32.1-.5.17-1.05.17-1.62 0-.57-.06-1.1-.18-1.62-.12-.5-.3-.94-.54-1.32-.24-.38-.54-.68-.9-.9-.38-.22-.82-.33-1.32-.33-.48 0-.9.1-1.25.33-.34.22-.62.52-.84.9-.2.38-.36.82-.46 1.32-.1.5-.15 1.05-.15 1.63zM152.4 93.4h2.9v.4c-.37.25-.74.42-1.1.53V103h-.76l-4.9-7.43-.5-1.05h-.05l.1 1.05v6.4c.38.1.72.25 1.05.46v.4h-2.9v-.4c.15-.1.32-.18.5-.26.2-.08.4-.14.6-.2v-7.72c-.2-.07-.36-.15-.54-.23l-.48-.24v-.38h2.27l4.23 6.4.62 1.15h.06l-.06-1.15v-5.47l-.55-.25-.5-.3v-.38zM129.98 54.16h2.9v.4c-.38.24-.74.42-1.1.52v8.66H131l-4.87-7.42-.53-1.05h-.04l.12 1.05v6.4c.37.1.72.25 1.04.47v.38h-2.9v-.4c.15-.1.33-.18.5-.26l.6-.2V55c-.18-.07-.36-.14-.54-.23l-.5-.24v-.37h2.3l4.23 6.4.62 1.15h.06l-.07-1.15v-5.47l-.53-.25-.5-.28v-.4z"/>
                <path stroke="#5A89A1" d="M150.6 104.8v4.5" stroke-linecap="square"/>
                <path fill="#5A89A1" d="M84.25 99.25h.35l.12.95c.03.38.04.75.02 1.1-.13.12-.3.2-.48.27-.2.07-.4.13-.6.17-.2.05-.42.08-.64.1l-.63.02c-.76 0-1.44-.1-2.03-.3-.6-.18-1.1-.47-1.5-.87-.4-.4-.72-.9-.94-1.52-.22-.62-.33-1.34-.33-2.2 0-.87.12-1.6.36-2.23.24-.6.57-1.1.98-1.5.42-.4.9-.68 1.44-.86.55-.2 1.13-.28 1.73-.28.6 0 1.1.04 1.5.12.4.07.76.2 1.06.34v.5l-.05.62c0 .2-.03.42-.06.63l-.08.56h-.35l-.7-1.94c-.1-.06-.25-.1-.48-.1-.23-.03-.45-.04-.68-.04-.45 0-.87.08-1.27.25-.4.17-.75.42-1.05.77-.3.34-.54.78-.72 1.3-.18.53-.27 1.14-.27 1.85 0 .63.08 1.2.24 1.72.17.52.4.96.7 1.32.3.36.68.64 1.12.83.43.2.93.3 1.48.3.3 0 .55-.03.74-.07.2-.05.33-.1.4-.18l.63-1.67zM102.2 88.04h.34l.12.95c.03.37.04.74.03 1.1-.15.1-.3.2-.5.26-.2.07-.4.12-.6.17-.2.04-.42.08-.64.1l-.63.02c-.75 0-1.43-.1-2.02-.3-.58-.18-1.08-.48-1.5-.87-.4-.4-.7-.9-.93-1.5-.22-.63-.33-1.36-.33-2.2 0-.88.12-1.63.36-2.24.25-.62.57-1.12 1-1.5.4-.4.88-.68 1.43-.86.54-.18 1.12-.27 1.72-.27.6 0 1.1.05 1.5.12.4.08.75.2 1.06.35v.5l-.05.6-.07.64c-.02.22-.05.4-.08.58h-.35l-.7-1.94c-.1-.05-.26-.1-.5-.1-.22-.02-.44-.03-.67-.03-.45 0-.87.1-1.27.26s-.74.42-1.04.76c-.3.35-.54.78-.72 1.3-.18.53-.27 1.15-.27 1.86 0 .64.08 1.2.25 1.73.16.52.4.96.7 1.33.3.36.67.64 1.1.83.45.2.95.3 1.5.3.3 0 .55-.03.75-.08.2-.04.32-.1.4-.17l.62-1.66zM119.57 99.25h.35l.12.95c.04.38.04.75.03 1.1-.14.12-.3.2-.5.27-.18.07-.38.13-.6.17-.2.05-.4.08-.63.1l-.63.02c-.74 0-1.4-.1-2-.3-.6-.18-1.1-.47-1.5-.87-.4-.4-.73-.9-.95-1.52-.22-.62-.33-1.34-.33-2.2 0-.87.12-1.6.36-2.23.25-.6.57-1.1 1-1.5.4-.4.88-.68 1.43-.86.55-.2 1.13-.28 1.73-.28.6 0 1.1.04 1.5.12.4.07.75.2 1.06.34l-.03.5c0 .2-.02.4-.04.62l-.06.63c-.03.2-.06.4-.1.56h-.34l-.7-1.94c-.1-.06-.26-.1-.5-.1-.22-.03-.44-.04-.67-.04-.44 0-.87.08-1.27.25-.4.17-.76.42-1.06.77-.3.34-.54.78-.72 1.3-.18.53-.27 1.14-.27 1.85 0 .63.08 1.2.25 1.72.16.52.4.96.7 1.32.3.36.67.64 1.1.83.45.2.95.3 1.5.3.3 0 .55-.03.75-.07.2-.05.32-.1.4-.18l.62-1.67z"/>
              </g>
              <g>
                <path fill="#EBEBEB" d="M50.9 203.2v-84.8l33.6-18.1h28.15l36.26 18.1 1.53 55.43-3.95 29.37h-95.6z"/>
                <path fill="#F9E4BA" d="M97.53 102.13l-14.04-1.25S85 89.53 84.75 83.85c0-.2-1.56-.57-1.56-.57s9.85-10.02 14.87-9.98c4.8.04 12 10.2 12 10.2l3.47 16.88-16 1.75z"/>
                <path fill="#E1E1E1" d="M148.8 118.12l-6.72 3.76-5.27 24.1 2.07 27.44-1.26 29.68h16.48l1.24-22.28-3.3-51.7-3.2-11zM50.25 118.12L58 123.3l4.25 22.67-1.55 27.45 1.27 29.68H45.5l-1.76-22.28 3.3-51.7 3.2-11zM80.2 102.66l3.55-5.77 13.54 1.05 15.54-2.1 1.83 5.4-16.7 3.37-17.78-1.96z"/>
                <path fill="#444" d="M83.93 90.6l-3.1-6.67-1.86-15.18 4.2-12.4 5.17-3.18 7.25-2.8 7.98 2.23 8.3 4.3 4.3 11.6-1.24 15.43-3.05 6.77-13.56 2.16-14.4-2.26z"/>
              </g>
            </g>
          </g>
        </g>
        <path fill="#40C8F9" d="M83.02 116.06l-.52.3c-.1-.16-.2-.27-.28-.32-.1-.06-.2-.1-.36-.1-.17 0-.32.06-.44.16s-.18.23-.18.37c0 .2.16.37.47.5l.43.17c.35.14.6.3.76.5.15.2.23.45.23.74 0 .38-.13.7-.4.95-.25.26-.58.4-.97.4-.37 0-.68-.12-.92-.34-.23-.22-.38-.53-.44-.92l.65-.14c.03.24.08.42.16.5.14.2.33.28.58.28.2 0 .37-.06.5-.2.14-.13.2-.3.2-.5 0-.08 0-.16-.03-.22l-.1-.2-.2-.15-.27-.15-.42-.16c-.58-.25-.87-.6-.87-1.07 0-.32.1-.58.36-.8.24-.2.55-.3.9-.3.5 0 .88.22 1.16.7zm2.68-.62v2.53c0 .36.06.62.18.8.18.23.43.35.76.35.32 0 .57-.12.75-.36.1-.16.17-.43.17-.8v-2.52h.64v2.7c0 .44-.13.8-.4 1.1-.32.32-.7.48-1.16.48-.46 0-.85-.16-1.16-.48-.28-.3-.42-.66-.42-1.1v-2.7h.64zm4.7 4.2v-4.2h.63c.28 0 .5.02.68.06.18.05.33.12.44.22.12.1.22.24.3.4.06.16.1.33.1.5 0 .3-.12.55-.36.76.23.07.4.2.54.4.13.2.2.4.2.66 0 .32-.12.6-.35.83-.15.14-.3.24-.48.3-.2.04-.45.07-.74.07h-.97zm.63-2.4h.2c.24 0 .42-.05.53-.15.1-.12.17-.27.17-.48 0-.2-.06-.34-.18-.45-.1-.1-.27-.15-.5-.15h-.22v1.22zm0 1.8h.4c.3 0 .5-.05.64-.17.14-.12.2-.27.2-.46 0-.17-.05-.32-.2-.45-.13-.12-.37-.18-.7-.18h-.34v1.27zm3.9-3.6l1.18 2.9 1.2-2.9h.7l-1.9 4.5-1.87-4.5h.7zm5.4 0v4.2h-.63v-4.2h.64zm4.6.62l-.52.3c-.1-.16-.2-.27-.27-.32-.1-.06-.2-.1-.36-.1-.18 0-.33.06-.44.16-.12.1-.18.23-.18.37 0 .2.15.37.46.5l.44.17c.34.14.6.3.76.5.16.2.24.45.24.74 0 .38-.13.7-.4.95-.26.26-.58.4-.97.4-.37 0-.68-.12-.92-.34-.24-.22-.4-.53-.44-.92l.66-.14c.03.24.08.42.15.5.14.2.34.28.6.28.2 0 .36-.06.5-.2.12-.13.2-.3.2-.5 0-.08-.02-.16-.05-.22-.02-.07-.05-.14-.1-.2-.05-.05-.12-.1-.2-.15l-.27-.15-.4-.16c-.6-.25-.88-.6-.88-1.07 0-.32.12-.58.36-.8.25-.2.55-.3.92-.3.5 0 .87.22 1.15.7zm2.68-.62v2.53c0 .36.07.62.2.8.17.23.42.35.74.35.33 0 .58-.12.76-.36.12-.16.18-.43.18-.8v-2.52h.64v2.7c0 .44-.14.8-.42 1.1-.3.32-.7.48-1.16.48-.46 0-.84-.16-1.15-.48-.3-.3-.43-.66-.43-1.1v-2.7h.64zm7 3.18h-1.8l-.48 1.02h-.7l2.1-4.47 2.04 4.47h-.7l-.45-1.02zm-.25-.6l-.63-1.43-.66 1.42h1.3zm3.75-2.58v3.6h1.25v.6h-1.9v-4.2h.65z"/>
      </g>
    </g>
  </g>
</svg>
