<svg xmlns="http://www.w3.org/2000/svg" viewBox="0 0 200 200" xmlns:xlink="http://www.w3.org/1999/xlink">
  <defs>
    <ellipse id="path-1" cx="99.94" cy="100.27" rx="99.94" ry="99.6"/>
    <linearGradient id="linearGradient-3" x1="37.58%" x2="37.58%" y1="-6.25%" y2="118.85%">
      <stop stop-color="#09DFF3" offset="0%"/>
      <stop stop-color="#44BEFF" offset="100%"/>
    </linearGradient>
  </defs>
  <g fill="none" fill-rule="evenodd">
    <g transform="translate(0 -.223)">
      <mask id="mask-2" fill="#fff">
        <use xlink:href="#path-1"/>
      </mask>
      <use fill="#EBF5FA" xlink:href="#path-1"/>
      <path fill="#555" d="M-.33 173.2h199.87v26.68H-.33z" mask="url(#mask-2)"/>
    </g>
    <path fill="#555" d="M105.93 166.13v6.92H94.4v-6.92h11.53z"/>
    <path fill="#444" d="M105.93 166.13v6.92h-5.77v-6.92h5.77z"/>
    <path fill="#E1A732" d="M100.3 163.92c2 0 3.6-.97 3.6-4.28 0-3.32-3.98-8.1-3.98-8.1s.47 1.2-.3 2.43c-1 1.58-2.9 3.8-2.9 5.67 0 3.3 1.6 4.28 3.6 4.28z"/>
    <path fill="#F9BA37" d="M100.34 163.26c.95 0 1.72-.46 1.72-2.04s-1.58-3.92-1.58-3.92.2.78-.24 1.52c-.43.72-1.6 1.62-1.6 2.4 0 1.58.76 2.04 1.7 2.04z"/>
    <path fill="#DCDCDC" d="M95.94 163.06h8.45v3.07h-8.46z"/>
    <path fill="#C9C9C9" d="M100.16 163.06h4.23v3.07h-4.24z"/>
    <path fill="#FFF" d="M91.93 73.93h16.46v27.66H91.92zM91.93 101.6c-9.3 3.4-15.8 12.55-15.8 23.32 0 13.67 10.76 24.75 24.04 24.75 13.27 0 24.03-11.08 24.03-24.75 0-10.77-6.7-19.93-15.8-23.33H91.93z"/>
    <path fill="url(#linearGradient-3)" d="M21.27 56.3c.94 0 1.9-1.97 2.84-1.97 1.5 0 1.26 1.32 2.76 1.32 1.13 0 2.36-1.65 3.48-1.65.43 0 1.35 1.06 2.25 1.13 1.16.1 2.3-.8 2.3-.8v9.88H18.45v-9.87s1.88 1.98 2.83 1.98zm-2.83 7.9c-9.3 3.4-15.8 12.57-15.8 23.35 0 13.66 10.76 24.74 24.03 24.74 13.28 0 24.04-11.1 24.04-24.75 0-10.78-6.68-19.94-15.8-23.34H18.45z" transform="translate(73.492 37.377)"/>
    <path fill="#000" fill-opacity=".05" d="M100.17 101.6v48.07c13.27 0 24.03-11.08 24.03-24.75 0-10.77-6.7-19.93-15.8-23.33h-8.23z"/>
    <path fill="#454545" d="M75.47 132.2h49.4c.9 0 1.64.75 1.64 1.66 0 .9-.74 1.65-1.64 1.65h-49.4c-.9 0-1.64-.72-1.64-1.64 0-.9.75-1.65 1.65-1.65z"/>
    <path fill="#454545" d="M75.47 135.5h3.3v37.55h-3.3zM121.57 135.5h3.3v37.55h-3.3z"/>
    <path fill="#FFF" d="M91.27 71.95h17.8c.54 0 .97.44.97 1 0 .54-.45.98-.98.98h-17.8c-.54 0-.97-.44-.97-1 0-.53.44-.98.97-.98z"/>
    <path fill="#000" fill-opacity=".05" d="M91.93 73.93h16.46v1H91.92zM100.17 71.95h8.9c.53 0 .97.44.97 1 0 .54-.45.98-.98.98h-8.9v-1.98z"/>
    <path fill="#000" fill-opacity=".05" d="M100.16 73.93h8.23v27.66h-8.24z"/>
    <g fill="#FFF" transform="translate(91.027 37.377)">
      <ellipse cx="3.17" cy="15.56" rx="3.11" ry="3.11"/>
      <ellipse cx="16" cy="19.84" rx="1.94" ry="1.94"/>
      <ellipse cx="9.78" cy="27.61" rx="1.94" ry="1.94"/>
      <circle cx="12.5" cy="4.67" r="4.67"/>
    </g>
  </g>
</svg>
