<svg xmlns="http://www.w3.org/2000/svg" viewBox="0 0 200 200" xmlns:xlink="http://www.w3.org/1999/xlink">
  <defs>
    <ellipse id="path-1" cx="99.94" cy="100.27" rx="99.94" ry="99.6"/>
    <linearGradient id="linearGradient-3" x1="37.58%" x2="37.58%" y1="-6.25%" y2="118.85%">
      <stop stop-color="#09DFF3" offset="0%"/>
      <stop stop-color="#44BEFF" offset="100%"/>
    </linearGradient>
    <linearGradient id="linearGradient-4" x1="37.58%" x2="37.58%" y1="-6.25%" y2="118.85%">
      <stop stop-color="#09DFF3" offset="0%"/>
      <stop stop-color="#2FEAE9" offset="100%"/>
    </linearGradient>
    <linearGradient id="linearGradient-5" x1="0%" x2="46.08%" y1="88.38%" y2="38.32%">
      <stop stop-color="#09DFF3" offset="0%"/>
      <stop stop-color="#44BEFF" offset="100%"/>
    </linearGradient>
  </defs>
  <g fill="none" fill-rule="evenodd">
    <g transform="translate(0 -.445)">
      <mask id="mask-2" fill="#fff">
        <use xlink:href="#path-1"/>
      </mask>
      <use fill="#EBF5FA" xlink:href="#path-1"/>
      <path fill="#555" d="M-.33 173.2h199.87v26.68H-.33z" mask="url(#mask-2)"/>
    </g>
    <path fill="#FFF" d="M96.9 51.8l-3.36 5.83L64.42 40.8c-1.6-.92-2.16-2.98-1.23-4.58.92-1.6 2.97-2.17 4.6-1.23l29.1 16.8z"/>
    <path fill="url(#linearGradient-3)" d="M8.4 3.02V36.9C8.4 38.62 7 40 5.3 40h-.5c-1.73 0-2.87-1.35-2.56-3.05L8.4 3.02z" transform="matrix(-.5 .866 -.866 -.5 -60.447 49.96)"/>
    <path fill="#FFF" d="M-67.6 56.32c-.27.47-.1 1.1.37 1.37.48.27 1.1.1 1.37-.37l4.04-7c.28-.47.12-1.1-.37-1.37-.47-.28-1.1-.12-1.36.36l-.46.8c-.04-.1-.12-.2-.22-.26-.24-.14-.55-.06-.68.18-.14.24-.06.54.18.68.1.06.22.08.33.06l-3.2 5.54zM106.55 47.53l29.12-16.8c1.6-.94 2.16-3 1.23-4.6-.93-1.6-2.98-2.17-4.6-1.23l-29.12 16.8 3.37 5.83z"/>
    <path fill="url(#linearGradient-4)" d="M8.4 2.02V35.9C8.4 37.62 7 39 5.3 39h-.5c-1.73 0-2.87-1.35-2.56-3.05L8.4 2.02z" transform="matrix(.5 .866 .866 -.5 100.596 41.263)"/>
    <path fill="#FFF" d="M101.1 42.13l4.04 7c.28.48.9.65 1.37.37.5-.28.66-.9.4-1.38l-4.05-7c-.28-.48-.9-.64-1.38-.36-.48.28-.64.9-.37 1.37z"/>
    <path fill="url(#linearGradient-5)" d="M95.14 62.77l.82 21.5s.1 1.02-.82 1.02c-.9 0-.86-1.02-.86-1.02l.86-21.5z" transform="translate(0 -1)"/>
    <path fill="#FFF" d="M92.1 90.7h16.8v28.24H92.1zM92.1 118.94c-9.5 3.47-16.14 12.83-16.14 23.83 0 13.96 11 25.27 24.54 25.27 13.56 0 24.55-11.3 24.55-25.27 0-11-6.83-20.36-16.14-23.83H92.1z"/>
    <path fill="#000" fill-opacity=".05" d="M100.5 118.94v49.1c13.56 0 24.55-11.3 24.55-25.27 0-11-6.83-20.36-16.14-23.83h-8.4z"/>
    <path fill="#454545" d="M73.6 151.9c0-.93.76-1.68 1.7-1.68h50.42c.93 0 1.7.74 1.7 1.68 0 .93-.77 1.68-1.7 1.68H75.3c-.94 0-1.7-.75-1.7-1.68zM98.82 153.58h3.36v20.18h-3.36zM78.65 153.58H82l-10.08 20.17h-3.36l10.1-20.17z"/>
    <path fill="#454545" d="M122.36 153.58H119l10.1 20.17h3.35l-10.1-20.17z"/>
    <path fill="#FFF" d="M90.42 89.68c0-.55.46-1 1-1h18.17c.54 0 1 .44 1 1s-.47 1-1 1H91.4c-.56 0-1-.43-1-1z"/>
    <path fill="#000" fill-opacity=".05" d="M100.5 88.68h9.1c.54 0 1 .44 1 1s-.47 1-1 1h-9.1v-2zM100.5 90.7h8.4v28.24h-8.4z"/>
    <path fill="url(#linearGradient-4)" d="M105.23 52.68l.82 21.5s.1 1.02-.82 1.02c-.9 0-.86-1-.86-1l.86-21.52z" transform="matrix(-1 0 0 1 210.424 -1)"/>
    <path fill="#000" fill-opacity=".05" d="M92.1 90.7h16.8v1H92.1z"/>
  </g>
</svg>
