<?xml version="1.0" encoding="UTF-8"?>
<svg width="18px" height="18px" viewBox="0 0 18 18" version="1.1" xmlns="http://www.w3.org/2000/svg" xmlns:xlink="http://www.w3.org/1999/xlink">
    <!-- Generator: Sketch 41.2 (35397) - http://www.bohemiancoding.com/sketch -->
    <title>clock</title>
    <desc>Created with Sketch.</desc>
    <defs>
        <linearGradient x1="50%" y1="-1.11022302e-14%" x2="50%" y2="100%" id="linearGradient-1">
            <stop stop-color="#5CF0ED" offset="0%"></stop>
            <stop stop-color="#00B4DD" offset="100%"></stop>
        </linearGradient>
    </defs>
    <g id="Page-1" stroke="none" stroke-width="1" fill="none" fill-rule="evenodd">
        <g id="Home" transform="translate(-197.000000, -2825.000000)" fill="url(#linearGradient-1)">
            <g id="clock" transform="translate(197.000000, 2825.000000)">
                <path d="M9,17 C13.418278,17 17,13.418278 17,9 C17,4.581722 13.418278,1 9,1 C4.581722,1 1,4.581722 1,9 C1,13.418278 4.581722,17 9,17 Z M9,18 C4.02943725,18 0,13.9705627 0,9 C0,4.02943725 4.02943725,0 9,0 C13.9705627,0 18,4.02943725 18,9 C18,13.9705627 13.9705627,18 9,18 Z" id="Oval"></path>
                <polygon id="Line" points="8 2.97516498 8 10 9 10 9 2.97516498"></polygon>
                <polygon id="Line" points="9 10 13 10 13 9 9 9"></polygon>
            </g>
        </g>
    </g>
</svg>