<svg xmlns="http://www.w3.org/2000/svg" xmlns:xlink="http://www.w3.org/1999/xlink" viewBox="0 0 1440 540">
  <title>
    Subvisual Planets
  </title>
  <style>
    .Line {
        height: 1px;
        stroke-linecap: round;
        stroke-linejoin: round;
      }
  </style>
  <defs>
    <linearGradient id="hero-linearGradient-1" x1="52.9%" x2="40.18%" y1="32.87%" y2="56.72%">
      <stop stop-color="#09DFF3" offset="0%" />
      <stop stop-color="#44BEFF" offset="100%" />
    </linearGradient>

    <circle id="planet-shape" cx="31" cy="31" r="30" />
    <mask id="planet-mask" fill="#fff">
      <use xlink:href="#planet-shape" />
    </mask>
    <path id="planet-section-1" d="M0 1h62v12H0z" mask="url(#planet-mask)" />
    <path id="planet-section-2" d="M0 11h62v12H0z" mask="url(#planet-mask)" />
    <path id="planet-section-3" d="M0 21h62v12H0z" mask="url(#planet-mask)" />
    <path id="planet-section-4" d="M0 31h62v12H0z" mask="url(#planet-mask)" />
    <path id="planet-section-5" d="M0 41h62v12H0z" mask="url(#planet-mask)" />
    <path id="planet-section-6" d="M0 51h62v12H0z" mask="url(#planet-mask)" />

    <circle id="hero-circle" cx="159.05" cy="159.05" r="159.05" />

    <symbol id="planet-dark-grey">
      <use fill="#5E9CCC" xlink:href="#planet-shape" />
      <use fill="#8DCFDC" xlink:href="#planet-section-1" />
      <use fill="#7ABAD6" xlink:href="#planet-section-2" />
      <use fill="#72AFD3" xlink:href="#planet-section-3" />
      <use fill="#65A4CF" xlink:href="#planet-section-4" />
      <use fill="#5E9CCC" xlink:href="#planet-section-5" />
      <use fill="#5B94C8" xlink:href="#planet-section-6" />
    </symbol>
    <symbol id="planet-green">
      <use fill="#18D4D3" xlink:href="#planet-shape" />
      <use fill="#4DEBC3" xlink:href="#planet-section-1" />
      <use fill="#39E2C9" xlink:href="#planet-section-2" />
      <use fill="#29DBCD" xlink:href="#planet-section-3" />
      <use fill="#18CCD4" xlink:href="#planet-section-4" />
      <use fill="#0EC0D6" xlink:href="#planet-section-5" />
      <use fill="#03B2D9" xlink:href="#planet-section-6" />
    </symbol>
    <symbol id="planet-light-grey">
      <use fill="#E1EAF6" xlink:href="#planet-shape" />
      <use fill="#F5F9FD" xlink:href="#planet-section-1" />
      <use fill="#ECF2F9" xlink:href="#planet-section-2" />
      <use fill="#E1EAF6" xlink:href="#planet-section-3" />
      <use fill="#D7E3F2" xlink:href="#planet-section-4" />
      <use fill="#D0DDF0" xlink:href="#planet-section-5" />
      <use fill="#C4D5EC" xlink:href="#planet-section-6" />
    </symbol>
    <symbol id="planet-orange">
      <use fill="#F5A77C" xlink:href="#planet-shape" />
      <use fill="#FCD380" xlink:href="#planet-section-1" />
      <use fill="#F9C57E" xlink:href="#planet-section-2" />
      <use fill="#F5A77C" xlink:href="#planet-section-3" />
      <use fill="#F19179" xlink:href="#planet-section-4" />
      <use fill="#EC7376" xlink:href="#planet-section-5" />
      <use fill="#E75873" xlink:href="#planet-section-6" />
    </symbol>
    <symbol id="planet-blue">
      <use fill="#0196E2" xlink:href="#planet-shape" />
      <use fill="#0AE7F2" xlink:href="#planet-section-1" />
      <use fill="#08D2EF" xlink:href="#planet-section-2" />
      <use fill="#05C6EB" xlink:href="#planet-section-3" />
      <use fill="#04B5E9" xlink:href="#planet-section-4" />
      <use fill="#03A9E7" xlink:href="#planet-section-5" />
      <use fill="#0B9DE7" xlink:href="#planet-section-6" />
    </symbol>
  </defs>
  <g id="hero" fill="none" fill-rule="evenodd">
    <g id="lines">
      <g class="Xwings">
        <defs>
          <path d="M122 176l7-34v34h-7z" id="path-1"/>
          <path d="M145 176l7-34v34h-7z" id="path-2"/>
        </defs>
        <g id="Page-1" fill="none" fill-rule="evenodd" transform="scale(0.15 0.15)">
          <g class="x-wing">
            <g id="Group" transform="rotate(-90 89 16)">
              <rect id="Rectangle-103" stroke="#333" stroke-width="2" fill="#FFF" y="133" width="33" height="61" rx="4"/>
              <path id="Rectangle-113" fill="#333" d="M99 33h-6v36h6z"/>
              <path id="Rectangle-109" fill="#FF3600" d="M102 189H89v4h13z"/>
              <path id="Rectangle-113" fill="#333" d="M98 0h-4v26h4z"/>
              <path d="M100 26h-8l-2 7h12l-2-7z" id="Rectangle-115" fill="#333"/>
              <path id="Rectangle-113" fill="#333" d="M86 44h-6v28h6zM85 11h-4v26h4z"/>
              <path d="M87 37h-8l-2 7h12l-2-7z" id="Rectangle-115" fill="#333"/>
              <path id="Rectangle-112" fill="#FFF" d="M88 72H78v51h10z"/>
              <path id="Rectangle-108" fill="#FFF" d="M93 116H75v69h18z"/>
              <path id="Rectangle-108" fill="#FFF" d="M105 120H87v69h18z"/>
              <path d="M92 138H13v65l79-18v-47z" id="Rectangle-105" fill="#FFF"/>
              <path d="M29 178l4-3v23.47l-4 .9V178zM35 173l4-3v27.08l-4 .93v-25zM41 169l4-3v29.72l-4 .9V169z" id="Rectangle-162" fill="#FF3600"/>
              <path d="M42 160.06L29 169v4l32-22v-13H42v22.06z" id="Rectangle-165" fill="#FF3600"/>
              <path d="M88 120h-1v69h2v-67h16v-2H88z" id="Rectangle-168" fill="#333"/>
              <path d="M76 116h-1v22h2v-20h16v-2H76z" id="Rectangle-168" fill="#333"/>
              <path id="Rectangle-112" fill="#FFF" d="M101 69H91v51h10z"/>
              <path id="Rectangle-171" fill-opacity=".1" fill="#000" d="M75 136h12v2H75z"/>
              <path id="Rectangle-172" fill-opacity=".1" fill="#000" d="M78 114h10v2H78zM91 118h10v2H91z"/>
            </g>
            <g id="Group" transform="matrix(0 1 1 0 73 169)">
              <rect id="Rectangle-103" stroke="#333" stroke-width="2" fill="#FFF" y="133" width="33" height="61" rx="4"/>
              <path id="Rectangle-113" fill="#333" d="M99 33h-6v36h6z"/>
              <path id="Rectangle-109" fill="#FF3600" d="M102 189H89v4h13z"/>
              <path id="Rectangle-113" fill="#333" d="M98 0h-4v26h4z"/>
              <path d="M100 26h-8l-2 7h12l-2-7z" id="Rectangle-115" fill="#333"/>
              <path id="Rectangle-113" fill="#333" d="M86 44h-6v28h6zM85 11h-4v26h4z"/>
              <path d="M87 37h-8l-2 7h12l-2-7z" id="Rectangle-115" fill="#333"/>
              <path id="Rectangle-112" fill="#FFF" d="M88 72H78v51h10z"/>
              <path id="Rectangle-108" fill="#FFF" d="M93 116H75v69h18z"/>
              <path id="Rectangle-108" fill="#FFF" d="M105 120H87v69h18z"/>
              <path d="M92 138H13v65l79-18v-47z" id="Rectangle-105" fill="#FFF"/>
              <path d="M29 178l4-3v23.47l-4 .9V178zM35 173l4-3v27.08l-4 .93v-25zM41 169l4-3v29.72l-4 .9V169z" id="Rectangle-162" fill="#FF3600"/>
              <path d="M42 160.06L29 169v4l32-22v-13H42v22.06z" id="Rectangle-165" fill="#FF3600"/>
              <path d="M88 120h-1v69h2v-67h16v-2H88z" id="Rectangle-168" fill="#333"/>
              <path d="M76 116h-1v22h2v-20h16v-2H76z" id="Rectangle-168" fill="#333"/>
              <path id="Rectangle-112" fill="#FFF" d="M101 69H91v51h10z"/>
              <path id="Rectangle-171" fill-opacity=".1" fill="#000" d="M75 136h12v2H75z"/>
              <path id="Rectangle-172" fill-opacity=".1" fill="#000" d="M78 114h10v2H78zM91 118h10v2H91z"/>
            </g>
            <path d="M276 163L30 150l-30-6v-14l30-6 246-13 7 5v41l-7 6z" id="Rectangle-96" fill="#FFF"/>
            <path d="M30 150l-10-2 50-3 13 7-53-2z" id="Rectangle-148" fill="#FF3600"/>
            <path id="Rectangle-99" fill="#FFF" d="M256 175v-20h48v20z"/>
            <path d="M195 155.3V151l4.3-4.7h55.4l3.78 4.7 24.57.96v3.07l-88.04.28z" id="Rectangle-152" fill-opacity=".1" fill="#000"/>
            <path d="M308 178l-4-3v-20l4-3 18 3v20l-18 3zM308 122l-4-3V99l4-3 18 3v20l-18 3z" id="Rectangle-101" fill="#FF3600"/>
            <path id="Rectangle-99" fill="#FFF" d="M256 119V99h48v20z"/>
            <path d="M30 124l-10 2 50 3 13-7-53 2z" id="Rectangle-148" fill="#FF3600"/>
            <path id="Rectangle-150" fill="#333" d="M0 138v-2h25v2z"/>
            <path d="M125.8 140.1c-.45 1.6-.8 1.56-.8-.1v-7c0-1.66 1.34-3.07 3-3.15l34-1.7c1.66-.08 1.66 0 .02.17l-31.04 3.36c-1.65.18-3.34 1.63-3.77 3.2l-1.4 5.23z" id="Rectangle-107" fill-opacity=".8" fill="#FFF"/>
            <path id="Rectangle-153" fill="#333" d="M257 175v-2h47v2zM257 101v-2h47v2z"/>
            <path id="Rectangle-155" fill="#333" d="M296 173v-18h2v18zM296 119v-18h2v18z"/>
            <path d="M195.04 118.7v4.33l4.3 4.7h55.38l3.8-4.7 24.73-1.76v-2.13l-88.2-.43z" id="Rectangle-152" fill-opacity=".1" fill="#000"/>
            <path d="M200 182c-2.2 0-4-1.8-4-4v-26l4-4h54l3 4v30h-57z" id="Rectangle-97" fill="#FFF"/>
            <path id="Rectangle-186" fill-opacity=".1" fill="#000" d="M211 184v-2h46v2z"/>
            <path d="M200 92c-2.2 0-4 1.8-4 4v26l4 4h54l3-4V92h-57z" id="Rectangle-97" fill="#FFF"/>
            <path d="M308 178l-4-3v-3l4 3 18-3v3l-18 3zM308 96l-4 3v3l4-3 18 3v-3l-18-3z" id="Rectangle-101" fill="#333"/>
            <path d="M255 92v29l-2 3h-53l-4-4v2l4 4h54l3-4V92h-2zM255 182v-29l-2-3h-53l-4 4v-2l4-4h54l3 4v30h-2z" id="Rectangle-97" fill="#333"/>
            <path id="Rectangle-186" fill-opacity=".1" fill="#000" d="M211 90v2h46v-2z"/>
            <path d="M189 14v3h-44v10h44v3h22v42h-5v20h-6c-2.2 0-4 1.8-4 4v19.23L30 124l-30 6v7h283v-18h21V99h-37v-7h9l-16.86-74H262V0h-69v8-4h-51v10h47zm119 108l-4-3V99l4-3 18 3v20l-18 3zM106 6v6h36V6h-36zm156-3v13h4V3h-4zM73 7v4h26V7H73zm26-2v8l7 2V3l-7 2zm18 14v6h28v-6h-28zm-33 1v4h26v-4H84zm26-2v8l7 2V16l-7 2z" id="Rectangle-96" fill-opacity=".1" fill="#000"/>
            <g id="Rectangle-188" transform="rotate(-90 137 137)">
              <use stroke="#FFF" fill="#333" xlink:href="#path-1"/>
              <use xlink:href="#path-1"/>
            </g>
            <g id="Rectangle-188" transform="rotate(-90 137 137)">
              <use stroke="#FFF" fill="#333" transform="matrix(-1 0 0 1 297 0)" xlink:href="#path-2"/>
              <use xlink:href="#path-2"/>
            </g>
            <path d="M176 152v-7l9 3-9 4zM176 122v7l9-3-9-4zM142 145v-16h34v16z" id="Rectangle-188" stroke="#FFF" fill="#333"/>
            <path d="M176 145v-16l9-3v22l-9-3z" id="Rectangle-188" stroke="#FFF" fill="#333"/>
            <path d="M169.5 142.5l3.54-3.54M166.5 142.5l7-7" id="Line" stroke="#FFF" stroke-linecap="square"/>
          </g>
        </g>
        <rect width="" height="" class="Trail" transform="translate(60 20)"/>
      </g>
      <g class="Xwings">
        <defs>
          <path d="M122 176l7-34v34h-7z" id="path-1"/>
          <path d="M145 176l7-34v34h-7z" id="path-2"/>
        </defs>
        <g id="Page-1" fill="none" fill-rule="evenodd" transform="scale(0.15 0.15)">
          <g class="x-wing">
            <g id="Group" transform="rotate(-90 89 16)">
              <rect id="Rectangle-103" stroke="#333" stroke-width="2" fill="#FFF" y="133" width="33" height="61" rx="4"/>
              <path id="Rectangle-113" fill="#333" d="M99 33h-6v36h6z"/>
              <path id="Rectangle-109" fill="#FF3600" d="M102 189H89v4h13z"/>
              <path id="Rectangle-113" fill="#333" d="M98 0h-4v26h4z"/>
              <path d="M100 26h-8l-2 7h12l-2-7z" id="Rectangle-115" fill="#333"/>
              <path id="Rectangle-113" fill="#333" d="M86 44h-6v28h6zM85 11h-4v26h4z"/>
              <path d="M87 37h-8l-2 7h12l-2-7z" id="Rectangle-115" fill="#333"/>
              <path id="Rectangle-112" fill="#FFF" d="M88 72H78v51h10z"/>
              <path id="Rectangle-108" fill="#FFF" d="M93 116H75v69h18z"/>
              <path id="Rectangle-108" fill="#FFF" d="M105 120H87v69h18z"/>
              <path d="M92 138H13v65l79-18v-47z" id="Rectangle-105" fill="#FFF"/>
              <path d="M29 178l4-3v23.47l-4 .9V178zM35 173l4-3v27.08l-4 .93v-25zM41 169l4-3v29.72l-4 .9V169z" id="Rectangle-162" fill="#FF3600"/>
              <path d="M42 160.06L29 169v4l32-22v-13H42v22.06z" id="Rectangle-165" fill="#FF3600"/>
              <path d="M88 120h-1v69h2v-67h16v-2H88z" id="Rectangle-168" fill="#333"/>
              <path d="M76 116h-1v22h2v-20h16v-2H76z" id="Rectangle-168" fill="#333"/>
              <path id="Rectangle-112" fill="#FFF" d="M101 69H91v51h10z"/>
              <path id="Rectangle-171" fill-opacity=".1" fill="#000" d="M75 136h12v2H75z"/>
              <path id="Rectangle-172" fill-opacity=".1" fill="#000" d="M78 114h10v2H78zM91 118h10v2H91z"/>
            </g>
            <g id="Group" transform="matrix(0 1 1 0 73 169)">
              <rect id="Rectangle-103" stroke="#333" stroke-width="2" fill="#FFF" y="133" width="33" height="61" rx="4"/>
              <path id="Rectangle-113" fill="#333" d="M99 33h-6v36h6z"/>
              <path id="Rectangle-109" fill="#FF3600" d="M102 189H89v4h13z"/>
              <path id="Rectangle-113" fill="#333" d="M98 0h-4v26h4z"/>
              <path d="M100 26h-8l-2 7h12l-2-7z" id="Rectangle-115" fill="#333"/>
              <path id="Rectangle-113" fill="#333" d="M86 44h-6v28h6zM85 11h-4v26h4z"/>
              <path d="M87 37h-8l-2 7h12l-2-7z" id="Rectangle-115" fill="#333"/>
              <path id="Rectangle-112" fill="#FFF" d="M88 72H78v51h10z"/>
              <path id="Rectangle-108" fill="#FFF" d="M93 116H75v69h18z"/>
              <path id="Rectangle-108" fill="#FFF" d="M105 120H87v69h18z"/>
              <path d="M92 138H13v65l79-18v-47z" id="Rectangle-105" fill="#FFF"/>
              <path d="M29 178l4-3v23.47l-4 .9V178zM35 173l4-3v27.08l-4 .93v-25zM41 169l4-3v29.72l-4 .9V169z" id="Rectangle-162" fill="#FF3600"/>
              <path d="M42 160.06L29 169v4l32-22v-13H42v22.06z" id="Rectangle-165" fill="#FF3600"/>
              <path d="M88 120h-1v69h2v-67h16v-2H88z" id="Rectangle-168" fill="#333"/>
              <path d="M76 116h-1v22h2v-20h16v-2H76z" id="Rectangle-168" fill="#333"/>
              <path id="Rectangle-112" fill="#FFF" d="M101 69H91v51h10z"/>
              <path id="Rectangle-171" fill-opacity=".1" fill="#000" d="M75 136h12v2H75z"/>
              <path id="Rectangle-172" fill-opacity=".1" fill="#000" d="M78 114h10v2H78zM91 118h10v2H91z"/>
            </g>
            <path d="M276 163L30 150l-30-6v-14l30-6 246-13 7 5v41l-7 6z" id="Rectangle-96" fill="#FFF"/>
            <path d="M30 150l-10-2 50-3 13 7-53-2z" id="Rectangle-148" fill="#FF3600"/>
            <path id="Rectangle-99" fill="#FFF" d="M256 175v-20h48v20z"/>
            <path d="M195 155.3V151l4.3-4.7h55.4l3.78 4.7 24.57.96v3.07l-88.04.28z" id="Rectangle-152" fill-opacity=".1" fill="#000"/>
            <path d="M308 178l-4-3v-20l4-3 18 3v20l-18 3zM308 122l-4-3V99l4-3 18 3v20l-18 3z" id="Rectangle-101" fill="#FF3600"/>
            <path id="Rectangle-99" fill="#FFF" d="M256 119V99h48v20z"/>
            <path d="M30 124l-10 2 50 3 13-7-53 2z" id="Rectangle-148" fill="#FF3600"/>
            <path id="Rectangle-150" fill="#333" d="M0 138v-2h25v2z"/>
            <path d="M125.8 140.1c-.45 1.6-.8 1.56-.8-.1v-7c0-1.66 1.34-3.07 3-3.15l34-1.7c1.66-.08 1.66 0 .02.17l-31.04 3.36c-1.65.18-3.34 1.63-3.77 3.2l-1.4 5.23z" id="Rectangle-107" fill-opacity=".8" fill="#FFF"/>
            <path id="Rectangle-153" fill="#333" d="M257 175v-2h47v2zM257 101v-2h47v2z"/>
            <path id="Rectangle-155" fill="#333" d="M296 173v-18h2v18zM296 119v-18h2v18z"/>
            <path d="M195.04 118.7v4.33l4.3 4.7h55.38l3.8-4.7 24.73-1.76v-2.13l-88.2-.43z" id="Rectangle-152" fill-opacity=".1" fill="#000"/>
            <path d="M200 182c-2.2 0-4-1.8-4-4v-26l4-4h54l3 4v30h-57z" id="Rectangle-97" fill="#FFF"/>
            <path id="Rectangle-186" fill-opacity=".1" fill="#000" d="M211 184v-2h46v2z"/>
            <path d="M200 92c-2.2 0-4 1.8-4 4v26l4 4h54l3-4V92h-57z" id="Rectangle-97" fill="#FFF"/>
            <path d="M308 178l-4-3v-3l4 3 18-3v3l-18 3zM308 96l-4 3v3l4-3 18 3v-3l-18-3z" id="Rectangle-101" fill="#333"/>
            <path d="M255 92v29l-2 3h-53l-4-4v2l4 4h54l3-4V92h-2zM255 182v-29l-2-3h-53l-4 4v-2l4-4h54l3 4v30h-2z" id="Rectangle-97" fill="#333"/>
            <path id="Rectangle-186" fill-opacity=".1" fill="#000" d="M211 90v2h46v-2z"/>
            <path d="M189 14v3h-44v10h44v3h22v42h-5v20h-6c-2.2 0-4 1.8-4 4v19.23L30 124l-30 6v7h283v-18h21V99h-37v-7h9l-16.86-74H262V0h-69v8-4h-51v10h47zm119 108l-4-3V99l4-3 18 3v20l-18 3zM106 6v6h36V6h-36zm156-3v13h4V3h-4zM73 7v4h26V7H73zm26-2v8l7 2V3l-7 2zm18 14v6h28v-6h-28zm-33 1v4h26v-4H84zm26-2v8l7 2V16l-7 2z" id="Rectangle-96" fill-opacity=".1" fill="#000"/>
            <g id="Rectangle-188" transform="rotate(-90 137 137)">
              <use stroke="#FFF" fill="#333" xlink:href="#path-1"/>
              <use xlink:href="#path-1"/>
            </g>
            <g id="Rectangle-188" transform="rotate(-90 137 137)">
              <use stroke="#FFF" fill="#333" transform="matrix(-1 0 0 1 297 0)" xlink:href="#path-2"/>
              <use xlink:href="#path-2"/>
            </g>
            <path d="M176 152v-7l9 3-9 4zM176 122v7l9-3-9-4zM142 145v-16h34v16z" id="Rectangle-188" stroke="#FFF" fill="#333"/>
            <path d="M176 145v-16l9-3v22l-9-3z" id="Rectangle-188" stroke="#FFF" fill="#333"/>
            <path d="M169.5 142.5l3.54-3.54M166.5 142.5l7-7" id="Line" stroke="#FFF" stroke-linecap="square"/>
          </g>
        </g>
        <rect width="" height="" class="Trail" transform="translate(60 20)"/>
      </g>
      <g class="Xwings">
        <defs>
          <path d="M122 176l7-34v34h-7z" id="path-1"/>
          <path d="M145 176l7-34v34h-7z" id="path-2"/>
        </defs>
        <g id="Page-1" fill="none" fill-rule="evenodd" transform="scale(0.15 0.15)">
          <g class="x-wing">
            <g id="Group" transform="rotate(-90 89 16)">
              <rect id="Rectangle-103" stroke="#333" stroke-width="2" fill="#FFF" y="133" width="33" height="61" rx="4"/>
              <path id="Rectangle-113" fill="#333" d="M99 33h-6v36h6z"/>
              <path id="Rectangle-109" fill="#FF3600" d="M102 189H89v4h13z"/>
              <path id="Rectangle-113" fill="#333" d="M98 0h-4v26h4z"/>
              <path d="M100 26h-8l-2 7h12l-2-7z" id="Rectangle-115" fill="#333"/>
              <path id="Rectangle-113" fill="#333" d="M86 44h-6v28h6zM85 11h-4v26h4z"/>
              <path d="M87 37h-8l-2 7h12l-2-7z" id="Rectangle-115" fill="#333"/>
              <path id="Rectangle-112" fill="#FFF" d="M88 72H78v51h10z"/>
              <path id="Rectangle-108" fill="#FFF" d="M93 116H75v69h18z"/>
              <path id="Rectangle-108" fill="#FFF" d="M105 120H87v69h18z"/>
              <path d="M92 138H13v65l79-18v-47z" id="Rectangle-105" fill="#FFF"/>
              <path d="M29 178l4-3v23.47l-4 .9V178zM35 173l4-3v27.08l-4 .93v-25zM41 169l4-3v29.72l-4 .9V169z" id="Rectangle-162" fill="#FF3600"/>
              <path d="M42 160.06L29 169v4l32-22v-13H42v22.06z" id="Rectangle-165" fill="#FF3600"/>
              <path d="M88 120h-1v69h2v-67h16v-2H88z" id="Rectangle-168" fill="#333"/>
              <path d="M76 116h-1v22h2v-20h16v-2H76z" id="Rectangle-168" fill="#333"/>
              <path id="Rectangle-112" fill="#FFF" d="M101 69H91v51h10z"/>
              <path id="Rectangle-171" fill-opacity=".1" fill="#000" d="M75 136h12v2H75z"/>
              <path id="Rectangle-172" fill-opacity=".1" fill="#000" d="M78 114h10v2H78zM91 118h10v2H91z"/>
            </g>
            <g id="Group" transform="matrix(0 1 1 0 73 169)">
              <rect id="Rectangle-103" stroke="#333" stroke-width="2" fill="#FFF" y="133" width="33" height="61" rx="4"/>
              <path id="Rectangle-113" fill="#333" d="M99 33h-6v36h6z"/>
              <path id="Rectangle-109" fill="#FF3600" d="M102 189H89v4h13z"/>
              <path id="Rectangle-113" fill="#333" d="M98 0h-4v26h4z"/>
              <path d="M100 26h-8l-2 7h12l-2-7z" id="Rectangle-115" fill="#333"/>
              <path id="Rectangle-113" fill="#333" d="M86 44h-6v28h6zM85 11h-4v26h4z"/>
              <path d="M87 37h-8l-2 7h12l-2-7z" id="Rectangle-115" fill="#333"/>
              <path id="Rectangle-112" fill="#FFF" d="M88 72H78v51h10z"/>
              <path id="Rectangle-108" fill="#FFF" d="M93 116H75v69h18z"/>
              <path id="Rectangle-108" fill="#FFF" d="M105 120H87v69h18z"/>
              <path d="M92 138H13v65l79-18v-47z" id="Rectangle-105" fill="#FFF"/>
              <path d="M29 178l4-3v23.47l-4 .9V178zM35 173l4-3v27.08l-4 .93v-25zM41 169l4-3v29.72l-4 .9V169z" id="Rectangle-162" fill="#FF3600"/>
              <path d="M42 160.06L29 169v4l32-22v-13H42v22.06z" id="Rectangle-165" fill="#FF3600"/>
              <path d="M88 120h-1v69h2v-67h16v-2H88z" id="Rectangle-168" fill="#333"/>
              <path d="M76 116h-1v22h2v-20h16v-2H76z" id="Rectangle-168" fill="#333"/>
              <path id="Rectangle-112" fill="#FFF" d="M101 69H91v51h10z"/>
              <path id="Rectangle-171" fill-opacity=".1" fill="#000" d="M75 136h12v2H75z"/>
              <path id="Rectangle-172" fill-opacity=".1" fill="#000" d="M78 114h10v2H78zM91 118h10v2H91z"/>
            </g>
            <path d="M276 163L30 150l-30-6v-14l30-6 246-13 7 5v41l-7 6z" id="Rectangle-96" fill="#FFF"/>
            <path d="M30 150l-10-2 50-3 13 7-53-2z" id="Rectangle-148" fill="#FF3600"/>
            <path id="Rectangle-99" fill="#FFF" d="M256 175v-20h48v20z"/>
            <path d="M195 155.3V151l4.3-4.7h55.4l3.78 4.7 24.57.96v3.07l-88.04.28z" id="Rectangle-152" fill-opacity=".1" fill="#000"/>
            <path d="M308 178l-4-3v-20l4-3 18 3v20l-18 3zM308 122l-4-3V99l4-3 18 3v20l-18 3z" id="Rectangle-101" fill="#FF3600"/>
            <path id="Rectangle-99" fill="#FFF" d="M256 119V99h48v20z"/>
            <path d="M30 124l-10 2 50 3 13-7-53 2z" id="Rectangle-148" fill="#FF3600"/>
            <path id="Rectangle-150" fill="#333" d="M0 138v-2h25v2z"/>
            <path d="M125.8 140.1c-.45 1.6-.8 1.56-.8-.1v-7c0-1.66 1.34-3.07 3-3.15l34-1.7c1.66-.08 1.66 0 .02.17l-31.04 3.36c-1.65.18-3.34 1.63-3.77 3.2l-1.4 5.23z" id="Rectangle-107" fill-opacity=".8" fill="#FFF"/>
            <path id="Rectangle-153" fill="#333" d="M257 175v-2h47v2zM257 101v-2h47v2z"/>
            <path id="Rectangle-155" fill="#333" d="M296 173v-18h2v18zM296 119v-18h2v18z"/>
            <path d="M195.04 118.7v4.33l4.3 4.7h55.38l3.8-4.7 24.73-1.76v-2.13l-88.2-.43z" id="Rectangle-152" fill-opacity=".1" fill="#000"/>
            <path d="M200 182c-2.2 0-4-1.8-4-4v-26l4-4h54l3 4v30h-57z" id="Rectangle-97" fill="#FFF"/>
            <path id="Rectangle-186" fill-opacity=".1" fill="#000" d="M211 184v-2h46v2z"/>
            <path d="M200 92c-2.2 0-4 1.8-4 4v26l4 4h54l3-4V92h-57z" id="Rectangle-97" fill="#FFF"/>
            <path d="M308 178l-4-3v-3l4 3 18-3v3l-18 3zM308 96l-4 3v3l4-3 18 3v-3l-18-3z" id="Rectangle-101" fill="#333"/>
            <path d="M255 92v29l-2 3h-53l-4-4v2l4 4h54l3-4V92h-2zM255 182v-29l-2-3h-53l-4 4v-2l4-4h54l3 4v30h-2z" id="Rectangle-97" fill="#333"/>
            <path id="Rectangle-186" fill-opacity=".1" fill="#000" d="M211 90v2h46v-2z"/>
            <path d="M189 14v3h-44v10h44v3h22v42h-5v20h-6c-2.2 0-4 1.8-4 4v19.23L30 124l-30 6v7h283v-18h21V99h-37v-7h9l-16.86-74H262V0h-69v8-4h-51v10h47zm119 108l-4-3V99l4-3 18 3v20l-18 3zM106 6v6h36V6h-36zm156-3v13h4V3h-4zM73 7v4h26V7H73zm26-2v8l7 2V3l-7 2zm18 14v6h28v-6h-28zm-33 1v4h26v-4H84zm26-2v8l7 2V16l-7 2z" id="Rectangle-96" fill-opacity=".1" fill="#000"/>
            <g id="Rectangle-188" transform="rotate(-90 137 137)">
              <use stroke="#FFF" fill="#333" xlink:href="#path-1"/>
              <use xlink:href="#path-1"/>
            </g>
            <g id="Rectangle-188" transform="rotate(-90 137 137)">
              <use stroke="#FFF" fill="#333" transform="matrix(-1 0 0 1 297 0)" xlink:href="#path-2"/>
              <use xlink:href="#path-2"/>
            </g>
            <path d="M176 152v-7l9 3-9 4zM176 122v7l9-3-9-4zM142 145v-16h34v16z" id="Rectangle-188" stroke="#FFF" fill="#333"/>
            <path d="M176 145v-16l9-3v22l-9-3z" id="Rectangle-188" stroke="#FFF" fill="#333"/>
            <path d="M169.5 142.5l3.54-3.54M166.5 142.5l7-7" id="Line" stroke="#FFF" stroke-linecap="square"/>
          </g>
        </g>
        <rect width="" height="" class="Trail" transform="translate(60 20)"/>
      </g>
      <g class="Xwings">
        <defs>
          <path d="M122 176l7-34v34h-7z" id="path-1"/>
          <path d="M145 176l7-34v34h-7z" id="path-2"/>
        </defs>
        <g id="Page-1" fill="none" fill-rule="evenodd" transform="scale(0.15 0.15)">
          <g class="x-wing">
            <g id="Group" transform="rotate(-90 89 16)">
              <rect id="Rectangle-103" stroke="#333" stroke-width="2" fill="#FFF" y="133" width="33" height="61" rx="4"/>
              <path id="Rectangle-113" fill="#333" d="M99 33h-6v36h6z"/>
              <path id="Rectangle-109" fill="#FF3600" d="M102 189H89v4h13z"/>
              <path id="Rectangle-113" fill="#333" d="M98 0h-4v26h4z"/>
              <path d="M100 26h-8l-2 7h12l-2-7z" id="Rectangle-115" fill="#333"/>
              <path id="Rectangle-113" fill="#333" d="M86 44h-6v28h6zM85 11h-4v26h4z"/>
              <path d="M87 37h-8l-2 7h12l-2-7z" id="Rectangle-115" fill="#333"/>
              <path id="Rectangle-112" fill="#FFF" d="M88 72H78v51h10z"/>
              <path id="Rectangle-108" fill="#FFF" d="M93 116H75v69h18z"/>
              <path id="Rectangle-108" fill="#FFF" d="M105 120H87v69h18z"/>
              <path d="M92 138H13v65l79-18v-47z" id="Rectangle-105" fill="#FFF"/>
              <path d="M29 178l4-3v23.47l-4 .9V178zM35 173l4-3v27.08l-4 .93v-25zM41 169l4-3v29.72l-4 .9V169z" id="Rectangle-162" fill="#FF3600"/>
              <path d="M42 160.06L29 169v4l32-22v-13H42v22.06z" id="Rectangle-165" fill="#FF3600"/>
              <path d="M88 120h-1v69h2v-67h16v-2H88z" id="Rectangle-168" fill="#333"/>
              <path d="M76 116h-1v22h2v-20h16v-2H76z" id="Rectangle-168" fill="#333"/>
              <path id="Rectangle-112" fill="#FFF" d="M101 69H91v51h10z"/>
              <path id="Rectangle-171" fill-opacity=".1" fill="#000" d="M75 136h12v2H75z"/>
              <path id="Rectangle-172" fill-opacity=".1" fill="#000" d="M78 114h10v2H78zM91 118h10v2H91z"/>
            </g>
            <g id="Group" transform="matrix(0 1 1 0 73 169)">
              <rect id="Rectangle-103" stroke="#333" stroke-width="2" fill="#FFF" y="133" width="33" height="61" rx="4"/>
              <path id="Rectangle-113" fill="#333" d="M99 33h-6v36h6z"/>
              <path id="Rectangle-109" fill="#FF3600" d="M102 189H89v4h13z"/>
              <path id="Rectangle-113" fill="#333" d="M98 0h-4v26h4z"/>
              <path d="M100 26h-8l-2 7h12l-2-7z" id="Rectangle-115" fill="#333"/>
              <path id="Rectangle-113" fill="#333" d="M86 44h-6v28h6zM85 11h-4v26h4z"/>
              <path d="M87 37h-8l-2 7h12l-2-7z" id="Rectangle-115" fill="#333"/>
              <path id="Rectangle-112" fill="#FFF" d="M88 72H78v51h10z"/>
              <path id="Rectangle-108" fill="#FFF" d="M93 116H75v69h18z"/>
              <path id="Rectangle-108" fill="#FFF" d="M105 120H87v69h18z"/>
              <path d="M92 138H13v65l79-18v-47z" id="Rectangle-105" fill="#FFF"/>
              <path d="M29 178l4-3v23.47l-4 .9V178zM35 173l4-3v27.08l-4 .93v-25zM41 169l4-3v29.72l-4 .9V169z" id="Rectangle-162" fill="#FF3600"/>
              <path d="M42 160.06L29 169v4l32-22v-13H42v22.06z" id="Rectangle-165" fill="#FF3600"/>
              <path d="M88 120h-1v69h2v-67h16v-2H88z" id="Rectangle-168" fill="#333"/>
              <path d="M76 116h-1v22h2v-20h16v-2H76z" id="Rectangle-168" fill="#333"/>
              <path id="Rectangle-112" fill="#FFF" d="M101 69H91v51h10z"/>
              <path id="Rectangle-171" fill-opacity=".1" fill="#000" d="M75 136h12v2H75z"/>
              <path id="Rectangle-172" fill-opacity=".1" fill="#000" d="M78 114h10v2H78zM91 118h10v2H91z"/>
            </g>
            <path d="M276 163L30 150l-30-6v-14l30-6 246-13 7 5v41l-7 6z" id="Rectangle-96" fill="#FFF"/>
            <path d="M30 150l-10-2 50-3 13 7-53-2z" id="Rectangle-148" fill="#FF3600"/>
            <path id="Rectangle-99" fill="#FFF" d="M256 175v-20h48v20z"/>
            <path d="M195 155.3V151l4.3-4.7h55.4l3.78 4.7 24.57.96v3.07l-88.04.28z" id="Rectangle-152" fill-opacity=".1" fill="#000"/>
            <path d="M308 178l-4-3v-20l4-3 18 3v20l-18 3zM308 122l-4-3V99l4-3 18 3v20l-18 3z" id="Rectangle-101" fill="#FF3600"/>
            <path id="Rectangle-99" fill="#FFF" d="M256 119V99h48v20z"/>
            <path d="M30 124l-10 2 50 3 13-7-53 2z" id="Rectangle-148" fill="#FF3600"/>
            <path id="Rectangle-150" fill="#333" d="M0 138v-2h25v2z"/>
            <path d="M125.8 140.1c-.45 1.6-.8 1.56-.8-.1v-7c0-1.66 1.34-3.07 3-3.15l34-1.7c1.66-.08 1.66 0 .02.17l-31.04 3.36c-1.65.18-3.34 1.63-3.77 3.2l-1.4 5.23z" id="Rectangle-107" fill-opacity=".8" fill="#FFF"/>
            <path id="Rectangle-153" fill="#333" d="M257 175v-2h47v2zM257 101v-2h47v2z"/>
            <path id="Rectangle-155" fill="#333" d="M296 173v-18h2v18zM296 119v-18h2v18z"/>
            <path d="M195.04 118.7v4.33l4.3 4.7h55.38l3.8-4.7 24.73-1.76v-2.13l-88.2-.43z" id="Rectangle-152" fill-opacity=".1" fill="#000"/>
            <path d="M200 182c-2.2 0-4-1.8-4-4v-26l4-4h54l3 4v30h-57z" id="Rectangle-97" fill="#FFF"/>
            <path id="Rectangle-186" fill-opacity=".1" fill="#000" d="M211 184v-2h46v2z"/>
            <path d="M200 92c-2.2 0-4 1.8-4 4v26l4 4h54l3-4V92h-57z" id="Rectangle-97" fill="#FFF"/>
            <path d="M308 178l-4-3v-3l4 3 18-3v3l-18 3zM308 96l-4 3v3l4-3 18 3v-3l-18-3z" id="Rectangle-101" fill="#333"/>
            <path d="M255 92v29l-2 3h-53l-4-4v2l4 4h54l3-4V92h-2zM255 182v-29l-2-3h-53l-4 4v-2l4-4h54l3 4v30h-2z" id="Rectangle-97" fill="#333"/>
            <path id="Rectangle-186" fill-opacity=".1" fill="#000" d="M211 90v2h46v-2z"/>
            <path d="M189 14v3h-44v10h44v3h22v42h-5v20h-6c-2.2 0-4 1.8-4 4v19.23L30 124l-30 6v7h283v-18h21V99h-37v-7h9l-16.86-74H262V0h-69v8-4h-51v10h47zm119 108l-4-3V99l4-3 18 3v20l-18 3zM106 6v6h36V6h-36zm156-3v13h4V3h-4zM73 7v4h26V7H73zm26-2v8l7 2V3l-7 2zm18 14v6h28v-6h-28zm-33 1v4h26v-4H84zm26-2v8l7 2V16l-7 2z" id="Rectangle-96" fill-opacity=".1" fill="#000"/>
            <g id="Rectangle-188" transform="rotate(-90 137 137)">
              <use stroke="#FFF" fill="#333" xlink:href="#path-1"/>
              <use xlink:href="#path-1"/>
            </g>
            <g id="Rectangle-188" transform="rotate(-90 137 137)">
              <use stroke="#FFF" fill="#333" transform="matrix(-1 0 0 1 297 0)" xlink:href="#path-2"/>
              <use xlink:href="#path-2"/>
            </g>
            <path d="M176 152v-7l9 3-9 4zM176 122v7l9-3-9-4zM142 145v-16h34v16z" id="Rectangle-188" stroke="#FFF" fill="#333"/>
            <path d="M176 145v-16l9-3v22l-9-3z" id="Rectangle-188" stroke="#FFF" fill="#333"/>
            <path d="M169.5 142.5l3.54-3.54M166.5 142.5l7-7" id="Line" stroke="#FFF" stroke-linecap="square"/>
          </g>
        </g>
        <rect width="" height="" class="Trail" transform="translate(60 20)"/>
      </g>
      <g class="Xwings">
        <defs>
          <path d="M122 176l7-34v34h-7z" id="path-1"/>
          <path d="M145 176l7-34v34h-7z" id="path-2"/>
        </defs>
        <g id="Page-1" fill="none" fill-rule="evenodd" transform="scale(0.15 0.15)">
          <g class="x-wing">
            <g id="Group" transform="rotate(-90 89 16)">
              <rect id="Rectangle-103" stroke="#333" stroke-width="2" fill="#FFF" y="133" width="33" height="61" rx="4"/>
              <path id="Rectangle-113" fill="#333" d="M99 33h-6v36h6z"/>
              <path id="Rectangle-109" fill="#FF3600" d="M102 189H89v4h13z"/>
              <path id="Rectangle-113" fill="#333" d="M98 0h-4v26h4z"/>
              <path d="M100 26h-8l-2 7h12l-2-7z" id="Rectangle-115" fill="#333"/>
              <path id="Rectangle-113" fill="#333" d="M86 44h-6v28h6zM85 11h-4v26h4z"/>
              <path d="M87 37h-8l-2 7h12l-2-7z" id="Rectangle-115" fill="#333"/>
              <path id="Rectangle-112" fill="#FFF" d="M88 72H78v51h10z"/>
              <path id="Rectangle-108" fill="#FFF" d="M93 116H75v69h18z"/>
              <path id="Rectangle-108" fill="#FFF" d="M105 120H87v69h18z"/>
              <path d="M92 138H13v65l79-18v-47z" id="Rectangle-105" fill="#FFF"/>
              <path d="M29 178l4-3v23.47l-4 .9V178zM35 173l4-3v27.08l-4 .93v-25zM41 169l4-3v29.72l-4 .9V169z" id="Rectangle-162" fill="#FF3600"/>
              <path d="M42 160.06L29 169v4l32-22v-13H42v22.06z" id="Rectangle-165" fill="#FF3600"/>
              <path d="M88 120h-1v69h2v-67h16v-2H88z" id="Rectangle-168" fill="#333"/>
              <path d="M76 116h-1v22h2v-20h16v-2H76z" id="Rectangle-168" fill="#333"/>
              <path id="Rectangle-112" fill="#FFF" d="M101 69H91v51h10z"/>
              <path id="Rectangle-171" fill-opacity=".1" fill="#000" d="M75 136h12v2H75z"/>
              <path id="Rectangle-172" fill-opacity=".1" fill="#000" d="M78 114h10v2H78zM91 118h10v2H91z"/>
            </g>
            <g id="Group" transform="matrix(0 1 1 0 73 169)">
              <rect id="Rectangle-103" stroke="#333" stroke-width="2" fill="#FFF" y="133" width="33" height="61" rx="4"/>
              <path id="Rectangle-113" fill="#333" d="M99 33h-6v36h6z"/>
              <path id="Rectangle-109" fill="#FF3600" d="M102 189H89v4h13z"/>
              <path id="Rectangle-113" fill="#333" d="M98 0h-4v26h4z"/>
              <path d="M100 26h-8l-2 7h12l-2-7z" id="Rectangle-115" fill="#333"/>
              <path id="Rectangle-113" fill="#333" d="M86 44h-6v28h6zM85 11h-4v26h4z"/>
              <path d="M87 37h-8l-2 7h12l-2-7z" id="Rectangle-115" fill="#333"/>
              <path id="Rectangle-112" fill="#FFF" d="M88 72H78v51h10z"/>
              <path id="Rectangle-108" fill="#FFF" d="M93 116H75v69h18z"/>
              <path id="Rectangle-108" fill="#FFF" d="M105 120H87v69h18z"/>
              <path d="M92 138H13v65l79-18v-47z" id="Rectangle-105" fill="#FFF"/>
              <path d="M29 178l4-3v23.47l-4 .9V178zM35 173l4-3v27.08l-4 .93v-25zM41 169l4-3v29.72l-4 .9V169z" id="Rectangle-162" fill="#FF3600"/>
              <path d="M42 160.06L29 169v4l32-22v-13H42v22.06z" id="Rectangle-165" fill="#FF3600"/>
              <path d="M88 120h-1v69h2v-67h16v-2H88z" id="Rectangle-168" fill="#333"/>
              <path d="M76 116h-1v22h2v-20h16v-2H76z" id="Rectangle-168" fill="#333"/>
              <path id="Rectangle-112" fill="#FFF" d="M101 69H91v51h10z"/>
              <path id="Rectangle-171" fill-opacity=".1" fill="#000" d="M75 136h12v2H75z"/>
              <path id="Rectangle-172" fill-opacity=".1" fill="#000" d="M78 114h10v2H78zM91 118h10v2H91z"/>
            </g>
            <path d="M276 163L30 150l-30-6v-14l30-6 246-13 7 5v41l-7 6z" id="Rectangle-96" fill="#FFF"/>
            <path d="M30 150l-10-2 50-3 13 7-53-2z" id="Rectangle-148" fill="#FF3600"/>
            <path id="Rectangle-99" fill="#FFF" d="M256 175v-20h48v20z"/>
            <path d="M195 155.3V151l4.3-4.7h55.4l3.78 4.7 24.57.96v3.07l-88.04.28z" id="Rectangle-152" fill-opacity=".1" fill="#000"/>
            <path d="M308 178l-4-3v-20l4-3 18 3v20l-18 3zM308 122l-4-3V99l4-3 18 3v20l-18 3z" id="Rectangle-101" fill="#FF3600"/>
            <path id="Rectangle-99" fill="#FFF" d="M256 119V99h48v20z"/>
            <path d="M30 124l-10 2 50 3 13-7-53 2z" id="Rectangle-148" fill="#FF3600"/>
            <path id="Rectangle-150" fill="#333" d="M0 138v-2h25v2z"/>
            <path d="M125.8 140.1c-.45 1.6-.8 1.56-.8-.1v-7c0-1.66 1.34-3.07 3-3.15l34-1.7c1.66-.08 1.66 0 .02.17l-31.04 3.36c-1.65.18-3.34 1.63-3.77 3.2l-1.4 5.23z" id="Rectangle-107" fill-opacity=".8" fill="#FFF"/>
            <path id="Rectangle-153" fill="#333" d="M257 175v-2h47v2zM257 101v-2h47v2z"/>
            <path id="Rectangle-155" fill="#333" d="M296 173v-18h2v18zM296 119v-18h2v18z"/>
            <path d="M195.04 118.7v4.33l4.3 4.7h55.38l3.8-4.7 24.73-1.76v-2.13l-88.2-.43z" id="Rectangle-152" fill-opacity=".1" fill="#000"/>
            <path d="M200 182c-2.2 0-4-1.8-4-4v-26l4-4h54l3 4v30h-57z" id="Rectangle-97" fill="#FFF"/>
            <path id="Rectangle-186" fill-opacity=".1" fill="#000" d="M211 184v-2h46v2z"/>
            <path d="M200 92c-2.2 0-4 1.8-4 4v26l4 4h54l3-4V92h-57z" id="Rectangle-97" fill="#FFF"/>
            <path d="M308 178l-4-3v-3l4 3 18-3v3l-18 3zM308 96l-4 3v3l4-3 18 3v-3l-18-3z" id="Rectangle-101" fill="#333"/>
            <path d="M255 92v29l-2 3h-53l-4-4v2l4 4h54l3-4V92h-2zM255 182v-29l-2-3h-53l-4 4v-2l4-4h54l3 4v30h-2z" id="Rectangle-97" fill="#333"/>
            <path id="Rectangle-186" fill-opacity=".1" fill="#000" d="M211 90v2h46v-2z"/>
            <path d="M189 14v3h-44v10h44v3h22v42h-5v20h-6c-2.2 0-4 1.8-4 4v19.23L30 124l-30 6v7h283v-18h21V99h-37v-7h9l-16.86-74H262V0h-69v8-4h-51v10h47zm119 108l-4-3V99l4-3 18 3v20l-18 3zM106 6v6h36V6h-36zm156-3v13h4V3h-4zM73 7v4h26V7H73zm26-2v8l7 2V3l-7 2zm18 14v6h28v-6h-28zm-33 1v4h26v-4H84zm26-2v8l7 2V16l-7 2z" id="Rectangle-96" fill-opacity=".1" fill="#000"/>
            <g id="Rectangle-188" transform="rotate(-90 137 137)">
              <use stroke="#FFF" fill="#333" xlink:href="#path-1"/>
              <use xlink:href="#path-1"/>
            </g>
            <g id="Rectangle-188" transform="rotate(-90 137 137)">
              <use stroke="#FFF" fill="#333" transform="matrix(-1 0 0 1 297 0)" xlink:href="#path-2"/>
              <use xlink:href="#path-2"/>
            </g>
            <path d="M176 152v-7l9 3-9 4zM176 122v7l9-3-9-4zM142 145v-16h34v16z" id="Rectangle-188" stroke="#FFF" fill="#333"/>
            <path d="M176 145v-16l9-3v22l-9-3z" id="Rectangle-188" stroke="#FFF" fill="#333"/>
            <path d="M169.5 142.5l3.54-3.54M166.5 142.5l7-7" id="Line" stroke="#FFF" stroke-linecap="square"/>
          </g>
        </g>
        <rect width="" height="" class="Trail" transform="translate(60 20)"/>
      </g>
    </g>
    <g id="distance-1x">
      <g id="big-planet">
        <use id="planet-orange-4" xlink:href="#planet-orange" transform="translate(240.224 186.975) scale(2.85)" />
      </g>
      <g id="group-planets-4">
        <use id="planet-blue-5" xlink:href="#planet-blue" transform="translate(249.224 317.975)" />
        <g id="moon-5">
          <use id="planet-light-grey-7" xlink:href="#planet-light-grey" transform="translate(254.076 367.15) scale(0.27)" />
        </g>
        <use id="planet-light-grey-8" xlink:href="#planet-light-grey" transform="translate(386.063 277.15) scale(0.198)" />
        <use id="planet-dark-grey-5" xlink:href="#planet-dark-grey" transform="translate(298.148 215.675) scale(0.416)" />
      </g>
      <g id="planet-blue-with-ring">
        <use id="planet-blue-2" xlink:href="#planet-blue" transform="translate(1067.224 139.975) scale(1.94)" />
        <path stroke="#FFCD6F" stroke-width="2" d="M1048.9 199.05h155.5" stroke-linecap="round" stroke-linejoin="round" />
        <path stroke="#0B9DE7" stroke-width="2" d="M1070.5 201.05h114" stroke-linecap="square" />
      </g>
      <g id="moon-1">
        <use id="planet-light-grey-5" xlink:href="#planet-light-grey" transform="translate(1099.654 164.15) scale(0.198)" />
      </g>
      <g id="moon-2">
        <use id="planet-orange-7" xlink:href="#planet-orange" transform="translate(1163.398 183.15) scale(0.167)" />
      </g>
    </g>
    <g id="distance-2x">
      <use id="planet-dark-grey-1" xlink:href="#planet-dark-grey" transform="translate(1265 452)" />
      <use id="planet-light-grey-6" xlink:href="#planet-light-grey" transform="translate(1250.154 447.175) scale(0.198)" />
      <use id="planet-green-1" xlink:href="#planet-green" transform="translate(1023 354)" />
      <use id="planet-green-2" xlink:href="#planet-green" transform="translate(424 122) scale(0.8)" />
      <use id="planet-light-grey-1" xlink:href="#planet-light-grey" transform="translate(411.076 427.675) scale(0.885)" />
      <use id="planet-orange-2" xlink:href="#planet-orange" transform="translate(422.076 461.175) scale(0.133)" />
      <g id="planet-light-grey-with-ring">
        <use id="planet-light-grey-2" xlink:href="#planet-light-grey" transform="translate(57.063 49.15) scale(0.885)" />
        <path stroke="#F9C57E" d="M50.15 76.67h68" stroke-linecap="square" />
        <path stroke="#B9CDE7" d="M59.063 77.67h51" stroke-linecap="square" />
      </g>
      <g id="moon-3">
        <use id="planet-orange-1" xlink:href="#planet-orange" transform="translate(1119.654 340.15) scale(0.333)" />
      </g>
      <g id="moon-4">
        <use id="planet-light-grey-3" xlink:href="#planet-light-grey" transform="translate(1103.648 408.15) scale(0.297)" />
      </g>
      <g id="planet-orange-with-ring">
        <use id="planet-orange-3" xlink:href="#planet-orange" transform="translate(1301 42)" />
        <path stroke="#0ADCF2" d="M1287.65 71.67h87" stroke-linecap="square" />
        <path stroke="#EC7376" d="M1303 72.67h58" stroke-linecap="square" />
      </g>
      <g id="group-planets-2">
        <use id="planet-green-5" xlink:href="#planet-green" transform="translate(1341.654 441.15) scale(0.14)" />
        <use id="planet-blue-3" xlink:href="#planet-blue" transform="translate(462 493) scale(0.266)" />
        <use id="planet-blue-4" xlink:href="#planet-blue" transform="translate(419 121) scale(0.253)" />
        <use id="planet-green-3" xlink:href="#planet-green" transform="translate(1339.654 90.175) scale(0.34)" />
      </g>
    </g>
    <g id="distance-3x">
      <use id="planet-dark-grey-4" xlink:href="#planet-dark-grey" transform="translate(1264.654 277.15) scale(0.2)" />
      <use id="planet-green-4" xlink:href="#planet-green" transform="translate(151 135) scale(0.33)" />
      <g id="group-planets-1">
        <use id="planet-dark-grey-2" xlink:href="#planet-dark-grey" transform="translate(1008 83) scale(0.41)" />
        <use id="planet-orange-5" xlink:href="#planet-orange" transform="translate(985 108) scale(0.199)" />
        <use id="planet-light-grey-4" xlink:href="#planet-light-grey" transform="translate(1251.654 32.15) scale(0.198)" />
        <use id="planet-dark-grey-3" xlink:href="#planet-dark-grey" transform="translate(87.063 373.15) scale(0.34)" />
        <use id="planet-orange-6" xlink:href="#planet-orange" transform="translate(108.148 369.15) scale(0.133)" />
        <use id="planet-blue-1" xlink:href="#planet-blue" transform="translate(132.148 37.15) scale(0.133)" />
      </g>
    </g>
    <g id="we-are-sbvsl">
      <g id="we-are-sbvsl-rings" transform="translate(494.103 43.607)">
        <ellipse cx="229.5" cy="229.5" fill="#072026" opacity=".1" rx="229.5" ry="229.5" />
        <ellipse cx="229.42" cy="229.42" fill="#072026" opacity=".2" rx="182.14" ry="182.14" />
        <ellipse cx="229.19" cy="229.19" fill="#072026" opacity=".15" rx="207.37" ry="207.37" />
      </g>

      <g id="death-star" transform="translate(584.85 131.85) scale(0.8 0.8)">
        <circle id="Oval-1" fill="#7F7D7E" cx="177" cy="177" r="168.27"/>
        <path d="M177 345.27c92.93 0 168.27-75.34 168.27-168.27S269.93 8.73 177 8.73 8.73 84.07 8.73 177 84.07 345.27 177 345.27zm0 8C79.65 353.27.73 274.35.73 177 .73 79.65 79.65.73 177 .73 274.35.73 353.27 79.65 353.27 177c0 97.35-78.92 176.27-176.27 176.27z" id="Shape" fill="#E7E7E7"/>
        <path id="Rectangle-1" fill="#E6E6E6" d="M6.2 168.6h341.6v16.82H6.2z"/>
        <path id="Rectangle-1" fill="#E6E6E6" d="M8.73 176.16h336.54v1.68H8.73z"/>
        <path id="Rectangle-3" fill="#E6E6E6" d="M33.13 88.66H321.7v-4.2H33.14zM64.26 50.8h227.16v-4.2H64.26zM12.94 126.52h328.13v-4.2H12.94z"/>
        <g id="Oval-2-+-Oval-2-+-Oval-2" transform="translate(185.144 49.688)">
          <path d="M49.07 91.13c23.23 0 42.06-18.83 42.06-42.06C91.13 25.83 72.3 7 49.07 7 25.83 7 7 25.83 7 49.07 7 72.3 25.83 91.13 49.07 91.13zm0 7C21.97 98.13 0 76.17 0 49.07S21.97 0 49.07 0s49.06 21.97 49.06 49.07-21.96 49.06-49.06 49.06z" id="Shape" fill="#E6E6E6"/>
          <circle id="Oval-2" fill="#7F7D7E" cx="49.07" cy="49.07" r="42.07"/>
          <path d="M49.07 82.72c18.58 0 33.65-15.07 33.65-33.65 0-18.6-15.07-33.66-33.65-33.66-18.6 0-33.66 15.08-33.66 33.67 0 18.58 15.08 33.65 33.67 33.65zm0 2c-19.7 0-35.66-15.96-35.66-35.65 0-19.7 15.98-35.66 35.67-35.66 19.7 0 35.65 15.98 35.65 35.67 0 19.7-15.96 35.65-35.65 35.65z" id="Shape" fill="#333"/>
          <path d="M49.07 52.1c1.4 0 2.52-1.25 2.52-2.78 0-1.53-1.14-2.78-2.53-2.78-1.4 0-2.53 1.25-2.53 2.78 0 1.53 1.13 2.78 2.53 2.78zm0 4c-3.7 0-6.53-3.12-6.53-6.78s2.83-6.78 6.53-6.78 6.52 3.12 6.52 6.78-2.84 6.78-6.53 6.78z" id="Shape" fill="#E6E6E6"/>
          <path d="M49.07 52.1c1.4 0 2.52-1.25 2.52-2.78 0-1.53-1.14-2.78-2.53-2.78-1.4 0-2.53 1.25-2.53 2.78 0 1.53 1.13 2.78 2.53 2.78z" id="Oval-2" fill="#333"/>
        </g>

        <path id="Rectangle-3" fill="#E6E6E6" d="M33.13 265.34H321.7v4.2H33.14zM64.26 303.2h227.16v4.2H64.26zM12.94 227.48h328.13v4.2H12.94z"/>
        <path id="Rectangle-9" fill="#E6E6E6" d="M221.6 141.66h25.23v32.8H221.6zM111.38 183.73h33.65v83.3h-33.65zM52.48 183.73H69.3v44.6H52.5zM69.3 267.87h8.42v39.54h-8.4zM246 184.57h8.4v46.27H246zM212.34 267.87h16.83v39.54h-16.83zM170.27 305.73h8.4v39.54h-8.4zM187.1 305.73h16.83v39.54H187.1zM331.8 184.57h8.42v46.27h-8.4zM109.7 15.46h8.4V50.8h-8.4zM126.52 11.25h16.83V50.8h-16.83zM86.13 125.68h8.4v46.27h-8.4zM171.95 125.68h8.4v46.27h-8.4z"/>
        <path id="Rectangle-9" fill="#E6E6E6" d="M95.4 49.12h16.82V85.3H95.4zM283.85 49.96h8.4v37.86h-8.4z"/>
        <path id="Rectangle-9" fill="#555" d="M212.34 185.4h1.68v42.08h-1.68zM212.34 231.7h1.68v33.64h-1.68z"/>
        <path d="M247.67 256.1v1.67h-33.65v-1.68h33.65zM237.58 307.4h1.68v26.1h-1.68zM304.88 88.66h1.68v33.65h-1.68zM52.48 88.66h1.68v33.65h-1.68zM87.82 113.06v1.68H54.16v-1.68h33.66zM187.1 9.57h1.68V46.6h-1.68zM153.44 126.52h1.68v42.07h-1.68zM171.95 135.77v1.7h-16.82v-1.7h16.82z" id="Rectangle-9" fill="#555"/>
        <path d="M177 353S63.28 330.74 63.28 177 177 1 177 1C79.8 1 1 79.8 1 177s78.8 176 176 176z" id="Oval-1" fill-opacity=".1" fill="#000"/>
        <path d="M234.2 140.82s-25.23-11.66-25.23-42.07c0-30.4 25.24-42.06 25.24-42.06-23.22 0-42.06 18.82-42.06 42.05 0 23.24 18.84 42.07 42.07 42.07z" id="Oval-2" fill-opacity=".1" fill="#000"/>
      </g>
    </g>

    <path id="orbit-group-planets-1" d="M0 0a2,1 0 1,0 4,0a2,1 0 1,0 -4,0" />
    <path id="orbit-group-planets-2" d="M0 0a2,5 0 1,0 4,0a2,5 0 1,0 -4,0" />
    <path id="orbit-big-planet" d="M0 0v5z" />
    <path id="orbit-moons-1" d="M0 0a4,4 0 1,0 8,0a4,4 0 1,0 -8,0" />
    <path id="orbit-moons-3" d="M0,0C-14.64,-31.39,-84.21,-22.84,-125.23,15.39C-144.26,33.14,-151.80,53.05,-145.01,67.62C-130.37,99.01,-60.79,90.46,-19.78,52.22C-0.75,34.48,6.79,14.57,0,0" />
    <path id="orbit-moons-4" d="M0,0C17.32,-30.00,-29.59,-82.08,-84.44,-93.75C-109.89,-99.16,-130.53,-93.92,-138.56,-80C-155.88,-49.99,-108.97,2.08,-54.13,13.75C-28.67,19.16,-8.04,13.92,0,0" />
    <path id="orbit-moons-5" d="M0,0C0,0,42.43,-42.43,42.43,-42.43C42.43,-42.43,-21.21,-49.49,-21.21,-49.49C-21.21,-49.49,0,0,0,0" />
  </g>
</svg>
