<?xml version="1.0" encoding="UTF-8"?>
<svg width="12px" height="18px" viewBox="0 0 12 18" version="1.1" xmlns="http://www.w3.org/2000/svg" xmlns:xlink="http://www.w3.org/1999/xlink">
    <!-- Generator: Sketch 41.2 (35397) - http://www.bohemiancoding.com/sketch -->
    <title>location</title>
    <desc>Created with Sketch.</desc>
    <defs>
        <linearGradient x1="50%" y1="-1.11022302e-14%" x2="50%" y2="100%" id="linearGradient-1">
            <stop stop-color="#5CF0ED" offset="0%"></stop>
            <stop stop-color="#00B4DD" offset="100%"></stop>
        </linearGradient>
        <path d="M206,2760 C202.8515,2760 200,2762.55225 200,2765.7015 C200,2768.85 202.60175,2772.609 206,2778 C209.39825,2772.609 212,2768.85 212,2765.7015 C212,2762.55225 209.14925,2760 206,2760 Z M206,2768.25 C204.75725,2768.25 203.75,2767.24275 203.75,2766 C203.75,2764.75725 204.75725,2763.75 206,2763.75 C207.24275,2763.75 208.25,2764.75725 208.25,2766 C208.25,2767.24275 207.24275,2768.25 206,2768.25 Z" id="path-2"></path>
        <mask id="mask-3" maskContentUnits="userSpaceOnUse" maskUnits="objectBoundingBox" x="0" y="0" width="12" height="18" fill="white">
            <use xlink:href="#path-2"></use>
        </mask>
    </defs>
    <g id="Page-1" stroke="none" stroke-width="1" fill="none" fill-rule="evenodd">
        <g id="Home" transform="translate(-200.000000, -2760.000000)" stroke="url(#linearGradient-1)" stroke-width="2">
            <use id="location" mask="url(#mask-3)" xlink:href="#path-2"></use>
        </g>
    </g>
</svg>