<svg width="132" height="150" viewBox="0 0 132 150" xmlns="http://www.w3.org/2000/svg"><defs><linearGradient x1="50%" y1="0%" x2="50%" y2="100%" id="linearGradient-learning-1"><stop stop-color="#09DFF3" offset="0%"/><stop stop-color="#44BEFF" offset="100%"/></linearGradient></defs><g fill="none" fill-rule="evenodd"><path d="M14.254 65.3l.313.954-.576.82-.5.727c-.4.6-.85 1.27-1.34 2.01-1.38 2.13-2.77 4.36-4.06 6.61-.88 1.54-1.69 3.03-2.41 4.45-2.74 5.44-3.86 9.51-3.13 10.75.56.92 2.18 2.08 4.46 3.21 1.19.59 2.47 1.13 3.75 1.62.45.17.87.32 1.24.45l.45.15 1.79.57-.45 1.82-.11.45c-.09.37-.19.78-.29 1.23-.3 1.29-.61 2.63-.89 3.94-.11.52-.22 1.03-.32 1.53-.59 2.89-.94 5.06-.94 6.01 0 .45.09 1.02.27 1.67.2.72.5 1.51.87 2.32.27.59.55 1.15.83 1.67.17.31.3.53.36.64l.44.718-.2.81-.1.46c-.08.393-.16.845-.24 1.343-.37 2.427-.48 4.938-.17 7.236.52 3.844 2.1 6.406 5.1 7.5 3.14 1.283 6.48.83 15.62-1.55 1.678-.432 2.68-.69 3.758-.942 7.26-1.72 12.25-1.96 16.78-.13l.96.4.233 1.01 3.145 13.626-1.95-1.55h57.64l-2 2v-30.4l.24-.44.175-.33.51-1.006c.555-1.11 1.175-2.393 1.844-3.84 1.916-4.14 3.83-8.74 5.616-13.67 4.59-12.67 7.535-25.255 8.06-36.953.263-5.96-.117-11.56-1.21-16.77C122.09 16.08 103.07 2.46 69 2.46c-15.13 0-27.705 3.91-37.56 10.9-8.15 5.77-14.08 13.47-17.19 21.4-.83 2.05-1.44 4.26-1.84 6.59-1.05 6.12-.653 12.73.657 19.12.274 1.34.566 2.55.858 3.61.1.37.195.69.28.97.05.16.08.26.1.31zm-1.9.626s-5.806-17.654 0-31.965C18.107 19.28 35.408.43 68.948.43c33.54 0 54.64 13.05 60.786 45.59 6.857 32.707-15.197 73.886-15.197 73.886v29.87H56.895L53.75 136.15c-11.08-4.5-26.97 6.374-36.152 2.62-9.606-3.5-5.768-18.87-5.768-18.87s-2.62-4.3-2.62-7.337c0-3.038 2.62-13.624 2.62-13.624S2.935 96.12.825 92.65c-3.308-5.592 11.53-26.724 11.53-26.724z" fill="url(#linearGradient-learning-1)"/><path d="M57.448 62.398v6.035H51.63v-6.035c-1.445-.217-2.84-.594-4.16-1.112l-3.017 5.223-5.038-2.91 3.018-5.23c-1.124-.9-2.145-1.92-3.044-3.05l-5.23 3.01-2.91-5.04 5.22-3.02c-.52-1.33-.9-2.72-1.12-4.16h-6.03V40.3h6.03c.21-1.445.59-2.84 1.11-4.16l-5.22-3.015 2.91-5.037 5.22 3.018c.89-1.124 1.92-2.145 3.04-3.044l-3.02-5.23 5.03-2.91 3.01 5.226c1.32-.518 2.71-.895 4.16-1.113v-6.03h5.82v6.03c1.44.22 2.83.593 4.16 1.11l3.01-5.223 5.03 2.91-3.02 5.227c1.13.9 2.15 1.92 3.05 3.04l5.23-3.02 2.91 5.04-5.22 3.02c.512 1.32.89 2.71 1.11 4.16h6.03v5.82h-6c-.218 1.44-.595 2.83-1.11 4.16l5.22 3.01-2.908 5.03-5.23-3.02c-.9 1.12-1.92 2.14-3.044 3.04l3.02 5.23-5.04 2.91-3.01-5.23c-1.33.51-2.72.89-4.16 1.11z" fill="url(#linearGradient-learning-1)"/><ellipse fill="#EBF4F8" cx="54.539" cy="43.223" rx="6.787" ry="6.787"/><path d="M97.97 68.29v4.41h-4.252v-4.41c-1.056-.16-2.074-.435-3.04-.814l-2.204 3.817-3.682-2.125 2.205-3.82c-.82-.657-1.567-1.404-2.224-2.225l-3.82 2.205-2.126-3.68 3.817-2.205c-.378-.967-.654-1.985-.813-3.04h-4.41V52.15h4.41c.16-1.056.44-2.074.82-3.04l-3.81-2.204 2.13-3.682 3.82 2.206c.66-.82 1.41-1.568 2.23-2.225l-2.2-3.82 3.68-2.125 2.2 3.81c.97-.38 1.99-.66 3.04-.81v-4.41H98v4.41c1.055.16 2.073.43 3.04.81l2.203-3.82 3.68 2.12-2.21 3.82c.82.66 1.57 1.4 2.225 2.22l3.82-2.21 2.128 3.684-3.814 2.204c.374.964.65 1.982.81 3.04h4.41v4.25h-4.41c-.16 1.055-.437 2.073-.815 3.04l3.816 2.204-2.122 3.68-3.82-2.207c-.66.82-1.4 1.57-2.22 2.23l2.21 3.82-3.68 2.122-2.2-3.817c-.96.38-1.98.654-3.04.81z" fill="url(#linearGradient-learning-1)" transform="rotate(-15 95.844 54.276)"/><ellipse fill="#EBF4F8" transform="rotate(-15 95.844 54.276)" cx="95.844" cy="54.276" rx="4.96" ry="4.96"/></g></svg>