<svg width="479" height="152" viewBox="0 0 479 152" xmlns="http://www.w3.org/2000/svg" xmlns:xlink="http://www.w3.org/1999/xlink"><defs><rect id="path-1" x=".96" width="70.313" height="98.796"/><rect id="path-3" x=".783" y=".001" width="42.188" height="77.773"/></defs><g transform="translate(1.223 1.075)" fill="none" fill-rule="evenodd"><path d="M476.176 142.962c0 3.45-2.81 6.248-6.275 6.248h-38.23c-3.466 0-6.275-2.797-6.275-6.248V48.466c0-3.45 2.81-6.247 6.276-6.247h38.23c3.468 0 6.277 2.793 6.277 6.243v94.496z" stroke="#5A89A1" stroke-width="2"/><path d="M455.093 52.245c0 .248-.172.448-.383.448h-7.853c-.212 0-.383-.2-.383-.448v-1.008c0-.248.172-.448.383-.448h7.853c.21 0 .383.2.383.444v1.008z" stroke="#5A89A1"/><ellipse stroke="#5A89A1" cx="450.783" cy="46.875" rx="1.172" ry="1.172"/><ellipse stroke="#5A89A1" cx="450.783" cy="141.414" rx="3.133" ry="3.133"/><path d="M385.118 149.577h-74.566c-2.59 0-4.693-2.1-4.693-4.69V30.472c0-2.59 2.1-4.692 4.69-4.692h74.565c2.593 0 4.693 2.102 4.693 4.693v114.413c0 2.59-2.1 4.69-4.693 4.69z" stroke="#F9BA37" stroke-width="2"/><path d="M310.552 149.577c-2.59 0-4.693-2.1-4.693-4.69V30.472c0-2.59 2.1-4.692 4.69-4.692h74.565c2.593 0 4.693 2.102 4.693 4.693v114.413c0 2.59-2.1 4.69-4.693 4.69H310.55z" stroke="#F9BA37" stroke-width="2"/><ellipse stroke="#F9BA37" cx="347.835" cy="142.586" rx="3.133" ry="3.133"/><ellipse stroke="#F9BA37" cx="347.835" cy="31.637" rx="1.168" ry="1.168"/><path d="M232.05 0H38.3c-5.27 0-9.764 4.326-9.764 9.684V137.12h213.28V9.684c0-5.36-4.477-9.684-9.765-9.684z" stroke="#40C8F9" stroke-width="2"/><ellipse stroke="#40C8F9" cx="135.176" cy="7.422" rx="1.563" ry="1.563"/><path d="M250.317 149.223H20.034C8.064 149.223 0 145.115 0 143.368v-5.31c0-.525.52-.95 1.17-.95h268.01c.65 0 1.173.425 1.173.95v5.52c-.003 1.38-6.247 5.645-20.036 5.645z" stroke="#40C8F9" stroke-width="2"/><rect fill="#40C8F9" x="37.325" y="15.234" width="195.703" height="114.066"/><path d="M164.473 137.11v1.52c0 1.082-1.692 1.41-2.974 1.41h-52.57c-1.35 0-3.055-.328-3.055-1.41v-1.52" stroke="#40C8F9"/><rect fill-opacity=".5" fill="#FFF" x="44.942" y="22.266" width="180.469" height="11.719" rx="2"/><rect fill-opacity=".5" fill="#FFF" x="44.942" y="41.016" width="180.469" height="46.875" rx="2"/><rect fill-opacity=".5" fill="#FFF" x="44.531" y="94.922" width="37.5" height="37.5" rx="2"/><rect fill-opacity=".5" fill="#FFF" x="86.719" y="94.922" width="44.531" height="5.859" rx="2"/><rect fill-opacity=".5" fill="#FFF" x="86.719" y="105.469" width="44.531" height="5.859" rx="2"/><rect fill-opacity=".5" fill="#FFF" x="86.719" y="116.016" width="44.531" height="5.859" rx="2"/><rect fill-opacity=".5" fill="#FFF" x="86.719" y="126.563" width="44.531" height="5.859" rx="2"/><rect fill-opacity=".5" fill="#FFF" x="138.281" y="94.922" width="37.5" height="37.5" rx="2"/><rect fill-opacity=".5" fill="#FFF" x="180.469" y="94.922" width="44.531" height="5.859" rx="2"/><rect fill-opacity=".5" fill="#FFF" x="180.469" y="105.469" width="44.531" height="5.859" rx="2"/><rect fill-opacity=".5" fill="#FFF" x="180.469" y="116.016" width="44.531" height="5.859" rx="2"/><rect fill-opacity=".5" fill="#FFF" x="180.469" y="126.563" width="44.531" height="5.859" rx="2"/><g transform="translate(311.719 37.5)"><mask id="mask-2" fill="#fff"><use xlink:href="#path-1"/></mask><use fill="#F9BA37" xlink:href="#path-1"/><g transform="translate(5.859 4.688)" fill="#FFF" mask="url(#mask-2)"><rect opacity=".5" width="59.766" height="8.203" rx="2"/><rect opacity=".5" y="12.891" width="59.766" height="35.156" rx="2"/><rect opacity=".5" y="52.734" width="24.418" height="24.418" rx="2"/><rect opacity=".5" x="27.735" y="52.734" width="32.031" height="3.516" rx="2"/><rect opacity=".5" x="27.735" y="59.766" width="32.031" height="3.516" rx="2"/><rect opacity=".5" x="27.735" y="66.797" width="32.031" height="3.516" rx="2"/><rect opacity=".5" x="27.735" y="73.828" width="32.031" height="3.516" rx="2"/><g transform="matrix(-1 0 0 1 59.766 82.031)"><rect opacity=".5" width="24.418" height="24.418" rx="2"/><rect opacity=".5" x="27.735" width="32.031" height="3.516" rx="2"/><rect opacity=".5" x="27.735" y="7.031" width="32.031" height="3.516" rx="2"/><rect x="27.735" y="14.063" width="32.031" height="3.516" rx="2"/><rect x="27.735" y="21.094" width="32.031" height="3.516" rx="2"/></g></g></g><g transform="translate(428.906 56.25)"><mask id="mask-4" fill="#fff"><use xlink:href="#path-3"/></mask><use fill="#5A89A1" xlink:href="#path-3"/><g transform="translate(3.516 3.516)" mask="url(#mask-4)" fill="#FFF"><rect fill-opacity=".5" width="36.328" height="5.859" rx="2"/><rect fill-opacity=".5" y="9.375" width="36.328" height="35.156" rx="2"/><rect fill-opacity=".5" y="48.047" width="16.406" height="16.406" rx="2"/><rect fill-opacity=".5" x="18.75" y="48.047" width="17.578" height="2.344" rx="2"/><rect fill-opacity=".5" x="18.75" y="52.734" width="17.578" height="2.344" rx="2"/><rect fill-opacity=".5" x="18.75" y="57.422" width="17.578" height="2.344" rx="2"/><rect fill-opacity=".5" x="18.75" y="62.109" width="17.578" height="2.344" rx="2"/><rect fill-opacity=".5" y="67.969" width="16.406" height="16.406" rx="2"/><rect fill-opacity=".5" x="18.75" y="67.969" width="17.578" height="2.344" rx="2"/><rect fill-opacity=".5" x="18.75" y="72.656" width="17.578" height="2.344" rx="2"/><rect x="18.75" y="77.344" width="17.578" height="2.344" rx="2"/><rect x="18.75" y="82.031" width="17.578" height="2.344" rx="2"/></g></g></g></svg>