<?xml version="1.0" encoding="UTF-8" standalone="no"?>
<svg width="170px" height="150px" viewBox="0 -4 161 150" version="1.1" xmlns="http://www.w3.org/2000/svg" xmlns:xlink="http://www.w3.org/1999/xlink">
    <defs>
        <linearGradient x1="50%" y1="0%" x2="50%" y2="100%" id="linearGradient-tdd-1">
            <stop stop-color="#09DFF3" offset="0%"></stop>
            <stop stop-color="#44BEFF" offset="100%"></stop>
        </linearGradient>
        <linearGradient x1="50%" y1="0%" x2="50%" y2="85.9797297%" id="linearGradient-tdd-2">
            <stop stop-color="#09DFF3" offset="0%"></stop>
            <stop stop-color="#44BEFF" offset="100%"></stop>
        </linearGradient>
        <linearGradient x1="50%" y1="0%" x2="50%" y2="100%" id="linearGradient-tdd-3">
            <stop stop-color="#FB8961" offset="0%"></stop>
            <stop stop-color="#F94137" offset="100%"></stop>
        </linearGradient>
        <linearGradient x1="50%" y1="0%" x2="50%" y2="100%" id="linearGradient-tdd-4">
            <stop stop-color="#50EDC2" offset="0%"></stop>
            <stop stop-color="#11CCDB" offset="100%"></stop>
        </linearGradient>
    </defs>
    <g stroke="none" stroke-width="1" fill="none" fill-rule="evenodd">
        <g transform="translate(-279.000000, -3424.000000)">
            <g transform="translate(279.461029, 3424.074986)">
                <ellipse stroke="url(#linearGradient-tdd-1)" stroke-width="4" cx="27.5735294" cy="114.705882" rx="27.5735294" ry="27.5735294"></ellipse>
                <path d="M15.4491798,79.9632353 C15.4491798,79.9632353 15.0782258,69.2828645 19.3872831,57.2500243 C23.6963404,45.2171841 31.2876529,39.7058824 31.2876529,39.7058824 L34.7426471,42.9451867 C34.7426471,42.9451867 27.3609151,48.6529852 24.1909479,59.4576772 C21.0209806,70.2623693 21.3507188,79.7560323 21.3507188,79.7560323 L15.4491798,79.9632353 L15.4491798,79.9632353 Z M27.0220588,35.5491798 L41.3602941,32.5367647 L39.3181347,46.875 L27.0220588,35.5491798 L27.0220588,35.5491798 Z" fill="#EBF4F8"></path>
                <path d="M42.0502545,116.800973 C41.4016257,119.117786 39.1799736,120.946402 36.7257172,120.946402 C34.4191313,120.946402 32.5010948,119.80335 31.4726077,118.179699 L14.6668937,117.637579 C14.6668937,117.637579 13.0124819,117.637579 13.0124819,115.431697 C13.0124819,113.225814 14.6668937,113.225814 14.6668937,113.225814 L31.5671197,112.135477 L31.5671197,112.135477 C32.6160031,110.441319 34.4880159,109.36552 36.7257172,109.36552 C39.0703766,109.36552 41.2027421,111.034466 41.9540681,113.488461 L38.7477761,112.674344 C38.7477761,112.674344 37.2771878,112.720439 37.2771878,115.086384 C37.2771878,117.653016 38.7477761,117.567486 38.7477761,117.567486 L42.0502545,116.800973 Z" fill="url(#linearGradient-tdd-2)"></path>
                <path d="M116.572177,32.5367647 C116.572177,32.5367647 125.829334,37.9290926 133.739677,48.0715804 C141.65002,58.2140683 142.279412,67.6932575 142.279412,67.6932575 L137.690515,68.9338235 C137.690515,68.9338235 136.78276,59.5298873 129.307143,51.0243001 C121.831526,42.518713 113.602941,37.7255336 113.602941,37.7255336 L116.572177,32.5367647 L116.572177,32.5367647 Z M148.345588,66.1764706 L143.410134,79.9632353 L132.352941,70.5314456 L148.345588,66.1764706 L148.345588,66.1764706 Z" fill="#EBF4F8"></path>
                <path d="M106.985294,138.551238 C106.985294,138.551238 97.6891343,144.062113 84.8775388,146.109026 C72.0659432,148.155938 63.4191176,144.147464 63.4191176,144.147464 L64.5852037,139.533195 C64.5852037,139.533195 73.3027642,143.261767 84.4608209,140.808103 C95.6188775,138.354439 103.88213,133.455882 103.88213,133.455882 L106.985294,138.551238 L106.985294,138.551238 Z M62.0791732,150 L52.3897059,139.155523 L66.1764706,134.007353 L62.0791732,150 L62.0791732,150 Z" fill="#EBF4F8"></path>
                <ellipse stroke="url(#linearGradient-tdd-3)" stroke-width="4" cx="78.3088235" cy="27.5735294" rx="27.5735294" ry="27.5735294"></ellipse>
                <path d="M78.3088235,24.1727941 L71.5073529,17.3713235 L68.1066176,20.7720588 L74.9080882,27.5735294 L68.1066176,34.375 L71.5073529,37.7757353 L78.3088235,30.9742647 L85.1102941,37.7757353 L88.5110294,34.375 L81.7095588,27.5735294 L88.5110294,20.7720588 L85.1102941,17.3713235 L78.3088235,24.1727941 Z" fill="url(#linearGradient-tdd-3)"></path>
                <ellipse stroke="url(#linearGradient-tdd-4)" stroke-width="4" cx="132.904412" cy="113.602941" rx="27.5735294" ry="27.5735294"></ellipse>
                <path d="M130.190863,114.235419 L125.724672,108.088235 L121.875,110.885186 L126.341191,117.03237 L126.286765,117.071913 L129.083715,120.921584 L143.725788,110.283495 L140.928838,106.433824 L130.190863,114.235419 Z" fill="url(#linearGradient-tdd-4)"></path>
            </g>
        </g>
    </g>
</svg>
