<svg width="150" height="150" viewBox="0 0 150 150" xmlns="http://www.w3.org/2000/svg" xmlns:xlink="http://www.w3.org/1999/xlink"><defs><radialGradient fx="50%" fy="50%" r="56.522%" id="radialGradient-1"><stop stop-color="#40C8FA" stop-opacity="0" offset="0%"/><stop stop-color="#40C8FA" stop-opacity=".2" offset="100%"/></radialGradient><radialGradient fx="50%" fy="50%" r="56.534%" id="radialGradient-2"><stop stop-color="#40C8FA" stop-opacity="0" offset="0%"/><stop stop-color="#40C8F9" stop-opacity=".4" offset="100%"/></radialGradient><radialGradient fx="50%" fy="50%" r="62.059%" id="radialGradient-3"><stop stop-color="#40C8FA" stop-opacity="0" offset="0%"/><stop stop-color="#40C8FA" stop-opacity=".6" offset="100%"/></radialGradient><radialGradient fx="50%" fy="50%" r="53.78%" id="radialGradient-4"><stop stop-color="#40C8FA" stop-opacity="0" offset="0%"/><stop stop-color="#40C8F9" stop-opacity=".6" offset="100%"/></radialGradient><circle id="path-5" cx="20.362" cy="20.362" r="20.362"/></defs><g fill="none" fill-rule="evenodd"><g transform="translate(-.3)"><circle fill="url(#radialGradient-1)" cx="75.068" cy="75.058" r="74.661"/><circle fill="url(#radialGradient-2)" cx="75.068" cy="75.058" r="61.086"/><circle fill="url(#radialGradient-3)" cx="75.068" cy="75.058" r="47.511"/><circle fill="url(#radialGradient-4)" cx="75.068" cy="75.058" r="33.937"/></g><g transform="translate(54.406 54.696)"><mask id="mask-6" fill="#fff"><use xlink:href="#path-5"/></mask><use fill-opacity=".1" fill="#40C8F9" xlink:href="#path-5"/><g mask="url(#mask-6)"><path d="M24.093 20.308c-1.612 3.04 1.9 3.763 5.477 4.588 3.576.825 4.513 12.407 4.513 15.828H6.7c0-3.42.938-15.003 4.515-15.828 3.5-.807 7.138-1.53 5.476-4.588l-.26-.49h7.92c-.08.16-.162.325-.25.49z" fill="#FAE5B8"/><path d="M24.432 23.127c1.056.86 3.08 1.297 5.128 1.77 3.576.824 4.513 12.406 4.513 15.827H6.693c0-3.42.935-15.003 4.512-15.828 2.008-.463 4.062-.898 5.134-1.763.99 1.13 2.37 1.764 4.04 1.764s3.06-.638 4.05-1.77z" fill="#F9BA37"/><path d="M20.393 23.08c3.247 0 5.306-4.642 5.306-8.95 0-4.31-2.06-6.655-5.31-6.655-3.25 0-5.31 2.346-5.31 6.655 0 4.308 2.06 8.95 5.306 8.95z" fill="#E7D6B0"/><path d="M20.393 22.39c3.247 0 5.88-4.64 5.88-8.95 0-4.307-2.633-6.653-5.88-6.653-3.248 0-5.88 2.346-5.88 6.654 0 4.31 2.632 8.95 5.88 8.95z" fill="#FAE5B8"/></g></g></g></svg>