<svg xmlns="http://www.w3.org/2000/svg" viewBox="0 0 279.66 267.54"><g fill="none"><path fill="#c5ae00" d="M120.46 181.36l6.9-42 17.42-42.87 41.32-12.8h26.5l45.7 15 21.1 40.5-12.07 42 4.95 36.2-2.9 36-21.43 6.2-42 2.5-29.04-10.7-35.7-13.6-4.6-11.6-16-45.1z"/><path fill="#cc402e" d="M160.1 156.5l-5.6-41.7 15.7-22.58 18.93-10.97h18.93L229.56 92l16.36 19.78-4.08 46.44-8.82 33.75 4.52 28.6h-68.6l1.7-26.67-10.53-37.4z"/><path fill="#3b1612" stroke="#f8e02d" stroke-width="4" d="M223.54 111.9l-15.5 3.03-7.84 6.04-10.03-7.17-13.1-1.9-22.57 3.03 15.7-22.67 18.93-11h18.93l21.5 10.8 16.36 19.85h-22.37z"/><path fill="#22110f" d="M205.6 98.28h-12.26l-12.68-9.7 12.46-7.32h12.47l14.1 7.17-14.2 9.84z"/><path fill="#c59d77" d="M177.2 60.04v-5.7l2.7-2.4h6.54l1.78 2.4v5.7l-1.45 5.4-.4.6-2.12 1.34h-3.7l-1.66-1.28-.6-.68-1.2-5.4zm34.67-.63v-5.7l2.7-2.4h6.55l1.8 2.4v5.7l-1.45 5.4-.4.6-2.1 1.4h-3.7l-1.65-1.3-.54-.7-1.2-5.4z"/><path fill="#d7b18d" d="M181.6 63V43.4l9.33-8.17h22.65l6.17 8.18V63l-4.98 18.52-1.4 2.1-7.26 4.57h-12.7l-5.7-4.4-1.8-2.3-4.1-18.5z"/><path fill="#c8a27e" d="M195.48 73.9l5.37.42 5.03-.63-5.02 2.8-5.37-2.7z"/><path fill="#cea47b" d="M177.82 47.06l1.72-8.08 2.5-4.6 9.96-3.43 13.83-1.07 10.6 4.52 6.14 22.6-6.33-5.48-4.58 1.38-4.2-4.06-5.53-2.85-4.33 9.2v-6.6l-5.62 4.9-3.25-3.9-6.7 3.9-4.23-6.5z"/><path fill="#2f1f0d" d="M177.2 45.8l1.7-8.08 2.5-4.58 9.87-3.45 13.75-1.1 10.53 4.5 7.4.6-2.04 3.1 4.2 2.9-1.5 3.1.9 7.6-2 5.1-6.9-5.5-4.5 1.4-4.1-4.1-5.5-2.9-4.3 9.3V47l-5.6 5-3.2-3.9-6.7 3.9-4.2-6.5z"/><path fill="#452d12" d="M178.46 44.74l1.92-7 2.5-3.94 8.18-1.7-6.62 4.5-2.85 7.53.6 6.88-3.8-6.2z"/><path fill="#1b1b1b" d="M183.8 60.23l1.08-3.47 3.22-2.6 12.64 2.8 11.14-2.8 4.07 2.38 1.3 3.7-1.3 4.34-4.06 2.18-11.4-3.04-12.4 3.05-3.2-2.4-1.1-4.12z"/><path fill="#fff" d="M188.54 57.3l1.08 3.52 5.4 1.84 1.72-4.3-8.2-1.06z"/><path fill="#dcdcdc" d="M188.54 57.3l7.54 3.47.66-2-8.2-1.47z"/><path fill="#fff" d="M211.54 57.43l-1.07 3.36-5.38 1.7-1.8-4.1 8.1-1z"/><path fill="#dcdcdc" d="M211.7 57.42l-7.5 3.4-.66-1.96 8.16-1.44z"/><path fill="#c8a27e" d="M196.42 87.56l4.54-.44 3.66.44-3.65-2.84-4.54 2.83z"/><path fill="#b63525" d="M228.26 160.18l-10.2 3.93-15.87-3.9-15.7 5.3-10.6-4.1 10.6 2.9L202 160l16 3.28 10.2-2.8zM225.74 173l-8.7 2.6-15.47-3.66-15.1 4.5-8.02-2.14 8.23 1.72 14.9-4.3 15.45 3.22 8.7-1.93zm-6 11.16l-5.96.6-11.97-2.43-11.7 3.26-5.6-.5h5.8l11.6-3.1 12 2h6z"/><path fill="#321a17" d="M222.7 132.66l4.94.6 5.22-3.35 2.65-4.2-3.7-2-6.5-.8-5 3.4-2.1 4.8 4.6 1.7z"/><path fill="#ba3523" d="M174.85 139.73l-3.96-4.9 4.4 4.1 18 2.42 7.1-3.53 5.6 3.38 24.2-3.07 4.6-3.3-4.6 4.24-24.2 4.25-5.6-4.26-6.4 4.25-19.3-3.6z"/><path fill="#f8e02d" d="M193.27 126.65h14.8v1.57h-14.8zm2.84 6.3h8.6v1.58h-8.5z"/><path fill="#d99d00" d="M168.05 196.62h68.1v12.93h-68.1v-12.93z"/><path fill="#be8a01" d="M211.44 203.36l-3-7.37 5.56 5.4 3.85 8.4h-11.97l5.56-6.5z"/><path fill="#f2d900" d="M191.7 203.45l1.54-6.37 3.83-3.93h7.9l4.15 3.92 2.1 6.38-5.74 6.4h-9.14l-4.7-6.4z"/><path fill="#f8e02d" d="M127.35 139.32l17.45-42.84 40.07-12.5 6.9 6.04 8.83 3.66 6.9-4.52 7.1-5.38 43.73 15.07 15.08 23.46 6.3 17.1-4.1 38.1 3.3 39-9.3 37.1-21.5 6.2-24.7 8-4.7-9.1 10.8-34 3.1-29.9 3.8-26.5 1.3-32.1-9.6-27.8-.2-.7-20-17.3-6.9 5.2-8.8-4.3-16.4 17.4-8 27.5 5.84 32.1L171 198l5.4 26.5-3 41.7-23.04-4.7-9.04-23.5-4.65-11.3-16.03-45.2 6.9-42z"/><path fill="#f2d500" d="M257.9 101.43l12.1 21.75 7.43 16.36-5.95 38.54 4.67 38.33-9.25 37.9 5.4-36.1-8.5-37 4.9-37.4-1.8-19.1-9.04-23z"/><path fill="#1d0b08" d="M186.4 82.83l6.38 4.96 2.38 15.5L169 89l17.4-6.15zm27.02.32l-7.1 5.44-1.7 14.4 24.9-14.2-16.1-5.7z"/><path fill="#ffec58" d="M142.73 108.3l4.52-10.97-5.38 18.92-3.88 24.5-6.5 40.43 11.2 40.42-2 23.86-1.1-23.87-14.2-40.5 5.1-40.5 12-32.5z"/><path fill="#5f4221" d="M218.17 36.2l3.47-1.28-1.63 1.9-1.8-.6zm2.52 5.06l3.4-1.3-1.7 1.9-1.9-.6z"/><path fill="#110b04" d="M207.45 46.27l4.74 2.1 3.1-.9 4.4 2.63 1.9 3.73-3.5-2.4-2.9-2-4 .67-3.9-3.84z"/><path fill="#be8a00" d="M227.75 209.5l2.92.32L232 196.6h-3.1l-1.15 12.9z"/><path fill="#30120e" d="M221.72 102.8l2.1 5.12 4.2-.12-6.3-5z"/><path fill="#f8e02d" d="M221.08 133.25c0-.56.83-2.05 2.5-4.5-.05-.2-.08-.4-.08-.56 0-.2.15-.4.44-.7.3-.3.5-.4.66-.4h.05c.7-1 1.3-1.8 1.83-2.4.54-.7.85-1 .94-1 .1 0 .17 0 .22.1.05.1.08.1.08.2-.93 1.1-1.88 2.4-2.85 3.7l.04.1.7-.1c.9-.1 1.9-.3 2.9-.6 1.1-.4 1.9-.8 2.6-1.2 1.4-1 2.1-1.8 2.1-2.6 0-.4-.2-.6-.6-.9s-1.1-.4-2.1-.4c-.9 0-2.2.2-3.9.7s-2.8 1-3.4 1.5c-.2.1-.2.2-.2.3l.1.1h-.1c-.2-.16-.4-.3-.4-.5-.03-.2-.1-.4-.1-.5 0-.1.06-.2.1-.24.4-.57 1.26-1.1 2.6-1.6s2.57-.8 3.7-1c1.1-.15 1.95-.23 2.5-.23s1 0 1.33.1c.4.04.7.2 1 .44.4.36.64.87.64 1.5 0 .66-.24 1.25-.7 1.8-.5.6-1.1 1.1-1.85 1.5-.74.42-1.64.8-2.7 1.2-1.25.4-2.4.6-3.44.6.3.9 1.1 1.84 2.2 2.8 1.1.92 2 1.4 2.75 1.4.3 0 .53-.07.75-.2.25-.1.38-.3.4-.5 0-.1 0-.1.1-.08.06.02.07.05.07.1-.1.8-.73 1.14-2 1.14-.7 0-1.42-.2-2.2-.6-.8-.4-1.4-.87-2-1.4-.5-.58-.9-1.16-1.3-1.7-1.2 1.8-2 3-2.3 3.7-.1.2-.2.3-.3.3-.1 0-.2-.06-.2-.16z"/><path fill="#ccb825" d="M225.62 109.87l-1.22.04 1.9 4 3.42-.2-1.22-3.9-2.88.1z"/><path fill="#ac3626" d="M231.28 123.72c.77-.03 2.2.34 2.2.34l-3.68-10.36-3.38.14 1.84 10.38s2.27-.48 3.04-.5zm-1.57 7.86l3.4-2.03 1.3-2.57 3 8.68-1.2 32.46-4 27.97-3.1.2 3.8-26.4-1.6-32.2-1.4-6.2z"/><path fill="#30120e" d="M228.02 123.2l3.7.18 1.8.7.93 3.1-1.45 2.32-3.24 2.17-1.74-8.47z"/><path fill="#ccb825" d="M227.58 121.48s2.6-.3 3.38-.33c.76 0 1.67.33 1.67.33l.87 2.6s-.95 1.54-2.05 2.25c-1.1.7-2.56 1.3-2.56 1.3l-.1-.3s1.3-.6 2.3-1.32c0 0 1.5-1.1 1.6-1.9.1-.8-.2-1-.6-1.3-.5-.2-1.1-.3-2.1-.2-1 0-2.2.3-2.2.3l-.4-1.3z"/><path fill="#311411" d="M182.84 100.43l3.77 3.4 7.7-.96-8.9-4.97-2.4 2.53zm21.9 2.62l6.43.6 6.5-4.54-2.45-2.1-10.47 6.1z"/><path fill="#ccb926" d="M229.47 88.82l-14.22 8.14 2.6 1.98 11.62-10.12z"/><path fill="#090909" d="M3.48 190.55l9.98-54.77 21.9-42.84L74.5 77.5l11.74-9.8h17.22l19.56 9.8 36 9.38s25.45 47.95 25.63 48.9c.14.8 1.95 45.77 1.95 45.77l-1.96 57.12-30.33 13.4-116.8-2.52-17.4-.52-16.6-58.48z"/><path fill="#383838" d="M50.7 138.2l-8-40.54L73.95 77.5l11.72-9.8h17.2l19.52 9.8 25 14.1-4.3 47.57-13.1 29.37 2.5 26.04H61l2.73-26.04-13.1-30.34z"/><path fill="#1b1b1b" d="M95.9 121.5l.95-2.65 2.02-3.73 3.38-2.97 3.74-2.17 3.6-1.47 4.5-.6 4.3-.3h3.8l3.6.3-.4-3.4L111 91.6l-.92-.1.26 1.12-.53 1.55-1.5 2.02-1.1.6-3.5.7-3.9.7-1-.7-.5-1.7.1-2.6-1.2 2.7-1.2-.4-1.3.3-1.2-2.6-.2 3.3-1 1.7-3.8-.7-4.5-.8-1.8-2.1-.9-1.8.3-1.5-15.2 14-.3 1.6-.4 1.15 3.2-.3 3.3-.1 3.5.1 3.4.44 2.8.52 3.7 1.23 3.3 1.8 2.2 2.03 2.3 2.7 1.8 3.15.8 1.9z"/><path fill="#a3850c" d="M61.36 182.24h72.43v11.7H61.3v-11.7z"/><path fill="#000" fill-opacity=".1" d="M103.9 187.9l-2.52-8.83 4.1 5.15 4.27 10.67H97.1l6.8-7z"/><path fill="#c8a000" d="M90.12 191l-3.14-6.78 4.12-5.15h10.4l4.14 5.15-3.14 6.8-5.1 3.88h-2.57l-4.72-3.88z"/><path fill="#000" fill-opacity=".1" d="M71.38 113.74l-10.65 24.52L73.48 176l-4.3 17-5.5 23.7L47.45 174l9.2-60.3L71.4 97.04l4.14-7.88 19.67-11.7-23.8 36.22zm64.3 11.35l-2.94 17.8-10.65 40.3-3.1 15.4 16.6-2.4v-16l7.2-7.6 6-36.5-8.6-24.5-21.3-15.9-4.2-7.9L95 76.1l40.5 48.8z"/><path fill="#1a1a1a" d="M16.04 98.6l20.93-25.63 40.68-20.93L76.67 0l5.28 10.76L88 6.86l7.83-1.38 7.24 1.37 5.28 4.3L114.8.2l-1.36 51.24 41.07 21.32L180 93.9l8.2 37.9 3.53 34.8-4.9 40.1v34.84L153.8 253.5l-35.8-9.65V208.5l11.74-39.9 2.15-27 4.9-27-40.9-36.8-37.8 34.9 10.2 45.78-4.5 42.65 1.2 16.23L66.9 236l-12.1 7.5-35.4 10.76-12.26-4.44-2.2-39.7L0 180.56l9.97-42.65 6.07-39.3z"/><path fill="#0f0f0f" d="M125.56 61.7l27.17 14.26L175.6 96.1l7.82 37.1 5.08 35.97-5.08 33.22v37.8l-2.74-19.6-.97-18.3 1.2-33.3-1.1-34-7.8-29.3L152.9 87l-27.2-25.4z"/><path fill="#000" fill-opacity=".1" d="M106.25 68.75l-10.57 7.82-11.36-7.62L75.6 54.7l11.9 10.7h16.03l12.22-11.3-9.5 14.65z"/><path fill="#d7b18d" d="M79.4 39.86l15.96 7.2 15.97-7.2-2.94 16.75-1.3 1.9-6.6 4.2H89l-5.2-3.9-1.67-2.1-2.73-16.8z"/><path fill="#c8a27e" d="M82.55 41.45l12.8 5.8 12.2-5.42-12.2 9.1-12.8-9.48zm8.86 19.93l3.9-.34 3.1.34-3.1-2.22-3.8 2.22z"/><path fill="#fff" d="M81.92 30.7l6.72 7.58 4.35-4-11.1-3.58z"/><path fill="#dcdcdc" d="M81.92 30.7l9.86 4.73 1.2-1.1-11.06-3.64z"/><path fill="#fff" d="M109.75 30.7l-6.72 7.58-4.35-4 11.07-3.58z"/><path fill="#dedede" d="M109.75 30.7l-9.43 5.05-1.64-1.5 11.07-3.56z"/><path fill="#2d2d2d" d="M64.04 124.82l-4.9-6.18 5.5 5.18 22.24 3.07 8.86-4.5 6.93 4.3 29.87-3.9 5.67-4.2-5.6 5.4-29.9 5.3-6.9-5.4-7.8 5.4-23.8-4.6z"/><path fill="#000" fill-opacity=".1" d="M94.35 97.77L95.4 81l.63 16.58.75 20.28-1.38 3.32-1.46-3.32.4-20.1z"/><path fill="#2f2f2f" d="M95.47 38.28l1 7.6-1 .95-.9-.95.9-7.6z"/><path fill="#1b1b1b" d="M95.52 38.28l1.13 7.9 2.66-1.92-3.7-5.98z"/><path fill="#1b1b1b" d="M95.83 38.28l-1.2 7.6-3.22-1.17 4.5-6.4z"/><path fill="#2d2d2d" d="M122.4 138.97l-10.54 3.5-16.4-3.5-16.2 4.67-10.94-3.7 10.93 2.53 16-3.9 16.6 2.93 10.55-2.53zm-4.43 11.57l-8.25 2.42-14.7-3.42-14.33 4.22-7.7-2 7.8 1.6 14.2-4.03 14.7 3.02 8.2-1.8zm-5.37 10.15l-5.72.5L95.4 159l-11.22 3-5.42-.38h5.57l11.07-2.8 11.48 1.87h5.72z"/><path fill="#282828" d="M20.4 98.8l18.9-22.93 11.3-6.27-11.3 9.8-10.04 19.4-8.87 43.3-4.1 32.12 3.1 33.9-10 37.4 2.1-37.4-3.7-33.9 5.8-35.25 6.7-40.17z"/></g></svg>