<svg xmlns="http://www.w3.org/2000/svg" width="93" height="104" viewBox="0 0 93 104"><g fill="none" fill-rule="evenodd"><path fill="#FFF" d="M0 0h93v104H0z"/><path stroke="#E0EDF3" stroke-width="2" d="M9.05 35.673C5.71 35.67 3 38.383 3 41.723l.005 25.34c0 3.35 2.71 6.052 6.052 6.052 3.344 0 6.052-2.705 6.048-6.053V41.72c0-3.338-2.713-6.05-6.054-6.047zm50.757-24.716l4.224-7.712c.226-.403.078-.917-.33-1.144-.412-.218-.92-.07-1.14.336l-4.265 7.793c-7.502-3.337-16.273-3.305-23.686-.012l-4.27-7.773c-.223-.41-.734-.558-1.138-.335-.41.22-.56.735-.333 1.137l4.225 7.707C24.793 15.236 19.407 23.39 19.41 32.75l54.1-.007c0-9.358-5.413-17.494-13.703-21.786zM34.04 22.875c-1.254-.003-2.276-1.023-2.276-2.284 0-1.254 1.02-2.286 2.28-2.286 1.263 0 2.285 1.032 2.287 2.287 0 1.26-1.023 2.284-2.29 2.285zm24.82-.004c-1.26.002-2.286-1.02-2.285-2.284.004-1.252 1.023-2.286 2.286-2.29 1.254.004 2.282 1.036 2.28 2.29.004 1.263-1.02 2.285-2.28 2.285zM19.41 36.816l.01 39.268c-.003 3.572 2.886 6.455 6.456 6.456h4.4V95.95c0 3.338 2.714 6.052 6.048 6.052 3.344 0 6.053-2.716 6.053-6.056V82.54l8.17-.002v13.407c0 3.336 2.714 6.054 6.048 6.05 3.344 0 6.05-2.715 6.05-6.056V82.535l4.41-.003c3.563 0 6.46-2.886 6.46-6.458l-.006-39.27-54.1.01zm70.494 4.9c0-3.343-2.71-6.052-6.05-6.05-3.342-.003-6.05 2.71-6.05 6.052l.005 25.34c0 3.345 2.706 6.048 6.05 6.05 3.34 0 6.048-2.705 6.05-6.053l-.006-25.34z"/></g></svg>