<svg xmlns="http://www.w3.org/2000/svg" viewBox="0 0 160 104"><g fill="none" fill-rule="evenodd"><path fill="#FFF" d="M0 0h160v104H0z"/><path stroke="#E0EDF3" stroke-width="2" d="M83.89426 33.66033H99.6096V49.725h7.94566c3.66933 0 7.44333-.654 10.91833-1.83133 1.70766-.57867 3.624-1.38467 5.30866-2.39767-2.21867-2.89633-3.351-6.55367-3.68467-10.15867-.45267-4.90333.53633-11.285 3.85466-15.12266l1.652-1.91067 1.96833 1.58233c4.95566 3.982 9.124 9.546 9.859 15.88834 5.967-1.75534 12.97366-1.34 18.23366 1.696l2.15833 1.24466-1.136 2.21734c-4.44834 8.682-13.74867 11.371-22.84134 10.89566C120.2406 85.716 90.6196 101.75967 54.7036 101.75967c-18.55534 0-35.57934-6.93667-45.27368-23.399l-.159-.269L7.85826 75.218c-3.27667-7.24633-4.365-15.18467-3.62667-23.117l.22132-2.37567h13.43834V33.66067H33.6056v-15.715h31.43066V2.23033h18.858v31.43z"/><path id="Shape" fill="#E0EDF3" d="M31.9196 37.41467h1.07566v11.35066H31.9196V37.41467zm-2.063 0h1.118v11.35066h-1.118V37.41467zm-2.064 0h1.118v11.35066h-1.118V37.41467zm-2.064 0h1.118v11.35066h-1.118V37.41467zm-2.06334 0h1.118v11.35066h-1.118V37.41467zm-2.02067 0h1.07466v11.35066H21.6446V37.41467zm-1.13434-1.13534H34.1296v13.62H20.51025v-13.62zM47.6346 21.69933h1.07632v11.35034H47.6346V21.69933zm-2.063 0h1.118v11.35034h-1.118V21.69933zm-2.064 0h1.118v11.35034h-1.118V21.69933zm-2.064 0h1.118v11.35034h-1.118V21.69933zm-2.06268 0h1.11734v11.35034h-1.11734V21.69933zm-2.02066 0h1.074v11.35034h-1.074V21.69933zm-1.13567-1.135h13.621V34.184h-13.621V20.56433zM47.6346 37.41467h1.07632v11.35066H47.6346V37.41467zm-2.063 0h1.118v11.35066h-1.118V37.41467zm-2.064 0h1.118v11.35066h-1.118V37.41467zm-2.064 0h1.118v11.35066h-1.118V37.41467zm-2.06268 0h1.11734v11.35066h-1.11734V37.41467zm-2.02066 0h1.074v11.35066h-1.074V37.41467zm-1.13567-1.13534h13.621v13.62h-13.621v-13.62zM63.35026 37.41467h1.075v11.35066h-1.075V37.41467zm-2.06367 0h1.11832v11.35066H61.2866V37.41467zm-2.06334 0h1.118v11.35066h-1.118V37.41467zm-2.064 0h1.118v11.35066h-1.118V37.41467zm-2.064 0h1.118v11.35066h-1.118V37.41467zm-2.02 0h1.074v11.35066h-1.074V37.41467zm-1.135-1.13534H65.5606v13.62H51.94025v-13.62zM63.35026 21.69933h1.075v11.35034h-1.075V21.69933zm-2.06367 0h1.11832v11.35034H61.2866V21.69933zm-2.06334 0h1.118v11.35034h-1.118V21.69933zm-2.064 0h1.118v11.35034h-1.118V21.69933zm-2.064 0h1.118v11.35034h-1.118V21.69933zm-2.02 0h1.074v11.35034h-1.074V21.69933zm-1.135-1.135H65.5606V34.184H51.94025V20.56433zM79.0656 37.41467h1.07532v11.35066H79.0656V37.41467zm-2.06334 0h1.118v11.35066h-1.118V37.41467zm-2.064 0h1.118v11.35066h-1.118V37.41467zm-2.064 0h1.118v11.35066h-1.118V37.41467zm-2.063 0h1.118v11.35066h-1.118V37.41467zm-2.021 0h1.07466v11.35066h-1.07466V37.41467zm-1.135-1.13534H81.2756v13.62H67.65525v-13.62zM79.0656 21.69933h1.07532v11.35034H79.0656V21.69933zm-2.06334 0h1.118v11.35034h-1.118V21.69933zm-2.064 0h1.118v11.35034h-1.118V21.69933zm-2.064 0h1.118v11.35034h-1.118V21.69933zm-2.063 0h1.118v11.35034h-1.118V21.69933zm-2.021 0h1.07466v11.35034h-1.07466V21.69933zm-1.135-1.135H81.2756V34.184H67.65525V20.56433zM79.0656 5.98367h1.07532v11.351H79.0656v-11.351zm-2.06334 0h1.118v11.351h-1.118v-11.351zm-2.064 0h1.118v11.351h-1.118v-11.351zm-2.064 0h1.118v11.351h-1.118v-11.351zm-2.063 0h1.118v11.351h-1.118v-11.351zm-2.021 0h1.07466v11.351h-1.07466v-11.351zm-1.135-1.13434H81.2756v13.62H67.65525v-13.62zM94.7806 37.41467h1.07466v11.35066H94.7806V37.41467zm-2.06334 0h1.11733v11.35066h-1.11734V37.41467zm-2.06467 0h1.118v11.35066h-1.118V37.41467zm-2.06334 0h1.118v11.35066h-1.118V37.41467zm-2.064 0h1.118v11.35066h-1.118V37.41467zm-2.02067 0h1.07566v11.35066H84.5046V37.41467zm-1.13434-1.13534h13.62v13.62h-13.62v-13.62z"/><path id="Shape" stroke="#E0EDF3" stroke-width="2" d="M51.54613 70.21125c-.51373.29707-.3651.92742-.3651 1.56385 0 .9502.7706 1.71923 1.7208 1.71923.65103 0 1.2292-.07972 1.52208-.6133.30784 0 .30784.76157.30784 1.33483 0 2.32746-1.88735 4.2148-4.21482 4.2148-2.32746 0-4.21533-1.88734-4.21533-4.2148C46.30106 71.88682 48.18945 70 50.5164 70c.53827 0 1.02973 0 1.02973.21125z"/><path stroke="#E0EDF3" stroke-width="2" d="M58.98126 99.059c-9.30534-4.41567-14.413-10.41867-17.255-16.97167-3.45667.987-7.61167 1.61734-12.439 1.888-1.819.10234-3.732.15467-5.73967.15467-2.314 0-4.75334-.06833-7.31334-.20433C24.7676 92.454 35.2656 99.02 54.7036 99.14067c1.435-.00034 2.85966-.02834 4.27766-.08167z"/></g></svg>