<svg xmlns="http://www.w3.org/2000/svg" viewBox="0 0 107 104"><path fill="#E1EDF4" fill-rule="evenodd" d="M2 53.265c0 22.65 14.69 41.87 35.06 48.645 2.563.476 3.39-1.11 3.39-2.466V89.9c-14.26 3.103-17.232-6.046-17.232-6.046-2.328-5.928-5.69-7.505-5.69-7.505-4.652-3.18.35-3.118.35-3.118 5.15.363 7.86 5.286 7.86 5.286 4.573 7.835 11.99 5.57 14.92 4.26.458-3.313 1.785-5.574 3.253-6.855-11.388-1.293-23.354-5.69-23.354-25.336 0-5.6 2.003-10.172 5.282-13.76-.534-1.293-2.286-6.508.493-13.567 0 0 4.306-1.376 14.102 5.257 4.092-1.135 8.477-1.706 12.833-1.727 4.356.02 8.748.592 12.84 1.727 9.79-6.633 14.086-5.257 14.086-5.257 2.792 7.06 1.035 12.274.506 13.568 3.287 3.587 5.277 8.16 5.277 13.76 0 19.69-11.994 24.025-23.408 25.293 1.835 1.59 3.517 4.715 3.517 9.497v14.067c0 1.365.82 2.962 3.42 2.462 20.36-6.788 35.028-25.995 35.028-48.64C104.53 24.953 81.576 2 53.265 2 24.955 2 2 24.954 2 53.265zm-2 0C0 23.85 23.85 0 53.265 0s53.265 23.85 53.265 53.265c0 23.103-14.829 43.348-36.395 50.538l-.125.042-.13.025c-3.553.684-5.798-1.464-5.798-4.425V85.377c0-3.747-1.146-6.528-2.827-7.984L57.798 74.4l4.545-.506c14.43-1.604 21.63-7.63 21.63-23.307 0-4.87-1.643-9.016-4.752-12.408l-.856-.937.48-1.174c.4-.974.738-2.324.85-3.997.166-2.505-.23-5.21-1.363-8.077l1.25 1.17c.052.015.06.017.02.01-.657-.102-1.75-.026-3.327.42-2.474.7-5.483 2.162-9.045 4.577l-.765.518-.89-.246c-3.87-1.072-8.08-1.634-12.298-1.654-4.236.02-8.44.58-12.31 1.654l-.89.247-.765-.517c-3.565-2.414-6.576-3.876-9.055-4.577-.9-.255-1.676-.393-2.333-.438-.442-.03-.774-.017-1 .02-.04.005-.033.003.018-.013l1.252-1.172c-1.13 2.867-1.522 5.575-1.354 8.08.112 1.674.453 3.03.85 3.99l.484 1.176-.857.937c-3.11 3.402-4.758 7.55-4.758 12.41 0 15.65 7.207 21.716 21.58 23.348l4.51.512-3.42 2.983c-1.258 1.096-2.23 3.03-2.59 5.622l-.15 1.098-1.013.453c-2.43 1.087-5.108 1.71-7.838 1.466-3.888-.348-7.236-2.45-9.65-6.587-.053-.097-.19-.318-.41-.62-.38-.524-.833-1.05-1.355-1.536-1.312-1.224-2.808-1.982-4.482-2.1l.115.005h.007c-.187 0-.493.018-.754.07-.11.023-.173.044-.145.027.275-.165.54-.514.583-1.02.03-.37-.05-.555-.07-.578.192.225.584.556 1.184.965l-.28-.16c.397.187.973.548 1.663 1.124 1.077.9 2.135 2.096 3.107 3.62.72 1.133 1.37 2.41 1.933 3.843l.04.113c0-.003.015.04.05.12.07.164.162.353.28.563.35.62.822 1.248 1.434 1.837 2.607 2.51 6.777 3.572 13.14 2.188l2.425-.528v12.027c0 2.938-2.235 5.086-5.754 4.432l-.135-.025-.13-.042C14.85 96.63 0 76.373 0 53.265z"/></svg>