<svg xmlns="http://www.w3.org/2000/svg" width="86" height="106" viewBox="0 0 86 106"><g fill="none" fill-rule="evenodd"><path fill="#FFF" d="M0 0h85v106H0z"/><path stroke="#E0EDF3" stroke-width="2" d="M82.628 76.628c-3.243 9.406-12.01 26.06-22.01 26.24-6.635.127-8.763-3.93-16.348-3.93-7.58 0-9.948 3.81-16.222 4.057C17.438 103.398 2 78.953 2 57.635c0-19.584 12.706-29.293 24.63-29.47 6.393-.116 12.432 4.31 16.335 4.31 3.913 0 11.25-5.322 18.96-4.54 3.225.134 12.29 1.3 18.106 9.808-15.433 10.072-13.97 31.14 2.6 38.885zM62.025 3c-11.66.47-21.173 12.7-19.842 22.817C52.955 26.655 63.296 14.577 62.025 3z"/></g></svg>