<svg xmlns="http://www.w3.org/2000/svg" width="102" height="102" viewBox="0 0 102 102"><g fill="none" fill-rule="evenodd"><path fill="#FFF" d="M0 0h102v102H0z"/><g stroke="#E0EDF3" stroke-width="2"><path d="M41.376 42.238v34.928c0 2.97 0 6.014-1.812 7.826-.87.87-2.174 1.377-3.623 1.377-1.81 0-3.912-.943-5.506-2.683l-2.97 4.203c2.173 2.464 5.144 3.55 8.622 3.55 3.55 0 6.015-1.23 7.68-3.043 2.9-3.043 2.972-7.463 2.972-11.376V42.24h-5.362zm43.696 6.74c-1.088-2.102-2.754-4.06-4.71-5.363-2.392-1.594-4.783-2.174-7.754-2.174-7.826 0-13.55 5-13.55 12.465 0 3.623 1.23 5.87 3.332 7.898 2.174 2.102 4.566 3.116 6.45 3.986l4.348 2.028c2.536 1.16 4.42 2.03 5.797 3.333 1.74 1.595 2.39 3.48 2.39 5.653 0 4.855-3.115 9.565-9.71 9.565-2.463 0-4.854-.58-6.956-2.68-1.378-1.45-2.537-3.624-2.9-6.16l-5.217 1.45c.652 2.898 2.102 6.23 4.493 8.55 3.333 3.26 7.32 3.913 10.507 3.913 8.696 0 15.29-5.94 15.29-14.854 0-3.48-1.014-6.305-3.478-8.768-2.03-2.03-4.638-3.334-7.464-4.566l-4.637-2.03c-1.81-.796-3.623-1.593-5.072-3.042-1.303-1.232-1.81-2.32-1.81-4.203 0-4.493 3.333-7.464 8.115-7.464 2.754 0 4.493.942 5.435 1.667 1.087.87 2.174 2.32 2.826 3.623l4.276-2.826z"/><path d="M1 1h100v100H1z"/></g></g></svg>