<svg xmlns="http://www.w3.org/2000/svg" viewBox="0 0 89 103"><g fill="none" fill-rule="evenodd"><path fill="#FFF" d="M0 0h89v103H0z"/><g stroke="#E0ECF3" stroke-width="2"><path id="path154-path" d="M47.1293 2.0108c-.64203-.00116-1.31172.02578-2.01008.08146-17.6504 1.4215-12.9694 20.06822-13.23135 26.3124-.32233 4.56634-1.24817 8.16492-4.3887 12.62906-3.68968 4.38767-8.8843 11.48917-11.34515 18.8816-1.1614 3.4889-1.71406 7.04502-1.20366 10.41065-.1599.14318-.3121.2932-.45683.4477-1.0833 1.1565-1.8837 2.55778-2.7756 3.50123-.83324.8312-2.0204 1.14734-3.325 1.6154-1.3051.46827-2.738 1.15863-3.6078 2.82767 0 0 0 .00058-.00057.0008-.00142.00278-.00297.00538-.00445.0082-.78735 1.47063-.55328 3.16418-.3128 4.7332.24046 1.56903.4839 3.0517.16076 4.05763-1.0329 2.82318-1.16477 4.77602-.43764 6.19255.72868 1.41947 2.2269 2.046 3.9202 2.39968 3.38665.70733 7.97304.53155 11.58765 2.44733l.31068-.5862-.30746.58795c3.8696 2.02315 7.79263 2.74175 10.92252 2.02686 2.26922-.5183 4.1113-1.8695 5.0573-3.94865 2.44808-.01203 5.1344-1.04885 9.43757-1.2858 2.91926-.23513 6.56595 1.03668 10.76053.80376.10965.4551.26833.8928.48555 1.30875.00223.0043.0043.00852.0066.01274 1.62603 3.25154 4.64733 4.7388 7.8671 4.48468 3.22404-.25443 6.65183-2.15547 9.42268-5.45295l-.50797-.4269.51184.4222c2.64103-3.20233 7.0247-4.5302 9.93143-6.28337 1.45338-.8766 2.63268-1.97423 2.7238-3.56847.09106-1.59344-.84443-3.37914-2.99556-5.76698l-.00057-.00058c-.00082-.00105-.00168-.00198-.00252-.00297-.70678-.79873-1.04396-2.27908-1.4063-3.85552-.3621-1.57548-.7663-3.27498-2.05976-4.37636-.00258-.00228-.0052-.00432-.00778-.00658-.51478-.44857-1.04972-.753-1.58843-.95755 1.7983-5.33332 1.09273-10.644-.72255-15.44303-2.22785-5.88972-6.11735-11.02172-9.08783-14.53245-3.32496-4.19393-6.57707-8.17573-6.513-14.0567.09903-8.97568.98728-25.62078-14.80718-25.64234l.00034-.00007zM49.26758 15.8387c.89624 0 1.6617.2627 2.448.8334.79877.57976 1.37423 1.30553 1.83804 2.31904.4552.98773.67423 1.95398.6957 3.10063 0 .03006 0 .05582.0086.08588.0086 1.1767-.19325 2.1773-.63988 3.1994-.25485.58322-.54752 1.07272-.89782 1.4965-.11892-.0571-.24244-.112-.37054-.16466-.88793-.38032-1.56908-.62233-2.13678-.81932.2058-.24737.37715-.54074.52782-.90748.2276-.554.33927-1.0951.36074-1.73928 0-.02577.0086-.04724.0086-.0773.01287-.6184-.06872-1.14663-.2491-1.68774-.18895-.56687-.42944-.97484-.7773-1.3141-.34785-.3393-.6957-.49388-1.11227-.50678-.01954-.00117-.039-.00117-.05825-.00117-.39184.00117-.73208.13554-1.0841.43025-.36932.30922-.64417.7043-.87178 1.254-.2276.54968-.33927 1.09508-.36073 1.74356-.00432.02577-.00432.04725-.00432.073-.00742.35646.01522.683.0702 1.0001-.80177-.39952-1.55733-.6719-2.26643-.84066-.04043-.30663-.0638-.62306-.07128-.9539v-.0902c-.01288-1.1724.18037-2.1773.6313-3.1994.45092-1.0221 1.0092-1.75646 1.7951-2.3534.7859-.59692 1.5589-.87177 2.47363-.88036h.0428l.00003-.00002z"/><path id="path154-path" d="M37.0006 16.80993c.59455.0014 1.12657.20004 1.67687.63948.59694.4767 1.04786 1.0865 1.42577 1.9454.37792.85892.57976 1.7178.6356 2.73132v.00853c.02705.42566.02374.82634-.0098 1.2144-.1176.0334-.23284.06957-.34572.10844-.64108.22066-1.20605.5214-1.69847.84654.04815-.34012.0553-.68523.01838-1.07-.00432-.02148-.00432-.03866-.00432-.06012-.05153-.51105-.1589-.9405-.33926-1.37425-.19325-.4509-.40797-.7687-.6914-1.0135-.25687-.22183-.49957-.3237-.76658-.32168-.02762 0-.05556.00152-.08374.00386-.30062.02575-.5497.17176-.7859.4595-.2362.28773-.3908.64418-.50245 1.11656-.11166.4724-.14172.9362-.09448 1.46872 0 .02146.0043.03866.0043.06012.05154.51535.1546.9448.33927 1.37855.18896.44663.40798.76442.69142 1.0092.04746.041.09442.07782.14117.11072-.29482.2269-.4356.3315-.6772.50903-.15494.1137-.33948.24907-.55397.40718-.46777-.4382-.83268-.98892-1.15174-1.71404-.37792-.8589-.57976-1.7178-.63988-2.73132v-.00853c-.05583-1.0135.04294-1.88528.3221-2.78712.27913-.90186.65275-1.5546 1.19386-2.09144.5411-.5368 1.0865-.80736 1.74357-.8417.05134-.00283.1022-.0041.1526-.00388zM42.57956 24.84123c1.3819-.00534 3.0448.4477 5.058 1.7421 1.23657.80415 2.19878.87136 4.41446 1.82032l.00266.00118.00272.00105c1.06605.4374 1.69177 1.00752 1.99748 1.60788.3057.60037.31318 1.2514.0573 1.93628-.51174 1.36978-2.1452 2.81133-4.43743 3.52713l-.00217.00094-.00204.00094c-1.11767.36313-2.09228 1.16505-3.24127 1.82207-1.14896.657-2.4491 1.1869-4.21693 1.08464-1.50498-.0877-2.4046-.59863-3.21805-1.25238-.81348-.65376-1.52235-1.47507-2.56034-2.08458l-.00266-.0016-.00272-.0016c-1.67197-.94503-2.5848-2.03805-2.87127-2.9856-.28648-.94758-.01762-1.7564.81194-2.3781.93266-.69896 1.58053-1.1744 2.0121-1.49112.42873-.3146.6071-.43256.74362-.56366.0007-.00105.00144-.0015.00216-.00213l.00058-.00105c.70078-.66333 1.81787-1.87184 3.50176-2.45148.57956-.1995 1.22626-.32822 1.9501-.33108v-.00013z"/><path id="path154-path" d="M52.24272 30.55628c-.59633.03555-1.22088.34258-1.9481.74858-.7272.406-1.54498.92534-2.43122 1.43678-1.77247 1.02287-3.8128 2.0011-5.8405 2.0011-2.03086 0-3.6534-.93793-4.87038-1.90233-.6085-.4822-1.1107-.9679-1.51193-1.34362-.20062-.18788-.3746-.348-.53696-.47308-.1623-.12506-.29444-.24908-.56607-.24908l-.013.57077c-.01946.19097-.03945.1851-.03155.1903.01267.0083.0757.03004.14924.0867.11935.09193.28502.2418.48165.42595.39326.36827.91582.8746 1.55918 1.38444 1.28672 1.01964 3.07616 2.06577 5.3398 2.06577 2.2668 0 4.41145-1.0595 6.21845-2.1023.9035-.52138 1.72406-1.04184 2.42183-1.4314.69773-.38956 1.2848-.63384 1.62466-.6541l-.0451-.7545zM54.25765 32.26892c1.50556 5.93487 5.0073 14.50708 7.25797 18.69047 1.1963 2.2195 3.57636 6.93516 4.60465 12.6167.65157-.01996 1.36902.0747 2.13732.27122 2.68853-6.96995-2.27986-14.47752-4.55178-16.5683-.91724-.89005-.96133-1.28883-.50662-1.26998 2.46494 2.17983 5.70087 6.56415 6.87818 11.5129.53684 2.25652.6513 4.62877.0753 6.96996.2818.11707.568.24436.85808.38167 4.31562 2.1015 5.91168 3.9289 5.14428 6.42296-.25276-.00887-.50138-.00786-.7439-.00204-.02262.00058-.04508.00117-.06763.00172.62496-1.97697-.7595-3.4351-4.4487-5.10428-3.8264-1.68344-6.87548-1.51596-7.39082 1.89817-.03298.17888-.0595.36115-.07972.54595-.28587.09927-.5733.22602-.86145.3837-1.79674.98312-2.77742 2.76698-3.32286 4.9549-.545 2.18615-.70124 4.82907-.85165 7.80002v.00154c-.0919 1.4939-.7061 3.51444-1.32903 5.65453-6.26823 4.47124-14.96795 6.40843-22.35434 1.36753-.50057-.79187-1.0748-1.57646-1.66587-2.3503-.37744-.49415-.76518-.9853-1.15065-1.46953.75826.00058 1.40277-.12358 1.92368-.35978.64777-.29373 1.1029-.7655 1.32807-1.37116.45033-1.21133-.00197-2.92012-1.44362-4.87147-1.44157-1.9512-3.88307-4.15332-7.4707-6.35356 0 0-.00057 0-.00057-.00058-2.63568-1.63977-4.1097-3.64962-4.79964-5.8318-.69-2.1824-.59326-4.54225-.06146-6.87215 1.02072-4.47215 3.64334-8.82168 5.31672-11.55126.45052-.3315.16096.6153-1.69405 4.06003-1.6625 3.14946-4.77055 10.4177-.51507 16.09123.11372-4.03758 1.07796-8.1554 2.69668-12.00715 2.3578-5.3446 7.28943-14.61277 7.68112-21.99964.20195.14664.89592.61488 1.20514.79073.00058.00092.00136.00092.00198.00104.90472.53277 1.5842 1.31157 2.46424 2.01883.8818.70866 1.98337 1.32075 3.64764 1.41772 1.94255.1124 3.42306-.48927 4.63605-1.18288 1.21117-.69256 2.17874-1.45902 3.0954-1.7582.00144-.00093.0028-.00093.00414-.00132 1.937-.60573 3.47713-1.67785 4.35355-2.9283l-.00005.00012z"/><path id="path154-path" d="M64.3926 71.08347c.15827 2.56802 1.42882 5.18712 3.6758 5.75396 2.45893.64787 6.0042-1.4619 7.50103-3.18276.29847-.01195.59027-.02657.87366-.0334 1.313-.03172 2.41427.04323 3.53947 1.0273l.0039.00334.004.00334c.86468.73258 1.2757 2.117 1.63218 3.6679.35646 1.55092.64152 3.24003 1.71055 4.44334l.0016.00172.00148.00173c2.05524 2.2807 2.71586 3.82227 2.65963 4.8062-.05623.98397-.76864 1.71443-2.08416 2.50786-2.62988 1.5862-7.28967 2.96552-10.266 6.5707-2.5844 3.07558-5.73578 4.76474-8.51116 4.98378-2.7754.21903-5.1699-.93286-6.5816-3.76628l-.0032-.00642-.00335-.00632c-.87578-1.66598-.51095-4.2951.2268-7.06834.73777-2.77324 1.79775-5.62076 1.93965-7.93518v-.00713c.1501-2.9654.31608-5.55508.8142-7.55322.49813-1.99815 1.2825-3.3514 2.67226-4.11185.06472-.0354.12897-.06882.19285-.1004l.0004.00014z"/><path d="M17.26142 71.27726c.20743.00082.42694.01816.66082.05355 1.57315.2383 2.945 1.33825 4.2667 3.13096 1.32173 1.79274 2.55157 4.23996 3.81582 6.95455l.0016.00335.00148.0032c1.01595 2.12044 3.15977 4.452 4.97653 6.83054 1.81674 2.37852 3.2228 4.76603 3.0397 6.5934l-.00083.00793-.00058.0079c-.23685 3.11665-1.99493 4.81332-4.69376 5.42975-2.69802.61622-6.3556.00198-10.00886-1.9073-.00105-.0006-.00217-.00106-.00322-.00174-4.04182-2.1407-8.85007-1.92808-11.93442-2.57227-1.5426-.3222-2.54914-.80657-3.01112-1.70654-.462-.89995-.4723-2.47008.50943-5.1472l.00433-.01182.0039-.01195c.4855-1.49762.1262-3.13625-.10952-4.6743-.2357-1.53803-.351-2.93702.1742-3.91213l.00242-.00445.0024-.00457c.6724-1.29615 1.6587-1.7595 2.8828-2.19865 1.2241-.4392 2.67563-.7841 3.82185-1.9328l.00593-.00606.00592-.00618c1.05963-1.11785 1.85558-2.51906 2.78713-3.51358.786-.8391 1.57255-1.39526 2.75814-1.4035h.04133l-.0001-.00008z"/></g></g></svg>