<svg xmlns="http://www.w3.org/2000/svg" viewBox="0 0 113 112"><defs><linearGradient id="a" x1="50%" x2="50%" y1="0%" y2="100%"><stop stop-color="#09DFF3" offset="0%"/><stop stop-color="#44BEFF" offset="100%"/></linearGradient></defs><g fill="none" fill-rule="evenodd"><path fill="#FFF" d="M0 0h113v112H0z"/><g stroke="url(#a)" stroke-width="2" transform="translate(1.5 1.5)"><path d="M98.734 94.702c1.59 1.643 1.55 4.263-.093 5.856-1.644 1.59-4.265 1.55-5.854-.093C91.193 98.823.47.323.47.323s96.672 92.735 98.264 94.38zm7.284-11.745c1.34 1.383 1.31 3.588-.076 4.93-1.384 1.34-3.593 1.304-4.937-.077-1.338-1.384-75.627-81.567-75.627-81.567s79.3 75.327 80.64 76.714zM85.853 101.12c1.555 1.603 1.522 4.153-.082 5.71-1.598 1.545-4.16 1.51-5.72-.09-1.546-1.603-67.74-74.78-67.74-74.78s71.996 67.548 73.543 69.16zm-15.626 2.504c1.04 1.07 1.018 2.773-.054 3.813-1.07 1.03-2.782 1.01-3.823-.06-1.032-1.072-44.972-50.043-44.972-50.043s47.815 45.21 48.85 46.29zm38.41-34.142c1.04 1.07 1.018 2.772-.053 3.814-1.07 1.03-2.783 1.01-3.826-.062-1.03-1.07-48.704-52.71-48.704-52.71s51.55 47.88 52.583 48.958zm-3.683-15.17c.61.626.59 1.625-.033 2.236-.628.604-1.628.59-2.238-.037-.605-.626-20.756-24.256-20.756-24.256s22.423 21.426 23.028 22.058zM54.806 102.324c.61.627.594 1.626-.032 2.236-.628.604-1.63.59-2.24-.035-.604-.628-20.22-23.726-20.22-23.726s21.886 20.894 22.492 21.524z"/></g></g></svg>