<svg xmlns="http://www.w3.org/2000/svg" width="90" height="102" viewBox="0 0 90 102"><defs><linearGradient id="a" x1="50%" x2="50%" y1="0%" y2="100%"><stop stop-color="#09DFF3" offset="0%"/><stop stop-color="#44BEFF" offset="100%"/></linearGradient></defs><g fill="none" fill-rule="evenodd"><path fill="#FFF" d="M0 0h90v102H0z"/><g stroke="url(#a)" stroke-width="2" transform="translate(1 1)"><path d="M43.8 98.83c-1.3 0-2.63-.34-3.78-1l-12.1-7.17c-1.8-1-.92-1.37-.33-1.57 2.4-.85 2.9-1.04 5.46-2.5.27-.15.62-.1.9.07l9.3 5.5c.33.2.8.2 1.1 0l36.23-20.9c.33-.18.54-.57.54-.97V28.5c0-.4-.2-.8-.56-1L44.38 6.62c-.34-.2-.78-.2-1.12 0l-36.2 20.9c-.34.2-.57.6-.57.98v41.8c0 .4.22.78.56.97L17 77c5.37 2.7 8.67-.48 8.67-3.66V32.07c0-.58.47-1.04 1.05-1.04h4.6c.57 0 1.04.46 1.04 1.04v41.27c0 7.18-3.9 11.3-10.72 11.3-2.1 0-3.74 0-8.35-2.27L3.8 76.9C1.45 75.56 0 73 0 70.3V28.5c0-2.7 1.45-5.25 3.8-6.6L40.02.97c2.3-1.3 5.33-1.3 7.6 0L83.85 21.9c2.35 1.36 3.8 3.9 3.8 6.6v41.8c0 2.7-1.45 5.24-3.8 6.6l-36.2 20.92c-1.17.67-2.48 1-3.83 1"/><path d="M55.17 69.12C39.32 69.12 36 61.85 36 55.75c0-.58.47-1.05 1.05-1.05h4.68c.52 0 .96.38 1.04.9.7 4.76 2.82 7.16 12.4 7.16 7.63 0 10.88-1.72 10.88-5.77 0-2.34-.92-4.08-12.78-5.24-9.9-.98-16.04-3.17-16.04-11.1 0-7.3 6.16-11.66 16.5-11.66 11.6 0 17.33 4.03 18.06 12.67.02.3-.1.58-.3.8-.2.2-.46.34-.75.34h-4.7c-.5 0-.92-.34-1.02-.8-1.13-5.03-3.87-6.63-11.3-6.63-8.34 0-9.3 2.9-9.3 5.08 0 2.63 1.13 3.4 12.38 4.9 11.14 1.46 16.43 3.54 16.43 11.36 0 7.9-6.6 12.42-18.06 12.42"/></g></g></svg>