<svg xmlns="http://www.w3.org/2000/svg" width="103" height="103" viewBox="0 0 103 103"><defs><linearGradient id="a" x1="50%" x2="50%" y1="0%" y2="100%"><stop stop-color="#09DFF3" offset="0%"/><stop stop-color="#44BEFF" offset="100%"/></linearGradient></defs><g fill="none" fill-rule="evenodd"><path fill="#FFF" d="M1 0h102v103H1z"/><path stroke="url(#a)" stroke-width="2" d="M11.52 100.95h49.66s-11.02-25.02-8.22-48c2.8-22.95 20.9-33.4 31.18-34.53C94.4 17.3 100 23.65 100 23.65l2.25-3.36S87.5 5.35 68.83 7.03c-18.67 1.68-31.55 14-39.58 28.93-8.03 14.94-12.7 25.4-15.87 41.08s-1.86 23.9-1.86 23.9z"/><path fill="url(#a)" d="M1.62 75.93l9.7.75-1.67 9.7L.5 85.26l1.12-9.33zM16.93 55.4l2.62-7.3-8.6-3.35-2.8 7.84 8.78 2.8zm12.14-25.03l5.04-5.97-6.53-4.3-5.22 5.8 6.72 4.47zM42.32 7.22l4.48 5.42 6.16-3.55-4.48-5.05-6.16 3.17zM65.4 5.78l7.67-.2-.75-4.84L64.3.36l1.1 5.42zm24.53 4.42l5.23 2.8 1.37-3.34L90.7 5.9l-.77 4.3zm-1.26 13.7l5.12 1.32.24-2.88-5.12-1.9-.25 3.45zm-12.51 5.04l3.38-3.2-2.52-4.08-4.08 2 3.22 5.28zm-7.14 6.1l-2.17 4.9L61.43 34l3.86-4.54 3.72 5.6zM55.4 49.8l6.34 5.4.45-6.65-5.42-4.1-1.4 5.34zm-.57 18.66l7.84 3.36-1.27-6.1-7.1-3.74.53 6.48zm2.61 16.62l1.87 6.72 9.9.56-3.54-7.28h-8.22z"/></g></svg>