<svg xmlns="http://www.w3.org/2000/svg" viewBox="0 0 115 106"><g fill="#E0EDF3" fill-rule="evenodd"><path id="Shape" d="M58.33 101.38l53.56-64.72L93 2.43H51.23l-14 34.23 21.1 64.72zm1.54 1.28l-2.32 2.8-1.12-3.46-21.1-64.72-.23-.7.28-.68 14-34.23.5-1.24H94.2l.58 1.04 18.88 34.22.66 1.18-.87 1.05-53.56 64.73z"/><path d="M56.76 101.38l21.1-64.72-14-34.23H22.07L3.2 36.66l53.56 64.72zm-1.54 1.28L1.66 37.93.8 36.88l.65-1.2L20.33 1.5 20.9.42h44.3l.5 1.24 14 34.23.3.68-.24.7L58.66 102l-1.12 3.45-2.32-2.8z"/><path d="M2.72 37.55h110.24v-2H2.72v2z"/></g></svg>