<svg width="1440" height="337" viewBox="0 0 1440 337" xmlns="http://www.w3.org/2000/svg" xmlns:xlink="http://www.w3.org/1999/xlink"><title>Group 3</title><defs><linearGradient x1="50%" y1="0%" x2="50%" y2="100%" id="l"><stop stop-color="#66E5FF" offset="0%"/><stop stop-color="#FFF" stop-opacity=".4" offset="100%"/></linearGradient><path id="n" d="M7.66 184.441l121.39-51.668 167.098 39.325L422.66 223.77l136.184-76.91L727.39 83.843l178.992 48.93 164.906-19.051 170.39-49.895 141.633-39.55 62.86 107.152"/><filter x="-50%" y="-50%" width="200%" height="200%" filterUnits="objectBoundingBox" id="m"><feMorphology radius="1" operator="dilate" in="SourceAlpha" result="shadowSpreadOuter1"/><feOffset dy="12" in="shadowSpreadOuter1" result="shadowOffsetOuter1"/><feMorphology radius="1" in="SourceAlpha" result="shadowInner"/><feOffset dy="12" in="shadowInner" result="shadowInner"/><feComposite in="shadowOffsetOuter1" in2="shadowInner" operator="out" result="shadowOffsetOuter1"/><feGaussianBlur stdDeviation="12" in="shadowOffsetOuter1" result="shadowBlurOuter1"/><feColorMatrix values="0 0 0 0 1 0 0 0 0 0.815686275 0 0 0 0 0.435294118 0 0 0 1 0" in="shadowBlurOuter1"/></filter><circle id="a" cx="129" cy="133" r="5"/><mask id="o" x="-2" y="-2" width="14" height="14"><path fill="#fff" d="M122 126h14v14h-14z"/><use xlink:href="#a"/></mask><circle id="b" cx="421" cy="224" r="5"/><mask id="p" x="-2" y="-2" width="14" height="14"><path fill="#fff" d="M414 217h14v14h-14z"/><use xlink:href="#b"/></mask><circle id="c" cx="556" cy="148" r="5"/><mask id="q" x="-2" y="-2" width="14" height="14"><path fill="#fff" d="M549 141h14v14h-14z"/><use xlink:href="#c"/></mask><circle id="d" cx="727" cy="84" r="5"/><mask id="r" x="-2" y="-2" width="14" height="14"><path fill="#fff" d="M720 77h14v14h-14z"/><use xlink:href="#d"/></mask><circle id="e" cx="905" cy="132" r="5"/><mask id="s" x="-2" y="-2" width="14" height="14"><path fill="#fff" d="M898 125h14v14h-14z"/><use xlink:href="#e"/></mask><circle id="f" cx="1069" cy="113" r="5"/><mask id="t" x="-2" y="-2" width="14" height="14"><path fill="#fff" d="M1062 106h14v14h-14z"/><use xlink:href="#f"/></mask><circle id="g" cx="1241" cy="64" r="5"/><mask id="u" x="-2" y="-2" width="14" height="14"><path fill="#fff" d="M1234 57h14v14h-14z"/><use xlink:href="#g"/></mask><circle id="h" cx="1382" cy="23" r="5"/><mask id="v" x="-2" y="-2" width="14" height="14"><path fill="#fff" d="M1375 16h14v14h-14z"/><use xlink:href="#h"/></mask><circle id="i" cx="297" cy="173" r="5"/><mask id="w" x="-2" y="-2" width="14" height="14"><path fill="#fff" d="M290 166h14v14h-14z"/><use xlink:href="#i"/></mask><circle id="j" cx="5" cy="183" r="5"/><mask id="x" x="-2" y="-2" width="14" height="14"><path fill="#fff" d="M-2 176h14v14H-2z"/><use xlink:href="#j"/></mask><circle id="k" cx="1448" cy="132" r="5"/><mask id="y" x="-2" y="-2" width="14" height="14"><path fill="#fff" d="M1441 125h14v14h-14z"/><use xlink:href="#k"/></mask></defs><g transform="translate(-7)" fill="none" fill-rule="evenodd"><path fill="url(#l)" opacity=".5" d="M7 184l121.77-51.332 172.062 41 122.203 49.668 140.961-79.133L727 83.637l176.414 49.031 164.309-19.676 173.77-49.187 141.038-39.75L1447 132.668V332H7z"/><use fill="#000" filter="url(#m)" xlink:href="#n"/><use stroke="#FFD06F" stroke-width="2" xlink:href="#n"/><circle fill="#FFD06F" opacity=".1" cx="130" cy="134" r="24"/><circle fill="#FFD06F" opacity=".1" cx="728" cy="85" r="24"/><circle fill="#FFD06F" opacity=".1" cx="1382" cy="24" r="24"/><circle fill="#FFD06F" opacity=".3" cx="1381.5" cy="23.5" r="17.5"/><circle fill="#FFD06F" opacity=".4" cx="1381" cy="23" r="10"/><circle fill="#FFD06F" opacity=".3" cx="727.5" cy="84.5" r="17.5"/><circle fill="#FFD06F" opacity=".4" cx="727" cy="84" r="10"/><circle fill="#FFD06F" opacity=".3" cx="129.5" cy="133.5" r="17.5"/><circle fill="#FFD06F" opacity=".4" cx="129" cy="133" r="10"/><use fill="#FFF" xlink:href="#a"/><use stroke="#FFD06F" mask="url(#o)" stroke-width="4" xlink:href="#a"/><use fill="#FFF" xlink:href="#b"/><use stroke="#2DB7D9" mask="url(#p)" stroke-width="4" xlink:href="#b"/><use fill="#FFF" xlink:href="#c"/><use stroke="#2DB7D9" mask="url(#q)" stroke-width="4" xlink:href="#c"/><use fill="#FFF" xlink:href="#d"/><use stroke="#FFD06F" mask="url(#r)" stroke-width="4" xlink:href="#d"/><use fill="#FFF" xlink:href="#e"/><use stroke="#2DB7D9" mask="url(#s)" stroke-width="4" xlink:href="#e"/><use fill="#FFF" xlink:href="#f"/><use stroke="#2DB7D9" mask="url(#t)" stroke-width="4" xlink:href="#f"/><use fill="#FFF" xlink:href="#g"/><use stroke="#2DB7D9" mask="url(#u)" stroke-width="4" xlink:href="#g"/><use fill="#FFF" xlink:href="#h"/><use stroke="#FFD06F" mask="url(#v)" stroke-width="4" xlink:href="#h"/><use fill="#FFF" xlink:href="#i"/><use stroke="#2DB7D9" mask="url(#w)" stroke-width="4" xlink:href="#i"/><use fill="#FFF" xlink:href="#j"/><use stroke="#2DB7D9" mask="url(#x)" stroke-width="4" xlink:href="#j"/><g><use fill="#FFF" xlink:href="#k"/><use stroke="#2DB7D9" mask="url(#y)" stroke-width="4" xlink:href="#k"/></g><path d="M128.5 133.5v197.01M726.5 83.5v248M905 133v199.5M1070 109v220.5M1241 65v271.5M1381 23v309.5M296.5 174.5v158.523M421 228v104.867M556 148v187.5" stroke="#FFF" stroke-linecap="square" stroke-dasharray="2,4" opacity=".5"/></g></svg>