<svg width="1372" height="717" viewBox="0 0 1372 717" xmlns="http://www.w3.org/2000/svg"><defs><filter x="-50%" y="-50%" width="200%" height="200%" filterUnits="objectBoundingBox" id="a"><feOffset dy="2" in="SourceAlpha" result="shadowOffsetOuter1"/><feGaussianBlur in="shadowOffsetOuter1" result="shadowBlurOuter1"/><feColorMatrix values="0 0 0 0 0 0 0 0 0 0 0 0 0 0 0 0 0 0 0.035 0" in="shadowBlurOuter1" result="shadowMatrixOuter1"/><feMerge><feMergeNode in="shadowMatrixOuter1"/><feMergeNode in="SourceGraphic"/></feMerge></filter><filter x="-50%" y="-50%" width="200%" height="200%" filterUnits="objectBoundingBox" id="b"><feOffset dy="2" in="SourceAlpha" result="shadowOffsetOuter1"/><feGaussianBlur in="shadowOffsetOuter1" result="shadowBlurOuter1"/><feColorMatrix values="0 0 0 0 0 0 0 0 0 0 0 0 0 0 0 0 0 0 0.035 0" in="shadowBlurOuter1" result="shadowMatrixOuter1"/><feMerge><feMergeNode in="shadowMatrixOuter1"/><feMergeNode in="SourceGraphic"/></feMerge></filter><filter x="-50%" y="-50%" width="200%" height="200%" filterUnits="objectBoundingBox" id="c"><feOffset dy="2" in="SourceAlpha" result="shadowOffsetOuter1"/><feGaussianBlur in="shadowOffsetOuter1" result="shadowBlurOuter1"/><feColorMatrix values="0 0 0 0 0 0 0 0 0 0 0 0 0 0 0 0 0 0 0.035 0" in="shadowBlurOuter1" result="shadowMatrixOuter1"/><feMerge><feMergeNode in="shadowMatrixOuter1"/><feMergeNode in="SourceGraphic"/></feMerge></filter><filter x="-50%" y="-50%" width="200%" height="200%" filterUnits="objectBoundingBox" id="d"><feOffset dy="2" in="SourceAlpha" result="shadowOffsetOuter1"/><feGaussianBlur in="shadowOffsetOuter1" result="shadowBlurOuter1"/><feColorMatrix values="0 0 0 0 0 0 0 0 0 0 0 0 0 0 0 0 0 0 0.035 0" in="shadowBlurOuter1" result="shadowMatrixOuter1"/><feMerge><feMergeNode in="shadowMatrixOuter1"/><feMergeNode in="SourceGraphic"/></feMerge></filter><filter x="-50%" y="-50%" width="200%" height="200%" filterUnits="objectBoundingBox" id="e"><feOffset dy="2" in="SourceAlpha" result="shadowOffsetOuter1"/><feGaussianBlur in="shadowOffsetOuter1" result="shadowBlurOuter1"/><feColorMatrix values="0 0 0 0 0 0 0 0 0 0 0 0 0 0 0 0 0 0 0.035 0" in="shadowBlurOuter1" result="shadowMatrixOuter1"/><feMerge><feMergeNode in="shadowMatrixOuter1"/><feMergeNode in="SourceGraphic"/></feMerge></filter><filter x="-50%" y="-50%" width="200%" height="200%" filterUnits="objectBoundingBox" id="f"><feOffset dy="2" in="SourceAlpha" result="shadowOffsetOuter1"/><feGaussianBlur in="shadowOffsetOuter1" result="shadowBlurOuter1"/><feColorMatrix values="0 0 0 0 0 0 0 0 0 0 0 0 0 0 0 0 0 0 0.035 0" in="shadowBlurOuter1" result="shadowMatrixOuter1"/><feMerge><feMergeNode in="shadowMatrixOuter1"/><feMergeNode in="SourceGraphic"/></feMerge></filter><filter x="-50%" y="-50%" width="200%" height="200%" filterUnits="objectBoundingBox" id="g"><feOffset dy="2" in="SourceAlpha" result="shadowOffsetOuter1"/><feGaussianBlur in="shadowOffsetOuter1" result="shadowBlurOuter1"/><feColorMatrix values="0 0 0 0 0 0 0 0 0 0 0 0 0 0 0 0 0 0 0.035 0" in="shadowBlurOuter1" result="shadowMatrixOuter1"/><feMerge><feMergeNode in="shadowMatrixOuter1"/><feMergeNode in="SourceGraphic"/></feMerge></filter><filter x="-50%" y="-50%" width="200%" height="200%" filterUnits="objectBoundingBox" id="h"><feOffset dy="2" in="SourceAlpha" result="shadowOffsetOuter1"/><feGaussianBlur in="shadowOffsetOuter1" result="shadowBlurOuter1"/><feColorMatrix values="0 0 0 0 0 0 0 0 0 0 0 0 0 0 0 0 0 0 0.035 0" in="shadowBlurOuter1" result="shadowMatrixOuter1"/><feMerge><feMergeNode in="shadowMatrixOuter1"/><feMergeNode in="SourceGraphic"/></feMerge></filter><filter x="-50%" y="-50%" width="200%" height="200%" filterUnits="objectBoundingBox" id="i"><feOffset dy="2" in="SourceAlpha" result="shadowOffsetOuter1"/><feGaussianBlur in="shadowOffsetOuter1" result="shadowBlurOuter1"/><feColorMatrix values="0 0 0 0 0 0 0 0 0 0 0 0 0 0 0 0 0 0 0.035 0" in="shadowBlurOuter1" result="shadowMatrixOuter1"/><feMerge><feMergeNode in="shadowMatrixOuter1"/><feMergeNode in="SourceGraphic"/></feMerge></filter></defs><g fill="#FFF" fill-rule="evenodd"><path d="M1293.709 365.03a9.21 9.21 0 0 1 17.055-5.564 12.342 12.342 0 0 1 9.49-4.435c6.439 0 11.728 4.919 12.315 11.204.705-.1 1.426-.152 2.16-.152 8.429 0 15.262 6.834 15.262 15.263 0 8.43-6.833 15.264-15.263 15.264-.162 0-.324-.003-.485-.008-2.696 5.904-8.653 10.008-15.567 10.008-9.318 0-16.896-7.45-17.101-16.72a13.622 13.622 0 0 1-7.9 2.51c-7.557 0-13.684-6.128-13.684-13.685 0-7.558 6.127-13.684 13.685-13.684h.033z" filter="url(#a)"/><path d="M419.864 467.915a27.442 27.442 0 0 1-1.326-8.453C418.538 444.295 430.833 432 446 432c12.738 0 23.45 8.672 26.554 20.434a28.663 28.663 0 0 1 19.215-7.357c15.889 0 28.77 12.88 28.77 28.77 0 .08 0 .161-.002.242C536.02 476.019 548 489.226 548 505.23c0 17.333-14.051 31.384-31.385 31.384a31.238 31.238 0 0 1-16.598-4.743c-5.31 14.956-19.586 25.666-36.363 25.666-15.753 0-29.301-9.442-35.292-22.976a35.172 35.172 0 0 1-15.054 3.361c-19.5 0-35.308-15.808-35.308-35.308s15.808-35.307 35.308-35.307c2.24 0 4.432.208 6.556.607z" filter="url(#b)"/><path d="M854.316 673.94a20.679 20.679 0 0 0-.67 5.238c0 11.402 9.243 20.646 20.645 20.646 5.227 0 10-1.943 13.636-5.144 3.525 11.351 14.111 19.595 26.622 19.595 15.393 0 27.871-12.478 27.871-27.87 0-.143 0-.284-.003-.426a33.545 33.545 0 0 0 9.81 1.457c18.528 0 33.548-15.02 33.548-33.548 0-18.528-15.02-33.548-33.548-33.548-.871 0-1.734.033-2.588.098.005-.204.007-.41.007-.614 0-14.538-11.785-26.323-26.323-26.323-14.537 0-26.322 11.785-26.322 26.323l.003.444a26.723 26.723 0 0 0-12.39-3.025c-11.71 0-21.67 7.5-25.335 17.959a21.576 21.576 0 0 0-11.827-3.508c-11.972 0-21.677 9.706-21.677 21.678 0 11.972 9.705 21.677 21.677 21.677 2.4 0 4.707-.39 6.864-1.109z" filter="url(#c)"/><path d="M718.965 335.55a16.801 16.801 0 0 0-.545 4.256c0 9.264 7.51 16.774 16.774 16.774a16.71 16.71 0 0 0 11.08-4.18c2.864 9.224 11.465 15.922 21.63 15.922 12.507 0 22.645-10.139 22.645-22.645 0-.115 0-.23-.002-.345a27.255 27.255 0 0 0 7.97 1.183c15.054 0 27.258-12.203 27.258-27.258 0-15.054-12.204-27.258-27.258-27.258-.708 0-1.409.027-2.103.08.004-.166.006-.332.006-.499 0-11.812-9.575-21.387-21.387-21.387-11.812 0-21.387 9.575-21.387 21.387 0 .12 0 .241.003.361a21.712 21.712 0 0 0-10.068-2.458c-9.514 0-17.606 6.094-20.584 14.592a17.53 17.53 0 0 0-9.61-2.85c-9.726 0-17.612 7.886-17.612 17.613s7.886 17.613 17.613 17.613c1.949 0 3.824-.317 5.577-.901z" filter="url(#d)"/><path d="M1361.875 72.21c.191-.876.292-1.785.292-2.718 0-6.995-5.671-12.666-12.667-12.666a12.616 12.616 0 0 0-8.124 2.948c-3.33-4.613-8.752-7.615-14.876-7.615-9.406 0-17.159 7.085-18.211 16.21a14.426 14.426 0 0 0-2.455-.21c-7.916 0-14.334 6.417-14.334 14.333 0 7.51 5.774 13.67 13.125 14.283a18.056 18.056 0 0 0-.458 4.05c0 9.942 8.059 18 18 18 6.687 0 12.523-3.646 15.626-9.059a17.633 17.633 0 0 0 6.04 1.06c9.653 0 17.498-7.741 17.665-17.354 5.581-.343 10.002-4.978 10.002-10.646 0-5.54-4.223-10.093-9.625-10.617z" filter="url(#e)"/><path d="M1095.584 487.162a11.493 11.493 0 0 0 5.87 1.6c6.377 0 11.546-5.169 11.546-11.546 0-6.376-5.17-11.546-11.546-11.546-1.22 0-2.397.19-3.5.54-1.113-6.397-6.692-11.262-13.408-11.262-1.045 0-2.064.118-3.042.342a13.176 13.176 0 0 0-10.566-5.29c-5.225 0-9.741 3.037-11.879 7.443-5.818.314-10.664 4.281-12.284 9.649a10.292 10.292 0 0 0-3.466-.597c-5.693 0-10.309 4.615-10.309 10.31 0 5.432 4.202 9.883 9.534 10.28a15.29 15.29 0 0 0-.462 3.74c0 8.426 6.831 15.257 15.258 15.257 6.276 0 11.668-3.79 14.01-9.206a14.785 14.785 0 0 0 9.495 3.433c7.625 0 13.907-5.748 14.75-13.147z" filter="url(#f)"/><path d="M580.053 51.098a15.803 15.803 0 0 0 8.07 2.201c8.769 0 15.877-7.108 15.877-15.876 0-8.769-7.108-15.877-15.876-15.877-1.678 0-3.295.26-4.813.743-1.53-8.796-9.2-15.485-18.435-15.485-1.438 0-2.838.162-4.182.47C557.384 2.856 552.108 0 546.164 0c-7.184 0-13.394 4.176-16.333 10.234-7.999.431-14.663 5.887-16.89 13.267a14.151 14.151 0 0 0-4.766-.82c-7.829 0-14.175 6.346-14.175 14.175 0 7.47 5.778 13.59 13.11 14.135a21.023 21.023 0 0 0-.636 5.143c0 11.587 9.393 20.98 20.98 20.98 8.63 0 16.043-5.212 19.264-12.659a20.33 20.33 0 0 0 13.055 4.72c10.484 0 19.122-7.903 20.28-18.077z" filter="url(#g)"/><path d="M78.23 552.535a14.366 14.366 0 0 0 7.337 2.001c7.971 0 14.433-6.462 14.433-14.433s-6.462-14.433-14.433-14.433c-1.525 0-2.995.237-4.376.675-1.39-7.996-8.364-14.077-16.758-14.077-1.307 0-2.58.147-3.803.427-3.008-4.015-7.804-6.613-13.207-6.613-6.532 0-12.177 3.797-14.85 9.304-7.271.392-13.329 5.352-15.355 12.061a12.865 12.865 0 0 0-4.331-.746C5.77 526.701 0 532.471 0 539.588c0 6.79 5.253 12.355 11.917 12.85a19.111 19.111 0 0 0-.577 4.675c0 10.534 8.54 19.073 19.072 19.073 7.846 0 14.585-4.738 17.513-11.508a18.481 18.481 0 0 0 11.869 4.291c9.53 0 17.383-7.185 18.436-16.434z" filter="url(#h)"/><path d="M277.156 272.088a22.25 22.25 0 0 0 .51-4.755c0-12.242-9.924-22.166-22.166-22.166a22.077 22.077 0 0 0-14.218 5.16C235.455 242.253 225.966 237 215.25 237c-16.462 0-30.028 12.398-31.87 28.367a25.245 25.245 0 0 0-4.297-.367C165.23 265 154 276.23 154 290.083c0 13.14 10.104 23.921 22.967 24.996-.524 2.278-.8 4.65-.8 7.088 0 17.397 14.103 31.5 31.5 31.5 11.702 0 21.914-6.382 27.346-15.855a30.858 30.858 0 0 0 10.57 1.855c16.892 0 30.62-13.547 30.912-30.37 9.768-.6 17.505-8.711 17.505-18.63 0-9.695-7.39-17.663-16.844-18.58z" filter="url(#i)"/></g></svg>