<svg width="1355" height="596" viewBox="0 0 1355 596" xmlns="http://www.w3.org/2000/svg"><defs><filter x="-50%" y="-50%" width="200%" height="200%" filterUnits="objectBoundingBox" id="a"><feOffset dy="2" in="SourceAlpha" result="shadowOffsetOuter1"/><feGaussianBlur in="shadowOffsetOuter1" result="shadowBlurOuter1"/><feColorMatrix values="0 0 0 0 0 0 0 0 0 0 0 0 0 0 0 0 0 0 0.035 0" in="shadowBlurOuter1" result="shadowMatrixOuter1"/><feMerge><feMergeNode in="shadowMatrixOuter1"/><feMergeNode in="SourceGraphic"/></feMerge></filter><filter x="-50%" y="-50%" width="200%" height="200%" filterUnits="objectBoundingBox" id="b"><feOffset dy="2" in="SourceAlpha" result="shadowOffsetOuter1"/><feGaussianBlur in="shadowOffsetOuter1" result="shadowBlurOuter1"/><feColorMatrix values="0 0 0 0 0 0 0 0 0 0 0 0 0 0 0 0 0 0 0.035 0" in="shadowBlurOuter1" result="shadowMatrixOuter1"/><feMerge><feMergeNode in="shadowMatrixOuter1"/><feMergeNode in="SourceGraphic"/></feMerge></filter><filter x="-50%" y="-50%" width="200%" height="200%" filterUnits="objectBoundingBox" id="c"><feOffset dy="2" in="SourceAlpha" result="shadowOffsetOuter1"/><feGaussianBlur in="shadowOffsetOuter1" result="shadowBlurOuter1"/><feColorMatrix values="0 0 0 0 0 0 0 0 0 0 0 0 0 0 0 0 0 0 0.035 0" in="shadowBlurOuter1" result="shadowMatrixOuter1"/><feMerge><feMergeNode in="shadowMatrixOuter1"/><feMergeNode in="SourceGraphic"/></feMerge></filter><filter x="-50%" y="-50%" width="200%" height="200%" filterUnits="objectBoundingBox" id="d"><feOffset dy="2" in="SourceAlpha" result="shadowOffsetOuter1"/><feGaussianBlur in="shadowOffsetOuter1" result="shadowBlurOuter1"/><feColorMatrix values="0 0 0 0 0 0 0 0 0 0 0 0 0 0 0 0 0 0 0.035 0" in="shadowBlurOuter1" result="shadowMatrixOuter1"/><feMerge><feMergeNode in="shadowMatrixOuter1"/><feMergeNode in="SourceGraphic"/></feMerge></filter><filter x="-50%" y="-50%" width="200%" height="200%" filterUnits="objectBoundingBox" id="e"><feOffset dy="2" in="SourceAlpha" result="shadowOffsetOuter1"/><feGaussianBlur in="shadowOffsetOuter1" result="shadowBlurOuter1"/><feColorMatrix values="0 0 0 0 0 0 0 0 0 0 0 0 0 0 0 0 0 0 0.035 0" in="shadowBlurOuter1" result="shadowMatrixOuter1"/><feMerge><feMergeNode in="shadowMatrixOuter1"/><feMergeNode in="SourceGraphic"/></feMerge></filter><filter x="-50%" y="-50%" width="200%" height="200%" filterUnits="objectBoundingBox" id="f"><feOffset dy="2" in="SourceAlpha" result="shadowOffsetOuter1"/><feGaussianBlur in="shadowOffsetOuter1" result="shadowBlurOuter1"/><feColorMatrix values="0 0 0 0 0 0 0 0 0 0 0 0 0 0 0 0 0 0 0.035 0" in="shadowBlurOuter1" result="shadowMatrixOuter1"/><feMerge><feMergeNode in="shadowMatrixOuter1"/><feMergeNode in="SourceGraphic"/></feMerge></filter><filter x="-50%" y="-50%" width="200%" height="200%" filterUnits="objectBoundingBox" id="g"><feOffset dy="2" in="SourceAlpha" result="shadowOffsetOuter1"/><feGaussianBlur in="shadowOffsetOuter1" result="shadowBlurOuter1"/><feColorMatrix values="0 0 0 0 0 0 0 0 0 0 0 0 0 0 0 0 0 0 0.035 0" in="shadowBlurOuter1" result="shadowMatrixOuter1"/><feMerge><feMergeNode in="shadowMatrixOuter1"/><feMergeNode in="SourceGraphic"/></feMerge></filter><filter x="-50%" y="-50%" width="200%" height="200%" filterUnits="objectBoundingBox" id="h"><feOffset dy="2" in="SourceAlpha" result="shadowOffsetOuter1"/><feGaussianBlur in="shadowOffsetOuter1" result="shadowBlurOuter1"/><feColorMatrix values="0 0 0 0 0 0 0 0 0 0 0 0 0 0 0 0 0 0 0.035 0" in="shadowBlurOuter1" result="shadowMatrixOuter1"/><feMerge><feMergeNode in="shadowMatrixOuter1"/><feMergeNode in="SourceGraphic"/></feMerge></filter></defs><g fill="#FFF" fill-rule="evenodd"><path d="M1088.338 198.877a12.924 12.924 0 0 0-.419 3.274c0 7.127 5.777 12.904 12.904 12.904 3.266 0 6.25-1.214 8.522-3.215 2.203 7.094 8.82 12.247 16.639 12.247 9.62 0 17.42-7.8 17.42-17.42 0-.088-.001-.177-.003-.265 1.94.592 3.998.91 6.131.91 11.58 0 20.968-9.387 20.968-20.967 0-11.58-9.388-20.968-20.968-20.968-.544 0-1.083.02-1.617.062.003-.128.004-.256.004-.384 0-9.086-7.365-16.452-16.451-16.452s-16.452 7.366-16.452 16.452c0 .092 0 .185.002.277a16.702 16.702 0 0 0-7.744-1.89c-7.319 0-13.543 4.687-15.834 11.224a13.485 13.485 0 0 0-7.392-2.192c-7.482 0-13.548 6.066-13.548 13.548 0 7.483 6.066 13.549 13.548 13.549 1.5 0 2.942-.244 4.29-.694z" filter="url(#a)"/><path d="M949.717 307.658C945.914 291.793 931.637 280 914.605 280c-18.906 0-34.419 14.532-35.976 33.036a22.906 22.906 0 0 0-5.287-.615c-12.615 0-22.842 10.227-22.842 22.842 0 12.616 10.227 22.842 22.842 22.842a22.88 22.88 0 0 0 5.798-.742 27.37 27.37 0 0 0-.64 5.9c0 15.057 12.206 27.263 27.263 27.263 12.467 0 22.979-8.367 26.227-19.792a23.65 23.65 0 0 0 5.457.634c11.67 0 21.359-8.476 23.246-19.608 1.54.296 3.129.45 4.754.45 13.837 0 25.053-11.216 25.053-25.052s-11.216-25.053-25.053-25.053c-5.958 0-11.43 2.08-15.73 5.553z" filter="url(#b)"/><path d="M1005.818 33.412a5.263 5.263 0 0 1 9.746-3.18 7.068 7.068 0 0 1 12.46 3.867 8.722 8.722 0 1 1 .957 17.353 9.776 9.776 0 0 1-8.896 5.719c-5.324 0-9.655-4.257-9.772-9.554a7.82 7.82 0 1 1-4.495-14.206z" filter="url(#c)"/><path d="M1264.311 498.545a19.37 19.37 0 0 1-.935-5.967c0-10.706 8.678-19.385 19.384-19.385 8.991 0 16.553 6.122 18.744 14.424a20.232 20.232 0 0 1 13.564-5.193c11.216 0 20.308 9.092 20.308 20.308l-.001.171c10.928 1.362 19.385 10.685 19.385 21.983 0 12.235-9.918 22.153-22.154 22.153a22.05 22.05 0 0 1-11.716-3.348c-3.748 10.558-13.825 18.118-25.668 18.118-11.12 0-20.683-6.666-24.912-16.219a24.827 24.827 0 0 1-10.627 2.372c-13.764 0-24.923-11.158-24.923-24.923 0-13.764 11.159-24.923 24.923-24.923 1.582 0 3.129.148 4.628.43z" filter="url(#d)"/><path d="M549.718 339.964a9.21 9.21 0 0 1 17.055-5.564 12.342 12.342 0 0 1 9.49-4.436c6.438 0 11.728 4.92 12.315 11.204a15.37 15.37 0 0 1 2.159-.151c8.43 0 15.263 6.833 15.263 15.263s-6.834 15.263-15.263 15.263c-.162 0-.324-.003-.485-.008-2.696 5.905-8.653 10.008-15.568 10.008-9.318 0-16.895-7.45-17.1-16.72a13.622 13.622 0 0 1-7.9 2.51c-7.557 0-13.684-6.127-13.684-13.685 0-7.557 6.127-13.684 13.684-13.684h.034z" filter="url(#e)"/><path d="M399.056 145.714a14.665 14.665 0 0 1-.052-1.24c0-7.994 6.48-14.474 14.473-14.474 5.247 0 9.842 2.792 12.38 6.971 3.566-4.26 8.923-6.971 14.914-6.971 10.117 0 18.429 7.73 19.35 17.607a24.19 24.19 0 0 1 3.394-.239c13.247 0 23.985 10.739 23.985 23.985 0 13.247-10.738 23.985-23.985 23.985-.255 0-.509-.004-.762-.012-4.237 9.279-13.597 15.727-24.464 15.727-14.642 0-26.55-11.708-26.873-26.273a21.405 21.405 0 0 1-12.412 3.942c-11.876 0-21.504-9.628-21.504-21.504 0-11.876 9.628-21.504 21.504-21.504h.052z" filter="url(#f)"/><path d="M56.695 16.183C54.522 7.117 46.364.378 36.632.378c-10.804 0-19.668 8.304-20.558 18.878-.97-.23-1.982-.351-3.021-.351C5.843 18.905 0 24.749 0 31.957c0 7.21 5.844 13.053 13.053 13.053 1.144 0 2.255-.147 3.313-.424A15.635 15.635 0 0 0 16 47.957c0 8.604 6.975 15.58 15.579 15.58 7.124 0 13.13-4.782 14.987-11.31 1 .236 2.045.362 3.118.362 6.668 0 12.205-4.844 13.284-11.205.88.17 1.787.258 2.716.258 7.907 0 14.316-6.41 14.316-14.316 0-7.907-6.41-14.316-14.316-14.316a14.256 14.256 0 0 0-8.989 3.173z" filter="url(#g)"/><path d="M181.195 546.034c-2.173-9.066-10.331-15.804-20.063-15.804-10.804 0-19.668 8.304-20.558 18.877-.97-.23-1.982-.351-3.021-.351-7.21 0-13.053 5.844-13.053 13.053 0 7.208 5.844 13.052 13.053 13.052 1.144 0 2.255-.147 3.313-.424a15.635 15.635 0 0 0-.366 3.372c0 8.604 6.975 15.579 15.579 15.579 7.124 0 13.13-4.782 14.987-11.31 1 .237 2.045.362 3.118.362 6.668 0 12.205-4.844 13.284-11.205.88.17 1.787.258 2.716.258 7.907 0 14.316-6.41 14.316-14.316 0-7.906-6.41-14.316-14.316-14.316a14.256 14.256 0 0 0-8.989 3.173z" filter="url(#h)"/></g></svg>