<svg xmlns="http://www.w3.org/2000/svg" width="154" height="153" viewBox="0 0 154 153">
  <g fill="none" fill-rule="evenodd">
    <path fill="#FFF" d="M76.95.34l43.77 43.77-87.46-.06L76.96.34z"/>
    <path fill="#D7D7D7" d="M44.46 32.83l11.22 11.23-22.42-.02 11.2-11.2z"/>
    <path fill="#FFF" d="M.76 76.53l43.77 43.77-.07-87.47-43.7 43.7z"/>
    <path fill="#D7D7D7" d="M33.3 109.08l11.23 11.22-.02-22.43-11.2 11.2z"/>
    <path fill="#FFF" d="M77.08 152.84l43.7-43.7-87.47-.06 43.78 43.76z"/>
    <path fill="#FFF" d="M120.16 43.55l33.1 33.1-43.7 43.7-.05-76.25 10.66-.55z"/>
    <path fill="#D7D7D7" d="M109.56 109.14v11.2l-11.2-11.2h11.2z" opacity=".6"/>
    <path fill="#D7D7D7" d="M109.56 55V44l10.54-.4L109.56 55z"/>
    <path fill="#FFF" d="M54.97 71.73c.08 0 .15.03.2.1l.6.6c-.33.4-.73.7-1.2.92-.48.2-1.05.3-1.7.3-.6 0-1.14-.1-1.62-.3-.47-.2-.88-.46-1.22-.82-.33-.35-.6-.77-.77-1.26-.18-.5-.27-1.03-.27-1.6 0-.6.1-1.14.3-1.63.2-.5.47-.9.83-1.26.37-.35.8-.63 1.3-.83.5-.2 1.06-.3 1.67-.3.6 0 1.12.1 1.57.3.44.17.82.42 1.14.73l-.5.67c-.02.05-.06.08-.1.12-.05.03-.1.05-.2.05-.08 0-.17-.04-.25-.1-.1-.07-.2-.14-.34-.2-.13-.1-.3-.16-.5-.22-.22-.07-.48-.1-.8-.1-.38 0-.73.06-1.05.2-.3.12-.58.3-.8.54-.24.24-.42.53-.54.87-.12.35-.18.73-.18 1.16 0 .44.06.83.2 1.17.1.35.3.64.5.87.22.23.48.4.78.54.3.12.6.18.95.18.2 0 .4 0 .55-.03l.46-.1c.13-.06.27-.12.4-.2.1-.07.24-.16.36-.27l.1-.07.15-.03zm3.46-1.22v3.07h-1.5v-7.82h2.46c.53 0 1 .05 1.4.16.38.12.7.28.95.47.25.2.43.44.55.72.12.26.17.57.17.9 0 .26-.04.5-.12.74-.07.24-.2.45-.34.64-.14.2-.32.36-.54.5-.22.15-.47.27-.75.35.2.1.36.26.5.45l2 2.9h-1.34c-.13 0-.24-.03-.33-.08-.1-.05-.17-.13-.23-.22l-1.7-2.5c-.05-.1-.12-.17-.2-.2-.07-.05-.18-.07-.33-.07h-.64zm0-1.03h.93c.28 0 .53-.03.74-.1.2-.07.38-.17.5-.3.15-.1.25-.25.32-.42.06-.16.1-.35.1-.54 0-.4-.14-.7-.4-.9-.27-.22-.68-.33-1.23-.33h-.97v2.6zm10.78-3.72v1.15h-3.54v2.17h2.8v1.12h-2.8v2.2h3.55v1.17h-5.05v-7.82h5.06zm8.35 7.82H76.4c-.13 0-.24-.03-.32-.1-.1-.06-.15-.13-.18-.23l-.6-1.6h-3.32l-.6 1.6c-.03.1-.1.16-.18.23-.08.07-.2.1-.32.1h-1.15l3.14-7.82h1.53l3.15 7.82zm-5.2-2.95h2.56l-.96-2.6-.15-.42-.17-.5-.15.5c-.05.17-.1.3-.15.42l-.97 2.6zm10.86-4.87v1.2h-2.4v6.62h-1.5v-6.63H76.9v-1.2h6.33zm8.2 3.9c0 .58-.08 1.1-.28 1.6s-.47.92-.83 1.27c-.36.36-.8.64-1.3.84-.5.2-1.04.3-1.64.3-.6 0-1.16-.1-1.66-.3-.5-.2-.93-.48-1.3-.84-.35-.35-.62-.78-.82-1.27-.2-.5-.3-1.02-.3-1.6 0-.56.1-1.1.3-1.6.2-.47.47-.9.83-1.25.37-.36.8-.64 1.3-.84.5-.2 1.05-.3 1.66-.3.6 0 1.15.1 1.65.3.5.2.94.48 1.3.84.35.35.62.78.82 1.26.2.5.3 1.03.3 1.6zm-1.52 0c0-.42-.05-.8-.17-1.15-.1-.34-.27-.63-.5-.87-.2-.23-.48-.42-.8-.54-.3-.14-.65-.2-1.04-.2-.4 0-.75.06-1.06.2-.32.1-.58.3-.8.53-.22.24-.4.53-.5.87-.13.34-.2.73-.2 1.16 0 .43.07.8.2 1.15.1.36.28.64.5.88.22.24.48.42.8.54.3.13.66.2 1.06.2s.74-.07 1.05-.2c.32-.12.6-.3.8-.54.23-.24.4-.52.5-.87.13-.33.18-.7.18-1.14zm4.25.86v3.07h-1.5v-7.82h2.45c.55 0 1.02.05 1.4.16.4.12.72.28.97.47.25.2.43.44.55.72.1.26.17.57.17.9 0 .26-.04.5-.12.74-.08.24-.2.45-.34.64-.14.2-.33.36-.55.5-.22.15-.47.27-.75.35.2.1.35.26.5.45l2 2.9h-1.34c-.13 0-.24-.03-.33-.08-.1-.05-.17-.13-.23-.22l-1.7-2.5c-.05-.1-.12-.17-.2-.2-.07-.05-.18-.07-.33-.07h-.64zm0-1.03h.93c.28 0 .53-.03.74-.1.2-.07.38-.17.5-.3.15-.1.25-.25.3-.42.08-.16.1-.35.1-.54 0-.4-.12-.7-.4-.9-.26-.22-.67-.33-1.22-.33h-.95v2.6zm10.02-2.3c-.04.08-.1.13-.14.17-.05.03-.1.05-.18.05-.08 0-.16-.04-.25-.1l-.33-.18c-.13-.07-.27-.14-.44-.2-.17-.05-.37-.08-.6-.08-.2 0-.38.03-.54.08-.15.05-.28.1-.4.2-.1.1-.17.2-.22.3-.05.13-.08.27-.08.4 0 .2.05.35.16.47.1.1.24.22.42.3.17.1.37.17.6.24l.67.22c.24.07.47.16.7.27.2.1.4.23.58.4.18.14.32.33.42.56.1.22.16.5.16.82 0 .35-.06.7-.2 1-.1.3-.3.57-.53.8-.24.23-.53.4-.87.54-.35.13-.74.2-1.18.2-.26 0-.5-.03-.76-.07-.25-.06-.48-.13-.7-.22-.24-.1-.45-.2-.65-.33-.2-.12-.37-.26-.53-.42l.43-.7c.04-.05.1-.1.15-.12.06-.03.12-.05.2-.05.08 0 .18.04.3.1.1.1.23.17.37.26.14.1.3.18.5.26.2.07.44.1.72.1.42 0 .75-.1 1-.3.22-.18.34-.47.34-.83 0-.2-.06-.38-.16-.5-.1-.14-.25-.25-.42-.33-.17-.1-.37-.17-.6-.23l-.67-.2c-.22-.07-.45-.16-.67-.26-.22-.1-.42-.22-.6-.38-.16-.17-.3-.37-.4-.6-.1-.26-.17-.56-.17-.9 0-.3.06-.58.18-.85.1-.27.28-.5.5-.72.23-.2.5-.38.83-.5.33-.13.7-.2 1.12-.2.46 0 .9.08 1.3.23.4.14.73.34 1 .6l-.35.7zM54.1 79.83c-.05.07-.1.1-.18.1-.05 0-.12-.03-.2-.1-.1-.1-.2-.17-.36-.27-.15-.1-.33-.18-.55-.25-.2-.07-.5-.1-.8-.1-.33 0-.62.03-.87.12-.24.1-.45.22-.6.38-.18.16-.3.34-.4.55-.08.2-.12.42-.12.65 0 .3.07.54.2.74.13.2.3.36.5.5.22.13.46.25.73.34.26.1.54.2.82.28l.82.3c.27.1.5.25.72.4.2.18.37.38.5.63.13.23.2.53.2.9 0 .36-.07.7-.2 1.03-.13.33-.32.6-.56.85-.24.24-.54.43-.9.57-.35.14-.76.2-1.2.2-.6 0-1.1-.1-1.53-.3-.42-.2-.8-.5-1.1-.84l.17-.27c.05-.06.1-.1.17-.1.04 0 .1.04.15.1l.2.17.3.24c.13.08.26.16.42.23.15.07.33.14.53.2.2.04.44.06.7.06.35 0 .66-.05.94-.16.27-.1.5-.25.7-.43.2-.18.33-.4.43-.65.1-.26.15-.53.15-.82 0-.3-.06-.56-.2-.76-.12-.2-.3-.37-.5-.5-.2-.14-.45-.26-.7-.35-.28-.1-.56-.18-.84-.26-.28-.08-.55-.18-.82-.3-.27-.1-.5-.23-.72-.4-.2-.17-.38-.38-.5-.63-.13-.25-.2-.56-.2-.94 0-.3.06-.58.17-.85.12-.28.28-.52.5-.73.22-.2.5-.37.8-.5.33-.13.7-.2 1.1-.2.48 0 .9.08 1.26.23.37.14.7.36 1 .66l-.14.3zm9.94 6.25c.04 0 .08 0 .1.04l.26.27c-.18.2-.4.36-.6.52-.22.15-.46.28-.72.4-.26.1-.55.2-.85.25-.3.06-.65.1-1.02.1-.6 0-1.18-.12-1.7-.33-.5-.2-.95-.52-1.32-.9-.37-.4-.66-.87-.86-1.43-.2-.55-.3-1.16-.3-1.84 0-.67.1-1.28.3-1.83.22-.55.52-1.03.9-1.42.4-.4.85-.7 1.38-.9.54-.23 1.13-.34 1.78-.34.33 0 .62.02.9.07.26.05.5.12.75.2.23.1.45.2.66.34.2.13.4.28.6.46l-.2.28c-.04.06-.1.08-.16.08-.04 0-.1-.02-.15-.06l-.23-.16-.33-.22c-.13-.07-.28-.14-.46-.2-.17-.07-.38-.12-.6-.17-.24-.04-.5-.06-.8-.06-.54 0-1.04.1-1.5.28-.45.2-.84.45-1.17.8-.32.34-.57.75-.76 1.24-.18.48-.27 1.03-.27 1.64 0 .62.1 1.17.27 1.66.18.5.43.9.75 1.24.3.34.7.6 1.13.78.43.18.9.27 1.4.27.33 0 .62 0 .87-.05.25-.04.48-.1.7-.2.2-.07.4-.17.58-.3.18-.1.36-.25.53-.4l.07-.06c.02-.02.05-.02.07-.02zm10.47 1.48h-.64v-4.22h-5.6v4.22h-.64v-8.8h.65v4.1h5.6v-4.1h.64v8.8zm11.82-4.4c0 .68-.1 1.3-.3 1.85-.22.56-.5 1.03-.88 1.42-.38.4-.83.7-1.35.9-.53.23-1.1.33-1.75.33-.62 0-1.2-.1-1.72-.32-.52-.2-.97-.5-1.34-.9-.4-.4-.68-.87-.9-1.42-.2-.55-.3-1.16-.3-1.84 0-.68.1-1.3.3-1.85.22-.54.5-1 .9-1.4.36-.4.8-.7 1.33-.92.52-.2 1.1-.32 1.72-.32.64 0 1.22.1 1.74.32.5.2.96.52 1.34.9.37.4.66.88.87 1.43.2.57.32 1.18.32 1.86zm-.67 0c0-.62-.1-1.17-.26-1.66-.18-.5-.43-.9-.74-1.24-.3-.34-.7-.6-1.13-.78-.45-.18-.94-.27-1.48-.27-.53 0-1 .1-1.45.28-.44.18-.82.44-1.14.78-.32.34-.56.75-.74 1.24-.17.5-.26 1.04-.26 1.66 0 .6.1 1.17.26 1.65.18.5.42.9.74 1.25.32.34.7.6 1.14.78.44.18.92.27 1.45.27.54 0 1.03-.1 1.48-.27.44-.18.82-.44 1.13-.78.3-.34.56-.75.73-1.24.16-.47.25-1.03.25-1.64zm11.92 0c0 .68-.1 1.3-.3 1.85-.2.56-.5 1.03-.88 1.42-.38.4-.83.7-1.35.9-.53.23-1.1.33-1.74.33-.62 0-1.2-.1-1.7-.32-.54-.2-.98-.5-1.36-.9-.37-.4-.67-.87-.87-1.42-.2-.55-.32-1.16-.32-1.84 0-.68.1-1.3.32-1.85.2-.54.5-1 .87-1.4.38-.4.82-.7 1.35-.92.5-.2 1.08-.32 1.7-.32.64 0 1.22.1 1.75.32.52.2.97.52 1.34.9.37.4.66.88.86 1.43.2.57.3 1.18.3 1.86zm-.67 0c0-.62-.08-1.17-.26-1.66-.17-.5-.4-.9-.73-1.24-.3-.34-.68-.6-1.12-.78-.44-.18-.93-.27-1.47-.27-.52 0-1 .1-1.45.28-.44.18-.8.44-1.13.78-.32.34-.57.75-.74 1.24-.18.5-.26 1.04-.26 1.66 0 .6.08 1.17.26 1.65.17.5.42.9.74 1.25.32.34.7.6 1.13.78.44.18.93.27 1.46.27.55 0 1.04-.1 1.48-.27.44-.18.82-.44 1.13-.78.33-.34.57-.75.74-1.24.18-.47.26-1.03.26-1.64zm4.6 3.86h4.24v.54h-4.88v-8.8h.64v8.26z"/>
  </g>
</svg>
