<svg viewBox="0 0 25 25" width="25px" height="25px" version="1.1" xmlns="http://www.w3.org/2000/svg" xmlns:xlink="http://www.w3.org/1999/xlink">
    <defs></defs>
    <g stroke="none" stroke-width="1" fill="none" fill-rule="evenodd">
        <g transform="translate(-615.000000, -4203.000000)" fill="#FAB23C">
            <g transform="translate(615.000000, 4203.000000)">
                <path d="M12.5,0.347905683 C5.59684466,0.347905683 0,5.86645435 0,12.6729057 C0,18.1182223 3.58161408,22.7390802 8.54896845,24.3680144 C9.17354369,24.4823497 9.375,24.101232 9.375,23.7752178 L9.375,21.4803746 C5.89799757,22.2266354 5.17366505,20.0270417 5.17366505,20.0270417 C4.60606796,18.6017692 3.78622573,18.2226258 3.78622573,18.2226258 C2.65194175,17.4583562 3.87166262,17.4733735 3.87166262,17.4733735 C5.12700243,17.5606656 5.78816748,18.7441648 5.78816748,18.7441648 C6.90303398,20.6277957 8.71171117,20.0832222 9.42584951,19.7682766 C9.53774272,18.9718183 9.86116505,18.4282619 10.2192961,18.1203164 C7.44211165,17.8093793 4.52463592,16.7521815 4.52463592,12.0290142 C4.52463592,10.6829567 5.01292476,9.58363845 5.81256068,8.72106794 C5.68234223,8.41013093 5.25503641,7.15639124 5.93264563,5.45925071 C5.93264563,5.45925071 6.98246359,5.12827061 9.37087379,6.72304185 C10.36875,6.45021661 11.4379854,6.3128467 12.5,6.30782097 C13.5620146,6.3128467 14.6331311,6.45027644 15.631068,6.72304185 C18.0175971,5.12827061 19.0652913,5.45925071 19.0652913,5.45925071 C19.7459345,7.15633141 19.3175971,8.4100711 19.1884102,8.72106794 C19.9900485,9.58363845 20.4752427,10.6829567 20.4752427,12.0290142 C20.4752427,16.7631903 17.5506675,17.8053109 14.7674757,18.1102649 C15.2149879,18.4924596 15.6250607,19.2436264 15.6250607,20.3930823 L15.6250607,23.7752178 C15.6250607,24.1032064 15.8253641,24.4873755 16.4591626,24.3670571 C21.4233617,22.7351912 25,18.117265 25,12.6729655 C25,5.86651418 19.403034,0.347905683 12.5,0.347905683 L12.5,0.347905683 Z"></path>
            </g>
        </g>
    </g>
</svg>
