<svg viewBox="0 0 25 26" width="25px" height="25px" version="1.1" xmlns="http://www.w3.org/2000/svg" xmlns:xlink="http://www.w3.org/1999/xlink">
    <defs></defs>
    <g stroke="none" stroke-width="1" fill="none" fill-rule="evenodd">
        <g transform="translate(-276.000000, -2139.000000)" fill="#FAB23C">
            <path d="M288.5,2139.62889 C281.596541,2139.62889 276,2145.22511 276,2152.12889 C276,2159.03266 281.596541,2164.62889 288.5,2164.62889 C295.403459,2164.62889 301,2159.03266 301,2152.12889 C301,2145.22511 295.403459,2139.62889 288.5,2139.62889 L288.5,2139.62889 Z M295.518868,2151.93423 L289.009748,2159.09681 L287.690881,2157.89838 L292.258491,2152.87228 L288.802201,2152.87039 L287.02044,2152.86914 L281.429874,2152.86599 L281.430818,2151.08423 L287.021069,2151.08738 L288.803145,2151.08832 L291.965409,2151.09021 L286.634591,2146.48958 L287.822642,2145.16096 L294.233962,2150.6987 L294.240252,2150.69209 L295.091195,2151.46599 L295.570126,2151.89429 L295.518868,2151.93423 L295.518868,2151.93423 Z" transform="translate(288.500000, 2152.128885) scale(-1, 1) rotate(-180.000000) translate(-288.500000, -2152.128885) "></path>
        </g>
    </g>
</svg>
