<svg xmlns="http://www.w3.org/2000/svg" width="202" height="41" viewBox="0 0 202 41"><title>logo + logotype</title><defs><linearGradient id="a" x1="79.995%" x2="0%" y1="60.848%" y2="60.848%"><stop stop-opacity=".3" offset="0%"/><stop stop-opacity=".05" offset="100%"/></linearGradient><linearGradient id="b" x1="0%" x2="79.995%" y1="60.848%" y2="60.848%"><stop stop-opacity=".3" offset="0%"/><stop stop-opacity=".05" offset="100%"/></linearGradient><linearGradient id="c" x1="62.415%" x2="50%" y1="36.041%" y2="62.304%"><stop stop-color="#09DFF3" offset="0%"/><stop stop-color="#44BEFF" offset="100%"/></linearGradient></defs><g fill="none" fill-rule="evenodd"><path fill="#5889A2" d="M14.39 40.26l.033.02v-.038l13.804-8.13v-7.4L14.36 32.88v.025L.554 24.65v7.655l13.804 7.938v.036l.03-.02zM14.328.3l-.032-.02v.038L.49 8.254v7.655l13.837-8.28 13.968 8.64v-8L14.36.31V.28l-.033.018z"/><path fill="url(#a)" d="M18.51 29.72l9-5v7" transform="translate(.491 .279)"/><path fill="url(#b)" d="M.19 13.423l9.055-5.31v7.547" transform="translate(.491 .279)"/><path fill="url(#c)" d="M0 7.925L27.736 24.22v7.667L0 15.925" transform="translate(.491 .279)"/><path fill="#3BD6F9" d="M63.935 16.273l-1.978 1.156c-.37-.64-.723-1.05-1.058-1.24-.35-.22-.8-.33-1.35-.33-.68 0-1.24.19-1.69.56-.45.37-.67.84-.67 1.4 0 .78.58 1.4 1.76 1.88l1.61.65c1.31.52 2.27 1.16 2.88 1.91.6.75.91 1.68.91 2.77 0 1.46-.5 2.67-1.49 3.63-1 .96-2.24 1.44-3.72 1.44-1.4 0-2.56-.41-3.48-1.23-.9-.82-1.46-1.97-1.69-3.46l2.47-.54c.11.933.3 1.58.58 1.94.5.69 1.23 1.03 2.19 1.03.76 0 1.392-.253 1.894-.755.505-.505.756-1.14.756-1.91 0-.31-.044-.596-.13-.855-.09-.252-.224-.49-.41-.71-.184-.212-.423-.42-.716-.61s-.64-.37-1.05-.54L58 21.823c-2.215-.92-3.32-2.27-3.32-4.05 0-1.193.463-2.2 1.39-3 .928-.81 2.08-1.22 3.464-1.22 1.864 0 3.32.89 4.366 2.68zm10.183-2.375V23.5c0 1.37.227 2.373.68 3.006.677.916 1.63 1.373 2.858 1.373 1.235 0 2.19-.46 2.868-1.38.453-.62.68-1.62.68-3.01v-9.6h2.44v10.27c0 1.68-.532 3.06-1.592 4.15-1.194 1.21-2.66 1.82-4.396 1.82-1.738 0-3.2-.61-4.386-1.82-1.06-1.09-1.59-2.47-1.59-4.15V13.9h2.438zM91.9 29.84V13.9h2.428c1.082 0 1.943.082 2.585.248.65.165 1.197.444 1.644.836.453.406.813.912 1.078 1.518.272.613.408 1.232.408 1.86 0 1.14-.443 2.11-1.33 2.9.86.29 1.536.795 2.03 1.518.504.716.755 1.55.755 2.5 0 1.245-.447 2.3-1.34 3.16-.537.53-1.14.897-1.81 1.104-.733.2-1.65.3-2.753.3H91.9zm2.44-9.096h.763c.907 0 1.57-.198 1.994-.594.422-.396.633-.98.633-1.75 0-.75-.216-1.32-.65-1.71-.432-.388-1.06-.582-1.883-.582h-.858v4.636zm0 6.836h1.506c1.102 0 1.912-.213 2.428-.64.544-.46.816-1.047.816-1.756 0-.688-.26-1.266-.785-1.734-.51-.462-1.42-.692-2.73-.692H94.34v4.822zm14.82-13.682l4.468 11.05 4.532-11.05h2.67l-7.255 17.14-7.086-17.14h2.67zm20.502 0V29.84h-2.44V13.9h2.44zm17.405 2.375l-1.978 1.156c-.37-.64-.73-1.05-1.06-1.24-.35-.22-.8-.33-1.35-.33-.68 0-1.24.19-1.69.56-.45.37-.67.84-.67 1.4 0 .78.58 1.4 1.76 1.88l1.61.65c1.31.52 2.27 1.16 2.88 1.91.6.75.91 1.68.91 2.77 0 1.46-.5 2.67-1.49 3.63-1 .96-2.24 1.44-3.72 1.44-1.41 0-2.56-.41-3.48-1.23-.9-.82-1.47-1.97-1.69-3.46l2.47-.54c.11.933.3 1.58.58 1.94.5.69 1.23 1.03 2.2 1.03.76 0 1.39-.253 1.89-.755.5-.505.75-1.14.75-1.91 0-.31-.046-.596-.13-.855-.09-.252-.226-.49-.41-.71-.186-.212-.42-.42-.718-.61s-.64-.37-1.046-.54l-1.56-.64c-2.21-.92-3.32-2.27-3.32-4.05 0-1.192.464-2.2 1.392-3 .925-.81 2.08-1.22 3.46-1.22 1.86 0 3.32.89 4.36 2.68zm10.183-2.375V23.5c0 1.37.227 2.373.68 3.006.677.916 1.63 1.373 2.858 1.373 1.235 0 2.19-.46 2.868-1.38.453-.62.68-1.62.68-3.01v-9.6h2.44v10.27c0 1.68-.53 3.06-1.592 4.15-1.193 1.21-2.66 1.82-4.396 1.82-1.738 0-3.2-.61-4.386-1.82-1.06-1.09-1.59-2.47-1.59-4.15V13.9h2.438zm26.585 12.07h-6.92l-1.8 3.873h-2.626l7.99-16.94 7.72 16.94h-2.67l-1.7-3.87zm-.995-2.26l-2.397-5.422-2.512 5.422h4.91zm14.203-9.81V27.58h4.752v2.26h-7.19V13.9h2.438z"/></g></svg>