<svg xmlns="http://www.w3.org/2000/svg" width="148" height="249" viewBox="0 0 148 249">
  <g fill="#FFF" fill-rule="evenodd">
    <path d="M1.3 75.3L0.8 75.5 0.8 37 67.4 0.3 67.4 0 67.6 0.1 67.6 0.1 67.9 0 67.9 0.3 134.5 37 134.5 75.5 67.6 37.1 43.9 50.8 47.6 48.6 1.3 37.3 1.3 75.3ZM134 157.9L68.3 195.1 68.3 195.5 68 195.3 68 195.3 67.9 195.4 67.9 195.2 1.3 158.5 1.3 119.9 67.9 158.2 67.9 158 89.4 145.7 134 157.9 134 157.9ZM134.9 120.4L134.9 119.9 96.3 141.8 134.9 120.4 134.9 120.4Z" transform="translate(6.61 .312)"/>
    <path d="M134.2 158.2L0 76.1 0 37.3 134.2 119.4 134.2 158.2 134.2 158.2Z" transform="translate(6.61 .312)"/>
    <path d="M9.9 234.6L8 235.8C7.6 235.2 7.2 234.8 6.9 234.6 6.6 234.3 6.1 234.2 5.6 234.2 4.9 234.2 4.3 234.4 3.9 234.8 3.4 235.2 3.2 235.6 3.2 236.2 3.2 237 3.8 237.6 5 238.1L6.6 238.7C7.9 239.3 8.8 239.9 9.5 240.6 10.1 241.4 10.4 242.3 10.4 243.4 10.4 244.9 9.9 246.1 8.9 247.1 7.9 248 6.6 248.5 5.2 248.5 3.8 248.5 2.6 248.1 1.7 247.3 0.8 246.5 0.2 245.3 0 243.8L2.5 243.3C2.6 244.2 2.8 244.9 3.1 245.2 3.6 245.9 4.3 246.2 5.3 246.2 6 246.2 6.6 246 7.1 245.5 7.7 245 7.9 244.4 7.9 243.6 7.9 243.3 7.9 243 7.8 242.7 7.7 242.5 7.5 242.2 7.4 242 7.2 241.8 6.9 241.6 6.6 241.4 6.4 241.2 6 241 5.6 240.9L4 240.2C1.8 239.3 0.7 238 0.7 236.2 0.7 235 1.2 234 2.1 233.2 3 232.4 4.2 232 5.6 232 7.4 232 8.9 232.9 9.9 234.6L9.9 234.6ZM20.1 232.3L20.1 241.9C20.1 243.2 20.4 244.2 20.8 244.9 21.5 245.8 22.4 246.2 23.7 246.2 24.9 246.2 25.9 245.8 26.5 244.9 27 244.3 27.2 243.3 27.2 241.9L27.2 232.3 29.7 232.3 29.7 242.5C29.7 244.2 29.1 245.6 28.1 246.7 26.9 247.9 25.4 248.5 23.7 248.5 21.9 248.5 20.5 247.9 19.3 246.7 18.2 245.6 17.7 244.2 17.7 242.5L17.7 232.3 20.1 232.3ZM37.9 248.2L37.9 232.3 40.3 232.3C41.4 232.3 42.3 232.3 42.9 232.5 43.6 232.7 44.1 233 44.6 233.4 45 233.8 45.4 234.3 45.6 234.9 45.9 235.5 46.1 236.1 46.1 236.7 46.1 237.9 45.6 238.8 44.7 239.6 45.6 239.9 46.3 240.4 46.8 241.1 47.3 241.9 47.5 242.7 47.5 243.6 47.5 244.9 47.1 245.9 46.2 246.8 45.6 247.3 45 247.7 44.4 247.9 43.6 248.1 42.7 248.2 41.6 248.2L37.9 248.2ZM40.3 239.1L41.1 239.1C42 239.1 42.7 238.9 43.1 238.5 43.5 238.1 43.7 237.5 43.7 236.8 43.7 236 43.5 235.4 43.1 235.1 42.7 234.7 42 234.5 41.2 234.5L40.3 234.5 40.3 239.1ZM40.3 245.9L41.9 245.9C43 245.9 43.8 245.7 44.3 245.3 44.8 244.8 45.1 244.3 45.1 243.6 45.1 242.9 44.8 242.3 44.3 241.8 43.8 241.4 42.9 241.1 41.6 241.1L40.3 241.1 40.3 245.9ZM55.2 232.3L59.6 243.3 64.2 232.3 66.8 232.3 59.6 249.4 52.5 232.3 55.2 232.3ZM75.7 232.3L75.7 248.2 73.2 248.2 73.2 232.3 75.7 232.3ZM93.1 234.6L91.1 235.8C90.7 235.2 90.4 234.8 90 234.6 89.7 234.3 89.2 234.2 88.7 234.2 88 234.2 87.5 234.4 87 234.8 86.6 235.2 86.3 235.6 86.3 236.2 86.3 237 86.9 237.6 88.1 238.1L89.7 238.7C91 239.3 92 239.9 92.6 240.6 93.2 241.4 93.5 242.3 93.5 243.4 93.5 244.9 93 246.1 92 247.1 91 248 89.8 248.5 88.3 248.5 86.9 248.5 85.7 248.1 84.8 247.3 83.9 246.5 83.4 245.3 83.1 243.8L85.6 243.3C85.7 244.2 85.9 244.9 86.2 245.2 86.7 245.9 87.4 246.2 88.4 246.2 89.1 246.2 89.8 246 90.3 245.5 90.8 245 91 244.4 91 243.6 91 243.3 91 243 90.9 242.7 90.8 242.5 90.7 242.2 90.5 242 90.3 241.8 90.1 241.6 89.8 241.4 89.5 241.2 89.1 241 88.7 240.9L87.2 240.2C85 239.3 83.9 238 83.9 236.2 83.9 235 84.3 234 85.2 233.2 86.2 232.4 87.3 232 88.7 232 90.6 232 92 232.9 93.1 234.6L93.1 234.6ZM103.3 232.3L103.3 241.9C103.3 243.2 103.5 244.2 103.9 244.9 104.6 245.8 105.6 246.2 106.8 246.2 108 246.2 109 245.8 109.7 244.9 110.1 244.3 110.3 243.3 110.3 241.9L110.3 232.3 112.8 232.3 112.8 242.5C112.8 244.2 112.3 245.6 111.2 246.7 110 247.9 108.5 248.5 106.8 248.5 105.1 248.5 103.6 247.9 102.4 246.7 101.4 245.6 100.8 244.2 100.8 242.5L100.8 232.3 103.3 232.3ZM129.8 244.3L122.9 244.3 121.1 248.2 118.5 248.2 126.5 231.3 134.2 248.2 131.5 248.2 129.8 244.3ZM128.8 242.1L126.5 236.7 123.9 242.1 128.8 242.1ZM143.1 232.3L143.1 245.9 147.8 245.9 147.8 248.2 140.6 248.2 140.6 232.3 143.1 232.3Z" transform="translate(-.009 -.341)"/>
  </g>
</svg>
