<svg width="183" height="244" viewBox="0 0 183 244" xmlns="http://www.w3.org/2000/svg">
  <defs>
    <filter x="-50%" y="-50%" width="200%" height="200%" filterUnits="objectBoundingBox" id="motto1-filter-1">
      <feMorphology radius="2" in="SourceAlpha" operator="dilate" result="shadowSpreadOuter1"/>
      <feOffset dx="4" dy="4" in="shadowSpreadOuter1" result="shadowOffsetOuter1"/>
      <feGaussianBlur stdDeviation="6" in="shadowOffsetOuter1" result="shadowBlurOuter1"/>
      <feColorMatrix values="0 0 0 0 0.777370323 0 0 0 0 0.777370323 0 0 0 0 0.777370323 0 0 0 0.7 0" in="shadowBlurOuter1" result="shadowMatrixOuter1"/>
      <feOffset dx="-4" dy="-4" in="SourceAlpha" result="shadowOffsetOuter2"/>
      <feGaussianBlur stdDeviation="6" in="shadowOffsetOuter2" result="shadowBlurOuter2"/>
      <feColorMatrix values="0 0 0 0 0.923044218 0 0 0 0 0.923044218 0 0 0 0 0.923044218 0 0 0 0.7 0" in="shadowBlurOuter2" result="shadowMatrixOuter2"/>
      <feMerge>
        <feMergeNode in="shadowMatrixOuter1"/>
        <feMergeNode in="shadowMatrixOuter2"/>
        <feMergeNode in="SourceGraphic"/>
      </feMerge>
    </filter>
    <linearGradient x1="50%" y1="0%" x2="50%" y2="100%" id="motto1-linearGradient-2">
      <stop stop-color="#F4FAFD" offset="0%"/>
      <stop stop-color="#E3ECF2" offset="100%"/>
    </linearGradient>
  </defs>
  <g id="motto1-Company" fill="none" fill-rule="evenodd">
    <path id="motto1-Rectangle-240" fill="#EBF4F8" d="M-502-256H938v1650H-502z"/>
    <g id="motto1-Group-Copy-2">
      <path id="motto1-Rectangle-52-Copy-33" fill="#2D2D2D" filter="url(#motto1-filter-1)" d="M0 .992h183v244H0z" transform="translate(0 -.992)"/>
      <path id="motto1-Rectangle-46-Copy-14" fill="url(#motto1-linearGradient-2)" d="M12 12.992h159v220H12z" transform="translate(0 -.992)"/>
      <path d="M6 6h171v232H6V6zm6 6h159v220H12V12z" id="motto1-Rectangle-52-Copy-25" fill="#FFF"/>
      <path d="M170 231h1V11H12v220h1V12h157v219z" id="motto1-Rectangle-52-Copy-26" fill="#E2EBF0"/>
      <path d="M125.49 143.41l-73.17-42.655v-20.15l73.17 42.656v20.15z" id="motto1-Polygon-185-Copy-24" fill="#FFF"/>
      <path d="M40.383 103.54l-.9.533c-.17-.29-.33-.482-.482-.57-.15-.102-.36-.153-.61-.153-.31 0-.56.087-.76.262-.2.17-.3.387-.3.647 0 .35.27.64.8.86l.74.3c.6.24 1.03.53 1.31.88.28.34.42.77.42 1.27 0 .67-.22 1.23-.67 1.67-.45.44-1.02.66-1.69.66-.63 0-1.16-.19-1.58-.57-.41-.38-.66-.91-.76-1.6l1.12-.25c.05.43.14.73.27.89.23.32.57.47 1 .47.35 0 .64-.12.87-.35.23-.24.34-.53.34-.88 0-.15-.02-.28-.06-.4-.04-.12-.1-.23-.18-.33-.09-.1-.2-.2-.33-.28-.13-.09-.29-.18-.48-.25l-.71-.3c-1-.43-1.51-1.05-1.51-1.87 0-.55.21-1.01.64-1.39.42-.37.95-.56 1.58-.56.85 0 1.51.41 1.99 1.24zm4.512-.052v6.303h-1.11v-6.3h-1.692v-1.04h4.49v1.04h-1.688zm5.985 3.173l2.28 3.13H51.8l-2.102-3h-.2v3.01h-1.11v-7.34h1.3c.973 0 1.675.19 2.107.55.477.41.715.94.715 1.61 0 .52-.15.97-.448 1.35-.298.38-.692.62-1.182.72zm-1.382-.84h.353c1.06 0 1.58-.4 1.58-1.2 0-.75-.51-1.13-1.53-1.13h-.4v2.33zm5.046.27c0-1.03.38-1.92 1.14-2.66.755-.74 1.664-1.11 2.725-1.11 1.04 0 1.94.38 2.69 1.12.75.75 1.13 1.65 1.13 2.7 0 1.06-.38 1.95-1.14 2.69-.76.74-1.68 1.11-2.75 1.11-.95 0-1.81-.32-2.56-.98-.83-.73-1.25-1.68-1.25-2.85zm1.12.02c0 .81.273 1.48.82 2.01.543.53 1.17.79 1.882.79.773 0 1.424-.26 1.955-.8.53-.53.8-1.19.8-1.96 0-.78-.26-1.44-.78-1.97s-1.16-.8-1.93-.8c-.76 0-1.41.27-1.94.8-.52.53-.79 1.18-.79 1.95zm8.782 3.69v-7.84l5.367 5.61v-5.1h1.11v7.8l-5.366-5.59v5.14h-1.11zm12.915-3.82h3.05v.25c0 .55-.06 1.04-.19 1.47-.12.4-.34.76-.64 1.11-.68.77-1.55 1.15-2.6 1.15-1.03 0-1.91-.37-2.64-1.11-.73-.74-1.1-1.64-1.1-2.68 0-1.07.38-1.97 1.12-2.71.75-.75 1.66-1.12 2.73-1.12.58 0 1.11.12 1.61.35.48.24.95.62 1.41 1.14l-.79.76c-.6-.8-1.34-1.2-2.21-1.2-.78 0-1.43.27-1.96.81-.52.53-.79 1.19-.79 1.98 0 .82.3 1.49.88 2.02.55.49 1.15.74 1.79.74.55 0 1.04-.18 1.48-.55.43-.37.68-.81.73-1.33H77.4V106zm8.71.12c0-1.03.38-1.92 1.14-2.66.76-.74 1.67-1.11 2.73-1.11 1.05 0 1.95.38 2.7 1.12.76.75 1.13 1.65 1.13 2.7 0 1.06-.38 1.96-1.13 2.69-.76.74-1.67 1.11-2.75 1.11-.95 0-1.8-.32-2.56-.98-.83-.72-1.25-1.68-1.25-2.85zm1.12.02c0 .81.28 1.48.82 2.01.55.53 1.18.79 1.89.79.77 0 1.43-.26 1.96-.8s.8-1.19.8-1.96c0-.78-.26-1.44-.78-1.97s-1.17-.8-1.93-.8-1.41.27-1.94.8c-.52.53-.79 1.18-.79 1.95zm9.9.71v2.98h-1.11v-7.34h1.26c.62 0 1.08.05 1.4.13.32.09.6.25.84.49.42.42.64.94.64 1.56 0 .68-.22 1.21-.67 1.6-.45.4-1.06.59-1.82.59h-.52zm0-1.03h.42c1.02 0 1.53-.39 1.53-1.17 0-.75-.52-1.13-1.58-1.13h-.36v2.31zm6.09-3.33v7.35h-1.11v-7.34h1.11zm2.58 7.35v-7.84l5.37 5.6v-5.1h1.11v7.79l-5.36-5.59v5.15h-1.11zm10.17-7.34v7.34h-1.11v-7.34h1.11zm2.22 3.64c0-1.03.38-1.92 1.14-2.66.76-.74 1.67-1.11 2.73-1.11 1.05 0 1.95.38 2.7 1.12.76.75 1.13 1.65 1.13 2.7 0 1.06-.37 1.95-1.13 2.69-.76.74-1.68 1.11-2.75 1.11-.95 0-1.8-.33-2.56-.98-.83-.72-1.25-1.67-1.25-2.85zm1.12.01c0 .81.28 1.48.82 2 .55.53 1.17.79 1.89.79.78 0 1.43-.26 1.96-.8s.8-1.19.8-1.97-.26-1.44-.79-1.97c-.52-.53-1.16-.8-1.93-.8-.76 0-1.41.27-1.94.8-.52.53-.79 1.18-.79 1.95zm8.79 3.69v-7.84l5.37 5.6v-5.1h1.11v7.79l-5.37-5.59v5.15h-1.11zm13.22-6.25l-.9.54c-.17-.29-.33-.48-.48-.57-.16-.1-.36-.15-.61-.15-.3 0-.56.09-.76.26-.2.17-.3.39-.3.65 0 .36.27.65.8.87l.74.3c.6.24 1.03.54 1.31.89s.42.77.42 1.28c0 .68-.224 1.23-.68 1.68-.45.44-1.02.67-1.69.67-.64 0-1.162-.19-1.58-.57-.41-.37-.67-.91-.77-1.59l1.13-.242c.05.43.14.73.27.89.228.32.56.478 1 .478.347 0 .63-.114.86-.345.23-.24.346-.53.346-.88 0-.15-.02-.28-.06-.4-.04-.12-.1-.23-.185-.33-.08-.1-.19-.196-.324-.28-.133-.09-.292-.174-.476-.25l-.71-.3c-1.01-.425-1.51-1.05-1.51-1.865 0-.55.21-1.01.63-1.38.42-.37.95-.56 1.58-.56.85 0 1.51.41 1.99 1.24zm2.8 4.88l.96.37-1.35 2.72-.72-.3 1.13-2.78zM55 117.3l1.915 4.91 2.002-5.264 1.916 5.265 2.036-4.9h1.2l-3.29 7.81-1.89-5.2-1.98 5.21-3.13-7.81H55zm14.863 1.04h-2.95v1.767h2.865v1.04H66.91v2.45h2.95v1.04H65.8v-7.34h4.06v1.04zm6.596 4.52h-3.15l-.82 1.785h-1.2l3.64-7.806 3.51 7.81h-1.22l-.78-1.78zm-.46-1.04l-1.09-2.496-1.15 2.497H76zm5.28-1.587l2.86-2.93h1.48l-3.32 3.327 3.34 4.02h-1.48l-2.65-3.27-.23.223v3.04h-1.11V117.3h1.11v2.93zm7.28-2.93v6.302h2.16v1.042h-3.27v-7.35h1.11zm4.89 4.17l-2.41-4.17h1.27l1.68 2.934 1.69-2.94h1.27l-2.42 4.17v3.174h-1.11v-3.17zm10.12-1.297h3.17v-2.873h1.11v7.344h-1.11v-3.43h-3.18v3.43h-1.11v-7.35h1.11v2.872zm10.92-1.832h-2.95v1.765h2.86v1.04h-2.87v2.46h2.95v1.04h-4.06v-7.35h4.06v1.04zm3.38-1.04v6.3h2.16v1.043h-3.28v-7.35h1.11zm4.03 7.343v-7.35h1.54c.74 0 1.32.07 1.75.217.46.145.88.388 1.25.73.76.69 1.14 1.6 1.14 2.726 0 1.13-.4 2.042-1.19 2.74-.4.348-.82.59-1.25.727-.41.138-.99.206-1.73.206h-1.53zm1.11-1.048h.5c.49 0 .91-.06 1.24-.16.33-.11.63-.29.89-.53.54-.5.82-1.15.82-1.95 0-.81-.27-1.46-.81-1.96-.49-.45-1.21-.67-2.15-.67h-.5v5.26z" id="STRONG-OPINIONS,-WEA-Copy-5" fill="#5889A2"/>
    </g>
  </g>
</svg>
