<svg width="183" height="245" viewBox="0 0 183 245" xmlns="http://www.w3.org/2000/svg">
  <defs>
    <filter x="-50%" y="-50%" width="200%" height="200%" filterUnits="objectBoundingBox" id="motto4-filter-1">
      <feMorphology radius="2" in="SourceAlpha" operator="dilate" result="shadowSpreadOuter1"/>
      <feOffset dx="4" dy="4" in="shadowSpreadOuter1" result="shadowOffsetOuter1"/>
      <feGaussianBlur stdDeviation="6" in="shadowOffsetOuter1" result="shadowBlurOuter1"/>
      <feColorMatrix values="0 0 0 0 0.777370323 0 0 0 0 0.777370323 0 0 0 0 0.777370323 0 0 0 0.7 0" in="shadowBlurOuter1" result="shadowMatrixOuter1"/>
      <feOffset dx="-4" dy="-4" in="SourceAlpha" result="shadowOffsetOuter2"/>
      <feGaussianBlur stdDeviation="6" in="shadowOffsetOuter2" result="shadowBlurOuter2"/>
      <feColorMatrix values="0 0 0 0 0.923044218 0 0 0 0 0.923044218 0 0 0 0 0.923044218 0 0 0 0.7 0" in="shadowBlurOuter2" result="shadowMatrixOuter2"/>
      <feMerge>
        <feMergeNode in="shadowMatrixOuter1"/>
        <feMergeNode in="shadowMatrixOuter2"/>
        <feMergeNode in="SourceGraphic"/>
      </feMerge>
    </filter>
    <linearGradient x1="50%" y1="0%" x2="50%" y2="100%" id="motto4-linearGradient-2">
      <stop stop-color="#F4FAFD" offset="0%"/>
      <stop stop-color="#E3ECF2" offset="100%"/>
    </linearGradient>
  </defs>
  <g id="motto4-Company" fill="none" fill-rule="evenodd">
    <path id="motto4-Rectangle-240" fill="#EBF4F8" d="M-751-1289H689V361H-751z"/>
    <g id="motto4-Group-Copy-3">
      <path id="motto4-Rectangle-52-Copy-33" fill="#2D2D2D" filter="url(#motto4-filter-1)" d="M.88.5h182.927v243.902H.88z" transform="translate(-1)"/>
      <path id="motto4-Rectangle-46-Copy-14" fill="url(#motto4-linearGradient-2)" d="M13.075 12.695h158.537v219.512H13.075z" transform="translate(-1)"/>
      <path d="M5.978 6.598h170.73v231.707H5.98V6.598zm6.097 6.097h158.537v219.512H12.075V12.695z" id="motto4-Rectangle-52-Copy-25" fill="#FFF"/>
      <path d="M169.41 231.598h1.202V12.085H12.075v219.513h1.2V13.258H169.41v218.34z" id="motto4-Rectangle-52-Copy-26" fill="#E2EBF0"/>
      <path d="M125.49 144.402l-73.17-42.655v-20.15l73.17 42.656v20.15z" id="motto4-Polygon-185-Copy-24" fill="#FFF"/>
    </g>
    <path d="M34 120.722v-9.043h1.36c.604 0 1.086.04 1.445.14.363.09.67.25.92.47.253.23.455.52.603.86.152.35.228.7.228 1.05 0 .64-.248 1.19-.743 1.64.48.16.858.45 1.136.86.28.4.42.88.42 1.42 0 .7-.25 1.3-.75 1.79-.3.3-.64.51-1.02.63-.41.11-.93.17-1.54.17H34zm1.365-5.16h.427c.508 0 .88-.112 1.116-.337.236-.224.354-.555.354-.992 0-.426-.12-.75-.363-.97-.25-.22-.6-.33-1.06-.33h-.48v2.63zm0 3.877h.843c.617 0 1.07-.13 1.36-.37.303-.26.455-.6.455-1 0-.39-.146-.72-.44-.99-.284-.26-.793-.4-1.527-.4h-.69v2.73zm11.716-6.48h-3.62v2.17h3.52v1.28h-3.52v3.02h3.63v1.28H42.1v-9.05h4.99v1.28zm12.81 5.56h-3.87l-1.01 2.19h-1.47l4.48-9.61 4.32 9.61h-1.5l-.95-2.2zm-.55-1.29L58 114.16l-1.408 3.075h2.747zm16.51-5.08v1.61c-.78-.66-1.6-.99-2.44-.99-.93 0-1.71.33-2.35 1-.64.66-.96 1.47-.96 2.43 0 .95.32 1.75.96 2.4.64.65 1.43.98 2.36.98.48 0 .89-.08 1.23-.24.19-.08.38-.19.59-.32.2-.13.42-.29.64-.48v1.64c-.78.44-1.6.66-2.46.66-1.29 0-2.39-.45-3.302-1.35-.91-.91-1.364-2.01-1.364-3.29 0-1.15.38-2.18 1.143-3.08.935-1.11 2.15-1.66 3.635-1.66.81 0 1.6.22 2.35.66zm5.79 4.7l2.8 3.85h-1.67l-2.58-3.7h-.24v3.7h-1.37v-9.05h1.6c1.2 0 2.06.22 2.59.67.59.5.88 1.16.88 1.98 0 .64-.18 1.19-.55 1.65-.37.46-.85.76-1.45.89zm-1.7-1.04h.44c1.3 0 1.94-.5 1.94-1.48 0-.93-.63-1.39-1.88-1.39h-.48v2.87zm12.17 2.69h-3.88l-1 2.19h-1.47l4.48-9.61 4.32 9.61h-1.5l-.95-2.2zm-.55-1.28l-1.34-3.08-1.4 3.07h2.75zm9.65-4.28h-3.15v2.17h3.04v1.28h-3.04v4.3h-1.37v-9.04h4.52v1.28zm5.08 0v7.76h-1.37v-7.76h-2.08v-1.29h5.52v1.28h-2.07zm9.4.06l-1.11.65c-.2-.36-.4-.59-.59-.7-.19-.13-.45-.19-.75-.19-.38 0-.69.11-.94.32-.25.21-.372.47-.372.79 0 .44.33.8.984 1.07l.906.37c.733.3 1.27.66 1.61 1.09.34.43.51.95.51 1.57 0 .83-.278 1.52-.83 2.06-.56.543-1.25.82-2.08.82-.786 0-1.434-.236-1.945-.7-.505-.47-.82-1.12-.94-1.968l1.38-.31c.06.53.17.9.32 1.1.28.39.69.59 1.23.59.42 0 .78-.15 1.06-.43.28-.29.42-.65.42-1.087 0-.176-.03-.337-.077-.483-.046-.142-.123-.28-.226-.4-.104-.12-.24-.235-.4-.343-.166-.108-.36-.21-.59-.308l-.87-.36c-1.24-.526-1.856-1.29-1.856-2.298 0-.68.26-1.25.78-1.708.52-.46 1.16-.69 1.934-.69 1.04 0 1.86.505 2.44 1.52zm2.56 7.69l1.91-9.72 3.11 7.03 3.21-7.03 1.71 9.72h-1.4l-.872-5.46-2.673 5.88-2.6-5.88-.975 5.46h-1.41zm17.84-7.76h-3.62v2.17h3.52v1.28h-3.52v3.02h3.63v1.28h-4.99v-9.043h4.99v1.283zm2.79 7.76v-9.66l6.6 6.9v-6.29h1.37v9.59l-6.595-6.88v6.33h-1.37z" id="motto4-BE-A-CRAFTSMEN" fill="#53829A"/>
  </g>
</svg>
