<svg width="183" height="245" viewBox="0 0 183 245" xmlns="http://www.w3.org/2000/svg">
  <defs>
    <filter x="-50%" y="-50%" width="200%" height="200%" filterUnits="objectBoundingBox" id="motto2-filter-1">
      <feMorphology radius="2" in="SourceAlpha" operator="dilate" result="shadowSpreadOuter1"/>
      <feOffset dx="4" dy="4" in="shadowSpreadOuter1" result="shadowOffsetOuter1"/>
      <feGaussianBlur stdDeviation="6" in="shadowOffsetOuter1" result="shadowBlurOuter1"/>
      <feColorMatrix values="0 0 0 0 0.777370323 0 0 0 0 0.777370323 0 0 0 0 0.777370323 0 0 0 0.7 0" in="shadowBlurOuter1" result="shadowMatrixOuter1"/>
      <feOffset dx="-4" dy="-4" in="SourceAlpha" result="shadowOffsetOuter2"/>
      <feGaussianBlur stdDeviation="6" in="shadowOffsetOuter2" result="shadowBlurOuter2"/>
      <feColorMatrix values="0 0 0 0 0.923044218 0 0 0 0 0.923044218 0 0 0 0 0.923044218 0 0 0 0.7 0" in="shadowBlurOuter2" result="shadowMatrixOuter2"/>
      <feMerge>
        <feMergeNode in="shadowMatrixOuter1"/>
        <feMergeNode in="shadowMatrixOuter2"/>
        <feMergeNode in="SourceGraphic"/>
      </feMerge>
    </filter>
    <linearGradient x1="50%" y1="0%" x2="50%" y2="100%" id="motto2-linearGradient-2">
      <stop stop-color="#79A5BC" offset="0%"/>
      <stop stop-color="#5889A2" offset="100%"/>
    </linearGradient>
    <linearGradient x1="51.823%" y1=".707%" x2="51.823%" y2="99.438%" id="motto2-linearGradient-3">
      <stop stop-color="#09DFF3" offset="0%"/>
      <stop stop-color="#44BEFF" offset="100%"/>
    </linearGradient>
  </defs>
  <g id="motto2-Company" fill="none" fill-rule="evenodd">
    <path id="motto2-Rectangle-240" fill="#EBF4F8" d="M-750-601H690v1650H-750z"/>
    <g id="motto2-Group-Copy">
      <path id="motto2-Rectangle-52-Copy-27" fill="#2D2D2D" filter="url(#motto2-filter-1)" d="M0 .992h183v244H0z" transform="translate(0 -.992)"/>
      <path id="motto2-Rectangle-46-Copy-15" fill="url(#motto2-linearGradient-2)" d="M12 12.992h159v220H12z" transform="translate(0 -.992)"/>
      <path d="M6 6h171v232H6V6zm6 6h159v220H12V12z" id="motto2-Rectangle-52-Copy-28" fill="#FFF"/>
      <path d="M130.003 146.232l-73.17-42.655v-20.15l73.17 42.655v20.15z" id="motto2-Polygon-185-Copy-30" fill="url(#motto2-linearGradient-3)" transform="translate(0 -.992)"/>
      <path d="M170.006 232H171V12H12v220h.994V13.004h157.012V232z" id="motto2-Rectangle-52-Copy-29" fill="#528099"/>
      <path d="M43.918 111.517h3.174v-2.958h1.11v7.56h-1.11v-3.53h-3.174v3.53h-1.11v-7.56h1.11v2.95zm6.493.79c0-1.066.38-1.98 1.14-2.744.76-.764 1.67-1.146 2.73-1.146 1.05 0 1.95.385 2.7 1.156.76.77 1.13 1.696 1.13 2.777 0 1.087-.38 2.01-1.13 2.767-.76.76-1.67 1.14-2.75 1.14-.95 0-1.8-.337-2.56-1.013-.83-.748-1.25-1.727-1.25-2.938zm1.12.013c0 .836.28 1.523.82 2.062.55.54 1.17.808 1.89.808.77 0 1.43-.274 1.96-.823.53-.555.8-1.23.8-2.027 0-.807-.26-1.483-.78-2.028-.52-.548-1.17-.823-1.93-.823s-1.41.27-1.94.82c-.53.54-.79 1.21-.79 2.01zm8.78 3.8v-8.075l5.37 5.77v-5.256h1.11v8.02l-5.36-5.76v5.29h-1.11zm13.11-6.49h-2.95v1.818h2.87v1.073h-2.87v2.53h2.95v1.08h-4.06v-7.56h4.06v1.07zm7.59 3.224l-2.41-4.294h1.28l1.68 3.02 1.69-3.02h1.28l-2.41 4.294v3.267h-1.11v-3.26zm4.45-.548c0-1.065.38-1.98 1.14-2.743.76-.764 1.67-1.146 2.73-1.146 1.05 0 1.95.385 2.7 1.156.76.77 1.13 1.696 1.13 2.777 0 1.087-.38 2.01-1.13 2.767-.76.76-1.67 1.14-2.75 1.14-.95 0-1.8-.337-2.56-1.013-.83-.748-1.24-1.727-1.24-2.938zm1.12.014c0 .836.27 1.523.82 2.062.54.54 1.17.808 1.88.808.78 0 1.43-.274 1.96-.823.53-.555.8-1.23.8-2.027 0-.807-.26-1.483-.78-2.028-.52-.548-1.16-.823-1.93-.823s-1.41.27-1.94.82c-.53.54-.79 1.21-.79 2.01zm9.89-3.76v4.554c0 .65.1 1.124.31 1.425.31.43.74.65 1.3.65s1-.22 1.31-.65c.21-.3.31-.77.31-1.43v-4.56h1.11v4.86c0 .79-.24 1.45-.72 1.97-.54.57-1.21.86-2 .86s-1.45-.29-1.99-.86c-.48-.52-.72-1.18-.72-1.97v-4.87h1.11zm9.41 4.338l2.28 3.223h-1.36l-2.1-3.09h-.2v3.1h-1.11v-7.56h1.3c.98 0 1.68.19 2.11.56.48.42.72.97.72 1.66 0 .54-.15 1-.45 1.38-.29.39-.69.63-1.18.74zm-1.38-.867h.35c1.05 0 1.58-.41 1.58-1.23 0-.77-.51-1.16-1.53-1.16h-.39v2.4zm13.56-2.34l-.9.55c-.17-.3-.33-.49-.48-.59-.16-.1-.36-.15-.61-.15-.31 0-.56.09-.76.27-.2.18-.3.4-.3.67 0 .37.27.67.8.89l.738.31c.598.25 1.034.55 1.31.91.277.36.415.8.415 1.32 0 .7-.223 1.27-.674 1.73-.456.46-1.02.69-1.69.69-.64 0-1.17-.19-1.586-.58-.41-.39-.665-.93-.77-1.64l1.127-.25c.05.45.14.75.27.92.23.33.568.49 1 .49.35 0 .64-.12.868-.35.23-.24.34-.54.34-.903 0-.15-.02-.282-.06-.404-.04-.124-.1-.236-.183-.34-.08-.104-.19-.2-.322-.29-.134-.09-.29-.176-.477-.26l-.71-.3c-1.006-.433-1.51-1.073-1.51-1.92 0-.563.21-1.04.635-1.42.42-.387.95-.58 1.578-.58.85 0 1.51.424 1.99 1.273zm3.46 1.89l2.87-3.01h1.48l-3.33 3.43 3.35 4.14h-1.49l-2.65-3.36-.23.24v3.13h-1.11v-7.56h1.11v3.02zm7.28-3.01v7.56h-1.11v-7.56h1.11zm3.69 0v6.49h2.17v1.07h-3.27v-7.56h1.11zm5.14 0v6.49h2.17v1.07h-3.28v-7.56h1.11zm8.22 1.13l-.9.55c-.16-.3-.33-.49-.48-.59-.16-.1-.36-.15-.61-.15-.31 0-.56.09-.77.27-.2.18-.3.4-.3.67 0 .37.27.67.8.89l.74.31c.6.25 1.035.55 1.31.91.278.36.416.8.416 1.32 0 .7-.23 1.27-.68 1.73-.454.46-1.02.69-1.69.69-.64 0-1.166-.19-1.58-.58-.41-.39-.67-.93-.77-1.64l1.125-.25c.05.44.14.75.27.92.227.326.56.49 1 .49.345 0 .633-.12.86-.36.23-.24.344-.54.344-.91 0-.15-.02-.28-.06-.402-.04-.12-.1-.233-.186-.34-.083-.1-.192-.2-.325-.29-.13-.09-.29-.17-.48-.252l-.71-.3c-1.002-.44-1.51-1.08-1.51-1.92 0-.57.21-1.042.638-1.424.42-.39.95-.58 1.578-.58.85 0 1.51.42 1.99 1.27z" id="motto2-HONE-YOUR-SKILLS-Copy-7" fill="#FFF"/>
    </g>
  </g>
</svg>
