<svg width="183" height="245" viewBox="0 0 183 245" xmlns="http://www.w3.org/2000/svg"><defs><filter x="-50%" y="-50%" width="200%" height="200%" filterUnits="objectBoundingBox" id="a"><feMorphology radius="2" in="SourceAlpha" operator="dilate" result="shadowSpreadOuter1"/><feOffset dx="4" dy="4" in="shadowSpreadOuter1" result="shadowOffsetOuter1"/><feGaussianBlur stdDeviation="6" in="shadowOffsetOuter1" result="shadowBlurOuter1"/><feColorMatrix values="0 0 0 0 0.777370323 0 0 0 0 0.777370323 0 0 0 0 0.777370323 0 0 0 0.7 0" in="shadowBlurOuter1" result="shadowMatrixOuter1"/><feOffset dx="-4" dy="-4" in="SourceAlpha" result="shadowOffsetOuter2"/><feGaussianBlur stdDeviation="6" in="shadowOffsetOuter2" result="shadowBlurOuter2"/><feColorMatrix values="0 0 0 0 0.923044218 0 0 0 0 0.923044218 0 0 0 0 0.923044218 0 0 0 0.7 0" in="shadowBlurOuter2" result="shadowMatrixOuter2"/><feMerge><feMergeNode in="shadowMatrixOuter1"/><feMergeNode in="shadowMatrixOuter2"/><feMergeNode in="SourceGraphic"/></feMerge></filter><linearGradient x1="50%" y1="0%" x2="50%" y2="100%" id="b"><stop stop-color="#F4FAFD" offset="0%"/><stop stop-color="#E3ECF2" offset="100%"/></linearGradient></defs><g fill="none" fill-rule="evenodd"><path fill="#EBF4F8" d="M-751-1289H689V361H-751z"/><path fill="#2D2D2D" filter="url(#a)" d="M.88.5h182.927v243.902H.88z" transform="translate(-1)"/><path fill="url(#b)" d="M13.075 12.695h158.537v219.512H13.075z" transform="translate(-1)"/><path d="M5.978 6.598h170.73v231.707H5.98V6.598zm6.097 6.097h158.537v219.512H12.075V12.695z" fill="#FFF"/><path d="M169.41 231.598h1.202V12.085H12.075v219.513h1.2V13.258H169.41v218.34z" fill="#E2EBF0"/><path d="M125.49 144.402l-73.17-42.655v-20.15l73.17 42.656v20.15z" fill="#FFF"/><path d="M40.054 110.29v3.25h.312c.676 0 1.196-.113 1.56-.338.364-.225.546-.66.546-1.3 0-.633-.18-1.06-.54-1.28-.36-.222-.873-.332-1.54-.332h-.338zm0 4.225v3.393h.936c1.543 0 2.314-.576 2.314-1.73 0-.328-.076-.608-.227-.837-.152-.23-.358-.4-.618-.51-.26-.11-.53-.19-.8-.24-.27-.05-.56-.07-.86-.07h-.76zM38.832 119v-9.802h1.196c.503 0 .953.04 1.352.117.4.078.773.21 1.125.397.35.186.623.463.818.83.196.37.293.818.293 1.347 0 .37-.095.73-.286 1.09-.19.36-.446.61-.767.76v.02c.563.1 1.03.39 1.404.87.373.48.56 1.01.56 1.6 0 .92-.33 1.6-.99 2.06-.658.45-1.464.68-2.417.68h-2.288zm7.71 0v-9.802h5.264v1.118h-4.043v2.743h3.926v1.11h-3.93v3.7h4.04V119h-5.26zm17.718-2.457h-4.498L58.644 119H57.33l4.68-10.218L66.69 119h-1.31l-1.118-2.457zm-.507-1.118l-1.742-3.965-1.74 3.965h3.49zm15.95-5.772v1.417c-.718-.64-1.58-.962-2.586-.962-1.083 0-2 .392-2.75 1.176-.75.785-1.124 1.727-1.124 2.828 0 1.083.37 2.017 1.112 2.8.74.786 1.653 1.178 2.736 1.178.99 0 1.86-.338 2.62-1.014v1.443c-.78.45-1.64.68-2.57.68-1.4 0-2.6-.49-3.6-1.47s-1.5-2.18-1.5-3.59c0-1.45.51-2.67 1.53-3.67s2.25-1.5 3.69-1.5c.93 0 1.75.22 2.47.66zm5.11 5.083L87.907 119h-1.482l-2.886-4.147h-.51V119h-1.22v-9.802h1.48c.37 0 .67.006.9.02.23.012.5.054.83.123.32.07.61.18.85.32.4.24.71.57.94.99.23.43.34.88.34 1.36 0 .71-.22 1.33-.65 1.84-.44.52-1 .82-1.71.91zm-1.78-4.446v3.55h.39c.354 0 .668-.023.942-.066.273-.043.543-.124.812-.24.27-.117.477-.302.624-.553.15-.25.23-.56.23-.93 0-1.17-.89-1.75-2.66-1.75h-.32zm12.375 6.253H90.91L89.792 119H88.48l4.68-10.218L97.84 119h-1.314l-1.118-2.457zm-.507-1.118l-1.74-3.965-1.74 3.965h3.48zm9.14-5.11h-3.52v2.757h3.41v1.118h-3.4V119H99.3v-9.802h4.745v1.118zm4.72 0V119h-1.22v-8.684h-2.32v-1.118h5.88v1.118h-2.32zm9.27.157l-.97.585c-.36-.615-.89-.923-1.57-.923-.41 0-.79.13-1.13.39-.34.26-.5.594-.5 1 0 .59.46 1.058 1.37 1.405l.71.27c.78.3 1.38.68 1.8 1.13.42.45.63 1.06.63 1.82 0 .88-.3 1.61-.9 2.19-.6.58-1.342.86-2.23.86-.79 0-1.46-.26-2.03-.78-.56-.52-.9-1.18-1-1.97l1.24-.26c-.01.53.17.97.54 1.32.367.35.82.53 1.357.53.52 0 .956-.19 1.3-.57.34-.38.512-.83.512-1.35 0-.48-.15-.855-.45-1.127-.3-.273-.71-.52-1.24-.735l-.68-.29c-.668-.285-1.19-.614-1.567-.987-.376-.38-.564-.87-.564-1.5 0-.767.282-1.38.86-1.84.57-.467 1.242-.7 2.022-.7 1.125 0 1.965.494 2.52 1.48zm6.91 8.736l-2.94-6.682h-.02L120.83 119h-1.26l2-10.218 3.37 7.722 3.37-7.722 2 10.218h-1.26l-1.147-6.474h-.026l-2.94 6.682zm13-2.665h-4.49L132.32 119h-1.314l4.68-10.218 4.68 10.218h-1.313l-1.12-2.457zm-.5-1.118l-1.74-3.965-1.74 3.965h3.49zm4.29 3.575v-10.27l7.36 7.71v-7.242h1.23v10.205l-7.36-7.71V119h-1.22z" fill="#5A89A1"/></g></svg>