<svg xmlns="http://www.w3.org/2000/svg" viewBox="0 0 200 200" xmlns:xlink="http://www.w3.org/1999/xlink">
  <defs>
    <ellipse id="a" cx="99.94" cy="100.27" rx="99.94" ry="99.6"/>
  </defs>
  <g fill="none" fill-rule="evenodd">
    <g transform="translate(0 .098)">
      <mask id="b" fill="#fff">
        <use xlink:href="#a"/>
      </mask>
      <use fill="#EBF5FA" xlink:href="#a"/>
      <path fill="#555" d="M-.33 173h199.87v26.68H-.33z" mask="url(#b)"/>
    </g>
    <path fill="#476B7E" d="M144.3 115.26l9.42 5.34c.68.38 1.27 1.33 1.33 2.1l2.3 31.13c.23 3.1-2.07 6.06-5.15 6.58l-5.93 1.1-1.98-46.1z"/>
    <path fill="#333" d="M144.17 127.08h11.27l.02 1.7h-11.3v-1.7z"/>
    <path fill="#F9BA37" d="M155.75 127.08l.28 3.96h-1.13l.28-3.96h.57z"/>
    <path fill="#476B7E" d="M55.7 115.26l-9.42 5.34c-.68.38-1.27 1.33-1.33 2.1l-2.3 31.13c-.23 3.1 2.07 6.06 5.15 6.58l5.93 1.1 1.98-46.1z"/>
    <path fill="#333" d="M55.83 127.08H44.56l-.02 1.7h11.3v-1.7z"/>
    <path fill="#F9BA37" d="M44.25 127.08l-.28 3.96h1.13l-.28-3.96h-.57zM100 54.26c6.86 0 12.56-4.57 12.56-10.44 0-5.87-5.7-10.45-12.56-10.45-6.85 0-12.55 4.58-12.55 10.45 0 5.87 5.7 10.44 12.55 10.44zm-8.26-10.44c0-3.6 1.64-10 8.26-10 6.63 0 8.27 6.4 8.27 10 0 3.6-3.3 6.7-8.27 6.7-4.95 0-8.26-3.1-8.26-6.7z"/>
    <path fill="#5A89A1" d="M56.2 68.6c.66-15.57 13.84-28.2 29.42-28.2h28.76c15.6 0 28.76 12.63 29.43 28.2l4 93.2c.3 6.24-4.5 11.3-10.8 11.3H63.1c-6.23 0-11.07-5.06-10.8-11.3l3.96-93.2z"/>
    <path fill="#50788E" d="M52.78 148.97h94.46l.54 12.84c.26 6.3-4.58 11.3-10.82 11.3H63.04c-6.23 0-11.07-5-10.8-11.3l.54-12.8zm7.4-80.44C58.86 53 70.42 40.4 86 40.4h28c15.58 0 27.15 12.6 25.83 28.13l-3 35.4c-.15 1.56-1.52 2.82-3.08 2.82h-67.5c-1.56 0-2.93-1.26-3.06-2.8l-3.1-35.42z"/>
    <path fill="#476B7E" d="M61.4 136.5c.04-.77.68-1.4 1.47-1.4h74c.77 0 1.42.63 1.45 1.4l.75 19.56c.18 4.67-3.46 8.46-8.14 8.46H69.08c-4.68 0-8.36-3.8-8.23-8.46l.56-19.55z"/>
    <path fill="#333" d="M61.3 140.35h77.18l.04 1.8H61.25l.06-1.8z"/>
    <path fill="#476B7E" d="M73.28 98.9h6.63V114h-6.6zm0 16.3h6.63v1.2l-6.6 2.4v-3.6z"/>
    <path fill="#F9BA37" d="M72.07 109.77h1.2v5.43h-1.2zm3.93 1.8h1.2v3.03H76zm3.9-1.8h1.2l.02 5.43H79.9z"/>
    <path fill="#F9BA37" d="M72.07 114h9.05v1.2h-9.05z"/>
    <path fill="#476B7E" d="M127.34 115.2h-6.64v1.2l6.64 2.4v-3.6zm-6.64-16.3h6.63V114h-6.63z"/>
    <path fill="#F9BA37" d="M119.5 109.77h1.2v5.43h-1.2zm3.9 1.8h1.22v3.03h-1.2zm3.93-1.8h1.2v5.43h-1.2z"/>
    <path fill="#F9BA37" d="M119.5 114h9.04v1.2h-9.05zm-53.8 26.35h1.7l.85 4.52h-3.4l.86-4.52zm.3 2.54h1.12l.56 1.4h-2.26l.57-1.4z"/>
    <path fill="#000" d="M83.2 151.63c-.1-.22-.3-.43-.5-.57-.25-.16-.5-.22-.8-.22-.84 0-1.44.52-1.44 1.3 0 .4.13.63.35.84.3.22.5.33.7.42l.5.22c.3.12.5.2.6.35.2.17.3.36.3.6 0 .5-.3 1-1 1-.2 0-.5-.06-.7-.28-.1-.2-.2-.4-.3-.7l-.5.1c.1.3.2.6.5.9.4.3.8.4 1.1.4 1 0 1.6-.6 1.6-1.6 0-.4-.1-.7-.3-.9-.2-.3-.5-.4-.8-.5l-.5-.2c-.2-.1-.3-.2-.5-.4s-.2-.3-.2-.5c0-.5.4-.8.9-.8.3 0 .5.1.6.2.1 0 .25.2.3.3l.47-.3zm2.37-.7H85v3.27c0 .42.05.84.32 1.22.3.42.84.7 1.5.7.64 0 1.18-.28 1.48-.7.28-.38.32-.8.32-1.22v-3.28h-.56v3.12c0 .43 0 .9-.4 1.24-.2.18-.56.3-.85.3-.2 0-.6-.12-.8-.3-.4-.34-.4-.8-.4-1.24v-3.12zm4.94 0V156h1.3c.4 0 .8 0 1.2-.32.3-.22.6-.6.6-1.1 0-.5-.2-1.1-.9-1.28.5-.3.5-.75.5-1 0-.62-.3-.94-.4-1.06-.3-.3-.9-.32-1.1-.32h-.9zm.6.52h.5c.2 0 1 .02 1 .86 0 .8-.7.9-1 .9h-.4v-1.7zm0 2.2h.6c.4 0 .7.06.9.16.2.2.5.4.5.8 0 .3-.1.6-.3.7-.2.2-.5.2-.9.2h-.6v-1.8zm3.5-2.73l2.1 5.4 2.1-5.4h-.6l-1.4 3.9-1.4-3.9h-.6zm5.4 0v5.1h.6v-5.1h-.6zm5.2.7c-.1-.2-.3-.42-.5-.56-.2-.16-.5-.22-.8-.22-.8 0-1.4.52-1.4 1.3 0 .4.2.63.4.84.3.22.5.33.7.42l.5.22c.3.12.5.2.6.35.2.17.3.36.3.6 0 .5-.3 1-1 1-.2 0-.5-.06-.7-.28-.1-.2-.2-.4-.3-.7l-.5.1c.1.3.2.6.5.9.38.3.8.4 1.1.4.95 0 1.65-.6 1.65-1.6 0-.4-.1-.7-.4-.9-.2-.3-.5-.4-.8-.5l-.5-.2c-.2-.1-.4-.2-.52-.4-.15-.2-.2-.3-.2-.5 0-.5.35-.8.85-.8.3 0 .5.1.6.2.1 0 .28.2.3.3l.5-.3zm2.4-.7h-.6v3.28c0 .42.1.84.3 1.22.3.42.9.7 1.5.7s1.2-.28 1.5-.7c.3-.38.3-.8.3-1.22v-3.28h-.6v3.12c0 .43 0 .9-.4 1.24-.2.18-.6.3-.9.3-.3 0-.6-.12-.8-.3-.4-.34-.4-.8-.4-1.24v-3.12zm8.4 5.1h.7l-2.3-5.34L112 156h.6l.6-1.4h2.2l.6 1.5zm-2.5-1.98l.9-2.04.9 2.04h-1.7zm4.5-3.12v5.1h2v-.54h-1.4v-4.56h-.6z" opacity=".2"/>
    <path fill="#000" d="M92.9 67l7.07-3.97 7 4v4.15l-7-4.17-3.4 2 1.27-.7L92.9 67zm0 0v4.17V67zm9.36 11.74l-2.24 1.36v.02l-7.07-4.17v4.17l7.07 3.98 7.02-4.12-4.78-1.24zm4.78 1.23l-14.14-8.8V67l14.14 8.8v4.17z" opacity=".15"/>
  </g>
</svg>
