<svg xmlns="http://www.w3.org/2000/svg" viewBox="0 0 200 200" xmlns:xlink="http://www.w3.org/1999/xlink"><defs><ellipse id="educators-path-1" cx="99.94" cy="100.27" rx="99.94" ry="99.6"/><path id="educators-path-3" d="M0 .27h42.17v50.1H0z"/></defs><g id="Page-1" fill="none" fill-rule="evenodd"><g id="Values"><g><mask id="educators-mask-2" fill="#fff"><use xlink:href="#educators-path-1"/></mask><use fill="#EBF5FA" xlink:href="#educators-path-1"/><path fill="#555" d="M-.33 173h199.87v26.68H-.33z" mask="url(#educators-mask-2)"/><g mask="url(#educators-mask-2)"><g transform="translate(28.806 40)"><path id="Shape-Copy-4" fill="#000" fill-opacity=".05" d="M73.33 95.94c2.7 0 4.9-2.18 4.9-4.88 0-2.7-2.2-4.9-4.9-4.9s-4.9 2.2-4.9 4.9 2.2 4.88 4.9 4.88zm0 7.86v-6.63c-3.37 0-6.1-2.74-6.1-6.1 0-3.4 2.73-6.13 6.1-6.13 3.38 0 6.1 2.74 6.1 6.12 0 2.5-1.5 4.66-3.65 5.6v7.14c1.08.47 1.83 1.55 1.83 2.8 0 1.7-1.34 3.06-3.02 3.06-1.7 0-3.06-1.37-3.06-3.06 0-1.25.76-2.33 1.84-2.8z"/><path id="Rectangle-1322" fill="#000" fill-opacity=".05" d="M139.94 4.9H5.5v87.38h135.67V7.94h1.22V1.22h-2.48V4.9z"/><path id="Shape-Copy-3" fill="#5A89A1" d="M70.9 92.9c2.7 0 4.88-2.2 4.88-4.9s-2.2-4.9-4.9-4.9S66 85.3 66 88s2.2 4.9 4.9 4.9zm0 1.2c-3.4 0-6.12-2.72-6.12-6.1 0-3.38 2.73-6.1 6.1-6.1 3.4 0 6.12 2.7 6.12 6.1 0 3.38-2.74 6.1-6.1 6.1z"/><path id="Rectangle-1130-Copy-6" fill="#5A89A1" d="M.6.27h140.57v6.1H.6z"/><path id="Rectangle-1130-Copy-7" fill="#5A89A1" d="M3.67 85.83H138.1v3.06H3.68z"/><path id="Rectangle-1130-Copy-8" fill="#FFF" d="M3.67 6.38H138.1v79.44H3.68z"/><path id="Rectangle-1133-Copy-2" fill="#5A89A1" d="M69.67 93.77h2.44v7.94h-2.4z"/><circle cx="70.89" cy="104.16" r="3.06" fill="#5A89A1"/><path id="Rectangle-1134-Copy-15" fill="#22D1F8" d="M12.83 21.66H77.6v1.22H12.84z"/><path id="Rectangle-1134-Copy-16" fill="#22D1F8" d="M12.83 31.17H77.6v1.22H12.84z"/><path id="Rectangle-1134-Copy-17" fill="#22D1F8" d="M12.83 40.94H77.6v1.22H12.84z"/><path id="Rectangle-1134-Copy-18" fill="#22D1F8" d="M12.83 50.72H77.6v1.22H12.84z"/><path id="Rectangle-1134-Copy-19" fill="#22D1F8" d="M12.83 60.5H77.6v1.22H12.84z"/><path id="Rectangle-1134-Copy-20" fill="#22D1F8" d="M12.83 70.55H77.6v1.22H12.84z"/><g transform="translate(86.778 21.389)"><mask id="educators-mask-4" fill="#fff"><use xlink:href="#educators-path-3"/></mask><use fill="#EDF4F8" xlink:href="#educators-path-3"/><path fill="#5A89A1" d="M-.47 25.93L3.5 23.8l2.75.56 5.5-5.3 3.34 2.97 3.46-1.5 8.8 4.93 5.8-3.64 4.02 1.3 5.15-5.16.78 32.52-23.8 2.02-21.75-1.58-.42-20.5 2.37-4.5z" mask="url(#educators-mask-4)"/></g><circle cx="94.72" cy="29.33" r="3.06" fill="#F9BA37"/></g></g></g></g></g></svg>
