<svg xmlns="http://www.w3.org/2000/svg" viewBox="0 0 200 200" xmlns:xlink="http://www.w3.org/1999/xlink">
  <defs>
    <ellipse id="a" cx="99.94" cy="100.27" rx="99.94" ry="99.6"/>
    <linearGradient id="c" x1="50%" x2="50%" y1="0%" y2="100%">
      <stop stop-color="#FFF" stop-opacity=".3" offset="0%"/>
      <stop stop-color="#FFF" stop-opacity=".8" offset="100%"/>
    </linearGradient>
    <filter id="d" width="200%" height="200%" x="-50%" y="-50%" filterUnits="objectBoundingBox">
      <feGaussianBlur stdDeviation="3 0" in="SourceGraphic" result="blur"/>
    </filter>
  </defs>
  <g fill="none" fill-rule="evenodd" transform="translate(0 -.402)">
    <mask id="b" fill="#fff">
      <use xlink:href="#a"/>
    </mask>
    <use fill="#EBF5FA" xlink:href="#a"/>
    <path fill="#555" d="M-0.33 173H199.54V199.68H-0.33z" mask="url(#b)"/>
    <g mask="url(#b)">
      <path fill="url(#c)" d="M33.6448598,0 L100.934579,0 L134.579439,180 L0,180 L33.6448598,0 Z" filter="url(#d)" transform="translate(32.71 -7)"/>
      <g fill="#333">
        <path d="M13.6596596,1.01126642 C14.071719,0.272250462 14.9857701,0.0199037178 15.6980064,0.445695085 L15.6980064,0.445695085 C16.4116948,0.872354618 16.6554364,1.81871505 16.2441542,2.55633726 L11.3413875,11.3493004 C10.9293281,12.0883163 10.015277,12.3406631 9.30304071,11.9148717 L9.30304071,11.9148717 C8.58935224,11.4882122 8.34561065,10.5418517 8.7568929,9.80422951 L13.6596596,1.01126642 L13.6596596,1.01126642 Z" transform="translate(69.439 33.902)"/>
        <path d="M1.57230879,27.0349265 L10.5252607,11.1427693 L10.8530375,10.560941 L9.68759068,9.9063943 L9.35981386,10.4882226 L0.40686194,26.3803799 L0.0790851169,26.9622082 L1.24453196,27.6167548 L1.57230879,27.0349265 L1.57230879,27.0349265 Z" transform="translate(69.439 33.902)"/>
        <g>
          <path d="M13.6596596,1.01126642 C14.071719,0.272250462 14.9857701,0.0199037178 15.6980064,0.445695085 L15.6980064,0.445695085 C16.4116948,0.872354618 16.6554364,1.81871505 16.2441542,2.55633726 L11.3413875,11.3493004 C10.9293281,12.0883163 10.015277,12.3406631 9.30304071,11.9148717 L9.30304071,11.9148717 C8.58935224,11.4882122 8.34561065,10.5418517 8.7568929,9.80422951 L13.6596596,1.01126642 L13.6596596,1.01126642 Z" transform="matrix(-1 0 0 1 130.56 33.902)"/>
          <path d="M1.57230879,27.0349265 L10.5252607,11.1427693 L10.8530375,10.560941 L9.68759068,9.9063943 L9.35981386,10.4882226 L0.40686194,26.3803799 L0.0790851169,26.9622082 L1.24453196,27.6167548 L1.57230879,27.0349265 L1.57230879,27.0349265 Z" transform="matrix(-1 0 0 1 130.56 33.902)"/>
        </g>
      </g>
      <path fill="#DBA431" d="M8.41 128.38H81.31V139.59H8.41z" transform="translate(55.14 33.374)"/>
      <path fill="#F9BA37" d="M5.60747664,38.6584738 L84.1121495,38.6584738 L76.2616822,128.3781 L13.4579439,128.3781 L5.60747664,38.6584738 Z" transform="translate(55.14 33.374)"/>
      <path fill="#000" fill-opacity=".1" d="M5.60747664,37.5369784 L44.8598131,37.5369784 L44.8598131,40.9345794 L6.2539245,44.8753173 L5.60747664,37.5369784 Z" transform="translate(55.14 33.374)"/>
      <path fill="#000" fill-opacity=".1" d="M44.8598131,37.5369784 L84.1121495,37.5369784 L84.1121495,40.9345794 L45.506261,44.8753173 L44.8598131,37.5369784 Z" transform="matrix(-1 0 0 1 184.112 33.374)"/>
      <path fill="#F9BA37" d="M0 27.44H89.72V38.650000000000006H0z" transform="translate(55.14 33.374)"/>
    </g>
  </g>
</svg>
