<svg xmlns="http://www.w3.org/2000/svg" viewBox="0 0 300 465">
  <g fill="none" fill-rule="evenodd">
    <path fill="#090909" d="M5.44 298.2l15.6-85.58 34.22-66.93 61.14-24.2 18.34-15.3h26.9l30.57 15.3 56.3 14.6s39.8 74.9 40.1 76.4c.3 1.2 3.1 71.5 3.1 71.5l-3 89.2-47.3 77.9-182.5-33.9-27.2-27.9-26-91.4z"/>
    <path fill="#383838" d="M79.23 216.4L66.7 153.06l48.84-31.5 18.3-15.3h26.87l30.6 15.3 39.1 22-6.7 74.35-20.4 45.9 4 40.7H95.4l4.27-40.7-20.44-47.4z"/>
    <path fill="#1B1B1B" d="M149.83 190.3l1.5-4.13 3.15-5.83 5.28-4.63 5.84-3.3 5.7-2.3 7-1 6.72-.4h5.95l5.72.5-.7-5.3-22.7-20.2-1.5-.1.4 1.8-.9 2.5-2.5 3.2-1.8 1.04-5.55 1.18-6.07 1.1-1.56-1.03-.8-2.6.03-4-1.64 3.96-1.86-.55-2.17.53-1.9-4.05-.3 5.2-1.55 2.75-5.9-1.2-7.06-1.3-2.76-3.3-1.5-2.8.32-2.4-23.8 21.8-.37 2.2-.6 1.8 5-.37 5.2-.2 5.5.15 5.34.7 4.4.85 5.87 1.93 5.2 2.8 3.4 3.2 3.53 4.3 2.86 4.96 1.3 3.07z"/>
    <path fill="#A3850C" d="M95.87 285.22h113.17v18.3H95.87v-18.3z"/>
    <path fill="#000" fill-opacity=".1" d="M162.36 294.07l-3.96-13.8 6.4 8.04 6.68 16.7H151.7l10.66-10.9z"/>
    <path fill="#C8A000" d="M140.8 298.93l-4.9-10.62 6.44-8h16.27l6.5 8.1-4.9 10.7-7.9 6.1h-4l-7.3-6.1z"/>
    <path fill="#000" fill-opacity=".1" d="M111.52 178.18L94.88 216.5l19.92 58.97-6.73 26.6-8.56 37.03-25.3-66.7 14.4-94.2 23.1-26 6.5-12.3 30.8-18.3-37.2 56.6zm100.46 17.74l-4.58 27.83-16.65 63-4.8 24.17 26.03-3.67v-25.08l11.3-11.77 9.48-57.05-13.44-38.23-33.38-24.94-6.5-12.3-30.7-18.27L212 196z"/>
    <path fill="#1A1A1A" d="M25.06 154.53l32.7-40.05 63.56-32.7L119.8.48l8.24 16.8 9.47-6.1 12.3-2.15 11.3 2.14 8.3 6.72 10-17.2-2.1 80.1 64.2 33.3 39.8 33 12.9 59.3 5.5 54.4-7.6 62.6v54.4l-51.62 71.3-55.92-37.6v-85.2l18.36-62.4 3.4-42.2 7.65-42.2-63.9-57.5-59 54.4 15.9 71.6-7.03 66.64 7.05 48.6 18 51.63-34 49.2-60.5-6.4L7.64 396v-67.24L0 282.6l15.58-66.63 9.48-61.44z"/>
    <path fill="#0F0F0F" d="M196.2 96.87l42.44 22.3 35.73 31.43 12.22 58.02 7.9 56.18-8 51.9v60.76l-26 34.8 21.7-34.8-1.5-60.76 1.8-51.9-1.9-53.13-12.3-45.8-29.98-29.3-42.4-39.7z"/>
    <path fill="#000" fill-opacity=".1" d="M166 107.9l-16.5 12.2-17.75-11.9-13.64-22.28 18.7 16.75h25.1l19-17.67-14.9 22.9z"/>
    <path fill="#D7B18D" d="M124.04 62.76L149 74l24.95-11.24-4.6 26.16-1.97 2.97-10.27 6.4h-18l-8.1-6.2-2.6-3.3-4.3-26.2z"/>
    <path fill="#C8A27E" d="M128.98 65.23l19.98 9.08 19.06-8.4-19.06 14.3-19.98-14.8zm13.84 31.14l6.02-.53 4.85.53-4.9-3.46-6 3.5z"/>
    <path fill="#FFF" d="M128 48.42l10.5 11.87 6.8-6.3-17.3-5.6z"/>
    <path fill="#DCDCDC" d="M128 48.42l15.4 7.42 1.9-1.75-17.3-5.7z"/>
    <path fill="#FFF" d="M171.48 48.42l-10.5 11.87-6.8-6.3 17.3-5.6z"/>
    <path fill="#DEDEDE" d="M171.48 48.42l-14.73 7.9-2.57-2.33 17.3-5.6z"/>
    <path fill="#2D2D2D" d="M100.06 195.5l-7.65-9.65 8.6 8.1 34.8 4.78 13.9-6.96 10.8 6.68 46.7-6.06 8.9-6.6-8.8 8.4-46.7 8.4-10.8-8.4-12.2 8.4-37.3-7.2z"/>
    <path fill="#000" fill-opacity=".1" d="M147.42 153.23l1.64-26.2.98 25.9 1.18 31.7-2.16 5.18-2.3-5.1.66-31.4z"/>
    <path fill="#2F2F2F" d="M149.16 60.3l1.56 11.85-1.56 1.48-1.4-1.48 1.4-11.86z"/>
    <path fill="#1B1B1B" d="M149.24 60.3L151 72.63l4.17-3-5.93-9.35z"/>
    <path fill="#1B1B1B" d="M149.74 60.3l-1.88 11.85-5.04-1.83 6.92-10.03z"/>
    <path fill="#2D2D2D" d="M191.25 217.6l-16.48 5.48-25.62-5.48-25.32 7.3-17.1-5.77 17.1 3.95 25-6.08 25.94 4.56 16.48-3.96zm-6.92 18.1l-12.9 3.77-22.97-5.35-22.4 6.6-11.9-3.14 12.22 2.52 22.12-6.3 22.93 4.72 12.9-2.83zm-8.4 15.84l-8.94.88-18-3.5-17.6 4.66-8.4-.58h8.7l17.3-4.36 17.9 2.9h8.9z"/>
    <path fill="#282828" d="M31.85 154.83l29.55-35.8 17.67-9.8-17.67 15.3-15.7 30.3-13.85 67.65-6.4 50.2 4.88 52.95L14.8 384.1l3.34-58.47-5.8-52.96 9.15-55.1 10.3-62.74z"/>
  </g>
</svg>
