<svg xmlns="http://www.w3.org/2000/svg" width="939" height="563" viewBox="0 0 939 563" xmlns:xlink="http://www.w3.org/1999/xlink"><title>Group</title><defs><linearGradient id="a" x1="50%" x2="50%" y1="0%" y2="100%"><stop stop-color="#EEE7D5" offset="0%"/><stop stop-color="#E1D9C8" offset="100%"/></linearGradient><path id="b" d="M0 0h106v9.8H0z"/><linearGradient id="c" x1="50%" x2="50%" y1="0%" y2="97.9%"><stop stop-color="#7DB6BE" offset="0%"/><stop stop-color="#68A5AD" offset="100%"/></linearGradient><linearGradient id="d" x1="50%" x2="50%" y1="0%" y2="100%"><stop stop-color="#18D7F6" offset="0%"/><stop stop-color="#45BFFF" offset="100%"/></linearGradient><linearGradient id="e" x1="50%" x2="50%" y1="0%" y2="100%"><stop stop-color="#608490" offset="0%"/><stop stop-color="#395B63" offset="100%"/></linearGradient><linearGradient id="f" x1="50%" x2="50%" y1="0%" y2="100%"><stop stop-color="#8BD8E5" offset="0%"/><stop stop-color="#57C4D7" offset="100%"/></linearGradient><linearGradient id="g" x1="50%" x2="50%" y1="0%" y2="100%"><stop stop-color="#768A93" offset="0%"/><stop stop-color="#44616E" offset="100%"/></linearGradient><linearGradient id="h" x1="50%" x2="50%" y1="0%" y2="100%"><stop stop-color="#F9F9F9" offset="0%"/><stop stop-color="#E6E6E6" offset="100%"/></linearGradient><path id="i" d="M0 0h106v9.8H0z"/><linearGradient id="j" x1="50%" x2="50%" y1="0%" y2="100%"><stop stop-color="#4391B4" offset="0%"/><stop stop-color="#2E6882" offset="100%"/></linearGradient></defs><g fill="none" fill-rule="evenodd"><path fill="#F4F9F9" d="M657 137.4l55.8-33.4 6.7-58v54.5L758 78v484H657V137.4zM288 78h108v484H288V78zm540 32h78.5v452H828V110z"/><path fill="#E3F0F4" d="M444 193.2L357 142v417h87V193.2zM856 171h12.5v-16H758v16h11v391h87V171z"/><path fill="#F4F9F9" d="M487 79.6L536 0l52 79.6V562H487V79.6zM87 204l49-59 52 59v358H87V204z"/><path fill="#E3F0F4" d="M566 169h108v393H566V169zm-402-59l108-54v506H164V110zM98.5 258.4H111V246H.5v12.4h11V562h87V258.4z"/><path fill="url(#a)" d="M4 0h98v223H4z" transform="translate(694 338)"/><path fill="#E4DBC5" d="M698 347.8h98v4h-98z"/><g transform="translate(694 338)"><use fill="#5E8FA5" xlink:href="#b"/><use xlink:href="#b"/></g><path fill="#BF6363" d="M698 522h98v39.3h-98z"/><path fill="#C34400" d="M698 522.5h98v-.8h-98z"/><path fill="#FFF" d="M698.4 532.5h98v-1h-98zm0 8h98v-1h-98zm0 7h98v-1h-98zm0 7h98v-1h-98z"/><path fill="#E2E2E2" d="M729 384.5h37v26h-37z"/><path fill="#E1F4FA" stroke="#FFF" stroke-width="6" d="M728.7 381.7h36.7v26h-36.7z"/><path fill="#F0F8FB" d="M731 384h31.2v4.2H736V405h-5v-21z"/><path fill="#E2E2E2" d="M729 429.4h37v26h-37z"/><path fill="#E1F4FA" stroke="#FFF" stroke-width="6" d="M728.7 426.6h36.7v26h-36.7z"/><path fill="#F0F8FB" d="M731 429h31.2v4H736v17h-5v-21z"/><path fill="#E2E2E2" d="M729 474.3h37v26h-37z"/><path fill="#E1F4FA" stroke="#FFF" stroke-width="6" d="M728.7 471.5h36.7v26h-36.7z"/><path fill="#F0FAFE" stroke="#4B4B4B" stroke-width="6" d="M728.7 513.5h36.7v49h-36.7z"/><path fill="#F0F8FB" d="M731 474h31.2v4H736v16.7h-5V474z"/><path fill="#EEE" d="M731 514.7h31.2v4H736v39.7h-5v-43.7z"/><path fill="#F06F2A" d="M756 535.2h3.3v6.2H756z"/><path fill="url(#c)" d="M6.5 18.5h136v301H6.5z" transform="translate(548 242)"/><path fill="#EEE" d="M568.5 331.5H674V358H568.5zm0 39.5H674v26.5H568.5z"/><path fill="#E1F4FA" stroke="#FFF" stroke-width="6" d="M568.5 330H674v26.5H568.5z"/><path fill="#EEE" d="M568.5 291.5H674V318H568.5z"/><path fill="#E1F4FA" stroke="#FFF" stroke-width="6" d="M568.5 290H674v26.5H568.5z"/><path fill="#E3EFF3" d="M567.8 293.3h102.5v4.2h-99v15.3h-3.5V293zm0 40h102.5v4.2h-99v15.3h-3.5V333z"/><path fill="#EEE" d="M569.5 431.5h105V481h-105z"/><path fill="#E1F4FA" stroke="#FFF" stroke-width="6" d="M570 427.5h105V477H570z"/><path fill="#E3EFF3" d="M569.8 431.3h102.5v4.2h-99v15.3h-3.5V431z"/><path fill="#E1F4FA" stroke="#FFF" stroke-width="6" d="M568.5 369.5H674V396H568.5z"/><path fill="#E9E9E9" d="M554 268h136v5.5H554z"/><path fill="#E3EFF3" d="M567.8 372.8h102.5v4.2h-99v15.3h-3.5v-19.6z"/><path fill="#FCBC57" d="M548 242h147v26.5H548z"/><path fill="#EEE" d="M565.5 422.5h114V436h-114z"/><path fill="url(#d)" d="M17.5 176h114v13.5h-114z" transform="translate(548 242)"/><path fill="url(#e)" d="M6.5 18.5h136v301H6.5z" transform="translate(306 242)"/><path fill="#EEE" d="M326.5 333H432v26.5H326.5zm0 40H432v26.5H326.5z"/><path fill="#E1F4FA" stroke="#FFF" stroke-width="6" d="M326.5 330H432v26.5H326.5z"/><path fill="#E3EFF3" d="M329.5 333H432v4.3h-99v15.2h-3.5V333z"/><path fill="#EEE" d="M327.5 432.5h105V482h-105z"/><path fill="#E1F4FA" stroke="#FFF" stroke-width="6" d="M328 427.5h105V477H328z"/><path fill="#E3EFF3" d="M331 429h97.5v6.8H336V474h-5v-45z"/><path fill="#E1F4FA" stroke="#FFF" stroke-width="6" d="M326.5 369.5H432V396H326.5z"/><path fill="#E3EFF3" d="M329.5 372.5H432v4.3h-99V392h-3.5v-19.5z"/><path fill="#EEE" d="M327.5 296h46v26.5h-46zm58 0h46v26.5h-46z"/><path fill="#E1F4FA" stroke="#FFF" stroke-width="6" d="M327.5 293h46v26.5h-46zm58.5 0h46v26.5h-46z"/><path fill="#E9E9E9" d="M312 268h136v5.5H312z"/><path fill="#1FA7C8" d="M306 242h147v26.5H306z"/><path fill="#EEE" d="M323.5 422.5h114V436h-114z"/><path fill="#E3EFF3" d="M330.5 296.5h40v4.3H334V316h-3.5v-19.5zm58.5 0h40v4.3h-36.5V316H389v-19.5z"/><path fill="#FCBC57" d="M323.5 418h114v13.5h-114z"/><path fill="#D8D8D8" d="M423.5 241.5h167v320h-167z"/><path fill="url(#f)" d="M12.8 27.3h154.5v440.3H12.8z" transform="translate(417 94)"/><path fill="#EEE" d="M446 406h120v30H446zm0-259h120v56H446z"/><path fill="#C0E8F5" stroke="#FFF" stroke-width="6" d="M446 143.2h120v56.3H446z"/><path fill="#E1F4FA" stroke="#FFF" stroke-width="6" d="M446 143.2h61.3v56.3H446zm0 259.8h120v30H446z"/><path fill="#B4E1F0" stroke="#FFF" stroke-width="6" d="M471.7 472.5h68.5V562h-68.5z"/><path fill="#D0F2FD" stroke="#FFF" stroke-width="6" d="M471.7 472.5h35.5V562h-35.5z"/><path fill="#E3EFF3" d="M477.7 562v-83.5h29.7v5H482V562h-4.3z"/><path fill="#EEE" d="M2425075417 354135837v-149h30v149h-30zM447.4 391.6v-150h30v150h-30z"/><path fill="#E1F4FA" stroke="#FFF" stroke-width="6" d="M447.4 388.6v-150h30v150h-30z"/><path fill="#EEE" d="M2425075467 354135835v-149h30v149h-30zM493 391.6v-150h30v150h-30zm44.4 0v-150h30v150h-30z"/><path fill="#E1F4FA" stroke="#FFF" stroke-width="6" d="M493 388.6v-150h30v150h-30z"/><path fill="#EEE" d="M2425075507 354135835v-149h30v149h-30z"/><path fill="#E1F4FA" stroke="#FFF" stroke-width="6" d="M537.4 388.6v-150h30v150h-30z"/><path fill="#E9E9E9" d="M429.8 124.3h154.5v6.4H429.8z"/><path fill="#2E7EAA" d="M423.3 94.5h167.4v30H423.3z"/><path fill="#474747" d="M499.5 514.5h15v7h-15z"/><path fill="#EEE" d="M461 465h89.5v15.5H461z"/><path fill="url(#d)" d="M44 366h89.5v15.5H44z" transform="translate(417 94)"/><path fill="#EEE" d="M429.5 205H585v22.5H429.5z"/><path fill="#3DE6D3" d="M417 199h177v22.5H417z"/><path fill="#E3EFF3" d="M449 146h55v4.3h-51.5v46.2H449V146zm58.5 0h55v4.3H511v46.2h-3.5V146z"/><path fill="#55A6D6" fill-opacity=".1" stroke="#FFF" stroke-width="4" d="M417 199h177v-20H417z"/><path stroke="#FFF" stroke-width="4" d="M417 199h45v-20h-45z"/><path stroke="#FFF" stroke-width="4" d="M460.5 199h45v-20h-45z"/><path stroke="#FFF" stroke-width="4" d="M504 199h45v-20h-45z"/><path fill="url(#g)" d="M5.5 0h131v297.8H5.5z" transform="translate(797 263)"/><path fill="#DEDEDE" d="M802.5 276h131v5.6h-131z"/><path fill="#C16565" d="M797 263h141.8v13H797z"/><path fill="#E2E2E2" d="M814 324.7h49v35h-49z"/><path fill="#E1F4FA" stroke="#FFF" stroke-width="6" d="M813.4 321.4h49v35h-49z"/><path fill="#E3EFF3" d="M816.5 324.5h43v6H822V353h-5.5v-28.5z"/><path fill="#E2E2E2" d="M814 384.7h49v35h-49z"/><path fill="#E1F4FA" stroke="#FFF" stroke-width="6" d="M813.4 381.4h49v35h-49z"/><path fill="#E2E2E2" d="M814 444.7h49v35h-49z"/><path fill="#E1F4FA" stroke="#FFF" stroke-width="6" d="M813.4 441.4h49v35h-49z"/><path fill="#E2E2E2" d="M874 324.7h49v35h-49z"/><path fill="#E1F4FA" stroke="#FFF" stroke-width="6" d="M873.4 321.4h49v35h-49z"/><path fill="#E2E2E2" d="M874 384.7h49v35h-49z"/><path fill="#E1F4FA" stroke="#FFF" stroke-width="6" d="M873.4 381.4h49v35h-49z"/><path fill="#E2E2E2" d="M874 444.7h49v35h-49z"/><path fill="#E1F4FA" stroke="#FFF" stroke-width="6" d="M873.4 441.4h49v35h-49z"/><path fill="#2C4B56" stroke="#FFF" stroke-width="6" d="M843.4 497.5h49V563h-49z"/><path fill="#EEE" d="M846.6 499.2H888v5.4h-34.8v53h-6.6V499z"/><path fill="#123340" d="M880 526.6h4.3v8.3H880z"/><path fill="#E3EFF3" d="M876.5 324.5h43v6H882V353h-5.5v-28.5zm-60 60h43v6H822V413h-5.5v-28.5zm60 0h43v6H882V413h-5.5v-28.5zm-60 60h43v6H822V473h-5.5v-28.5zm60 0h43v6H882V473h-5.5v-28.5z"/><path fill="url(#h)" d="M4 0h98v223H4z" transform="translate(40 338)"/><path fill="#DADADA" d="M44 347.8h98v4H44z"/><g transform="translate(40 338)"><use fill="#5E8FA5" xlink:href="#i"/><use xlink:href="#i"/></g><path fill="#F06F2A" d="M44 522h98v39.3H44z"/><path fill="#C34400" d="M44 522.5h98v-.8H44z"/><path fill="#FEA474" d="M44.4 532.5h98v-1h-98zm0 8h98v-1h-98zm0 7h98v-1h-98zm0 7h98v-1h-98z"/><path fill="#E2E2E2" d="M75 384.5h37v26H75z"/><path fill="#E1F4FA" stroke="#FFF" stroke-width="6" d="M74.7 381.7h36.7v26H74.7z"/><path fill="#F0F8FB" d="M77 384h31.2v4.2H82V405h-5v-21z"/><path fill="#E2E2E2" d="M75 429.4h37v26H75z"/><path fill="#E1F4FA" stroke="#FFF" stroke-width="6" d="M74.7 426.6h36.7v26H74.7z"/><path fill="#F0F8FB" d="M77 429h31.2v4H82v17h-5v-21z"/><path fill="#E2E2E2" d="M75 474.3h37v26H75z"/><path fill="#E1F4FA" stroke="#FFF" stroke-width="6" d="M74.7 471.5h36.7v26H74.7z"/><path fill="#F0FAFE" stroke="#4B4B4B" stroke-width="6" d="M74.7 513.5h36.7v49H74.7z"/><path fill="#F0F8FB" d="M77 474h31.2v4H82v16.7h-5V474z"/><path fill="#EEE" d="M77 514.7h31.2v4H82v39.7h-5v-43.7z"/><path fill="#F06F2A" d="M102 535.2h3.3v6.2H102z"/><path fill="url(#j)" d="M5.5 2h131v297.8H5.5z" transform="translate(153 261)"/><path fill="#DEDEDE" d="M158.5 274h131v5.6h-131z"/><path fill="#3DE6D3" d="M153 261h141.8v13H153z"/><path fill="#E2E2E2" d="M170 322.7h49v35h-49z"/><path fill="#E1F4FA" stroke="#FFF" stroke-width="6" d="M169.4 319.4h49v35h-49z"/><path fill="#E3EFF3" d="M172.5 322.5h43v6H178V351h-5.5v-28.5z"/><path fill="#E2E2E2" d="M170 382.7h49v35h-49z"/><path fill="#E1F4FA" stroke="#FFF" stroke-width="6" d="M169.4 379.4h49v35h-49z"/><path fill="#E2E2E2" d="M170 442.7h49v35h-49z"/><path fill="#E1F4FA" stroke="#FFF" stroke-width="6" d="M169.4 439.4h49v35h-49z"/><path fill="#E2E2E2" d="M230 322.7h49v35h-49z"/><path fill="#E1F4FA" stroke="#FFF" stroke-width="6" d="M229.4 319.4h49v35h-49z"/><path fill="#E2E2E2" d="M230 382.7h49v35h-49z"/><path fill="#E1F4FA" stroke="#FFF" stroke-width="6" d="M229.4 379.4h49v35h-49z"/><path fill="#E2E2E2" d="M230 442.7h49v35h-49z"/><path fill="#E1F4FA" stroke="#FFF" stroke-width="6" d="M229.4 439.4h49v35h-49z"/><path fill="#2C4B56" stroke="#FFF" stroke-width="6" d="M199.4 495.5h49V561h-49z"/><path fill="#EEE" d="M202.6 497.2H244v5.4h-34.8v53h-6.6V497z"/><path fill="#123340" d="M236 524.6h4.3v8.3H236z"/><path fill="#E3EFF3" d="M232.5 322.5h43v6H238V351h-5.5v-28.5zm-60 60h43v6H178V411h-5.5v-28.5zm60 0h43v6H238V411h-5.5v-28.5zm-60 60h43v6H178V471h-5.5v-28.5zm60 0h43v6H238V471h-5.5v-28.5z"/></g></svg>