<svg xmlns="http://www.w3.org/2000/svg" viewBox="0 0 409 450">
  <g fill="none" fill-rule="evenodd">
    <path fill="#F8E02C" d="M97.92 415.54l5.74-37.54 28.72-80.67s23-4 32.22 0c11.64 5.05 30.37 27.16 30.37 27.16l.82 23.1-29.2 62-31.8 39.8-37-34z"/>
    <path fill="#F8E02C" d="M306.98 415.54L301.24 378l-28.72-80.67s-23-4-32.22 0c-11.65 5.05-30.38 27.16-30.38 27.16l-.8 23.1 29.1 62 31.75 39.8 37-34z"/>
    <path fill="#C83E2C" d="M145.57 281.46l-10.64 16.8 21.13 7.62 23.46 12.14 14.22 32.2 17.05.85 13.5-33.4 42.6-19.5-8.5-18.64-113 1.93z"/>
    <path fill="#C83E2C" d="M153.58 221.97l6.07 40-10.87 5.25-6.23 19.94h118.8l-4.74-19.94-9.8-6.05 4-39.2v-25.32h-97.1v25.32z"/>
    <path fill="#C83E2C" d="M119.77 142.72L136.72 190l21.82 25.47h87.76l27.87-26.74 15.42-46H119.7z"/>
    <path fill="#C83E2C" d="M202.3 154.8l-13.65.35-11.78 24.35-7.53 25.78-1.06 25.63 13.75 45.5 37.4 1.9 14.8-39.2-.34-38.5-11.3-25.8L215 155l-12.8-.06z"/>
    <path fill="#C83E2C" d="M139.96 143.64l11.9 13.02 38.35 5.38 6.6-4.55 6.9-.6 7.3 5.6 40.5-8.7 22.4-26.5-13.6-25.2-60.5-1.9-69.4 5.7-1.6 30.3 11.3 7.02z"/>
    <path fill="#C83E2C" d="M147.66 105.08l50.96-2.6 64.15 4.94 3.56-14.5-46.53-19.98-46.08 2.42-32.13 15.8 6 13.92z"/>
    <path fill="#C83E2C" d="M164.5 89.9l7.03 13 57.4-1.1 8.13-12.78-13.5-35.83-47.23 2.4-11.83 34.3z"/>
    <path fill="#C83E2C" d="M175.37 12.57L187.9 1.52 207.84.8l11.82 5.6 5.54 8.47v12.77l4 4.97-1.4 17.6-2.6 3.9-1.13 6.4-10.43 13-5.8 2.7-7.44 1.9-4.74-1.8-8.7-3.9-10.2-11.1-2.22-6.3-3.34-3.6-1.84-18.6 3.5-3.5 2.5-16.4z"/>
    <path fill="#A43426" d="M175.64 58.12v4.7l10.22 11.14 3.6 13.6 10.2 1.4 10.5-1.4 5.43-13.14 9.6-12.5.3-4.4-1-1.38-49 1.98z"/>
    <path fill="#A43426" d="M169.57 32.7l4.44 2.5.5 19.25-3.1-3.45-1.7-18.3z"/>
    <path fill="#A43426" d="M229.18 32.76l-4.07 3.72.3 17.28 2.6-3.85 1.3-17.1z"/>
    <path fill="#F8E02C" d="M188.4 15.87l2.85 8.98 15.43-.27 3.85-8.9 10.15 6.54.86 11.96-2.46 7.4-13.3 6.38-12.23.3-11.87-3.8-4.06-7.7-2.5-10.58 13.27-10.3z"/>
    <path fill="#F8E02C" d="M177.3 36.13l-4.74 10.22 11.63 16.52 6 23.43 9.6.4 9.9-.85 3.8-11.17 2.4-13.8L227 44.36l-5.7-10.3-2.5 7.44-12.9 6.35-12.6.2-11.73-3.78-4.44-8.17z"/>
    <path fill="#CEBA26" d="M188.34 76.3l2.05-3.6 18.9-.13 2.7 5.08-3.2-2.84-17.6.1-2.9 1.5z"/>
    <path fill="#F8E02C" d="M213.83 73.5l10.5-13.24.36-12.23-8.7 12.9-2.3 12.57z"/>
    <path fill="#F8E02C" d="M175.73 50.33l.82 10.73 10.3 12.1-2.74-10.83-8.3-12z"/>
    <path fill="#D9C427" d="M177.34 36.28l3.58 9.13 2 .8 10.24 3.2 14.35-.5 12.2-6 1.8-8.5-2.6 7.1-13 6.3-11.9.2-12.3-4-4.3-7.7z"/>
    <path fill="#FFF" d="M182.4 44.23l1.2 4.72 8.2 1.94 1.94-3.1-11.35-3.6z"/>
    <path fill="#FFF" d="M205.75 47.45l1.6 2.4 7.95-1.9 1.03-5.4-10.58 4.9z"/>
    <path fill="#D9C427" d="M213.95 73.3l3.83-11.37 7.24-14.7-9.3 13.74-1.77 12.33z"/>
    <path fill="#D9C427" d="M186.92 73.5l-3.83-11.37-7.3-11.47 9.3 10.5 1.7 12.34z"/>
    <path fill="#A43426" d="M233.33 79.14l3.82 9.77-8.2 13.1-25.48.6 25.88.8 9.05-13.6-5.07-10.5z"/>
    <path fill="#A43426" d="M168.64 78.07l-4 11.48 6.92 13.2L183 103l-12.24.63-7.44-13.75 5.32-11.8z"/>
    <path fill="#9BDAFF" d="M191.8 50.9l-7.76-2.18-.94-3.7 10.65 2.76-11.32-3.52 1.1 4.73 8.27 1.9z"/>
    <path fill="#9BDAFF" d="M205.76 47.47l9.74-3.8-.7 3.8-7.4 2.4 7.9-1.88 1.07-5.5-10.6 4.9z"/>
    <path fill="#A43426" d="M149.9 102.8l49.74-2.98 59.63 4.7-2.1 2.94-57.84-4.82L151 105.3l-1.1-2.5z"/>
    <path fill="#9BDAFF" d="M199.87 114.16l-7.6 1.6-7 7.36-1.64 7.9 1.1 7.24 4.8 7.14 7.15 3.33h7.23l8.1-5.95 3.2-7.28-.1-9.5-4-5.9-5.7-4.7-5.4-1.24z"/>
    <path fill="#FFF" d="M199.8 116.52l-6.6 1.4-6.08 6.4-1.43 6.86.9 6.3 4.1 6.2 6.2 2.9h6.3l7-5.18 2.7-6.33-.1-8.25-3.5-5.13-5-4.1-4.8-1.1z"/>
    <path fill="#A43426" d="M139.06 147.8l10.44 11.9 41.14 7.7 6.8-9.55-7.58 3.98-37.94-5-9.45-10.48-3.4 1.45z"/>
    <path fill="#A43426" d="M203.52 157.22l6.38 10.24 42.4-7.57 12.66-15.1-4.5-2.8-8.76 11.3-40.2 8.5-7.98-4.8z"/>
    <path fill="#A43426" d="M219.92 165.64l19.27 35.5.2 13.9h-4.9l-.9-15.15-13.8-34.3z"/>
    <path fill="#A43426" d="M183.44 166.9l-10.16 13.26-7.3 23.72-1.2 11.64h3.74l.7-10.06 7.96-26.7 6.26-11.87z"/>
    <path fill="#A43426" d="M239.35 214.86l-.68 24.02-19.04 39.5 14.98-39.65v-24.4l4.8.53z"/>
    <path fill="#A43426" d="M181.8 276.33l-16.94-45.43-.1-15.37 3.72-.1-.33 15.55 13.65 45.35z"/>
    <path fill="#A43426" d="M238.64 220l8.72-.2 3.4-8.7-4.6 3.67-7.95.45.5 4.77z"/>
    <path fill="#A43426" d="M153.88 210.3l4.06 9.25 9.02.2.4-4.68-8.9.23-4.58-5z"/>
    <path fill="#C83E2C" d="M247.8 252.3l6.67 4.23-.12 23.37-5.2 7.3-16.8 4.66-2.98 7.44-7.5-6.14 11.7-32.37 12.85-5.2 1.4-3.4z"/>
    <path fill="#A43426" d="M247.67 252.4l.38 5.14-12.4 5.98-11.3 31.87-2.47-2.5 11.5-32.5 13.4-4.8.9-3.4z"/>
    <path fill="#A43426" d="M254.96 266.3l1.8 1.02.2 13.07-5.12 6.8-2.7-.3 5.38-7.3.44-13.4z"/>
    <path fill="#C83E2C" d="M158.14 252.3l-6.66 4.23.12 23.37 5.2 7.3 16.8 4.66 2.98 7.44 7.5-6.14-11.7-32.37-12.84-5.2-1.4-3.4z"/>
    <path fill="#A43426" d="M158.28 252.4l-.37 5.14 12.4 5.98 11.3 31.87 2.5-2.5-11.5-32.5-13.4-4.8-.9-3.4z"/>
    <path fill="#A43426" d="M151 266.3l-1.82 1.02-.2 13.07 5.14 6.8 2.7-.3-5.4-7.3-.43-13.4z"/>
    <path fill="#C83E2C" d="M117.43 339.1l13.56-8.76 8.4-25.1 3.6-17.75-5.6-2.7-14.8 18.3-7.4 22 2.1 13.9z"/>
    <path fill="#A43426" d="M117.63 338.97l7.95-12.06 8.07-24.6 4.04-17.3-15.2 18-7.3 22.2 2.4 13.9z"/>
    <path fill="#C83E2C" d="M286.98 339.1l-13.56-8.76-8.4-25.1-3.6-17.75 5.53-2.7 14.76 18.3 7.4 22L287 339z"/>
    <path fill="#A43426" d="M286.78 338.97l-7.94-12.06-8.07-24.6-4.05-17.3 15.15 18 7.3 22.2-2.4 13.9z"/>
    <path fill="#CEBA26" d="M288.2 341.87l-16.72-9.75-9.93-26.8-.82-4.3 3.2-1.4 1.17 5.8 8.6 24.82 13.55 8.6.94 3.03z"/>
    <path fill="#CEBA26" d="M116.44 341.65l15.5-9.6 9.52-25.72.8-5.7-2.08-.73-.4 4.64-9.33 25.48-13.14 9-.8 2.63z"/>
    <path fill="#CEBA26" d="M125.68 440.87l30.9-36.67 31.5-66.4 6.22 12.83-28.2 59.56-31.2 39.8-9.22-9.2z"/>
    <path fill="#CEBA26" d="M278.73 440.58l-30.9-36.67-31.5-66.4-6.22 12.9 28.2 59.6 31.2 39.8 9.3-9.1z"/>
    <path fill="#CEBA26" d="M236.13 312.36l-6.87 10.5-9.88 27.8-4.68-9.85 9.75-23.4 11.68-5z"/>
    <path fill="#CEBA26" d="M167.97 311.96l6.88 10.52 9.88 27.78 4.67-9.84-9.75-23.44-11.68-5.02z"/>
    <path fill="#A43426" d="M393.58 306.44v8.48l-25.06 9.37-17.42-2.5 5.7-10.2 36.78-5.2z"/>
    <path fill="#C83E2C" d="M318.76 183l7.86.47 21.12 15.8 17.1 34.4-.77 17.02 10.2 19.5-15.9 1-3.62 4.6-10.56 6-10.2-15.9-12.8-9.7-9.5-4.8-19.1-26.1 2.3-7.9-4.2-7.5 27.9-27.1z"/>
    <path fill="#F8E02C" d="M332.9 197.93l-11.4-.6-9.83 5.9-7.87 10.18-13.6-4.4-17.43-18.6L284 151.9l10.5 2.9 16.52 19.6 10.08-8.54 3.73 9.4.6 9.4 7.46 13.3z"/>
    <path fill="#C83E2C" d="M324.37 162.36l-13.8 13.8-17.23-21.05-34.74-11.3-11.62-19.1.82-4.6 16.83-23-8.05-10.8-15.04-3.8 6.26-3.9 31.03 5.1 26.02 12.9 19.22 46.7.3 19.4z"/>
    <path fill="#A43426" d="M264.76 96.5l-6-11.25-11.27-7.1-6.1 4.15 14 6.06 9.3 8.14z"/>
    <path fill="#A43426" d="M324 162.3l-12.56 6.77-14.62-17.68-36.5-11.8-13.5-15.6 11.22 19.6 35.2 11.5 17.1 20.9L324 162.3z"/>
    <path fill="#CEBA26" d="M283.86 152.1l8.42 4.8 18 23.3 10.88-14.32-10.7 10.2-17.06-21.03-9.54-2.94z"/>
    <path fill="#CEBA26" d="M321.46 197.27l-13.14 4.18-6.25 8.25-10.7-.43 12.5 4.23 8.24-10.45 9.4-5.78z"/>
    <path fill="#A43426" d="M363.37 250.8l-8.5-14.72-24.92-.93-18.17 16.23 4.76 2.44 13.78-14.34 22.63-.1 10.42 11.43z"/>
    <path fill="#A43426" d="M317.1 247.35l-21.8-29.72-2.6 8.24 19 25.5 5.4-4.02z"/>
    <path fill="#A43426" d="M347.85 279.95l-11.02-17-12.18-9.56-5.06-3-4.2 1.8 1 1.6 4.7 2.2 12.9 9.8 10 15.9 3.7-2z"/>
    <path fill="#A43426" d="M373.3 268.83l-12.48-4.6-19.02 11.87 3.1 2.4 16.7-10.42 11.7.75z"/>
    <path fill="#C83E2C" d="M383.4 274.48l10.62 4.93 10.2-1.7 4.3 7.7-8.65 6.3-6.76-2.2-4.6 1.3 5.3 15.1 13.2 26.4 2.1 7.7-5.7 3.4-8.4-11.7-10.9-18.9 7 21.5 4.2 13.4-7.2 2.6-6.5-14.5-9.3-20.32.7 25.98-.5 10.6-8.3.9.58-14.44-2.1-17.97-2.2-.1-4.14 11.33-3.6 4.1-3.13 3.65-5.3-.9-1.1-4.04 7.1-9.4 3.45-8.38-6.8-22.6-2.43-10.17 1.2-7.53 16.1-8.9 12.9 2.5 3.5 3 5.57 1.8z"/>
    <path fill="#A43426" d="M345.18 275.86l2.97 11.5 4.4 18.63.8 10.8-9.88-33.4 1.7-7.6z"/>
    <path fill="#A43426" d="M388.45 290.55h-10l-8.6-12.65-1.4-9.7 5.58.9 3.72 3.83-4.43 4.97 6.03 11.3 9.1 1.35z"/>
    <path fill="#A43426" d="M394.46 307.94l-5.15.7-5.2 4.52 2.5-6.4 6.7-1.48 1.2 2.66z"/>
    <path fill="#A43426" d="M383.84 312.58l-4.3-2.38-6.52.5-1.13 5 2.8-2.9 4.2-1.26 4.9 1.04z"/>
    <path fill="#A43426" d="M371.64 316.37l-3.06-1.9-6.42.56-.28 5.04 1.96-3.56 4.33-.7 3.47.7z"/>
    <path fill="#A43426" d="M360.46 319.95l-1.3-3.2-5.76-.5 4.5 1.65 2.56 2.05z"/>
    <path fill="#9BDAFF" d="M375.62 300.2l-5.9 5.47-5.77.08-5.5-4.05-1.98-4.3 1.2-4.95 3.9-4.24 8.94-1.8 3.5 2.9 3.1 6.2-1.4 4.9z"/>
    <path fill="#FFF" d="M374.5 299.84l-5.18 4.82-5.08.07-4.83-3.56-1.7-3.78 1.1-4.4 3.5-3.7 7.9-1.7 3.1 2.5 2.8 5.4-1.3 4.2z"/>
    <path fill="#CEBA26" d="M274.12 191.86l1.34-1.57 10.75-37.5-2.3-.8-11.2 38 1.5 1.8z"/>
    <path fill="#A43426" d="M16.25 306.44v8.48l25.06 9.37 17.5-2.5-5.7-10.2-36.8-5.2z"/>
    <path fill="#C83E2C" d="M91.07 183l-7.87.47-21.12 15.8L45 233.67l.76 17-10.2 19.53 15.9 1.05 3.6 4.6 10.58 6.05 10.13-15.98 12.8-9.67 9.48-4.8 19.08-26.07-2.36-7.9 4.16-7.45L91.07 183z"/>
    <path fill="#F8E02C" d="M76.94 197.93l11.4-.6 9.8 5.9 7.88 10.18 13.6-4.4 17.43-18.6L125.8 152l-10.4 2.9-16.5 19.6-10.02-8.54-3.73 9.4-.6 9.4-7.46 13.3z"/>
    <path fill="#C83E2C" d="M85.46 162.36l13.8 13.8 17.23-21.05 34.7-11.3 11.6-19.1-.9-4.6-16.8-23 8-10.8 10.5-5.6-6.1-4-26.6 6.8-26.1 12.8L85.7 143l-.3 19.4z"/>
    <path fill="#A43426" d="M140.56 94.7l6-11.25 11.27-7.1 6.1 4.15-14.08 6.06-9.3 8.14z"/>
    <path fill="#A43426" d="M85.83 162.3l12.55 6.77L113 151.4l36.5-11.8 13.52-15.6-11.24 19.6-35.18 11.56-17.12 20.93-13.65-13.8z"/>
    <path fill="#CEBA26" d="M125.96 152.1l-8.4 4.8-18 23.3-10.9-14.32 10.7 10.2 17.07-21.03 9.53-2.94z"/>
    <path fill="#CEBA26" d="M88.36 197.27l13.14 4.18 6.25 8.25 10.7-.43-12.5 4.23-8.24-10.45-9.3-5.78z"/>
    <path fill="#A43426" d="M46.45 250.8l8.5-14.72 24.93-.93 18.17 16.23-4.77 2.44-13.77-14.34-22.6-.1-10.4 11.42z"/>
    <path fill="#A43426" d="M92.7 247.35l21.83-29.72 2.6 8.24-19 25.5-5.42-4.02z"/>
    <path fill="#A43426" d="M61.97 279.95l11.02-17 12.1-9.56 5-3 4.1 1.8-1 1.6-4.7 2.2-12.9 9.9-10.1 15.9-3.8-2z"/>
    <path fill="#A43426" d="M36.53 268.83l12.48-4.6 19.1 11.87-3.1 2.4-16.7-10.42-11.7.75z"/>
    <path fill="#C83E2C" d="M26.42 274.48l-10.6 4.93-10.2-1.7-4.3 7.7 8.64 6.3 6.75-2.2 4.7 1.3-5.2 15.1L3 332.2l-2.08 7.7 5.7 3.32L15 331.4l10.9-18.9-7.04 21.5-4.15 13.38L22 350l6.6-14.5 9.27-20.34-.7 25.95.5 10.6 8.37.9-.53-14.4 2.1-17.9 2.2-.1 4.2 11.3 3.6 4.1 3.1 3.7 5.3-.9 1.1-4L60 325l-3.4-8.37 6.9-22.6 2.5-10.17-1.25-7.53-16.1-8.93-12.9 2.55-3.54 3-5.5 1.74z"/>
    <path fill="#A43426" d="M64.65 275.86l-2.98 11.5-4.4 18.63-.8 10.8 9.9-33.4-1.72-7.6z"/>
    <path fill="#A43426" d="M21.37 290.55h10l8.6-12.65 1.4-9.7-5.57.9-3.72 3.83 4.43 4.97-6 11.3-9.1 1.35z"/>
    <path fill="#A43426" d="M15.37 307.94l5.15.7 5.2 4.52-2.5-6.4-6.7-1.48-1.15 2.66z"/>
    <path fill="#A43426" d="M25.98 312.58l4.3-2.38 6.52.5 1.13 5-2.87-2.9-4.18-1.26-4.9 1.04z"/>
    <path fill="#A43426" d="M38.2 316.37l3.04-1.9 6.43.56.28 5.04-1.97-3.56-4.32-.7-3.47.7z"/>
    <path fill="#A43426" d="M49.37 319.95l1.3-3.2 5.75-.5-4.48 1.65-2.57 2.05z"/>
    <path fill="#9BDAFF" d="M34.2 300.2l5.9 5.47 5.78.08 5.5-4.05 1.97-4.3-1.2-4.95-3.9-4.24-8.94-1.8-3.4 2.9-3.1 6.2 1.5 4.9z"/>
    <path fill="#FFF" d="M35.32 299.84l5.2 4.82 5.06.07 4.83-3.56 1.8-3.78-1-4.4-3.4-3.7-7.8-1.7-3 2.5-2.7 5.4 1.3 4.2z"/>
    <path fill="#CEBA26" d="M135.7 191.86l-1.33-1.57-10.76-37.5 2.4-.8 11.2 38-1.4 1.8z"/>
  </g>
</svg>
