<svg xmlns="http://www.w3.org/2000/svg">
  <g fill="none" fill-rule="evenodd">
    <path fill="#090909" d="M288.97 359l2.6-75.65s-2.83-70.08-3.06-71.32c-.2-1.48-40-76.2-40-76.2l-56.2-14.63-30.6-15.2h-26.9l-18.3 15.2-61.1 24.1L21 212.07 5.42 297.4l17.6 61.6H289z"/>
    <path fill="#383838" d="M79.23 215.8L66.7 152.63l48.84-31.42 18.3-15.2h26.87l30.6 15.3 39.1 22-6.7 74.2-20.4 45.8 4 40.6H95.4l4.27-40.52L79.23 216z"/>
    <path fill="#1B1B1B" d="M149.83 189.8l1.5-4.14 3.15-5.82 5.28-4.62 5.84-3.38 5.7-2.3 7-1.04 6.72-.43h5.95l5.72.5-.7-5.33-22.7-20.12-1.5-.16.4 1.78-.9 2.45-2.5 3.1-1.8 1-5.55 1.1-6.07 1.1-1.56-1.1-.8-2.6.03-4-1.64 3.9-1.86-.6-2.17.5-1.9-4.1-.3 5.1-1.55 2.73-5.9-1.15-7.06-1.3-2.76-3.3-1.5-2.8.32-2.4-23.8 21.8-.37 2.2-.6 1.8 4.93-.38 5.2-.2 5.5.13 5.34.7 4.4.8 5.88 1.94 5.2 2.8 3.4 3.2 3.5 4.23 2.88 4.95 1.3 3.1z"/>
    <path fill="#A3850C" d="M95.87 284.43h113.17v18.24H95.87v-18.24z"/>
    <path fill="#000" fill-opacity=".1" d="M162.36 293.26l-3.96-13.76 6.4 8 6.68 16.65H151.7l10.66-10.9z"/>
    <path fill="#C8A000" d="M140.8 298.1l-4.9-10.6 6.44-8h16.27l6.5 8-4.9 10.6-7.9 6.05h-4l-7.3-6.05z"/>
    <path fill="#000" fill-opacity=".1" d="M111.52 177.7l-16.64 38.2 19.92 58.8-6.73 26.55-8.56 36.9-25.3-66.5 14.3-93.95 23.1-25.96 6.5-12.26 30.8-18.23-37.2 56.44zm100.46 17.68l-4.58 27.75-16.65 62.84-4.8 24.1 26.03-3.67v-25l11.3-11.75 9.48-56.9-13.44-38.1-33.38-24.9-6.5-12.25-30.7-18.22 63.24 76.1z"/>
    <path fill="#1A1A1A" d="M291.83 359v-36.33l7.64-62.5-5.5-54.25-12.83-59.14-39.73-32.92-64.1-33.22L179.4.77l-10.1 17.07-8.24-6.7L149.76 9l-12.25 2.14-9.4 6.1L119.8.46l1.52 81.08-63.56 32.62-32.7 39.93-9.48 61.2L0 281.8l7.64 46.03L9.37 359h94.1l-2.07-19.9-1.78-25.27 7.03-66.45-15.9-71.33 59-54.26 63.85 57.3-7.64 42-3.36 42-18.33 62.2V359h107.56z"/>
    <path fill="#0F0F0F" d="M286.6 359v-43.18l7.93-51.76-7.94-56.02-12.3-57.85-35.8-31.4-42.4-22.2 42.4 39.5 29.9 29.2 12.2 45.7 1.8 52.9-1.8 51.7 1.5 28.4 2.2 14.75h2.2z"/>
    <path fill="#000" fill-opacity=".1" d="M166 107.6l-16.5 12.17-17.75-11.87-13.64-22.22 18.7 16.7h25.1l19.1-17.6-15 22.82z"/>
    <path fill="#D7B18D" d="M124.04 62.58L149 73.8l24.95-11.22-4.6 26.1-1.97 2.96-10.27 6.44h-18l-8.1-6.15-2.6-3.26-4.3-26.1z"/>
    <path fill="#C8A27E" d="M128.98 65.05l19.98 9.05 19.06-8.45-19.06 14.2-19.98-14.8zm13.84 31.05l6.02-.52 4.85.53-4.9-3.4-6 3.5z"/>
    <path fill="#FFF" d="M128 48.3l10.5 11.82 6.8-6.23-17.3-5.6z"/>
    <path fill="#DCDCDC" d="M128 48.3l15.4 7.38 1.9-1.74L128 48.3z"/>
    <path fill="#FFF" d="M171.48 48.3l-10.5 11.82-6.8-6.23 17.3-5.6z"/>
    <path fill="#DEDEDE" d="M171.48 48.3l-14.73 7.87-2.57-2.33 17.3-5.55z"/>
    <path fill="#2D2D2D" d="M100.06 194.96l-7.65-9.62 8.6 8.07 34.8 4.8 13.9-6.9 10.8 6.7 46.7-6 8.9-6.5-8.8 8.4-46.7 8.4-10.8-8.3-12.2 8.4-37.3-7.12z"/>
    <path fill="#000" fill-opacity=".1" d="M147.42 152.8l1.64-26.13.98 25.84 1.18 31.6-2.16 5.2-2.3-5.1.66-31.3z"/>
    <path fill="#2F2F2F" d="M149.16 60.12l1.56 11.83-1.56 1.48-1.4-1.48 1.4-11.83z"/>
    <path fill="#1B1B1B" d="M149.24 60.12L151 72.44l4.17-3-5.93-9.32z"/>
    <path fill="#1B1B1B" d="M149.74 60.12l-1.88 11.83-5.04-1.82 6.92-10z"/>
    <path fill="#2D2D2D" d="M191.25 217l-16.48 5.46-25.62-5.46-25.32 7.28-17.1-5.76 17.1 3.94 25-6.06 25.94 4.55 16.48-3.95zm-6.92 18.04l-12.9 3.76-22.97-5.33-22.4 6.6-11.9-3.15 12.22 2.5 22.12-6.26 22.93 4.7 12.9-2.82zm-8.4 15.8l-8.94.88-18-3.48-17.6 4.64-8.5-.58h8.7l17.3-4.35 17.9 2.9h8.9z"/>
    <path fill="#282828" d="M21.2 359l9.13-34.27-4.88-52.8 6.4-50.07L45.7 154.4l15.7-30.2 17.67-15.28-17.67 9.77-29.55 35.7-10.35 62.5-9.2 54.9 5.8 52.8-2 34.3h5.03z"/>
  </g>
</svg>
