<svg xmlns="http://www.w3.org/2000/svg" viewBox="0 0 266 267" width="100px" height="100px" xmlns:xlink="http://www.w3.org/1999/xlink">
  <defs>
    <circle id="a" cx="129" cy="129" r="128.67"/>
    <filter id="c" width="200%" height="200%" x="-50%" y="-50%" filterUnits="objectBoundingBox">
      <feGaussianBlur in="SourceGraphic" result="blur"/>
    </filter>
    <filter id="d" width="200%" height="200%" x="-50%" y="-50%" filterUnits="objectBoundingBox">
      <feGaussianBlur in="SourceGraphic" result="blur"/>
    </filter>
    <filter id="e" width="200%" height="200%" x="-50%" y="-50%" filterUnits="objectBoundingBox">
      <feGaussianBlur in="SourceGraphic" result="blur"/>
    </filter>
    <filter id="f" width="200%" height="200%" x="-50%" y="-50%" filterUnits="objectBoundingBox">
      <feGaussianBlur in="SourceGraphic" result="blur"/>
    </filter>
    <filter id="g" width="200%" height="200%" x="-50%" y="-50%" filterUnits="objectBoundingBox">
      <feGaussianBlur in="SourceGraphic" result="blur"/>
    </filter>
    <filter id="h" width="200%" height="200%" x="-50%" y="-50%" filterUnits="objectBoundingBox">
      <feGaussianBlur in="SourceGraphic" result="blur"/>
    </filter>
    <filter id="i" width="200%" height="200%" x="-50%" y="-50%" filterUnits="objectBoundingBox">
      <feGaussianBlur in="SourceGraphic" result="blur"/>
    </filter>
    <filter id="j" width="200%" height="200%" x="-50%" y="-50%" filterUnits="objectBoundingBox">
      <feGaussianBlur in="SourceGraphic" result="blur"/>
    </filter>
    <filter id="k" width="200%" height="200%" x="-50%" y="-50%" filterUnits="objectBoundingBox">
      <feGaussianBlur in="SourceGraphic" result="blur"/>
    </filter>
  </defs>
  <g fill="none" fill-rule="evenodd">
    <g transform="translate(4 4.5)">
      <mask id="b" fill="#fff">
        <use xlink:href="#a"/>
      </mask>
      <use stroke="#38223D" stroke-width="8" xlink:href="#a"/>
      <g mask="url(#b)">
        <path fill="#494772" d="M-479.48-134.4H737.48v487.33H-479.48z"/>
        <g transform="translate(-123.513 -123.513)">
          <ellipse cx="252.51" cy="251.83" fill="#8F566D" fill-opacity=".2" filter="url(#c)" rx="251.22" ry="251.22"/>
          <circle cx="252.51" cy="251.83" r="226.71" fill="#A15A69" fill-opacity=".2" filter="url(#d)"/>
          <circle cx="252.51" cy="251.83" r="202.2" fill="#B15F67" fill-opacity=".2" filter="url(#e)"/>
          <circle cx="252.51" cy="251.83" r="177.69" fill="#C76863" fill-opacity=".2" filter="url(#f)"/>
          <circle cx="252.51" cy="251.83" r="153.18" fill="#D16D5E" fill-opacity=".2" filter="url(#g)"/>
          <circle cx="252.51" cy="251.83" r="128.67" fill="#DF764F" fill-opacity=".2" filter="url(#h)"/>
          <circle cx="252.51" cy="251.83" r="104.16" fill="#E67D57" fill-opacity=".2" filter="url(#i)"/>
          <circle cx="252.51" cy="251.83" r="79.66" fill="#ED8452" fill-opacity=".2" filter="url(#j)"/>
          <circle cx="252.51" cy="251.83" r="55.15" fill="#F8914C" fill-opacity=".2" filter="url(#k)"/>
          <circle cx="252.51" cy="251.83" r="30.64" fill="#FFFECB"/>
        </g>
        <path fill="#442A4A" d="M278.5 62.7c-7.6.65-22.47 6.88-35.7 13.1-12.47 5.85-34.6 10.7-42 9.42-3.57-.62-18.02 10.96-21.83 14.7-1.46 1.45-26.4 11.35-38.53 14.72-17.76 4.93-40.2 5.03-47.6 6.9-1.7.44-18.33 2.82-38.74 2.82-20.4 0-42.62 7.86-50.5 8.5-13.02 1.05-20.4-8.5-57.55-8.5-38.26 0-39.1-11.22-73.22 0s-66.76 10.27-79.3 8.5c-6.36-.9-1.76-4.4-34.42-4.15-22.6.2-29.9-12.5-102.7-12.5-40 0-58.5-3-60.2-3-9.4.2-25.1 4.4-31.3 3-17.5-3.8-36.8 5.4-36.8 5.4v94.3l1173.4-1.3V23.8s-18.8 9.26-29.5 7.33c-10.9-1.93-50 12.27-58 13.77-9.5 1.88-46.5-6.4-50.7-6.4-12.3 0-22.6-7.97-26.1-7.4-20.4 3.3-25 8.73-30.9 11.58-15.9 7.65-42.8-14.53-64.2-13.4-23.7 1.24-46.5-.08-54.4 2.65-19 6.57-38.9 6.27-76.8 18.47-7.2 2.3-21.2 11.33-32.2 12.3z"/>
        <path fill="#3C2643" d="M-3.96 155.58c23.5-6.94 30.13-13.07 54.75-16.2 4-.5 17.8-5.02 21.7-5.02 11.9 0 11.2.02 13.3 0 7.8-.07 9-6.14 18-11.9 8.9-5.78 51.7-4.68 54.5 0 2.7 4.42 13.9 4.1 15 4.2 15.6 1.33 8.2 3.58 14 3.58 5.8 0 18.1 3.55 25.1 4.12 5.4.44 21.4-6 29.9-4.12 9.6 2.13 38.1 7.87 46.1 11.6 11.5 5.32 33.5-2.33 63.9-6 26.6-3.22 58.8-11.62 71.4-13.4 6.3-.9 43.8-14.68 76.5-14.4 22.6.17 47.9-6.46 76 5.4 3.2 1.4 60.3 8.98 62.1 9 9.4.15 8.6-3.84 14.9-5.2 17.5-3.8 53.2 0 53.2 0v203.23h-1158V169.2s18.3-2.18 29.1-4.1c10.7-1.94 45.4-3.43 53.4-1.87 9.5 1.86 16.8 3.78 21 3.78.6 0 40.1-2.8 43.8-3.7 20.02-5.2 16.6-4.9 29.63-7.9 31.15-7.1 61.02-2.1 82.46-1 51.96 2.8 62.55 12.9 93.2 12.7 22.97-.1 53.8-.1 54.73 0 4.33.6 19.45-5.3 40.22-11.4z"/>
        <path fill="#3D2643" d="M111.7 92.92v19.8l15.84-5.45v-.07l.1.04.1-.04v.07l15.8 5.46v-17.5c-.14-2.3-1.52-2.3-1.52-2.3h.76-.76V91.2h.95-.95s1.75-.02 1.9-2.36v-2.3c0-.52.27-.96.66-1.22-.4-.17-.65-.46-.65-.8 0-.32.24-.6.6-.78-.02-.08-.03-.17-.03-.27v-1.9c0-.47.38-.86.86-.86.47 0 .85.4.85.9v2.2c.4.2.6.5.6.8 0 .4-.2.7-.6.8.3.2.5.5.6.9.6-1.6 1.9-2.8 3.5-3.3-.6-.3-1.1-.8-1.1-1.4 0-.7.7-1.4 1.7-1.6-.1-.1-.1-.3-.1-.5V77c0-.66.5-1.17 1.2-1.17s1.2.5 1.2 1.16v2.4c0 .2 0 .4-.1.5 1 .2 1.7.9 1.7 1.6 0 .6-.4 1.1-1 1.4 1.6.5 2.9 1.7 3.5 3.3.1-.38.3-.68.6-.87-.4-.2-.6-.5-.6-.8 0-.36.2-.6.6-.8v-2.2c0-.5.4-.86.87-.86s.88.4.88.9v1.9c0 .1 0 .2-.03.26.3.1.6.4.6.72 0 .3-.3.6-.7.8.4.2.7.7.7 1.2v4.63h1.9V93h-1.5v21.15h1.5v1.7h-1.57v19.28h1.5v1.7h-1.55v23.07h-65v-20.8c-.15-2.3-1.5-2.33-1.5-2.33h.74-.8v-1.7h.7-.74s1.4-.03 1.5-2.34v-14.6c-.16-2.3-1.5-2.3-1.5-2.3h.73-.8v-1.73h.74-.8s1.4 0 1.56-2.32v-16.5c-.2-2.36-1.6-2.38-1.6-2.38h.8-.78v-1.7h1-.94s1.7-.02 1.9-2.36v-2.3c0-.52.24-.96.64-1.22-.4-.17-.6-.46-.6-.8 0-.32.24-.6.6-.78-.06-.1-.07-.17-.07-.27v-1.9c0-.48.3-.86.8-.86s.8.4.8.9v2.2c.4.2.6.5.6.8 0 .4-.22.7-.6.8.3.2.5.5.6.9.6-1.6 1.9-2.8 3.5-3.3-.7-.3-1.1-.8-1.1-1.4 0-.7.63-1.4 1.6-1.6-.07-.1-.1-.3-.1-.5V77c0-.65.5-1.17 1.14-1.17.65 0 1.16.5 1.16 1.14v2.47c0 .2 0 .4-.1.5 1 .3 1.7.9 1.7 1.7 0 .6-.46 1.14-1.1 1.47 1.6.5 2.9 1.8 3.5 3.3.1-.3.3-.6.6-.8-.4-.1-.66-.4-.66-.8 0-.3.23-.6.6-.7-.04-.1-.05-.2-.05-.3v-1.9c0-.4.3-.8.8-.8s.9.4.9.9v1.9c0 .1 0 .2-.07.3.36.2.6.5.6.8 0 .4-.26.7-.65.8.4.3.7.7.7 1.2v2c0 2.7 1.9 2.7 1.9 2.7h-1.9v-3.2 3.2h1.9V93h-1.55v2.7c0-2.7 1.54-2.7 1.54-2.7h-1.5zm48.05-4.9zm.38 7.6v-2.7h1.54s-1.53 0-1.54 2.7zm0 15.76v2.7h1.54s-1.53-.02-1.54-2.7zm0 7.1v-2.7h1.54s-1.53.02-1.54 2.7zm0 13.87v2.7h1.54s-1.53-.03-1.54-2.7zm0 7.1v-2.7h1.54s-1.53.02-1.54 2.7z"/>
        <path fill="#3D2643" d="M85.36 143.95c29.2 2.87 54.53 15.5 69.27 19.24 5.3 1.3 65.07 5.4 76.64 6.4 13 1 20.4-8.5 57.54-8.5 38.3 0 39.2-11.3 73.3 0 34.1 11.2 66.8 10.2 79.3 8.5 6.4-.9 1.8-4.4 34.4-4.2 22.6.2 30-12.6 102.7-12.6 40.1 0 58.5-3 60.3-3 9.4.1 25.2 4.3 31.4 3 17.5-3.8 36.8 5.4 36.8 5.4v135.2H-451.6v-188s19.7-4.9 30.45-6.8c10.74-1.9 47.6 12.6 55.63 14.2 9.56 1.8 24-3.8 28.22-3.8.6 0 29.4.9 33.06 0 20.06-5.2 36.76 6.7 49.85 3.8 31.2-7.1 40.9-13.9 62.3-12.8 52 2.7 89.2 0 119.9 8.1 40.7 10.7 50.7 25.2 157.6 35.7z"/>
        <path fill="#37223D" d="M160.2 173.03c-56.22-9.9-56.33-23.5-73.58-23.5-45.64 0-30.65-4.03-36.88-4.1-32.72-.3-24.54 5.12-58.23 5.12-76.8 0-87.2-21.34-103.6-20.02-13 1.05-20.4-8.5-57.5-8.5-38.2 0-39.1-11.23-73.2 0-34.1 11.2-66.7 23.88-79.3 22.1-6.3-.9-1.7-4.4-34.4-4.14-22.6.1-29.9-12.6-102.7-12.6-40 0-58.5-3-60.2-3-9.4.1-25.1 4.3-31.3 3-17.5-3.8-36.8 5.4-36.8 5.4v216.8H570.8V191.5s-19.7-4.9-30.44-6.82c-10.76-1.92-47.63 12.6-55.64 14.18-9.6 1.86-24.04-3.78-28.25-3.78-.6 0-29.4.95-33.06 0-20.1-5.23-36.8 6.75-49.8 3.78-31.1-7.05-40.8-13.82-62.2-12.7-51.9 2.8-86.7 5.4-119.8 0-12-1.9 0-7.6-31.2-13.1z"/>
      </g>
    </g>
    <path fill="#FFF" d="M62.35 194.96h6.02c2.15 0 3.9-.25 5.3-.78 2.57-.98 3.85-2.83 3.85-5.32 0-2.5-1.28-4.17-3.86-4.93v-.06c1.85-.67 3.05-1.93 3.05-4.1 0-1.7-.7-3.06-2.2-3.93-1.4-.76-3.4-1.15-6.1-1.15h-5.9v20.2zm4.45-11.87v-4.6h1.37c1.18 0 2.4 0 3.14.5.8.4 1 1.1 1 1.7 0 1.6-1.3 2.3-3.1 2.3h-2.4zm0 8v-5h2.66c2.38 0 3.6.8 3.6 2.5 0 .9-.3 1.6-1.25 2-.6.3-1.7.4-3.3.4h-1.7zm14.94 3.8h4.45v-8h1.9l5.1 8h5.1l-5.7-8.6c2.6-.9 4.1-3 4.1-5.6 0-2.4-1-3.9-2.5-4.8-1.7-1-3.9-1.4-6.3-1.4h-6.3v20.2zm4.45-11.4v-5.1h1.7c1.5 0 2.6.1 3.3.5.8.4 1.1 1 1.1 2 0 .9-.4 1.6-1.2 2-.7.3-1.6.4-2.8.4h-2.2zm14.2 11.3h4.6l1.6-4.3h8.1l1.6 4.2h4.7l-8.2-20.2h-4.3l-8.3 20.2zm8.4-9.9l1.9-5.3c.5 1.5 1.2 3.5 1.8 5.1l.8 2.2H108l.8-2.2zm31.9-.9h-7.9v3.7h3.5v3c-.7.3-1.6.4-2.5.4-4.2 0-6.7-3-6.7-6.5 0-3.6 2.6-6.5 6.7-6.5 2.2 0 4.4.8 6.1 2v-4.5c-1.6-.9-3.8-1.6-6.3-1.6-6.5 0-11.1 4.5-11.1 10.5 0 5.9 4.6 10.3 11.1 10.3 2.5 0 5.1-.7 6.9-1.7V184zm3.2 10.7h4.5l1.6-4.3h8.2l1.6 4.2h4.7l-8.3-20.3H152l-8 20.4zm8.4-9.9c.6-1.7 1.3-3.7 1.9-5.3l1.8 5.1.8 2.2h-5.5l.8-2.2z"/>
    <path fill="#F1B918" d="M168.2 192.75c0 1.4 1.18 2.52 2.58 2.52 1.4 0 2.58-1.12 2.58-2.52s-1.18-2.52-2.58-2.52c-1.4 0-2.57 1.12-2.57 2.52zm13.38-4.37c0 2.13-.4 2.9-2.07 2.9-.6 0-1.7-.2-2.5-.55v4c.7.3 1.8.54 3 .54 1.8 0 3.7-.48 4.8-1.85.9-1.03 1.4-2.52 1.4-5.12v-13.6h-4.4v13.68zm9.4 5.4c1.9 1 4.4 1.5 6.4 1.5 4.38 0 7.37-2.4 7.37-6.34 0-3.58-2.46-5-5.5-6.02-2.45-.8-4.33-.95-4.33-2.74 0-1.35 1.1-1.9 2.6-1.9 1.58 0 4.07.6 6.22 1.95v-4.4c-1.76-.94-4.2-1.45-6.18-1.45-4.26 0-7.12 2.35-7.12 6.13 0 3.6 2.52 4.9 5.32 5.9 2.6.9 4.5 1 4.5 2.9 0 1.5-1.2 2.2-2.82 2.2-1.6 0-4.3-.6-6.46-2.1v4.5z"/>
    <text fill="#FFF" font-family="Grafolita Script" font-size="24" font-style="italic" font-weight="420" transform="translate(4 4)">
      <tspan x="74" y="216.96">— meetup —</tspan>
    </text>
  </g>
</svg>
