<svg xmlns="http://www.w3.org/2000/svg" viewBox="0 0 419 100">
    <g fill="none" fill-rule="evenodd">
        <path fill="#F9E02D" d="M50.127.376l28.468 28.468H21.66L50.126.376z"/>
        <path fill="#D0BB28" d="M36.258 28.844h-14.6l7.3-7.3 7.3 7.3z"/>
        <path fill="#2AA7F0" d="M.49 50.013L28.958 78.48V21.546L.49 50.013z"/>
        <path fill="#258CCA" d="M21.66 71.182l7.298 7.3v-14.6l-7.3 7.3z"/>
        <path fill="#F0772A" d="M50.127 99.65l28.468-28.468H21.66L50.126 99.65z"/>
        <path fill="#19D474" d="M78.23 28.48l21.534 21.533L71.296 78.48V28.845l6.934-.365z"/>
        <path fill="#D96C27" d="M71.296 71.182v7.3l-7.3-7.3h7.3z" opacity=".6"/>
        <path fill="#16B263" d="M71.323 35.94l.012-7.154 6.856-.28-6.866 7.434z"/>
        <path fill="#627087" d="M138.24 57.544c.235 0 .437.09.608.272l1.696 1.84a9.323 9.323 0 0 1-3.464 2.672c-1.37.62-3.016.928-4.936.928-1.717 0-3.26-.293-4.632-.88A10.237 10.237 0 0 1 124 59.928c-.97-1.045-1.715-2.293-2.232-3.744-.517-1.45-.776-3.035-.776-4.752 0-1.74.288-3.33.864-4.776.576-1.445 1.387-2.69 2.432-3.736 1.045-1.045 2.296-1.86 3.752-2.44 1.456-.58 3.064-.872 4.824-.872 1.717 0 3.22.275 4.504.824 1.285.55 2.387 1.277 3.304 2.184l-1.44 2c-.085.128-.195.24-.328.336-.133.096-.317.144-.552.144-.245 0-.496-.096-.752-.288a9.17 9.17 0 0 0-.976-.624c-.395-.224-.893-.432-1.496-.624s-1.368-.288-2.296-.288c-1.088 0-2.088.19-3 .568-.912.38-1.696.92-2.352 1.624-.656.704-1.168 1.56-1.536 2.568-.368 1.008-.552 2.14-.552 3.4 0 1.3.184 2.46.552 3.472.368 1.013.867 1.867 1.496 2.56a6.392 6.392 0 0 0 2.224 1.592c.853.368 1.77.552 2.752.552.587 0 1.117-.032 1.592-.096a6.728 6.728 0 0 0 1.312-.304c.4-.14.78-.317 1.136-.536.357-.22.712-.488 1.064-.808.107-.096.22-.173.336-.232a.828.828 0 0 1 .384-.088zm10-3.584V63h-4.304V39.864h7.056c1.58 0 2.93.163 4.056.488 1.125.325 2.048.78 2.768 1.368a5.284 5.284 0 0 1 1.584 2.104c.336.816.504 1.715.504 2.696 0 .78-.115 1.515-.344 2.208a6.405 6.405 0 0 1-.992 1.888 6.713 6.713 0 0 1-1.6 1.488 8.376 8.376 0 0 1-2.168 1.024c.544.31 1.013.752 1.408 1.328L162 63h-3.872c-.373 0-.69-.075-.952-.224a1.964 1.964 0 0 1-.664-.64l-4.864-7.408c-.18-.277-.38-.475-.6-.592-.22-.117-.54-.176-.968-.176h-1.84zm0-3.088h2.688c.81 0 1.517-.1 2.12-.304.603-.203 1.1-.483 1.488-.84.39-.357.68-.78.872-1.272.192-.49.288-1.03.288-1.616 0-1.173-.387-2.075-1.16-2.704-.773-.63-1.955-.944-3.544-.944h-2.752v7.68zm31.104-11.008v3.424h-10.256v6.416h8.08v3.312h-8.08v6.544h10.256V63h-14.592V39.864h14.592zM203.408 63h-3.328c-.373 0-.68-.093-.92-.28a1.604 1.604 0 0 1-.52-.696l-1.728-4.72h-9.584l-1.728 4.72c-.085.245-.253.47-.504.672-.25.203-.557.304-.92.304h-3.344l9.088-23.136h4.4L203.408 63zm-14.976-8.736h7.376l-2.816-7.696a32.867 32.867 0 0 1-.88-2.72c-.15.544-.296 1.05-.44 1.52-.144.47-.285.88-.424 1.232l-2.816 7.664zm31.312-14.4V43.4h-6.96V63h-4.304V43.4h-6.992v-3.536h18.256zm23.68 11.568c0 1.696-.283 3.267-.848 4.712-.565 1.445-1.36 2.696-2.384 3.752-1.024 1.056-2.256 1.88-3.696 2.472-1.44.592-3.035.888-4.784.888-1.75 0-3.347-.296-4.792-.888-1.445-.592-2.683-1.416-3.712-2.472-1.03-1.056-1.827-2.307-2.392-3.752-.565-1.445-.848-3.016-.848-4.712 0-1.696.283-3.267.848-4.712.565-1.445 1.363-2.696 2.392-3.752 1.03-1.056 2.267-1.88 3.712-2.472 1.445-.592 3.043-.888 4.792-.888 1.75 0 3.344.3 4.784.896 1.44.597 2.672 1.42 3.696 2.472 1.024 1.05 1.82 2.3 2.384 3.744.565 1.445.848 3.016.848 4.712zm-4.416 0c0-1.27-.168-2.408-.504-3.416-.336-1.008-.82-1.864-1.448-2.568a6.238 6.238 0 0 0-2.296-1.616c-.9-.373-1.917-.56-3.048-.56-1.13 0-2.15.187-3.056.56a6.29 6.29 0 0 0-2.312 1.616c-.635.704-1.123 1.56-1.464 2.568-.34 1.008-.512 2.147-.512 3.416 0 1.27.17 2.408.512 3.416.34 1.008.83 1.86 1.464 2.56a6.317 6.317 0 0 0 2.312 1.608c.907.373 1.925.56 3.056.56 1.13 0 2.147-.187 3.048-.56a6.29 6.29 0 0 0 2.296-1.608c.63-.7 1.112-1.552 1.448-2.56.336-1.008.504-2.147.504-3.416zm12.256 2.528V63h-4.304V39.864h7.056c1.58 0 2.93.163 4.056.488 1.125.325 2.048.78 2.768 1.368a5.284 5.284 0 0 1 1.584 2.104c.336.816.504 1.715.504 2.696 0 .78-.115 1.515-.344 2.208a6.405 6.405 0 0 1-.992 1.888 6.713 6.713 0 0 1-1.6 1.488 8.376 8.376 0 0 1-2.168 1.024c.544.31 1.013.752 1.408 1.328L265.024 63h-3.872c-.373 0-.69-.075-.952-.224a1.964 1.964 0 0 1-.664-.64l-4.864-7.408c-.18-.277-.38-.475-.6-.592-.22-.117-.54-.176-.968-.176h-1.84zm0-3.088h2.688c.81 0 1.517-.1 2.12-.304.603-.203 1.1-.483 1.488-.84.39-.357.68-.78.872-1.272.192-.49.288-1.03.288-1.616 0-1.173-.387-2.075-1.16-2.704-.773-.63-1.955-.944-3.544-.944h-2.752v7.68zm28.912-6.8c-.117.235-.253.4-.408.496a1.03 1.03 0 0 1-.552.144c-.213 0-.453-.083-.72-.248-.267-.165-.58-.35-.944-.552a7.677 7.677 0 0 0-1.272-.552c-.485-.165-1.06-.248-1.72-.248-.597 0-1.117.072-1.56.216a3.3 3.3 0 0 0-1.12.6c-.304.256-.53.563-.68.92a3.01 3.01 0 0 0-.224 1.176c0 .544.152.997.456 1.36.304.363.707.672 1.208.928.5.256 1.072.485 1.712.688.64.203 1.293.42 1.96.648.667.23 1.32.496 1.96.8.64.304 1.21.688 1.712 1.152a5.24 5.24 0 0 1 1.208 1.704c.304.672.456 1.488.456 2.448 0 1.045-.18 2.024-.536 2.936a6.766 6.766 0 0 1-1.568 2.384c-.688.677-1.528 1.21-2.52 1.6-.992.39-2.128.584-3.408.584-.736 0-1.46-.072-2.176-.216a11.5 11.5 0 0 1-2.056-.616 10.758 10.758 0 0 1-1.84-.96 9.097 9.097 0 0 1-1.528-1.248l1.248-2.064c.117-.15.26-.275.424-.376.165-.1.35-.152.552-.152.267 0 .555.11.864.328.31.22.675.46 1.096.728.42.267.917.51 1.488.728.57.22 1.256.328 2.056.328 1.227 0 2.176-.29 2.848-.872.672-.58 1.008-1.416 1.008-2.504 0-.608-.152-1.104-.456-1.488a3.68 3.68 0 0 0-1.208-.968 9.051 9.051 0 0 0-1.712-.664c-.64-.18-1.29-.38-1.952-.592-.66-.213-1.312-.47-1.952-.768-.64-.3-1.21-.688-1.712-1.168-.5-.48-.904-1.08-1.208-1.8-.304-.72-.456-1.608-.456-2.664 0-.843.168-1.664.504-2.464.336-.8.827-1.51 1.472-2.128.645-.62 1.437-1.115 2.376-1.488.94-.373 2.01-.56 3.216-.56 1.365 0 2.624.213 3.776.64 1.152.427 2.133 1.024 2.944 1.792l-1.056 2.032zm22.912-.96c-.096.18-.235.272-.416.272-.14 0-.317-.1-.536-.296a7.15 7.15 0 0 0-.888-.656c-.373-.24-.84-.46-1.4-.664-.56-.203-1.25-.304-2.072-.304-.82 0-1.544.117-2.168.352-.624.235-1.147.555-1.568.96-.42.405-.74.875-.96 1.408a4.359 4.359 0 0 0-.328 1.68c0 .768.163 1.403.488 1.904.325.5.755.928 1.288 1.28s1.14.648 1.816.888c.677.24 1.373.477 2.088.712.715.235 1.41.493 2.088.776a7.529 7.529 0 0 1 1.816 1.064c.533.427.963.952 1.288 1.576.325.624.488 1.4.488 2.328 0 .95-.163 1.843-.488 2.68a6.25 6.25 0 0 1-1.416 2.184c-.62.62-1.376 1.107-2.272 1.464-.896.357-1.92.536-3.072.536-1.493 0-2.78-.264-3.856-.792a9.095 9.095 0 0 1-2.832-2.168l.448-.704c.128-.16.277-.24.448-.24.096 0 .22.064.368.192.15.128.33.285.544.472.213.187.47.39.768.608.3.22.645.42 1.04.608.395.187.848.344 1.36.472a7.21 7.21 0 0 0 1.744.192c.896 0 1.696-.136 2.4-.408.704-.272 1.3-.643 1.784-1.112a4.727 4.727 0 0 0 1.112-1.672 5.566 5.566 0 0 0 .384-2.072c0-.8-.163-1.46-.488-1.976a4.201 4.201 0 0 0-1.288-1.296 8.33 8.33 0 0 0-1.816-.872 72.11 72.11 0 0 0-2.088-.688 26.32 26.32 0 0 1-2.088-.752 7.187 7.187 0 0 1-1.816-1.064 4.863 4.863 0 0 1-1.288-1.616c-.325-.645-.488-1.453-.488-2.424 0-.757.144-1.488.432-2.192a5.464 5.464 0 0 1 1.264-1.864c.555-.54 1.24-.97 2.056-1.296.816-.325 1.747-.488 2.792-.488 1.173 0 2.227.187 3.16.56.933.373 1.784.944 2.552 1.712l-.384.736zm22.224 16.08c.107 0 .197.037.272.112l.64.688c-.47.5-.98.952-1.536 1.352-.555.4-1.16.74-1.816 1.024-.656.283-1.376.5-2.16.656-.784.155-1.645.232-2.584.232-1.568 0-3.005-.275-4.312-.824a9.579 9.579 0 0 1-3.36-2.336c-.933-1.008-1.66-2.227-2.184-3.656-.523-1.43-.784-3.02-.784-4.768 0-1.717.27-3.285.808-4.704.54-1.42 1.296-2.637 2.272-3.656a10.111 10.111 0 0 1 3.504-2.368c1.36-.56 2.86-.84 4.504-.84.82 0 1.573.06 2.256.184.683.123 1.32.3 1.912.528.592.23 1.15.515 1.672.856.523.34 1.035.736 1.536 1.184l-.496.72c-.085.128-.22.192-.4.192-.096 0-.22-.056-.368-.168-.15-.112-.34-.25-.568-.416-.23-.165-.507-.347-.832-.544a6.658 6.658 0 0 0-1.16-.544 9.857 9.857 0 0 0-1.552-.416 10.732 10.732 0 0 0-2-.168c-1.376 0-2.64.237-3.792.712a8.502 8.502 0 0 0-2.976 2.032c-.832.88-1.48 1.947-1.944 3.2-.464 1.253-.696 2.66-.696 4.216 0 1.6.23 3.03.688 4.288.46 1.26 1.093 2.323 1.904 3.192a8.24 8.24 0 0 0 2.872 2c1.104.464 2.3.696 3.592.696.81 0 1.533-.053 2.168-.16a8.514 8.514 0 0 0 1.752-.48 7.887 7.887 0 0 0 1.488-.784c.46-.31.912-.672 1.36-1.088.053-.043.104-.077.152-.104a.337.337 0 0 1 .168-.04zM348.848 63H347.2V52.152h-14.176V63h-1.648V40.36h1.648v10.56H347.2V40.36h1.648V63zm26.912-11.328c0 1.75-.26 3.336-.784 4.76-.523 1.424-1.26 2.64-2.208 3.648a9.763 9.763 0 0 1-3.408 2.336c-1.323.55-2.79.824-4.4.824-1.59 0-3.045-.275-4.368-.824a9.758 9.758 0 0 1-3.408-2.336c-.95-1.008-1.688-2.224-2.216-3.648-.528-1.424-.792-3.01-.792-4.76 0-1.74.264-3.32.792-4.744s1.267-2.64 2.216-3.648a9.85 9.85 0 0 1 3.408-2.344c1.323-.555 2.78-.832 4.368-.832 1.61 0 3.077.275 4.4.824a9.699 9.699 0 0 1 3.408 2.344c.95 1.013 1.685 2.232 2.208 3.656.523 1.424.784 3.005.784 4.744zm-1.696 0c0-1.58-.22-2.997-.656-4.256-.437-1.26-1.053-2.325-1.848-3.2a7.924 7.924 0 0 0-2.872-2.008c-1.12-.464-2.363-.696-3.728-.696-1.344 0-2.573.232-3.688.696a8.083 8.083 0 0 0-2.88 2.008c-.805.875-1.43 1.94-1.872 3.2-.443 1.26-.664 2.677-.664 4.256 0 1.59.22 3.01.664 4.264.443 1.253 1.067 2.317 1.872 3.192a8.013 8.013 0 0 0 2.88 2c1.115.46 2.344.688 3.688.688 1.365 0 2.608-.23 3.728-.688a7.856 7.856 0 0 0 2.872-2c.795-.875 1.41-1.94 1.848-3.192.437-1.253.656-2.675.656-4.264zm27.216 0c0 1.75-.26 3.336-.784 4.76-.523 1.424-1.26 2.64-2.208 3.648a9.763 9.763 0 0 1-3.408 2.336c-1.323.55-2.79.824-4.4.824-1.59 0-3.045-.275-4.368-.824a9.758 9.758 0 0 1-3.408-2.336c-.95-1.008-1.688-2.224-2.216-3.648-.528-1.424-.792-3.01-.792-4.76 0-1.74.264-3.32.792-4.744s1.267-2.64 2.216-3.648a9.85 9.85 0 0 1 3.408-2.344c1.323-.555 2.78-.832 4.368-.832 1.61 0 3.077.275 4.4.824a9.699 9.699 0 0 1 3.408 2.344c.95 1.013 1.685 2.232 2.208 3.656.523 1.424.784 3.005.784 4.744zm-1.696 0c0-1.58-.22-2.997-.656-4.256-.437-1.26-1.053-2.325-1.848-3.2a7.924 7.924 0 0 0-2.872-2.008c-1.12-.464-2.363-.696-3.728-.696-1.344 0-2.573.232-3.688.696a8.083 8.083 0 0 0-2.88 2.008c-.805.875-1.43 1.94-1.872 3.2-.443 1.26-.664 2.677-.664 4.256 0 1.59.22 3.01.664 4.264.443 1.253 1.067 2.317 1.872 3.192a8.013 8.013 0 0 0 2.88 2c1.115.46 2.344.688 3.688.688 1.365 0 2.608-.23 3.728-.688a7.856 7.856 0 0 0 2.872-2c.795-.875 1.41-1.94 1.848-3.192.437-1.253.656-2.675.656-4.264zm8.656 9.936h10.736V63h-12.368V40.36h1.632v21.248z"/>
    </g>
</svg>
