<svg xmlns="http://www.w3.org/2000/svg">
  <g fill="none" fill-rule="evenodd">
    <path fill="#F8E02C" d="M70.96 303.77l4.17-27.45L96 217.36s16.72-2.93 23.42 0c8.47 3.7 22.08 19.85 22.08 19.85l.6 17-21.17 45.4-23.07 29.1-26.9-24.8z"/>
    <path fill="#F8E02C" d="M222.9 303.77l-4.18-27.45-20.87-58.96s-16.7-2.93-23.4 0c-8.48 3.7-22.1 19.85-22.1 19.85l-.58 17 21.16 45.4 23.07 29 26.9-24.8z"/>
    <path fill="#C83E2C" d="M105.6 205.76l-7.74 12.27 15.36 5.58 17.05 8.9 10.33 23.6 12.4.6 9.84-24.4 31-14.2-6.16-13.6-82.1 1.4z"/>
    <path fill="#C83E2C" d="M111.42 162.27l4.4 29.25-7.9 3.82-4.52 14.58h86.34l-3.45-14.58-7.2-4.4 2.9-28.67v-18.5h-70.6v18.5z"/>
    <path fill="#C83E2C" d="M86.85 104.34l12.3 34.56 15.87 18.62h63.78l20.25-19.55 11.2-33.63H86.85z"/>
    <path fill="#C83E2C" d="M146.83 113.17l-9.93.25-8.56 17.8-5.47 18.85-.77 18.74 10 33.2 27.17 1.4 10.77-28.7-.26-28.2-8.2-18.8-5.47-14.4h-9.2z"/>
    <path fill="#C83E2C" d="M101.52 105l8.65 9.52 27.87 3.94 4.8-3.33 5-.4 5.26 4.14 29.42-6.3 16.26-19.35-9.92-18.4-43.97-1.36-50.5 4.22-1.2 22.18 8.2 5.15z"/>
    <path fill="#C83E2C" d="M107.1 76.82l37.05-1.9 46.62 3.6 2.58-10.6-33.8-14.6-33.5 1.78-23.35 11.55 4.4 10.17z"/>
    <path fill="#C83E2C" d="M119.34 65.73l5.12 9.5 41.72-.8 5.9-9.35-9.8-26.2-34.33 1.8-8.6 25.05z"/>
    <path fill="#C83E2C" d="M127.25 9.2l9.12-8.08L150.84.6l8.6 4.1 4.02 6.18v9.34l2.9 3.63-1 12.85-1.9 2.86-.82 4.66-7.58 9.52-4.22 1.97-5.4 1.4-3.44-1.4-6.32-2.9-7.4-8.1-1.63-4.6-2.43-2.6-1.34-13.6 2.55-2.6 1.82-12z"/>
    <path fill="#A43426" d="M127.44 42.5v3.42l7.43 8.15 2.62 9.95 7.4 1.02 7.6-1.02 3.9-9.6 7-9.14.2-3.23-.7-1-35.6 1.45z"/>
    <path fill="#A43426" d="M123.03 23.92l3.23 1.82.35 14.08-2.2-2.52-1.3-13.38z"/>
    <path fill="#A43426" d="M166.36 23.96l-2.96 2.7.16 12.65 1.9-2.8.9-12.5z"/>
    <path fill="#F8E02C" d="M136.7 11.6l2.1 6.58 11.2-.2 2.8-6.5 7.38 4.77.63 8.75-1.8 5.4-9.6 4.67-8.9.22-8.6-2.8-2.9-5.7-1.8-7.8 9.7-7.6z"/>
    <path fill="#F8E02C" d="M128.64 26.42l-3.43 7.47 8.5 12 4.4 17.1 7 .2 7.3-.6 2.8-8.2 1.8-10.1 8.1-12-4.1-7.5-1.8 5.4-9.4 4.6-9.13.1-8.52-2.8-3.2-5.97z"/>
    <path fill="#CEBA26" d="M136.68 55.8l1.48-2.64 13.76-.1 1.97 3.7-2.3-2.07h-12.8l-2.2 1z"/>
    <path fill="#F8E02C" d="M155.2 53.74l7.64-9.68.25-8.94-6.3 9.42-1.7 9.2z"/>
    <path fill="#F8E02C" d="M127.5 36.8l.6 7.84 7.48 8.85-1.98-8-6.1-8.8z"/>
    <path fill="#D9C427" d="M128.68 26.53l2.6 6.68 1.45.6 7.45 2.3 10.43-.4 8.9-4.4 1.3-6.2-1.9 5.2-9.4 4.6-8.6.2-8.9-2.8-3.1-5.6z"/>
    <path fill="#FFF" d="M132.35 32.34l.88 3.45 5.97 1.4 1.4-2.3-8.25-2.6z"/>
    <path fill="#FFF" d="M149.33 34.7l1.17 1.74 5.77-1.37.75-3.96-7.7 3.6z"/>
    <path fill="#D9C427" d="M155.3 53.6l2.77-8.32 5.26-10.75-6.76 10.05-1.28 9z"/>
    <path fill="#D9C427" d="M135.64 53.74l-2.78-8.32-5.3-8.38 6.8 7.7 1.28 9z"/>
    <path fill="#A43426" d="M169.38 57.86l2.77 7.14-5.97 9.54-18.5.4 18.8.55 6.58-10-3.68-7.7z"/>
    <path fill="#A43426" d="M122.36 57.08l-2.9 8.4 5.02 9.63 8.32.2-8.9.5-5.4-10 3.86-8.6z"/>
    <path fill="#9BDAFF" d="M139.2 37.22l-5.65-1.6-.68-2.7 7.74 2.02-8.2-2.58.8 3.46 6 1.4z"/>
    <path fill="#9BDAFF" d="M149.34 34.7l7.07-2.76-.5 2.77-5.3 1.8 5.8-1.3.8-4-7.7 3.7z"/>
    <path fill="#A43426" d="M108.75 75.16l36.14-2.18 43.3 3.43-1.6 2.2-42.1-3.5-35.1 2-.8-1.8z"/>
    <path fill="#9BDAFF" d="M145.06 83.46l-5.52 1.17-5.1 5.38-1.2 5.8.82 5.3 3.48 5.2 5.2 2.5H148l5.85-4.3 2.3-5.3-.1-6.9-2.9-4.3-4.15-3.5-3.93-.9z"/>
    <path fill="#FFF" d="M145 85.2l-4.78 1-4.43 4.68-1.1 5.02.7 4.6 3 4.54 4.5 2.1h4.6l5.1-3.77 2-4.63-.1-6.03L152 89l-3.6-3-3.44-.8z"/>
    <path fill="#A43426" d="M100.86 108.05l7.6 8.7 29.9 5.62 4.93-6.97-5.6 2.9-27.6-3.65-6.9-7.66-2.5 1z"/>
    <path fill="#A43426" d="M147.7 114.94l4.65 7.48 30.8-5.53 9.2-11-3.25-2-6.38 8.3-29.22 6.2-5.8-3.5z"/>
    <path fill="#A43426" d="M159.62 121.1l14 25.95.2 10.15h-3.55l-.62-11.07-10.03-25.04z"/>
    <path fill="#A43426" d="M133.1 122l-7.37 9.7-5.3 17.34-.87 8.52h2.7l.52-7.36 5.8-19.5 4.53-8.7z"/>
    <path fill="#A43426" d="M173.74 157.07l-.5 17.56-13.82 28.87 10.88-28.98v-17.84l3.44.4z"/>
    <path fill="#A43426" d="M131.93 202l-12.32-33.2v-11.24l2.7-.07-.2 11.3 10 33.1z"/>
    <path fill="#A43426" d="M173.23 160.82l6.34-.13 2.47-6.4-3.34 2.6-5.78.3.3 3.5z"/>
    <path fill="#A43426" d="M111.63 153.73l2.95 6.77 6.56.15.28-3.42-6.46.17-3.33-3.67z"/>
    <path fill="#C83E2C" d="M179.9 184.44l4.84 3.1-.1 17.07-3.77 5.4-12.2 3.4-2.17 5.5-5.45-4.5 8.5-23.6 9.33-3.7 1.02-2.4z"/>
    <path fill="#A43426" d="M179.8 184.5l.27 3.77-9.02 4.37-8.2 23.3-1.8-1.8 8.37-23.7 9.72-3.5.66-2.43z"/>
    <path fill="#A43426" d="M185.1 194.66l1.3.76.15 9.55-3.73 5.02-1.96-.2 3.92-5.4.3-9.8z"/>
    <path fill="#C83E2C" d="M114.73 184.44l-4.84 3.1v17.07l3.8 5.4 12.2 3.4 2.1 5.5 5.4-4.5-8.5-23.6-9.4-3.7-1-2.4z"/>
    <path fill="#A43426" d="M114.83 184.5l-.27 3.77 9.02 4.37 8.2 23.3 1.8-1.8-8.37-23.7-9.7-3.5-.6-2.43z"/>
    <path fill="#A43426" d="M109.53 194.66l-1.3.76-.15 9.55 3.72 5.02 1.96-.2-3.9-5.4-.33-9.8z"/>
    <path fill="#C83E2C" d="M85.15 247.9l9.85-6.4 6.1-18.36 2.62-12.98-4.02-1.93-10.73 13.42-5.3 16.13 1.48 10.1z"/>
    <path fill="#A43426" d="M85.3 247.8l5.76-8.82L96.93 221l2.94-12.65-11 13.13-5.3 16.18 1.72 10.14z"/>
    <path fill="#C83E2C" d="M208.36 247.9l-9.85-6.4-6.1-18.36-2.6-12.98 4-1.93 10.8 13.42 5.3 16.13-1.5 10.1z"/>
    <path fill="#A43426" d="M208.22 247.8l-5.78-8.82-5.86-17.98-2.94-12.65 11 13.13 5.3 16.18-1.72 10.14z"/>
    <path fill="#CEBA26" d="M209.24 249.92l-12.14-7.14-7.22-19.58-.6-3.14 2.32-1.02.86 4.24 6.25 18.13 9.9 6.3.7 2.3z"/>
    <path fill="#CEBA26" d="M84.42 249.75l11.26-7 6.93-18.82.6-4.15-1.5-.54-.3 3.38-6.7 18.63-9.5 6.58-.6 1.92z"/>
    <path fill="#CEBA26" d="M91.14 322.28l22.45-26.8 22.8-48.55 4.5 9.4-20.5 43.53-22.7 29.1-6.7-6.68z"/>
    <path fill="#CEBA26" d="M202.37 322.07l-22.46-26.8-22.8-48.55-4.5 9.4 20.5 43.53 22.7 29.1 6.7-6.68z"/>
    <path fill="#CEBA26" d="M171.4 228.34l-5 7.7-7.17 20.3-3.4-7.2 7.1-17.13 8.48-3.6z"/>
    <path fill="#CEBA26" d="M121.87 228.05l5 7.7 7.18 20.3 3.4-7.2-7.1-17.13-8.48-3.67z"/>
    <path fill="#A43426" d="M285.83 224.02v6.2l-18.2 6.84-12.67-1.82 4.13-7.4 26.7-3.82z"/>
    <path fill="#C83E2C" d="M231.46 133.78l5.7.35 15.36 11.54 12.42 25.14-.56 12.5 7.42 14.3-11.56.8-2.62 3.4-7.68 4.5-7.37-11.7-9.3-7-6.9-3.5L212.5 165l1.8-5.8-3-5.45 20.3-19.77z"/>
    <path fill="#F8E02C" d="M241.73 144.7l-8.3-.45-7.12 4.33-5.7 7.43-9.9-3.2-12.6-13.6 8.2-28.1 7.7 2.2 12 14.4 7.4-6.2 2.7 6.9.5 6.87L242 145z"/>
    <path fill="#C83E2C" d="M235.53 118.7l-10.03 10.1-12.52-15.4-25.25-8.28-8.44-13.96.6-3.4 12.2-16.83-5.9-7.93-11-2.8 4.5-2.9 22.6 3.7 18.9 9.38 14 34.16.2 14.18z"/>
    <path fill="#A43426" d="M192.22 70.55l-4.36-8.22-8.2-5.2-4.43 3.04 10.24 4.43 6.75 5.95z"/>
    <path fill="#A43426" d="M235.26 118.65l-9.12 4.95-10.63-12.92-26.5-8.63-9.8-11.38 8.2 14.33 25.6 8.4 12.5 15.3 9.9-10.1z"/>
    <path fill="#CEBA26" d="M206.1 111.2l6.1 3.5 13.1 17.03 7.9-10.46-7.77 7.46-12.4-15.38-6.93-2.15z"/>
    <path fill="#CEBA26" d="M233.42 144.2l-9.55 3.07-4.54 6.03-7.78-.32 9.1 3.1 5.97-7.64 6.8-4.23z"/>
    <path fill="#A43426" d="M263.88 183.35l-6.17-10.77-18.1-.68-13.2 11.87 3.5 1.78 10-10.48 16.5-.07 7.6 8.35z"/>
    <path fill="#A43426" d="M230.26 180.82L214.4 159.1l-1.9 6.02 13.82 18.64 3.94-2.94z"/>
    <path fill="#A43426" d="M252.6 204.65l-8-12.43-8.86-7-3.68-2.12-3 1.36.72 1.18 3.4 1.6 9.4 7.2 7.3 11.63 2.72-1.42z"/>
    <path fill="#A43426" d="M271.1 196.53l-9.08-3.37-13.82 8.68 2.25 1.76 12.15-7.63 8.5.56z"/>
    <path fill="#C83E2C" d="M278.44 200.65l7.7 3.6 7.42-1.25 3.12 5.58-6.28 4.58-4.9-1.65-3.37 1 3.8 11.1 9.57 19.3 1.5 5.6-4.13 2.5-6.1-8.6-7.93-13.8 5.12 15.7 3.02 9.8-5.27 1.9-4.7-10.6-6.7-14.8.5 19-.3 7.7-6.1.67.4-10.5-1.5-13.17-1.6-.1-3 8.3-2.6 3-2.3 2.65-3.8-.66-.8-3 5.2-6.9 2.5-6.1-5-16.57-1.8-7.43.9-5.5 11.7-6.5 9.46 1.9 2.54 2.2 4 1.23z"/>
    <path fill="#A43426" d="M250.66 201.66l2.16 8.4 3.2 13.63.58 7.9-7.2-24.5 1.26-5.5z"/>
    <path fill="#A43426" d="M282.1 212.4h-7.26l-6.25-9.24-1.1-7.1 4 .66 2.7 2.8-3.2 3.64 4.3 8.24 6.6 1z"/>
    <path fill="#A43426" d="M286.47 225.1l-3.74.52-3.8 3.3 1.84-4.67 4.86-1.08.84 1.94z"/>
    <path fill="#A43426" d="M278.76 228.5l-3.13-1.74-4.74.36-.9 3.67 2.1-2.2 3-.9 3.5.7z"/>
    <path fill="#A43426" d="M269.9 231.28l-2.23-1.4-4.67.42-.2 3.68 1.42-2.6 3.14-.58 2.53.48z"/>
    <path fill="#A43426" d="M261.76 233.9l-.94-2.36-4.18-.35 3.25 1.2 1.8 1.5z"/>
    <path fill="#9BDAFF" d="M272.78 219.45l-4.3 4-4.18.06-4-2.9-1.44-3.1.87-3.6 2.84-3.1 6.5-1.4 2.52 2.1 2.2 4.5-1.1 3.6z"/>
    <path fill="#FFF" d="M271.97 219.2l-3.77 3.5-3.7.06-3.5-2.6-1.26-2.76.76-3.2 2.5-2.7 5.7-1.22 2.22 1.85 2 3.94-.95 3.12z"/>
    <path fill="#CEBA26" d="M199.02 140.26l.97-1.15 7.8-27.3-1.7-.5-8.2 27.8 1.1 1.3z"/>
    <path fill="#A43426" d="M11.6 224.02v6.2l18.22 6.84 12.66-1.82-4.14-7.4L11.6 224z"/>
    <path fill="#C83E2C" d="M65.98 133.78l-5.72.35-15.34 11.54L32.5 170.8l.55 12.46-7.42 14.28 11.57.77 2.62 3.4 7.68 4.5 7.37-11.7 9.3-7 6.9-3.5 13.85-19-1.7-5.8 3-5.4-20.22-20z"/>
    <path fill="#F8E02C" d="M55.7 144.7l8.3-.45 7.13 4.33 5.72 7.43 9.88-3.2 12.67-13.7-8.17-28.1-7.62 2.2-12 14.4-7.3-6.2-2.7 6.9-.4 6.9-5.4 9.8z"/>
    <path fill="#C83E2C" d="M61.9 118.7l10.04 10.1 12.52-15.4 25.24-8.28 8.45-13.96-.6-3.4-12.23-16.83 5.85-7.92 7.66-4.1-4.4-2.9L95 61l-18.9 9.4-13.98 34.14-.2 14.18z"/>
    <path fill="#A43426" d="M101.95 69.24L106.3 61l8.2-5.18 4.44 3.04-10.24 4.43-6.75 5.9z"/>
    <path fill="#A43426" d="M62.17 118.65l9.13 4.95 10.63-12.92 26.5-8.63 9.84-11.38L110.1 105l-25.56 8.45-12.44 15.3-9.93-10.1z"/>
    <path fill="#CEBA26" d="M91.34 111.2l-6.1 3.5-13.1 17.03-7.9-10.46 7.77 7.46 12.4-15.38 7-2.15z"/>
    <path fill="#CEBA26" d="M64.02 144.2l9.55 3.07 4.54 6.03 7.8-.32-9.1 3.1-6-7.64-6.7-4.23z"/>
    <path fill="#A43426" d="M33.56 183.35l6.17-10.77 18.12-.68 13.2 11.87-3.46 1.78-10.1-10.48-16.4-.07-7.6 8.35z"/>
    <path fill="#A43426" d="M67.18 180.82l15.85-21.72 1.9 6.02-13.8 18.64-3.95-2.94z"/>
    <path fill="#A43426" d="M44.84 204.65l8-12.43 8.86-7 3.68-2.12 3 1.36-.72 1.18-3.4 1.6-9.4 7.2-7.3 11.63-2.72-1.42z"/>
    <path fill="#A43426" d="M26.35 196.53l9.06-3.37 13.9 8.68-2.3 1.76-12.1-7.63-8.5.56z"/>
    <path fill="#C83E2C" d="M19 200.65l-7.7 3.6L3.86 203l-3.1 5.58 6.27 4.58 4.9-1.65 3.36 1-3.8 11.1-9.6 19.3-1.5 5.6 4.1 2.5 6.1-8.6 7.9-13.8-5.2 15.7-3 9.8 5.2 1.9 4.8-10.6 6.7-14.8-.5 19 .3 7.7 6.1.66-.4-10.5L34 234.3l1.6-.1 3 8.3 2.63 3 2.3 2.65 3.85-.67.8-3-5.2-6.9-2.5-6.1 4.95-16.55 1.76-7.42-.9-5.5-11.6-6.6-9.4 1.9-2.56 2.2-4.02 1.3z"/>
    <path fill="#A43426" d="M46.78 201.66l-2.16 8.4-3.2 13.63-.58 7.9 7.18-24.5-1.24-5.5z"/>
    <path fill="#A43426" d="M15.33 212.4h7.27l6.25-9.24 1.02-7.1-4.06.66-2.7 2.8 3.3 3.64-4.4 8.24-6.6 1z"/>
    <path fill="#A43426" d="M10.97 225.1l3.74.52 3.8 3.3-1.8-4.67-4.8-1.08-.8 1.94z"/>
    <path fill="#A43426" d="M18.68 228.5l3.12-1.74 4.74.36.83 3.67-2.1-2.2-3.03-.9-3.56.7z"/>
    <path fill="#A43426" d="M27.55 231.28l2.22-1.4 4.67.42.2 3.68-1.42-2.6-3.15-.58-2.52.48z"/>
    <path fill="#A43426" d="M35.68 233.9l.94-2.36 4.18-.35-3.26 1.2-1.86 1.5z"/>
    <path fill="#9BDAFF" d="M24.66 219.45l4.3 4 4.18.06 4-2.9 1.43-3.1-.86-3.6-2.8-3.1-6.5-1.4-2.5 2.1-2.2 4.5 1.1 3.6z"/>
    <path fill="#FFF" d="M25.47 219.2l3.77 3.5 3.7.06 3.5-2.6 1.26-2.76-.76-3.2-2.5-2.7-5.7-1.22-2.23 1.85-1.9 3.94 1 3.12z"/>
    <path fill="#CEBA26" d="M98.42 140.26l-.97-1.15-7.82-27.3 1.72-.5L99.5 139l-1.08 1.3z"/>
    <path fill="#C83E2C" d="M42.9 360l1.06-9.48 8-15.73 12.74-13v-12.4l7.46-14.9 7.98-2.4 11.97 4.3 3.9 14.2 4.3 7-1.4 9.8-4.7 5.6-.9 15.9-1.8 11H42.9z"/>
    <path fill="#000" fill-opacity=".1" d="M95.78 311.02l-5.3 4.8-2.3 6.23-.33 8.94-6.88 4.8-9.86-1.7-6.1-3.7-.2-8.4-2.4 7 1.6 5 5.4 2.2 11.1 1.8 8.34-6 .65-9.84 2.05-5.83 5.3-4.65-.83-.9z"/>
    <path fill="#C83E2C" d="M250.27 360l-1.07-9.48-8-15.73-12.74-13v-12.4L221 294.5l-7.98-2.4-11.97 4.3-3.85 14.2-4.3 7.03 1.45 9.75 4.76 5.68 1 15.9 1.8 10.96h48.4z"/>
    <path fill="#000" fill-opacity=".1" d="M197.38 311.02l5.3 4.8 2.3 6.23.33 8.94 6.9 4.8 9.9-1.7 6.2-3.7.2-8.4 2.5 7-1.5 5-5.4 2.2-11 1.74-8.3-6-.7-9.83-2.1-5.82-5.3-4.65.9-.88z"/>
  </g>
</svg>
