<svg width="526" height="100" viewBox="0 0 526 100" xmlns="http://www.w3.org/2000/svg">
    <title>
        mirror-logo
    </title>
    <defs>
        <linearGradient x1="0%" y1="0%" y2="100%" id="a">
            <stop stop-color="#FC7D57" offset="0%"/>
            <stop stop-color="#FA2471" offset="100%"/>
        </linearGradient>
    </defs>
    <path d="M201.154 74.359l-5.067-5.067V32.226l5.067-5.067H187.02l-11.867 21.067-11.867-21.067h-15.8l5.067 5.067v37.066l-5.067 5.067h15.667l-5.067-5.067V37.76l14.067 25.133 14.067-25.2v31.6l-5.067 5.067h20zm17.8-43.267c0-2.666-2.267-4.933-4.933-4.933-2.667 0-4.934 2.267-4.934 4.933 0 2.667 2.267 4.934 4.934 4.934 2.666 0 4.933-2.267 4.933-4.934zm4.733 43.267l-4.733-4.733v-30l-14.467 4.933 4.6 4.6v20.467l-4.733 4.733h19.333zm15.734-22.733l6-5.934 8 8V40.16c-1.067-.267-2.734-.533-3.334-.533-3.666 0-6.933 1.8-8.466 3.533l-2.2 2.4v-5.933l-14.467 4.933 4.6 4.6v20.467l-4.733 4.733h19.333l-4.733-4.733v-18zm30 0l6-5.934 8 8V40.16c-1.067-.267-2.734-.533-3.334-.533-3.666 0-6.933 1.8-8.466 3.533l-2.2 2.4v-5.933l-14.467 4.933 4.6 4.6v20.467l-4.733 4.733h19.333l-4.733-4.733v-18zm53.6 5.8c0 10.066-8.2 17.8-18.267 17.8s-18.267-7.734-18.267-17.8c0-10.067 8.2-17.8 18.267-17.8s18.267 7.733 18.267 17.8zm-11.534 0c0-6.334-.733-13.934-6.733-13.934s-6.733 7.6-6.733 13.934c0 6.333.733 13.933 6.733 13.933s6.733-7.6 6.733-13.933zm29.134-5.8l6-5.934 8 8V40.16c-1.067-.267-2.734-.533-3.334-.533-3.666 0-6.933 1.8-8.466 3.533l-2.2 2.4v-5.933l-14.467 4.933 4.6 4.6v20.467l-4.733 4.733h19.333l-4.733-4.733v-18zm68.2 21V60.759l-7.467 7.467c-1.667 1.666-3.4 2.266-5.8 2.266-8.667 0-10.067-11-10.067-19.733 0-8.867 1.067-20.067 10.067-20.067 2.4 0 4.133.6 5.8 2.267l7.467 7.467V28.892c-4.4-1.933-7.6-2.733-13.267-2.733-12.133 0-21.6 11.2-21.6 24.6 0 13.4 9.4 24.6 21.6 24.6 5.2 0 8.467-.6 13.267-2.733zm41.2-15.2c0 10.066-8.2 17.8-18.267 17.8s-18.267-7.734-18.267-17.8c0-10.067 8.2-17.8 18.267-17.8s18.267 7.733 18.267 17.8zm-11.534 0c0-6.334-.733-13.934-6.733-13.934s-6.733 7.6-6.733 13.934c0 6.333.733 13.933 6.733 13.933s6.733-7.6 6.733-13.933zm54.867 16.933l-4.733-4.733v-21c0-4.667-3.534-9-9.267-9-2 0-5.333.8-8.867 4.333l-2.866 2.867v-7.2l-14.467 4.933 4.6 4.6v20.467l-4.733 4.733h19.333l-4.733-4.733V51.959l3.266-3.267c1.934-2 3.6-2.8 4.8-2.8 2.334 0 3.067 2.067 3.067 3.267v25.2h14.6zm32.4-50h-12.667c-7.6 0-13.066 6.733-13.066 14.267v1.866h-4.6v4.2h4.6v24.934l-4.734 4.733h19.334l-4.734-4.733V44.692h8v-4.2h-8v-7.4c0-2.333 1.467-4.133 3.6-4.866l5.467 5.466 6.8-9.333zM100 0v96.667L73.333 70V26.667H30L3.333 0H100zM88.667 97.333L86 100h5.167l-2.5-2.667zm0-5.166L86 94.833l2.667 2.667 2.666-2.667-2.666-2.666zM60 79l-2.667-2.667L54.667 79l2.666 2.667L60 79zm-15.667 0l-2.666-2.667L39 79l2.667 2.667L44.333 79zM59.5 73.333h-4.167l-.5.5L57.5 76.5l2.667-2.667-.667-.5zM49.5 79l-2.667-2.667L44.167 79l2.666 2.667L49.5 79zm-.5-5.667h-4.167l-.5.5L47 76.5l2.667-2.667-.667-.5zm-12.667 3L33.667 79l2.666 2.667L39 79l-2.667-2.667zm2.167-3h-4.167l-.5.5L36.5 76.5l2.667-2.667-.667-.5zM54.667 79L52 76.333 49.333 79 52 81.667 54.667 79zM70.5 79l-2.667-2.667L65.167 79l2.666 2.667L70.5 79zm5.167 0L73 76.333 70.333 79 73 81.667 75.667 79zM62.5 81.667L65.167 79 62.5 76.333 59.833 79l2.667 2.667zm2.667-7.834l-.5-.5H60.5l-.5.5 2.667 2.667 2.5-2.667zM80.833 100H86l-2.667-2.667-2.5 2.667zM73 92.167l2.667-2.667L73 86.833 70.333 89.5 73 92.167zm10.5-5.334L80.833 89.5l2.667 2.667 2.667-2.667-2.667-2.667zm-13 7.834l2.667 2.666 2.666-2.666L73.167 92 70.5 94.667zm2.5-7.834l2.667-2.666-2.667-2.5-2.667 2.666 2.667 2.5zm7.833-2.5l-2.5-2.666-2.666 2.666L78.333 87l2.5-2.667zm-15.666 0L67.833 87l2.667-2.667-2.667-2.666-2.666 2.666zm-5.167 0L62.667 87l2.666-2.667-2.666-2.666L60 84.333zM70.5 100h5.167L73 97.333 70.5 100zm13-7.833l-2.667 2.666L83.5 97.5l2.667-2.667-2.667-2.666zM60 100h5.167L62.5 97.333 60 100zm15.667-5.333l2.666 2.666L81 94.667l-2.667-2.5-2.666 2.5zm-13.167-2.5l2.667-2.667-2.667-2.667-2.667 2.667 2.667 2.667zm-2.5 2.5l2.667 2.666 2.666-2.666L62.667 92 60 94.667zm5.167 0l2.666 2.666 2.667-2.666L67.833 92l-2.666 2.667zm-31.334 0l2.667 2.666 2.667-2.666L36.5 92l-2.667 2.667zM54.667 100h5.166l-2.666-2.667-2.5 2.667zm2.666-18.333l-2.666 2.666L57.333 87 60 84.333l-2.667-2.666zM49.5 84.333L52.167 87l2.666-2.667-2.666-2.666-2.667 2.666zM44.333 100H49.5l-2.667-2.667-2.5 2.667zm0-15.667L47 87l2.667-2.667L47 81.667l-2.667 2.666zM49.5 94.667l2.667 2.666 2.666-2.666L52.167 92 49.5 94.667zm7.833-7.834L54.667 89.5l2.666 2.667L60 89.5l-2.667-2.667zm0 5.334l-2.666 2.666 2.666 2.667L60 94.833l-2.667-2.666zm-21-10.5l-2.666 2.666L36.333 87 39 84.333l-2.667-2.666zm0 5.166L33.667 89.5l2.666 2.667L39 89.5l-2.667-2.667zM39 94.667l2.667 2.666 2.666-2.666L41.667 92 39 94.667zm0-10.334L41.667 87l2.666-2.667-2.666-2.666L39 84.333zm5.333 10.334L47 97.333l2.667-2.666L47 92l-2.667 2.667zm2.5-2.5L49.5 89.5l-2.667-2.667-2.666 2.667 2.666 2.667zm-13 7.833H39l-2.667-2.667-2.5 2.667zM5 18.833L2.333 21.5 5 24.167 7.667 21.5 5 18.833zm-5-.166l2.5-2.5-2.5-2.5v5zm5-5l-2.667 2.666L5 19l2.667-2.667L5 13.667zm-5 15.5l2.5-2.5-2.5-2.5v5zM5 24l-2.667 2.667L5 29.333l2.667-2.666L5 24zM5 8.333L2.333 11 5 13.667 7.667 11 5 8.333zm-5-5v4.834l2.5-2.5L0 3.333zm18.167 23.334L15.5 24l-2.667 2.667 2.667 2.666 2.667-2.666zm-8-2.667l2.666-2.667-2.666-2.666L7.5 21.333 10.167 24zm0 5.333l2.666-2.666L10.167 24 7.5 26.667l2.667 2.666zm13.166-2.666L20.667 24 18 26.667l2.667 2.666 2.666-2.666zm-10.5-10.5L10.167 13.5 7.5 16.167l2.667 2.666 2.666-2.666zm13.834 17.666V30L26 29.333 23.333 32 26 34.667l.667-.834zm-13.834 19L15.5 55.5l2.667-2.667-2.667-2.666-2.667 2.666zM20.667 34.5l2.666-2.667-2.666-2.666L18 31.833l2.667 2.667zm6 9.833V40.5L26 39.833 23.333 42.5 26 45.167l.667-.834zm-6-4.5l2.666-2.666-2.666-2.667L18 37.167l2.667 2.666zm0 5.167l2.666-2.667-2.666-2.666L18 42.333 20.667 45zm6 9.667v-3.834L26 50.167l-2.667 2.666L26 55.5l.667-.833zm-8.5-12.334L15.5 39.667l-2.667 2.666L15.5 45l2.667-2.667zm-8-7.833L7.5 37.167l2.667 2.666 2.666-2.666-2.666-2.667zm0 5.333L7.5 42.5l2.667 2.667 2.666-2.667-2.666-2.667zm8-8L15.5 29.167l-2.667 2.666L15.5 34.5l2.667-2.667zm-8-2.5L7.5 32l2.667 2.667L12.833 32l-2.666-2.667zm10.5 26.167l2.666-2.667-2.666-2.666L18 52.833l2.667 2.667zm-13-2.667l2.666 2.667L13 52.833l-2.667-2.666-2.666 2.666zm2.5-7.833L7.5 47.667l2.667 2.666 2.666-2.666L10.167 45zm10.5 5.167l2.666-2.667-2.666-2.667L18 47.5l2.667 2.667zM5 39.833L2.333 42.5 5 45.167 7.667 42.5 5 39.833zM5 34.5l-2.667 2.667L5 39.833l2.667-2.666L5 34.5zm0-5.167L2.333 32 5 34.667 7.667 32 5 29.333zm-5 5l2.5-2.5-2.5-2.5v5zm0 16v4.834l2.5-2.5L0 50.333zm0-5.5l2.5-2.5L0 40v4.833zM5 45l-2.667 2.667L5 50.333l2.667-2.666L5 45zm2.667 7.833L5 50.167l-2.667 2.666L5 55.5l2.667-2.667zM0 81.5L2.5 79 0 76.5v5zm5-5.167L2.333 79 5 81.667 7.667 79 5 76.333zM0 71l2.5-2.5L0 66v5zm5 .167l-2.667 2.666L5 76.5l2.667-2.667L5 71.167zM0 60.5L2.5 58 0 55.5v5zM5 66l-2.667 2.667L5 71.333l2.667-2.666L5 66zm0-5.333l-2.667 2.666L5 66l2.667-2.667L5 60.667zM5 55.5l-2.667 2.667L5 60.833l2.667-2.666L5 55.5zm15.667 15.667l2.666-2.667-2.666-2.667L18 68.5l2.667 2.667zm0 5.166l2.666-2.666L20.667 71 18 73.667l2.667 2.666zM28.5 79l-2.667-2.667L23.167 79l2.666 2.667L28.5 79zm2.667-2.667L28.5 79l2.667 2.667L33.833 79l-2.666-2.667zm-10.5 5.334L23.333 79l-2.666-2.667L18 79l2.667 2.667zm6-11.167v-3.833L26 66l-2.667 2.667L26 71.333l.667-.833zm0-10.5v-3.833L26 55.5l-2.667 2.667L26 60.833l.667-.833zm-16.5 11.167L7.5 73.833l2.667 2.667 2.666-2.667-2.666-2.666zm0 5.166L7.5 79l2.667 2.667L12.833 79l-2.666-2.667zm23.166-3h-4.166l-.5.5 2.666 2.667L34 73.833l-.667-.5zM12.833 58l-2.666-2.667L7.5 58l2.667 2.667L12.833 58zm-2.666 8L7.5 68.667l2.667 2.666 2.666-2.666L10.167 66zm0-5.333L7.5 63.333 10.167 66l2.666-2.667-2.666-2.666zm8-2.667L15.5 55.333 12.833 58l2.667 2.667L18.167 58zm5.166 0l-2.666-2.667L18 58l2.667 2.667L23.333 58zm-5.166 10.5L15.5 65.833 12.833 68.5l2.667 2.667 2.667-2.667zm0 10.5L15.5 76.333 12.833 79l2.667 2.667L18.167 79zm2.5-13l2.666-2.667-2.666-2.666L18 63.333 20.667 66zm-13 18.333L10.333 87 13 84.333l-2.667-2.666-2.666 2.666zm5.166 0L15.5 87l2.667-2.667-2.667-2.666-2.667 2.666zm5.334 0L20.833 87l2.667-2.667-2.667-2.666-2.666 2.666zm-8 7.834l2.666-2.667-2.666-2.667L7.5 89.5l2.667 2.667zM26 86.833l2.667-2.666L26 81.5l-2.667 2.667L26 86.833zM7.667 100h5.166l-2.666-2.667-2.5 2.667zm23.5-2.667l2.666-2.666L31.167 92 28.5 94.667l2.667 2.666zm0-5.166l2.666-2.667-2.666-2.667L28.5 89.5l2.667 2.667zm-23.5 2.5l2.666 2.666L13 94.667 10.333 92l-2.666 2.667zm5.166 0l2.667 2.666 2.667-2.666L15.5 92l-2.667 2.667zm5.334 0l2.666 2.666 2.667-2.666L20.833 92l-2.666 2.667zm0 5.333h5.166l-2.666-2.667-2.5 2.667zm5.166-5.333L26 97.333l2.667-2.666L26 92l-2.667 2.667zM28.667 100h5.166l-2.666-2.667-2.5 2.667zm2.5-13.167l2.666-2.666-2.666-2.667-2.667 2.667 2.667 2.666zm-10.5 5.334l2.666-2.667-2.666-2.667L18 89.5l2.667 2.667zM0 86.667l2.5-2.5-2.5-2.5v5zm5 5.5l-2.667 2.666L5 97.5l2.667-2.667L5 92.167zm0-10.5l-2.667 2.666L5 87l2.667-2.667L5 81.667zm-5 15.5l2.5-2.5-2.5-2.5v5zm5-10.334L2.333 89.5 5 92.167 7.667 89.5 5 86.833zM2.333 100H7.5l-2.667-2.667-2.5 2.667zm89 0h4.834l-2.5-2.5-2.334 2.5z" fill="url(#a)" fill-rule="evenodd"/>
</svg>
