<svg xmlns="http://www.w3.org/2000/svg" viewBox="0 0 1440 320" xmlns:xlink="http://www.w3.org/1999/xlink">
  <defs>
    <path id="a" d="M0 0h1440v321H0z"/>
    <radialGradient id="c" cy="70.7%" r="62.3%" fx="50%" fy="70.7%">
      <stop stop-color="#60474D" offset="0%"/>
      <stop stop-color="#4B353A" offset="100%"/>
    </radialGradient>
    <ellipse id="d" cx="2.8" cy="2.9" rx="2.4" ry="2.5"/>
    <radialGradient id="f" cx="280.6%" r="88.5%" fx="280.6%" fy="50%">
      <stop stop-color="#6DE892" offset="0%"/>
      <stop stop-color="#308D4C" offset="100%"/>
    </radialGradient>
    <radialGradient id="g" r="87.5%" fx="50%" fy="50%">
      <stop stop-color="#705129" offset="0%"/>
      <stop stop-color="#B88D54" offset="100%"/>
    </radialGradient>
    <radialGradient id="h" cy="21.1%" r="78.9%" fx="50%" fy="21.1%">
      <stop stop-color="#FCD670" offset="0%"/>
      <stop stop-color="#CEAB4B" offset="100%"/>
    </radialGradient>
    <filter id="i" width="200%" height="200%" x="-50%" y="-50%" filterUnits="objectBoundingBox">
      <feOffset dx="2" dy="4" in="SourceAlpha" result="shadowOffsetInner1"/>
      <feGaussianBlur stdDeviation="4" in="shadowOffsetInner1" result="shadowBlurInner1"/>
      <feComposite in="shadowBlurInner1" in2="SourceAlpha" operator="arithmetic" k2="-1" k3="1" result="shadowInnerInner1"/>
      <feColorMatrix values="0 0 0 0 0.0360863095 0 0 0 0 0.0360863095 0 0 0 0 0.0360863095 0 0 0 0.35 0" in="shadowInnerInner1" result="shadowMatrixInner1"/>
      <feMerge>
        <feMergeNode in="SourceGraphic"/>
        <feMergeNode in="shadowMatrixInner1"/>
      </feMerge>
    </filter>
    <linearGradient id="j" x1="57.3%" x2="50%" y1="71%" y2="20.9%">
      <stop stop-color="#FAEEB5" offset="0%"/>
      <stop stop-color="#F7D58A" offset="100%"/>
    </linearGradient>
    <ellipse id="k" cx="2.5" cy="2.5" rx="2.2" ry="2.1"/>
    <filter id="m" width="200%" height="200%" x="-50%" y="-50%" filterUnits="objectBoundingBox">
      <feOffset dx="2" dy="4" in="SourceAlpha" result="shadowOffsetInner1"/>
      <feGaussianBlur stdDeviation="4" in="shadowOffsetInner1" result="shadowBlurInner1"/>
      <feComposite in="shadowBlurInner1" in2="SourceAlpha" operator="arithmetic" k2="-1" k3="1" result="shadowInnerInner1"/>
      <feColorMatrix values="0 0 0 0 0.0360863095 0 0 0 0 0.0360863095 0 0 0 0 0.0360863095 0 0 0 0.35 0" in="shadowInnerInner1" result="shadowMatrixInner1"/>
      <feMerge>
        <feMergeNode in="SourceGraphic"/>
        <feMergeNode in="shadowMatrixInner1"/>
      </feMerge>
    </filter>
    <filter id="n" width="200%" height="200%" x="-50%" y="-50%" filterUnits="objectBoundingBox">
      <feGaussianBlur stdDeviation="8.4" in="SourceGraphic" result="blur"/>
    </filter>
  </defs>
  <g fill="none" fill-rule="evenodd" transform="translate(0 -2)">
    <mask id="b" fill="#fff">
      <use xlink:href="#a"/>
    </mask>
    <use xlink:href="#a"/>
    <g mask="url(#b)">
      <path fill="#947662" d="M833 289.4c.5-2-.4-4-.4-4s1 .4 1.8 0c1-.3 1.8-1.2 1.8-1.2s-.5 3 0 5.2 1.7 4.3 1.7 4.3h-7l2-4.3z"/>
      <path fill="#8C6B55" d="M835 291c-.3-1.6-.4-5.3 0-5.5 1-.3 1.2-1.3 1.2-1.3s-.5 3 0 5.2 1.7 4.3 1.7 4.3h-2s-2-1.4-2-2.8z"/>
      <path fill="#79B37B" d="M828.3 281c1.3-1.8 2.2-4.3 2.7-6.4.4-2 .5-4.6.5-4.6s4.4 1 6.5 5.7c.8 2 3.7 3.5 4 5.4.3 3-2 5-2 5s-4 4-6.3 2c-2.2-2-3.8-1-5-1-1.2 0-2.8-1-.4-5z"/>
      <path fill="#83BC84" d="M828.6 281c1.3-1.8 2.7-7.3 2.7-6 0 1.3-1.5 6.3-2.6 8.2-1 2 .4 2.6 0 2.5-1.2-.5-2.5-1 0-4.6z"/>
      <path fill="#76AC77" d="M840.5 282c0-1.8-1.7-2-3.8-4.8-.7-1 .3-1.6-1-3.5-1.2-2-4.2-3-4.2-3s4.4 1 6.5 5.6c.8 2 3.4 3.5 3.6 5.4.4 2.8-3.7 5-3.7 5s2-2.7 2-4.6z"/>
      <path fill="#947662" d="M865 276.5c.5-2-.4-4-.4-4s1 .4 1.8 0c1-.2 1.8-1 1.8-1s-.5 2.7 0 5 1.7 4.3 1.7 4.3h-7l2-4.3z"/>
      <path fill="#8C6B55" d="M867 278c-.3-1.5-.4-5.2 0-5.4 1-.3 1.2-1.2 1.2-1.2s-.5 2.8 0 5c.5 2.4 1.7 4.4 1.7 4.4h-2s-2-1.4-2-2.8z"/>
      <path fill="#79B37B" d="M860.3 268.3c1.3-2 2.2-4.5 2.7-6.6.4-2 .5-4.5.5-4.5s4.4 1 6.5 5.7c.8 1 3.7 3 4 5 .3 2-2 5-2 5s-4 3-6.3 1c-2.2-2-3.8-1-5-2-1.2-1-2.8-1-.4-5z"/>
      <path fill="#83BC84" d="M860.6 268.2c1.3-2 2.7-7.4 2.7-6 0 1.3-1.5 6.3-2.6 8-1 2 .4 2.7 0 2.6-1.2-.4-2.5-1 0-4.6z"/>
      <path fill="#76AC77" d="M872.5 269.2c0-2-1.7-2-3.8-5-.7-1 .3-1.5-1-3.4-1.2-2-4.2-3-4.2-3s4.4 1 6.5 5.6c.8 2 3.4 3.5 3.6 5.4.4 2.8-3.7 5-3.7 5s2-2.6 2-4.6z"/>
      <path fill="#C78E75" d="M144 298l46.3-85.2 55-69.4 60 14.4 72-60.6 83.4-31 72.6 77.2 17 94 44.8 41.8 41 67.5-146 34-144-21-146 15-55-77z"/>
      <path fill="#CD947B" d="M144 298l46.3-85.2 55-69.4 60 14.4 39.5 30v59.4l63.2 91-63.2 21.4L199 375l-55-77z"/>
      <path fill="#C99177" d="M326 266l-14-73.2-61.8-45.4 52.2 15.4 35.6 30 2 56.4 63 85-77-68.2z"/>
      <path fill="#C2876D" d="M528 254l-19-95-37-23.7-19-31.6 6.7-31.7 67.6 74.4 19 96 46.8 39.8 43 64.5L528 254z"/>
      <path fill="#CF947A" d="M347 144l-26 9.2 57-48.5 44.6-17-35.6 27-40 29.3z"/>
      <path fill="#D5A48F" d="M202.4 215L176 251.2l19-36.2 32.6-45.2 12.2 12-15 7-22.6 26z"/>
      <path fill="#C78E75" d="M1000.4 166.4l72-60.7 83.3-31 72.6 77.3 20.5 44.2 46.2 57 98 71.2-62 30.8-145-9.4-126-58-106-29 46.4-92.4z"/>
      <path fill="#CF947A" d="M1017.2 161l57-48.4 39.6-16-35.6 26-61 38.5z"/>
      <path fill="#C2876D" d="M1252 252l-51-92-32-40.5-16.3-40.6 67.6 74 19 51 33.7 34 37 43 40 53-98-83z"/>
      <g transform="translate(670.985 31.423)">
        <path fill="#A6DFB8" d="M172 3.6c134.4 0 171.8 305.6 171.8 305.6H0S37.4 3.6 172 3.6z"/>
        <path fill="#9BDCAF" d="M271.6 125.7C234.8 51 105.6 7.7 170 7.7 304.3 7.7 341.7 313 341.7 313s-33.4-113-70.2-187.5z"/>
        <path fill="#B0E6C1" d="M67 96c27-55 58.3-73 65-75.2 4.6-1.4-19 38.6-47.3 78.2C56.4 138.6 33 204 33 204s7-53 34-108z"/>
        <path fill="#95E7F4" d="M146 227.7c-5.3-32.3-9.7-56.4-9.4-71.8.8-44 17.7-57 18.8-87 1-30-13.6-60-13.6-60s12.5-7 29-7c16.6 0 33 6 33 6s12 24 9.2 60c-2.8 37-11.2 29-17.6 87-3 28 8.5 58 11.4 89 3 31-3 63-3 63h-62s9.7-49 4.3-81z"/>
        <path fill="#89DFED" d="M192.7 244.6c-1.5-27-7-56.2-9.5-88.7-2.3-31 12-61 11.5-87C194 35 179 6 183.2 6c14.4 0 21.4 7 21.4 7S215 33 212 69.7c-2.7 36.4-11.2 29-17.6 86.8-3.2 28.7 8.4 58.3 11.3 89.2 3 31.3-3 63-3 63h-14s6-30.3 4-64zM138 167.4c-4-29.8 7.5-57.5 16.8-83.7 0 12.8-7.4 24-11.6 48.5-4.2 24.4-1.4 65-5.2 35.2z"/>
        <path fill="#D8D8D8" d="M145.3 36.8l.8-4 4-1.5 3 1.5-1 8-4 2-2-6z"/>
        <path fill="#CBCBCB" d="M146 32.8l3.4-1.5 3 1.5-1 8-5.3-8z"/>
        <path fill="#D8D8D8" d="M149 58l.7-4 3.3-1.6 3 1.5-1 8-4 2-2-6z"/>
        <path fill="#CBCBCB" d="M149.7 54l3.3-1.6 3 1.5-1 8-5.3-8z"/>
        <path fill="#CECECE" d="M143.7 45.5l.8-4h6.4l1 4-6 4-3-4z"/>
        <path fill="#BBB" d="M144.5 41.5h6.4l1 4-8-4z"/>
        <path fill="#CECECE" d="M149 64l.7-4h6.4l2 4-6 4-2-4z"/>
        <path fill="#BBB" d="M149.7 60h6.4l2 4-7-4z"/>
        <path fill="#CECECE" d="M137.6 105.6l.7-4h6.5l1.3 4-5 4-2-4z"/>
        <path fill="#BBB" d="M138.3 101.6h6.5l1.3 4-7-4z"/>
        <path fill="#CECECE" d="M175.3 62l1-5h8.2l1.7 5-7.5 5-3.4-5z"/>
        <path fill="#BBB" d="M176.3 57h8.2l1.7 5-10-5z"/>
        <path fill="#BCBCBC" d="M148 51.5l1-5.6h5l2.2 6-3.4 1-2.8 2-2-5z"/>
        <path fill="#ABABAB" d="M149 46h5l2.2 6.4-3.4 1.5-3.7-8z"/>
        <path fill="#D8D8D8" d="M161.5 7.3l1-5 4.2-2 4 2-1.4 10L164 15l-2.5-7.6z"/>
        <path fill="#CBCBCB" d="M162.4 2.2l4.3-1.8 4 1.8-1.4 10.2-7-10.2z"/>
        <path fill="#BCBCBC" d="M176 8.6l1-5.7h5l2 6-3 1-2.8 2-2-5z"/>
        <path fill="#ABABAB" d="M177 3h5l2 6.5-3 1.5-4-8z"/>
        <path fill="#BCBCBC" d="M157 8.6l1-5.7h5l2 6-3 1-2.8 2-2-5z"/>
        <path fill="#ABABAB" d="M158 3h5l2 6.5-3 1.5-4-8z"/>
        <path fill="#D8D8D8" d="M150.4 78.3l.8-4 3.3-1.5 3 1.5-1 8-4 2-2-6z"/>
        <path fill="#CBCBCB" d="M151.2 74.3l3.3-1.5 3 1.5-1 8-5.3-8z"/>
        <path fill="#BCBCBC" d="M149.3 70.5l1-5.7h5l2 6.6L154 73l-2.6 2-2-4.6z"/>
        <path fill="#ABABAB" d="M150.4 64.8h5l2 6.6L154 73l-3.6-8.2z"/>
        <path fill="#BCBCBC" d="M133.6 115.2l1-5.6h5l2 6.5-3.2 2-2.8 2-2-4z"/>
        <path fill="#ABABAB" d="M134.7 109.6h5l2 6.5-3.3 2-3.7-8z"/>
        <path fill="#CECECE" d="M135.8 123.4l.7-4h6.5l1.3 4-6 4-2.5-4z"/>
        <path fill="#BBB" d="M136.5 119.4h6.5l1.3 4-7.8-4z"/>
        <path fill="#D8D8D8" d="M138.6 113.2l.8-4 3.3-1.4 3 1.4-1 8-4 2-2-6z"/>
        <path fill="#CBCBCB" d="M139.4 109.2l3.3-1.4 3 1.4-1 8-5.3-8z"/>
        <path fill="#D8D8D8" d="M132.3 246.8l1-5 4.2-2 4 2-1.3 10-5.4 2.8-2.5-7.8z"/>
        <path fill="#CBCBCB" d="M133.3 241.7l4.2-2 4 2-1.3 10.2-7-11z"/>
        <path fill="#D8D8D8" d="M141.8 235.7l1-5 4.2-2 4 2-1.3 10-5.4 2.8-2.5-7.8z"/>
        <path fill="#CBCBCB" d="M142.8 230.6l4.2-2 4 2-1.3 10.2-7-10.2z"/>
        <path fill="#CECECE" d="M138.7 220.2l.6-2.7h4.7l1 2.7-4.3 2.7-2-3z"/>
        <path fill="#BBB" d="M139.3 217.5h4.7l1 2.7-5.7-2.7z"/>
        <path fill="#CECECE" d="M143.8 255l1-5h8.2l1.7 5-7.6 5.2-3-5z"/>
        <path fill="#BBB" d="M144.8 250h8.2l1.7 5-10-5z"/>
        <path fill="#CECECE" d="M136.2 267.2l1-5h8.2l1.7 5-7 5-3-5z"/>
        <path fill="#BBB" d="M137.2 262h8.2l1.7 5.2-9-5z"/>
        <path fill="#BCBCBC" d="M141.8 224.3l1-4h3.4l1.6 4.6-2.4 1-2 1-1.6-3z"/>
        <path fill="#ABABAB" d="M142.7 220.4h3.5l1.6 4.5-2.4 1-2.7-6z"/>
        <path fill="#D8D8D8" d="M142.8 261.6l1-5 4.2-2 4 2-1.3 10-5.4 2.8-2.5-7.8z"/>
        <path fill="#CBCBCB" d="M143.8 256.5l4.2-1.8 4 1.8-1.3 10.2-7-10.2z"/>
        <path fill="#BCBCBC" d="M141.3 248.4l1.5-7.2h6.2l2.7 8.4-4.2 2-3.6 2.6-3-5.8z"/>
        <path fill="#ABABAB" d="M142.8 241.2h6.2l2.7 8.4-4.2 2-4.7-10.4z"/>
        <path fill="#BCBCBC" d="M139.3 278l1.5-7h6.3l3 8.2-4 2-3 2.6-2-5.7z"/>
        <path fill="#ABABAB" d="M140.8 271h6.3l3 8.2-4 2-5-10.2z"/>
        <path fill="#D8D8D8" d="M204.7 24l.8-4 3.3-1.4 3 1.5-1 8-4 3-2-6z"/>
        <path fill="#CBCBCB" d="M205.5 20l3.3-1.4 3 1.5-1 8-5.3-8z"/>
        <path fill="#D8D8D8" d="M182.7 9.2l.8-4 3.3-1.4 3 1.4-1 8-4 2-2-6z"/>
        <path fill="#CBCBCB" d="M183.5 5.2l3.3-1.4 3 1.4-1 8-5.3-8z"/>
        <path fill="#D8D8D8" d="M208.3 46l.8-4 4-1.6 3 1.5-1 8-4 2-2-6z"/>
        <path fill="#CBCBCB" d="M209 42l3.4-1.6 3 1.5-1 8-5.3-8z"/>
        <path fill="#D8D8D8" d="M178 51l1-5.2 4-2 4 2-1.2 10-5.4 2.8L178 51z"/>
        <path fill="#CBCBCB" d="M179 45.8l4-2 4 2-1.2 10-7-10z"/>
        <path fill="#CECECE" d="M203.2 32.8l.7-4h6l1 4-6 4-3-4z"/>
        <path fill="#BBB" d="M204 28.8h6.4l1.3 4-7.8-4z"/>
        <path fill="#CECECE" d="M169 7l1-5h8.3l1.7 5-7.6 5.2-3.3-5z"/>
        <path fill="#BBB" d="M170 2h8.3l1.7 5-10-5z"/>
        <path fill="#CECECE" d="M199.5 150.6l.8-4h6.4l1.4 4-5 4-2-4z"/>
        <path fill="#BBB" d="M200.3 146.5h6.4l1.4 4-7-4z"/>
        <path fill="#CECECE" d="M210 53.6l.6-4h6.5l2 4-6 4-2-4z"/>
        <path fill="#BBB" d="M210.6 49.5h6.5l2 4-8-4z"/>
        <path fill="#CECECE" d="M199.8 121.7l1-5h8.2l1.8 5-7.6 5-3.4-5z"/>
        <path fill="#BBB" d="M200.8 116.6h8.2l1.8 5-10-5z"/>
        <path fill="#BCBCBC" d="M208 38.8l1-5.6h5l2 6.5-3.2 1.5-3 2.2-2-4.6z"/>
        <path fill="#ABABAB" d="M209 33.2h5l2 6.5-3.2 1.5-3.7-8z"/>
        <path fill="#D8D8D8" d="M206 279.2l1-5 4.4-2 4 2-1.4 10-5.4 2.8-2.5-7.8z"/>
        <path fill="#CBCBCB" d="M207 274l4.4-1.7 4 1.8-1.4 11-7-10z"/>
        <path fill="#CECECE" d="M201.5 292.2l1-5h8.2l1.8 5-7.6 5-4-5z"/>
        <path fill="#BBB" d="M202.5 287h8.2l1.8 5.2-10-5z"/>
        <path fill="#D8D8D8" d="M192 159l1-4 3.2-1.4 3 1.4-1 8-4 2.2-2-6.2z"/>
        <path fill="#CBCBCB" d="M193 155l3.2-1.4 3 1.4-1 8-5.3-8z"/>
        <path fill="#CECECE" d="M195.7 167.7l.7-4h6.5l1 4-6 4-3-4z"/>
        <path fill="#BBB" d="M196.4 163.7h6.5l1 4-8-4z"/>
        <path fill="#CECECE" d="M203 227.3l.8-5h8.2l1.8 5-7.6 5-3.3-5z"/>
        <path fill="#BBB" d="M203.8 222.2h8.2l1.8 5-10-5z"/>
        <path fill="#BCBCBC" d="M193.7 153l1.2-5.7h4l2 6.5-3 1.5-3 2.2-2-4.6z"/>
        <path fill="#ABABAB" d="M195 147.3h4.8l2 6.5-3.2 1.5-3.7-8z"/>
        <path fill="#BCBCBC" d="M202.7 218l1.5-7.3h6.2l2.7 8.3-4 2-3 2.6-2-5.7z"/>
        <path fill="#ABABAB" d="M204.2 210.7h6.2l2.7 8.3-4 2-4-10.3z"/>
        <path fill="#CECECE" d="M132.4 156.5l.8-4h6.4l1.4 4-6 4-2.6-4z"/>
        <path fill="#BBB" d="M133.2 152.5h6.4l1.4 4-7.8-4z"/>
        <path fill="#D8D8D8" d="M132.7 164.3l.8-4 3.3-1.5 3 1.5-1 8-4 2-2-6z"/>
        <path fill="#CBCBCB" d="M133.5 160.3l3.3-1.5 3 1.5-1 8-5.3-8z"/>
        <path fill="#BCBCBC" d="M129.2 151.7l1.2-5.7h4.8l2.2 6.5-3.4 1.5-2.8 2.2-2-4.5z"/>
        <path fill="#ABABAB" d="M130.4 146h4.8l2.2 6.5-3.4 1.5-3.6-8z"/>
        <path fill="#D8D8D8" d="M200 108.5l.6-4 3.3-1.5 3 1.5-1 8-5 2-2-6z"/>
        <path fill="#CBCBCB" d="M200.6 104.5l3.3-1.5 3 1.5-1 8-6-8z"/>
        <path fill="#D8D8D8" d="M199.6 162.3l.8-4 3.3-1.5 3 1.5-1 8-4 2-2-6z"/>
        <path fill="#CBCBCB" d="M200.4 158.3l3.3-1.5 3 1.5-1 8-5.3-8z"/>
        <path fill="#BCBCBC" d="M197.6 126.7l1.2-5.7h5l2 6.6-3.3 1.4-3 2.2-2-4.5z"/>
        <path fill="#ABABAB" d="M198.8 121h5l2 6.6-3.3 1.4-3.7-8z"/>
        <path fill="#BCBCBC" d="M196.6 116.8l1.2-5.6h5l2 6.5-3.3 1.5-3 2.2-2-4.6z"/>
        <path fill="#ABABAB" d="M197.8 111.2h5l2 6.5-3.3 1.5-3.7-8z"/>
        <path fill="#95E7F3" d="M174.6 44.4H187v21.8h-12.4z" opacity=".7"/>
        <path fill="#CECECE" d="M176.3 233.4l1-5h8.2l1.7 5-7.6 5-3.3-5z"/>
        <path fill="#BBB" d="M177.3 228.3h8.2l1.7 5-10-5z"/>
        <path fill="#95E7F3" d="M175.6 215.8H188v21.8h-12.4z" opacity=".7"/>
        <path fill="#CECECE" d="M162.5 148.6l1-5h8.2l1.7 5-7.6 5-3.3-5z"/>
        <path fill="#BBB" d="M163.5 143.5h8.2l1.7 5-10-5z"/>
        <path fill="#D8D8D8" d="M152 142l1-5 4.2-1.8 4 1.8-1.3 10.2-6 2.7-3-8z"/>
        <path fill="#CBCBCB" d="M153 137l4.2-1.8 4 1.8-1.3 10.2-7-10.2z"/>
        <path fill="#D8D8D8" d="M161.2 136l1-5 4.2-2 4 2-1.4 10.2-5.3 2.7-2.5-8z"/>
        <path fill="#CBCBCB" d="M162.2 131l4.2-2 4 2-1.4 10.2-6.8-10.2z"/>
        <path fill="#95E7F3" d="M148.7 129h25v28.3h-25z" opacity=".7"/>
        <ellipse cx="158" cy="4.9" fill="#DAF9FD" opacity=".7" rx="3" ry="3"/>
        <ellipse cx="161" cy="5.9" fill="#DAF9FD" opacity=".7" rx="3" ry="3"/>
        <ellipse cx="160" cy="8.9" fill="#DAF9FD" opacity=".7" rx="3" ry="3"/>
        <ellipse cx="163" cy="5.9" fill="#DAF9FD" opacity=".7" rx="3" ry="3"/>
        <ellipse cx="164" cy="7.9" fill="#DAF9FD" opacity=".7" rx="3" ry="3"/>
        <ellipse cx="167" cy="4.9" fill="#DAF9FD" opacity=".7" rx="3" ry="3"/>
        <ellipse cx="164.5" cy="8.4" fill="#FFF" opacity=".7" rx="1.5" ry="1.5"/>
        <ellipse cx="169" cy="6.9" fill="#DAF9FD" opacity=".7" rx="3" ry="3"/>
        <ellipse cx="156" cy="3" fill="#FFF" rx="1" ry="1"/>
        <ellipse cx="163" cy="8.9" fill="#FFF" rx="1" ry="1"/>
        <ellipse cx="170.5" cy=".5" fill="#FFF" rx=".5" ry=".5"/>
        <ellipse cx="171" cy="5.9" fill="#DAF9FD" opacity=".7" rx="3" ry="3"/>
        <ellipse cx="174" cy="4.9" fill="#DAF9FD" opacity=".7" rx="3" ry="3"/>
        <ellipse cx="171.5" cy="10.4" fill="#DAF9FD" opacity=".7" rx="3.5" ry="3.5"/>
        <ellipse cx="174.5" cy="7.4" fill="#DAF9FD" opacity=".7" rx="3.5" ry="3.5"/>
        <ellipse cx="174.5" cy="13.4" fill="#F8FFFF" opacity=".5" rx="3.5" ry="3.5"/>
        <ellipse cx="177.5" cy="10.4" fill="#DAF9FD" opacity=".7" rx="3.5" ry="3.5"/>
        <ellipse cx="153.5" cy="6.4" fill="#FFF" opacity=".7" rx="1.5" ry="1.5"/>
        <ellipse cx="162.5" cy="11.4" fill="#F8FFFF" opacity=".5" rx="3.5" ry="3.5"/>
        <ellipse cx="176.5" cy="4.5" fill="#DAF9FD" opacity=".7" rx="3.5" ry="3.5"/>
        <ellipse cx="180.5" cy="5.4" fill="#DAF9FD" opacity=".7" rx="3.5" ry="3.5"/>
        <ellipse cx="177.5" cy="6.4" fill="#FFF" opacity=".7" rx="1.5" ry="1.5"/>
        <ellipse cx="182.5" cy="5.4" fill="#DAF9FD" opacity=".7" rx="3.5" ry="3.5"/>
        <ellipse cx="182.5" cy="14.4" fill="#DAF9FD" opacity=".7" rx="3.5" ry="3.5"/>
        <ellipse cx="185.5" cy="11.4" fill="#DAF9FD" opacity=".7" rx="3.5" ry="3.5"/>
        <ellipse cx="186" cy="8.9" fill="#F8FFFF" opacity=".5" rx="4" ry="4"/>
        <ellipse cx="186.5" cy="5.4" fill="#FFF" opacity=".7" rx="1.5" ry="1.5"/>
        <ellipse cx="177.5" cy="2.5" fill="#FFF" rx=".5" ry=".5"/>
        <ellipse cx="182" cy="7.9" fill="#FFF" rx="1" ry="1"/>
        <ellipse cx="171.5" cy="12.4" fill="#FFF" rx=".5" ry=".5"/>
        <ellipse cx="191.5" cy="5.4" fill="#FFF" rx=".5" ry=".5"/>
        <ellipse cx="181.5" cy="14.4" fill="#FFF" rx=".5" ry=".5"/>
        <ellipse cx="172" cy="5.9" fill="#FFF" rx="1" ry="1"/>
        <ellipse cx="186" cy="2" fill="#FFF" rx="1" ry="1"/>
      </g>
      <path fill="#97D6AA" d="M713 628.8c751.2 0 732.5-92.8 732.5-207.2 0-88-157-214.8-340-270.8-183.4-56-280.5 101-374 101-71.2 0-161.4-57-258.3-38.8-74 14-210.2 63-287.2 63S-19.5 337-19.5 421.5c0 114.4-18.8 207.2 732.5 207.2z"/>
      <path fill="#9FDCB2" d="M1258.7 378C1254 503 1417 584.6 1417 584.6s25.5-137.2 25.5-157.5c0-88-156.8-214-340-270-82.4-25 161 96 156.2 222zM745 273c4 0 2-17-11-17-70 0-103-24.6-173-41.5C631 268 741 273 745 273z"/>
      <path fill="#7AE0F1" d="M619.7 511c-10.8-41.6-23.2-42.2-35-65.4-12-23.2 18.6-54.8 39-64.2 12-5.7 13-21 24.3-33.5 7.4-9 18.6-15 28.4-20 24.3-13 60.6-29 77.6-41 17-12-1.5-38-1.5-38l26.5-10s27 26 19 51c-8 26-81.6 45-88.3 64-6.7 18 4.7 25-10.7 50-15.4 24-15.4 35 0 49 15.4 13 50 21 57 47s-16.5 78-16.5 78h-165s56-27 45.2-69z"/>
      <path fill="#78D9E8" d="M715 510.3c9.4-23.4-34.4-46.5-45-61.2-10.4-14 .2-48 11-62 11-15 3.8-25 15-37 7.4-8 18.6-16 28.4-21 24.3-12 54.6-26 60.6-42 6-17-14-39-14-39l7.8-4s27.2 26 19.2 47-81.6 49-88.3 67c-6.7 19 4.7 25-10.7 50-15.4 25-15.4 36 0 49 15.4 14 50 21 57 47s-16.5 77-16.5 77h-77s43-47 52.5-70z"/>
      <path fill="#80BD93" d="M-17 .7c169 0 245.6 540.7 245.6 540.7h-491.4S-186.2.7-17 .7z"/>
      <path fill="#79BA8E" d="M-21.7 9.8c164.3 0-238.8 632-238.8 632S-186 10-21.7 10z"/>
      <path fill="#6CB182" d="M1354.4 136.3c119.3 0 165.3 482 165.3 482H1173s62-482 181.4-482z"/>
      <path fill="#68AC7E" d="M1354.6 147.2c111 0 167 436.5 167 436.5s-278-436.5-167-436.5z"/>
      <path fill="#947662" d="M958.4 218.8c.4-1.6-.2-3-.2-3s.6.2 1.2 0c.6-.3 1-1 1-1s-.2 2.2 0 4c.5 1.7 1.3 3.3 1.3 3.3H957s1-1 1.4-3z"/>
      <path fill="#8C6B55" d="M959.8 220c-.2-1.2-.3-4 0-4.2.6-.3.7-1 .7-1s-.3 2.2 0 4c.4 1.7 1.2 3.3 1.2 3.3h-.8l-2-2z"/>
      <path fill="#79B37B" d="M955.4 212.4c.8-1.5 1.5-3.4 1.8-5 .3-1.6.3-3.6.3-3.6s3 .8 4.2 4.4c.5 1.5 2.4 2.7 2.6 4.2.2 2.2-1.3 3.7-1.3 3.7s-2.6 3-4 2c-1.5-1-2.6 0-3.3-1-.8 0-1.8-1-.3-4z"/>
      <path fill="#83BC84" d="M955.6 212.4c1-1.5 1.8-5.7 1.8-4.7s-1 4.8-1.7 6.3c-.7 1.4.2 2 0 2-.8-.4-1.6-1 0-3.6z"/>
      <path fill="#76AC77" d="M963.3 213c0-1.3-1-1.4-2.4-3.6-1-.8 0-1.3-1-2.8-1-1.5-3-2.4-3-2.4s3 .8 4 4.5c0 1.4 2 2.7 2 4 0 2.3-3 4-3 4s2-2 1-3.6z"/>
      <path fill="#947662" d="M949.4 234.2c.5-2-.2-3.7-.2-3.7s.7.3 1.5 0c.7-.3 1.3-1 1.3-1s-.4 2.6 0 4.7c.4 2 1.4 4 1.4 4H948s1-2 1.4-4z"/>
      <path fill="#8C6B55" d="M951.2 235.6c-.4-1.4-.4-5 0-5 .7-.3.8-1.2.8-1.2s-.4 2.7 0 4.8c.4 2 1.4 4 1.4 4h-1s-1-1.2-1.2-2.6z"/>
      <path fill="#79B37B" d="M946 226.5c1-1.8 1.6-4.2 2-6 .3-2 .4-4.4.4-4.4s3.4 1 5 6c.6 2 3 4 3 5 .4 3-1.4 5-1.4 5s-3.2 3-5 2c-1.6-2-3-1-3.8-1-1 0-2.2-1-.3-4z"/>
      <path fill="#83BC84" d="M946 226.4c1-1.8 2.2-7 2.2-5.6 0 1.2-1 6-2 7.6-1 1.8.3 2.5 0 2.3-1-.4-2-1 0-4.3z"/>
      <path fill="#76AC77" d="M955.3 227.4c0-1.8-1.3-2-3-4.6-.5-1 .4-1.5-.6-3.3-1-2-3.3-3-3.3-3s3.4 1 5 5.5c.6 1.8 2.6 3.2 2.8 5 .3 2.6-3 4.7-3 4.7s2.2-2.5 2-4.3z"/>
      <path fill="#8CCEA1" d="M574 315.2c8.5-1.8 4-23.8-3.3-23.8s-39.3.5-37.4 6c2 5.7 32.3 19.6 40.7 17.8z"/>
      <path fill="#ECE1B3" d="M583.5 376.2l-3.5 5.6-56.3-6c-19.2-2-39.7-3-39.7-3s-17-3-32 4-35 16-46 25.8c-11 10-50 60.4-50 60.4l-11-9 49-53.4s-7.3-11.6-8.5-14.3c-1-2.6-.5-6.5-.5-6.5h5s1.2 4 2.6 7c1.4 3 6.4 8 6.4 8s30.3-18.2 47-25c16.7-6.6 23-5.8 38-5.8s35 3 35 3 31-19.8 36-26.8-2-39.6-2-39.6h3s8 30.7 5 40.6c-3 10-30 26.7-30 26.7l52.5 8z"/>
      <path fill="#6AA57D" d="M554 301.2c15.6 0 22.4-5.5 22.4-9 0-3.4-10.8-3.6-24.2-3.6-13.5 0-24.4.4-23.7 4 .6 3.5 10 8.6 25.6 8.6z"/>
      <path fill="#71B085" d="M552.5 263.7c15.6 0 23.8 28.3 23.8 28.3s0 8-23 7.4c-23-.7-24.6-7.4-24.6-7.4s8-28.3 23.8-28.3z"/>
      <path fill="#6AAE7F" d="M543 268.4c-3.4 2.7-21 22-2.2 29.5-9.5-2-12-6-12-6s5.8-20 14.2-24z"/>
      <path fill="#6FAA81" d="M555.3 265c13 1.5 21 27.2 21 27.2s-.5 5.4-13.4 6.8c11 0 3-30.2-8-34z"/>
      <path fill="#E5C3A9" stroke="#CBA990" d="M553.8 286.2c12.2 0 14 12 14 12s-3 1.7-15.4 1.3c-12.5-.3-13-1.7-13-1.7s2.2-11.6 14.4-11.6z"/>
      <path fill="#E0B99B" d="M556 287.2c9-1 12 11 12 11s-.5.4-3 .7c3.5-3-5.6-9-9-12z"/>
      <path fill="#CCA990" d="M553.8 286.8c4 .8 9 1.5 0 3-9 1.4-15 8-14.3 8-.6 0 2-11 14.3-11z"/>
      <path fill="#68A07A" d="M553.8 285.2c12.4 0 14.3 12.4 14.3 12.8 0 .4-3-9-14-9s-14 9.4-14 9c0-.4 2-12.8 15-12.8z"/>
      <path fill="#679876" d="M557.8 287c7.5.8 10.7 9.4 10.3 11 0 0-1-6.5-12-9 3-.6 6-1.2 2-2z"/>
      <path fill="#D8B398" d="M554 292c4.6 0 5.5 7.8 5.5 7.8s-1.6.7-5.5.7c-3.8 0-5.2-1-5.2-1s.7-7.6 5.2-7.6z"/>
      <path fill="#D0AD92" d="M554 292c4.6 0 5.5 7.8 5.5 7.8s0 .5-3.8.5c3.8-.5 3.2-5-1.7-8.4z"/>
      <path fill="#BF9576" d="M554 292.5c4 0 4.6 3.6 4.6 3.7 0 0-1.2-3-4.5-2.6-3 .5-4 2.6-4 2.5 0 0 1-3 5-3z"/>
      <path fill="#724444" d="M554 291.6c4 0 4.6 4.4 4.6 4.6 0 .2-1-3.2-4.5-3.2s-4 3.3-4 3c0 0 1-4.4 5-4.4z"/>
      <path fill="#6FAA81" d="M543 275.3c1 0 1.6-.2 1.6-.8 0-.5-.2-1-1.5-1-1 0-2 .3-2 .8 0 .4 1 1 2 1z"/>
      <path fill="#9D5757" d="M541 269h3.2v5s0 .7-1.6.7-1.6-.8-1.6-.8v-5z"/>
      <path fill="#8B5555" d="M541 269.8h3.2v2l-3.2-1.3v-.7z"/>
      <path fill="#724444" d="M540.4 269h4.5v1h-5z"/>
      <path fill="#673838" d="M540.4 269h1l.6 1h-1.6v-1z"/>
      <g transform="translate(565.753 298.638)">
        <ellipse cx="1.4" cy="1.7" fill="#60A471" rx="1.4" ry="1.1"/>
        <g transform="translate(.961)">
          <ellipse cx=".5" cy=".4" fill="#4B7D5A" rx=".4" ry=".4"/>
          <ellipse cx="1.2" cy=".6" fill="#4B7D5A" rx=".4" ry=".4"/>
          <ellipse cx="1.1" cy=".4" fill="#E0C665" rx=".1" ry=".3"/>
          <path fill="#E0C665" d="M1 .5h.2l.2-.3H1v.3z"/>
          <ellipse cx=".4" cy=".8" fill="#518862" rx=".4" ry=".4"/>
          <ellipse cx=".8" cy=".5" fill="#518862" rx=".4" ry=".4"/>
          <ellipse cx="1.1" cy=".9" fill="#518862" rx=".4" ry=".4"/>
          <ellipse cx=".6" cy=".4" fill="#A0DD48" rx=".1" ry=".3"/>
          <path fill="#A0DD48" d="M.5.5h.3V.2v.3z"/>
          <ellipse cx=".7" cy=".8" fill="#4B7D5A" rx=".4" ry=".4"/>
        </g>
        <g transform="translate(1.322 .756)">
          <ellipse cx=".5" cy=".4" fill="#4B7D5A" rx=".4" ry=".4"/>
          <ellipse cx="1.2" cy=".6" fill="#4B7D5A" rx=".4" ry=".4"/>
          <ellipse cx="1.1" cy=".3" fill="#DA5F5F" rx=".1" ry=".3"/>
          <path fill="#DA5F5F" d="M1 .4V0L.8.5z"/>
          <ellipse cx=".4" cy=".8" fill="#518862" rx=".4" ry=".4"/>
          <ellipse cx=".8" cy=".5" fill="#518862" rx=".4" ry=".4"/>
          <ellipse cx="1.1" cy=".9" fill="#518862" rx=".4" ry=".4"/>
          <ellipse cx=".6" cy=".4" fill="#A159D2" rx=".1" ry=".3"/>
          <path fill="#A159D2" d="M.5.5h.2L1 .2H.5v.4z"/>
          <ellipse cx=".7" cy=".8" fill="#4B7D5A" rx=".4" ry=".4"/>
        </g>
        <g transform="translate(0 .504)">
          <ellipse cx=".5" cy=".4" fill="#4B7D5A" rx=".4" ry=".4"/>
          <ellipse cx="1.2" cy=".6" fill="#4B7D5A" rx=".4" ry=".4"/>
          <ellipse cx="1.1" cy=".4" fill="#E0C665" rx=".1" ry=".3"/>
          <path fill="#E0C665" d="M1 .5V.2v.3z"/>
          <ellipse cx=".4" cy=".8" fill="#518862" rx=".4" ry=".4"/>
          <ellipse cx=".8" cy=".5" fill="#518862" rx=".4" ry=".4"/>
          <ellipse cx="1.1" cy=".9" fill="#518862" rx=".4" ry=".4"/>
          <ellipse cx=".6" cy=".4" fill="#A159D2" rx=".1" ry=".3"/>
          <path fill="#A159D2" d="M.5.5h.2L1 .2H.5v.4z"/>
          <ellipse cx=".7" cy=".8" fill="#4B7D5A" rx=".4" ry=".4"/>
        </g>
        <g transform="translate(.601 1.386)">
          <ellipse cx=".5" cy=".4" fill="#4B7D5A" rx=".4" ry=".4"/>
          <ellipse cx="1.2" cy=".6" fill="#4B7D5A" rx=".4" ry=".4"/>
          <ellipse cx="1.1" cy=".4" fill="#A0DD48" rx=".1" ry=".3"/>
          <path fill="#A0DD48" d="M1 .5V.2v.3z"/>
          <ellipse cx=".4" cy=".8" fill="#518862" rx=".4" ry=".4"/>
          <ellipse cx=".8" cy=".5" fill="#518862" rx=".4" ry=".4"/>
          <ellipse cx="1.1" cy=".9" fill="#518862" rx=".4" ry=".4"/>
          <ellipse cx=".6" cy=".4" fill="#DA5F5F" rx=".1" ry=".3"/>
          <path fill="#DA5F5F" d="M.5.5h.2L1 .2H.5v.4z"/>
          <ellipse cx=".7" cy=".8" fill="#4B7D5A" rx=".4" ry=".4"/>
        </g>
      </g>
      <g transform="translate(562.84 300.165)">
        <ellipse cx="1.4" cy="1.7" fill="#60A471" rx="1.4" ry="1.1"/>
        <g transform="translate(.961)">
          <ellipse cx=".5" cy=".4" fill="#4B7D5A" rx=".4" ry=".4"/>
          <ellipse cx="1.2" cy=".6" fill="#4B7D5A" rx=".4" ry=".4"/>
          <ellipse cx="1.1" cy=".4" fill="#E0C665" rx=".1" ry=".3"/>
          <path fill="#E0C665" d="M1 .5h.2l.2-.3H1v.3z"/>
          <ellipse cx=".4" cy=".8" fill="#518862" rx=".4" ry=".4"/>
          <ellipse cx=".8" cy=".5" fill="#518862" rx=".4" ry=".4"/>
          <ellipse cx="1.1" cy=".9" fill="#518862" rx=".4" ry=".4"/>
          <ellipse cx=".6" cy=".4" fill="#A0DD48" rx=".1" ry=".3"/>
          <path fill="#A0DD48" d="M.5.5h.3V.2v.3z"/>
          <ellipse cx=".7" cy=".8" fill="#4B7D5A" rx=".4" ry=".4"/>
        </g>
        <g transform="translate(1.322 .756)">
          <ellipse cx=".5" cy=".4" fill="#4B7D5A" rx=".4" ry=".4"/>
          <ellipse cx="1.2" cy=".6" fill="#4B7D5A" rx=".4" ry=".4"/>
          <ellipse cx="1.1" cy=".3" fill="#DA5F5F" rx=".1" ry=".3"/>
          <path fill="#DA5F5F" d="M1 .4V0L.8.5z"/>
          <ellipse cx=".4" cy=".8" fill="#518862" rx=".4" ry=".4"/>
          <ellipse cx=".8" cy=".5" fill="#518862" rx=".4" ry=".4"/>
          <ellipse cx="1.1" cy=".9" fill="#518862" rx=".4" ry=".4"/>
          <ellipse cx=".6" cy=".4" fill="#A159D2" rx=".1" ry=".3"/>
          <path fill="#A159D2" d="M.5.5h.2L1 .2H.5v.4z"/>
          <ellipse cx=".7" cy=".8" fill="#4B7D5A" rx=".4" ry=".4"/>
        </g>
        <g transform="translate(0 .504)">
          <ellipse cx=".5" cy=".4" fill="#4B7D5A" rx=".4" ry=".4"/>
          <ellipse cx="1.2" cy=".6" fill="#4B7D5A" rx=".4" ry=".4"/>
          <ellipse cx="1.1" cy=".4" fill="#E0C665" rx=".1" ry=".3"/>
          <path fill="#E0C665" d="M1 .5V.2v.3z"/>
          <ellipse cx=".4" cy=".8" fill="#518862" rx=".4" ry=".4"/>
          <ellipse cx=".8" cy=".5" fill="#518862" rx=".4" ry=".4"/>
          <ellipse cx="1.1" cy=".9" fill="#518862" rx=".4" ry=".4"/>
          <ellipse cx=".6" cy=".4" fill="#A159D2" rx=".1" ry=".3"/>
          <path fill="#A159D2" d="M.5.5h.2L1 .2H.5v.4z"/>
          <ellipse cx=".7" cy=".8" fill="#4B7D5A" rx=".4" ry=".4"/>
        </g>
        <g transform="translate(.601 1.386)">
          <ellipse cx=".5" cy=".4" fill="#4B7D5A" rx=".4" ry=".4"/>
          <ellipse cx="1.2" cy=".6" fill="#4B7D5A" rx=".4" ry=".4"/>
          <ellipse cx="1.1" cy=".4" fill="#A0DD48" rx=".1" ry=".3"/>
          <path fill="#A0DD48" d="M1 .5V.2v.3z"/>
          <ellipse cx=".4" cy=".8" fill="#518862" rx=".4" ry=".4"/>
          <ellipse cx=".8" cy=".5" fill="#518862" rx=".4" ry=".4"/>
          <ellipse cx="1.1" cy=".9" fill="#518862" rx=".4" ry=".4"/>
          <ellipse cx=".6" cy=".4" fill="#DA5F5F" rx=".1" ry=".3"/>
          <path fill="#DA5F5F" d="M.5.5h.2L1 .2H.5v.4z"/>
          <ellipse cx=".7" cy=".8" fill="#4B7D5A" rx=".4" ry=".4"/>
        </g>
      </g>
      <g transform="translate(559.053 299.096)">
        <ellipse cx="1.4" cy="1.7" fill="#60A471" rx="1.4" ry="1.1"/>
        <g transform="translate(.961)">
          <ellipse cx=".5" cy=".4" fill="#4B7D5A" rx=".4" ry=".4"/>
          <ellipse cx="1.2" cy=".6" fill="#4B7D5A" rx=".4" ry=".4"/>
          <ellipse cx="1.1" cy=".4" fill="#E0C665" rx=".1" ry=".3"/>
          <path fill="#E0C665" d="M1 .5h.2l.2-.3H1v.3z"/>
          <ellipse cx=".4" cy=".8" fill="#518862" rx=".4" ry=".4"/>
          <ellipse cx=".8" cy=".5" fill="#518862" rx=".4" ry=".4"/>
          <ellipse cx="1.1" cy=".9" fill="#518862" rx=".4" ry=".4"/>
          <ellipse cx=".6" cy=".4" fill="#A0DD48" rx=".1" ry=".3"/>
          <path fill="#A0DD48" d="M.5.5h.3V.2v.3z"/>
          <ellipse cx=".7" cy=".8" fill="#4B7D5A" rx=".4" ry=".4"/>
        </g>
        <g transform="translate(1.322 .756)">
          <ellipse cx=".5" cy=".4" fill="#4B7D5A" rx=".4" ry=".4"/>
          <ellipse cx="1.2" cy=".6" fill="#4B7D5A" rx=".4" ry=".4"/>
          <ellipse cx="1.1" cy=".3" fill="#DA5F5F" rx=".1" ry=".3"/>
          <path fill="#DA5F5F" d="M1 .4V0L.8.5z"/>
          <ellipse cx=".4" cy=".8" fill="#518862" rx=".4" ry=".4"/>
          <ellipse cx=".8" cy=".5" fill="#518862" rx=".4" ry=".4"/>
          <ellipse cx="1.1" cy=".9" fill="#518862" rx=".4" ry=".4"/>
          <ellipse cx=".6" cy=".4" fill="#A159D2" rx=".1" ry=".3"/>
          <path fill="#A159D2" d="M.5.5h.2L1 .2H.5v.4z"/>
          <ellipse cx=".7" cy=".8" fill="#4B7D5A" rx=".4" ry=".4"/>
        </g>
        <g transform="translate(0 .504)">
          <ellipse cx=".5" cy=".4" fill="#4B7D5A" rx=".4" ry=".4"/>
          <ellipse cx="1.2" cy=".6" fill="#4B7D5A" rx=".4" ry=".4"/>
          <ellipse cx="1.1" cy=".4" fill="#E0C665" rx=".1" ry=".3"/>
          <path fill="#E0C665" d="M1 .5V.2v.3z"/>
          <ellipse cx=".4" cy=".8" fill="#518862" rx=".4" ry=".4"/>
          <ellipse cx=".8" cy=".5" fill="#518862" rx=".4" ry=".4"/>
          <ellipse cx="1.1" cy=".9" fill="#518862" rx=".4" ry=".4"/>
          <ellipse cx=".6" cy=".4" fill="#A159D2" rx=".1" ry=".3"/>
          <path fill="#A159D2" d="M.5.5h.2L1 .2H.5v.4z"/>
          <ellipse cx=".7" cy=".8" fill="#4B7D5A" rx=".4" ry=".4"/>
        </g>
        <g transform="translate(.601 1.386)">
          <ellipse cx=".5" cy=".4" fill="#4B7D5A" rx=".4" ry=".4"/>
          <ellipse cx="1.2" cy=".6" fill="#4B7D5A" rx=".4" ry=".4"/>
          <ellipse cx="1.1" cy=".4" fill="#A0DD48" rx=".1" ry=".3"/>
          <path fill="#A0DD48" d="M1 .5V.2v.3z"/>
          <ellipse cx=".4" cy=".8" fill="#518862" rx=".4" ry=".4"/>
          <ellipse cx=".8" cy=".5" fill="#518862" rx=".4" ry=".4"/>
          <ellipse cx="1.1" cy=".9" fill="#518862" rx=".4" ry=".4"/>
          <ellipse cx=".6" cy=".4" fill="#DA5F5F" rx=".1" ry=".3"/>
          <path fill="#DA5F5F" d="M.5.5h.2L1 .2H.5v.4z"/>
          <ellipse cx=".7" cy=".8" fill="#4B7D5A" rx=".4" ry=".4"/>
        </g>
      </g>
      <g transform="translate(545.363 298.638)">
        <ellipse cx="1.4" cy="1.7" fill="#60A471" rx="1.4" ry="1.1"/>
        <g transform="translate(.961)">
          <ellipse cx=".5" cy=".4" fill="#4B7D5A" rx=".4" ry=".4"/>
          <ellipse cx="1.2" cy=".6" fill="#4B7D5A" rx=".4" ry=".4"/>
          <ellipse cx="1.1" cy=".4" fill="#E0C665" rx=".1" ry=".3"/>
          <path fill="#E0C665" d="M1 .5h.2l.2-.3H1v.3z"/>
          <ellipse cx=".4" cy=".8" fill="#518862" rx=".4" ry=".4"/>
          <ellipse cx=".8" cy=".5" fill="#518862" rx=".4" ry=".4"/>
          <ellipse cx="1.1" cy=".9" fill="#518862" rx=".4" ry=".4"/>
          <ellipse cx=".6" cy=".4" fill="#A0DD48" rx=".1" ry=".3"/>
          <path fill="#A0DD48" d="M.5.5h.3V.2v.3z"/>
          <ellipse cx=".7" cy=".8" fill="#4B7D5A" rx=".4" ry=".4"/>
        </g>
        <g transform="translate(1.322 .756)">
          <ellipse cx=".5" cy=".4" fill="#4B7D5A" rx=".4" ry=".4"/>
          <ellipse cx="1.2" cy=".6" fill="#4B7D5A" rx=".4" ry=".4"/>
          <ellipse cx="1.1" cy=".3" fill="#DA5F5F" rx=".1" ry=".3"/>
          <path fill="#DA5F5F" d="M1 .4V0L.8.5z"/>
          <ellipse cx=".4" cy=".8" fill="#518862" rx=".4" ry=".4"/>
          <ellipse cx=".8" cy=".5" fill="#518862" rx=".4" ry=".4"/>
          <ellipse cx="1.1" cy=".9" fill="#518862" rx=".4" ry=".4"/>
          <ellipse cx=".6" cy=".4" fill="#A159D2" rx=".1" ry=".3"/>
          <path fill="#A159D2" d="M.5.5h.2L1 .2H.5v.4z"/>
          <ellipse cx=".7" cy=".8" fill="#4B7D5A" rx=".4" ry=".4"/>
        </g>
        <g transform="translate(0 .504)">
          <ellipse cx=".5" cy=".4" fill="#4B7D5A" rx=".4" ry=".4"/>
          <ellipse cx="1.2" cy=".6" fill="#4B7D5A" rx=".4" ry=".4"/>
          <ellipse cx="1.1" cy=".4" fill="#E0C665" rx=".1" ry=".3"/>
          <path fill="#E0C665" d="M1 .5V.2v.3z"/>
          <ellipse cx=".4" cy=".8" fill="#518862" rx=".4" ry=".4"/>
          <ellipse cx=".8" cy=".5" fill="#518862" rx=".4" ry=".4"/>
          <ellipse cx="1.1" cy=".9" fill="#518862" rx=".4" ry=".4"/>
          <ellipse cx=".6" cy=".4" fill="#A159D2" rx=".1" ry=".3"/>
          <path fill="#A159D2" d="M.5.5h.2L1 .2H.5v.4z"/>
          <ellipse cx=".7" cy=".8" fill="#4B7D5A" rx=".4" ry=".4"/>
        </g>
        <g transform="translate(.601 1.386)">
          <ellipse cx=".5" cy=".4" fill="#4B7D5A" rx=".4" ry=".4"/>
          <ellipse cx="1.2" cy=".6" fill="#4B7D5A" rx=".4" ry=".4"/>
          <ellipse cx="1.1" cy=".4" fill="#A0DD48" rx=".1" ry=".3"/>
          <path fill="#A0DD48" d="M1 .5V.2v.3z"/>
          <ellipse cx=".4" cy=".8" fill="#518862" rx=".4" ry=".4"/>
          <ellipse cx=".8" cy=".5" fill="#518862" rx=".4" ry=".4"/>
          <ellipse cx="1.1" cy=".9" fill="#518862" rx=".4" ry=".4"/>
          <ellipse cx=".6" cy=".4" fill="#DA5F5F" rx=".1" ry=".3"/>
          <path fill="#DA5F5F" d="M.5.5h.2L1 .2H.5v.4z"/>
          <ellipse cx=".7" cy=".8" fill="#4B7D5A" rx=".4" ry=".4"/>
        </g>
      </g>
      <g transform="translate(541.868 298.485)">
        <ellipse cx="1.4" cy="1.7" fill="#60A471" rx="1.4" ry="1.1"/>
        <g transform="translate(.961)">
          <ellipse cx=".5" cy=".4" fill="#4B7D5A" rx=".4" ry=".4"/>
          <ellipse cx="1.2" cy=".6" fill="#4B7D5A" rx=".4" ry=".4"/>
          <ellipse cx="1.1" cy=".4" fill="#E0C665" rx=".1" ry=".3"/>
          <path fill="#E0C665" d="M1 .5h.2l.2-.3H1v.3z"/>
          <ellipse cx=".4" cy=".8" fill="#518862" rx=".4" ry=".4"/>
          <ellipse cx=".8" cy=".5" fill="#518862" rx=".4" ry=".4"/>
          <ellipse cx="1.1" cy=".9" fill="#518862" rx=".4" ry=".4"/>
          <ellipse cx=".6" cy=".4" fill="#A0DD48" rx=".1" ry=".3"/>
          <path fill="#A0DD48" d="M.5.5h.3V.2v.3z"/>
          <ellipse cx=".7" cy=".8" fill="#4B7D5A" rx=".4" ry=".4"/>
        </g>
        <g transform="translate(1.322 .756)">
          <ellipse cx=".5" cy=".4" fill="#4B7D5A" rx=".4" ry=".4"/>
          <ellipse cx="1.2" cy=".6" fill="#4B7D5A" rx=".4" ry=".4"/>
          <ellipse cx="1.1" cy=".3" fill="#DA5F5F" rx=".1" ry=".3"/>
          <path fill="#DA5F5F" d="M1 .4V0L.8.5z"/>
          <ellipse cx=".4" cy=".8" fill="#518862" rx=".4" ry=".4"/>
          <ellipse cx=".8" cy=".5" fill="#518862" rx=".4" ry=".4"/>
          <ellipse cx="1.1" cy=".9" fill="#518862" rx=".4" ry=".4"/>
          <ellipse cx=".6" cy=".4" fill="#A159D2" rx=".1" ry=".3"/>
          <path fill="#A159D2" d="M.5.5h.2L1 .2H.5v.4z"/>
          <ellipse cx=".7" cy=".8" fill="#4B7D5A" rx=".4" ry=".4"/>
        </g>
        <g transform="translate(0 .504)">
          <ellipse cx=".5" cy=".4" fill="#4B7D5A" rx=".4" ry=".4"/>
          <ellipse cx="1.2" cy=".6" fill="#4B7D5A" rx=".4" ry=".4"/>
          <ellipse cx="1.1" cy=".4" fill="#E0C665" rx=".1" ry=".3"/>
          <path fill="#E0C665" d="M1 .5V.2v.3z"/>
          <ellipse cx=".4" cy=".8" fill="#518862" rx=".4" ry=".4"/>
          <ellipse cx=".8" cy=".5" fill="#518862" rx=".4" ry=".4"/>
          <ellipse cx="1.1" cy=".9" fill="#518862" rx=".4" ry=".4"/>
          <ellipse cx=".6" cy=".4" fill="#A159D2" rx=".1" ry=".3"/>
          <path fill="#A159D2" d="M.5.5h.2L1 .2H.5v.4z"/>
          <ellipse cx=".7" cy=".8" fill="#4B7D5A" rx=".4" ry=".4"/>
        </g>
        <g transform="translate(.601 1.386)">
          <ellipse cx=".5" cy=".4" fill="#4B7D5A" rx=".4" ry=".4"/>
          <ellipse cx="1.2" cy=".6" fill="#4B7D5A" rx=".4" ry=".4"/>
          <ellipse cx="1.1" cy=".4" fill="#A0DD48" rx=".1" ry=".3"/>
          <path fill="#A0DD48" d="M1 .5V.2v.3z"/>
          <ellipse cx=".4" cy=".8" fill="#518862" rx=".4" ry=".4"/>
          <ellipse cx=".8" cy=".5" fill="#518862" rx=".4" ry=".4"/>
          <ellipse cx="1.1" cy=".9" fill="#518862" rx=".4" ry=".4"/>
          <ellipse cx=".6" cy=".4" fill="#DA5F5F" rx=".1" ry=".3"/>
          <path fill="#DA5F5F" d="M.5.5h.2L1 .2H.5v.4z"/>
          <ellipse cx=".7" cy=".8" fill="#4B7D5A" rx=".4" ry=".4"/>
        </g>
      </g>
      <g transform="translate(538.372 299.096)">
        <ellipse cx="1.4" cy="1.7" fill="#60A471" rx="1.4" ry="1.1"/>
        <g transform="translate(.961)">
          <ellipse cx=".5" cy=".4" fill="#4B7D5A" rx=".4" ry=".4"/>
          <ellipse cx="1.2" cy=".6" fill="#4B7D5A" rx=".4" ry=".4"/>
          <ellipse cx="1.1" cy=".4" fill="#E0C665" rx=".1" ry=".3"/>
          <path fill="#E0C665" d="M1 .5h.2l.2-.3H1v.3z"/>
          <ellipse cx=".4" cy=".8" fill="#518862" rx=".4" ry=".4"/>
          <ellipse cx=".8" cy=".5" fill="#518862" rx=".4" ry=".4"/>
          <ellipse cx="1.1" cy=".9" fill="#518862" rx=".4" ry=".4"/>
          <ellipse cx=".6" cy=".4" fill="#A0DD48" rx=".1" ry=".3"/>
          <path fill="#A0DD48" d="M.5.5h.3V.2v.3z"/>
          <ellipse cx=".7" cy=".8" fill="#4B7D5A" rx=".4" ry=".4"/>
        </g>
        <g transform="translate(1.322 .756)">
          <ellipse cx=".5" cy=".4" fill="#4B7D5A" rx=".4" ry=".4"/>
          <ellipse cx="1.2" cy=".6" fill="#4B7D5A" rx=".4" ry=".4"/>
          <ellipse cx="1.1" cy=".3" fill="#DA5F5F" rx=".1" ry=".3"/>
          <path fill="#DA5F5F" d="M1 .4V0L.8.5z"/>
          <ellipse cx=".4" cy=".8" fill="#518862" rx=".4" ry=".4"/>
          <ellipse cx=".8" cy=".5" fill="#518862" rx=".4" ry=".4"/>
          <ellipse cx="1.1" cy=".9" fill="#518862" rx=".4" ry=".4"/>
          <ellipse cx=".6" cy=".4" fill="#A159D2" rx=".1" ry=".3"/>
          <path fill="#A159D2" d="M.5.5h.2L1 .2H.5v.4z"/>
          <ellipse cx=".7" cy=".8" fill="#4B7D5A" rx=".4" ry=".4"/>
        </g>
        <g transform="translate(0 .504)">
          <ellipse cx=".5" cy=".4" fill="#4B7D5A" rx=".4" ry=".4"/>
          <ellipse cx="1.2" cy=".6" fill="#4B7D5A" rx=".4" ry=".4"/>
          <ellipse cx="1.1" cy=".4" fill="#E0C665" rx=".1" ry=".3"/>
          <path fill="#E0C665" d="M1 .5V.2v.3z"/>
          <ellipse cx=".4" cy=".8" fill="#518862" rx=".4" ry=".4"/>
          <ellipse cx=".8" cy=".5" fill="#518862" rx=".4" ry=".4"/>
          <ellipse cx="1.1" cy=".9" fill="#518862" rx=".4" ry=".4"/>
          <ellipse cx=".6" cy=".4" fill="#A159D2" rx=".1" ry=".3"/>
          <path fill="#A159D2" d="M.5.5h.2L1 .2H.5v.4z"/>
          <ellipse cx=".7" cy=".8" fill="#4B7D5A" rx=".4" ry=".4"/>
        </g>
        <g transform="translate(.601 1.386)">
          <ellipse cx=".5" cy=".4" fill="#4B7D5A" rx=".4" ry=".4"/>
          <ellipse cx="1.2" cy=".6" fill="#4B7D5A" rx=".4" ry=".4"/>
          <ellipse cx="1.1" cy=".4" fill="#A0DD48" rx=".1" ry=".3"/>
          <path fill="#A0DD48" d="M1 .5V.2v.3z"/>
          <ellipse cx=".4" cy=".8" fill="#518862" rx=".4" ry=".4"/>
          <ellipse cx=".8" cy=".5" fill="#518862" rx=".4" ry=".4"/>
          <ellipse cx="1.1" cy=".9" fill="#518862" rx=".4" ry=".4"/>
          <ellipse cx=".6" cy=".4" fill="#DA5F5F" rx=".1" ry=".3"/>
          <path fill="#DA5F5F" d="M.5.5h.2L1 .2H.5v.4z"/>
          <ellipse cx=".7" cy=".8" fill="#4B7D5A" rx=".4" ry=".4"/>
        </g>
      </g>
      <g fill="#665240">
        <path d="M557.5 301.5h4.2v.5h-4.2zm0 1.5h4.2v.4h-4.2z"/>
        <path d="M557.7 304.2v-3h.5v3h-.5zm2-1.7h3v.5h-3zm2-1.3h4.2v.5h-5z"/>
        <path d="M561.7 302.6h4.2v.5h-5zm.3 1.4v-3h.4v3h-.5z"/>
        <path d="M564 302.2h2.8v.5H564z"/>
        <path d="M565.8 301l4.2-.3v.5l-4 .3zm.2 1.4l4-.3.2 1-4.2 1z"/>
        <path d="M566.3 303.7l-.3-3h.5l.2 3h-.4zm2-2h2.7v.4l-2.8 1z"/>
        <path d="M570 300.6l4-.8.2.5-4.2.8zm.2 1.4l4-.8.2.5-4 .7z"/>
        <path d="M570.6 303l-.5-2.7h1l1 2.8zm1.8-1.8l2.8-.5v.5l-2.7.4zm-30 .3h4v.5h-4zm0 1.5h4v.4h-4z"/>
        <path d="M542.5 304.2v-3h.4v3h-1zm2-1.7h3v.5h-3zm2-1h4.2v.6h-4.2zm0 1.5h4.2v.5h-4.3z"/>
        <path d="M546.7 304v-2.8h.5v3h-.5zm2-1.5h3v.6h-3zm-14.7-2.3l4.2.6v.5l-4.3-.6zm-.2 1.4l4.2.6v.5l-4.2-.6z"/>
        <path d="M534 303l.3-3h.4l-.4 3h-.4zm2.2-1.4l2.7.3-3-1zm1.8-.6l4.3.4v.4l-4.2-.2zm0 1.5l4.2.2v.5l-4.2-.2z"/>
        <path d="M538.2 303.7l.2-3h.4l-.2 3h-.4zm2.2-1.5l2.8.2v.5l-3-1z"/>
      </g>
      <g transform="translate(551.203 294.69)">
        <ellipse cx="2.8" cy="2.9" fill="url(#c)" stroke="#9D5757" stroke-width="2" rx="2.5" ry="2.6"/>
        <mask id="e" fill="#fff">
          <use xlink:href="#d"/>
        </mask>
        <use xlink:href="#d"/>
        <g transform="translate(.286 .3)" mask="url(#e)">
          <path fill="url(#f)" stroke="#397E4E" stroke-width=".5" d="M0 0h1v5.2H0z"/>
          <path fill="url(#f)" stroke="#397E4E" stroke-width=".5" d="M.8 0h1v5.2h-1z"/>
          <path fill="url(#f)" stroke="#397E4E" stroke-width=".5" d="M1.6 0h1v5.2h-1z"/>
          <path fill="url(#f)" stroke="#397E4E" stroke-width=".5" d="M2.4 0h1v5.2h-1z"/>
          <path fill="url(#f)" stroke="#397E4E" stroke-width=".5" d="M3.3 0h1v5.2h-1z"/>
          <path fill="url(#f)" stroke="#397E4E" stroke-width=".5" d="M4 0h1v5.2H4z"/>
          <ellipse cx="2.5" cy="2.6" fill="url(#g)" rx=".5" ry=".5"/>
          <ellipse cx="2.5" cy="2.6" fill="url(#h)" rx=".3" ry=".3"/>
        </g>
        <ellipse cx="2.8" cy="2.9" stroke="#9E6361" filter="url(#i)" rx="2.8" ry="2.9"/>
      </g>
      <g fill="#FFF" transform="translate(539.844 258.722)">
        <ellipse cx=".9" cy="5.6" rx=".9" ry=".8"/>
        <ellipse cx="3.4" cy="4.8" rx=".9" ry=".8"/>
        <ellipse cx="3.9" cy="5.5" rx="1.3" ry="1.1"/>
        <ellipse cx="2.2" cy="5.3" rx="1.3" ry="1.1"/>
        <ellipse cx="1.9" cy="2.9" rx=".5" ry=".5"/>
        <ellipse cx="2" cy="2.2" rx=".4" ry=".4"/>
        <ellipse cx="2.4" cy="2.7" rx=".6" ry=".5"/>
        <ellipse cx="3.2" cy=".7" rx=".3" ry=".3"/>
        <ellipse cx="3.3" cy=".3" rx=".3" ry=".3"/>
        <ellipse cx="3.6" cy=".6" rx=".4" ry=".3"/>
      </g>
      <g transform="translate(545.815 291.788)">
        <ellipse cx="1.5" cy="1.6" fill="url(#j)" stroke="#9E6361" rx="1.5" ry="1.6"/>
        <path fill="#9E6361" d="M1.5 0v3zM0 1.7v-.2h3v.2H0z"/>
      </g>
      <ellipse cx="1.5" cy="1.6" fill="url(#j)" stroke="#9E6361" rx="1.5" ry="1.6" transform="translate(558.923 291.788)"/>
      <path fill="#8CCEA1" d="M935.8 233.6c13-6.2-7.7-14-13-14-5.4 0-34.8.3-33 5.2 1.6 5 33 15 46 8.8z"/>
      <path fill="#6AA57D" d="M910.5 228c14.2 0 20.4-4.8 20.4-7.8s-10-3-23-3-23 .3-22 3.3c0 3 9 7.4 23 7.4z"/>
      <path fill="#71B085" d="M909 195.8c14.4 0 21.8 24.3 21.8 24.3s0 7-21 7-22.5-6-22.5-6 7.5-25 21.7-25z"/>
      <path fill="#6AAE7F" d="M900.4 199.8c-3 2.3-19.3 18.8-2 25.3-8.7-1-11-4-11-4s5.3-17 13-20z"/>
      <path fill="#6FAA81" d="M911.6 196.8c12 1.4 19 23.4 19 23.4s-.2 4.6-12 6c10.4 0 3.6-26-7-29.4z"/>
      <path fill="#E5C3A9" stroke="#CBA990" d="M910.3 215c11 0 13 10.4 13 10.4s-3 1.4-14.3 1c-11.4-.2-11.8-1.4-11.8-1.4s2-10 13-10z"/>
      <path fill="#E0B99B" d="M912.3 216c8-1 11 9.3 11 9.3s-.5.4-2.7.7c3-2-5.2-7.7-8.3-10z"/>
      <path fill="#CCA990" d="M910.3 215.6c3.5.7 8.2 1.3 0 2.5-8.3 2-13.6 7-13 7-.6 0 2-9 13-9z"/>
      <path fill="#68A07A" d="M910.3 214c11.3 0 13 11 13 11.2 0 .4-2.7-7.6-13-7.6-10.4 0-13 8-13.2 7.5 0 0 2-11 14-11z"/>
      <path fill="#679876" d="M914 215.7c6.7.7 9.7 8 9.3 9.6-.4 0-1-5.7-11.4-7.7 2-.6 5-1.2 2-2z"/>
      <path fill="#D8B398" d="M910.5 220c4.2 0 5 6.7 5 6.7s-1.5.6-5 .6-4.8-1-4.8-1 .6-6.3 4.8-6.3z"/>
      <path fill="#D0AD92" d="M910.5 220c4.2 0 5 6.7 5 6.7s0 .5-3.5.5c3.5-.5 3-4.3-1.5-7.2z"/>
      <path fill="#BF9576" d="M910.5 220.5c3.6 0 4.2 3 4.2 3 0 .2-1.2-2.5-4.2-2-3 .4-4.2 2.2-4.2 2 0 0 .7-3 4.2-3z"/>
      <path fill="#724444" d="M910.5 219.7c3.6 0 4.2 3.8 4.2 4 0 0-1-2.8-4.2-2.8-3.3 0-4.2 2-4.2 2s.7-4 4.2-4z"/>
      <path fill="#6FAA81" d="M900.3 205.7c1 0 1.6-.2 1.6-.6 0 0-1-1-2-1s-2 1-2 1 0 1 2 1z"/>
      <path fill="#9D5757" d="M898.6 200.4h3v4s0 .8-1.6.8c-1.4 0-1.4-.7-1.4-.7v-4z"/>
      <path fill="#8B5555" d="M898.6 201h3v1.7l-3-1.2v-.5z"/>
      <path fill="#724444" d="M898 200.4h4v1h-4z"/>
      <path fill="#673838" d="M898 200.4h1l.5 1H898v-1z"/>
      <g transform="translate(921.187 225.746)">
        <ellipse cx="1.3" cy="1.5" fill="#60A471" rx="1.3" ry=".9"/>
        <g transform="translate(.878)">
          <ellipse cx=".4" cy=".3" fill="#4B7D5A" rx=".3" ry=".3"/>
          <ellipse cx="1.1" cy=".5" fill="#4B7D5A" rx=".3" ry=".3"/>
          <ellipse cx="1" cy=".3" fill="#E0C665" rx=".1" ry=".2"/>
          <path fill="#E0C665" d="M1 .4c.2 0 .3 0 .3-.2H1v.2z"/>
          <ellipse cx=".3" cy=".6" fill="#518862" rx=".3" ry=".3"/>
          <ellipse cx=".8" cy=".4" fill="#518862" rx=".3" ry=".3"/>
          <ellipse cx="1" cy=".8" fill="#518862" rx=".3" ry=".3"/>
          <ellipse cx=".5" cy=".3" fill="#A0DD48" rx=".1" ry=".2"/>
          <path fill="#A0DD48" d="M.5.4h.2S1 .4.7.2C.4.2.3.4.4.4z"/>
          <ellipse cx=".7" cy=".6" fill="#4B7D5A" rx=".3" ry=".3"/>
        </g>
        <g transform="translate(1.208 .649)">
          <ellipse cx=".4" cy=".3" fill="#4B7D5A" rx=".3" ry=".3"/>
          <ellipse cx="1.1" cy=".5" fill="#4B7D5A" rx=".3" ry=".3"/>
          <ellipse cx="1" cy=".2" fill="#DA5F5F" rx=".1" ry=".2"/>
          <path fill="#DA5F5F" d="M.8.3H1c.2 0 .2-.2.2-.2H1c0 1-.2 1-.2 1z"/>
          <ellipse cx=".3" cy=".6" fill="#518862" rx=".3" ry=".3"/>
          <ellipse cx=".8" cy=".4" fill="#518862" rx=".3" ry=".3"/>
          <ellipse cx="1" cy=".8" fill="#518862" rx=".3" ry=".3"/>
          <ellipse cx=".5" cy=".3" fill="#A159D2" rx=".1" ry=".2"/>
          <path fill="#A159D2" d="M.4.4h.3V.2C.4.2.3.4.3.4z"/>
          <ellipse cx=".7" cy=".6" fill="#4B7D5A" rx=".3" ry=".3"/>
        </g>
        <g transform="translate(0 .433)">
          <ellipse cx=".4" cy=".3" fill="#4B7D5A" rx=".3" ry=".3"/>
          <ellipse cx="1.1" cy=".5" fill="#4B7D5A" rx=".3" ry=".3"/>
          <ellipse cx="1" cy=".3" fill="#E0C665" rx=".1" ry=".2"/>
          <path fill="#E0C665" d="M.8.4H1c.2 0 .2 0 .2-.2H1L.8.4z"/>
          <ellipse cx=".3" cy=".6" fill="#518862" rx=".3" ry=".3"/>
          <ellipse cx=".8" cy=".4" fill="#518862" rx=".3" ry=".3"/>
          <ellipse cx="1" cy=".8" fill="#518862" rx=".3" ry=".3"/>
          <ellipse cx=".5" cy=".3" fill="#A159D2" rx=".1" ry=".2"/>
          <path fill="#A159D2" d="M.4.4h.3V.2C.4.2.3.4.3.4z"/>
          <ellipse cx=".7" cy=".6" fill="#4B7D5A" rx=".3" ry=".3"/>
        </g>
        <g transform="translate(.549 1.19)">
          <ellipse cx=".4" cy=".3" fill="#4B7D5A" rx=".3" ry=".3"/>
          <ellipse cx="1.1" cy=".5" fill="#4B7D5A" rx=".3" ry=".3"/>
          <ellipse cx="1" cy=".3" fill="#A0DD48" rx=".1" ry=".2"/>
          <path fill="#A0DD48" d="M.8.4H1c.2 0 .2 0 .2-.2H1L.8.4z"/>
          <ellipse cx=".3" cy=".6" fill="#518862" rx=".3" ry=".3"/>
          <ellipse cx=".8" cy=".4" fill="#518862" rx=".3" ry=".3"/>
          <ellipse cx="1" cy=".8" fill="#518862" rx=".3" ry=".3"/>
          <ellipse cx=".5" cy=".3" fill="#DA5F5F" rx=".1" ry=".2"/>
          <path fill="#DA5F5F" d="M.4.4h.3V.2C.4.2.3.4.3.4z"/>
          <ellipse cx=".7" cy=".6" fill="#4B7D5A" rx=".3" ry=".3"/>
        </g>
      </g>
      <g transform="translate(918.526 227.058)">
        <ellipse cx="1.3" cy="1.5" fill="#60A471" rx="1.3" ry=".9"/>
        <g transform="translate(.878)">
          <ellipse cx=".4" cy=".3" fill="#4B7D5A" rx=".3" ry=".3"/>
          <ellipse cx="1.1" cy=".5" fill="#4B7D5A" rx=".3" ry=".3"/>
          <ellipse cx="1" cy=".3" fill="#E0C665" rx=".1" ry=".2"/>
          <path fill="#E0C665" d="M1 .4c.2 0 .3 0 .3-.2H1v.2z"/>
          <ellipse cx=".3" cy=".6" fill="#518862" rx=".3" ry=".3"/>
          <ellipse cx=".8" cy=".4" fill="#518862" rx=".3" ry=".3"/>
          <ellipse cx="1" cy=".8" fill="#518862" rx=".3" ry=".3"/>
          <ellipse cx=".5" cy=".3" fill="#A0DD48" rx=".1" ry=".2"/>
          <path fill="#A0DD48" d="M.5.4h.2S1 .4.7.2C.4.2.3.4.4.4z"/>
          <ellipse cx=".7" cy=".6" fill="#4B7D5A" rx=".3" ry=".3"/>
        </g>
        <g transform="translate(1.208 .649)">
          <ellipse cx=".4" cy=".3" fill="#4B7D5A" rx=".3" ry=".3"/>
          <ellipse cx="1.1" cy=".5" fill="#4B7D5A" rx=".3" ry=".3"/>
          <ellipse cx="1" cy=".2" fill="#DA5F5F" rx=".1" ry=".2"/>
          <path fill="#DA5F5F" d="M.8.3H1c.2 0 .2-.2.2-.2H1c0 1-.2 1-.2 1z"/>
          <ellipse cx=".3" cy=".6" fill="#518862" rx=".3" ry=".3"/>
          <ellipse cx=".8" cy=".4" fill="#518862" rx=".3" ry=".3"/>
          <ellipse cx="1" cy=".8" fill="#518862" rx=".3" ry=".3"/>
          <ellipse cx=".5" cy=".3" fill="#A159D2" rx=".1" ry=".2"/>
          <path fill="#A159D2" d="M.4.4h.3V.2C.4.2.3.4.3.4z"/>
          <ellipse cx=".7" cy=".6" fill="#4B7D5A" rx=".3" ry=".3"/>
        </g>
        <g transform="translate(0 .433)">
          <ellipse cx=".4" cy=".3" fill="#4B7D5A" rx=".3" ry=".3"/>
          <ellipse cx="1.1" cy=".5" fill="#4B7D5A" rx=".3" ry=".3"/>
          <ellipse cx="1" cy=".3" fill="#E0C665" rx=".1" ry=".2"/>
          <path fill="#E0C665" d="M.8.4H1c.2 0 .2 0 .2-.2H1L.8.4z"/>
          <ellipse cx=".3" cy=".6" fill="#518862" rx=".3" ry=".3"/>
          <ellipse cx=".8" cy=".4" fill="#518862" rx=".3" ry=".3"/>
          <ellipse cx="1" cy=".8" fill="#518862" rx=".3" ry=".3"/>
          <ellipse cx=".5" cy=".3" fill="#A159D2" rx=".1" ry=".2"/>
          <path fill="#A159D2" d="M.4.4h.3V.2C.4.2.3.4.3.4z"/>
          <ellipse cx=".7" cy=".6" fill="#4B7D5A" rx=".3" ry=".3"/>
        </g>
        <g transform="translate(.549 1.19)">
          <ellipse cx=".4" cy=".3" fill="#4B7D5A" rx=".3" ry=".3"/>
          <ellipse cx="1.1" cy=".5" fill="#4B7D5A" rx=".3" ry=".3"/>
          <ellipse cx="1" cy=".3" fill="#A0DD48" rx=".1" ry=".2"/>
          <path fill="#A0DD48" d="M.8.4H1c.2 0 .2 0 .2-.2H1L.8.4z"/>
          <ellipse cx=".3" cy=".6" fill="#518862" rx=".3" ry=".3"/>
          <ellipse cx=".8" cy=".4" fill="#518862" rx=".3" ry=".3"/>
          <ellipse cx="1" cy=".8" fill="#518862" rx=".3" ry=".3"/>
          <ellipse cx=".5" cy=".3" fill="#DA5F5F" rx=".1" ry=".2"/>
          <path fill="#DA5F5F" d="M.4.4h.3V.2C.4.2.3.4.3.4z"/>
          <ellipse cx=".7" cy=".6" fill="#4B7D5A" rx=".3" ry=".3"/>
        </g>
      </g>
      <g transform="translate(915.066 226.139)">
        <ellipse cx="1.3" cy="1.5" fill="#60A471" rx="1.3" ry=".9"/>
        <g transform="translate(.878)">
          <ellipse cx=".4" cy=".3" fill="#4B7D5A" rx=".3" ry=".3"/>
          <ellipse cx="1.1" cy=".5" fill="#4B7D5A" rx=".3" ry=".3"/>
          <ellipse cx="1" cy=".3" fill="#E0C665" rx=".1" ry=".2"/>
          <path fill="#E0C665" d="M1 .4c.2 0 .3 0 .3-.2H1v.2z"/>
          <ellipse cx=".3" cy=".6" fill="#518862" rx=".3" ry=".3"/>
          <ellipse cx=".8" cy=".4" fill="#518862" rx=".3" ry=".3"/>
          <ellipse cx="1" cy=".8" fill="#518862" rx=".3" ry=".3"/>
          <ellipse cx=".5" cy=".3" fill="#A0DD48" rx=".1" ry=".2"/>
          <path fill="#A0DD48" d="M.5.4h.2S1 .4.7.2C.4.2.3.4.4.4z"/>
          <ellipse cx=".7" cy=".6" fill="#4B7D5A" rx=".3" ry=".3"/>
        </g>
        <g transform="translate(1.208 .649)">
          <ellipse cx=".4" cy=".3" fill="#4B7D5A" rx=".3" ry=".3"/>
          <ellipse cx="1.1" cy=".5" fill="#4B7D5A" rx=".3" ry=".3"/>
          <ellipse cx="1" cy=".2" fill="#DA5F5F" rx=".1" ry=".2"/>
          <path fill="#DA5F5F" d="M.8.3H1c.2 0 .2-.2.2-.2H1c0 1-.2 1-.2 1z"/>
          <ellipse cx=".3" cy=".6" fill="#518862" rx=".3" ry=".3"/>
          <ellipse cx=".8" cy=".4" fill="#518862" rx=".3" ry=".3"/>
          <ellipse cx="1" cy=".8" fill="#518862" rx=".3" ry=".3"/>
          <ellipse cx=".5" cy=".3" fill="#A159D2" rx=".1" ry=".2"/>
          <path fill="#A159D2" d="M.4.4h.3V.2C.4.2.3.4.3.4z"/>
          <ellipse cx=".7" cy=".6" fill="#4B7D5A" rx=".3" ry=".3"/>
        </g>
        <g transform="translate(0 .433)">
          <ellipse cx=".4" cy=".3" fill="#4B7D5A" rx=".3" ry=".3"/>
          <ellipse cx="1.1" cy=".5" fill="#4B7D5A" rx=".3" ry=".3"/>
          <ellipse cx="1" cy=".3" fill="#E0C665" rx=".1" ry=".2"/>
          <path fill="#E0C665" d="M.8.4H1c.2 0 .2 0 .2-.2H1L.8.4z"/>
          <ellipse cx=".3" cy=".6" fill="#518862" rx=".3" ry=".3"/>
          <ellipse cx=".8" cy=".4" fill="#518862" rx=".3" ry=".3"/>
          <ellipse cx="1" cy=".8" fill="#518862" rx=".3" ry=".3"/>
          <ellipse cx=".5" cy=".3" fill="#A159D2" rx=".1" ry=".2"/>
          <path fill="#A159D2" d="M.4.4h.3V.2C.4.2.3.4.3.4z"/>
          <ellipse cx=".7" cy=".6" fill="#4B7D5A" rx=".3" ry=".3"/>
        </g>
        <g transform="translate(.549 1.19)">
          <ellipse cx=".4" cy=".3" fill="#4B7D5A" rx=".3" ry=".3"/>
          <ellipse cx="1.1" cy=".5" fill="#4B7D5A" rx=".3" ry=".3"/>
          <ellipse cx="1" cy=".3" fill="#A0DD48" rx=".1" ry=".2"/>
          <path fill="#A0DD48" d="M.8.4H1c.2 0 .2 0 .2-.2H1L.8.4z"/>
          <ellipse cx=".3" cy=".6" fill="#518862" rx=".3" ry=".3"/>
          <ellipse cx=".8" cy=".4" fill="#518862" rx=".3" ry=".3"/>
          <ellipse cx="1" cy=".8" fill="#518862" rx=".3" ry=".3"/>
          <ellipse cx=".5" cy=".3" fill="#DA5F5F" rx=".1" ry=".2"/>
          <path fill="#DA5F5F" d="M.4.4h.3V.2C.4.2.3.4.3.4z"/>
          <ellipse cx=".7" cy=".6" fill="#4B7D5A" rx=".3" ry=".3"/>
        </g>
      </g>
      <g transform="translate(902.556 225.746)">
        <ellipse cx="1.3" cy="1.5" fill="#60A471" rx="1.3" ry=".9"/>
        <g transform="translate(.878)">
          <ellipse cx=".4" cy=".3" fill="#4B7D5A" rx=".3" ry=".3"/>
          <ellipse cx="1.1" cy=".5" fill="#4B7D5A" rx=".3" ry=".3"/>
          <ellipse cx="1" cy=".3" fill="#E0C665" rx=".1" ry=".2"/>
          <path fill="#E0C665" d="M1 .4c.2 0 .3 0 .3-.2H1v.2z"/>
          <ellipse cx=".3" cy=".6" fill="#518862" rx=".3" ry=".3"/>
          <ellipse cx=".8" cy=".4" fill="#518862" rx=".3" ry=".3"/>
          <ellipse cx="1" cy=".8" fill="#518862" rx=".3" ry=".3"/>
          <ellipse cx=".5" cy=".3" fill="#A0DD48" rx=".1" ry=".2"/>
          <path fill="#A0DD48" d="M.5.4h.2S1 .4.7.2C.4.2.3.4.4.4z"/>
          <ellipse cx=".7" cy=".6" fill="#4B7D5A" rx=".3" ry=".3"/>
        </g>
        <g transform="translate(1.208 .649)">
          <ellipse cx=".4" cy=".3" fill="#4B7D5A" rx=".3" ry=".3"/>
          <ellipse cx="1.1" cy=".5" fill="#4B7D5A" rx=".3" ry=".3"/>
          <ellipse cx="1" cy=".2" fill="#DA5F5F" rx=".1" ry=".2"/>
          <path fill="#DA5F5F" d="M.8.3H1c.2 0 .2-.2.2-.2H1c0 1-.2 1-.2 1z"/>
          <ellipse cx=".3" cy=".6" fill="#518862" rx=".3" ry=".3"/>
          <ellipse cx=".8" cy=".4" fill="#518862" rx=".3" ry=".3"/>
          <ellipse cx="1" cy=".8" fill="#518862" rx=".3" ry=".3"/>
          <ellipse cx=".5" cy=".3" fill="#A159D2" rx=".1" ry=".2"/>
          <path fill="#A159D2" d="M.4.4h.3V.2C.4.2.3.4.3.4z"/>
          <ellipse cx=".7" cy=".6" fill="#4B7D5A" rx=".3" ry=".3"/>
        </g>
        <g transform="translate(0 .433)">
          <ellipse cx=".4" cy=".3" fill="#4B7D5A" rx=".3" ry=".3"/>
          <ellipse cx="1.1" cy=".5" fill="#4B7D5A" rx=".3" ry=".3"/>
          <ellipse cx="1" cy=".3" fill="#E0C665" rx=".1" ry=".2"/>
          <path fill="#E0C665" d="M.8.4H1c.2 0 .2 0 .2-.2H1L.8.4z"/>
          <ellipse cx=".3" cy=".6" fill="#518862" rx=".3" ry=".3"/>
          <ellipse cx=".8" cy=".4" fill="#518862" rx=".3" ry=".3"/>
          <ellipse cx="1" cy=".8" fill="#518862" rx=".3" ry=".3"/>
          <ellipse cx=".5" cy=".3" fill="#A159D2" rx=".1" ry=".2"/>
          <path fill="#A159D2" d="M.4.4h.3V.2C.4.2.3.4.3.4z"/>
          <ellipse cx=".7" cy=".6" fill="#4B7D5A" rx=".3" ry=".3"/>
        </g>
        <g transform="translate(.549 1.19)">
          <ellipse cx=".4" cy=".3" fill="#4B7D5A" rx=".3" ry=".3"/>
          <ellipse cx="1.1" cy=".5" fill="#4B7D5A" rx=".3" ry=".3"/>
          <ellipse cx="1" cy=".3" fill="#A0DD48" rx=".1" ry=".2"/>
          <path fill="#A0DD48" d="M.8.4H1c.2 0 .2 0 .2-.2H1L.8.4z"/>
          <ellipse cx=".3" cy=".6" fill="#518862" rx=".3" ry=".3"/>
          <ellipse cx=".8" cy=".4" fill="#518862" rx=".3" ry=".3"/>
          <ellipse cx="1" cy=".8" fill="#518862" rx=".3" ry=".3"/>
          <ellipse cx=".5" cy=".3" fill="#DA5F5F" rx=".1" ry=".2"/>
          <path fill="#DA5F5F" d="M.4.4h.3V.2C.4.2.3.4.3.4z"/>
          <ellipse cx=".7" cy=".6" fill="#4B7D5A" rx=".3" ry=".3"/>
        </g>
      </g>
      <g transform="translate(899.362 225.615)">
        <ellipse cx="1.3" cy="1.5" fill="#60A471" rx="1.3" ry=".9"/>
        <g transform="translate(.878)">
          <ellipse cx=".4" cy=".3" fill="#4B7D5A" rx=".3" ry=".3"/>
          <ellipse cx="1.1" cy=".5" fill="#4B7D5A" rx=".3" ry=".3"/>
          <ellipse cx="1" cy=".3" fill="#E0C665" rx=".1" ry=".2"/>
          <path fill="#E0C665" d="M1 .4c.2 0 .3 0 .3-.2H1v.2z"/>
          <ellipse cx=".3" cy=".6" fill="#518862" rx=".3" ry=".3"/>
          <ellipse cx=".8" cy=".4" fill="#518862" rx=".3" ry=".3"/>
          <ellipse cx="1" cy=".8" fill="#518862" rx=".3" ry=".3"/>
          <ellipse cx=".5" cy=".3" fill="#A0DD48" rx=".1" ry=".2"/>
          <path fill="#A0DD48" d="M.5.4h.2S1 .4.7.2C.4.2.3.4.4.4z"/>
          <ellipse cx=".7" cy=".6" fill="#4B7D5A" rx=".3" ry=".3"/>
        </g>
        <g transform="translate(1.208 .649)">
          <ellipse cx=".4" cy=".3" fill="#4B7D5A" rx=".3" ry=".3"/>
          <ellipse cx="1.1" cy=".5" fill="#4B7D5A" rx=".3" ry=".3"/>
          <ellipse cx="1" cy=".2" fill="#DA5F5F" rx=".1" ry=".2"/>
          <path fill="#DA5F5F" d="M.8.3H1c.2 0 .2-.2.2-.2H1c0 1-.2 1-.2 1z"/>
          <ellipse cx=".3" cy=".6" fill="#518862" rx=".3" ry=".3"/>
          <ellipse cx=".8" cy=".4" fill="#518862" rx=".3" ry=".3"/>
          <ellipse cx="1" cy=".8" fill="#518862" rx=".3" ry=".3"/>
          <ellipse cx=".5" cy=".3" fill="#A159D2" rx=".1" ry=".2"/>
          <path fill="#A159D2" d="M.4.4h.3V.2C.4.2.3.4.3.4z"/>
          <ellipse cx=".7" cy=".6" fill="#4B7D5A" rx=".3" ry=".3"/>
        </g>
        <g transform="translate(0 .433)">
          <ellipse cx=".4" cy=".3" fill="#4B7D5A" rx=".3" ry=".3"/>
          <ellipse cx="1.1" cy=".5" fill="#4B7D5A" rx=".3" ry=".3"/>
          <ellipse cx="1" cy=".3" fill="#E0C665" rx=".1" ry=".2"/>
          <path fill="#E0C665" d="M.8.4H1c.2 0 .2 0 .2-.2H1L.8.4z"/>
          <ellipse cx=".3" cy=".6" fill="#518862" rx=".3" ry=".3"/>
          <ellipse cx=".8" cy=".4" fill="#518862" rx=".3" ry=".3"/>
          <ellipse cx="1" cy=".8" fill="#518862" rx=".3" ry=".3"/>
          <ellipse cx=".5" cy=".3" fill="#A159D2" rx=".1" ry=".2"/>
          <path fill="#A159D2" d="M.4.4h.3V.2C.4.2.3.4.3.4z"/>
          <ellipse cx=".7" cy=".6" fill="#4B7D5A" rx=".3" ry=".3"/>
        </g>
        <g transform="translate(.549 1.19)">
          <ellipse cx=".4" cy=".3" fill="#4B7D5A" rx=".3" ry=".3"/>
          <ellipse cx="1.1" cy=".5" fill="#4B7D5A" rx=".3" ry=".3"/>
          <ellipse cx="1" cy=".3" fill="#A0DD48" rx=".1" ry=".2"/>
          <path fill="#A0DD48" d="M.8.4H1c.2 0 .2 0 .2-.2H1L.8.4z"/>
          <ellipse cx=".3" cy=".6" fill="#518862" rx=".3" ry=".3"/>
          <ellipse cx=".8" cy=".4" fill="#518862" rx=".3" ry=".3"/>
          <ellipse cx="1" cy=".8" fill="#518862" rx=".3" ry=".3"/>
          <ellipse cx=".5" cy=".3" fill="#DA5F5F" rx=".1" ry=".2"/>
          <path fill="#DA5F5F" d="M.4.4h.3V.2C.4.2.3.4.3.4z"/>
          <ellipse cx=".7" cy=".6" fill="#4B7D5A" rx=".3" ry=".3"/>
        </g>
      </g>
      <g transform="translate(896.169 226.139)">
        <ellipse cx="1.3" cy="1.5" fill="#60A471" rx="1.3" ry=".9"/>
        <g transform="translate(.878)">
          <ellipse cx=".4" cy=".3" fill="#4B7D5A" rx=".3" ry=".3"/>
          <ellipse cx="1.1" cy=".5" fill="#4B7D5A" rx=".3" ry=".3"/>
          <ellipse cx="1" cy=".3" fill="#E0C665" rx=".1" ry=".2"/>
          <path fill="#E0C665" d="M1 .4c.2 0 .3 0 .3-.2H1v.2z"/>
          <ellipse cx=".3" cy=".6" fill="#518862" rx=".3" ry=".3"/>
          <ellipse cx=".8" cy=".4" fill="#518862" rx=".3" ry=".3"/>
          <ellipse cx="1" cy=".8" fill="#518862" rx=".3" ry=".3"/>
          <ellipse cx=".5" cy=".3" fill="#A0DD48" rx=".1" ry=".2"/>
          <path fill="#A0DD48" d="M.5.4h.2S1 .4.7.2C.4.2.3.4.4.4z"/>
          <ellipse cx=".7" cy=".6" fill="#4B7D5A" rx=".3" ry=".3"/>
        </g>
        <g transform="translate(1.208 .649)">
          <ellipse cx=".4" cy=".3" fill="#4B7D5A" rx=".3" ry=".3"/>
          <ellipse cx="1.1" cy=".5" fill="#4B7D5A" rx=".3" ry=".3"/>
          <ellipse cx="1" cy=".2" fill="#DA5F5F" rx=".1" ry=".2"/>
          <path fill="#DA5F5F" d="M.8.3H1c.2 0 .2-.2.2-.2H1c0 1-.2 1-.2 1z"/>
          <ellipse cx=".3" cy=".6" fill="#518862" rx=".3" ry=".3"/>
          <ellipse cx=".8" cy=".4" fill="#518862" rx=".3" ry=".3"/>
          <ellipse cx="1" cy=".8" fill="#518862" rx=".3" ry=".3"/>
          <ellipse cx=".5" cy=".3" fill="#A159D2" rx=".1" ry=".2"/>
          <path fill="#A159D2" d="M.4.4h.3V.2C.4.2.3.4.3.4z"/>
          <ellipse cx=".7" cy=".6" fill="#4B7D5A" rx=".3" ry=".3"/>
        </g>
        <g transform="translate(0 .433)">
          <ellipse cx=".4" cy=".3" fill="#4B7D5A" rx=".3" ry=".3"/>
          <ellipse cx="1.1" cy=".5" fill="#4B7D5A" rx=".3" ry=".3"/>
          <ellipse cx="1" cy=".3" fill="#E0C665" rx=".1" ry=".2"/>
          <path fill="#E0C665" d="M.8.4H1c.2 0 .2 0 .2-.2H1L.8.4z"/>
          <ellipse cx=".3" cy=".6" fill="#518862" rx=".3" ry=".3"/>
          <ellipse cx=".8" cy=".4" fill="#518862" rx=".3" ry=".3"/>
          <ellipse cx="1" cy=".8" fill="#518862" rx=".3" ry=".3"/>
          <ellipse cx=".5" cy=".3" fill="#A159D2" rx=".1" ry=".2"/>
          <path fill="#A159D2" d="M.4.4h.3V.2C.4.2.3.4.3.4z"/>
          <ellipse cx=".7" cy=".6" fill="#4B7D5A" rx=".3" ry=".3"/>
        </g>
        <g transform="translate(.549 1.19)">
          <ellipse cx=".4" cy=".3" fill="#4B7D5A" rx=".3" ry=".3"/>
          <ellipse cx="1.1" cy=".5" fill="#4B7D5A" rx=".3" ry=".3"/>
          <ellipse cx="1" cy=".3" fill="#A0DD48" rx=".1" ry=".2"/>
          <path fill="#A0DD48" d="M.8.4H1c.2 0 .2 0 .2-.2H1L.8.4z"/>
          <ellipse cx=".3" cy=".6" fill="#518862" rx=".3" ry=".3"/>
          <ellipse cx=".8" cy=".4" fill="#518862" rx=".3" ry=".3"/>
          <ellipse cx="1" cy=".8" fill="#518862" rx=".3" ry=".3"/>
          <ellipse cx=".5" cy=".3" fill="#DA5F5F" rx=".1" ry=".2"/>
          <path fill="#DA5F5F" d="M.4.4h.3V.2C.4.2.3.4.3.4z"/>
          <ellipse cx=".7" cy=".6" fill="#4B7D5A" rx=".3" ry=".3"/>
        </g>
      </g>
      <g fill="#665240">
        <path d="M913.6 228.2h4v.4h-4zm0 1.3h4v.4h-4z"/>
        <path d="M914 230.5V228h.3v2.5h-.4zm1.7-1.5h2.6v.5h-2.6zm1.8-1h4v.3h-4z"/>
        <path d="M917.5 229.2h4v.4h-4z"/>
        <path d="M917.7 230.2v-2.5h.4v2.5zm2-1.4h2.5v.4h-2.6z"/>
        <path d="M921.3 227.8l3.8-.3 1 .4h-4zm0 1.2l4-.2v.4l-4 .3z"/>
        <path d="M921.7 230l-.3-2.4h.5v2.4h-1zm1.7-1.5l2.6-.2v.4l-2.5.2z"/>
        <path d="M925 227.4l4-.7v.4l-4 1zm.3 1.3l3.8-.7 1 .4-4 .7z"/>
        <path d="M925.6 229.6l-.4-2.4h.4l.5 2.4zm1.7-1.6l2.5-.5v.4h-2.5zm-27.6.2h4v.4h-4zm0 1.3h4v.4h-4z"/>
        <path d="M900 230.5V228h.4v2.5h-.5zm1.8-1.5h2.6v.5h-2.6z"/>
        <path d="M903.6 228l4 .3v.4l-4-.2zm0 1.4l4 .2-.2.4-4-.2z"/>
        <path d="M903.7 230.5V228h.5v2.5h-.5zm2-1.5l2.6.2v.4h-2.6zm-13.5-2l3.8.6v.4l-4-.5zm-.2 1.4l4 .5h-.2l-4-1z"/>
        <path d="M892 229.4l.4-2.5h.4l-.3 2h-.4zm2-1l2.7.2v.4l-2.6-.3z"/>
        <path d="M896 227.8l3.8.3v1h-4zm0 1.2l3.7.4v.4l-4-.3zm0 1l.2-2.4h.4l-.2 2.5h-.4zm2-1.2l2.6.2v.4l-2.6-.2z"/>
      </g>
      <g transform="translate(907.893 222.355)">
        <ellipse cx="2.6" cy="2.5" fill="url(#c)" stroke="#9D5757" stroke-width="2" rx="2.3" ry="2.2"/>
        <mask id="l" fill="#fff">
          <use xlink:href="#k"/>
        </mask>
        <use xlink:href="#k"/>
        <g transform="translate(.262 .258)" mask="url(#l)">
          <path fill="url(#f)" stroke="#397E4E" stroke-width=".5" d="M0 0h.8v4.5H0z"/>
          <path fill="url(#f)" stroke="#397E4E" stroke-width=".5" d="M.7 0h.8v4.5H.7zm.8 0h.8v4.5h-.8z"/>
          <path fill="url(#f)" stroke="#397E4E" stroke-width=".5" d="M2.2 0H3v4.5h-.8zM3 0h.8v4.5H3z"/>
          <path fill="url(#f)" stroke="#397E4E" stroke-width=".5" d="M3.7 0h.8v4.5h-.8z"/>
          <ellipse cx="2.3" cy="2.2" fill="url(#g)" rx=".4" ry=".4"/>
          <ellipse cx="2.3" cy="2.2" fill="url(#h)" rx=".3" ry=".3"/>
        </g>
        <ellipse cx="2.5" cy="2.5" stroke="#963835" filter="url(#m)" rx="2.5" ry="2.5"/>
      </g>
      <g fill="#FFF" transform="translate(897.513 193.891)">
        <ellipse cx=".8" cy="4.8" rx=".8" ry=".7"/>
        <ellipse cx="3.1" cy="4.1" rx=".8" ry=".7"/>
        <ellipse cx="3.6" cy="4.7" rx="1.2" ry=".9"/>
        <ellipse cx="2" cy="4.6" rx="1.2" ry=".9"/>
        <ellipse cx="1.7" cy="2.5" rx=".5" ry=".4"/>
        <ellipse cx="1.9" cy="1.9" rx=".4" ry=".3"/>
        <ellipse cx="2.2" cy="2.3" rx=".5" ry=".4"/>
        <ellipse cx="3" cy=".6" rx=".3" ry=".3"/>
        <ellipse cx="3.1" cy=".3" rx=".2" ry=".2"/>
        <ellipse cx="3.3" cy=".5" rx=".3" ry=".3"/>
      </g>
      <g transform="translate(902.969 219.862)">
        <ellipse cx="1.4" cy="1.4" fill="url(#j)" stroke="#9E6361" stroke-width="2" rx="1.4" ry="1.4"/>
        <path fill="#9E6361" d="M1.4 0v2.6zM0 1.4h2.7H0z"/>
      </g>
      <g transform="translate(914.946 219.862)">
        <ellipse cx="1.4" cy="1.4" fill="url(#j)" stroke="#9E6361" stroke-width="2" rx="1.4" ry="1.4"/>
        <path fill="#9E6361" d="M1.4 0v2.6zM0 1.4h2.7H0z"/>
      </g>
      <path fill="#947662" d="M997.3 146.3c.3-1.3-.2-2.6-.2-2.6s1 .2 2 0 1-.8 1-.8v3l1 3h-4l1-3z"/>
      <path fill="#8C6B55" d="M998.6 147.3c-.3-1-.3-3.5 0-3.6.5-.2.6-.8.6-.8s-.3 1 0 3 1 3 1 3h-.7s-.7-1-1-2z"/>
      <path fill="#79B37B" d="M994.5 140.8c.8-1.3 1.4-3 1.6-4.3 1-1.4 1-3 1-3s3 .6 4 3.7c1 1.3 2 2.4 2 3.6 0 2-1 3.2-1 3.2s-2 2.2-4 1c-1-1.3-2-.7-3-1 0-.2-1-.8 0-3.2z"/>
      <path fill="#83BC84" d="M994.7 140.8c.8-1.3 1.6-5 1.6-4 0 .8-1 4-1.5 5.4-.7 1.2.2 1.7 0 1.6-.7-.2-1.5-.6 0-3z"/>
      <path fill="#76AC77" d="M1001.7 141.5c0-1.3-1-1.4-2.2-3.3-.4-.7.2-1-.6-2.4-1-1.3-3-2-3-2s2 .6 4 3.8c0 1.3 2 2.3 2 3.6 0 1.8-2 3.3-2 3.3s1-1.8 1-3z"/>
      <path fill="#947662" d="M1011 158.8c.3-1.5-.3-3-.3-3s.6.3 1.3 0c.7-.2 1.2-1 1.2-1s-.3 2.3 0 4c.4 1.7 1.3 3.3 1.3 3.3h-5s1-1 1.4-3z"/>
      <path fill="#8C6B55" d="M1012.5 160c-.3-1.2-.4-4 0-4 .6-.4.7-1 .7-1s-.3 2 0 3.8c.4 1.7 1.3 3.3 1.3 3.3h-1s-.7-1-1-2z"/>
      <path fill="#79B37B" d="M1007.7 152.6c1-1.5 1.6-3.4 2-5 .2-1.5.2-3.4.2-3.4s3 .7 4 4.3c0 1.5 2 2.7 3 4 0 2.2-2 3.7-2 3.7s-3 2.5-5 1c-2-1.4-3-.7-4-1-1-.3-2-1-1-3.6z"/>
      <path fill="#83BC84" d="M1008 152.5c.8-1.4 1.8-5.5 1.8-4.5s-1 4.7-1.8 6c-.8 1.5.2 2 0 2-.8-.3-1.8-.8 0-3.5z"/>
      <path fill="#76AC77" d="M1016.2 153.3c0-1.4-1-1.5-2.6-3.7-.5-.8.2-1.2-.7-2.7-1-2-3-3-3-3s3 1 4 4c0 1 2 2 2 4s-3 4-3 4 2-2 2-4z"/>
      <path fill="#947662" d="M969.6 150.3c.3-1.5-.2-3-.2-3s.6.4 1.2 0c.6 0 1-.7 1-.7s-.2 2 0 3.7c.4 1.6 1.2 3 1.2 3h-4.5s1-1.6 1.3-3z"/>
      <path fill="#8C6B55" d="M971 151.3c-.3-1-.3-3.7 0-3.8.6-.3.7-1 .7-1s-.3 2 0 3.8c.3 1.6 1 3 1 3h-.7s-.8-1-1-2z"/>
      <path fill="#79B37B" d="M966.6 144.3c.8-1.3 1.5-3 1.7-4.6.3-1.5.4-3.3.4-3.3s2.8.7 4 4c.6 1.5 2.5 2.6 2.7 4 .2 2-1.3 3.4-1.3 3.4s-2 2.4-4 1c-1-1.4-2-.7-3-1-1-.3-2-1 0-3.5z"/>
      <path fill="#83BC84" d="M966.8 144.3c.8-1.4 1.7-5.3 1.7-4.3s-1 4.5-1.6 5.8c-1 1.4 0 2 0 1.8-1-.3-2-.7-1-3.3z"/>
      <path fill="#76AC77" d="M974.4 145c0-1.3-1-1.4-2.4-3.5-.5-.7.2-1-.6-2.5-.8-1.4-2.7-2.2-2.7-2.2s2.8.7 4 4c.6 1.5 2.3 2.6 2.5 4 .2 2-2.4 3.5-2.4 3.5s1.7-2 1.6-3.3z"/>
      <path fill="#947662" d="M1110.2 303c.8-3-.4-5.8-.4-5.8s1.2.4 2.4 0c1.2-.5 2.3-2 2.3-2s-.7 4.5 0 8c.7 3.3 2.2 6.4 2.2 6.4h-9s1.7-3.5 2.5-6.5z"/>
      <path fill="#8C6B55" d="M1113 305.3c-.5-2.2-.6-7.8 0-8 1.3-.5 1.5-2 1.5-2s-.7 4.4 0 7.8c.7 4 2.2 7 2.2 7h-1.6l-2-4z"/>
      <path fill="#79B37B" d="M1104.2 290.7c1.7-3 3-6.7 3.5-10 .6-3 .7-6.8.7-6.8s5.7 1 8.4 8c1 3 4.8 5 5 8 .6 4-2.4 7-2.4 7s-5.3 5-8 2c-3-3-5-2-6.6-2-1.5-1-3.7-2-.6-8z"/>
      <path fill="#83BC84" d="M1104.7 290.6c1.6-3 3.4-11 3.4-9 1 2-1 9.4-3 12.2-1 2.8 1 4 0 3.7-1-.6-3-1.5 0-7z"/>
      <path fill="#76AC77" d="M1120 292c0-2.8-2-3-4.8-7.2-1-1.6.3-2.5-1.3-5.4-2-3-6-4.6-6-4.6s5 1.4 8 8.6c1 3 4 5.3 4 8 0 4.3-5 7.7-5 7.7s3-4 3-7z"/>
      <path fill="#79B37B" d="M1090.7 324.8c2-3 3.3-7 4-10 .6-3.3.7-7 .7-7s6.5 1.4 9.5 8.7c1 3 5 5.4 5 8.3 0 4.3-3 7.5-3 7.5s-6 5-10 2c-3-3-6-1.4-8-2-2-.7-4-2-1-7.5z"/>
      <path fill="#83BC84" d="M1091.2 324.7c1.8-3 4-11.3 4-9.3s-2.3 9.7-4 12.6c-1.5 2.8.6 4 0 3.8-1.6-.7-3.6-1.6 0-7z"/>
      <path fill="#76AC77" d="M1108.6 326.3c0-3-2.5-3.2-5.5-7.5-1-1.7 1-2.5-1-5.5s-6-4.8-6-4.8 7 1.5 10 8.8c1 3 5 5.4 6 8.4 1 4.3-5 7.7-5 7.7s4-4 4-7z"/>
      <path fill="#947662" d="M514 216.6c.4-1.4 0-2.6 0-2.6s.4.2 1 0c.5-.2 1-.8 1-.8s-.3 2 0 3.4c.3 1.5 1 3 1 3h-4s.7-1.7 1-3z"/>
      <path fill="#8C6B55" d="M515.4 217.6c-.3-1-.3-3.5 0-3.6.5-.2.6-.8.6-.8s-.3 2 0 3.4c.3 1.5 1 3 1 3h-.7s-.7-1-1-2z"/>
      <path fill="#79B37B" d="M511.3 211c.8-1.2 1.4-3 1.6-4.3v-3s2 .6 4 3.8c0 1.3 2 2.3 2 3.6 0 2-1 4-1 4s-3 2-4 1-2 0-3-1c-1 0-2-1-1-3z"/>
      <path fill="#83BC84" d="M511.5 211c.8-1.2 1.6-5 1.6-4s0 4.2-1 5.5v1.6s-1 0 0-3z"/>
      <path fill="#76AC77" d="M518.5 211.7c0-1.3-1-1.3-2.2-3.2-.4-.7.2-1-.6-2.4-.7-1-2.5-2-2.5-2s2.6 1 3.8 4c.5 1 2 3 2.2 4 .2 2-2.2 4-2.2 4s1.6-2 1.5-3z"/>
      <path fill="#947662" d="M249.7 278c.4-1.4-.2-2.7-.2-2.7s.6.2 1.2 0c.5-.2 1-.8 1-.8s-.3 2 0 3.5 1 2.8 1 2.8h-4s.7-1.5 1-2.8z"/>
      <path fill="#8C6B55" d="M251 279c-.2-1-.3-3.5 0-3.6.6-.2.7-1 .7-1s-.3 2 0 3.6c.3 1.5 1 2.8 1 2.8h-.7s-.7-1-1-2z"/>
      <path fill="#79B37B" d="M247 272.5c.8-1.3 1.3-3 1.6-4.4.3-1 .3-3 .3-3s2 1 3 4c0 1 2 3 2 4 0 2-1 3-1 3s-3 2-4 1-2 0-3-1c-1 0-2-1 0-3z"/>
      <path fill="#83BC84" d="M247.2 272.4c.8-1.3 1.6-5 1.6-4s-1 4.2-1.5 5.4c-.7 1.3.2 1.8 0 1.7-.7-.3-1.5-.7 0-3z"/>
      <path fill="#76AC77" d="M254.2 273c0-1.2-1-1.3-2.2-3.2-.4-.6.2-1-.6-2.3-.7-1.3-2.5-2-2.5-2s2 .6 3 3.7c0 1.3 2 2.4 2 3.6 0 2-3 3.4-3 3.4s1-1.8 1-3z"/>
      <path fill="#947662" d="M238.6 273c.4-1.3-.2-2.6-.2-2.6s.6.2 1 0c.7-.2 1.2-.8 1.2-.8s-.3 2 0 3.4c.3 1.5 1 3 1 3h-4s.7-1.6 1-3z"/>
      <path fill="#8C6B55" d="M240 274c-.3-1-.4-3.5 0-3.6.5-.2.6-.8.6-.8s-.3 2 0 3.4c.3 1.5 1 3 1 3h-.7s-1-1-1-2z"/>
      <path fill="#79B37B" d="M236 267.5c.6-1.3 1.2-3 1.5-4.3.3-1.4.3-3 .3-3s2.6.6 3.8 3.7c.5 1 2.2 2 2.4 3 .2 2-1.2 3-1.2 3s-2.4 2-3.7 1c-1-2-2-1-3-1 0 0-1-1 0-3z"/>
      <path fill="#83BC84" d="M236 267.5c.8-1.3 1.7-5 1.7-4 0 .8-1 4-1.6 5.4 0 1 1 1 0 1 0 0-1-1 0-3z"/>
      <path fill="#76AC77" d="M243 268.2c0-1.3-1-1.4-2-3.3-.6-1 0-2-.7-3-.8-2-2.5-2-2.5-2s2.6 0 3.8 4c.5 1 2 2 2.2 3 .2 1-2.2 3-2.2 3s1.5-2 1.5-3z"/>
      <path fill="#947662" d="M296.6 261c.4-1.2-.2-2.5-.2-2.5s.6.2 1 0c.7-.2 1.2-.8 1.2-.8s-.3 2 0 3.4c.3 2 1 3 1 3h-4s.7-1 1-3z"/>
      <path fill="#8C6B55" d="M298 262c-.3-.8-.4-3.3 0-3.5.5-.2.6-.8.6-.8s-.3 2 0 3.4c.3 2 1 3 1 3h-.7s-1-1-1-2z"/>
      <path fill="#79B37B" d="M294 255.6c.6-1.2 1.2-3 1.5-4.3.3-1.4.3-3 .3-3s2.6.6 3.8 3.7c.5 1.3 2.2 2.4 2.4 3.6.2 2-1.2 3.3-1.2 3.3s-2.4 2-3.7 0c-1-2-2-1-3-1 0 0-1-1 0-3z"/>
      <path fill="#83BC84" d="M294 255.6c.8-1.3 1.7-5 1.7-4 0 .8-1 4.2-1.6 5.4 0 1.3 1 1.7 0 1.7 0-.3-1-.7 0-3z"/>
      <path fill="#76AC77" d="M301 256.3c0-1.3-1-1.4-2-3.3-.6-.7 0-1-.7-2.4-.8-1.3-2.5-2-2.5-2s2.6.7 3.8 3.8c.5 1.3 2 2.3 2.2 3.6.2 2-2.2 3.4-2.2 3.4s1.5-1.8 1.5-3z"/>
      <path fill="#947662" d="M286.2 281.5c.4-1.5-.3-3-.3-3s0 .3 1 0l1-.8s-1 2 0 3.8c0 1.8 1 3.3 1 3.3h-5s1-1.7 1-3.3z"/>
      <path fill="#8C6B55" d="M287.7 282.7c-.3-1-.3-4 0-4 .7-.3.8-1 .8-1s-.4 2 0 3.8c.3 1.8 1.2 3.3 1.2 3.3h-1s-.7-1-1-2z"/>
      <path fill="#79B37B" d="M283 275.3c.8-1.4 1.5-3.3 1.8-5 .3-1.5.4-3.4.4-3.4s3 0 4.5 4c.6 1 2.6 2 2.8 4 .3 2-1.3 3-1.3 3s-3 2-4.5 1c-1.5-2-2.7-1-3.5-1-.8-1-2-1-.3-4z"/>
      <path fill="#83BC84" d="M283.2 275.3c.8-1.5 1.8-5.6 1.8-4.6s-1 4.8-1.8 6.2c-.8 1 .3 1 0 1-.8-1-1.7-1 0-4z"/>
      <path fill="#76AC77" d="M291.5 276c0-1.4-1.2-1.5-2.7-3.6-.5-.8.2-1.2-.6-2.7-1-1.5-3-2.3-3-2.3s3 .7 4.5 4.3c.6 1.4 2.4 2.6 2.6 4 .2 2.2-2.6 3.8-2.6 3.8s1.8-2 1.8-3.4z"/>
      <path fill="#947662" d="M224.2 280.2c.4-1.6-.3-3.2-.3-3.2s0 .3 1 0l1-1s-1 2.4 0 4.2c0 1.8 1 3.4 1 3.4h-5s1-1.8 1-3.4z"/>
      <path fill="#8C6B55" d="M225.7 281.3c-.3-1-.3-4 0-4.2.7 0 .8-1 .8-1s-.4 3 0 5 1.2 4 1.2 4h-.8l-2-2z"/>
      <path fill="#79B37B" d="M221 273.6c.8-1.5 1.5-3.5 1.8-5 .3-1.8.4-3.8.4-3.8s3 .8 4.5 4.6c.6 1.5 2.7 2.7 3 4.2 0 2.2-1.5 4-1.5 4s-3 2.5-4.5 1c-1.5-1.6-2.7-.8-3.5-1-.8-.5-2-1-.3-4z"/>
      <path fill="#83BC84" d="M221 273.6c1-1.5 2-5.8 2-4.8s-1 5-1.8 6.5c-.8 1.4.2 2 0 2-.8-.4-1.8-1 0-3.7z"/>
      <path fill="#76AC77" d="M229.5 274.4c0-1.5-1.2-1.6-2.6-4-1-.7 0-1-1-2.7-1-1.5-3-2.4-3-2.4s3 .8 4 4.5c0 1.5 2 2.8 2 4.3 0 3-3 4-3 4s2-2 2-3z"/>
      <path fill="#947662" d="M364 247.3s.4-2.5 1-2.7c.7-.2 1.3 2.7 1.3 2.7l1.2 2.8h-5l1.5-2z"/>
      <path fill="#79B37B" d="M360.4 245.4l1.4-1.8v-2l1.2-1.5v-1l2.3-3 2.7 4v2l1 2v2l1.3 2-5.4 3-5-3z"/>
      <path fill="#8C705D" d="M365 248l1.3-.7 1.2 2.8H366l-1-2z"/>
      <path fill="#71AB72" d="M368 240l1 1.6v2l1.3 1.8-5.4 2.6 3-8z"/>
      <path fill="#63A165" d="M369 241.6v2l1.3 1.8-5.4 2.6 4-6.4z"/>
      <path fill="#947662" d="M323.2 253.4s.4-2.4 1-2.6c.7-.3 1.3 2.6 1.3 2.6l1.2 2.8h-5l1.5-2.8z"/>
      <path fill="#79B37B" d="M319.7 251.5l1.3-1.8v-2l1.3-1.5v-1.4l2.3-3.3 2.7 3.3v1.4l1 1.6v2l1.2 1.7-5.3 2.6-4.5-2z"/>
      <path fill="#8C705D" d="M324.3 254l1.2-.6 1.2 2.8h-1.5l-1-2.2z"/>
      <path fill="#71AB72" d="M327.3 246.2l1 1.5v2l1.2 1.8-5.3 2.6 3-7z"/>
      <path fill="#63A165" d="M328.3 247.7v2l1.2 1.8-5.3 2.6 4-6z"/>
      <path fill="#947662" d="M317 272.6s.4-3 1.2-3.3c.8-.2 1.6 3.3 1.6 3.3l1.5 3.5h-6l1.6-3z"/>
      <path fill="#79B37B" d="M312.5 270.2l1.7-2.2v-2.3l1.5-2V262l3-4 3.3 4v1.8l1.2 2v2.2l1.6 2.2-6.7 3.3-5-3.3z"/>
      <path fill="#8C705D" d="M318.3 273.3l1.5-.7 1.5 3.5h-1.8l-1.2-2z"/>
      <path fill="#71AB72" d="M322 263.7l1.2 2v2.3l1.6 2.2-6.7 3.2 4-9.7z"/>
      <path fill="#63A165" d="M323.2 265.6v2.4l1.6 2.2-6.7 3.2 6-7.8z"/>
      <path fill="#947662" d="M235.8 292.3s.6-3 1.4-3.2c.8 0 1.5 4 1.5 4l1.5 4h-6l1.6-3z"/>
      <path fill="#79B37B" d="M231.4 290l1.7-2.2v-2.4l2-2V282l3-4 3 4v1.7l2 2v2.3l2 2.2-6 3.2-5-3.2z"/>
      <path fill="#8C705D" d="M237.3 293l1.4-.7 1.5 3.6h-1.8l-1-3z"/>
      <path fill="#71AB72" d="M241 283.5l1.2 2v2.3l1.5 2.2-6.7 3.2 4-9.7z"/>
      <path fill="#63A165" d="M242.2 285.4v2.4l1.5 2.2-6.7 3.2 5.2-7.8z"/>
      <path fill="#947662" d="M267 295.3s.7-3 1.5-3.2c.8 0 1.5 4 1.5 4l1.5 4h-6l1.6-3z"/>
      <path fill="#79B37B" d="M262.7 293l1.7-2.2v-2.4l1.5-2V285l3-4.2 3 4.2v1.7l1 2v2.3l1 2.2-7 3.2-6-3.2z"/>
      <path fill="#8C705D" d="M268.5 296l1.5-.7 1.5 3.5h-1.8l-1.2-2.7z"/>
      <path fill="#71AB72" d="M272.2 286.5l1.3 2v2.3l1.5 2.2-6.7 3.2 4-9.7z"/>
      <path fill="#63A165" d="M273.5 288.4v2.4l1.5 2.2-6.7 3.2 5.2-7.8z"/>
      <path fill="#947662" d="M1055 269.7s.8-4.4 2-4.8c1-1 2 4 2 4l2 5h-8.2l2.3-6z"/>
      <path fill="#79B37B" d="M1049 266.3l2.4-3.3v-3.4l2-2.8v-2.5l4-6 4.8 6v2.5l1.7 2.8v3.4l2 3.3-10 4.7-8-4.7z"/>
      <path fill="#8C705D" d="M1057 270.8l2-1 2 5h-2.4l-1.5-4z"/>
      <path fill="#71AB72" d="M1062.2 256.7l1.7 2.8v3.5l2 3.2-10 4.8 5-14.3z"/>
      <path fill="#63A165" d="M1064 259.5v3.5l2 3.2-9.2 4.8 7-11.5z"/>
      <path fill="#947662" d="M1083 276.6s.8-4.3 2-4.7c1-1 2 4 2 4l2 5h-8.2l2.3-5z"/>
      <path fill="#79B37B" d="M1077 273.2l2.4-3.2v-3.5l2-2.8v-2.5l4-6 4.8 6v2.5l1.7 2.8v3.5l2 3.2-10 4.7-8-5z"/>
      <path fill="#8C705D" d="M1085 277.7l2-1 2 5h-2.4l-1.5-4z"/>
      <path fill="#71AB72" d="M1090.2 263.7l1.7 2.7v3.5l2 3-10 4 5-15z"/>
      <path fill="#63A165" d="M1092 266.4v3.5l2 3-9.2 4 7-12z"/>
      <path fill="#947662" d="M531 214.2s.8-4.3 2-4.7c1-.4 2 4.7 2 4.7l2 5.2h-8l2.3-5.2z"/>
      <path fill="#79B37B" d="M525 210.8l2.4-3.2V204l2-2.6v-2.6l4-6 4.8 6v2.6l1.7 2.7v4l2 3-10 5-8-5z"/>
      <path fill="#8C705D" d="M533 215.4l2-1.2 2 5.2h-2.4l-1.5-4z"/>
      <path fill="#71AB72" d="M538.2 201.3l1.7 2.8v4l2 3-10 5 5-14z"/>
      <path fill="#63A165" d="M540 204v3.6l2 3.2-9.2 4.7 7-11.4z"/>
      <path fill="#947662" d="M957.3 324.4s1-6.6 3-7.2c1.6-.6 3 7.2 3 7.2l3.3 7.8h-12.8l3.5-7.8z"/>
      <path fill="#79B37B" d="M948 319.2l3.6-5V309l3.2-4.2V301l6.2-9.3 7 9.3v3.8l2.8 4.2v5.3l3.2 5-14 7-12-7z"/>
      <path fill="#71AB72" d="M968 304.7l2.8 4.2v5l3.2 5-14 7 8-22z"/>
      <path fill="#63A165" d="M970.8 309v5.3l3.2 5-14 7 10.8-17.4z"/>
      <path fill="#947662" d="M1033.3 318.4s1-6.6 3-7.2c1.6-.5 3 7.2 3 7.2l3.3 8h-12.8l3.5-8z"/>
      <path fill="#79B37B" d="M1024 313.3l3.6-5V303l3.2-4v-4l6.2-9.2 7 9.2v3.8l2.8 4.3v6l3.2 5-14 7-12-7z"/>
      <path fill="#8C705D" d="M1036.3 320l3-1.6 3.3 8h-4l-2.3-6.3z"/>
      <path fill="#71AB72" d="M1044 298.8l2.8 4.2v5.3l3.2 5-14 7 8-21.5z"/>
      <path fill="#63A165" d="M1046.8 303v5.3l3.2 5-14 7 10.8-17.3z"/>
      <path fill="#947662" d="M979.7 290.7s.7-4.2 1.8-4.6c1 0 2 5 2 5l2 5h-8l2.2-5z"/>
      <path fill="#79B37B" d="M974 287.4l2.2-3V281l2-3v-2.3l3.8-5.8 4.4 5v2l1.6 2v3l2 3-8.7 5-7.3-5z"/>
      <path fill="#8C705D" d="M981.6 291.7l2-1 1.8 5H983l-1.4-4z"/>
      <path fill="#71AB72" d="M986.4 278.2l1.6 2.7v3l2 3-8.7 4 5-14z"/>
      <path fill="#63A165" d="M988 281v3.2l2 3-8.7 4.7 6.7-11z"/>
      <path fill="#947662" d="M1077.7 317.4s.7-4.2 1.8-4.6c1-.3 2 4.6 2 4.6l2 5h-8l2.2-5z"/>
      <path fill="#79B37B" d="M1072 314l2.2-3v-3.4l2-2.6v-2.5l3.8-5.8 4.4 5.8v2.5l1.6 2.6v3.4l2 3-8.7 4.7-7.3-4.6z"/>
      <path fill="#8C705D" d="M1079.6 318.5l2-1 1.8 4.8h-2.3l-1-3.8z"/>
      <path fill="#71AB72" d="M1084.4 305l1.6 2.6v3.4l2 3-8.7 4.6 5-13.7z"/>
      <path fill="#63A165" d="M1086 307.6v3.4l2 3-8.7 4.6 6.7-11z"/>
      <path fill="#947662" d="M984.6 161s.4-2.6 1-3c.7 0 1.3 3 1.3 3l1 3h-5l1-3z"/>
      <path fill="#79B37B" d="M981 159l1.4-2v-2l1.2-1.7v-1.5l2.4-3.6 2.7 3.6v1.5l1 1.7v2l1.3 2-5.4 2.7-4.6-2.8z"/>
      <path fill="#8C705D" d="M985.7 161.6l1.2-.7 1 3h-2l-1-3z"/>
      <path fill="#71AB72" d="M988.7 153.3l1 1.6v2l1.3 2-5.4 2 3-9z"/>
      <path fill="#63A165" d="M989.8 155v2l1.2 2-5.4 2.7 4.2-6.8z"/>
      <path fill="#947662" d="M1039.4 157.4s.6-3.8 1.6-4.2c1-.3 2 4.2 2 4.2l1.7 4.6h-7.4l2-4.6z"/>
      <path fill="#79B37B" d="M1034 154.4l2-3v-3l2-2.4v-2.3l3.5-5.4 4 5.4v2.3l1.6 2.4v3l2 3-8 4.2-7-4.2z"/>
      <path fill="#8C705D" d="M1041 158.4l2-1 1.7 4.6h-2.2l-1.4-3.6z"/>
      <path fill="#71AB72" d="M1045.6 146l1.5 2.4v3l2 3-8 4.2 5-12.7z"/>
      <path fill="#63A165" d="M1047 148.4v3l2 3-8.2 4.2 6.3-10.2z"/>
      <path fill="#B2886C" d="M997.5 316.2c1-3.8-.6-7.4-.6-7.4s1 .6 3 0 3-2.3 3-2.3-1 5.5 0 9.7c1 4.3 3 8 3 8h-12s2-4.2 3-8z"/>
      <path fill="#A47D63" d="M1001.5 319c-.7-2.7-1-9.8 0-10 1.7-.7 2-2.5 2-2.5s-1 5.5 0 9.7c1 4.3 3.2 8 3.2 8h-2.3s-2-2.5-3-5.2z"/>
      <path fill="#73C075" d="M989.2 300.7c2.3-3.5 4-8.3 5-12.2.7-4 .8-8.6.8-8.6s8 1 11.6 10c1.5 3 6.7 6 7.2 10 .7 5-3.4 9-3.4 9s-7.4 6-11.4 2-7-2-9-3-5-3-.8-9z"/>
      <path fill="#86D488" d="M989.8 300.6c2.3-3.5 4.8-13.8 4.8-11.3S992 301 990 304.6s.6 5 0 4.7c-2.2-.8-4.6-2-.2-8.7z"/>
      <path fill="#5EB661" d="M1011.2 302.6c0-3.7-3-4-6.7-9.2-1.4-2 .5-3-1.8-6.7S995 281 995 281s8 1.8 11.7 10.7c1.5 3.6 6 6.5 6.6 10 .6 5.3-6.7 9.5-6.7 9.5s4.7-5 4.6-8.6z"/>
      <path fill="#B2886C" d="M1020.6 285.7c.7-2.4-.4-4.6-.4-4.6s1 1 2.2 0c1 0 2-1 2-1s-.6 4 0 6c.6 3 2 5 2 5h-8s1.5-2 2.2-5z"/>
      <path fill="#A47D63" d="M1023.2 287.4c-.5-1.7-.6-6 0-6.3 1 0 1.2-1 1.2-1s-.6 4 0 6c.6 3 2 5 2 5h-1.4s-1.4-1-1.8-3z"/>
      <path fill="#73C075" d="M1015.4 276c1.4-2.2 2.6-5.2 3-7.6.6-2.4.6-5.4.6-5.4s5 1.2 7.4 6.7c1 2.3 4.2 4 4.5 6.3 0 3.3-3 5.7-3 5.7s-5 3.8-7 1.6c-3-2.2-5-1-6-1.6-2-.5-4-1.5-1-5.7z"/>
      <path fill="#86D488" d="M1015.7 276c1.5-2.3 3-8.6 3-7 0 1.4-1.6 7.3-2.8 9.4-2 2.2 0 3 0 3-2-.5-3-1.2-1-5.4z"/>
      <path fill="#5EB661" d="M1029.2 277.2c0-2.3-2-2.4-4.2-5.8-1-1.2.3-1.8-1-4-1.6-2.4-5-3.7-5-3.7s5 1 7.4 6.7c1 2.2 3.8 4 4 6.3.6 3.2-4 6-4 6s3-3.3 2.8-5.5z"/>
      <path fill="#B2886C" d="M1059.2 306.4c.7-2.3-.3-4.6-.3-4.6s1 .4 2 0c1-.3 2-1.4 2-1.4s-1 3.4 0 6c0 2.7 2 5 2 5h-8l2-5z"/>
      <path fill="#A47D63" d="M1061.8 308.2c-.5-1.7-.6-6 0-6.3 1-1 1.2-2 1.2-2s-.6 3 0 6c.6 2 2 5 2 5h-1.4s-1.4-2-1.8-3z"/>
      <path fill="#73C075" d="M1054 296.8c1.5-2.2 2.6-5.2 3-7.6.6-2.4.7-5.4.7-5.4s5 1.2 7.3 6.7c1 2.2 4.2 4 4.5 6.3.4 3.3-2.2 5.7-2.2 5.7s-4.6 3.8-7 1.6c-2.6-2-4.5-1-5.8-1-1.3 0-3.2-1-.5-5z"/>
      <path fill="#86D488" d="M1054.4 296.7c1.4-2.2 3-8.6 3-7 0 1.5-1.7 7.3-3 9.5-1.2 2.2.5 3 0 3-1.2-.6-2.8-1.2 0-5.5z"/>
      <path fill="#5EB661" d="M1068 298c-.2-2.3-2-2.5-4.4-5.8-.8-1.2.3-2-1-4-1.6-2.4-5-3.7-5-3.7s5 1 7.4 6.7c1 2.2 4 4 4.2 6.3.4 3.2-4.3 5.8-4.3 5.8s3-3 3-5.4z"/>
      <path fill="#B2886C" d="M1024 170c.6-2-.2-3.7-.2-3.7s.8.3 1.6 0c.8-.2 1.5-1 1.5-1s-1 2.6 0 4.7c0 2 1 4 1 4h-6l1-4z"/>
      <path fill="#A47D63" d="M1026 171.3c-.4-1.3-.4-4.8 0-5 .8-.2 1-1 1-1s-.5 2.6 0 4.7c.4 2 1.5 4 1.5 4h-1s-1-1.3-1.5-2.7z"/>
      <path fill="#73C075" d="M1020 162.4c1.2-1.8 2-4 2.4-6 .4-2 .4-4.2.4-4.2s4 1 5.7 5.2c.7 1.8 3.2 3.2 3.4 5 0 2.5-2 4.4-2 4.4s-4 3-6 1.3c-2-1-4 0-5-1-1 0-3-1-1-4z"/>
      <path fill="#86D488" d="M1020.3 162.3c1-1.7 2.3-6.7 2.4-5.5 0 1.2-1.3 5.8-2.3 7.5-1 1.7.3 2.4 0 2.3-1-.4-2.2-1 0-4.3z"/>
      <path fill="#5EB661" d="M1030.7 163.3c0-1.8-1.5-2-3.3-4.5-.6-1 .3-1.5-1-3.3-1-1.8-3.5-2.8-3.5-2.8s3 1 5 5.2c0 1 3 3 3 5s-3 4-3 4 2-3 2-4z"/>
      <path fill="#947662" d="M402 243c.4-1.5-.2-3-.2-3s.6.3 1.3 0c1-.2 2-1 2-1v4l2 3.3h-5l2-3.3z"/>
      <path fill="#8C6B55" d="M403.6 244c-.3-1-.4-3.8 0-4 .6 0 .7-1 .7-1s-.3 2.3 0 4c.4 1.7 1.3 3.3 1.3 3.3h-1s-.7-1-1-2.2z"/>
      <path fill="#79B37B" d="M398.8 236.8c1-1.4 1.6-3.4 2-5 .2-1.5.2-3.4.2-3.4s3 .8 4.6 4.3c.5 1.5 2.6 2.7 2.8 4 .2 2.2-1.4 3.8-1.4 3.8s-3 2.4-4.4 1c-1.6-1.5-2.7-.7-3.5-1 0-.4-2-1 0-3.7z"/>
      <path fill="#83BC84" d="M399 236.8c1-1.5 2-5.6 2-4.6s-1 4.7-2 6.2c-.7 1.4.3 2 0 1.8-.7-.3-1.7-.7 0-3.4z"/>
      <path fill="#76AC77" d="M407.3 237.5c0-1.4-1-1.5-2.6-3.7-.5-.7.2-1.2-.7-2.6-1-1.5-3-2.3-3-2.3s3 0 4.6 4c.5 1 2.3 2 2.5 4 1 2-2 4-2 4s2-2 2-4z"/>
      <path fill="#B2886C" d="M418 233.3c.6-2-.2-3.6-.2-3.6s.8.3 1.6 0 1.5-1 1.5-1-1 2.5 0 4.6c0 2 1 4 1 4h-6s1-2 1-4z"/>
      <path fill="#A47D63" d="M420 234.7c-.4-1.4-.4-4.8 0-5 .8-.3 1-1 1-1s-.5 2.5 0 4.6c.4 2 1.5 4 1.5 4h-1s-1-1.3-1.5-2.6z"/>
      <path fill="#73C075" d="M414 225.7c1.2-1.7 2-4 2.4-6 .4-2 .4-4.2.4-4.2s4 1 5.7 5.3c.7 1.7 3.2 3.2 3.4 5 0 2.5-2 4.4-2 4.4s-4 3-6 1.2c-2-1.7-4-.8-5-1.2-1-.4-3-1.2-1-4.5z"/>
      <path fill="#86D488" d="M414.3 225.7c1-1.8 2.3-6.8 2.4-5.6 0 2-1.3 6-2.3 8-1 2 .3 3 0 3-1 0-2.2-1 0-4z"/>
      <path fill="#5EB661" d="M424.7 226.6c0-1.8-1.5-2-3.3-4.5-.6 0 .3-1-1-3-1-2-3.5-3-3.5-3s3 1 5 6c0 2 3 3 3 5 0 3-3 5-3 5s2-2 2-4z"/>
      <path fill="#B2886C" d="M340 282.8c.6-2-.2-3.6-.2-3.6s.8.3 1.6 0 1.5-1 1.5-1-1 2.5 0 4.6c0 2 1 4 1 4h-6s1-2 1-4z"/>
      <path fill="#A47D63" d="M342 284.2c-.4-1.4-.4-4.8 0-5 .8-.3 1-1 1-1s-.5 2.5 0 4.6c.4 2 1.5 4 1.5 4h-1s-1-1.3-1.5-2.6z"/>
      <path fill="#73C075" d="M336 275.2c1.2-1.7 2-4 2.4-6 .4-2 .4-4.2.4-4.2s4 1 5.7 5.3c.7 1.7 3.2 3.2 3.4 5 0 2.5-2 4.4-2 4.4s-4 3-6 1.2c-2-2-4-1-5-2s-3-1-1-5z"/>
      <path fill="#86D488" d="M336.3 275.2c1-1.8 2.3-6.8 2.4-5.6 0 1.2-1.3 5.8-2.3 7.5-1 2 .3 3 0 3-1 0-2.2-1 0-4z"/>
      <path fill="#5EB661" d="M346.7 276c0-1.7-1.5-1.8-3.3-4.4-.6-1 .3-1.5-1-3.2-1-1.8-3.5-3-3.5-3s3 1 5 5.4c0 1.7 3 3.2 3 5 0 2.5-3 4.6-3 4.6s2-2.5 2-4.3z"/>
      <path fill="#B2886C" d="M384 239.2c.6-1.8-.2-3.6-.2-3.6s.8.3 1.6 0 1.5-1 1.5-1-1 2.6 0 4.6c0 2 1 4 1 4h-6s1-2 1-4z"/>
      <path fill="#A47D63" d="M386 240.6c-.4-1.3-.4-4.8 0-5 .8-.2 1-1 1-1s-.5 2.6 0 4.6c.4 2 1.5 4 1.5 4h-1s-1-1.3-1.5-2.6z"/>
      <path fill="#73C075" d="M380 231.7c1.2-1.8 2-4 2.4-6 .4-2 .4-4.2.4-4.2s4 1 5.7 5.2c.7 1.8 3.2 3.2 3.4 5 0 2.5-2 4.4-2 4.4s-4 4-6 2-4-1-5-1-3-1-1-4z"/>
      <path fill="#86D488" d="M380.3 231.6c1-1.7 2.3-6.7 2.4-5.5 0 2-1.3 6-2.3 8-1 2 .3 3 0 2-1 0-2.2-1 0-4z"/>
      <path fill="#5EB661" d="M390.7 232.6c0-1.8-1.5-2-3.3-4.5-.6-1 .3-1-1-3-1-2-3.5-3-3.5-3s3 1 5 6c0 2 3 3 3 5 0 3-3 5-3 5s2-2 2-4z"/>
      <path fill="#B2886C" d="M273.3 265.7c.4-1.5-.3-3-.3-3s.7.3 1.4 0c.7-.2 1.3-1 1.3-1s-.4 2.3 0 4c.4 1.7 1.3 3.2 1.3 3.2h-5.2s1-2 1.5-4z"/>
      <path fill="#A47D63" d="M275 266.8c-.4-1-.4-4 0-4 .6-.3.7-1 .7-1s-.4 2.2 0 4c.4 1.6 1.3 3 1.3 3h-1s-.8-1-1-2z"/>
      <path fill="#73C075" d="M270 259.5c.8-1.4 1.6-3.3 2-5l.3-3.3s3.2.7 4.7 4.3c.6 1.4 2.7 2.6 3 4 .2 2-1.5 3.7-1.5 3.7s-3 2.4-4.6 1c-2-1.5-3-.7-4-1-1-.4-2-1-1-3.7z"/>
      <path fill="#86D488" d="M270 259.5c1-1.5 2-5.6 2-4.6s-1 4-1.8 6c-.8 1 .3 2 0 2-1-1-1.8-1 0-4z"/>
      <path fill="#5EB661" d="M279 260.2c-.2-1.4-1.4-1.5-3-3.6-.4-.8.3-1.2-.6-2.7-1-2-3-3-3-3s3 0 4.6 4c.6 1 2.5 2 2.7 4 .3 2-2.7 3-2.7 3s2-2 2-4z"/>
      <path fill="#B2886C" d="M255.3 288.5c.4-1.6-.3-3-.3-3s.7.2 1.4 0 1.3-1 1.3-1-.4 2.3 0 4c.4 1.7 1.3 3.2 1.3 3.2h-5.2s1-1.7 1.5-3.2z"/>
      <path fill="#A47D63" d="M257 289.6c-.4-1-.4-4 0-4 .6-.3.7-1 .7-1s-.4 2.2 0 4c.4 1.6 1.3 3 1.3 3h-1s-.8-1-1-2z"/>
      <path fill="#73C075" d="M252 282.3c.8-1.5 1.6-3.4 2-5l.3-3.4s3.2 0 4.7 4c.6 1 2.7 2 3 4 .2 2-1.5 3-1.5 3s-3 2-4.6 1c-2-2-3-1-4-1-1-1-2-1-1-4z"/>
      <path fill="#86D488" d="M252 282.2c1-1.4 2-5.5 2-4.5s-1 4.7-1.8 6c-.8 1.5.3 2 0 2-1-.3-1.8-.8 0-3.5z"/>
      <path fill="#5EB661" d="M261 283c-.2-1.5-1.4-1.5-3-3.7-.4-.8.3-1.2-.6-2.6-1-1.5-3-2.4-3-2.4s3 .8 4.6 4.3c.6 1.5 2.5 2.7 2.7 4 .3 2.2-2.7 4-2.7 4s2-2.2 2-3.6z"/>
      <path fill="#B2886C" d="M348 261c.6-1.8-.2-3.6-.2-3.6s.8.3 1.6 0 1.5-1 1.5-1-1 2.5 0 4.6c0 2 1 4 1 4h-6s1-2 1-4z"/>
      <path fill="#A47D63" d="M350 262.4c-.4-1.4-.4-4.8 0-5 .8-.2 1-1 1-1s-.5 2.5 0 4.6c.4 2 1.5 4 1.5 4h-1s-1-1.3-1.5-2.6z"/>
      <path fill="#73C075" d="M344 253.4c1.2-1.7 2-4 2.4-6 .4-1.8.4-4.2.4-4.2s4 1 5.7 5.3c.7 1.8 3.2 3.2 3.4 5 0 2.5-2 4.4-2 4.4s-4 3-6 1-4-1-5-2-3-1-1-5z"/>
      <path fill="#86D488" d="M344.3 253.4c1-1.8 2.3-6.8 2.4-5.6 0 1.3-1.3 5.8-2.3 7.5-1 1.8.3 2.4 0 2.3-1-.4-2.2-1 0-4.2z"/>
      <path fill="#5EB661" d="M354.7 254.3c0-1.7-1.5-1.8-3.3-4.5-.6-1 .3-1.4-1-3.2-1-1.8-3.5-2.8-3.5-2.8s3 1 5 5.2c0 1.8 3 3.2 3 5 0 2.5-3 4.6-3 4.6s2-2.5 2-4.3z"/>
      <path fill="#B2886C" d="M551 219.4c.6-1.8-.2-3.6-.2-3.6s.8.3 1.6 0 1.5-1 1.5-1-1 2.6 0 4.6c0 2 1 4 1 4h-6s1-2 1-4z"/>
      <path fill="#A47D63" d="M553 220.8c-.4-1.3-.4-4.8 0-5 .8-.2 1-1 1-1s-.5 2.6 0 4.6c.4 2 1.5 4 1.5 4h-1s-1-1.3-1.5-2.6z"/>
      <path fill="#73C075" d="M547 212c1.2-2 2-4.2 2.4-6 .4-2 .4-4.3.4-4.3s4 1 5.7 5.2c.7 1 3.2 3 3.4 5 0 2-2 4-2 4s-4 3-6 1-4-1-5-2-3-1-1-5z"/>
      <path fill="#86D488" d="M547.3 211.8c1-1.7 2.3-6.7 2.4-5.5 0 1.2-1.3 5.8-2.3 7.5-1 1.7.3 2.4 0 2.2-1-.3-2.2-1 0-4.2z"/>
      <path fill="#5EB661" d="M557.7 212.8c0-1.8-1.5-2-3.3-4.5-.6-1 .3-1.5-1-3.3-1-1.8-3.5-2.8-3.5-2.8s3 1 5 5.2c0 1.8 3 3.2 3 5 0 2.6-3 4.6-3 4.6s2-2.5 2-4.2z"/>
      <path fill="#ECE1B3" d="M1050 453l3 27.8s33.3 14 57 11c41.6-5.8 90-34.8 90-34.8l-2 17.8s-63.3 27.4-93 29.7c-29.7 2.3-64-11.8-64-11.8s-37-11-71-26.8c-34-16-80-41-107-47-10.8-3-32.5-10-54.5-12-32.8-4-77.5-2-77.5-2l16-8 32.4-1s7.6-38 18.6-61c11-23 12-29 32.6-45 20.6-15 52.6-16 57-23 4.4-7 19.8-39 19.8-39h3.6s-12.4 29-19 43c-7 13-36.8 6-58 23-21 17.2-22.6 40-23.5 43-7.5 24-11.7 57-11.7 57s48 6.4 67.2 11.6c69.2 19 85 37 113 48.3s45 19.3 54 19c9-.5 8-20.8 8-20.8l9-1z"/>
      <path fill="#CECECE" d="M742 289l1-6.4h9l2 6.4-8.3 6.3-3.7-6.3z"/>
      <path fill="#BBB" d="M743 282.6h9l2 6.4-11-6.4z"/>
      <path fill="#BCBCBC" d="M752.6 272l1.7-9h6.8l3 10.5-4 2.3-4 3.4-3-7z"/>
      <path fill="#ABABAB" d="M754.3 263h6.8l3 10.5-4 2.3-5-12.8z"/>
      <path fill="#D8D8D8" d="M751 278.7l1-6.4 4.6-2.3 4.4 2.3-1.5 12.7-6 3.4-2.6-9.7z"/>
      <path fill="#CBCBCB" d="M752 272.3l4.6-2.3 4.4 2.3-1.5 12.7-7.5-12.7z"/>
      <path fill="#CECECE" d="M796.7 277.2l1.4-6.3h11l3 6-10 6-4-7z"/>
      <path fill="#BBB" d="M798 271h11l2.4 6.2L798 271z"/>
      <path fill="#D8D8D8" d="M796 296l1-6.5 4.8-2.3 4.3 2.3-1 12.8-6 3.3-2-9.7z"/>
      <path fill="#CBCBCB" d="M797 289.5l4.8-2.3 4.3 2.3-1 12.8-7-12.8z"/>
      <path fill="#BCBCBC" d="M788 308.5l1.6-9h6.8l3 10.4-4.6 2-4 3-2.8-7z"/>
      <path fill="#ABABAB" d="M789.6 299.5h6.8l3 10.4-4.6 2-5.2-13z"/>
      <path fill="#BCBCBC" d="M801.3 284l1.6-9h6l3 10.4-5 2.4-4 3.4-3-7.2z"/>
      <path fill="#ABABAB" d="M803 275h6.8l3 10.4-4.7 2.4-5-13z"/>
      <path fill="#BCBCBC" d="M734.3 295l1.6-9.2h6l3 10.5-5 2.3-4 3.4-3-7z"/>
      <path fill="#ABABAB" d="M736 285.8h6.8l3 10.5-4.7 2.3-5-12.8z"/>
      <path fill="#66A57A" d="M1373.7 165.4c-4.4-1.7-33.3-14.7-33.3-14.7s32.4 42 20.4 27.4c-12-14-35.8-32-38-35-10-10 40.4 16 30-11-12.6-32 50 30 59.5 55 7.7 21-17.7-12-38.6-20z"/>
      <g transform="translate(1314 13.311)">
        <ellipse cx="10.9" cy="43.8" fill="#ED9191" fill-opacity=".2" filter="url(#n)" rx="10.4" ry="11.9"/>
        <path fill="#B09978" d="M35.6 121.7c5 0 10.8 2.8 10.8 2.8s.8 3.5-3 4.6c-4 2-8.2 1-11.4 0-3.3-1-4-2-3.8-4 .3-2 2.3-2 7.4-2z"/>
        <path fill="#C3A77F" d="M35.6 122.4c5 0 10.8 3 10.8 3s.8 3.4-3 4.5c-4 1-8.2 0-11.4-1-3.3-1-4-3-3.8-5 .3-2 2.3-3 7.4-3z"/>
        <path fill="#B09978" d="M48.5 119c5 0 10.8 3 10.8 3s.8 3.3-3 4.4c-4 1.2-8.2.7-11.4-.3-4-1-5-2-4-4 0-2 2-2 7-2z"/>
        <path fill="#C3A77F" d="M48.5 118c5 .2 10.8 3 10.8 3s.8 3.4-3 4.6c-4 1-8.2.7-11.4-.4-4-1-5-2.6-4-4.6 0-2 2-2.7 7-2.5z"/>
        <path fill="#999" d="M49.2 88.2h10.3v30.6s-1.4 2.2-4 2.6c-2.8.4-4.6-.8-4.6-.8l-2-32.4z"/>
        <path fill="#818181" d="M56.6 109.5c-.2-7-3.2-21.3-3.2-21.3h6v30.6s-.7 2.2-2.3 2.6c-1 .4-2-.8-2-.8s3-7.4 2-11z"/>
        <path fill="#999" d="M36.3 93.3l11-2.6-.7 31.6s-2.3 3-5 3.4c-2.7.4-4.5-1-4.5-1V93.3z"/>
        <path fill="#CFCFCF" d="M47.4 90.7l-.8 31.6s-2.3 3-5 3.4c-2.7.4 5.8-35 5.8-35z"/>
        <path fill="#DD7373" d="M15.7 41l1.3 6.5-8.2 9-4.8-11 3.6-5.8 8 1.4z"/>
        <path fill="#ED8181" d="M15.7 41l1.3 6.5-13-2 3.6-5.8 8 1.4z"/>
        <path fill="#E67A7A" d="M15.7 41l1.3 6.5h-2l-4.3-6.3h5z"/>
        <path fill="#BFA88D" d="M5.6 118v-14.4l2.7-13-.7-9 1.4-16L6.4 59 6 47.3 9 53l2.2-5 .7 5.4 3-5.4-1 9.2-3 2.8-1 22 1 8.2-2 13L7 118l1.2 8-1.6 1-1.6-9z"/>
        <path fill="#EFDDB2" d="M9.5 73c1.7 1 2.2 0 3.3-2.2 1-2.2 2.3-4.6.6-5.5-1.7-.8-3.8-2-6 2.3-2 4.3.4 4.6 2 5.5z"/>
        <path fill="#999" d="M11 68.3c1.8-2.3 3.5-1.5 3.5-1.5l7.4 5.5 12-2.6v8.7H21l-10-6.6s-1.6-1.3 0-3.5z"/>
        <path fill="#919191" d="M11 70.8L22 76l12.8-1.6v4h-13L11 71.8v-1z"/>
        <path fill="#EFDDB2" d="M33.7 61c3.8 0 7-5.2 7-11.6 0-6.3-3.2-11.5-7-11.5-2.2 0-5 5-5 5s-2.4 4-2.7 5c0 1 3 1 3 3 0 6 1.7 9 5 9z"/>
        <path fill="#DDCCA1" d="M29.3 51.2s-3-3-3.2-2.2c0 .5 3 3 3 3l1-.8z"/>
        <path fill="#E5E5E5" d="M28.5 57c1.3-4.4 6.3-4 5.7-8-.6-3.8-7.2-10-5.7-10 5 0 15.5 4 15.5 4s8.8-3.6 11.8 0c3 3.7 1.8 17.4 1.8 17.4L44 62.6s-7.6 12-9.8 10.8c-2.2-1.2-7-11.8-5.7-16.3z"/>
        <path fill="#E6E6E6" d="M38.4 48.6c8.8 4.2 18 2 19-2.4 1.3-4.4-2.6-11-12.3-15.5-9-4.5-19-5-20-1-2 3.8 5 14.4 14 19z"/>
        <path fill="#A0A0A0" d="M36.8 46c9.7 4.5 20 3 21.7-.8 1.8-4-4.6-10.8-14.2-15.3-9.7-5-19-6-20.8-2-2 4 3.6 12 13.3 17z"/>
        <path fill="#9A9A9A" d="M48.5 40.5c-1.7 4-16.4 3.3-11.7 5.5 9.7 4.5 20 3 21.7-.8 1.8-4-4.6-10.8-14.2-15.3-5-3 6 6 4.2 10z"/>
        <path fill="#8E8E8E" d="M54 42c2.2-1.8-3.2-7.7-3.2-7.7s-3.8-3-6.6-4.3c-6.5-3-9.2-3.4-10.5-.8-1.2 2.6.3 6 6.7 9C45.8 40.7 52 43.6 54 42z"/>
        <path fill="#989898" d="M58.7 4C72.7.7 72.4.4 72.4.4S68.8 5 59 14.4c-5.8 5.3-7.6 22.2-7.6 22.2S43 38 39.8 36c-3-2-7.2-6.8-4.8-10 2.3-3 9.8-19 23.7-22z"/>
        <path fill="#8E8E8E" d="M57.4 10.7C65 3.3 70 3.3 70 3.3s-9.6 6.7-11.7 9c-6.3 7-7.8 22.4-7.8 22.4s-2.5 1-5.3.8c-2-.2-4-1.6-5.4-2.4-.7 0 4.2 1 7.4-4 3.5-4 5.8-14 10.2-18z"/>
        <path fill="#A0A0A0" d="M33 90.6c3-15-.2-27.2 1.2-31 3-8.3 20.6-10.2 20.6-10.2s-.3-2.8 5.7 14c6 17 26.2 41.5 26.2 41.5S71 100 64 105c-7.2 4.3-7.2 17.4-16 19-20 3.3-25-5.6-25-5.6s7.3-13 10-27.8z"/>
        <path fill="#AEAEAE" d="M34 89.7c2.4-14 .5-28 .5-28s7.8 20.6 3 31c-5 10.5-7.2 15.3-7 23.2 0 4 1.8 4 3.4 6 2 3-11-4-11-4s7-15 10-29z"/>
        <path fill="#919191" d="M66 87.7c-3-5-10-9.4-15.3-14.7-6.3-6.3-10.7-14-10-16.2.3-.5 3.7 1 7.3 0 3.5-1 6-5.3 6-5.3s1.6 1 6.5 15.2c5 14.4 24 37.2 24 37.2s-11-5-18.4 0c-3 2 8-5 0-17z"/>
      </g>
    </g>
  </g>
</svg>
