<svg xmlns="http://www.w3.org/2000/svg" viewBox="0 0 458 167">
  <g fill="none" fill-rule="evenodd">
    <g transform="translate(.52 -.593)">
      <ellipse cx="81.96" cy="85.43" fill="#B5D6C7" rx="81.86" ry="82.04"/>
      <ellipse cx="81.96" cy="82.66" fill="#D66262" rx="81.86" ry="82.04"/>
      <ellipse cx="81.88" cy="82.93" fill="#80BD93" rx="77.23" ry="77.4"/>
      <ellipse cx="82.11" cy="83.06" stroke="#6EA37F" stroke-width="2" rx="77.34" ry="77.51"/>
      <path fill="#6EA37F" d="M80.1 131.78l38.53-71.33 37.08 44.88s-4 16.08-17.3 30.9c-13.3 14.8-35.1 21.37-35.1 21.37l-23.2-25.82z"/>
      <path fill="#DC7373" d="M52.8 41.7h55.07l17.3 26.3-44.83 63.8L35.5 68l17.3-26.3z"/>
      <path fill="#DF7E7E" d="M53.68 42.24l29.84.35s-10.3 27.5-16.8 28.3c-6.5.8-29.8-3.5-29.8-3.5l16.76-25.2z"/>
      <path fill="#FFF" d="M53.76 43.66l12.85-.4-10.9 3.16-10.2 10.25 8.3-13zm-15.93 23.5l21.7 3.64-18.9-4.4-.53-2.44-2.27 3.2z" opacity=".26"/>
      <path fill="#D76666" d="M110.13 46.94l3.33 16.44-17.72 7.5 26.66-3.73-12.27-20.2z"/>
      <path fill="#EDAA23" d="M39.58 97.03c0-5.2 4.5-9.8 10.06-10.23 0 0 15.2-1.4 30.5-1.4s30.5 1.4 30.5 1.4c5.55.44 10.05 5.3 10.05 10.23 0 5.46-4.5 9.34-10.1 8.7 0 0-14.7-2.05-30.6-2.05s-30.6 2.07-30.6 2.07c-5.5.64-10-3.34-10-8.72z"/>
      <path fill="#D15F5F" d="M80.34 72.5c22.4 0 44.82-4.5 44.82-4.5l-44.82 63.8L35.5 68s22.42 4.5 44.84 4.5z"/>
      <path fill="#D66262" d="M74.42 75.62c-14.35 21.23 5.92 54.62 5.92 54.62L36.9 68.87s17.7 5.35 37.52 6.75z"/>
      <path fill="#C75757" d="M97.58 73.85l5.46 10.28-16.8 38.08 35.22-51.8-23.88 3.5z"/>
      <path fill="#FFF" d="M39.23 70.43l20.48 3-13.1.7 5.1 14.44-12.4-18.14z" opacity=".18"/>
      <path fill="#5F8D6E" d="M39.58 99.8c-.4-5.8 4.23-9.63 10.38-8.62 0 0 14.88 3.06 30.18 3.06 15.3 0 30.57-3.08 30.57-3.08 6.2-1.04 10.6 3.13 10 8.64.7 5.46-3.8 10.6-10 11.38 0 0-14.6 2.38-30.5 2.38-15.8 0-30.1-2.36-30.1-2.36-6.1-.84-10.8-6.54-10.4-11.4z"/>
      <path fill="#FBCC26" d="M39.58 98.14c-.4-5.8 4.23-9.63 10.38-8.62 0 0 14.88 3.06 30.18 3.06 15.3 0 30.57-3.1 30.57-3.1 6.2-1.02 10.6 3.15 10 8.66.7 5.46-3.8 10.6-10 11.38 0 0-14.6 2.38-30.5 2.38-15.8 0-30.1-2.36-30.1-2.36-6.1-.84-10.8-6.54-10.4-11.4z"/>
      <path fill="#FFD12D" d="M40.98 97.78c-.47-4.1 2.47-7.04 6.55-6.6 0 0 13.65 1.47 20.07 1.97 7.22.56 22.45.14 22.45.14 4.1-.1 4.18.5.16 1.3 0 0-10.4 2.1-20.9 4.6s-20.1 6.3-20.1 6.3c-3.8 1.4-7.3-.8-7.8-4.9l-.4-2.8z"/>
      <path fill="#FFE998" d="M41.72 96.18c.16-2.62 2.43-4.63 5.05-4.48l11.1.63c2.63.15 2.62.33 0 .46 0 0-6.1-.2-10.3 1.8-4.23 1.9-4.55 5-4.55 5-1 2.4-1.66 2.2-1.5-.4l.2-3.2z"/>
      <path fill="#EEC224" d="M112.42 104.12c3.32-2.65 6.64-10.4 6.64-7.64 0 2.77 0 6.86-3.87 9.42-3.9 2.56-22 4.6-22 4.6-4.1.5-4.1.26-.1-.62 0 0 16-3.1 19.3-5.76z"/>
      <path fill="#AC4B4B" d="M91 111.57l-.82 1.74 2.22-.1 1.25-1.8-2.65.2z"/>
      <path fill="#B55252" d="M66.02 111.33l1.18 1.78s6.94.5 12.3.5c5.33 0 10.7-.2 10.7-.2l.85-1.7s-4.7.4-11.58.3c-6.88 0-13.45-.5-13.45-.5zm26.36 1.8s.8-1.13 1.2-1.73l1.14-.07-1.2 1.74-1.14.07z"/>
    </g>
    <path fill="#B4D6C7" d="M219.32 60.57l10.5 13.7h-10.8l-8.2-12.85h-.1v12.85h-8.67V40.85h12.98c3.48 0 6.3.85 8.4 2.57 2.14 1.7 3.2 4.28 3.2 7.7 0 2.4-.64 4.47-1.92 6.22-1.2 1.74-3 2.82-5.3 3.23zm-8.6-13.07v8.33h.85c4.02 0 6.03-1.4 6.03-4.17s-2-4.16-6.03-4.16h-.84zm41.74-6.65h8.68v18.8c0 2.7-.2 5-.64 6.84-.43 1.8-1.38 3.5-2.86 4.9-2.5 2.5-6.2 3.7-11.07 3.7-4.88 0-8.57-1.3-11.08-3.7-1.5-1.5-2.5-3.1-2.9-5-.5-1.9-.7-4.2-.7-6.9V40.8h8.7v20.28c0 .7.2 1.5.4 2.4.2.9.5 1.6.9 2.12.4.53 1 .98 1.7 1.35.7.37 1.6.55 2.7.55s2-.18 2.7-.55c.7-.37 1.3-.82 1.7-1.35.4-.53.7-1.24.9-2.13.2-.9.34-1.7.4-2.4.03-.7.05-1.6.05-2.66V40.8zm22.85 19.6v7.17h2.6c.3 0 .8-.03 1.5-.1.7-.05 1.3-.15 1.6-.3.4-.14.8-.34 1.2-.6.5-.25.8-.6 1-1 .2-.44.3-.95.3-1.54 0-.45 0-.85-.1-1.2-.1-.36-.2-.65-.4-.9l-.6-.63c-.1-.2-.4-.34-.8-.44-.4-.1-.7-.2-.9-.2-.2 0-.5-.1-1.1-.1h-3.9zm4.7 13.82h-13.3V40.85h12.4c6.7 0 10 2.9 10 8.7 0 3.3-1.2 5.57-3.7 6.8v.1c4.6.6 6.8 3.43 6.8 8.5 0 1.7-.3 3.16-1 4.4-.6 1.24-1.6 2.2-2.7 2.9-1.1.7-2.4 1.2-3.8 1.53-1.4.33-2.9.5-4.5.5zm-4.7-26.77v6.47h1c1.4 0 2.6-.22 3.4-.67.9-.44 1.3-1.3 1.3-2.57 0-.74-.1-1.33-.4-1.8-.3-.45-.7-.78-1.2-.97-.5-.2-1-.32-1.5-.37-.4-.1-1.1-.1-1.8-.1h-.6zm30 10.72L293 40.85h10.4l6.26 9.1 6.26-9.1h10.4L314 58.22v16.05h-8.7V58.22zm46.9-16.57v10.4c-.9-1.17-2-2.08-3.3-2.7-1.3-.65-2.7-.97-4.2-.97-2.6 0-4.7.9-6.4 2.66-1.6 1.78-2.4 3.98-2.4 6.6 0 2.67.9 4.85 2.5 6.55 1.7 1.7 3.9 2.5 6.6 2.5 1.46 0 2.8-.3 4.16-1 1.34-.7 2.46-1.5 3.37-2.6v10.5c-3.34 1-5.9 1.5-7.64 1.5-4.8 0-8.97-1.7-12.57-4.9-3.6-3.2-5.4-7.5-5.4-12.7 0-4.8 1.6-8.9 4.9-12.3 1.63-1.7 3.6-3 5.82-4 2.25-1 4.54-1.5 6.88-1.5 2.6 0 5.2.53 7.9 1.7zm22.2-1.9c3.2 0 6.3.7 9.1 2.14 2.8 1.4 5.1 3.4 6.9 6.1 1.8 2.6 2.6 5.6 2.6 8.9 0 5.4-1.7 9.8-5.2 13.3-3.4 3.4-7.9 5.1-13.2 5.1s-9.8-1.7-13.23-5.2c-3.44-3.5-5.2-7.9-5.2-13.3 0-3.3.9-6.3 2.6-8.9 1.78-2.7 4.05-4.8 6.86-6.2 2.8-1.5 5.8-2.2 9.03-2.2zm0 8.4c-2.5 0-4.8.9-6.6 2.67-1.8 1.77-2.8 3.83-2.8 6.16 0 2.84.9 5.2 2.8 7.12 1.9 1.9 4.1 2.86 6.7 2.86 2.6 0 4.9-.96 6.7-2.86s2.8-4.28 2.8-7.12c0-2.33-.9-4.4-2.8-6.16-1.8-1.77-4-2.66-6.6-2.66zm22.5 26.12V40.85h8.7l15.9 20.43h.1V40.85h8.7v33.42h-8.7l-16-20.47h-.1v20.4h-8.6zM455 48.2h-10.5v5.6h9.53v7.37h-9.52V74.3h-8.6V40.84H455v7.36z"/>
    <path fill="#D66262" d="M219.32 58.57l10.5 13.7h-10.8l-8.2-12.85h-.1v12.85h-8.67V38.85h12.98c3.48 0 6.3.85 8.4 2.57 2.14 1.7 3.2 4.28 3.2 7.7 0 2.4-.64 4.47-1.92 6.22-1.2 1.74-3 2.82-5.3 3.23zm-8.6-13.07v8.33h.85c4.02 0 6.03-1.4 6.03-4.17s-2-4.16-6.03-4.16h-.84zm41.74-6.65h8.68v18.8c0 2.7-.2 5-.64 6.84-.43 1.8-1.38 3.5-2.86 4.9-2.5 2.5-6.2 3.7-11.07 3.7-4.88 0-8.57-1.3-11.08-3.7-1.5-1.5-2.5-3.1-2.9-5-.5-1.9-.7-4.2-.7-6.9V38.8h8.7v20.28c0 .7.2 1.5.4 2.4.2.9.5 1.6.9 2.12.4.53 1 .98 1.7 1.35.7.37 1.6.55 2.7.55s2-.18 2.7-.55c.7-.37 1.3-.82 1.7-1.35.4-.53.7-1.24.9-2.13.2-.9.34-1.7.4-2.4.03-.7.05-1.6.05-2.66V38.8zm22.85 19.6v7.17h2.6c.3 0 .8-.03 1.5-.1.7-.05 1.3-.15 1.6-.3.4-.14.8-.34 1.2-.6.5-.25.8-.6 1-1 .2-.44.3-.95.3-1.54 0-.45 0-.85-.1-1.2-.1-.36-.2-.65-.4-.9l-.6-.63c-.1-.2-.4-.34-.8-.44-.4-.1-.7-.2-.9-.2-.2 0-.5-.1-1.1-.1h-3.9zm4.7 13.82h-13.3V38.85h12.4c6.7 0 10 2.9 10 8.7 0 3.3-1.2 5.57-3.7 6.8v.1c4.6.6 6.8 3.43 6.8 8.5 0 1.7-.3 3.16-1 4.4-.6 1.24-1.6 2.2-2.7 2.9-1.1.7-2.4 1.2-3.8 1.53-1.4.33-2.9.5-4.5.5zm-4.7-26.77v6.47h1c1.4 0 2.6-.22 3.4-.67.9-.44 1.3-1.3 1.3-2.57 0-.74-.1-1.33-.4-1.8-.3-.45-.7-.78-1.2-.97-.5-.2-1-.32-1.5-.37-.4-.1-1.1-.1-1.8-.1h-.6zm30 10.72L293 38.85h10.4l6.26 9.1 6.26-9.1h10.4L314 56.22v16.05h-8.7V56.22zm46.9-16.57v10.4c-.9-1.17-2-2.08-3.3-2.7-1.3-.65-2.7-.97-4.2-.97-2.6 0-4.7.9-6.4 2.66-1.6 1.78-2.4 3.98-2.4 6.6 0 2.67.9 4.85 2.5 6.55 1.7 1.7 3.9 2.5 6.6 2.5 1.46 0 2.8-.3 4.16-1 1.34-.7 2.46-1.5 3.37-2.6v10.5c-3.34 1-5.9 1.5-7.64 1.5-4.8 0-8.97-1.7-12.57-4.9-3.6-3.2-5.4-7.5-5.4-12.7 0-4.8 1.6-8.9 4.9-12.3 1.63-1.7 3.6-3 5.82-4 2.25-1 4.54-1.5 6.88-1.5 2.6 0 5.2.53 7.9 1.7zm22.2-1.9c3.2 0 6.3.7 9.1 2.14 2.8 1.4 5.1 3.4 6.9 6.1 1.8 2.6 2.6 5.6 2.6 8.9 0 5.4-1.7 9.8-5.2 13.3-3.4 3.4-7.9 5.1-13.2 5.1s-9.8-1.7-13.23-5.2c-3.44-3.5-5.2-7.9-5.2-13.3 0-3.3.9-6.3 2.6-8.9 1.78-2.7 4.05-4.8 6.86-6.2 2.8-1.5 5.8-2.2 9.03-2.2zm0 8.4c-2.5 0-4.8.9-6.6 2.67-1.8 1.77-2.8 3.83-2.8 6.16 0 2.84.9 5.2 2.8 7.12 1.9 1.9 4.1 2.86 6.7 2.86 2.6 0 4.9-.96 6.7-2.86s2.8-4.28 2.8-7.12c0-2.33-.9-4.4-2.8-6.16-1.8-1.77-4-2.66-6.6-2.66zm22.5 26.12V38.85h8.7l15.9 20.43h.1V38.85h8.7v33.42h-8.7l-16-20.47h-.1v20.4h-8.6zM455 46.2h-10.5v5.6h9.53v7.37h-9.52V72.3h-8.6V38.84H455v7.36z"/>
    <path fill="#B4D6C7" d="M205.52 112.93v12h-3.57V96.3h4.1c4.23 0 7.2.68 8.94 2.06 1.7 1.38 2.6 3.45 2.6 6.2 0 2.85-1 4.95-2.8 6.32-1.9 1.36-4.3 2.05-7.3 2.05h-2.1zm0-13.45v10.26h1.14c1.03 0 1.95-.07 2.75-.2.8-.12 1.6-.35 2.4-.7.8-.34 1.4-.88 1.8-1.6.5-.75.7-1.66.7-2.75 0-1.1-.2-2-.7-2.7-.4-.7-1.1-1.2-1.9-1.6-.8-.3-1.6-.6-2.4-.7-.8-.1-1.7-.2-2.7-.2h-.9zm28.2-3.8c4.1 0 7.63 1.46 10.58 4.4 2.95 2.9 4.42 6.43 4.42 10.53 0 4.3-1.45 7.8-4.36 10.7-2.9 2.9-6.46 4.3-10.63 4.3-4.18 0-7.72-1.4-10.63-4.3-2.92-2.8-4.37-6.4-4.37-10.6 0-4.1 1.47-7.6 4.42-10.5 2.95-2.9 6.48-4.4 10.58-4.4zm0 26.52c3.12 0 5.8-1.12 8.06-3.36 2.25-2.25 3.38-5 3.38-8.23 0-3.2-1.1-5.9-3.25-8.2-2.1-2.2-4.8-3.3-8.1-3.3s-6 1.2-8.2 3.4c-2.1 2.3-3.2 5-3.2 8.2 0 3.3 1.2 6 3.4 8.3 2.3 2.3 4.9 3.4 8.1 3.4zm27.23-9.73l9.04 12.46h-4.4l-8.5-12.12h-1.5V125H252V96.3h4.32c1.1 0 1.95 0 2.62.04.66.04 1.5.16 2.42.36.94.2 1.76.5 2.5.9 1.15.7 2.1 1.66 2.74 2.9.7 1.24 1 2.56 1 3.95 0 2.08-.6 3.87-1.9 5.38-1.24 1.5-2.9 2.4-4.95 2.64zm-5.2-13v10.38h1.14c1 0 1.9-.06 2.7-.2.8-.12 1.6-.35 2.3-.7.8-.33 1.4-.87 1.8-1.6.4-.74.6-1.65.6-2.74 0-3.4-2.6-5.1-7.8-5.1h-1zm24 .08v25.38h-3.57V99.55h-6.8V96.3h17.16v3.25h-6.8zm9.1-3.26h3.58v16.9c0 6 2.3 9 6.9 9 4.6 0 6.92-3 6.92-9V96.3h3.57v18.1c0 3.25-.95 5.92-2.83 8-1.9 2.1-4.5 3.14-7.7 3.14s-5.8-1.04-7.7-3.13c-1.9-2-2.9-4.7-2.9-8V96.3zm40.63 14.2h11.36v1.1c0 3.9-1.27 7.3-3.8 9.9-2.53 2.6-5.8 3.9-9.76 3.9-3.97 0-7.38-1.5-10.2-4.4-2.85-3-4.27-6.5-4.27-10.5 0-4.2 1.5-7.7 4.4-10.6 2.9-3 6.4-4.4 10.5-4.4 2.3 0 4.4.5 6.5 1.4 2.1 1 3.8 2.3 5.2 4.1l-2.5 2.4c-1-1.4-2.3-2.6-4-3.4-1.6-.9-3.3-1.3-5-1.3-3.2 0-5.9 1.1-8.1 3.4-2.2 2.3-3.3 5-3.3 8.2 0 3.1 1.1 5.8 3.3 8.12 2.2 2.35 4.8 3.53 7.9 3.53 2.3 0 4.4-.8 6.4-2.5s3-3.7 3.1-5.94h-7.4v-3.23zm32.1 7.2h-13.15l-3.27 7.2h-3.83L355 95l13.67 29.86h-3.84l-3.26-7.18zm-1.5-3.3L355 102.9l-5.1 11.6h10.2zm14.55-18.2v25.3h8.7v3.2h-12.27V96.3h3.57zm26.23 0h6.46l-7 12.5h-4.4l4.94-12.6zm17.4 6.3h-4.1v-6.3h11.53v28.6h-7.5v-22.3zm37.28 0h-9.9l-.5 3.2 2.35-.2c2.8-.2 5.2.7 7.2 2.7 1.9 2 2.9 4.5 2.9 7.5 0 3.1-1.2 5.7-3.7 7.7-2 1.6-4.8 2.4-8.4 2.4-3.6 0-6.7-.9-9.4-2.6l1.1-7.1c2.4 2.2 5.1 3.3 7.9 3.3 1.2 0 2.2-.4 3.2-1.2.9-.8 1.3-1.8 1.3-3 0-1.6-.7-2.8-1.9-3.66-1.3-.85-2.7-1.27-4.4-1.27-2 0-3.8.4-5.5 1.2l2.5-15.5h14.9v6.3z"/>
    <path fill="#FACC26" d="M205.52 110.93v12h-3.57V94.3h4.1c4.23 0 7.2.68 8.94 2.06 1.7 1.38 2.6 3.45 2.6 6.2 0 2.85-1 4.95-2.8 6.32-1.9 1.36-4.3 2.05-7.3 2.05h-2.1zm0-13.45v10.26h1.14c1.03 0 1.95-.07 2.75-.2.8-.12 1.6-.35 2.4-.7.8-.34 1.4-.88 1.8-1.6.5-.75.7-1.66.7-2.75 0-1.1-.2-2-.7-2.7-.4-.7-1.1-1.2-1.9-1.6-.8-.3-1.6-.6-2.4-.7-.8-.1-1.7-.2-2.7-.2h-.9zm28.2-3.8c4.1 0 7.63 1.46 10.58 4.4 2.95 2.9 4.42 6.43 4.42 10.53 0 4.3-1.45 7.8-4.36 10.7-2.9 2.9-6.46 4.3-10.63 4.3-4.18 0-7.72-1.4-10.63-4.3-2.92-2.8-4.37-6.4-4.37-10.6 0-4.1 1.47-7.6 4.42-10.5 2.95-2.9 6.48-4.4 10.58-4.4zm0 26.52c3.12 0 5.8-1.12 8.06-3.36 2.25-2.25 3.38-5 3.38-8.23 0-3.2-1.1-5.9-3.25-8.2-2.1-2.2-4.8-3.3-8.1-3.3s-6 1.2-8.2 3.4c-2.1 2.3-3.2 5-3.2 8.2 0 3.3 1.2 6 3.4 8.3 2.3 2.3 4.9 3.4 8.1 3.4zm27.23-9.73l9.04 12.46h-4.4l-8.5-12.12h-1.5V123H252V94.3h4.32c1.1 0 1.95 0 2.62.04.66.04 1.5.16 2.42.36.94.2 1.76.5 2.5.9 1.15.7 2.1 1.66 2.74 2.9.7 1.24 1 2.56 1 3.95 0 2.08-.6 3.87-1.9 5.38-1.24 1.5-2.9 2.4-4.95 2.64zm-5.2-13v10.38h1.14c1 0 1.9-.06 2.7-.2.8-.12 1.6-.35 2.3-.7.8-.33 1.4-.87 1.8-1.6.4-.74.6-1.65.6-2.74 0-3.4-2.6-5.1-7.8-5.1h-1zm24 .08v25.38h-3.57V97.55h-6.8V94.3h17.16v3.25h-6.8zm9.1-3.26h3.58v16.9c0 6 2.3 9 6.9 9 4.6 0 6.92-3 6.92-9V94.3h3.57v18.1c0 3.25-.95 5.92-2.83 8-1.9 2.1-4.5 3.14-7.7 3.14s-5.8-1.04-7.7-3.13c-1.9-2-2.9-4.7-2.9-8V94.3zm40.63 14.2h11.36v1.1c0 3.9-1.27 7.3-3.8 9.9-2.53 2.6-5.8 3.9-9.76 3.9-3.97 0-7.38-1.5-10.2-4.4-2.85-3-4.27-6.5-4.27-10.5 0-4.2 1.5-7.7 4.4-10.6 2.9-3 6.4-4.4 10.5-4.4 2.3 0 4.4.5 6.5 1.4 2.1 1 3.8 2.3 5.2 4.1l-2.5 2.4c-1-1.4-2.3-2.6-4-3.4-1.6-.9-3.3-1.3-5-1.3-3.2 0-5.9 1.1-8.1 3.4-2.2 2.3-3.3 5-3.3 8.2 0 3.1 1.1 5.8 3.3 8.12 2.2 2.35 4.8 3.53 7.9 3.53 2.3 0 4.4-.8 6.4-2.5s3-3.7 3.1-5.94h-7.4v-3.23zm32.1 7.2h-13.15l-3.27 7.2h-3.83L355 93l13.67 29.86h-3.84l-3.26-7.18zm-1.5-3.3L355 100.9l-5.1 11.6h10.2zm14.55-18.2v25.3h8.7v3.2h-12.27V94.3h3.57zm26.23 0h6.46l-7 12.5h-4.4l4.94-12.6zm17.4 6.3h-4.1v-6.3h11.53v28.6h-7.5v-22.3zm37.28 0h-9.9l-.5 3.2 2.35-.2c2.8-.2 5.2.7 7.2 2.7 1.9 2 2.9 4.5 2.9 7.5 0 3.1-1.2 5.7-3.7 7.7-2 1.6-4.8 2.4-8.4 2.4-3.6 0-6.7-.9-9.4-2.6l1.1-7.1c2.4 2.2 5.1 3.3 7.9 3.3 1.2 0 2.2-.4 3.2-1.2.9-.8 1.3-1.8 1.3-3 0-1.6-.7-2.8-1.9-3.66-1.3-.85-2.7-1.27-4.4-1.27-2 0-3.8.4-5.5 1.2l2.5-15.5h14.9v6.3z"/>
  </g>
</svg>
