<svg width="183" height="245" viewBox="0 0 183 245" xmlns="http://www.w3.org/2000/svg">
  <defs>
    <filter x="-50%" y="-50%" width="200%" height="200%" filterUnits="objectBoundingBox" id="motto3-filter-1">
      <feMorphology radius="2" in="SourceAlpha" operator="dilate" result="shadowSpreadOuter1"/>
      <feOffset dx="4" dy="4" in="shadowSpreadOuter1" result="shadowOffsetOuter1"/>
      <feGaussianBlur stdDeviation="6" in="shadowOffsetOuter1" result="shadowBlurOuter1"/>
      <feColorMatrix values="0 0 0 0 0.777370323 0 0 0 0 0.777370323 0 0 0 0 0.777370323 0 0 0 0.7 0" in="shadowBlurOuter1" result="shadowMatrixOuter1"/>
      <feOffset dx="-4" dy="-4" in="SourceAlpha" result="shadowOffsetOuter2"/>
      <feGaussianBlur stdDeviation="6" in="shadowOffsetOuter2" result="shadowBlurOuter2"/>
      <feColorMatrix values="0 0 0 0 0.923044218 0 0 0 0 0.923044218 0 0 0 0 0.923044218 0 0 0 0.7 0" in="shadowBlurOuter2" result="shadowMatrixOuter2"/>
      <feMerge>
        <feMergeNode in="shadowMatrixOuter1"/>
        <feMergeNode in="shadowMatrixOuter2"/>
        <feMergeNode in="SourceGraphic"/>
      </feMerge>
    </filter>
    <linearGradient x1="51.823%" y1=".707%" x2="51.823%" y2="99.438%" id="motto3-linearGradient-2">
      <stop stop-color="#09DFF3" offset="0%"/>
      <stop stop-color="#44BEFF" offset="100%"/>
    </linearGradient>
  </defs>
  <g id="motto3-Company" fill="none" fill-rule="evenodd">
    <path id="motto3-Rectangle-240" fill="#EBF4F8" d="M-501-945H939V705H-501z"/>
    <g id="motto3-Group-Copy-46">
      <path id="motto3-Rectangle-52-Copy-30" fill="#2D2D2D" filter="url(#motto3-filter-1)" d="M0 .992h183v244H0z" transform="translate(0 -.992)"/>
      <path id="motto3-Rectangle-46-Copy-16" fill="url(#motto3-linearGradient-2)" d="M12 12.992h159v220H12z" transform="translate(0 -.992)"/>
      <path d="M6 6h171v232H6V6zm6 6h159v220H12V12z" id="motto3-Rectangle-52-Copy-31" fill="#FFF"/>
      <path d="M130.068 145.74l-73.17-42.655v-20.15l73.17 42.655v20.15z" id="motto3-Polygon-185-Copy-33" fill="#FFF"/>
      <path d="M170.006 232H171V12H12v220h.994V13.004h157.012V232z" id="motto3-Rectangle-52-Copy-32" fill="#10A9D5"/>
      <path d="M28.116 114.852v-7.345h1.542c.738 0 1.322.073 1.75.22.46.142.877.385 1.25.727.76.69 1.138 1.6 1.138 2.726 0 1.13-.395 2.042-1.185 2.74-.39.348-.81.59-1.24.727-.4.137-.98.205-1.72.205h-1.53zm1.11-1.042h.498c.498 0 .912-.052 1.242-.157.33-.11.628-.287.894-.528.545-.498.818-1.146.818-1.945 0-.806-.27-1.46-.81-1.96-.484-.447-1.2-.67-2.144-.67h-.5v5.26zm10.828-5.26H37.11v1.764h2.86v1.042h-2.86v2.454h2.944v1.042H36v-7.345h4.054v1.042zm6.42.05l-.9.534c-.167-.292-.327-.482-.48-.57-.158-.102-.362-.153-.613-.153-.3 0-.56.09-.76.27-.2.17-.3.39-.3.65 0 .36.27.65.8.87l.73.3c.6.24 1.04.54 1.31.89.28.35.41.77.41 1.28 0 .68-.22 1.23-.67 1.67-.45.45-1.01.67-1.69.67-.63 0-1.16-.19-1.58-.56-.4-.38-.66-.91-.76-1.59l1.13-.25c.05.43.14.73.27.9.23.32.56.48 1 .48.35 0 .63-.113.86-.344.23-.23.34-.524.34-.88 0-.14-.02-.27-.06-.39-.04-.12-.1-.23-.18-.33-.08-.1-.19-.19-.33-.28-.13-.09-.29-.17-.47-.25l-.71-.295c-1-.424-1.5-1.046-1.5-1.864 0-.55.21-1.01.64-1.38.42-.37.95-.56 1.58-.56.85 0 1.51.41 1.98 1.24zm3.447-1.093v7.345h-1.1v-7.345h1.11zm6.36 3.52h3.04v.243c0 .552-.06 1.04-.19 1.465-.12.393-.34.76-.64 1.104-.68.76-1.55 1.15-2.6 1.15-1.02 0-1.9-.37-2.64-1.12-.73-.75-1.1-1.64-1.1-2.69 0-1.07.38-1.97 1.12-2.71.75-.75 1.65-1.12 2.72-1.12.58 0 1.11.12 1.61.35.48.23.94.61 1.4 1.14l-.79.76c-.6-.81-1.33-1.21-2.2-1.21-.77 0-1.43.27-1.95.8-.52.52-.79 1.18-.79 1.98 0 .81.3 1.49.88 2.02.55.49 1.15.74 1.79.74.55 0 1.04-.19 1.47-.56.44-.37.68-.81.73-1.33H56.3V111zm5.24 3.825v-7.844l5.36 5.603v-5.1h1.11v7.79l-5.35-5.59v5.15h-1.11zm16.52-6.303h-2.56v1.76h2.47v1.04h-2.47v3.49h-1.11v-7.34h3.67v1.04zm1.74 2.59c0-1.04.38-1.92 1.14-2.67.76-.74 1.66-1.12 2.72-1.12 1.05 0 1.95.37 2.7 1.12.75.75 1.13 1.65 1.13 2.7 0 1.05-.37 1.95-1.13 2.68-.75.74-1.67 1.1-2.74 1.1-.95 0-1.8-.33-2.55-.99-.83-.73-1.24-1.68-1.24-2.85zm1.12.01c0 .81.27 1.48.82 2 .54.52 1.17.78 1.88.78.77 0 1.42-.27 1.95-.8.53-.54.8-1.2.8-1.97 0-.79-.26-1.44-.78-1.97-.52-.54-1.16-.8-1.93-.8-.76 0-1.41.26-1.93.8-.52.52-.79 1.17-.79 1.95zm11.25.56l2.28 3.13h-1.36l-2.09-3.01h-.2v3h-1.11v-7.34h1.3c.97 0 1.67.18 2.1.54.48.4.72.94.72 1.6 0 .52-.15.97-.44 1.34-.3.37-.69.61-1.18.72zm-1.38-.84h.35c1.05 0 1.58-.4 1.58-1.21 0-.75-.51-1.13-1.53-1.13h-.39v2.33zm11.42-2.33v6.3h-1.1v-6.3H99.4v-1.04h4.48v1.04h-1.684zm4.6 1.83h3.17v-2.87h1.11v7.34h-1.11v-3.43h-3.16v3.43h-1.11v-7.34h1.11v2.87zm10.9-1.83h-2.94v1.76h2.86v1.04h-2.86v2.45h2.95v1.04h-4.05v-7.34h4.06v1.04zm5.72 2.59c0-1.04.38-1.92 1.14-2.67.76-.75 1.67-1.12 2.72-1.12 1.05 0 1.95.37 2.7 1.12.75.75 1.13 1.65 1.13 2.7 0 1.05-.37 1.95-1.13 2.68-.76.74-1.67 1.11-2.74 1.11-.95 0-1.8-.33-2.55-.99-.83-.73-1.24-1.68-1.24-2.86zm1.12.01c0 .81.28 1.48.82 2 .54.52 1.17.78 1.88.78.77 0 1.42-.27 1.95-.8.53-.54.8-1.2.8-1.97 0-.79-.26-1.44-.78-1.97s-1.16-.8-1.93-.8-1.41.27-1.93.8c-.52.52-.79 1.17-.79 1.95zm10.53-2.61v6.3h-1.1v-6.31h-1.69v-1.04h4.48v1.04h-1.68zm4.6 1.83h3.17v-2.87h1.11v7.34h-1.11v-3.43h-3.17v3.43h-1.11v-7.34h1.11v2.87zm10.9-1.83h-2.95v1.76h2.86v1.04h-2.86v2.45h2.95v1.04h-4.06v-7.34h4.06v1.04zm4.76 3.17l2.28 3.13h-1.36l-2.09-3.01h-.2v3h-1.1v-7.34h1.3c.97 0 1.67.18 2.1.54.48.4.718.94.718 1.6 0 .52-.15.97-.45 1.34-.295.37-.69.61-1.18.72zm-1.38-.84h.36c1.05 0 1.57-.4 1.57-1.2 0-.76-.51-1.13-1.53-1.13h-.39v2.33zM41.69 123.44l-.9.53c-.167-.29-.327-.48-.48-.57-.158-.1-.36-.16-.613-.16-.3 0-.56.088-.76.26-.203.17-.305.387-.305.647 0 .357.27.646.8.865l.738.3c.597.24 1.033.532 1.31.88.276.347.414.773.414 1.277 0 .67-.223 1.23-.674 1.67-.452.44-1.015.66-1.69.66-.635 0-1.16-.19-1.58-.56-.41-.38-.66-.91-.762-1.6l1.12-.25c.05.43.14.73.268.89.23.31.56.47 1 .47.347 0 .634-.11.86-.345.23-.234.345-.527.345-.88 0-.145-.02-.276-.06-.395-.04-.12-.1-.23-.18-.33-.08-.1-.19-.196-.32-.28-.13-.09-.29-.17-.48-.25l-.71-.3c-1-.422-1.5-1.043-1.5-1.862 0-.55.21-1.01.63-1.38.42-.374.947-.56 1.57-.56.85 0 1.51.41 1.988 1.236zm3.45-1.1v7.342h-1.11v-7.344h1.11zm2.58 7.342v-7.344h1.54c.74 0 1.32.075 1.75.22.46.14.873.386 1.25.73.76.69 1.134 1.6 1.134 2.726 0 1.13-.396 2.042-1.186 2.74-.396.35-.81.59-1.246.727-.405.14-.98.21-1.73.21H47.7zm1.103-1.04h.5c.496 0 .91-.05 1.24-.158.33-.114.63-.29.894-.53.547-.5.82-1.147.82-1.946 0-.807-.27-1.46-.81-1.96-.484-.448-1.2-.67-2.144-.67h-.5v5.26zm10.83-5.26H56.7v1.763h2.86v1.045H56.7v2.454h2.943v1.043h-4.06v-7.346h4.053v1.04zm5.72 2.595c0-1.035.376-1.92 1.134-2.665.757-.74 1.663-1.112 2.723-1.112 1.042 0 1.94.377 2.69 1.125.75.75 1.124 1.65 1.124 2.7 0 1.054-.375 1.95-1.13 2.69-.76.74-1.673 1.104-2.744 1.104-.95 0-1.8-.33-2.556-.98-.83-.73-1.247-1.68-1.247-2.86zm1.115.013c0 .81.274 1.48.82 2 .544.52 1.17.78 1.88.78.77 0 1.42-.265 1.95-.8.53-.54.795-1.193.795-1.97 0-.78-.26-1.44-.786-1.97-.52-.53-1.163-.8-1.93-.8s-1.41.27-1.937.8-.79 1.18-.79 1.95zm12.43-2.61h-2.56v1.76h2.47v1.04h-2.47v3.498h-1.11v-7.34h3.66v1.04zm7.94 0v6.3h-1.11v-6.3h-1.69v-1.04h4.48v1.04h-1.69zm4.594 1.83h3.16v-2.874h1.1v7.343H94.6v-3.43h-3.16v3.43h-1.11v-7.35h1.11v2.87zm10.9-1.83H99.4v1.763h2.86v1.04H99.4v2.457h2.945v1.043h-4.05v-7.345h4.052v1.04zm10.24.05l-.9.53c-.17-.29-.33-.482-.48-.57-.16-.102-.367-.153-.617-.153-.31 0-.562.09-.765.26-.206.17-.307.39-.307.65 0 .36.27.647.8.866l.73.3c.6.24 1.037.535 1.31.883.28.346.417.772.417 1.276 0 .677-.228 1.235-.678 1.676-.453.44-1.016.66-1.69.66-.635 0-1.16-.186-1.577-.563-.41-.38-.667-.91-.768-1.6l1.125-.244c.05.43.14.73.265.9.224.32.56.48 1 .48.34 0 .63-.11.86-.34.224-.23.34-.52.34-.88 0-.14-.02-.27-.06-.39-.04-.12-.105-.23-.19-.33s-.19-.19-.323-.28c-.134-.09-.29-.17-.476-.25l-.71-.29c-1-.42-1.504-1.04-1.504-1.86 0-.55.21-1.01.636-1.38.42-.37.948-.56 1.576-.56.85 0 1.51.41 1.986 1.24zm7.76-.7v1.31c-.64-.533-1.3-.8-1.986-.8-.757 0-1.39.27-1.91.813-.52.54-.78 1.2-.78 1.98 0 .77.26 1.42.78 1.95s1.157.79 1.91.79c.39 0 .72-.064.995-.19.15-.065.31-.15.47-.26.17-.11.34-.24.52-.39v1.337c-.63.357-1.3.536-1.99.536-1.05 0-1.94-.36-2.68-1.094-.74-.74-1.11-1.63-1.11-2.673 0-.93.31-1.77.93-2.5.76-.9 1.75-1.35 2.95-1.35.66 0 1.3.18 1.91.54zm4.7 3.82l2.28 3.13h-1.357l-2.1-3.007h-.194v3.007h-1.11v-7.345h1.3c.97 0 1.67.18 2.11.55.48.404.72.94.72 1.61 0 .52-.15.963-.45 1.34-.29.37-.69.61-1.18.72zm-1.374-.843h.35c1.05 0 1.573-.4 1.573-1.2 0-.75-.51-1.13-1.53-1.13h-.39v2.33zm9.62-2.33h-2.947v1.77h2.86v1.04h-2.86v2.452h2.95v1.04h-4.05v-7.35h4.05v1.04zm6.32 0h-2.947v1.77h2.86v1.04h-2.86v2.452h2.95v1.04h-4.05v-7.35h4.05v1.04zm2.27 6.306v-7.844l5.352 5.6v-5.11h1.11v7.79l-5.36-5.59v5.14h-1.11z" id="motto3-DESIGN-FOR-THE-OTHER-Copy-4" fill="#5A89A1"/>
    </g>
  </g>
</svg>
