<svg xmlns="http://www.w3.org/2000/svg" viewBox="0 0 200 200" xmlns:xlink="http://www.w3.org/1999/xlink">
  <defs>
    <ellipse id="path-1" cx="100.17" cy="100.272" rx="99.539" ry="99.603"/>
    <linearGradient id="linearGradient-3" x1="37.585%" x2="37.585%" y1="-6.253%" y2="118.851%">
      <stop stop-color="#80C1E2" offset="0%"/>
      <stop stop-color="#5A89A1" offset="100%"/>
    </linearGradient>
    <linearGradient id="linearGradient-4" x1="37.585%" x2="37.585%" y1="118.851%" y2="-6.253%">
      <stop stop-color="#EDF4F8" offset="0%"/>
      <stop stop-color="#C3CACE" offset="100%"/>
    </linearGradient>
    <linearGradient id="linearGradient-5" x1="37.585%" x2="37.585%" y1="-6.253%" y2="118.851%">
      <stop stop-color="#09DFF3" offset="0%"/>
      <stop stop-color="#44BEFF" offset="100%"/>
    </linearGradient>
    <linearGradient id="linearGradient-6" x1="37.585%" x2="37.585%" y1="118.851%" y2="-6.253%">
      <stop stop-color="#F9BA37" offset="0%"/>
      <stop stop-color="#FFDF68" offset="100%"/>
    </linearGradient>
    <linearGradient id="linearGradient-7" x1="37.585%" x2="37.585%" y1="-6.253%" y2="118.851%">
      <stop stop-color="#09DFF3" offset="0%"/>
      <stop stop-color="#2FEAE9" offset="100%"/>
    </linearGradient>
  </defs>
  <g fill="none" fill-rule="evenodd">
    <g>
      <g transform="translate(0 -.36)">
        <mask id="mask-2" fill="#fff">
          <use xlink:href="#path-1"/>
        </mask>
        <use fill="#EBF5FA" xlink:href="#path-1"/>
        <path fill="#555" d="M.63 173.195h199.08v26.68H.63z" mask="url(#mask-2)"/>
        <g mask="url(#mask-2)">
          <g transform="translate(23.476 85.895)">
            <g transform="translate(27.294)">
              <g transform="translate(0 27.96)">
                <path fill="#FFF" d="M15.135 2.43h14.53V34.04h-14.53z"/>
                <path fill="#000" fill-opacity=".1" d="M22.4 2.43h7.265V34.04H22.4z"/>
                <rect width="18.162" height="2.431" x="13.319" fill="#FFF" rx="40"/>
                <rect width="9.081" height="2.431" x="22.4" fill="#000" fill-opacity=".1" rx="40"/>
                <path fill="#FFF" d="M15.11 34.038h14.58L42.22 49.623c4.416 5.492 2.277 9.943-4.768 9.943H7.344c-7.05 0-9.188-4.446-4.768-9.943L15.11 34.038z"/>
                <path fill="#000" fill-opacity=".1" d="M22.4 34.038h7.29l12.54 15.594c4.412 5.487 2.295 9.934-4.724 9.934H22.4V34.038z"/>
                <path fill="url(#linearGradient-3)" d="M42.468 49.62c4.465 5.486 2.324 9.933-4.78 9.933H7.112c-7.105 0-9.246-4.447-4.78-9.934l5.023-5.87s2.607 2.43 4.033 2.43c1.49 0 3.233-2.5 5.1-2.617 1.708-.107 3.52 2.265 5.335 2.237 1.38-.02 2.76-2.528 4.102-2.64 1.612-.134 3.167 2.27 4.588 2.304 1.69.04 3.192-1.452 4.38-1.793 1.735-.497 2.515 0 2.515 0l5.06 5.95z"/>
                <path fill="#000" fill-opacity=".1" d="M37.688 59.553c7.104 0 9.245-4.447 4.78-9.934l-5.06-5.95s-.78-.497-2.516 0c-1.187.342-2.69 1.833-4.38 1.794-1.42-.034-2.975-2.438-4.587-2.303-1.155.097-2.34 1.967-3.525 2.5v13.893h15.288z"/>
              </g>
              <ellipse cx="16.346" cy="12.156" fill="#FFF" rx="2.422" ry="2.431"/>
              <ellipse cx="26.335" cy="15.499" fill="#FFF" rx="1.513" ry="1.52"/>
              <ellipse cx="21.492" cy="21.578" fill="#FFF" rx="1.513" ry="1.52"/>
              <ellipse cx="23.61" cy="3.647" fill="#FFF" rx="3.632" ry="3.647"/>
            </g>
            <g transform="translate(81.114)">
              <g transform="translate(0 27.96)">
                <path fill="#FFF" d="M15.135 2.43h14.53V34.04h-14.53z"/>
                <path fill="#000" fill-opacity=".1" d="M22.4 2.43h7.265V34.04H22.4z"/>
                <rect width="18.162" height="2.431" x="13.319" fill="#FFF" rx="40"/>
                <rect width="9.081" height="2.431" x="22.4" fill="#000" fill-opacity=".1" rx="40"/>
                <path fill="#FFF" d="M15.11 34.038h14.58L42.22 49.623c4.416 5.492 2.277 9.943-4.768 9.943H7.344c-7.05 0-9.188-4.446-4.768-9.943L15.11 34.038z"/>
                <path fill="#000" fill-opacity=".1" d="M22.4 34.038h7.29l12.54 15.594c4.412 5.487 2.295 9.934-4.724 9.934H22.4V34.038z"/>
                <path fill="url(#linearGradient-4)" d="M42.468 49.62c4.465 5.486 2.324 9.933-4.78 9.933H7.112c-7.105 0-9.246-4.447-4.78-9.934l5.023-5.87s2.607 2.43 4.033 2.43c1.49 0 3.233-2.5 5.1-2.617 1.708-.107 3.52 2.265 5.335 2.237 1.38-.02 2.76-2.528 4.102-2.64 1.612-.134 3.167 2.27 4.588 2.304 1.69.04 3.192-1.452 4.38-1.793 1.735-.497 2.515 0 2.515 0l5.06 5.95z"/>
                <path fill="#000" fill-opacity=".1" d="M37.688 59.553c7.104 0 9.245-4.447 4.78-9.934l-5.06-5.95s-.78-.497-2.516 0c-1.187.342-2.69 1.833-4.38 1.794-1.42-.034-2.975-2.438-4.587-2.303-1.155.097-2.34 1.967-3.525 2.5v13.893h15.288z"/>
              </g>
              <ellipse cx="16.346" cy="12.156" fill="#FFF" rx="2.422" ry="2.431"/>
              <ellipse cx="26.335" cy="15.499" fill="#FFF" rx="1.513" ry="1.52"/>
              <ellipse cx="21.492" cy="21.578" fill="#FFF" rx="1.513" ry="1.52"/>
              <ellipse cx="23.61" cy="3.647" fill="#FFF" rx="3.632" ry="3.647"/>
            </g>
            <g transform="translate(0 27.96)">
              <path fill="#FFF" d="M15.135 2.43h14.53V34.04h-14.53z"/>
              <path fill="#000" fill-opacity=".1" d="M22.4 2.43h7.265V34.04H22.4z"/>
              <rect width="18.162" height="2.431" x="13.319" fill="#FFF" rx="40"/>
              <rect width="9.081" height="2.431" x="22.4" fill="#000" fill-opacity=".1" rx="40"/>
              <path fill="#FFF" d="M15.11 34.038h14.58L42.22 49.623c4.416 5.492 2.277 9.943-4.768 9.943H7.344c-7.05 0-9.188-4.446-4.768-9.943L15.11 34.038z"/>
              <path fill="#000" fill-opacity=".1" d="M22.4 34.038h7.29l12.54 15.594c4.412 5.487 2.295 9.934-4.724 9.934H22.4V34.038z"/>
              <path fill="url(#linearGradient-5)" d="M42.468 49.62c4.465 5.486 2.324 9.933-4.78 9.933H7.112c-7.105 0-9.246-4.447-4.78-9.934l5.023-5.87s2.607 2.43 4.033 2.43c1.49 0 3.233-2.5 5.1-2.617 1.708-.107 3.52 2.265 5.335 2.237 1.38-.02 2.76-2.528 4.102-2.64 1.612-.134 3.167 2.27 4.588 2.304 1.69.04 3.192-1.452 4.38-1.793 1.735-.497 2.515 0 2.515 0l5.06 5.95z"/>
              <path fill="#000" fill-opacity=".1" d="M37.688 59.553c7.104 0 9.245-4.447 4.78-9.934l-5.06-5.95s-.78-.497-2.516 0c-1.187.342-2.69 1.833-4.38 1.794-1.42-.034-2.975-2.438-4.587-2.303-1.155.097-2.34 1.967-3.525 2.5v13.893h15.288z"/>
            </g>
            <ellipse cx="16.346" cy="12.156" fill="#FFF" rx="2.422" ry="2.431"/>
            <ellipse cx="26.335" cy="15.499" fill="#FFF" rx="1.513" ry="1.52"/>
            <ellipse cx="21.492" cy="21.578" fill="#FFF" rx="1.513" ry="1.52"/>
            <ellipse cx="23.61" cy="3.647" fill="#FFF" rx="3.632" ry="3.647"/>
            <g transform="translate(54.486 27.96)">
              <path fill="#FFF" d="M15.135 2.43h14.53V34.04h-14.53z"/>
              <path fill="#000" fill-opacity=".1" d="M22.4 2.43h7.265V34.04H22.4z"/>
              <rect width="18.162" height="2.431" x="13.319" fill="#FFF" rx="40"/>
              <rect width="9.081" height="2.431" x="22.4" fill="#000" fill-opacity=".1" rx="40"/>
              <path fill="#FFF" d="M15.11 34.038h14.58L42.22 49.623c4.416 5.492 2.277 9.943-4.768 9.943H7.344c-7.05 0-9.188-4.446-4.768-9.943L15.11 34.038z"/>
              <path fill="#000" fill-opacity=".1" d="M22.4 34.038h7.29l12.54 15.594c4.412 5.487 2.295 9.934-4.724 9.934H22.4V34.038z"/>
              <path fill="url(#linearGradient-6)" d="M42.468 49.62c4.465 5.486 2.324 9.933-4.78 9.933H7.112c-7.105 0-9.246-4.447-4.78-9.934l5.023-5.87s2.607 2.43 4.033 2.43c1.49 0 3.233-2.5 5.1-2.617 1.708-.107 3.52 2.265 5.335 2.237 1.38-.02 2.76-2.528 4.102-2.64 1.612-.134 3.167 2.27 4.588 2.304 1.69.04 3.192-1.452 4.38-1.793 1.735-.497 2.515 0 2.515 0l5.06 5.95z"/>
              <path fill="#000" fill-opacity=".1" d="M37.688 59.553c7.104 0 9.245-4.447 4.78-9.934l-5.06-5.95s-.78-.497-2.516 0c-1.187.342-2.69 1.833-4.38 1.794-1.42-.034-2.975-2.438-4.587-2.303-1.155.097-2.34 1.967-3.525 2.5v13.893h15.288z"/>
            </g>
            <ellipse cx="70.831" cy="12.156" fill="#FFF" rx="2.422" ry="2.431"/>
            <ellipse cx="80.821" cy="15.499" fill="#FFF" rx="1.513" ry="1.52"/>
            <ellipse cx="75.977" cy="21.578" fill="#FFF" rx="1.513" ry="1.52"/>
            <ellipse cx="78.096" cy="3.647" fill="#FFF" rx="3.632" ry="3.647"/>
            <g transform="translate(108.366 27.96)">
              <path fill="#FFF" d="M15.135 2.43h14.53V34.04h-14.53z"/>
              <path fill="#000" fill-opacity=".1" d="M22.4 2.43h7.265V34.04H22.4z"/>
              <rect width="18.162" height="2.431" x="13.319" fill="#FFF" rx="40"/>
              <rect width="9.081" height="2.431" x="22.4" fill="#000" fill-opacity=".1" rx="40"/>
              <path fill="#FFF" d="M15.11 34.038h14.58L42.22 49.623c4.416 5.492 2.277 9.943-4.768 9.943H7.344c-7.05 0-9.188-4.446-4.768-9.943L15.11 34.038z"/>
              <path fill="#000" fill-opacity=".1" d="M22.4 34.038h7.29l12.54 15.594c4.412 5.487 2.295 9.934-4.724 9.934H22.4V34.038z"/>
              <path fill="url(#linearGradient-7)" d="M42.468 49.62c4.465 5.486 2.324 9.933-4.78 9.933H7.112c-7.105 0-9.246-4.447-4.78-9.934l5.023-5.87s2.607 2.43 4.033 2.43c1.49 0 3.233-2.5 5.1-2.617 1.708-.107 3.52 2.265 5.335 2.237 1.38-.02 2.76-2.528 4.102-2.64 1.612-.134 3.167 2.27 4.588 2.304 1.69.04 3.192-1.452 4.38-1.793 1.735-.497 2.515 0 2.515 0l5.06 5.95z"/>
              <path fill="#000" fill-opacity=".1" d="M37.688 59.553c7.104 0 9.245-4.447 4.78-9.934l-5.06-5.95s-.78-.497-2.516 0c-1.187.342-2.69 1.833-4.38 1.794-1.42-.034-2.975-2.438-4.587-2.303-1.155.097-2.34 1.967-3.525 2.5v13.893h15.288z"/>
            </g>
            <ellipse cx="124.712" cy="12.156" fill="#FFF" rx="2.422" ry="2.431"/>
            <ellipse cx="134.701" cy="15.499" fill="#FFF" rx="1.513" ry="1.52"/>
            <ellipse cx="129.858" cy="21.578" fill="#FFF" rx="1.513" ry="1.52"/>
            <ellipse cx="131.977" cy="3.647" fill="#FFF" rx="3.632" ry="3.647"/>
          </g>
        </g>
      </g>
    </g>
  </g>
</svg>
