<svg xmlns="http://www.w3.org/2000/svg" viewBox="0 0 200 200" xmlns:xlink="http://www.w3.org/1999/xlink">
  <defs>
    <ellipse id="path-1" cx="100.17" cy="99.91" rx="99.54" ry="99.6"/>
    <linearGradient id="linearGradient-3" x1="37.58%" x2="37.58%" y1="-6.25%" y2="118.85%">
      <stop stop-color="#80C1E2" offset="0%"/>
      <stop stop-color="#5A89A1" offset="100%"/>
    </linearGradient>
    <linearGradient id="linearGradient-4" x1="37.58%" x2="37.58%" y1="118.85%" y2="-6.25%">
      <stop stop-color="#EDF4F8" offset="0%"/>
      <stop stop-color="#C3CACE" offset="100%"/>
    </linearGradient>
    <linearGradient id="linearGradient-5" x1="37.58%" x2="37.58%" y1="-6.25%" y2="118.85%">
      <stop stop-color="#09DFF3" offset="0%"/>
      <stop stop-color="#44BEFF" offset="100%"/>
    </linearGradient>
    <linearGradient id="linearGradient-6" x1="37.58%" x2="37.58%" y1="118.85%" y2="-6.25%">
      <stop stop-color="#F9BA37" offset="0%"/>
      <stop stop-color="#FFDF68" offset="100%"/>
    </linearGradient>
    <linearGradient id="linearGradient-7" x1="37.58%" x2="37.58%" y1="-6.25%" y2="118.85%">
      <stop stop-color="#09DFF3" offset="0%"/>
      <stop stop-color="#2FEAE9" offset="100%"/>
    </linearGradient>
  </defs>
  <g fill="none" fill-rule="evenodd">
    <g>
      <g>
        <mask id="mask-2" fill="#fff">
          <use xlink:href="#path-1"/>
        </mask>
        <use fill="#EBF5FA" xlink:href="#path-1"/>
        <path fill="#555" d="M.63 172.84H199.7v26.68H.64z" mask="url(#mask-2)"/>
        <g mask="url(#mask-2)">
          <g transform="translate(23 85)">
            <g>
              <path fill="#FFF" d="M42.9 30.92h14.54v31.6H42.9z"/>
              <path fill="#000" fill-opacity=".05" d="M50.17 30.92h7.26v31.6h-7.26z"/>
              <path fill="#FFF" d="M41.1 29.7c0-.66.53-1.2 1.2-1.2h15.73c.68 0 1.22.53 1.22 1.2 0 .68-.54 1.23-1.22 1.23H42.3c-.66 0-1.2-.54-1.2-1.22z"/>
              <path fill="#000" fill-opacity=".05" d="M50.17 28.5h7.86c.67 0 1.22.53 1.22 1.2 0 .68-.54 1.23-1.22 1.23h-7.86V28.5z"/>
              <path fill="#FFF" d="M42.88 62.53h14.58L70 78.13c4.4 5.48 2.27 9.93-4.78 9.93h-30.1c-7.05 0-9.2-4.45-4.77-9.94l12.53-15.6z"/>
              <path fill="#000" fill-opacity=".05" d="M50.17 62.53h7.3L70 78.13c4.4 5.48 2.3 9.93-4.72 9.93h-15.1V62.53z"/>
              <path fill="url(#linearGradient-3)" d="M42.47 49.62c4.46 5.5 2.32 9.93-4.78 9.93H7.1c-7.1 0-9.23-4.44-4.77-9.93l5.03-5.87s2.6 2.43 4.03 2.43c1.48 0 3.22-2.5 5.1-2.62 1.7-.1 3.5 2.27 5.32 2.24 1.38-.02 2.76-2.53 4.1-2.64 1.62-.13 3.17 2.27 4.6 2.3 1.68.04 3.18-1.45 4.37-1.8 1.73-.5 2.5 0 2.5 0l5.07 5.96z" transform="translate(27.771 28.495)"/>
              <path fill="#000" fill-opacity=".1" d="M65.46 88.05c7.1 0 9.24-4.45 4.78-9.94l-5.06-5.93s-.78-.5-2.52 0c-1.18.34-2.7 1.83-4.38 1.8-1.42-.04-2.97-2.45-4.58-2.3-1.16.08-2.34 1.95-3.53 2.5v13.88h15.3z"/>
            </g>
            <ellipse cx="44.12" cy="12.69" fill="#FFF" rx="2.42" ry="2.43"/>
            <ellipse cx="54.11" cy="16.03" fill="#FFF" rx="1.51" ry="1.52"/>
            <ellipse cx="49.26" cy="22.11" fill="#FFF" rx="1.51" ry="1.52"/>
            <ellipse cx="51.38" cy="4.18" fill="#FFF" rx="3.63" ry="3.65"/>
            <g>
              <path fill="#FFF" d="M96.73 30.92h14.53v31.6H96.73z"/>
              <path fill="#000" fill-opacity=".05" d="M104 30.92h7.25v31.6H104z"/>
              <path fill="#FFF" d="M96.13 28.5h15.72c.68 0 1.22.53 1.22 1.2 0 .68-.54 1.23-1.22 1.23H96.13c-.67 0-1.22-.54-1.22-1.22 0-.66.55-1.2 1.23-1.2z"/>
              <path fill="#000" fill-opacity=".05" d="M104 28.5h7.85c.67 0 1.22.53 1.22 1.2 0 .68-.54 1.23-1.22 1.23H104V28.5z"/>
              <path fill="#FFF" d="M96.7 62.53h14.58l12.53 15.6c4.43 5.48 2.3 9.93-4.76 9.93h-30.1c-7.05 0-9.2-4.45-4.77-9.94l12.53-15.6z"/>
              <path fill="#000" fill-opacity=".05" d="M104 62.53h7.28l12.54 15.6c4.4 5.48 2.3 9.93-4.72 9.93H104V62.53z"/>
              <path fill="url(#linearGradient-4)" d="M42.47 49.62c4.46 5.5 2.32 9.93-4.78 9.93H7.1c-7.1 0-9.23-4.44-4.77-9.93l5.03-5.87s2.6 2.43 4.03 2.43c1.48 0 3.22-2.5 5.1-2.62 1.7-.1 3.5 2.27 5.32 2.24 1.38-.02 2.76-2.53 4.1-2.64 1.62-.13 3.17 2.27 4.6 2.3 1.68.04 3.18-1.45 4.37-1.8 1.73-.5 2.5 0 2.5 0l5.07 5.96z" transform="translate(81.591 28.495)"/>
              <path fill="#000" fill-opacity=".1" d="M119.28 88.05c7.1 0 9.24-4.45 4.78-9.94L119 72.18s-.78-.5-2.52 0c-1.18.34-2.7 1.83-4.38 1.8-1.42-.04-2.97-2.45-4.58-2.3-1.16.08-2.34 1.95-3.53 2.5v13.88h15.28z"/>
            </g>
            <ellipse cx="97.94" cy="12.69" fill="#FFF" rx="2.42" ry="2.43"/>
            <ellipse cx="107.93" cy="16.03" fill="#FFF" rx="1.51" ry="1.52"/>
            <ellipse cx="103.08" cy="22.11" fill="#FFF" rx="1.51" ry="1.52"/>
            <ellipse cx="105.2" cy="4.18" fill="#FFF" rx="3.63" ry="3.65"/>
            <path fill="#FFF" d="M15.6 30.93h14.54v31.6H15.6z"/>
            <path fill="#000" fill-opacity=".05" d="M22.88 30.93h7.26v31.6h-7.26z"/>
            <path fill="#FFF" d="M15.02 28.5h15.72c.67 0 1.22.53 1.22 1.2 0 .68-.55 1.23-1.22 1.23H15.02c-.68 0-1.22-.54-1.22-1.22 0-.66.54-1.2 1.22-1.2z"/>
            <path fill="#000" fill-opacity=".05" d="M22.88 28.5h7.85c.68 0 1.23.53 1.23 1.2 0 .68-.54 1.23-1.23 1.23h-7.85V28.5z"/>
            <path fill="#FFF" d="M15.6 62.53h14.57l12.53 15.6c4.4 5.48 2.28 9.93-4.77 9.93H7.83c-7.06 0-9.2-4.45-4.78-9.94l12.54-15.6z"/>
            <path fill="#000" fill-opacity=".05" d="M22.88 62.53h7.3l12.53 15.6c4.42 5.48 2.3 9.93-4.72 9.93h-15.1V62.53z"/>
            <path fill="url(#linearGradient-5)" d="M42.94 78.1c4.47 5.5 2.33 9.95-4.78 9.95H7.6c-7.12 0-9.26-4.45-4.8-9.94l5.03-5.86s2.6 2.44 4.03 2.44c1.5 0 3.24-2.5 5.1-2.62 1.7-.1 3.52 2.26 5.34 2.23 1.38-.03 2.76-2.53 4.1-2.64 1.6-.14 3.17 2.26 4.6 2.3 1.68.04 3.18-1.45 4.37-1.8 1.73-.5 2.5 0 2.5 0l5.07 5.95z"/>
            <path fill="#000" fill-opacity=".1" d="M38.16 88.05c7.1 0 9.25-4.45 4.78-9.94l-5.06-5.93s-.78-.5-2.5 0c-1.2.34-2.7 1.83-4.4 1.8-1.4-.05-2.97-2.45-4.58-2.3-1.15.08-2.34 1.95-3.52 2.48v13.9h15.28z"/>
            <ellipse cx="16.82" cy="12.69" fill="#FFF" rx="2.42" ry="2.43"/>
            <ellipse cx="26.81" cy="16.03" fill="#FFF" rx="1.51" ry="1.52"/>
            <ellipse cx="21.97" cy="22.11" fill="#FFF" rx="1.51" ry="1.52"/>
            <ellipse cx="24.09" cy="4.18" fill="#FFF" rx="3.63" ry="3.65"/>
            <path fill="#FFF" d="M70.1 30.93h14.53v31.6H70.1z"/>
            <path fill="#000" fill-opacity=".05" d="M77.36 30.93h7.26v31.6h-7.26z"/>
            <path fill="#FFF" d="M68.28 29.7c0-.66.54-1.2 1.22-1.2h15.72c.68 0 1.22.53 1.22 1.2 0 .68-.54 1.23-1.22 1.23H69.5c-.67 0-1.22-.54-1.22-1.22z"/>
            <path fill="#000" fill-opacity=".05" d="M77.36 28.5h7.86c.67 0 1.22.53 1.22 1.2 0 .68-.54 1.23-1.22 1.23h-7.86V28.5z"/>
            <path fill="#FFF" d="M70.07 62.53h14.58l12.53 15.6c4.42 5.48 2.28 9.93-4.76 9.93h-30.1c-7.06 0-9.2-4.45-4.78-9.94l12.53-15.6z"/>
            <path fill="#000" fill-opacity=".05" d="M77.36 62.53h7.3l12.53 15.6c4.4 5.48 2.3 9.93-4.73 9.93h-15.1V62.53z"/>
            <path fill="url(#linearGradient-6)" d="M97.43 78.1c4.47 5.5 2.32 9.95-4.78 9.95H62.07c-7.1 0-9.24-4.45-4.78-9.94l5.02-5.86s2.6 2.44 4.03 2.44c1.5 0 3.23-2.5 5.1-2.62 1.7-.1 3.52 2.26 5.34 2.23 1.36-.03 2.75-2.53 4.1-2.64 1.6-.14 3.15 2.26 4.58 2.3 1.7.04 3.2-1.45 4.37-1.8 1.74-.5 2.52 0 2.52 0l5.06 5.95z"/>
            <path fill="#000" fill-opacity=".1" d="M92.65 88.05c7.1 0 9.25-4.45 4.78-9.94l-5.06-5.93s-.78-.5-2.52 0c-1.18.34-2.68 1.83-4.37 1.8-1.43-.05-2.98-2.45-4.6-2.3-1.15.08-2.33 1.95-3.52 2.48v13.9h15.3z"/>
            <ellipse cx="71.31" cy="12.69" fill="#FFF" rx="2.42" ry="2.43"/>
            <ellipse cx="81.3" cy="16.03" fill="#FFF" rx="1.51" ry="1.52"/>
            <ellipse cx="76.45" cy="22.11" fill="#FFF" rx="1.51" ry="1.52"/>
            <ellipse cx="78.57" cy="4.18" fill="#FFF" rx="3.63" ry="3.65"/>
            <path fill="#FFF" d="M123.98 30.93h14.53v31.6H124z"/>
            <path fill="#000" fill-opacity=".05" d="M131.24 30.93h7.26v31.6h-7.26z"/>
            <path fill="#FFF" d="M122.16 29.7c0-.66.54-1.2 1.22-1.2h15.72c.68 0 1.22.53 1.22 1.2 0 .68-.54 1.23-1.22 1.23h-15.72c-.67 0-1.22-.54-1.22-1.22z"/>
            <path fill="#000" fill-opacity=".05" d="M131.24 28.5h7.86c.67 0 1.22.53 1.22 1.2 0 .68-.54 1.23-1.22 1.23h-7.86V28.5z"/>
            <path fill="#FFF" d="M123.95 62.53h14.58l12.53 15.6c4.42 5.48 2.28 9.93-4.76 9.93h-30.1c-7.06 0-9.2-4.45-4.78-9.94l12.53-15.6z"/>
            <path fill="#000" fill-opacity=".05" d="M131.24 62.53h7.3l12.53 15.6c4.4 5.48 2.3 9.93-4.72 9.93h-15.1V62.53z"/>
            <path fill="url(#linearGradient-7)" d="M151.3 78.1c4.48 5.5 2.33 9.95-4.77 9.95h-30.58c-7.1 0-9.24-4.45-4.78-9.94l5.03-5.86s2.6 2.44 4.03 2.44c1.5 0 3.23-2.5 5.1-2.62 1.7-.1 3.52 2.26 5.34 2.23 1.37-.03 2.76-2.53 4.1-2.64 1.6-.14 3.16 2.26 4.6 2.3 1.68.04 3.18-1.45 4.36-1.8 1.74-.5 2.52 0 2.52 0l5.06 5.95z"/>
            <path fill="#000" fill-opacity=".1" d="M146.53 88.05c7.1 0 9.25-4.45 4.78-9.94l-5.05-5.93s-.78-.5-2.52 0c-1.18.34-2.68 1.83-4.37 1.8-1.43-.05-2.98-2.45-4.6-2.3-1.15.08-2.33 1.95-3.52 2.48v13.9h15.3z"/>
            <ellipse cx="125.19" cy="12.69" fill="#FFF" rx="2.42" ry="2.43"/>
            <ellipse cx="135.18" cy="16.03" fill="#FFF" rx="1.51" ry="1.52"/>
            <ellipse cx="130.33" cy="22.11" fill="#FFF" rx="1.51" ry="1.52"/>
            <ellipse cx="132.45" cy="4.18" fill="#FFF" rx="3.63" ry="3.65"/>
            <path fill="#000" fill-opacity=".05" d="M15.6 30.93h14.54v1H15.6zM42.9 30.93h14.54v1H42.9zM70.1 30.93h14.53v1H70.1zM96.73 30.93h14.53v1H96.73zM123.98 30.93h14.53v1H124z"/>
          </g>
        </g>
      </g>
    </g>
  </g>
</svg>
