<svg xmlns="http://www.w3.org/2000/svg" viewBox="0 0 200 199" xmlns:xlink="http://www.w3.org/1999/xlink">
  <defs>
    <ellipse id="path-1" cx="99.539" cy="99.935" rx="99.539" ry="99.206"/>
  </defs>
  <g fill="none" fill-rule="evenodd">
    <g transform="translate(.272 -.497)">
      <mask id="mask-2" fill="#fff">
        <use xlink:href="#path-1"/>
      </mask>
      <use fill="#EBF5FA" xlink:href="#path-1"/>
      <g mask="url(#mask-2)">
        <path fill="#FFF" stroke="#F9BA37" stroke-width="4" d="M-4.13 28.532h207.45V132.26H-4.13z"/>
        <path fill="#5A89A1" d="M68.996 120.815h-3.404v-.39c.36-.144.726-.25 1.103-.323v-7.98c-.42-.063-.79-.175-1.103-.336v-.39h3.404v.39c-.152.08-.314.148-.484.202-.17.053-.346.098-.525.134v3.512h4.225v-3.512c-.188-.045-.365-.094-.53-.148-.167-.054-.326-.117-.48-.188v-.39h3.405v.39c-.16.09-.338.16-.53.208-.194.05-.385.092-.573.128v7.98c.206.036.404.08.592.134.188.054.36.117.51.19v.39h-3.403v-.39c.323-.145.66-.252 1.01-.324v-3.768h-4.226v3.768c.18.036.354.08.525.134.17.054.332.117.484.19v.39zM93.666 120.815H90.26v-.39c.36-.144.728-.25 1.105-.323v-7.98c-.422-.063-.79-.175-1.104-.336v-.39h3.406v.39c-.153.08-.314.148-.485.202-.17.053-.344.098-.523.134v3.512h4.225v-3.512c-.188-.045-.366-.094-.532-.148-.166-.054-.325-.117-.477-.188v-.39h3.404v.39c-.16.09-.34.16-.53.208-.194.05-.385.092-.573.128v7.98c.206.036.403.08.592.134.188.054.36.117.51.19v.39h-3.403v-.39c.323-.145.66-.252 1.01-.324v-3.768h-4.226v3.768c.18.036.354.08.524.134.172.054.333.117.486.19v.39zM85.816 72.035h-3.404v-.39c.36-.144.727-.25 1.103-.323v-7.98c-.42-.063-.79-.175-1.103-.336v-.39h3.404v.39c-.152.08-.314.148-.484.202-.17.054-.345.098-.525.134v3.512h4.225v-3.512c-.188-.045-.365-.094-.53-.148-.167-.054-.326-.116-.48-.188v-.39h3.406v.39c-.162.09-.34.16-.532.208-.193.05-.383.092-.572.128v7.98c.207.036.404.08.592.135.19.053.36.116.512.188v.39h-3.405v-.39c.323-.144.66-.25 1.01-.323v-3.768h-4.226v3.768c.18.036.355.08.525.135.17.053.332.116.484.188v.39zM27.41 84.882c0-.7.096-1.348.29-1.945.192-.596.47-1.112.833-1.547.364-.435.81-.774 1.34-1.016s1.13-.364 1.802-.364c.673 0 1.274.122 1.804.364.528.242.974.58 1.337 1.016.364.435.642.95.835 1.547.193.597.29 1.245.29 1.945s-.097 1.348-.29 1.944c-.193.597-.47 1.113-.835 1.548-.363.435-.81.773-1.338 1.016-.53.242-1.132.363-1.805.363-.672 0-1.273-.12-1.803-.363s-.975-.58-1.34-1.016c-.362-.435-.64-.95-.833-1.548-.194-.596-.29-1.245-.29-1.944zm1.44 0c0 .574.06 1.114.18 1.62.122.508.304.95.546 1.327.243.375.548.674.915.893.37.22.804.33 1.307.33.457 0 .856-.11 1.197-.33.34-.22.62-.518.84-.894.22-.378.387-.82.5-1.327.11-.507.167-1.047.167-1.62 0-.575-.057-1.116-.174-1.623-.116-.507-.296-.95-.538-1.325-.242-.377-.547-.675-.915-.895-.368-.22-.803-.33-1.305-.33-.494 0-.913.11-1.258.33-.346.22-.626.518-.84.895-.217.376-.374.818-.472 1.325-.1.507-.148 1.048-.148 1.622zM44.412 116.105c0-.7.096-1.348.29-1.944.192-.596.47-1.112.833-1.547.364-.435.81-.774 1.34-1.016s1.13-.363 1.802-.363c.673 0 1.274.12 1.803.363.53.242.976.58 1.34 1.016.363.435.64.95.834 1.548.193.597.29 1.245.29 1.945s-.097 1.348-.29 1.945c-.193.596-.47 1.112-.835 1.547-.364.435-.81.774-1.34 1.016s-1.13.363-1.803.363c-.672 0-1.273-.12-1.803-.363-.53-.242-.975-.58-1.34-1.016-.362-.435-.64-.95-.833-1.547-.192-.597-.288-1.245-.288-1.945zm1.44 0c0 .574.06 1.115.18 1.622.122.507.304.948.546 1.325.242.377.547.675.915.895.368.22.803.33 1.305.33.458 0 .857-.11 1.198-.33.34-.22.62-.518.84-.895.22-.377.387-.818.5-1.325.11-.507.167-1.048.167-1.622 0-.574-.058-1.114-.175-1.62-.116-.508-.296-.95-.538-1.327-.242-.377-.547-.675-.915-.895-.368-.22-.803-.33-1.305-.33-.494 0-.913.11-1.258.33-.346.22-.626.518-.84.895-.217.377-.374.82-.472 1.326-.1.507-.148 1.047-.148 1.62z"/>
        <path stroke="#5A89A1" d="M47.45 104.786v4.486" stroke-linecap="square"/>
        <path fill="#5A89A1" d="M50.36 93.404h2.906v.39c-.377.252-.745.43-1.103.54v8.65h-.767l-4.885-7.413-.524-1.05h-.04l.12 1.05v6.392c.37.1.714.256 1.037.47v.392h-2.907v-.39c.162-.1.335-.187.52-.263.182-.075.378-.145.584-.208v-7.71c-.18-.072-.357-.148-.532-.23-.175-.08-.338-.16-.49-.24v-.378h2.273l4.24 6.392.62 1.157h.053l-.067-1.157v-5.463c-.19-.08-.37-.166-.545-.256-.174-.09-.338-.184-.49-.283v-.39z"/>
        <path stroke="#5A89A1" d="M37.358 89.087l4.486 2.803M71.56 89.087l4.485 2.803M106.32 89.087l4.487 2.803" stroke-linecap="square"/>
        <path fill="#5A89A1" d="M61.05 84.882c0-.7.097-1.348.29-1.945.193-.596.47-1.112.834-1.547.363-.435.81-.774 1.34-1.016.528-.242 1.13-.364 1.802-.364.673 0 1.274.122 1.803.364.528.242.975.58 1.338 1.016.363.435.64.95.834 1.547.193.597.29 1.245.29 1.945s-.097 1.348-.29 1.944c-.193.597-.47 1.113-.834 1.548-.363.435-.81.773-1.34 1.016-.528.242-1.13.363-1.802.363-.673 0-1.274-.12-1.803-.363-.53-.243-.976-.58-1.34-1.016-.362-.435-.64-.95-.833-1.548-.193-.596-.29-1.245-.29-1.944zm1.44 0c0 .574.06 1.114.182 1.62.12.508.303.95.545 1.327.242.375.547.674.915.893.368.22.803.33 1.305.33.458 0 .857-.11 1.198-.33.34-.22.62-.518.84-.894.22-.378.386-.82.5-1.327.11-.507.167-1.047.167-1.62 0-.575-.06-1.116-.175-1.623-.117-.507-.296-.95-.538-1.325-.244-.377-.55-.675-.916-.895-.368-.22-.803-.33-1.306-.33-.493 0-.912.11-1.258.33-.345.22-.626.518-.84.895-.216.376-.373.818-.472 1.325-.1.507-.148 1.048-.148 1.622zM139.545 67.5c0-.7.096-1.348.29-1.944.192-.597.47-1.113.833-1.548.364-.435.81-.773 1.34-1.016.528-.242 1.13-.363 1.802-.363.673 0 1.274.12 1.803.362.53.243.976.58 1.34 1.016.363.435.64.95.834 1.548.193.596.29 1.245.29 1.944 0 .7-.097 1.348-.29 1.945-.193.596-.47 1.112-.835 1.547-.363.435-.81.774-1.34 1.016-.528.242-1.13.364-1.802.364-.672 0-1.274-.122-1.803-.364-.53-.242-.975-.58-1.34-1.016-.362-.435-.64-.95-.833-1.547-.193-.597-.29-1.245-.29-1.945zm1.44 0c0 .574.06 1.115.18 1.622.122.507.304.95.546 1.325.243.377.548.675.916.895.368.22.803.33 1.305.33.46 0 .858-.11 1.2-.33.34-.22.62-.518.84-.895.22-.376.386-.818.498-1.325.112-.507.168-1.048.168-1.622 0-.574-.058-1.114-.175-1.62-.115-.508-.295-.95-.537-1.327-.242-.376-.547-.675-.915-.894-.368-.22-.803-.33-1.305-.33-.494 0-.913.11-1.258.33-.346.218-.626.517-.84.893-.217.377-.374.82-.472 1.326-.1.506-.148 1.046-.148 1.62zM107.026 67.5c0-.7.096-1.348.29-1.944.192-.597.47-1.113.833-1.548.363-.435.81-.773 1.338-1.016.53-.242 1.13-.363 1.803-.363.674 0 1.275.12 1.804.362.53.243.976.58 1.34 1.016.363.435.64.95.834 1.548.192.596.29 1.245.29 1.944 0 .7-.098 1.348-.29 1.945-.193.596-.47 1.112-.835 1.547-.363.435-.81.774-1.34 1.016-.528.242-1.13.364-1.802.364-.672 0-1.273-.122-1.802-.364-.53-.242-.975-.58-1.34-1.016-.362-.435-.64-.95-.833-1.547-.193-.597-.29-1.245-.29-1.945zm1.44 0c0 .574.06 1.115.18 1.622.122.507.304.95.546 1.325.242.377.547.675.915.895.368.22.803.33 1.305.33.458 0 .857-.11 1.198-.33.34-.22.62-.518.84-.895.22-.376.387-.818.5-1.325.11-.507.167-1.048.167-1.622 0-.574-.058-1.114-.175-1.62-.117-.508-.296-.95-.538-1.327-.242-.376-.547-.675-.915-.894-.37-.22-.804-.33-1.306-.33-.494 0-.913.11-1.26.33-.344.218-.624.517-.84.893-.215.377-.372.82-.47 1.326-.1.506-.15 1.046-.15 1.62z"/>
        <path stroke="#5A89A1" d="M59.786 89.087L55.3 91.89M138.84 89.087l4.486 2.803" stroke-linecap="square"/>
        <path fill="#5A89A1" d="M128.33 84.882c0-.7.098-1.348.29-1.945.193-.596.472-1.112.835-1.547.363-.435.81-.774 1.34-1.016.528-.242 1.13-.364 1.802-.364.673 0 1.274.122 1.803.364.53.242.976.58 1.34 1.016.362.435.64.95.833 1.547.193.597.29 1.245.29 1.945s-.097 1.348-.29 1.944c-.193.597-.47 1.113-.834 1.548-.364.435-.81.773-1.34 1.016-.53.242-1.13.363-1.803.363s-1.274-.12-1.803-.363c-.53-.243-.976-.58-1.34-1.016-.362-.435-.64-.95-.833-1.548-.192-.596-.29-1.245-.29-1.944zm1.44 0c0 .574.062 1.114.183 1.62.12.508.302.95.545 1.327.242.375.547.674.915.893.368.22.803.33 1.305.33.457 0 .857-.11 1.198-.33.34-.22.62-.518.84-.894.22-.378.386-.82.498-1.327.113-.507.17-1.047.17-1.62 0-.575-.06-1.116-.176-1.623-.117-.507-.296-.95-.54-1.325-.24-.377-.546-.675-.914-.895-.367-.22-.802-.33-1.305-.33-.494 0-.914.11-1.26.33-.344.22-.625.518-.84.895-.215.376-.372.818-.47 1.325-.1.507-.15 1.048-.15 1.622zM162.532 84.882c0-.7.097-1.348.29-1.945.193-.596.47-1.112.834-1.547.363-.435.81-.774 1.34-1.016.528-.242 1.13-.364 1.802-.364.673 0 1.274.122 1.803.364.53.242.977.58 1.34 1.016.363.435.64.95.834 1.547.193.597.29 1.245.29 1.945s-.097 1.348-.29 1.944c-.193.597-.47 1.113-.834 1.548-.363.435-.81.773-1.34 1.016-.528.242-1.13.363-1.802.363-.673 0-1.274-.12-1.803-.363-.53-.243-.976-.58-1.34-1.016-.362-.435-.64-.95-.833-1.548-.193-.596-.29-1.245-.29-1.944zm1.44 0c0 .574.06 1.114.182 1.62.12.508.303.95.545 1.327.24.375.546.674.914.893.368.22.803.33 1.305.33.457 0 .856-.11 1.197-.33.34-.22.62-.518.84-.894.22-.378.386-.82.5-1.327.11-.507.167-1.047.167-1.62 0-.575-.06-1.116-.175-1.623-.118-.507-.297-.95-.54-1.325-.242-.377-.547-.675-.914-.895-.368-.22-.803-.33-1.306-.33-.493 0-.912.11-1.258.33-.345.22-.626.518-.84.895-.216.376-.373.818-.472 1.325-.098.507-.148 1.048-.148 1.622z"/>
        <path stroke="#5A89A1" d="M127.067 89.087l-4.485 2.803M121.46 59.93l-4.486 2.805M133.794 59.93l4.486 2.805M93.425 89.087L88.94 91.89M77.165 103.104l-3.205 5.048M106.882 73.948l-3.206 5.05M86.856 103.104l3.206 5.048" stroke-linecap="square"/>
        <path fill="#5A89A1" d="M105.44 120.815h-3.404v-.39c.358-.144.726-.25 1.103-.323v-7.98c-.423-.063-.79-.175-1.104-.336v-.39h3.404v.39c-.152.08-.314.148-.484.202-.17.053-.346.098-.525.134v3.512h4.226v-3.512c-.188-.045-.365-.094-.53-.148-.167-.054-.327-.117-.48-.188v-.39h3.405v.39c-.16.09-.337.16-.53.208-.193.05-.384.092-.572.128v7.98c.206.036.404.08.592.134.188.054.36.117.51.19v.39h-3.403v-.39c.323-.145.66-.252 1.01-.324v-3.768h-4.226v3.768c.18.036.355.08.526.134.17.054.332.117.484.19v.39zM130.11 120.815h-3.405v-.39c.36-.144.727-.25 1.104-.323v-7.98c-.423-.063-.79-.175-1.105-.336v-.39h3.405v.39c-.153.08-.314.148-.485.202-.17.053-.345.098-.525.134v3.512h4.226v-3.512c-.19-.045-.366-.094-.532-.148-.166-.054-.325-.117-.477-.188v-.39h3.404v.39c-.16.09-.338.16-.53.208-.193.05-.384.092-.572.128v7.98c.206.036.403.08.592.134.188.054.358.117.51.19v.39h-3.403v-.39c.322-.145.66-.252 1.01-.324v-3.768H129.1v3.768c.18.036.355.08.525.134.17.054.332.117.485.19v.39z"/>
        <path stroke="#5A89A1" d="M113.61 103.104l-3.206 5.048M123.3 103.104l3.206 5.048M93.024 73.948l3.205 5.05M50.254 104.786v4.52" stroke-linecap="square"/>
        <g stroke="#5A89A1" stroke-linecap="square">
          <path d="M159.9 87.632l-3.172 3.17M161.88 89.614l-3.195 3.196"/>
        </g>
        <path fill="#5A89A1" d="M138.423 44.512c0-.7.097-1.348.29-1.944.193-.597.47-1.113.834-1.548.363-.435.81-.774 1.34-1.016.528-.242 1.13-.363 1.802-.363.672 0 1.273.122 1.802.364.53.242.976.58 1.34 1.016.362.435.64.95.833 1.548.193.596.29 1.244.29 1.944s-.097 1.348-.29 1.945c-.193.596-.47 1.112-.834 1.547-.362.435-.81.774-1.338 1.016-.53.242-1.13.363-1.803.363-.674 0-1.275-.12-1.804-.363-.53-.242-.976-.58-1.34-1.016-.362-.435-.64-.95-.833-1.547-.193-.597-.29-1.245-.29-1.945zm1.44 0c0 .574.06 1.115.182 1.622.12.507.303.948.545 1.325.242.376.547.674.915.894.368.22.803.33 1.305.33.458 0 .857-.11 1.198-.33.34-.22.62-.518.84-.895.22-.378.386-.82.5-1.326.11-.507.167-1.048.167-1.622 0-.574-.06-1.114-.175-1.62-.117-.508-.296-.95-.538-1.327-.243-.377-.548-.675-.915-.895-.368-.22-.803-.33-1.306-.33-.492 0-.91.11-1.257.33-.345.22-.626.518-.84.895-.216.377-.373.82-.472 1.326-.097.508-.147 1.048-.147 1.622z"/>
        <g stroke="#5A89A1" stroke-linecap="square">
          <path d="M135.79 47.263l-3.17 3.17M137.772 49.245l-3.196 3.196"/>
        </g>
        <path fill="#5A89A1" d="M146.454 116.105c0-.7.097-1.348.29-1.944.193-.596.47-1.112.834-1.547.363-.435.81-.774 1.34-1.016.528-.242 1.13-.363 1.802-.363.673 0 1.274.12 1.803.363.53.242.976.58 1.34 1.016.362.435.64.95.833 1.548.193.597.29 1.245.29 1.945s-.097 1.348-.29 1.945c-.192.596-.47 1.112-.834 1.547-.363.435-.81.774-1.34 1.016-.528.242-1.13.363-1.802.363-.673 0-1.274-.12-1.803-.363-.53-.242-.976-.58-1.34-1.016-.362-.435-.64-.95-.833-1.547-.193-.597-.29-1.245-.29-1.945zm1.44 0c0 .574.06 1.115.182 1.622.12.507.303.948.545 1.325.243.377.548.675.916.895.368.22.803.33 1.305.33.46 0 .858-.11 1.2-.33.34-.22.62-.518.84-.895.22-.377.386-.818.498-1.325.112-.507.168-1.048.168-1.622 0-.574-.058-1.114-.175-1.62-.116-.508-.295-.95-.537-1.327-.242-.377-.547-.675-.915-.895-.368-.22-.803-.33-1.306-.33-.493 0-.912.11-1.258.33-.345.22-.625.518-.84.895-.216.377-.373.82-.472 1.326-.098.507-.148 1.047-.148 1.62zM152.402 93.404h2.907v.39c-.378.252-.746.43-1.105.54v8.65h-.767l-4.884-7.413-.525-1.05h-.042l.122 1.05v6.392c.367.1.713.256 1.036.47v.392h-2.907v-.39c.16-.1.333-.187.517-.263.184-.075.38-.145.586-.208v-7.71c-.18-.072-.357-.148-.532-.23-.174-.08-.338-.16-.49-.24v-.378h2.274l4.24 6.392.618 1.157h.054l-.068-1.157v-5.463c-.188-.08-.37-.166-.545-.256-.175-.09-.338-.184-.49-.283v-.39zM129.975 54.156h2.907v.39c-.377.25-.745.43-1.104.538v8.653h-.767l-4.883-7.415-.525-1.05h-.04l.12 1.05v6.392c.368.1.714.256 1.037.47v.392h-2.908v-.39c.162-.1.334-.187.518-.263.184-.076.38-.146.586-.21v-7.71c-.18-.07-.357-.147-.532-.228-.175-.08-.34-.16-.49-.242v-.377h2.273l4.24 6.392.618 1.157h.054l-.07-1.157v-5.464c-.187-.08-.37-.165-.544-.255-.175-.09-.338-.185-.49-.284v-.39z"/>
        <path stroke="#5A89A1" d="M150.615 104.786v4.52" stroke-linecap="square"/>
        <path fill="#5A89A1" d="M84.247 99.253h.35c.044.25.085.568.12.95.036.38.045.75.027 1.11-.134.107-.296.194-.484.26-.188.07-.388.125-.6.17-.21.044-.425.076-.645.094-.22.018-.428.027-.625.027-.754 0-1.427-.097-2.02-.29-.59-.192-1.09-.486-1.5-.88-.407-.396-.72-.9-.94-1.515-.22-.615-.33-1.344-.33-2.188 0-.88.12-1.625.363-2.24.242-.615.57-1.117.982-1.507.412-.39.892-.675 1.44-.855.547-.18 1.12-.27 1.722-.27.592 0 1.09.04 1.494.116.404.076.76.19 1.064.343 0 .142-.005.31-.014.503-.01.193-.022.397-.04.613-.018.215-.04.426-.067.632-.027.206-.054.395-.08.565h-.35l-.7-1.937c-.1-.054-.263-.09-.492-.108-.228-.018-.454-.027-.678-.027-.45 0-.873.084-1.272.25-.4.166-.75.422-1.05.767-.3.345-.54.78-.72 1.305-.18.525-.27 1.142-.27 1.85 0 .637.082 1.214.244 1.73.16.515.394.955.7 1.318.304.364.677.642 1.116.835.44.193.938.29 1.494.29.296 0 .543-.023.74-.068.197-.045.327-.103.39-.175l.633-1.67zM102.188 88.04h.35c.045.25.085.567.12.948.037.38.046.75.028 1.11-.135.108-.296.195-.484.263-.19.068-.388.124-.6.17-.21.044-.425.075-.645.093-.22.018-.428.027-.626.027-.752 0-1.425-.096-2.017-.29-.592-.192-1.092-.486-1.5-.88-.41-.395-.723-.9-.943-1.515-.22-.614-.33-1.343-.33-2.186 0-.88.122-1.627.364-2.242.242-.614.57-1.117.982-1.507.413-.39.893-.674 1.44-.853.547-.18 1.122-.27 1.723-.27.59 0 1.09.04 1.492.115.404.076.758.19 1.063.343 0 .144-.004.312-.013.505-.01.193-.023.397-.04.612-.018.215-.04.426-.068.632-.027.207-.054.395-.08.566h-.35l-.7-1.938c-.1-.054-.263-.09-.49-.108-.23-.018-.457-.027-.68-.027-.45 0-.873.083-1.272.25-.4.165-.75.42-1.05.766-.3.346-.54.78-.72 1.305-.18.525-.27 1.142-.27 1.85 0 .638.082 1.214.243 1.73.162.516.395.955.7 1.32.305.362.677.64 1.117.833.44.194.937.29 1.493.29.296 0 .543-.022.74-.067.198-.045.328-.103.39-.175l.633-1.67zM119.57 99.253h.35c.044.25.084.568.12.95.036.38.045.75.027 1.11-.135.107-.296.194-.485.26-.188.07-.387.125-.598.17-.21.044-.426.076-.646.094-.22.018-.43.027-.626.027-.753 0-1.426-.097-2.018-.29-.592-.192-1.093-.486-1.5-.88-.41-.396-.723-.9-.943-1.515-.218-.615-.328-1.344-.328-2.188 0-.88.12-1.625.363-2.24.242-.615.57-1.117.982-1.507.413-.39.893-.675 1.44-.855.547-.18 1.12-.27 1.722-.27.592 0 1.09.04 1.493.116.404.076.758.19 1.063.343 0 .142-.004.31-.013.503-.01.193-.023.397-.04.613-.02.215-.04.426-.068.632-.027.206-.054.395-.08.565h-.35l-.7-1.937c-.1-.054-.263-.09-.49-.108-.23-.018-.457-.027-.68-.027-.45 0-.873.084-1.273.25-.4.166-.75.422-1.05.767-.3.345-.54.78-.72 1.305-.178.525-.268 1.142-.268 1.85 0 .637.08 1.214.242 1.73.162.515.395.955.7 1.318.305.364.677.642 1.117.835.44.193.937.29 1.493.29.296 0 .543-.023.74-.068.198-.045.328-.103.39-.175l.633-1.67z"/>
        <g>
          <path fill="#EBEBEB" d="M50.886 203.202v-84.79l33.626-18.123h28.138l36.26 18.12 1.517 55.42-3.948 29.372H50.885z"/>
          <path fill="#F9E4BA" d="M97.528 102.127l-14.04-1.246s1.534-11.353 1.274-17.03c-.01-.19-1.567-.568-1.567-.568s9.86-10.02 14.876-9.98c4.8.036 12.007 10.204 12.007 10.204l3.465 16.873-16.014 1.747z"/>
          <path fill="#E1E1E1" d="M148.81 118.12l-6.733 3.755-5.27 24.1 2.065 27.443-1.265 29.683h16.475l1.238-22.284-3.313-51.69-3.198-11.005zM50.247 118.12l7.758 5.174 4.243 22.68-1.546 27.444 1.265 29.683H45.492l-1.756-22.284 3.312-51.69 3.2-11.005zM80.192 102.657l3.56-5.768 13.533 1.063 15.558-2.094 1.826 5.39-16.71 3.368-17.768-1.96z"/>
          <path fill="#444" d="M83.93 90.596l-3.092-6.668L78.97 68.75l4.212-12.39 5.154-3.19 7.253-2.815 7.994 2.242 8.306 4.294 4.28 11.62-1.23 15.422-3.05 6.768-13.547 2.157-14.414-2.26z"/>
        </g>
      </g>
    </g>
    <path fill="#40C8F9" d="M83.02 116.063l-.52.305c-.1-.167-.19-.276-.28-.326-.092-.058-.21-.087-.355-.087-.18 0-.327.05-.444.15-.117.097-.176.22-.176.37 0 .204.154.37.463.495l.425.17c.346.14.6.307.76.506.16.198.24.442.24.73 0 .387-.132.706-.393.958-.264.254-.59.38-.98.38-.37 0-.675-.107-.916-.323-.237-.215-.385-.518-.444-.91l.65-.142c.03.247.082.417.155.512.133.18.326.272.58.272.2 0 .366-.066.5-.2.13-.13.197-.3.197-.502 0-.082-.01-.157-.034-.225-.023-.068-.06-.13-.108-.187-.048-.058-.11-.11-.19-.16-.076-.05-.168-.098-.274-.144l-.41-.168c-.584-.244-.876-.6-.876-1.067 0-.317.123-.58.367-.793.245-.214.55-.32.913-.32.49 0 .874.235 1.15.706zm2.684-.625v2.53c0 .36.06.625.18.792.177.24.428.362.752.362.325 0 .577-.12.756-.362.12-.16.18-.425.18-.792v-2.53h.64v2.704c0 .443-.138.808-.418 1.094-.314.32-.7.48-1.158.48-.458 0-.843-.16-1.156-.48-.28-.286-.42-.65-.42-1.094v-2.704h.644zm4.685 4.2v-4.2h.64c.284 0 .51.02.68.065.17.043.316.117.433.22.12.107.215.24.284.4.072.162.108.325.108.49 0 .3-.117.556-.35.765.226.076.404.21.535.4.132.188.198.408.198.658 0 .33-.117.606-.353.833-.14.14-.3.236-.477.29-.193.053-.435.08-.725.08h-.974zm.642-2.396h.2c.24 0 .415-.052.527-.157.11-.104.166-.258.166-.46 0-.2-.057-.35-.17-.45-.115-.104-.28-.155-.498-.155h-.226v1.222zm0 1.8h.397c.29 0 .503-.055.64-.168.142-.12.214-.275.214-.462 0-.182-.07-.334-.207-.457-.134-.122-.374-.183-.72-.183h-.325v1.27zm3.905-3.604l1.178 2.91 1.194-2.91h.702l-1.91 4.517-1.868-4.517h.703zm5.403 0v4.2h-.643v-4.2h.643zm4.586.625l-.52.305c-.098-.167-.19-.276-.28-.326-.09-.058-.21-.087-.355-.087-.178 0-.326.05-.443.15-.118.097-.177.22-.177.37 0 .204.155.37.463.495l.425.17c.346.14.6.307.76.506.16.198.24.442.24.73 0 .387-.132.706-.393.958-.263.254-.59.38-.98.38-.37 0-.674-.107-.915-.323-.237-.215-.385-.518-.444-.91l.65-.142c.03.247.082.417.155.512.134.18.327.272.58.272.2 0 .367-.066.5-.2.132-.13.198-.3.198-.502 0-.082-.01-.157-.034-.225-.023-.068-.06-.13-.108-.187-.048-.058-.11-.11-.19-.16-.076-.05-.168-.098-.274-.144l-.41-.168c-.584-.244-.876-.6-.876-1.067 0-.317.123-.58.367-.793.245-.214.55-.32.913-.32.49 0 .874.235 1.15.706zm2.684-.625v2.53c0 .36.06.625.18.792.177.24.428.362.752.362.325 0 .577-.12.756-.362.12-.16.18-.425.18-.792v-2.53h.64v2.704c0 .443-.138.808-.418 1.094-.314.32-.7.48-1.158.48-.458 0-.843-.16-1.156-.48-.28-.286-.42-.65-.42-1.094v-2.704h.644zm7.005 3.18h-1.823l-.475 1.02h-.692l2.107-4.464 2.033 4.465h-.703l-.447-1.02zm-.262-.595l-.632-1.43-.66 1.43h1.293zm3.742-2.585v3.605h1.252v.596h-1.894v-4.202h.642z"/>
  </g>
</svg>
